0, 0, Header, 1, 9, 480
1, 0, Start_track
1, 0, Title_t, "Blue Tears Night"
1, 0, Tempo, 1000000
1, 0, Time_signature, 4, 2, 24, 8
1, 0, Key_signature, 4, "major"
1, 15360, Time_signature, 3, 2, 24, 8
1, 16800, Tempo, 952379
1, 16800, Time_signature, 4, 2, 24, 8
1, 47520, Key_signature, -5, "major"
1, 80160, Key_signature, 4, "major"
1, 116640, Key_signature, -5, "major"
1, 170400, Key_signature, 4, "major"
1, 178080, Tempo, 1200000
1, 178080, End_track
2, 0, Start_track
2, 0, Title_t, "Piano"
2, 0, MIDI_port, 0
2, 0, Program_c, 0, 0
2, 0, Control_c, 0, 10, 64
2, 120, Note_on_c, 0, 80, 127
2, 228, Note_off_c, 0, 80, 0
2, 480, Note_on_c, 0, 80, 127
2, 480, Note_on_c, 0, 69, 127
2, 912, Note_off_c, 0, 80, 0
2, 912, Note_off_c, 0, 69, 0
2, 960, Note_on_c, 0, 78, 127
2, 960, Note_on_c, 0, 71, 127
2, 1320, Note_off_c, 0, 78, 0
2, 1320, Note_off_c, 0, 71, 0
2, 1320, Note_on_c, 0, 80, 127
2, 1320, Note_on_c, 0, 73, 127
2, 1872, Note_off_c, 0, 80, 0
2, 1872, Note_off_c, 0, 73, 0
2, 2040, Note_on_c, 0, 80, 127
2, 2148, Note_off_c, 0, 80, 0
2, 2400, Note_on_c, 0, 80, 127
2, 2400, Note_on_c, 0, 69, 127
2, 2832, Note_off_c, 0, 80, 0
2, 2832, Note_off_c, 0, 69, 0
2, 2880, Note_on_c, 0, 78, 127
2, 2880, Note_on_c, 0, 71, 127
2, 3240, Note_off_c, 0, 78, 0
2, 3240, Note_off_c, 0, 71, 0
2, 3240, Note_on_c, 0, 80, 127
2, 3240, Note_on_c, 0, 73, 127
2, 3792, Note_off_c, 0, 80, 0
2, 3792, Note_off_c, 0, 73, 0
2, 3960, Note_on_c, 0, 80, 127
2, 4068, Note_off_c, 0, 80, 0
2, 4320, Note_on_c, 0, 80, 127
2, 4320, Note_on_c, 0, 69, 127
2, 4752, Note_off_c, 0, 80, 0
2, 4752, Note_off_c, 0, 69, 0
2, 4800, Note_on_c, 0, 78, 127
2, 4800, Note_on_c, 0, 71, 127
2, 5160, Note_off_c, 0, 78, 0
2, 5160, Note_off_c, 0, 71, 0
2, 5160, Note_on_c, 0, 80, 127
2, 5160, Note_on_c, 0, 73, 127
2, 5712, Note_off_c, 0, 80, 0
2, 5712, Note_off_c, 0, 73, 0
2, 6240, Note_on_c, 0, 66, 127
2, 6672, Note_off_c, 0, 66, 0
2, 6720, Note_on_c, 0, 68, 127
2, 7080, Note_off_c, 0, 68, 0
2, 7080, Note_on_c, 0, 76, 127
2, 7080, Note_on_c, 0, 73, 127
2, 7632, Note_off_c, 0, 76, 0
2, 7632, Note_off_c, 0, 73, 0
2, 7800, Note_on_c, 0, 68, 127
2, 7918, Note_off_c, 0, 68, 0
2, 7920, Note_on_c, 0, 73, 127
2, 8038, Note_off_c, 0, 73, 0
2, 8040, Note_on_c, 0, 75, 127
2, 8158, Note_off_c, 0, 75, 0
2, 8160, Note_on_c, 0, 76, 127
2, 8160, Note_on_c, 0, 73, 127
2, 8160, Note_on_c, 0, 68, 127
2, 8398, Note_off_c, 0, 76, 0
2, 8400, Note_on_c, 0, 75, 127
2, 8592, Note_off_c, 0, 73, 0
2, 8592, Note_off_c, 0, 68, 0
2, 8638, Note_off_c, 0, 75, 0
2, 8640, Note_on_c, 0, 76, 127
2, 8640, Note_on_c, 0, 73, 127
2, 8640, Note_on_c, 0, 66, 127
2, 8878, Note_off_c, 0, 76, 0
2, 8880, Note_on_c, 0, 75, 127
2, 8998, Note_off_c, 0, 75, 0
2, 9000, Note_off_c, 0, 73, 0
2, 9000, Note_off_c, 0, 66, 0
2, 9000, Note_on_c, 0, 76, 127
2, 9000, Note_on_c, 0, 73, 127
2, 9000, Note_on_c, 0, 68, 127
2, 9228, Note_off_c, 0, 68, 0
2, 9552, Note_off_c, 0, 76, 0
2, 9552, Note_off_c, 0, 73, 0
2, 9720, Note_on_c, 0, 68, 127
2, 9838, Note_off_c, 0, 68, 0
2, 9840, Note_on_c, 0, 73, 127
2, 9958, Note_off_c, 0, 73, 0
2, 9960, Note_on_c, 0, 75, 127
2, 10078, Note_off_c, 0, 75, 0
2, 10080, Note_on_c, 0, 76, 127
2, 10080, Note_on_c, 0, 73, 127
2, 10080, Note_on_c, 0, 68, 127
2, 10318, Note_off_c, 0, 76, 0
2, 10320, Note_on_c, 0, 75, 127
2, 10512, Note_off_c, 0, 73, 0
2, 10512, Note_off_c, 0, 68, 0
2, 10558, Note_off_c, 0, 75, 0
2, 10560, Note_on_c, 0, 76, 127
2, 10560, Note_on_c, 0, 73, 127
2, 10560, Note_on_c, 0, 66, 127
2, 10798, Note_off_c, 0, 76, 0
2, 10800, Note_on_c, 0, 75, 127
2, 10918, Note_off_c, 0, 75, 0
2, 10920, Note_off_c, 0, 73, 0
2, 10920, Note_off_c, 0, 66, 0
2, 10920, Note_on_c, 0, 76, 127
2, 10920, Note_on_c, 0, 73, 127
2, 10920, Note_on_c, 0, 68, 127
2, 11148, Note_off_c, 0, 68, 0
2, 11280, Note_on_c, 0, 76, 127
2, 11388, Note_off_c, 0, 76, 0
2, 11400, Note_on_c, 0, 80, 127
2, 11472, Note_off_c, 0, 73, 0
2, 11472, Note_off_c, 0, 76, 0
2, 11508, Note_off_c, 0, 80, 0
2, 11520, Note_on_c, 0, 88, 127
2, 11633, Note_off_c, 0, 88, 0
2, 11635, Note_on_c, 0, 87, 127
2, 11693, Note_on_c, 0, 88, 127
2, 11702, Note_on_c, 0, 87, 127
2, 11758, Note_off_c, 0, 87, 0
2, 11760, Note_on_c, 0, 85, 127
2, 11801, Note_off_c, 0, 88, 0
2, 11810, Note_off_c, 0, 87, 0
2, 11998, Note_off_c, 0, 85, 0
2, 12000, Note_on_c, 0, 76, 127
2, 12000, Note_on_c, 0, 73, 127
2, 12000, Note_on_c, 0, 68, 127
2, 12238, Note_off_c, 0, 76, 0
2, 12240, Note_on_c, 0, 75, 127
2, 12432, Note_off_c, 0, 73, 0
2, 12432, Note_off_c, 0, 68, 0
2, 12478, Note_off_c, 0, 75, 0
2, 12480, Note_on_c, 0, 76, 127
2, 12480, Note_on_c, 0, 73, 127
2, 12480, Note_on_c, 0, 66, 127
2, 12718, Note_off_c, 0, 76, 0
2, 12720, Note_on_c, 0, 75, 127
2, 12838, Note_off_c, 0, 75, 0
2, 12840, Note_off_c, 0, 73, 0
2, 12840, Note_off_c, 0, 66, 0
2, 12840, Note_on_c, 0, 76, 127
2, 12840, Note_on_c, 0, 73, 127
2, 12840, Note_on_c, 0, 68, 127
2, 13068, Note_off_c, 0, 68, 0
2, 13392, Note_off_c, 0, 76, 0
2, 13392, Note_off_c, 0, 73, 0
2, 13560, Note_on_c, 0, 73, 127
2, 13678, Note_off_c, 0, 73, 0
2, 13680, Note_on_c, 0, 75, 127
2, 13798, Note_off_c, 0, 75, 0
2, 13800, Note_on_c, 0, 76, 127
2, 13918, Note_off_c, 0, 76, 0
2, 13920, Note_on_c, 0, 80, 127
2, 13920, Note_on_c, 0, 73, 127
2, 13920, Note_on_c, 0, 69, 127
2, 14038, Note_off_c, 0, 80, 0
2, 14040, Note_on_c, 0, 76, 127
2, 14158, Note_off_c, 0, 76, 0
2, 14160, Note_on_c, 0, 73, 127
2, 14278, Note_off_c, 0, 73, 0
2, 14280, Note_on_c, 0, 80, 127
2, 14352, Note_off_c, 0, 69, 0
2, 14352, Note_off_c, 0, 73, 0
2, 14398, Note_off_c, 0, 80, 0
2, 14400, Note_on_c, 0, 78, 127
2, 14400, Note_on_c, 0, 71, 127
2, 14400, Note_on_c, 0, 68, 127
2, 14518, Note_off_c, 0, 78, 0
2, 14520, Note_on_c, 0, 76, 127
2, 14638, Note_off_c, 0, 76, 0
2, 14640, Note_on_c, 0, 75, 127
2, 14758, Note_off_c, 0, 75, 0
2, 14760, Note_off_c, 0, 71, 0
2, 14760, Note_off_c, 0, 68, 0
2, 14760, Note_on_c, 0, 73, 127
2, 14760, Note_on_c, 0, 68, 127
2, 15600, Note_on_c, 0, 97, 127
2, 15640, Note_off_c, 0, 97, 0
2, 15640, Note_on_c, 0, 92, 127
2, 15680, Note_off_c, 0, 92, 0
2, 15680, Note_on_c, 0, 90, 127
2, 15720, Note_off_c, 0, 90, 0
2, 15720, Note_on_c, 0, 88, 127
2, 16224, Note_off_c, 0, 68, 0
2, 16584, Note_off_c, 0, 88, 0
2, 16800, Note_off_c, 0, 73, 0
2, 16800, Note_on_c, 0, 68, 127
2, 17038, Note_off_c, 0, 68, 0
2, 17040, Note_on_c, 0, 73, 127
2, 17278, Note_off_c, 0, 73, 0
2, 17280, Note_on_c, 0, 75, 127
2, 17518, Note_off_c, 0, 75, 0
2, 17520, Note_on_c, 0, 76, 127
2, 17638, Note_off_c, 0, 76, 0
2, 17640, Note_on_c, 0, 78, 127
2, 17998, Note_off_c, 0, 78, 0
2, 18000, Note_on_c, 0, 76, 127
2, 18238, Note_off_c, 0, 76, 0
2, 18240, Note_on_c, 0, 75, 127
2, 18358, Note_off_c, 0, 75, 0
2, 18360, Note_on_c, 0, 73, 127
2, 18576, Note_off_c, 0, 73, 0
2, 18600, Note_on_c, 0, 68, 127
2, 18958, Note_off_c, 0, 68, 0
2, 18960, Note_on_c, 0, 73, 127
2, 19198, Note_off_c, 0, 73, 0
2, 19200, Note_on_c, 0, 75, 127
2, 19438, Note_off_c, 0, 75, 0
2, 19440, Note_on_c, 0, 76, 127
2, 19558, Note_off_c, 0, 76, 0
2, 19560, Note_on_c, 0, 78, 127
2, 19918, Note_off_c, 0, 78, 0
2, 19920, Note_on_c, 0, 76, 127
2, 20158, Note_off_c, 0, 76, 0
2, 20160, Note_on_c, 0, 75, 127
2, 20278, Note_off_c, 0, 75, 0
2, 20280, Note_on_c, 0, 73, 127
2, 20496, Note_off_c, 0, 73, 0
2, 20520, Note_on_c, 0, 68, 127
2, 20878, Note_off_c, 0, 68, 0
2, 20880, Note_on_c, 0, 71, 127
2, 21118, Note_off_c, 0, 71, 0
2, 21120, Note_on_c, 0, 66, 127
2, 21358, Note_off_c, 0, 66, 0
2, 21360, Note_on_c, 0, 68, 127
2, 21478, Note_off_c, 0, 68, 0
2, 21480, Note_on_c, 0, 64, 127
2, 21838, Note_off_c, 0, 64, 0
2, 21840, Note_on_c, 0, 66, 127
2, 22078, Note_off_c, 0, 66, 0
2, 22080, Note_on_c, 0, 63, 127
2, 22198, Note_off_c, 0, 63, 0
2, 22200, Note_on_c, 0, 64, 127
2, 22318, Note_off_c, 0, 64, 0
2, 22320, Note_on_c, 0, 66, 127
2, 22558, Note_off_c, 0, 66, 0
2, 22560, Note_on_c, 0, 68, 127
2, 23424, Note_off_c, 0, 68, 0
2, 23460, Note_on_c, 0, 63, 127
2, 23490, Note_on_c, 0, 68, 127
2, 23520, Note_on_c, 0, 72, 127
2, 24180, Note_off_c, 0, 63, 0
2, 24210, Note_off_c, 0, 68, 0
2, 24240, Note_off_c, 0, 72, 0
2, 24240, Note_on_c, 0, 68, 127
2, 24478, Note_off_c, 0, 68, 0
2, 24480, Note_on_c, 0, 68, 127
2, 24718, Note_off_c, 0, 68, 0
2, 24720, Note_on_c, 0, 73, 127
2, 24958, Note_off_c, 0, 73, 0
2, 24960, Note_on_c, 0, 75, 127
2, 25198, Note_off_c, 0, 75, 0
2, 25200, Note_on_c, 0, 76, 127
2, 25318, Note_off_c, 0, 76, 0
2, 25320, Note_on_c, 0, 78, 127
2, 25678, Note_off_c, 0, 78, 0
2, 25680, Note_on_c, 0, 76, 127
2, 25918, Note_off_c, 0, 76, 0
2, 25920, Note_on_c, 0, 75, 127
2, 26038, Note_off_c, 0, 75, 0
2, 26040, Note_on_c, 0, 73, 127
2, 26256, Note_off_c, 0, 73, 0
2, 26280, Note_on_c, 0, 68, 127
2, 26638, Note_off_c, 0, 68, 0
2, 26640, Note_on_c, 0, 73, 127
2, 26878, Note_off_c, 0, 73, 0
2, 26880, Note_on_c, 0, 75, 127
2, 27118, Note_off_c, 0, 75, 0
2, 27120, Note_on_c, 0, 76, 127
2, 27238, Note_off_c, 0, 76, 0
2, 27240, Note_on_c, 0, 78, 127
2, 27598, Note_off_c, 0, 78, 0
2, 27600, Note_on_c, 0, 76, 127
2, 27838, Note_off_c, 0, 76, 0
2, 27840, Note_on_c, 0, 75, 127
2, 27958, Note_off_c, 0, 75, 0
2, 27960, Note_on_c, 0, 73, 127
2, 28176, Note_off_c, 0, 73, 0
2, 28200, Note_on_c, 0, 68, 127
2, 28558, Note_off_c, 0, 68, 0
2, 28560, Note_on_c, 0, 71, 127
2, 28798, Note_off_c, 0, 71, 0
2, 28800, Note_on_c, 0, 66, 127
2, 29038, Note_off_c, 0, 66, 0
2, 29040, Note_on_c, 0, 68, 127
2, 29158, Note_off_c, 0, 68, 0
2, 29160, Note_on_c, 0, 64, 127
2, 29518, Note_off_c, 0, 64, 0
2, 29520, Note_on_c, 0, 66, 127
2, 29758, Note_off_c, 0, 66, 0
2, 29760, Note_on_c, 0, 63, 127
2, 29998, Note_off_c, 0, 63, 0
2, 30000, Note_on_c, 0, 64, 127
2, 30118, Note_off_c, 0, 64, 0
2, 30120, Note_on_c, 0, 61, 127
2, 31680, Note_off_c, 0, 61, 0
2, 31945, Note_on_c, 0, 73, 127
2, 32033, Note_on_c, 0, 76, 127
2, 32130, Note_on_c, 0, 80, 127
2, 32308, Note_off_c, 0, 73, 0
2, 32338, Note_off_c, 0, 76, 0
2, 32368, Note_off_c, 0, 80, 0
2, 32400, Note_on_c, 0, 85, 127
2, 32638, Note_off_c, 0, 85, 0
2, 32640, Note_on_c, 0, 87, 127
2, 32878, Note_off_c, 0, 87, 0
2, 32880, Note_on_c, 0, 88, 127
2, 32998, Note_off_c, 0, 88, 0
2, 33000, Note_on_c, 0, 90, 127
2, 33358, Note_off_c, 0, 90, 0
2, 33360, Note_on_c, 0, 88, 127
2, 33598, Note_off_c, 0, 88, 0
2, 33600, Note_on_c, 0, 87, 127
2, 33718, Note_off_c, 0, 87, 0
2, 33720, Note_on_c, 0, 85, 127
2, 33958, Note_off_c, 0, 85, 0
2, 33960, Note_on_c, 0, 80, 127
2, 34080, Note_on_c, 0, 76, 127
2, 34080, Note_on_c, 0, 73, 127
2, 34296, Note_off_c, 0, 80, 0
2, 34296, Note_off_c, 0, 76, 0
2, 34296, Note_off_c, 0, 73, 0
2, 34320, Note_on_c, 0, 85, 127
2, 34558, Note_off_c, 0, 85, 0
2, 34560, Note_on_c, 0, 87, 127
2, 34798, Note_off_c, 0, 87, 0
2, 34800, Note_on_c, 0, 88, 127
2, 34918, Note_off_c, 0, 88, 0
2, 34920, Note_on_c, 0, 90, 127
2, 35278, Note_off_c, 0, 90, 0
2, 35280, Note_on_c, 0, 88, 127
2, 35518, Note_off_c, 0, 88, 0
2, 35520, Note_on_c, 0, 87, 127
2, 35638, Note_off_c, 0, 87, 0
2, 35640, Note_on_c, 0, 85, 127
2, 35878, Note_off_c, 0, 85, 0
2, 35880, Note_on_c, 0, 80, 127
2, 36000, Note_on_c, 0, 75, 127
2, 36000, Note_on_c, 0, 71, 127
2, 36238, Note_off_c, 0, 80, 0
2, 36238, Note_off_c, 0, 75, 0
2, 36238, Note_off_c, 0, 71, 0
2, 36240, Note_on_c, 0, 83, 127
2, 36478, Note_off_c, 0, 83, 0
2, 36480, Note_on_c, 0, 78, 127
2, 36718, Note_off_c, 0, 78, 0
2, 36720, Note_on_c, 0, 80, 127
2, 36838, Note_off_c, 0, 80, 0
2, 36840, Note_on_c, 0, 76, 127
2, 37198, Note_off_c, 0, 76, 0
2, 37200, Note_on_c, 0, 78, 127
2, 37438, Note_off_c, 0, 78, 0
2, 37440, Note_on_c, 0, 75, 127
2, 37558, Note_off_c, 0, 75, 0
2, 37560, Note_on_c, 0, 76, 127
2, 37678, Note_off_c, 0, 76, 0
2, 37680, Note_on_c, 0, 78, 127
2, 37763, Note_on_c, 0, 73, 127
2, 37841, Note_on_c, 0, 76, 127
2, 37851, Note_off_c, 0, 78, 0
2, 37928, Note_on_c, 0, 80, 127
2, 38627, Note_off_c, 0, 73, 0
2, 38705, Note_off_c, 0, 76, 0
2, 38723, Note_on_c, 0, 75, 127
2, 38792, Note_off_c, 0, 80, 0
2, 38801, Note_on_c, 0, 80, 127
2, 38888, Note_on_c, 0, 84, 127
2, 39443, Note_off_c, 0, 75, 0
2, 39521, Note_off_c, 0, 80, 0
2, 39536, Note_off_c, 0, 84, 0
2, 39600, Note_on_c, 0, 80, 127
2, 39838, Note_off_c, 0, 80, 0
2, 39840, Note_on_c, 0, 80, 127
2, 39840, Note_on_c, 0, 76, 127
2, 39840, Note_on_c, 0, 73, 127
2, 40078, Note_off_c, 0, 80, 0
2, 40078, Note_off_c, 0, 76, 0
2, 40078, Note_off_c, 0, 73, 0
2, 40080, Note_on_c, 0, 85, 127
2, 40318, Note_off_c, 0, 85, 0
2, 40320, Note_on_c, 0, 87, 127
2, 40558, Note_off_c, 0, 87, 0
2, 40560, Note_on_c, 0, 88, 127
2, 40678, Note_off_c, 0, 88, 0
2, 40680, Note_on_c, 0, 90, 127
2, 40800, Note_on_c, 0, 85, 127
2, 40800, Note_on_c, 0, 80, 127
2, 40800, Note_on_c, 0, 76, 127
2, 41016, Note_off_c, 0, 85, 0
2, 41038, Note_off_c, 0, 90, 0
2, 41040, Note_on_c, 0, 88, 127
2, 41232, Note_off_c, 0, 80, 0
2, 41232, Note_off_c, 0, 76, 0
2, 41278, Note_off_c, 0, 88, 0
2, 41280, Note_on_c, 0, 87, 127
2, 41398, Note_off_c, 0, 87, 0
2, 41400, Note_on_c, 0, 85, 127
2, 41616, Note_off_c, 0, 85, 0
2, 41640, Note_on_c, 0, 80, 127
2, 41760, Note_on_c, 0, 76, 127
2, 41760, Note_on_c, 0, 73, 127
2, 41998, Note_off_c, 0, 80, 0
2, 41998, Note_off_c, 0, 76, 0
2, 41998, Note_off_c, 0, 73, 0
2, 42000, Note_on_c, 0, 85, 127
2, 42238, Note_off_c, 0, 85, 0
2, 42240, Note_on_c, 0, 87, 127
2, 42478, Note_off_c, 0, 87, 0
2, 42480, Note_on_c, 0, 88, 127
2, 42598, Note_off_c, 0, 88, 0
2, 42600, Note_on_c, 0, 90, 127
2, 42720, Note_on_c, 0, 85, 127
2, 42720, Note_on_c, 0, 80, 127
2, 42720, Note_on_c, 0, 76, 127
2, 42936, Note_off_c, 0, 85, 0
2, 42958, Note_off_c, 0, 90, 0
2, 42960, Note_on_c, 0, 88, 127
2, 43152, Note_off_c, 0, 80, 0
2, 43152, Note_off_c, 0, 76, 0
2, 43198, Note_off_c, 0, 88, 0
2, 43200, Note_on_c, 0, 87, 127
2, 43318, Note_off_c, 0, 87, 0
2, 43320, Note_on_c, 0, 85, 127
2, 43536, Note_off_c, 0, 85, 0
2, 43560, Note_on_c, 0, 80, 127
2, 43680, Note_on_c, 0, 75, 127
2, 43680, Note_on_c, 0, 71, 127
2, 43918, Note_off_c, 0, 80, 0
2, 43918, Note_off_c, 0, 75, 0
2, 43918, Note_off_c, 0, 71, 0
2, 43920, Note_on_c, 0, 83, 127
2, 44158, Note_off_c, 0, 83, 0
2, 44160, Note_on_c, 0, 78, 127
2, 44398, Note_off_c, 0, 78, 0
2, 44400, Note_on_c, 0, 80, 127
2, 44518, Note_off_c, 0, 80, 0
2, 44520, Note_on_c, 0, 76, 127
2, 44878, Note_off_c, 0, 76, 0
2, 44880, Note_on_c, 0, 78, 127
2, 45118, Note_off_c, 0, 78, 0
2, 45120, Note_on_c, 0, 75, 127
2, 45358, Note_off_c, 0, 75, 0
2, 45360, Note_on_c, 0, 76, 127
2, 45478, Note_off_c, 0, 76, 0
2, 45480, Note_on_c, 0, 73, 127
2, 46464, Note_off_c, 0, 73, 0
2, 46560, Note_on_c, 0, 73, 127
2, 46992, Note_off_c, 0, 73, 0
2, 47040, Note_on_c, 0, 73, 127
2, 47472, Note_off_c, 0, 73, 0
2, 47520, Note_on_c, 0, 61, 127
2, 47520, Note_on_c, 0, 70, 127
2, 47952, Note_off_c, 0, 61, 0
2, 47952, Note_off_c, 0, 70, 0
2, 48000, Note_on_c, 0, 72, 127
2, 48000, Note_on_c, 0, 63, 127
2, 48432, Note_off_c, 0, 72, 0
2, 48432, Note_off_c, 0, 63, 0
2, 48480, Note_on_c, 0, 73, 127
2, 48480, Note_on_c, 0, 70, 127
2, 48480, Note_on_c, 0, 65, 127
2, 48912, Note_off_c, 0, 73, 0
2, 48912, Note_off_c, 0, 70, 0
2, 48912, Note_off_c, 0, 65, 0
2, 48960, Note_on_c, 0, 75, 127
2, 48960, Note_on_c, 0, 70, 127
2, 48960, Note_on_c, 0, 65, 127
2, 49392, Note_off_c, 0, 75, 0
2, 49392, Note_off_c, 0, 70, 0
2, 49392, Note_off_c, 0, 65, 0
2, 49440, Note_on_c, 0, 61, 127
2, 49440, Note_on_c, 0, 70, 127
2, 49872, Note_off_c, 0, 61, 0
2, 49872, Note_off_c, 0, 70, 0
2, 49920, Note_on_c, 0, 72, 127
2, 49920, Note_on_c, 0, 63, 127
2, 50352, Note_off_c, 0, 72, 0
2, 50352, Note_off_c, 0, 63, 0
2, 50400, Note_on_c, 0, 73, 127
2, 50400, Note_on_c, 0, 70, 127
2, 50400, Note_on_c, 0, 65, 127
2, 50832, Note_off_c, 0, 73, 0
2, 50832, Note_off_c, 0, 70, 0
2, 50832, Note_off_c, 0, 65, 0
2, 50880, Note_on_c, 0, 75, 127
2, 50880, Note_on_c, 0, 70, 127
2, 50880, Note_on_c, 0, 65, 127
2, 51312, Note_off_c, 0, 75, 0
2, 51312, Note_off_c, 0, 70, 0
2, 51312, Note_off_c, 0, 65, 0
2, 51360, Note_on_c, 0, 61, 127
2, 51360, Note_on_c, 0, 68, 127
2, 51360, Note_on_c, 0, 73, 127
2, 51792, Note_off_c, 0, 61, 0
2, 51792, Note_off_c, 0, 68, 0
2, 51792, Note_off_c, 0, 73, 0
2, 51840, Note_on_c, 0, 63, 127
2, 51840, Note_on_c, 0, 68, 127
2, 51840, Note_on_c, 0, 72, 127
2, 52078, Note_off_c, 0, 72, 0
2, 52080, Note_on_c, 0, 73, 127
2, 52272, Note_off_c, 0, 63, 0
2, 52272, Note_off_c, 0, 68, 0
2, 52318, Note_off_c, 0, 73, 0
2, 52320, Note_on_c, 0, 65, 127
2, 52320, Note_on_c, 0, 72, 127
2, 52558, Note_off_c, 0, 72, 0
2, 52560, Note_on_c, 0, 70, 127
2, 52752, Note_off_c, 0, 65, 0
2, 52798, Note_off_c, 0, 70, 0
2, 52800, Note_on_c, 0, 69, 127
2, 53038, Note_off_c, 0, 69, 0
2, 53040, Note_on_c, 0, 65, 127
2, 53278, Note_off_c, 0, 65, 0
2, 53280, Note_on_c, 0, 60, 127
2, 53280, Note_on_c, 0, 65, 127
2, 53280, Note_on_c, 0, 69, 127
2, 54144, Note_off_c, 0, 60, 0
2, 54144, Note_off_c, 0, 65, 0
2, 54144, Note_off_c, 0, 69, 0
2, 54240, Note_on_c, 0, 77, 127
2, 54240, Note_on_c, 0, 72, 127
2, 54240, Note_on_c, 0, 69, 127
2, 54672, Note_off_c, 0, 77, 0
2, 54672, Note_off_c, 0, 72, 0
2, 54672, Note_off_c, 0, 69, 0
2, 54720, Note_on_c, 0, 73, 127
2, 54936, Note_off_c, 0, 73, 0
2, 54960, Note_on_c, 0, 75, 127
2, 55176, Note_off_c, 0, 75, 0
2, 55200, Note_on_c, 0, 77, 127
2, 55200, Note_on_c, 0, 73, 127
2, 55200, Note_on_c, 0, 70, 127
2, 55632, Note_off_c, 0, 77, 0
2, 55632, Note_off_c, 0, 73, 0
2, 55632, Note_off_c, 0, 70, 0
2, 55680, Note_on_c, 0, 75, 127
2, 55680, Note_on_c, 0, 70, 127
2, 56112, Note_off_c, 0, 75, 0
2, 56112, Note_off_c, 0, 70, 0
2, 56160, Note_on_c, 0, 78, 127
2, 56160, Note_on_c, 0, 75, 127
2, 56160, Note_on_c, 0, 70, 127
2, 56484, Note_off_c, 0, 70, 0
2, 56484, Note_off_c, 0, 75, 0
2, 56520, Note_off_c, 0, 78, 0
2, 56520, Note_on_c, 0, 77, 127
2, 56520, Note_on_c, 0, 73, 127
2, 56520, Note_on_c, 0, 70, 127
2, 56856, Note_off_c, 0, 77, 0
2, 56856, Note_off_c, 0, 73, 0
2, 56856, Note_off_c, 0, 70, 0
2, 56880, Note_on_c, 0, 75, 127
2, 56880, Note_on_c, 0, 70, 127
2, 57096, Note_off_c, 0, 75, 0
2, 57096, Note_off_c, 0, 70, 0
2, 57120, Note_on_c, 0, 77, 127
2, 57120, Note_on_c, 0, 73, 127
2, 57120, Note_on_c, 0, 70, 127
2, 57552, Note_off_c, 0, 77, 0
2, 57552, Note_off_c, 0, 73, 0
2, 57552, Note_off_c, 0, 70, 0
2, 57600, Note_on_c, 0, 75, 127
2, 57600, Note_on_c, 0, 70, 127
2, 58032, Note_off_c, 0, 75, 0
2, 58032, Note_off_c, 0, 70, 0
2, 58080, Note_on_c, 0, 78, 127
2, 58080, Note_on_c, 0, 75, 127
2, 58080, Note_on_c, 0, 70, 127
2, 58404, Note_off_c, 0, 70, 0
2, 58404, Note_off_c, 0, 75, 0
2, 58440, Note_off_c, 0, 78, 0
2, 58440, Note_on_c, 0, 77, 127
2, 58440, Note_on_c, 0, 73, 127
2, 58440, Note_on_c, 0, 70, 127
2, 58776, Note_off_c, 0, 77, 0
2, 58776, Note_off_c, 0, 73, 0
2, 58776, Note_off_c, 0, 70, 0
2, 58800, Note_on_c, 0, 75, 127
2, 58800, Note_on_c, 0, 70, 127
2, 59016, Note_off_c, 0, 75, 0
2, 59016, Note_off_c, 0, 70, 0
2, 59040, Note_on_c, 0, 75, 127
2, 59040, Note_on_c, 0, 72, 127
2, 59040, Note_on_c, 0, 68, 127
2, 59472, Note_off_c, 0, 68, 0
2, 59472, Note_off_c, 0, 72, 0
2, 59518, Note_off_c, 0, 75, 0
2, 59520, Note_on_c, 0, 73, 127
2, 59520, Note_on_c, 0, 68, 127
2, 59758, Note_off_c, 0, 73, 0
2, 59760, Note_on_c, 0, 75, 127
2, 59952, Note_off_c, 0, 68, 0
2, 59998, Note_off_c, 0, 75, 0
2, 60000, Note_on_c, 0, 73, 127
2, 60000, Note_on_c, 0, 66, 127
2, 60432, Note_off_c, 0, 66, 0
2, 60478, Note_off_c, 0, 73, 0
2, 60480, Note_on_c, 0, 72, 127
2, 60480, Note_on_c, 0, 66, 127
2, 60718, Note_off_c, 0, 72, 0
2, 60720, Note_on_c, 0, 73, 127
2, 60912, Note_off_c, 0, 66, 0
2, 60958, Note_off_c, 0, 73, 0
2, 60960, Note_on_c, 0, 65, 127
2, 60960, Note_on_c, 0, 72, 127
2, 61198, Note_off_c, 0, 65, 0
2, 61198, Note_off_c, 0, 72, 0
2, 61200, Note_on_c, 0, 65, 127
2, 61200, Note_on_c, 0, 70, 127
2, 61438, Note_off_c, 0, 65, 0
2, 61438, Note_off_c, 0, 70, 0
2, 61440, Note_on_c, 0, 65, 127
2, 61440, Note_on_c, 0, 69, 127
2, 62160, Note_off_c, 0, 65, 0
2, 62160, Note_off_c, 0, 69, 0
2, 62280, Note_on_c, 0, 69, 127
2, 62388, Note_off_c, 0, 69, 0
2, 62400, Note_on_c, 0, 72, 127
2, 62508, Note_off_c, 0, 72, 0
2, 62520, Note_on_c, 0, 77, 127
2, 62628, Note_off_c, 0, 77, 0
2, 62640, Note_on_c, 0, 81, 127
2, 62856, Note_off_c, 0, 81, 0
2, 62880, Note_on_c, 0, 82, 127
2, 63000, Note_on_c, 0, 73, 127
2, 63108, Note_off_c, 0, 73, 0
2, 63120, Note_on_c, 0, 77, 127
2, 63228, Note_off_c, 0, 77, 0
2, 63240, Note_on_c, 0, 73, 127
2, 63348, Note_off_c, 0, 73, 0
2, 63358, Note_off_c, 0, 82, 0
2, 63360, Note_on_c, 0, 84, 127
2, 63480, Note_on_c, 0, 73, 127
2, 63588, Note_off_c, 0, 73, 0
2, 63600, Note_on_c, 0, 77, 127
2, 63708, Note_off_c, 0, 77, 0
2, 63720, Note_on_c, 0, 73, 127
2, 63828, Note_off_c, 0, 73, 0
2, 63838, Note_off_c, 0, 84, 0
2, 63840, Note_on_c, 0, 85, 127
2, 63960, Note_on_c, 0, 77, 127
2, 64068, Note_off_c, 0, 77, 0
2, 64080, Note_on_c, 0, 82, 127
2, 64188, Note_off_c, 0, 82, 0
2, 64200, Note_on_c, 0, 77, 127
2, 64308, Note_off_c, 0, 77, 0
2, 64318, Note_off_c, 0, 85, 0
2, 64320, Note_on_c, 0, 87, 127
2, 64440, Note_on_c, 0, 77, 127
2, 64548, Note_off_c, 0, 77, 0
2, 64560, Note_on_c, 0, 82, 127
2, 64668, Note_off_c, 0, 82, 0
2, 64680, Note_on_c, 0, 77, 127
2, 64752, Note_off_c, 0, 87, 0
2, 64788, Note_off_c, 0, 77, 0
2, 64800, Note_on_c, 0, 82, 127
2, 64920, Note_on_c, 0, 73, 127
2, 65028, Note_off_c, 0, 73, 0
2, 65040, Note_on_c, 0, 77, 127
2, 65148, Note_off_c, 0, 77, 0
2, 65160, Note_on_c, 0, 73, 127
2, 65268, Note_off_c, 0, 73, 0
2, 65278, Note_off_c, 0, 82, 0
2, 65280, Note_on_c, 0, 84, 127
2, 65400, Note_on_c, 0, 73, 127
2, 65508, Note_off_c, 0, 73, 0
2, 65520, Note_on_c, 0, 77, 127
2, 65628, Note_off_c, 0, 77, 0
2, 65640, Note_on_c, 0, 73, 127
2, 65748, Note_off_c, 0, 73, 0
2, 65758, Note_off_c, 0, 84, 0
2, 65760, Note_on_c, 0, 85, 127
2, 65880, Note_on_c, 0, 77, 127
2, 65988, Note_off_c, 0, 77, 0
2, 66000, Note_on_c, 0, 82, 127
2, 66108, Note_off_c, 0, 82, 0
2, 66120, Note_on_c, 0, 77, 127
2, 66228, Note_off_c, 0, 77, 0
2, 66238, Note_off_c, 0, 85, 0
2, 66240, Note_on_c, 0, 87, 127
2, 66360, Note_on_c, 0, 77, 127
2, 66468, Note_off_c, 0, 77, 0
2, 66480, Note_on_c, 0, 82, 127
2, 66588, Note_off_c, 0, 82, 0
2, 66600, Note_on_c, 0, 77, 127
2, 66708, Note_off_c, 0, 77, 0
2, 66718, Note_off_c, 0, 87, 0
2, 66720, Note_on_c, 0, 85, 127
2, 66840, Note_on_c, 0, 75, 127
2, 66948, Note_off_c, 0, 75, 0
2, 66960, Note_on_c, 0, 80, 127
2, 67068, Note_off_c, 0, 80, 0
2, 67080, Note_on_c, 0, 75, 127
2, 67188, Note_off_c, 0, 75, 0
2, 67198, Note_off_c, 0, 85, 0
2, 67200, Note_on_c, 0, 84, 127
2, 67320, Note_on_c, 0, 75, 127
2, 67428, Note_off_c, 0, 75, 0
2, 67438, Note_off_c, 0, 84, 0
2, 67440, Note_on_c, 0, 85, 127
2, 67440, Note_on_c, 0, 80, 127
2, 67548, Note_off_c, 0, 80, 0
2, 67560, Note_on_c, 0, 75, 127
2, 67668, Note_off_c, 0, 75, 0
2, 67678, Note_off_c, 0, 85, 0
2, 67680, Note_on_c, 0, 84, 127
2, 67800, Note_on_c, 0, 73, 127
2, 67908, Note_off_c, 0, 73, 0
2, 67918, Note_off_c, 0, 84, 0
2, 67920, Note_on_c, 0, 82, 127
2, 67920, Note_on_c, 0, 78, 127
2, 68028, Note_off_c, 0, 78, 0
2, 68040, Note_on_c, 0, 73, 127
2, 68148, Note_off_c, 0, 73, 0
2, 68158, Note_off_c, 0, 82, 0
2, 68160, Note_on_c, 0, 81, 127
2, 68280, Note_on_c, 0, 73, 127
2, 68388, Note_off_c, 0, 73, 0
2, 68398, Note_off_c, 0, 81, 0
2, 68400, Note_on_c, 0, 77, 127
2, 68400, Note_on_c, 0, 77, 127
2, 68508, Note_off_c, 0, 77, 0
2, 68520, Note_on_c, 0, 73, 127
2, 68628, Note_off_c, 0, 73, 0
2, 68638, Note_off_c, 0, 77, 0
2, 68640, Note_on_c, 0, 81, 127
2, 69504, Note_off_c, 0, 81, 0
2, 69600, Note_on_c, 0, 77, 127
2, 69600, Note_on_c, 0, 72, 127
2, 69600, Note_on_c, 0, 69, 127
2, 70032, Note_off_c, 0, 77, 0
2, 70032, Note_off_c, 0, 72, 0
2, 70032, Note_off_c, 0, 69, 0
2, 70080, Note_on_c, 0, 73, 127
2, 70296, Note_off_c, 0, 73, 0
2, 70320, Note_on_c, 0, 75, 127
2, 70536, Note_off_c, 0, 75, 0
2, 70560, Note_on_c, 0, 77, 127
2, 70560, Note_on_c, 0, 73, 127
2, 70560, Note_on_c, 0, 70, 127
2, 70992, Note_off_c, 0, 77, 0
2, 70992, Note_off_c, 0, 73, 0
2, 70992, Note_off_c, 0, 70, 0
2, 71040, Note_on_c, 0, 75, 127
2, 71040, Note_on_c, 0, 70, 127
2, 71472, Note_off_c, 0, 75, 0
2, 71472, Note_off_c, 0, 70, 0
2, 71520, Note_on_c, 0, 78, 127
2, 71520, Note_on_c, 0, 75, 127
2, 71520, Note_on_c, 0, 70, 127
2, 71844, Note_off_c, 0, 70, 0
2, 71844, Note_off_c, 0, 75, 0
2, 71880, Note_off_c, 0, 78, 0
2, 71880, Note_on_c, 0, 77, 127
2, 71880, Note_on_c, 0, 73, 127
2, 71880, Note_on_c, 0, 70, 127
2, 72216, Note_off_c, 0, 77, 0
2, 72216, Note_off_c, 0, 73, 0
2, 72216, Note_off_c, 0, 70, 0
2, 72240, Note_on_c, 0, 75, 127
2, 72240, Note_on_c, 0, 70, 127
2, 72456, Note_off_c, 0, 75, 0
2, 72456, Note_off_c, 0, 70, 0
2, 72480, Note_on_c, 0, 77, 127
2, 72480, Note_on_c, 0, 73, 127
2, 72480, Note_on_c, 0, 70, 127
2, 72912, Note_off_c, 0, 77, 0
2, 72912, Note_off_c, 0, 73, 0
2, 72912, Note_off_c, 0, 70, 0
2, 72960, Note_on_c, 0, 75, 127
2, 72960, Note_on_c, 0, 70, 127
2, 73392, Note_off_c, 0, 75, 0
2, 73392, Note_off_c, 0, 70, 0
2, 73440, Note_on_c, 0, 78, 127
2, 73440, Note_on_c, 0, 75, 127
2, 73440, Note_on_c, 0, 70, 127
2, 73764, Note_off_c, 0, 70, 0
2, 73764, Note_off_c, 0, 75, 0
2, 73800, Note_off_c, 0, 78, 0
2, 73800, Note_on_c, 0, 77, 127
2, 73800, Note_on_c, 0, 73, 127
2, 73800, Note_on_c, 0, 70, 127
2, 74136, Note_off_c, 0, 77, 0
2, 74136, Note_off_c, 0, 73, 0
2, 74136, Note_off_c, 0, 70, 0
2, 74160, Note_on_c, 0, 75, 127
2, 74160, Note_on_c, 0, 70, 127
2, 74376, Note_off_c, 0, 75, 0
2, 74376, Note_off_c, 0, 70, 0
2, 74400, Note_on_c, 0, 75, 127
2, 74400, Note_on_c, 0, 72, 127
2, 74400, Note_on_c, 0, 68, 127
2, 74832, Note_off_c, 0, 68, 0
2, 74832, Note_off_c, 0, 72, 0
2, 74878, Note_off_c, 0, 75, 0
2, 74880, Note_on_c, 0, 73, 127
2, 74880, Note_on_c, 0, 68, 127
2, 75118, Note_off_c, 0, 73, 0
2, 75120, Note_on_c, 0, 75, 127
2, 75312, Note_off_c, 0, 68, 0
2, 75358, Note_off_c, 0, 75, 0
2, 75360, Note_on_c, 0, 73, 127
2, 75360, Note_on_c, 0, 66, 127
2, 75792, Note_off_c, 0, 66, 0
2, 75838, Note_off_c, 0, 73, 0
2, 75840, Note_on_c, 0, 72, 127
2, 75840, Note_on_c, 0, 66, 127
2, 76078, Note_off_c, 0, 72, 0
2, 76080, Note_on_c, 0, 73, 127
2, 76272, Note_off_c, 0, 66, 0
2, 76296, Note_off_c, 0, 73, 0
2, 76320, Note_on_c, 0, 65, 127
2, 76320, Note_on_c, 0, 72, 127
2, 76536, Note_off_c, 0, 65, 0
2, 76536, Note_off_c, 0, 72, 0
2, 76560, Note_on_c, 0, 65, 127
2, 76560, Note_on_c, 0, 70, 127
2, 76776, Note_off_c, 0, 65, 0
2, 76776, Note_off_c, 0, 70, 0
2, 76800, Note_on_c, 0, 65, 127
2, 76800, Note_on_c, 0, 69, 127
2, 78240, Note_off_c, 0, 65, 0
2, 78240, Note_off_c, 0, 69, 0
2, 78240, Note_on_c, 0, 77, 127
2, 78240, Note_on_c, 0, 72, 127
2, 78240, Note_on_c, 0, 69, 127
2, 78240, Note_on_c, 0, 65, 127
2, 79968, Note_off_c, 0, 77, 0
2, 79968, Note_off_c, 0, 72, 0
2, 79968, Note_off_c, 0, 69, 0
2, 79968, Note_off_c, 0, 65, 0
2, 80100, Note_on_c, 0, 61, 127
2, 80130, Note_on_c, 0, 64, 127
2, 80160, Note_on_c, 0, 68, 127
2, 81828, Note_off_c, 0, 61, 0
2, 81858, Note_off_c, 0, 64, 0
2, 81888, Note_off_c, 0, 68, 0
2, 82020, Note_on_c, 0, 64, 127
2, 82050, Note_on_c, 0, 69, 127
2, 82080, Note_on_c, 0, 73, 127
2, 83748, Note_off_c, 0, 64, 0
2, 83778, Note_off_c, 0, 69, 0
2, 83808, Note_off_c, 0, 73, 0
2, 83885, Note_on_c, 0, 75, 127
2, 83942, Note_on_c, 0, 76, 127
2, 83993, Note_off_c, 0, 75, 0
2, 84000, Note_on_c, 0, 75, 127
2, 84050, Note_off_c, 0, 76, 0
2, 84108, Note_off_c, 0, 75, 0
2, 84120, Note_on_c, 0, 71, 127
2, 84840, Note_off_c, 0, 71, 0
2, 84840, Note_on_c, 0, 71, 127
2, 84948, Note_off_c, 0, 71, 0
2, 84960, Note_on_c, 0, 73, 127
2, 85068, Note_off_c, 0, 73, 0
2, 85080, Note_on_c, 0, 68, 127
2, 85512, Note_off_c, 0, 68, 0
2, 85560, Note_on_c, 0, 68, 127
2, 85668, Note_off_c, 0, 68, 0
2, 85680, Note_on_c, 0, 66, 127
2, 85788, Note_off_c, 0, 66, 0
2, 85800, Note_on_c, 0, 64, 127
2, 85908, Note_off_c, 0, 64, 0
2, 85920, Note_on_c, 0, 68, 127
2, 86784, Note_off_c, 0, 68, 0
2, 86880, Note_on_c, 0, 63, 127
2, 86880, Note_on_c, 0, 68, 127
2, 87744, Note_off_c, 0, 63, 0
2, 87744, Note_off_c, 0, 68, 0
2, 87840, Note_on_c, 0, 68, 127
2, 88078, Note_off_c, 0, 68, 0
2, 88080, Note_on_c, 0, 73, 127
2, 88318, Note_off_c, 0, 73, 0
2, 88320, Note_on_c, 0, 75, 127
2, 88558, Note_off_c, 0, 75, 0
2, 88560, Note_on_c, 0, 76, 127
2, 88678, Note_off_c, 0, 76, 0
2, 88680, Note_on_c, 0, 78, 127
2, 89038, Note_off_c, 0, 78, 0
2, 89040, Note_on_c, 0, 76, 127
2, 89278, Note_off_c, 0, 76, 0
2, 89280, Note_on_c, 0, 75, 127
2, 89398, Note_off_c, 0, 75, 0
2, 89400, Note_on_c, 0, 73, 127
2, 89616, Note_off_c, 0, 73, 0
2, 89640, Note_on_c, 0, 68, 127
2, 89998, Note_off_c, 0, 68, 0
2, 90000, Note_on_c, 0, 73, 127
2, 90238, Note_off_c, 0, 73, 0
2, 90240, Note_on_c, 0, 75, 127
2, 90478, Note_off_c, 0, 75, 0
2, 90480, Note_on_c, 0, 76, 127
2, 90598, Note_off_c, 0, 76, 0
2, 90600, Note_on_c, 0, 78, 127
2, 90958, Note_off_c, 0, 78, 0
2, 90960, Note_on_c, 0, 76, 127
2, 91198, Note_off_c, 0, 76, 0
2, 91200, Note_on_c, 0, 75, 127
2, 91318, Note_off_c, 0, 75, 0
2, 91320, Note_on_c, 0, 73, 127
2, 91536, Note_off_c, 0, 73, 0
2, 91560, Note_on_c, 0, 68, 127
2, 91918, Note_off_c, 0, 68, 0
2, 91920, Note_on_c, 0, 71, 127
2, 92158, Note_off_c, 0, 71, 0
2, 92160, Note_on_c, 0, 66, 127
2, 92398, Note_off_c, 0, 66, 0
2, 92400, Note_on_c, 0, 68, 127
2, 92518, Note_off_c, 0, 68, 0
2, 92520, Note_on_c, 0, 64, 127
2, 92878, Note_off_c, 0, 64, 0
2, 92880, Note_on_c, 0, 66, 127
2, 93118, Note_off_c, 0, 66, 0
2, 93120, Note_on_c, 0, 63, 127
2, 93238, Note_off_c, 0, 63, 0
2, 93240, Note_on_c, 0, 64, 127
2, 93358, Note_off_c, 0, 64, 0
2, 93360, Note_on_c, 0, 66, 127
2, 93576, Note_off_c, 0, 66, 0
2, 93600, Note_on_c, 0, 68, 127
2, 94464, Note_off_c, 0, 68, 0
2, 94560, Note_on_c, 0, 72, 127
2, 94560, Note_on_c, 0, 68, 127
2, 94920, Note_on_c, 0, 80, 127
2, 95028, Note_off_c, 0, 80, 0
2, 95040, Note_on_c, 0, 78, 127
2, 95148, Note_off_c, 0, 78, 0
2, 95160, Note_on_c, 0, 76, 127
2, 95268, Note_off_c, 0, 76, 0
2, 95280, Note_on_c, 0, 75, 127
2, 95424, Note_off_c, 0, 72, 0
2, 95424, Note_off_c, 0, 68, 0
2, 95496, Note_off_c, 0, 75, 0
2, 95520, Note_on_c, 0, 80, 127
2, 95520, Note_on_c, 0, 76, 127
2, 95520, Note_on_c, 0, 73, 127
2, 95758, Note_off_c, 0, 80, 0
2, 95758, Note_off_c, 0, 76, 0
2, 95758, Note_off_c, 0, 73, 0
2, 95760, Note_on_c, 0, 85, 127
2, 95760, Note_on_c, 0, 76, 127
2, 95998, Note_off_c, 0, 85, 0
2, 95998, Note_off_c, 0, 76, 0
2, 96000, Note_on_c, 0, 87, 127
2, 96000, Note_on_c, 0, 78, 127
2, 96238, Note_off_c, 0, 87, 0
2, 96238, Note_off_c, 0, 78, 0
2, 96240, Note_on_c, 0, 88, 127
2, 96240, Note_on_c, 0, 80, 127
2, 96358, Note_off_c, 0, 88, 0
2, 96358, Note_off_c, 0, 80, 0
2, 96360, Note_on_c, 0, 90, 127
2, 96360, Note_on_c, 0, 81, 127
2, 96718, Note_off_c, 0, 90, 0
2, 96718, Note_off_c, 0, 81, 0
2, 96720, Note_on_c, 0, 88, 127
2, 96720, Note_on_c, 0, 80, 127
2, 96958, Note_off_c, 0, 88, 0
2, 96958, Note_off_c, 0, 80, 0
2, 96960, Note_on_c, 0, 87, 127
2, 96960, Note_on_c, 0, 78, 127
2, 97078, Note_off_c, 0, 87, 0
2, 97078, Note_off_c, 0, 78, 0
2, 97080, Note_on_c, 0, 85, 127
2, 97080, Note_on_c, 0, 76, 127
2, 97296, Note_off_c, 0, 85, 0
2, 97296, Note_off_c, 0, 76, 0
2, 97320, Note_on_c, 0, 80, 127
2, 97320, Note_on_c, 0, 76, 127
2, 97320, Note_on_c, 0, 73, 127
2, 97678, Note_off_c, 0, 80, 0
2, 97678, Note_off_c, 0, 76, 0
2, 97678, Note_off_c, 0, 73, 0
2, 97680, Note_on_c, 0, 85, 127
2, 97680, Note_on_c, 0, 76, 127
2, 97918, Note_off_c, 0, 85, 0
2, 97918, Note_off_c, 0, 76, 0
2, 97920, Note_on_c, 0, 87, 127
2, 97920, Note_on_c, 0, 78, 127
2, 98158, Note_off_c, 0, 87, 0
2, 98158, Note_off_c, 0, 78, 0
2, 98160, Note_on_c, 0, 88, 127
2, 98160, Note_on_c, 0, 80, 127
2, 98278, Note_off_c, 0, 88, 0
2, 98278, Note_off_c, 0, 80, 0
2, 98280, Note_on_c, 0, 90, 127
2, 98280, Note_on_c, 0, 81, 127
2, 98638, Note_off_c, 0, 90, 0
2, 98638, Note_off_c, 0, 81, 0
2, 98640, Note_on_c, 0, 88, 127
2, 98640, Note_on_c, 0, 80, 127
2, 98878, Note_off_c, 0, 88, 0
2, 98878, Note_off_c, 0, 80, 0
2, 98880, Note_on_c, 0, 87, 127
2, 98880, Note_on_c, 0, 78, 127
2, 98998, Note_off_c, 0, 87, 0
2, 98998, Note_off_c, 0, 78, 0
2, 99000, Note_on_c, 0, 85, 127
2, 99000, Note_on_c, 0, 76, 127
2, 99216, Note_off_c, 0, 85, 0
2, 99216, Note_off_c, 0, 76, 0
2, 99240, Note_on_c, 0, 80, 127
2, 99360, Note_on_c, 0, 75, 127
2, 99360, Note_on_c, 0, 71, 127
2, 99598, Note_off_c, 0, 80, 0
2, 99598, Note_off_c, 0, 75, 0
2, 99598, Note_off_c, 0, 71, 0
2, 99600, Note_on_c, 0, 83, 127
2, 99838, Note_off_c, 0, 83, 0
2, 99840, Note_on_c, 0, 78, 127
2, 100078, Note_off_c, 0, 78, 0
2, 100080, Note_on_c, 0, 80, 127
2, 100198, Note_off_c, 0, 80, 0
2, 100200, Note_on_c, 0, 76, 127
2, 100558, Note_off_c, 0, 76, 0
2, 100560, Note_on_c, 0, 78, 127
2, 100798, Note_off_c, 0, 78, 0
2, 100800, Note_on_c, 0, 75, 127
2, 101038, Note_off_c, 0, 75, 0
2, 101040, Note_on_c, 0, 76, 127
2, 101158, Note_off_c, 0, 76, 0
2, 101160, Note_on_c, 0, 73, 127
2, 102000, Note_on_c, 0, 56, 127
2, 102108, Note_off_c, 0, 56, 0
2, 102120, Note_on_c, 0, 63, 127
2, 102144, Note_off_c, 0, 73, 0
2, 102228, Note_off_c, 0, 63, 0
2, 102240, Note_on_c, 0, 52, 127
2, 102240, Note_on_c, 0, 61, 127
2, 102720, Note_on_c, 0, 61, 127
2, 102828, Note_off_c, 0, 61, 0
2, 102840, Note_on_c, 0, 63, 127
2, 102948, Note_off_c, 0, 63, 0
2, 102960, Note_on_c, 0, 64, 127
2, 103104, Note_off_c, 0, 52, 0
2, 103104, Note_off_c, 0, 61, 0
2, 103176, Note_off_c, 0, 64, 0
2, 103200, Note_on_c, 0, 57, 127
2, 103308, Note_off_c, 0, 57, 0
2, 103320, Note_on_c, 0, 68, 127
2, 103320, Note_on_c, 0, 85, 127
2, 103428, Note_off_c, 0, 68, 0
2, 103438, Note_off_c, 0, 85, 0
2, 103440, Note_on_c, 0, 66, 127
2, 103440, Note_on_c, 0, 83, 127
2, 103548, Note_off_c, 0, 66, 0
2, 103558, Note_off_c, 0, 83, 0
2, 103560, Note_on_c, 0, 64, 127
2, 103560, Note_on_c, 0, 81, 127
2, 103668, Note_off_c, 0, 64, 0
2, 103678, Note_off_c, 0, 81, 0
2, 103680, Note_on_c, 0, 63, 127
2, 103680, Note_on_c, 0, 80, 127
2, 103896, Note_off_c, 0, 63, 0
2, 103918, Note_off_c, 0, 80, 0
2, 103920, Note_on_c, 0, 64, 127
2, 103920, Note_on_c, 0, 81, 127
2, 104028, Note_off_c, 0, 64, 0
2, 104038, Note_off_c, 0, 81, 0
2, 104040, Note_on_c, 0, 59, 127
2, 104040, Note_on_c, 0, 75, 127
2, 104040, Note_on_c, 0, 80, 127
2, 104256, Note_off_c, 0, 59, 0
2, 104278, Note_off_c, 0, 75, 0
2, 104278, Note_off_c, 0, 80, 0
2, 104280, Note_on_c, 0, 59, 127
2, 104280, Note_on_c, 0, 75, 127
2, 104280, Note_on_c, 0, 78, 127
2, 104388, Note_off_c, 0, 59, 0
2, 104398, Note_off_c, 0, 75, 0
2, 104398, Note_off_c, 0, 78, 0
2, 104400, Note_on_c, 0, 78, 127
2, 104400, Note_on_c, 0, 75, 127
2, 104400, Note_on_c, 0, 59, 127
2, 104832, Note_off_c, 0, 78, 0
2, 104832, Note_off_c, 0, 75, 0
2, 104880, Note_on_c, 0, 80, 127
2, 104988, Note_off_c, 0, 80, 0
2, 105000, Note_on_c, 0, 81, 127
2, 105108, Note_off_c, 0, 81, 0
2, 105120, Note_off_c, 0, 59, 0
2, 105120, Note_on_c, 0, 56, 127
2, 105228, Note_off_c, 0, 56, 0
2, 105240, Note_on_c, 0, 66, 127
2, 105240, Note_on_c, 0, 83, 127
2, 105348, Note_off_c, 0, 66, 0
2, 105358, Note_off_c, 0, 83, 0
2, 105360, Note_on_c, 0, 64, 127
2, 105360, Note_on_c, 0, 81, 127
2, 105468, Note_off_c, 0, 64, 0
2, 105478, Note_off_c, 0, 81, 0
2, 105480, Note_on_c, 0, 63, 127
2, 105480, Note_on_c, 0, 80, 127
2, 105588, Note_off_c, 0, 63, 0
2, 105598, Note_off_c, 0, 80, 0
2, 105600, Note_on_c, 0, 61, 127
2, 105600, Note_on_c, 0, 78, 127
2, 105816, Note_off_c, 0, 61, 0
2, 105838, Note_off_c, 0, 78, 0
2, 105840, Note_on_c, 0, 63, 127
2, 105840, Note_on_c, 0, 80, 127
2, 105948, Note_off_c, 0, 63, 0
2, 105958, Note_off_c, 0, 80, 0
2, 105960, Note_on_c, 0, 61, 127
2, 105960, Note_on_c, 0, 68, 127
2, 105960, Note_on_c, 0, 78, 127
2, 106176, Note_off_c, 0, 61, 0
2, 106176, Note_off_c, 0, 68, 0
2, 106198, Note_off_c, 0, 78, 0
2, 106200, Note_on_c, 0, 61, 127
2, 106200, Note_on_c, 0, 68, 127
2, 106200, Note_on_c, 0, 76, 127
2, 106308, Note_off_c, 0, 61, 0
2, 106308, Note_off_c, 0, 68, 0
2, 106318, Note_off_c, 0, 76, 0
2, 106320, Note_on_c, 0, 61, 127
2, 106320, Note_on_c, 0, 68, 127
2, 106320, Note_on_c, 0, 76, 127
2, 106752, Note_off_c, 0, 76, 0
2, 106800, Note_on_c, 0, 78, 127
2, 106908, Note_off_c, 0, 78, 0
2, 106920, Note_on_c, 0, 80, 127
2, 106968, Note_off_c, 0, 68, 0
2, 107028, Note_off_c, 0, 80, 0
2, 107040, Note_off_c, 0, 61, 0
2, 107040, Note_on_c, 0, 54, 127
2, 107148, Note_off_c, 0, 54, 0
2, 107160, Note_on_c, 0, 66, 127
2, 107160, Note_on_c, 0, 81, 127
2, 107268, Note_off_c, 0, 66, 0
2, 107278, Note_off_c, 0, 81, 0
2, 107280, Note_on_c, 0, 64, 127
2, 107280, Note_on_c, 0, 80, 127
2, 107388, Note_off_c, 0, 64, 0
2, 107398, Note_off_c, 0, 80, 0
2, 107400, Note_on_c, 0, 63, 127
2, 107400, Note_on_c, 0, 78, 127
2, 107508, Note_off_c, 0, 63, 0
2, 107518, Note_off_c, 0, 78, 0
2, 107520, Note_on_c, 0, 61, 127
2, 107520, Note_on_c, 0, 76, 127
2, 107758, Note_off_c, 0, 76, 0
2, 107760, Note_on_c, 0, 78, 127
2, 107878, Note_off_c, 0, 78, 0
2, 107880, Note_off_c, 0, 61, 0
2, 107880, Note_on_c, 0, 56, 127
2, 107880, Note_on_c, 0, 72, 127
2, 107880, Note_on_c, 0, 76, 127
2, 108096, Note_off_c, 0, 56, 0
2, 108118, Note_off_c, 0, 72, 0
2, 108118, Note_off_c, 0, 76, 0
2, 108120, Note_on_c, 0, 56, 127
2, 108120, Note_on_c, 0, 72, 127
2, 108120, Note_on_c, 0, 75, 127
2, 108478, Note_off_c, 0, 75, 0
2, 108478, Note_off_c, 0, 72, 0
2, 108480, Note_on_c, 0, 75, 127
2, 108598, Note_off_c, 0, 75, 0
2, 108600, Note_on_c, 0, 72, 127
2, 108718, Note_off_c, 0, 72, 0
2, 108720, Note_on_c, 0, 68, 127
2, 108838, Note_off_c, 0, 68, 0
2, 108840, Note_on_c, 0, 66, 127
2, 108912, Note_off_c, 0, 56, 0
2, 108958, Note_off_c, 0, 66, 0
2, 108960, Note_on_c, 0, 64, 127
2, 108960, Note_on_c, 0, 68, 127
2, 109608, Note_off_c, 0, 64, 0
2, 109680, Note_off_c, 0, 68, 0
2, 109680, Note_on_c, 0, 64, 127
2, 109680, Note_on_c, 0, 68, 127
2, 109896, Note_off_c, 0, 64, 0
2, 109896, Note_off_c, 0, 68, 0
2, 109920, Note_on_c, 0, 64, 127
2, 109920, Note_on_c, 0, 68, 127
2, 110280, Note_off_c, 0, 64, 0
2, 110280, Note_off_c, 0, 68, 0
2, 110280, Note_on_c, 0, 61, 127
2, 110280, Note_on_c, 0, 66, 127
2, 110832, Note_off_c, 0, 61, 0
2, 110832, Note_off_c, 0, 66, 0
2, 111000, Note_on_c, 0, 64, 127
2, 111000, Note_on_c, 0, 73, 127
2, 111118, Note_off_c, 0, 64, 0
2, 111118, Note_off_c, 0, 73, 0
2, 111120, Note_on_c, 0, 71, 127
2, 111238, Note_off_c, 0, 71, 0
2, 111240, Note_on_c, 0, 69, 127
2, 111358, Note_off_c, 0, 69, 0
2, 111360, Note_on_c, 0, 68, 127
2, 111598, Note_off_c, 0, 68, 0
2, 111600, Note_on_c, 0, 69, 127
2, 111718, Note_off_c, 0, 69, 0
2, 111720, Note_on_c, 0, 68, 127
2, 111838, Note_off_c, 0, 68, 0
2, 111840, Note_on_c, 0, 63, 127
2, 111958, Note_off_c, 0, 63, 0
2, 111960, Note_on_c, 0, 66, 127
2, 112320, Note_off_c, 0, 66, 0
2, 112320, Note_on_c, 0, 63, 127
2, 112428, Note_off_c, 0, 63, 0
2, 112440, Note_on_c, 0, 64, 127
2, 112548, Note_off_c, 0, 64, 0
2, 112560, Note_on_c, 0, 66, 127
2, 112776, Note_off_c, 0, 66, 0
2, 112920, Note_on_c, 0, 71, 127
2, 113038, Note_off_c, 0, 71, 0
2, 113040, Note_on_c, 0, 69, 127
2, 113158, Note_off_c, 0, 69, 0
2, 113160, Note_on_c, 0, 68, 127
2, 113278, Note_off_c, 0, 68, 0
2, 113280, Note_on_c, 0, 75, 127
2, 113398, Note_off_c, 0, 75, 0
2, 113400, Note_on_c, 0, 71, 127
2, 113518, Note_off_c, 0, 71, 0
2, 113520, Note_on_c, 0, 68, 127
2, 113638, Note_off_c, 0, 68, 0
2, 113640, Note_on_c, 0, 66, 127
2, 113878, Note_off_c, 0, 66, 0
2, 113880, Note_on_c, 0, 68, 127
2, 113998, Note_off_c, 0, 68, 0
2, 114000, Note_on_c, 0, 64, 127
2, 114432, Note_off_c, 0, 64, 0
2, 114480, Note_on_c, 0, 66, 127
2, 114588, Note_off_c, 0, 66, 0
2, 114600, Note_on_c, 0, 68, 127
2, 114708, Note_off_c, 0, 68, 0
2, 114720, Note_on_c, 0, 61, 127
2, 114720, Note_on_c, 0, 69, 127
2, 115152, Note_off_c, 0, 61, 0
2, 115152, Note_off_c, 0, 69, 0
2, 115200, Note_on_c, 0, 61, 127
2, 115200, Note_on_c, 0, 69, 127
2, 115416, Note_off_c, 0, 61, 0
2, 115416, Note_off_c, 0, 69, 0
2, 115440, Note_on_c, 0, 68, 127
2, 115548, Note_off_c, 0, 68, 0
2, 115560, Note_on_c, 0, 69, 127
2, 115668, Note_off_c, 0, 69, 0
2, 115680, Note_on_c, 0, 63, 127
2, 115680, Note_on_c, 0, 70, 127
2, 116032, Note_on_c, 0, 63, 127
2, 116112, Note_off_c, 0, 63, 0
2, 116112, Note_off_c, 0, 70, 0
2, 116115, Note_on_c, 0, 70, 127
2, 116138, Note_off_c, 0, 63, 0
2, 116221, Note_off_c, 0, 70, 0
2, 116320, Note_on_c, 0, 75, 127
2, 116426, Note_off_c, 0, 75, 0
2, 116480, Note_on_c, 0, 73, 127
2, 116586, Note_off_c, 0, 73, 0
2, 116640, Note_on_c, 0, 72, 127
2, 117504, Note_off_c, 0, 72, 0
2, 117600, Note_on_c, 0, 63, 127
2, 117600, Note_on_c, 0, 68, 127
2, 117600, Note_on_c, 0, 72, 127
2, 118032, Note_off_c, 0, 63, 0
2, 118032, Note_off_c, 0, 68, 0
2, 118032, Note_off_c, 0, 72, 0
2, 118080, Note_on_c, 0, 72, 127
2, 118240, Note_off_c, 0, 72, 0
2, 118240, Note_on_c, 0, 73, 127
2, 118400, Note_off_c, 0, 73, 0
2, 118400, Note_on_c, 0, 75, 127
2, 118560, Note_off_c, 0, 75, 0
2, 118560, Note_on_c, 0, 77, 127
2, 118560, Note_on_c, 0, 72, 127
2, 118560, Note_on_c, 0, 69, 127
2, 118992, Note_off_c, 0, 77, 0
2, 118992, Note_off_c, 0, 72, 0
2, 118992, Note_off_c, 0, 69, 0
2, 119040, Note_on_c, 0, 60, 127
2, 119148, Note_off_c, 0, 60, 0
2, 119160, Note_on_c, 0, 65, 127
2, 119268, Note_off_c, 0, 65, 0
2, 119280, Note_on_c, 0, 69, 127
2, 119388, Note_off_c, 0, 69, 0
2, 119400, Note_on_c, 0, 72, 127
2, 119508, Note_off_c, 0, 72, 0
2, 119520, Note_on_c, 0, 77, 127
2, 119520, Note_on_c, 0, 72, 127
2, 119520, Note_on_c, 0, 69, 127
2, 119952, Note_off_c, 0, 77, 0
2, 119952, Note_off_c, 0, 72, 0
2, 119952, Note_off_c, 0, 69, 0
2, 120355, Note_on_c, 0, 89, 127
2, 120403, Note_on_c, 0, 84, 127
2, 120442, Note_on_c, 0, 81, 127
2, 120463, Note_off_c, 0, 89, 0
2, 120480, Note_on_c, 0, 77, 127
2, 120511, Note_off_c, 0, 84, 0
2, 120550, Note_off_c, 0, 81, 0
2, 122208, Note_off_c, 0, 77, 0
2, 122291, Note_on_c, 0, 61, 127
2, 122393, Note_on_c, 0, 65, 127
2, 122416, Note_on_c, 0, 70, 127
2, 122848, Note_off_c, 0, 70, 0
2, 122880, Note_on_c, 0, 72, 127
2, 123312, Note_off_c, 0, 72, 0
2, 123360, Note_on_c, 0, 73, 127
2, 123792, Note_off_c, 0, 73, 0
2, 123840, Note_on_c, 0, 75, 127
2, 124019, Note_off_c, 0, 61, 0
2, 124121, Note_off_c, 0, 65, 0
2, 124272, Note_off_c, 0, 75, 0
2, 124320, Note_on_c, 0, 70, 127
2, 124752, Note_off_c, 0, 70, 0
2, 124800, Note_on_c, 0, 72, 127
2, 125232, Note_off_c, 0, 72, 0
2, 125280, Note_on_c, 0, 73, 127
2, 125712, Note_off_c, 0, 73, 0
2, 125760, Note_on_c, 0, 75, 127
2, 126180, Note_on_c, 0, 65, 127
2, 126192, Note_off_c, 0, 75, 0
2, 126210, Note_on_c, 0, 68, 127
2, 126240, Note_on_c, 0, 73, 127
2, 126658, Note_off_c, 0, 65, 0
2, 126688, Note_off_c, 0, 68, 0
2, 126718, Note_off_c, 0, 73, 0
2, 126720, Note_on_c, 0, 72, 127
2, 126958, Note_off_c, 0, 72, 0
2, 126960, Note_on_c, 0, 73, 127
2, 127198, Note_off_c, 0, 73, 0
2, 127200, Note_on_c, 0, 72, 127
2, 127438, Note_off_c, 0, 72, 0
2, 127440, Note_on_c, 0, 70, 127
2, 127678, Note_off_c, 0, 70, 0
2, 127680, Note_on_c, 0, 69, 127
2, 127918, Note_off_c, 0, 69, 0
2, 127920, Note_on_c, 0, 65, 127
2, 128158, Note_off_c, 0, 65, 0
2, 128160, Note_on_c, 0, 69, 127
2, 129024, Note_off_c, 0, 69, 0
2, 129120, Note_on_c, 0, 77, 127
2, 129552, Note_off_c, 0, 77, 0
2, 129600, Note_on_c, 0, 73, 127
2, 129816, Note_off_c, 0, 73, 0
2, 129840, Note_on_c, 0, 75, 127
2, 130056, Note_off_c, 0, 75, 0
2, 130080, Note_on_c, 0, 77, 127
2, 130198, Note_off_c, 0, 77, 0
2, 130200, Note_on_c, 0, 73, 127
2, 130318, Note_off_c, 0, 73, 0
2, 130320, Note_on_c, 0, 72, 127
2, 130438, Note_off_c, 0, 72, 0
2, 130440, Note_on_c, 0, 70, 127
2, 130558, Note_off_c, 0, 70, 0
2, 130560, Note_on_c, 0, 75, 127
2, 130678, Note_off_c, 0, 75, 0
2, 130680, Note_on_c, 0, 72, 127
2, 130680, Note_on_c, 0, 70, 127
2, 130788, Note_off_c, 0, 72, 0
2, 130798, Note_off_c, 0, 70, 0
2, 130800, Note_on_c, 0, 65, 127
2, 130908, Note_off_c, 0, 65, 0
2, 131040, Note_on_c, 0, 78, 127
2, 131158, Note_off_c, 0, 78, 0
2, 131160, Note_on_c, 0, 73, 127
2, 131278, Note_off_c, 0, 73, 0
2, 131280, Note_on_c, 0, 72, 127
2, 131398, Note_off_c, 0, 72, 0
2, 131400, Note_on_c, 0, 77, 127
2, 131400, Note_on_c, 0, 70, 127
2, 131518, Note_off_c, 0, 77, 0
2, 131518, Note_off_c, 0, 70, 0
2, 131520, Note_on_c, 0, 65, 127
2, 131638, Note_off_c, 0, 65, 0
2, 131640, Note_on_c, 0, 70, 127
2, 131758, Note_off_c, 0, 70, 0
2, 131760, Note_on_c, 0, 75, 127
2, 131878, Note_off_c, 0, 75, 0
2, 131880, Note_on_c, 0, 65, 127
2, 131880, Note_on_c, 0, 70, 127
2, 131988, Note_off_c, 0, 65, 0
2, 131988, Note_off_c, 0, 70, 0
2, 132000, Note_on_c, 0, 77, 127
2, 132118, Note_off_c, 0, 77, 0
2, 132120, Note_on_c, 0, 65, 127
2, 132120, Note_on_c, 0, 70, 127
2, 132228, Note_off_c, 0, 65, 0
2, 132238, Note_off_c, 0, 70, 0
2, 132240, Note_on_c, 0, 61, 127
2, 132240, Note_on_c, 0, 65, 127
2, 132348, Note_off_c, 0, 61, 0
2, 132358, Note_off_c, 0, 65, 0
2, 132360, Note_on_c, 0, 58, 127
2, 132360, Note_on_c, 0, 73, 127
2, 132468, Note_off_c, 0, 58, 0
2, 132478, Note_off_c, 0, 73, 0
2, 132480, Note_on_c, 0, 75, 127
2, 132598, Note_off_c, 0, 75, 0
2, 132600, Note_on_c, 0, 73, 127
2, 132718, Note_off_c, 0, 73, 0
2, 132720, Note_on_c, 0, 75, 127
2, 132838, Note_off_c, 0, 75, 0
2, 132840, Note_on_c, 0, 77, 127
2, 132958, Note_off_c, 0, 77, 0
2, 132960, Note_on_c, 0, 78, 127
2, 132960, Note_on_c, 0, 66, 127
2, 133318, Note_off_c, 0, 78, 0
2, 133318, Note_off_c, 0, 66, 0
2, 133320, Note_on_c, 0, 77, 127
2, 133320, Note_on_c, 0, 66, 127
2, 133678, Note_off_c, 0, 77, 0
2, 133678, Note_off_c, 0, 66, 0
2, 133680, Note_on_c, 0, 75, 127
2, 133680, Note_on_c, 0, 66, 127
2, 133918, Note_off_c, 0, 75, 0
2, 133918, Note_off_c, 0, 66, 0
2, 133920, Note_on_c, 0, 75, 127
2, 133920, Note_on_c, 0, 72, 127
2, 133920, Note_on_c, 0, 68, 127
2, 134352, Note_off_c, 0, 75, 0
2, 134352, Note_off_c, 0, 72, 0
2, 134352, Note_off_c, 0, 68, 0
2, 134400, Note_on_c, 0, 73, 127
2, 134400, Note_on_c, 0, 68, 127
2, 134638, Note_off_c, 0, 73, 0
2, 134640, Note_on_c, 0, 75, 127
2, 134832, Note_off_c, 0, 68, 0
2, 134878, Note_off_c, 0, 75, 0
2, 134880, Note_on_c, 0, 73, 127
2, 134880, Note_on_c, 0, 66, 127
2, 135312, Note_off_c, 0, 66, 0
2, 135358, Note_off_c, 0, 73, 0
2, 135360, Note_on_c, 0, 72, 127
2, 135360, Note_on_c, 0, 66, 127
2, 135598, Note_off_c, 0, 72, 0
2, 135600, Note_on_c, 0, 73, 127
2, 135792, Note_off_c, 0, 66, 0
2, 135838, Note_off_c, 0, 73, 0
2, 135840, Note_on_c, 0, 65, 127
2, 135840, Note_on_c, 0, 72, 127
2, 136078, Note_off_c, 0, 65, 0
2, 136078, Note_off_c, 0, 72, 0
2, 136080, Note_on_c, 0, 65, 127
2, 136080, Note_on_c, 0, 70, 127
2, 136318, Note_off_c, 0, 65, 0
2, 136318, Note_off_c, 0, 70, 0
2, 136320, Note_on_c, 0, 65, 127
2, 136320, Note_on_c, 0, 69, 127
2, 137040, Note_off_c, 0, 65, 0
2, 137040, Note_off_c, 0, 69, 0
2, 137040, Note_on_c, 0, 65, 127
2, 137148, Note_off_c, 0, 65, 0
2, 137160, Note_on_c, 0, 72, 127
2, 137268, Note_off_c, 0, 72, 0
2, 137280, Note_on_c, 0, 77, 127
2, 137388, Note_off_c, 0, 77, 0
2, 137400, Note_on_c, 0, 72, 127
2, 137508, Note_off_c, 0, 72, 0
2, 137520, Note_on_c, 0, 81, 127
2, 137736, Note_off_c, 0, 81, 0
2, 137760, Note_on_c, 0, 82, 127
2, 137880, Note_on_c, 0, 73, 127
2, 137988, Note_off_c, 0, 73, 0
2, 138000, Note_on_c, 0, 77, 127
2, 138108, Note_off_c, 0, 77, 0
2, 138120, Note_on_c, 0, 73, 127
2, 138228, Note_off_c, 0, 73, 0
2, 138238, Note_off_c, 0, 82, 0
2, 138240, Note_on_c, 0, 84, 127
2, 138360, Note_on_c, 0, 73, 127
2, 138468, Note_off_c, 0, 73, 0
2, 138480, Note_on_c, 0, 77, 127
2, 138588, Note_off_c, 0, 77, 0
2, 138600, Note_on_c, 0, 73, 127
2, 138708, Note_off_c, 0, 73, 0
2, 138718, Note_off_c, 0, 84, 0
2, 138720, Note_on_c, 0, 85, 127
2, 138840, Note_on_c, 0, 77, 127
2, 138948, Note_off_c, 0, 77, 0
2, 138960, Note_on_c, 0, 82, 127
2, 139068, Note_off_c, 0, 82, 0
2, 139080, Note_on_c, 0, 77, 127
2, 139155, Note_on_c, 0, 77, 127
2, 139188, Note_off_c, 0, 77, 0
2, 139198, Note_off_c, 0, 85, 0
2, 139200, Note_on_c, 0, 87, 127
2, 139313, Note_off_c, 0, 77, 0
2, 139358, Note_off_c, 0, 87, 0
2, 139360, Note_on_c, 0, 85, 127
2, 139518, Note_off_c, 0, 85, 0
2, 139520, Note_on_c, 0, 84, 127
2, 139680, Note_off_c, 0, 84, 0
2, 139680, Note_on_c, 0, 82, 127
2, 139800, Note_on_c, 0, 73, 127
2, 139908, Note_off_c, 0, 73, 0
2, 139920, Note_on_c, 0, 77, 127
2, 140028, Note_off_c, 0, 77, 0
2, 140040, Note_on_c, 0, 73, 127
2, 140148, Note_off_c, 0, 73, 0
2, 140158, Note_off_c, 0, 82, 0
2, 140160, Note_on_c, 0, 84, 127
2, 140280, Note_on_c, 0, 73, 127
2, 140388, Note_off_c, 0, 73, 0
2, 140400, Note_on_c, 0, 77, 127
2, 140508, Note_off_c, 0, 77, 0
2, 140520, Note_on_c, 0, 73, 127
2, 140628, Note_off_c, 0, 73, 0
2, 140638, Note_off_c, 0, 84, 0
2, 140640, Note_on_c, 0, 85, 127
2, 140760, Note_on_c, 0, 77, 127
2, 140868, Note_off_c, 0, 77, 0
2, 140880, Note_on_c, 0, 82, 127
2, 140988, Note_off_c, 0, 82, 0
2, 141000, Note_on_c, 0, 77, 127
2, 141075, Note_on_c, 0, 77, 127
2, 141108, Note_off_c, 0, 77, 0
2, 141118, Note_off_c, 0, 85, 0
2, 141120, Note_on_c, 0, 87, 127
2, 141233, Note_off_c, 0, 77, 0
2, 141278, Note_off_c, 0, 87, 0
2, 141280, Note_on_c, 0, 85, 127
2, 141438, Note_off_c, 0, 85, 0
2, 141440, Note_on_c, 0, 87, 127
2, 141600, Note_off_c, 0, 87, 0
2, 141600, Note_on_c, 0, 85, 127
2, 141720, Note_on_c, 0, 75, 127
2, 141828, Note_off_c, 0, 75, 0
2, 141840, Note_on_c, 0, 80, 127
2, 141948, Note_off_c, 0, 80, 0
2, 141960, Note_on_c, 0, 75, 127
2, 142068, Note_off_c, 0, 75, 0
2, 142078, Note_off_c, 0, 85, 0
2, 142080, Note_on_c, 0, 84, 127
2, 142200, Note_on_c, 0, 75, 127
2, 142308, Note_off_c, 0, 75, 0
2, 142318, Note_off_c, 0, 84, 0
2, 142320, Note_on_c, 0, 85, 127
2, 142320, Note_on_c, 0, 80, 127
2, 142428, Note_off_c, 0, 80, 0
2, 142440, Note_on_c, 0, 75, 127
2, 142548, Note_off_c, 0, 75, 0
2, 142558, Note_off_c, 0, 85, 0
2, 142560, Note_on_c, 0, 84, 127
2, 142680, Note_on_c, 0, 73, 127
2, 142788, Note_off_c, 0, 73, 0
2, 142798, Note_off_c, 0, 84, 0
2, 142800, Note_on_c, 0, 82, 127
2, 142800, Note_on_c, 0, 78, 127
2, 142908, Note_off_c, 0, 78, 0
2, 142920, Note_on_c, 0, 73, 127
2, 143028, Note_off_c, 0, 73, 0
2, 143038, Note_off_c, 0, 82, 0
2, 143040, Note_on_c, 0, 81, 127
2, 143160, Note_on_c, 0, 73, 127
2, 143268, Note_off_c, 0, 73, 0
2, 143278, Note_off_c, 0, 81, 0
2, 143280, Note_on_c, 0, 77, 127
2, 143280, Note_on_c, 0, 77, 127
2, 143388, Note_off_c, 0, 77, 0
2, 143400, Note_on_c, 0, 73, 127
2, 143508, Note_off_c, 0, 73, 0
2, 143518, Note_off_c, 0, 77, 0
2, 143520, Note_on_c, 0, 81, 127
2, 143520, Note_on_c, 0, 77, 127
2, 143520, Note_on_c, 0, 72, 127
2, 143952, Note_off_c, 0, 81, 0
2, 143952, Note_off_c, 0, 77, 0
2, 143952, Note_off_c, 0, 72, 0
2, 144120, Note_on_c, 0, 77, 127
2, 144228, Note_off_c, 0, 77, 0
2, 144240, Note_on_c, 0, 72, 127
2, 144348, Note_off_c, 0, 72, 0
2, 144360, Note_on_c, 0, 69, 127
2, 144468, Note_off_c, 0, 69, 0
2, 144480, Note_on_c, 0, 77, 127
2, 144480, Note_on_c, 0, 72, 127
2, 144480, Note_on_c, 0, 69, 127
2, 144912, Note_off_c, 0, 77, 0
2, 144912, Note_off_c, 0, 72, 0
2, 144912, Note_off_c, 0, 69, 0
2, 144960, Note_on_c, 0, 73, 127
2, 145176, Note_off_c, 0, 73, 0
2, 145200, Note_on_c, 0, 75, 127
2, 145416, Note_off_c, 0, 75, 0
2, 145440, Note_on_c, 0, 77, 127
2, 145440, Note_on_c, 0, 73, 127
2, 145440, Note_on_c, 0, 70, 127
2, 145918, Note_off_c, 0, 77, 0
2, 145918, Note_off_c, 0, 73, 0
2, 145918, Note_off_c, 0, 70, 0
2, 145920, Note_on_c, 0, 75, 127
2, 145920, Note_on_c, 0, 70, 127
2, 146398, Note_off_c, 0, 75, 0
2, 146398, Note_off_c, 0, 70, 0
2, 146400, Note_on_c, 0, 78, 127
2, 146400, Note_on_c, 0, 75, 127
2, 146400, Note_on_c, 0, 70, 127
2, 146758, Note_off_c, 0, 78, 0
2, 146758, Note_off_c, 0, 75, 0
2, 146758, Note_off_c, 0, 70, 0
2, 146760, Note_on_c, 0, 77, 127
2, 146760, Note_on_c, 0, 73, 127
2, 146760, Note_on_c, 0, 70, 127
2, 147118, Note_off_c, 0, 77, 0
2, 147118, Note_off_c, 0, 73, 0
2, 147118, Note_off_c, 0, 70, 0
2, 147120, Note_on_c, 0, 75, 127
2, 147120, Note_on_c, 0, 70, 127
2, 147336, Note_off_c, 0, 75, 0
2, 147336, Note_off_c, 0, 70, 0
2, 147360, Note_on_c, 0, 77, 127
2, 147360, Note_on_c, 0, 73, 127
2, 147360, Note_on_c, 0, 70, 127
2, 147838, Note_off_c, 0, 77, 0
2, 147838, Note_off_c, 0, 73, 0
2, 147838, Note_off_c, 0, 70, 0
2, 147840, Note_on_c, 0, 75, 127
2, 147840, Note_on_c, 0, 70, 127
2, 148318, Note_off_c, 0, 75, 0
2, 148318, Note_off_c, 0, 70, 0
2, 148320, Note_on_c, 0, 78, 127
2, 148320, Note_on_c, 0, 75, 127
2, 148320, Note_on_c, 0, 70, 127
2, 148678, Note_off_c, 0, 78, 0
2, 148678, Note_off_c, 0, 75, 0
2, 148678, Note_off_c, 0, 70, 0
2, 148680, Note_on_c, 0, 77, 127
2, 148680, Note_on_c, 0, 73, 127
2, 148680, Note_on_c, 0, 70, 127
2, 149038, Note_off_c, 0, 77, 0
2, 149038, Note_off_c, 0, 73, 0
2, 149038, Note_off_c, 0, 70, 0
2, 149040, Note_on_c, 0, 75, 127
2, 149040, Note_on_c, 0, 70, 127
2, 149256, Note_off_c, 0, 75, 0
2, 149256, Note_off_c, 0, 70, 0
2, 149280, Note_on_c, 0, 75, 127
2, 149280, Note_on_c, 0, 72, 127
2, 149280, Note_on_c, 0, 68, 127
2, 149712, Note_off_c, 0, 68, 0
2, 149712, Note_off_c, 0, 72, 0
2, 149758, Note_off_c, 0, 75, 0
2, 149760, Note_on_c, 0, 73, 127
2, 149760, Note_on_c, 0, 68, 127
2, 149998, Note_off_c, 0, 73, 0
2, 150000, Note_on_c, 0, 75, 127
2, 150192, Note_off_c, 0, 68, 0
2, 150238, Note_off_c, 0, 75, 0
2, 150240, Note_on_c, 0, 73, 127
2, 150240, Note_on_c, 0, 66, 127
2, 150672, Note_off_c, 0, 66, 0
2, 150718, Note_off_c, 0, 73, 0
2, 150720, Note_on_c, 0, 78, 127
2, 150720, Note_on_c, 0, 70, 127
2, 150838, Note_off_c, 0, 78, 0
2, 150840, Note_on_c, 0, 80, 127
2, 150958, Note_off_c, 0, 80, 0
2, 150960, Note_on_c, 0, 78, 127
2, 151152, Note_off_c, 0, 70, 0
2, 151198, Note_off_c, 0, 78, 0
2, 151200, Note_on_c, 0, 77, 127
2, 151200, Note_on_c, 0, 72, 127
2, 151200, Note_on_c, 0, 69, 127
2, 151920, Note_off_c, 0, 77, 0
2, 151920, Note_off_c, 0, 72, 0
2, 151920, Note_off_c, 0, 69, 0
2, 152040, Note_on_c, 0, 72, 127
2, 152040, Note_on_c, 0, 65, 127
2, 152148, Note_off_c, 0, 72, 0
2, 152148, Note_off_c, 0, 65, 0
2, 152160, Note_on_c, 0, 65, 127
2, 152160, Note_on_c, 0, 72, 127
2, 152268, Note_off_c, 0, 65, 0
2, 152376, Note_off_c, 0, 72, 0
2, 152400, Note_on_c, 0, 63, 127
2, 152454, Note_off_c, 0, 63, 0
2, 152460, Note_on_c, 0, 65, 127
2, 152514, Note_off_c, 0, 65, 0
2, 152520, Note_on_c, 0, 67, 127
2, 152574, Note_off_c, 0, 67, 0
2, 152580, Note_on_c, 0, 69, 127
2, 152634, Note_off_c, 0, 69, 0
2, 152640, Note_on_c, 0, 70, 127
2, 152748, Note_off_c, 0, 70, 0
2, 152760, Note_on_c, 0, 72, 127
2, 152868, Note_off_c, 0, 72, 0
2, 152880, Note_on_c, 0, 73, 127
2, 152988, Note_off_c, 0, 73, 0
2, 153000, Note_on_c, 0, 75, 127
2, 153108, Note_off_c, 0, 75, 0
2, 153120, Note_on_c, 0, 77, 127
2, 153120, Note_on_c, 0, 73, 127
2, 153120, Note_on_c, 0, 70, 127
2, 153840, Note_off_c, 0, 77, 0
2, 153840, Note_off_c, 0, 73, 0
2, 153840, Note_off_c, 0, 70, 0
2, 153960, Note_on_c, 0, 73, 127
2, 154014, Note_off_c, 0, 73, 0
2, 154020, Note_on_c, 0, 75, 127
2, 154074, Note_off_c, 0, 75, 0
2, 154080, Note_on_c, 0, 77, 127
2, 154080, Note_on_c, 0, 73, 127
2, 154080, Note_on_c, 0, 70, 127
2, 154512, Note_off_c, 0, 77, 0
2, 154512, Note_off_c, 0, 73, 0
2, 154512, Note_off_c, 0, 70, 0
2, 154560, Note_on_c, 0, 77, 127
2, 154560, Note_on_c, 0, 73, 127
2, 154560, Note_on_c, 0, 70, 127
2, 154720, Note_off_c, 0, 77, 0
2, 154720, Note_off_c, 0, 73, 0
2, 154720, Note_off_c, 0, 70, 0
2, 154720, Note_on_c, 0, 82, 127
2, 154720, Note_on_c, 0, 77, 127
2, 154720, Note_on_c, 0, 73, 127
2, 154880, Note_off_c, 0, 82, 0
2, 154880, Note_off_c, 0, 77, 0
2, 154880, Note_off_c, 0, 73, 0
2, 154880, Note_on_c, 0, 84, 127
2, 154880, Note_on_c, 0, 75, 127
2, 155040, Note_off_c, 0, 84, 0
2, 155040, Note_off_c, 0, 75, 0
2, 155040, Note_on_c, 0, 85, 127
2, 155040, Note_on_c, 0, 82, 127
2, 155040, Note_on_c, 0, 77, 127
2, 155398, Note_off_c, 0, 85, 0
2, 155398, Note_off_c, 0, 82, 0
2, 155398, Note_off_c, 0, 77, 0
2, 155400, Note_on_c, 0, 89, 127
2, 155458, Note_off_c, 0, 89, 0
2, 155460, Note_on_c, 0, 87, 127
2, 155518, Note_off_c, 0, 87, 0
2, 155520, Note_on_c, 0, 85, 127
2, 155578, Note_off_c, 0, 85, 0
2, 155580, Note_on_c, 0, 84, 127
2, 155638, Note_off_c, 0, 84, 0
2, 155640, Note_on_c, 0, 82, 127
2, 155698, Note_off_c, 0, 82, 0
2, 155700, Note_on_c, 0, 80, 127
2, 155758, Note_off_c, 0, 80, 0
2, 155760, Note_on_c, 0, 77, 127
2, 155818, Note_off_c, 0, 77, 0
2, 155820, Note_on_c, 0, 75, 127
2, 155878, Note_off_c, 0, 75, 0
2, 155880, Note_on_c, 0, 73, 127
2, 155938, Note_off_c, 0, 73, 0
2, 155940, Note_on_c, 0, 72, 127
2, 155998, Note_off_c, 0, 72, 0
2, 156000, Note_on_c, 0, 73, 127
2, 156058, Note_off_c, 0, 73, 0
2, 156060, Note_on_c, 0, 75, 127
2, 156118, Note_off_c, 0, 75, 0
2, 156120, Note_on_c, 0, 77, 127
2, 156178, Note_off_c, 0, 77, 0
2, 156180, Note_on_c, 0, 75, 127
2, 156238, Note_off_c, 0, 75, 0
2, 156240, Note_on_c, 0, 73, 127
2, 156298, Note_off_c, 0, 73, 0
2, 156300, Note_on_c, 0, 72, 127
2, 156358, Note_off_c, 0, 72, 0
2, 156360, Note_on_c, 0, 70, 127
2, 156418, Note_off_c, 0, 70, 0
2, 156420, Note_on_c, 0, 65, 127
2, 156478, Note_off_c, 0, 65, 0
2, 156480, Note_on_c, 0, 70, 127
2, 156538, Note_off_c, 0, 70, 0
2, 156540, Note_on_c, 0, 72, 127
2, 156598, Note_off_c, 0, 72, 0
2, 156600, Note_on_c, 0, 73, 127
2, 156658, Note_off_c, 0, 73, 0
2, 156660, Note_on_c, 0, 65, 127
2, 156718, Note_off_c, 0, 65, 0
2, 156720, Note_on_c, 0, 72, 127
2, 156778, Note_off_c, 0, 72, 0
2, 156780, Note_on_c, 0, 65, 127
2, 156838, Note_off_c, 0, 65, 0
2, 156840, Note_on_c, 0, 70, 127
2, 156958, Note_off_c, 0, 70, 0
2, 156960, Note_on_c, 0, 75, 127
2, 156960, Note_on_c, 0, 72, 127
2, 156960, Note_on_c, 0, 68, 127
2, 157392, Note_off_c, 0, 75, 0
2, 157392, Note_off_c, 0, 72, 0
2, 157392, Note_off_c, 0, 68, 0
2, 157560, Note_on_c, 0, 72, 127
2, 157678, Note_off_c, 0, 72, 0
2, 157680, Note_on_c, 0, 73, 127
2, 157798, Note_off_c, 0, 73, 0
2, 157800, Note_on_c, 0, 75, 127
2, 157918, Note_off_c, 0, 75, 0
2, 157920, Note_on_c, 0, 73, 127
2, 158078, Note_off_c, 0, 73, 0
2, 158080, Note_on_c, 0, 80, 127
2, 158238, Note_off_c, 0, 80, 0
2, 158240, Note_on_c, 0, 78, 127
2, 158398, Note_off_c, 0, 78, 0
2, 158400, Note_on_c, 0, 73, 127
2, 158558, Note_off_c, 0, 73, 0
2, 158560, Note_on_c, 0, 70, 127
2, 158718, Note_off_c, 0, 70, 0
2, 158720, Note_on_c, 0, 73, 127
2, 158878, Note_off_c, 0, 73, 0
2, 158880, Note_on_c, 0, 65, 127
2, 158880, Note_on_c, 0, 69, 127
2, 158880, Note_on_c, 0, 72, 127
2, 159600, Note_off_c, 0, 65, 0
2, 159600, Note_off_c, 0, 69, 0
2, 159600, Note_off_c, 0, 72, 0
2, 159720, Note_on_c, 0, 77, 127
2, 159774, Note_off_c, 0, 77, 0
2, 159780, Note_on_c, 0, 72, 127
2, 159834, Note_off_c, 0, 72, 0
2, 159840, Note_on_c, 0, 65, 127
2, 160272, Note_off_c, 0, 65, 0
2, 160320, Note_on_c, 0, 65, 127
2, 160428, Note_off_c, 0, 65, 0
2, 160440, Note_on_c, 0, 70, 127
2, 160548, Note_off_c, 0, 70, 0
2, 160560, Note_on_c, 0, 72, 127
2, 160668, Note_off_c, 0, 72, 0
2, 160680, Note_on_c, 0, 73, 127
2, 160788, Note_off_c, 0, 73, 0
2, 160800, Note_on_c, 0, 77, 127
2, 160800, Note_on_c, 0, 73, 127
2, 160800, Note_on_c, 0, 70, 127
2, 161664, Note_off_c, 0, 77, 0
2, 161664, Note_off_c, 0, 73, 0
2, 161664, Note_off_c, 0, 70, 0
2, 161760, Note_on_c, 0, 77, 127
2, 161998, Note_off_c, 0, 77, 0
2, 162000, Note_on_c, 0, 75, 127
2, 162238, Note_off_c, 0, 75, 0
2, 162240, Note_on_c, 0, 77, 127
2, 162478, Note_off_c, 0, 77, 0
2, 162480, Note_on_c, 0, 80, 127
2, 162598, Note_off_c, 0, 80, 0
2, 162600, Note_on_c, 0, 77, 127
2, 162838, Note_off_c, 0, 77, 0
2, 162840, Note_on_c, 0, 73, 127
2, 162958, Note_off_c, 0, 73, 0
2, 162960, Note_on_c, 0, 72, 127
2, 163078, Note_off_c, 0, 72, 0
2, 163080, Note_on_c, 0, 73, 127
2, 163188, Note_off_c, 0, 73, 0
2, 163200, Note_on_c, 0, 70, 127
2, 163532, Note_on_c, 0, 70, 127
2, 163610, Note_on_c, 0, 73, 127
2, 163632, Note_off_c, 0, 70, 0
2, 163688, Note_on_c, 0, 77, 127
2, 163828, Note_off_c, 0, 70, 0
2, 163858, Note_off_c, 0, 73, 0
2, 163888, Note_off_c, 0, 77, 0
2, 163920, Note_on_c, 0, 75, 127
2, 164158, Note_off_c, 0, 75, 0
2, 164160, Note_on_c, 0, 77, 127
2, 164398, Note_off_c, 0, 77, 0
2, 164400, Note_on_c, 0, 82, 127
2, 164518, Note_off_c, 0, 82, 0
2, 164520, Note_on_c, 0, 77, 127
2, 164638, Note_off_c, 0, 77, 0
2, 164640, Note_on_c, 0, 75, 127
2, 164640, Note_on_c, 0, 72, 127
2, 164640, Note_on_c, 0, 72, 127
2, 164640, Note_on_c, 0, 68, 127
2, 164640, Note_on_c, 0, 68, 127
2, 164878, Note_off_c, 0, 68, 0
2, 164878, Note_off_c, 0, 75, 0
2, 164878, Note_off_c, 0, 72, 0
2, 164880, Note_on_c, 0, 75, 127
2, 165072, Note_off_c, 0, 72, 0
2, 165118, Note_off_c, 0, 75, 0
2, 165120, Note_on_c, 0, 73, 127
2, 165358, Note_off_c, 0, 73, 0
2, 165360, Note_on_c, 0, 75, 127
2, 165478, Note_off_c, 0, 75, 0
2, 165480, Note_on_c, 0, 73, 127
2, 165504, Note_off_c, 0, 68, 0
2, 165598, Note_off_c, 0, 73, 0
2, 165600, Note_on_c, 0, 66, 127
2, 165600, Note_on_c, 0, 70, 127
2, 165840, Note_on_c, 0, 70, 127
2, 166078, Note_off_c, 0, 70, 0
2, 166080, Note_on_c, 0, 72, 127
2, 166318, Note_off_c, 0, 72, 0
2, 166320, Note_on_c, 0, 73, 127
2, 166438, Note_off_c, 0, 73, 0
2, 166440, Note_on_c, 0, 72, 127
2, 166464, Note_off_c, 0, 66, 0
2, 166464, Note_off_c, 0, 70, 0
2, 166558, Note_off_c, 0, 72, 0
2, 166560, Note_on_c, 0, 60, 127
2, 166560, Note_on_c, 0, 65, 127
2, 166560, Note_on_c, 0, 70, 127
2, 166992, Note_off_c, 0, 60, 0
2, 166992, Note_off_c, 0, 65, 0
2, 166992, Note_off_c, 0, 70, 0
2, 167160, Note_on_c, 0, 60, 127
2, 167160, Note_on_c, 0, 65, 127
2, 167160, Note_on_c, 0, 70, 127
2, 167520, Note_off_c, 0, 60, 0
2, 167520, Note_off_c, 0, 65, 0
2, 167520, Note_off_c, 0, 70, 0
2, 167520, Note_on_c, 0, 60, 127
2, 167520, Note_on_c, 0, 65, 127
2, 167520, Note_on_c, 0, 69, 127
2, 167952, Note_off_c, 0, 60, 0
2, 167952, Note_off_c, 0, 65, 0
2, 167952, Note_off_c, 0, 69, 0
2, 168120, Note_on_c, 0, 60, 127
2, 168228, Note_off_c, 0, 60, 0
2, 168240, Note_on_c, 0, 65, 127
2, 168348, Note_off_c, 0, 65, 0
2, 168360, Note_on_c, 0, 69, 127
2, 168468, Note_off_c, 0, 69, 0
2, 168480, Note_on_c, 0, 60, 127
2, 168480, Note_on_c, 0, 65, 127
2, 168480, Note_on_c, 0, 69, 127
2, 168480, Note_on_c, 0, 72, 127
2, 169344, Note_off_c, 0, 60, 0
2, 169344, Note_off_c, 0, 65, 0
2, 169344, Note_off_c, 0, 69, 0
2, 169344, Note_off_c, 0, 72, 0
2, 169440, Note_on_c, 0, 77, 127
2, 169440, Note_on_c, 0, 72, 127
2, 169440, Note_on_c, 0, 69, 127
2, 169440, Note_on_c, 0, 65, 127
2, 170304, Note_off_c, 0, 77, 0
2, 170304, Note_off_c, 0, 72, 0
2, 170304, Note_off_c, 0, 69, 0
2, 170304, Note_off_c, 0, 65, 0
2, 170400, Note_on_c, 0, 76, 127
2, 170400, Note_on_c, 0, 73, 127
2, 170400, Note_on_c, 0, 68, 127
2, 170638, Note_off_c, 0, 76, 0
2, 170640, Note_on_c, 0, 75, 127
2, 170832, Note_off_c, 0, 73, 0
2, 170832, Note_off_c, 0, 68, 0
2, 170878, Note_off_c, 0, 75, 0
2, 170880, Note_on_c, 0, 76, 127
2, 170880, Note_on_c, 0, 73, 127
2, 170880, Note_on_c, 0, 66, 127
2, 171118, Note_off_c, 0, 76, 0
2, 171120, Note_on_c, 0, 75, 127
2, 171238, Note_off_c, 0, 75, 0
2, 171240, Note_off_c, 0, 73, 0
2, 171240, Note_off_c, 0, 66, 0
2, 171240, Note_on_c, 0, 76, 127
2, 171240, Note_on_c, 0, 73, 127
2, 171240, Note_on_c, 0, 68, 127
2, 172080, Note_off_c, 0, 76, 0
2, 172080, Note_on_c, 0, 76, 127
2, 172138, Note_off_c, 0, 76, 0
2, 172140, Note_on_c, 0, 78, 127
2, 172198, Note_off_c, 0, 78, 0
2, 172200, Note_on_c, 0, 80, 127
2, 172224, Note_off_c, 0, 73, 0
2, 172224, Note_off_c, 0, 68, 0
2, 172258, Note_off_c, 0, 80, 0
2, 172260, Note_on_c, 0, 81, 127
2, 172318, Note_off_c, 0, 81, 0
2, 172320, Note_on_c, 0, 80, 127
2, 172320, Note_on_c, 0, 76, 127
2, 172558, Note_off_c, 0, 80, 0
2, 172560, Note_on_c, 0, 85, 127
2, 172752, Note_off_c, 0, 76, 0
2, 172798, Note_off_c, 0, 85, 0
2, 172800, Note_on_c, 0, 83, 127
2, 172800, Note_on_c, 0, 75, 127
2, 172918, Note_off_c, 0, 83, 0
2, 172920, Note_on_c, 0, 78, 127
2, 173038, Note_off_c, 0, 78, 0
2, 173040, Note_on_c, 0, 83, 127
2, 173124, Note_off_c, 0, 75, 0
2, 173158, Note_off_c, 0, 83, 0
2, 173160, Note_on_c, 0, 80, 127
2, 173160, Note_on_c, 0, 76, 127
2, 173520, Note_on_c, 0, 76, 127
2, 173628, Note_off_c, 0, 76, 0
2, 173640, Note_on_c, 0, 80, 127
2, 173712, Note_off_c, 0, 80, 0
2, 173748, Note_off_c, 0, 80, 0
2, 173760, Note_on_c, 0, 88, 127
2, 173868, Note_off_c, 0, 88, 0
2, 173875, Note_on_c, 0, 87, 127
2, 173933, Note_on_c, 0, 88, 127
2, 173942, Note_on_c, 0, 87, 127
2, 173983, Note_off_c, 0, 87, 0
2, 174000, Note_on_c, 0, 92, 127
2, 174041, Note_off_c, 0, 88, 0
2, 174050, Note_off_c, 0, 87, 0
2, 174144, Note_off_c, 0, 76, 0
2, 174216, Note_off_c, 0, 92, 0
2, 174336, Note_on_c, 0, 90, 127
2, 174358, Note_off_c, 0, 90, 0
2, 174360, Note_on_c, 0, 92, 127
2, 174478, Note_off_c, 0, 92, 0
2, 174480, Note_on_c, 0, 90, 127
2, 174598, Note_off_c, 0, 90, 0
2, 174600, Note_on_c, 0, 85, 127
2, 174689, Note_off_c, 0, 85, 0
2, 174691, Note_on_c, 0, 88, 127
2, 174718, Note_off_c, 0, 88, 0
2, 174720, Note_on_c, 0, 90, 127
2, 174838, Note_off_c, 0, 90, 0
2, 174840, Note_on_c, 0, 88, 127
2, 174958, Note_off_c, 0, 88, 0
2, 174960, Note_on_c, 0, 87, 127
2, 175078, Note_off_c, 0, 87, 0
2, 175080, Note_on_c, 0, 88, 127
2, 175318, Note_off_c, 0, 88, 0
2, 175320, Note_on_c, 0, 87, 127
2, 175438, Note_off_c, 0, 87, 0
2, 175440, Note_on_c, 0, 85, 127
2, 175656, Note_off_c, 0, 85, 0
2, 175800, Note_on_c, 0, 73, 127
2, 175918, Note_off_c, 0, 73, 0
2, 175920, Note_on_c, 0, 75, 127
2, 176038, Note_off_c, 0, 75, 0
2, 176040, Note_on_c, 0, 76, 127
2, 176158, Note_off_c, 0, 76, 0
2, 176160, Note_on_c, 0, 80, 127
2, 176160, Note_on_c, 0, 69, 127
2, 176278, Note_off_c, 0, 80, 0
2, 176280, Note_on_c, 0, 76, 127
2, 176398, Note_off_c, 0, 76, 0
2, 176400, Note_on_c, 0, 73, 127
2, 176518, Note_off_c, 0, 73, 0
2, 176520, Note_on_c, 0, 80, 127
2, 176592, Note_off_c, 0, 69, 0
2, 176638, Note_off_c, 0, 80, 0
2, 176640, Note_on_c, 0, 78, 127
2, 176640, Note_on_c, 0, 71, 127
2, 176640, Note_on_c, 0, 63, 127
2, 176758, Note_off_c, 0, 78, 0
2, 176760, Note_on_c, 0, 76, 127
2, 176878, Note_off_c, 0, 76, 0
2, 176880, Note_on_c, 0, 75, 127
2, 176964, Note_off_c, 0, 63, 0
2, 176998, Note_off_c, 0, 75, 0
2, 177000, Note_off_c, 0, 71, 0
2, 177000, Note_on_c, 0, 76, 127
2, 177000, Note_on_c, 0, 68, 127
2, 177238, Note_off_c, 0, 76, 0
2, 177240, Note_on_c, 0, 73, 127
2, 177358, Note_off_c, 0, 73, 0
2, 177360, Note_on_c, 0, 68, 127
2, 177478, Note_off_c, 0, 68, 0
2, 177480, Note_on_c, 0, 76, 127
2, 177552, Note_off_c, 0, 68, 0
2, 177598, Note_off_c, 0, 76, 0
2, 177600, Note_on_c, 0, 75, 127
2, 177600, Note_on_c, 0, 66, 127
2, 177718, Note_off_c, 0, 75, 0
2, 177720, Note_on_c, 0, 76, 127
2, 177838, Note_off_c, 0, 76, 0
2, 177840, Note_on_c, 0, 75, 127
2, 177958, Note_off_c, 0, 75, 0
2, 177960, Note_off_c, 0, 66, 0
2, 177960, Note_on_c, 0, 73, 127
2, 177960, Note_on_c, 0, 68, 127
2, 178318, Note_off_c, 0, 73, 0
2, 178320, Note_on_c, 0, 78, 127
2, 178438, Note_off_c, 0, 78, 0
2, 178440, Note_on_c, 0, 76, 127
2, 178558, Note_off_c, 0, 76, 0
2, 178560, Note_on_c, 0, 75, 127
2, 178678, Note_off_c, 0, 75, 0
2, 178680, Note_on_c, 0, 71, 127
2, 178798, Note_off_c, 0, 71, 0
2, 178800, Note_on_c, 0, 66, 127
2, 178918, Note_off_c, 0, 66, 0
2, 178920, Note_on_c, 0, 61, 127
2, 178920, Note_on_c, 0, 64, 127
2, 179136, Note_off_c, 0, 64, 0
2, 179136, Note_off_c, 0, 61, 0
2, 179160, Note_on_c, 0, 54, 127
2, 179160, Note_on_c, 0, 59, 127
2, 179160, Note_on_c, 0, 63, 127
2, 179268, Note_off_c, 0, 63, 0
2, 179268, Note_off_c, 0, 59, 0
2, 179268, Note_off_c, 0, 54, 0
2, 179280, Note_on_c, 0, 54, 127
2, 179280, Note_on_c, 0, 59, 127
2, 179280, Note_on_c, 0, 63, 127
2, 179808, Note_off_c, 0, 68, 0
2, 179952, Note_off_c, 0, 54, 0
2, 179952, Note_off_c, 0, 59, 0
2, 179952, Note_off_c, 0, 63, 0
2, 179999, End_track
3, 0, Start_track
3, 0, Title_t, " 2"
3, 0, MIDI_port, 0
3, 0, Program_c, 0, 0
3, 0, Control_c, 0, 10, 64
3, 240, Note_on_c, 0, 85, 127
3, 348, Note_off_c, 0, 85, 0
3, 360, Note_on_c, 0, 87, 127
3, 468, Note_off_c, 0, 87, 0
3, 480, Note_on_c, 0, 88, 127
3, 480, Note_on_c, 0, 85, 127
3, 696, Note_off_c, 0, 88, 0
3, 696, Note_off_c, 0, 85, 0
3, 720, Note_on_c, 0, 87, 127
3, 936, Note_off_c, 0, 87, 0
3, 960, Note_on_c, 0, 88, 127
3, 1176, Note_off_c, 0, 88, 0
3, 1200, Note_on_c, 0, 87, 127
3, 1308, Note_off_c, 0, 87, 0
3, 1320, Note_on_c, 0, 88, 127
3, 1428, Note_off_c, 0, 88, 0
3, 1440, Note_on_c, 0, 88, 127
3, 1872, Note_off_c, 0, 88, 0
3, 2160, Note_on_c, 0, 85, 127
3, 2268, Note_off_c, 0, 85, 0
3, 2280, Note_on_c, 0, 87, 127
3, 2388, Note_off_c, 0, 87, 0
3, 2400, Note_on_c, 0, 88, 127
3, 2400, Note_on_c, 0, 85, 127
3, 2616, Note_off_c, 0, 88, 0
3, 2616, Note_off_c, 0, 85, 0
3, 2640, Note_on_c, 0, 87, 127
3, 2856, Note_off_c, 0, 87, 0
3, 2880, Note_on_c, 0, 88, 127
3, 3096, Note_off_c, 0, 88, 0
3, 3120, Note_on_c, 0, 87, 127
3, 3228, Note_off_c, 0, 87, 0
3, 3240, Note_on_c, 0, 90, 127
3, 3348, Note_off_c, 0, 90, 0
3, 3360, Note_on_c, 0, 90, 127
3, 3792, Note_off_c, 0, 90, 0
3, 4080, Note_on_c, 0, 85, 127
3, 4188, Note_off_c, 0, 85, 0
3, 4200, Note_on_c, 0, 87, 127
3, 4308, Note_off_c, 0, 87, 0
3, 4320, Note_on_c, 0, 88, 127
3, 4320, Note_on_c, 0, 85, 127
3, 4536, Note_off_c, 0, 88, 0
3, 4536, Note_off_c, 0, 85, 0
3, 4560, Note_on_c, 0, 87, 127
3, 4776, Note_off_c, 0, 87, 0
3, 4800, Note_on_c, 0, 88, 127
3, 5016, Note_off_c, 0, 88, 0
3, 5040, Note_on_c, 0, 87, 127
3, 5148, Note_off_c, 0, 87, 0
3, 5160, Note_on_c, 0, 88, 127
3, 5268, Note_off_c, 0, 88, 0
3, 5280, Note_on_c, 0, 88, 127
3, 5712, Note_off_c, 0, 88, 0
3, 5880, Note_on_c, 0, 85, 127
3, 5988, Note_off_c, 0, 85, 0
3, 6000, Note_on_c, 0, 87, 127
3, 6108, Note_off_c, 0, 87, 0
3, 6120, Note_on_c, 0, 88, 127
3, 6228, Note_off_c, 0, 88, 0
3, 6240, Note_on_c, 0, 92, 127
3, 6240, Note_on_c, 0, 81, 127
3, 6348, Note_off_c, 0, 92, 0
3, 6348, Note_off_c, 0, 81, 0
3, 6360, Note_on_c, 0, 88, 127
3, 6468, Note_off_c, 0, 88, 0
3, 6480, Note_on_c, 0, 85, 127
3, 6588, Note_off_c, 0, 85, 0
3, 6600, Note_on_c, 0, 92, 127
3, 6708, Note_off_c, 0, 92, 0
3, 6720, Note_on_c, 0, 90, 127
3, 6720, Note_on_c, 0, 83, 127
3, 6828, Note_off_c, 0, 90, 0
3, 6828, Note_off_c, 0, 83, 0
3, 6840, Note_on_c, 0, 88, 127
3, 6948, Note_off_c, 0, 88, 0
3, 6960, Note_on_c, 0, 87, 127
3, 7068, Note_off_c, 0, 87, 0
3, 7080, Note_on_c, 0, 85, 127
3, 7188, Note_off_c, 0, 85, 0
3, 7200, Note_on_c, 0, 85, 127
3, 7632, Note_off_c, 0, 85, 0
3, 8160, Note_on_c, 0, 45, 127
3, 8160, Note_on_c, 0, 45, 127
3, 8268, Note_off_c, 0, 45, 0
3, 8280, Note_on_c, 0, 52, 127
3, 8388, Note_off_c, 0, 52, 0
3, 8400, Note_on_c, 0, 57, 127
3, 8508, Note_off_c, 0, 57, 0
3, 8520, Note_on_c, 0, 52, 127
3, 8592, Note_off_c, 0, 45, 0
3, 8628, Note_off_c, 0, 52, 0
3, 8640, Note_on_c, 0, 47, 127
3, 8640, Note_on_c, 0, 47, 127
3, 8748, Note_off_c, 0, 47, 0
3, 8760, Note_on_c, 0, 54, 127
3, 8868, Note_off_c, 0, 54, 0
3, 8880, Note_on_c, 0, 59, 127
3, 8988, Note_off_c, 0, 59, 0
3, 9000, Note_on_c, 0, 61, 127
3, 9000, Note_on_c, 0, 56, 127
3, 9072, Note_off_c, 0, 47, 0
3, 9228, Note_off_c, 0, 61, 0
3, 9228, Note_off_c, 0, 56, 0
3, 9240, Note_on_c, 0, 56, 127
3, 9348, Note_off_c, 0, 56, 0
3, 9360, Note_on_c, 0, 61, 127
3, 9468, Note_off_c, 0, 61, 0
3, 9480, Note_on_c, 0, 56, 127
3, 9588, Note_off_c, 0, 56, 0
3, 9600, Note_on_c, 0, 64, 127
3, 9708, Note_off_c, 0, 64, 0
3, 9720, Note_on_c, 0, 56, 127
3, 9828, Note_off_c, 0, 56, 0
3, 9840, Note_on_c, 0, 61, 127
3, 9948, Note_off_c, 0, 61, 0
3, 9960, Note_on_c, 0, 56, 127
3, 10068, Note_off_c, 0, 56, 0
3, 10080, Note_on_c, 0, 45, 127
3, 10080, Note_on_c, 0, 45, 127
3, 10188, Note_off_c, 0, 45, 0
3, 10200, Note_on_c, 0, 52, 127
3, 10308, Note_off_c, 0, 52, 0
3, 10320, Note_on_c, 0, 57, 127
3, 10428, Note_off_c, 0, 57, 0
3, 10440, Note_on_c, 0, 52, 127
3, 10512, Note_off_c, 0, 45, 0
3, 10548, Note_off_c, 0, 52, 0
3, 10560, Note_on_c, 0, 47, 127
3, 10560, Note_on_c, 0, 47, 127
3, 10668, Note_off_c, 0, 47, 0
3, 10680, Note_on_c, 0, 54, 127
3, 10788, Note_off_c, 0, 54, 0
3, 10800, Note_on_c, 0, 59, 127
3, 10908, Note_off_c, 0, 59, 0
3, 10920, Note_on_c, 0, 61, 127
3, 10920, Note_on_c, 0, 56, 127
3, 10992, Note_off_c, 0, 47, 0
3, 11148, Note_off_c, 0, 61, 0
3, 11148, Note_off_c, 0, 56, 0
3, 11160, Note_on_c, 0, 56, 127
3, 11268, Note_off_c, 0, 56, 0
3, 11280, Note_on_c, 0, 61, 127
3, 11388, Note_off_c, 0, 61, 0
3, 11400, Note_on_c, 0, 56, 127
3, 11508, Note_off_c, 0, 56, 0
3, 11520, Note_on_c, 0, 64, 127
3, 11628, Note_off_c, 0, 64, 0
3, 11640, Note_on_c, 0, 56, 127
3, 11748, Note_off_c, 0, 56, 0
3, 11760, Note_on_c, 0, 61, 127
3, 11868, Note_off_c, 0, 61, 0
3, 11880, Note_on_c, 0, 56, 127
3, 11988, Note_off_c, 0, 56, 0
3, 12000, Note_on_c, 0, 45, 127
3, 12000, Note_on_c, 0, 45, 127
3, 12108, Note_off_c, 0, 45, 0
3, 12120, Note_on_c, 0, 52, 127
3, 12228, Note_off_c, 0, 52, 0
3, 12240, Note_on_c, 0, 57, 127
3, 12348, Note_off_c, 0, 57, 0
3, 12360, Note_on_c, 0, 52, 127
3, 12432, Note_off_c, 0, 45, 0
3, 12468, Note_off_c, 0, 52, 0
3, 12480, Note_on_c, 0, 47, 127
3, 12480, Note_on_c, 0, 47, 127
3, 12588, Note_off_c, 0, 47, 0
3, 12600, Note_on_c, 0, 54, 127
3, 12708, Note_off_c, 0, 54, 0
3, 12720, Note_on_c, 0, 59, 127
3, 12828, Note_off_c, 0, 59, 0
3, 12840, Note_on_c, 0, 61, 127
3, 12840, Note_on_c, 0, 56, 127
3, 12912, Note_off_c, 0, 47, 0
3, 13068, Note_off_c, 0, 61, 0
3, 13068, Note_off_c, 0, 56, 0
3, 13080, Note_on_c, 0, 56, 127
3, 13188, Note_off_c, 0, 56, 0
3, 13200, Note_on_c, 0, 61, 127
3, 13308, Note_off_c, 0, 61, 0
3, 13320, Note_on_c, 0, 56, 127
3, 13428, Note_off_c, 0, 56, 0
3, 13440, Note_on_c, 0, 64, 127
3, 13548, Note_off_c, 0, 64, 0
3, 13560, Note_on_c, 0, 56, 127
3, 13668, Note_off_c, 0, 56, 0
3, 13680, Note_on_c, 0, 61, 127
3, 13896, Note_off_c, 0, 61, 0
3, 13920, Note_on_c, 0, 45, 127
3, 13920, Note_on_c, 0, 45, 127
3, 14028, Note_off_c, 0, 45, 0
3, 14040, Note_on_c, 0, 49, 127
3, 14148, Note_off_c, 0, 49, 0
3, 14160, Note_on_c, 0, 54, 127
3, 14268, Note_off_c, 0, 54, 0
3, 14280, Note_on_c, 0, 52, 127
3, 14352, Note_off_c, 0, 45, 0
3, 14388, Note_off_c, 0, 52, 0
3, 14400, Note_on_c, 0, 47, 127
3, 14400, Note_on_c, 0, 47, 127
3, 14508, Note_off_c, 0, 47, 0
3, 14520, Note_on_c, 0, 54, 127
3, 14628, Note_off_c, 0, 54, 0
3, 14640, Note_on_c, 0, 59, 127
3, 14748, Note_off_c, 0, 59, 0
3, 14760, Note_on_c, 0, 61, 127
3, 14760, Note_on_c, 0, 56, 127
3, 14760, Note_on_c, 0, 52, 127
3, 14832, Note_off_c, 0, 47, 0
3, 16656, Note_off_c, 0, 52, 0
3, 16800, Note_off_c, 0, 61, 0
3, 16800, Note_off_c, 0, 56, 0
3, 16800, Note_on_c, 0, 49, 127
3, 16908, Note_off_c, 0, 49, 0
3, 16920, Note_on_c, 0, 56, 127
3, 17028, Note_off_c, 0, 56, 0
3, 17040, Note_on_c, 0, 61, 127
3, 17148, Note_off_c, 0, 61, 0
3, 17160, Note_on_c, 0, 56, 127
3, 17268, Note_off_c, 0, 56, 0
3, 17280, Note_on_c, 0, 64, 127
3, 17712, Note_off_c, 0, 64, 0
3, 17760, Note_on_c, 0, 49, 127
3, 17868, Note_off_c, 0, 49, 0
3, 17880, Note_on_c, 0, 56, 127
3, 17988, Note_off_c, 0, 56, 0
3, 18000, Note_on_c, 0, 61, 127
3, 18108, Note_off_c, 0, 61, 0
3, 18120, Note_on_c, 0, 56, 127
3, 18228, Note_off_c, 0, 56, 0
3, 18240, Note_on_c, 0, 64, 127
3, 18672, Note_off_c, 0, 64, 0
3, 18720, Note_on_c, 0, 45, 127
3, 18828, Note_off_c, 0, 45, 0
3, 18840, Note_on_c, 0, 52, 127
3, 18948, Note_off_c, 0, 52, 0
3, 18960, Note_on_c, 0, 57, 127
3, 19068, Note_off_c, 0, 57, 0
3, 19080, Note_on_c, 0, 52, 127
3, 19188, Note_off_c, 0, 52, 0
3, 19200, Note_on_c, 0, 61, 127
3, 19632, Note_off_c, 0, 61, 0
3, 19680, Note_on_c, 0, 45, 127
3, 19788, Note_off_c, 0, 45, 0
3, 19800, Note_on_c, 0, 52, 127
3, 19908, Note_off_c, 0, 52, 0
3, 19920, Note_on_c, 0, 57, 127
3, 20028, Note_off_c, 0, 57, 0
3, 20040, Note_on_c, 0, 52, 127
3, 20148, Note_off_c, 0, 52, 0
3, 20160, Note_on_c, 0, 61, 127
3, 20592, Note_off_c, 0, 61, 0
3, 20640, Note_on_c, 0, 47, 127
3, 20748, Note_off_c, 0, 47, 0
3, 20760, Note_on_c, 0, 54, 127
3, 20868, Note_off_c, 0, 54, 0
3, 20880, Note_on_c, 0, 59, 127
3, 20988, Note_off_c, 0, 59, 0
3, 21000, Note_on_c, 0, 54, 127
3, 21108, Note_off_c, 0, 54, 0
3, 21120, Note_on_c, 0, 63, 127
3, 21552, Note_off_c, 0, 63, 0
3, 21600, Note_on_c, 0, 47, 127
3, 21708, Note_off_c, 0, 47, 0
3, 21720, Note_on_c, 0, 54, 127
3, 21828, Note_off_c, 0, 54, 0
3, 21840, Note_on_c, 0, 59, 127
3, 21948, Note_off_c, 0, 59, 0
3, 21960, Note_on_c, 0, 54, 127
3, 22068, Note_off_c, 0, 54, 0
3, 22080, Note_on_c, 0, 63, 127
3, 22512, Note_off_c, 0, 63, 0
3, 22560, Note_on_c, 0, 49, 127
3, 22668, Note_off_c, 0, 49, 0
3, 22680, Note_on_c, 0, 56, 127
3, 22788, Note_off_c, 0, 56, 0
3, 22800, Note_on_c, 0, 61, 127
3, 22908, Note_off_c, 0, 61, 0
3, 22920, Note_on_c, 0, 56, 127
3, 23028, Note_off_c, 0, 56, 0
3, 23040, Note_on_c, 0, 64, 127
3, 23472, Note_off_c, 0, 64, 0
3, 23520, Note_on_c, 0, 44, 127
3, 23628, Note_off_c, 0, 44, 0
3, 23640, Note_on_c, 0, 51, 127
3, 23748, Note_off_c, 0, 51, 0
3, 23760, Note_on_c, 0, 56, 127
3, 23868, Note_off_c, 0, 56, 0
3, 23880, Note_on_c, 0, 51, 127
3, 23988, Note_off_c, 0, 51, 0
3, 24000, Note_on_c, 0, 60, 127
3, 24432, Note_off_c, 0, 60, 0
3, 24480, Note_on_c, 0, 49, 127
3, 24588, Note_off_c, 0, 49, 0
3, 24600, Note_on_c, 0, 56, 127
3, 24708, Note_off_c, 0, 56, 0
3, 24720, Note_on_c, 0, 61, 127
3, 24828, Note_off_c, 0, 61, 0
3, 24840, Note_on_c, 0, 56, 127
3, 24948, Note_off_c, 0, 56, 0
3, 24960, Note_on_c, 0, 64, 127
3, 25392, Note_off_c, 0, 64, 0
3, 25440, Note_on_c, 0, 49, 127
3, 25548, Note_off_c, 0, 49, 0
3, 25560, Note_on_c, 0, 56, 127
3, 25668, Note_off_c, 0, 56, 0
3, 25680, Note_on_c, 0, 61, 127
3, 25788, Note_off_c, 0, 61, 0
3, 25800, Note_on_c, 0, 56, 127
3, 25908, Note_off_c, 0, 56, 0
3, 25920, Note_on_c, 0, 64, 127
3, 26352, Note_off_c, 0, 64, 0
3, 26400, Note_on_c, 0, 45, 127
3, 26508, Note_off_c, 0, 45, 0
3, 26520, Note_on_c, 0, 52, 127
3, 26628, Note_off_c, 0, 52, 0
3, 26640, Note_on_c, 0, 57, 127
3, 26748, Note_off_c, 0, 57, 0
3, 26760, Note_on_c, 0, 52, 127
3, 26868, Note_off_c, 0, 52, 0
3, 26880, Note_on_c, 0, 61, 127
3, 27312, Note_off_c, 0, 61, 0
3, 27360, Note_on_c, 0, 45, 127
3, 27468, Note_off_c, 0, 45, 0
3, 27480, Note_on_c, 0, 52, 127
3, 27588, Note_off_c, 0, 52, 0
3, 27600, Note_on_c, 0, 57, 127
3, 27708, Note_off_c, 0, 57, 0
3, 27720, Note_on_c, 0, 52, 127
3, 27828, Note_off_c, 0, 52, 0
3, 27840, Note_on_c, 0, 61, 127
3, 28272, Note_off_c, 0, 61, 0
3, 28320, Note_on_c, 0, 47, 127
3, 28428, Note_off_c, 0, 47, 0
3, 28440, Note_on_c, 0, 54, 127
3, 28548, Note_off_c, 0, 54, 0
3, 28560, Note_on_c, 0, 59, 127
3, 28668, Note_off_c, 0, 59, 0
3, 28680, Note_on_c, 0, 54, 127
3, 28788, Note_off_c, 0, 54, 0
3, 28800, Note_on_c, 0, 63, 127
3, 29232, Note_off_c, 0, 63, 0
3, 29280, Note_on_c, 0, 47, 127
3, 29388, Note_off_c, 0, 47, 0
3, 29400, Note_on_c, 0, 54, 127
3, 29508, Note_off_c, 0, 54, 0
3, 29520, Note_on_c, 0, 59, 127
3, 29628, Note_off_c, 0, 59, 0
3, 29640, Note_on_c, 0, 54, 127
3, 29748, Note_off_c, 0, 54, 0
3, 29760, Note_on_c, 0, 63, 127
3, 30192, Note_off_c, 0, 63, 0
3, 30240, Note_on_c, 0, 37, 127
3, 30348, Note_off_c, 0, 37, 0
3, 30360, Note_on_c, 0, 44, 127
3, 30468, Note_off_c, 0, 44, 0
3, 30480, Note_on_c, 0, 49, 127
3, 30588, Note_off_c, 0, 49, 0
3, 30600, Note_on_c, 0, 52, 127
3, 30708, Note_off_c, 0, 52, 0
3, 30720, Note_on_c, 0, 56, 127
3, 30828, Note_off_c, 0, 56, 0
3, 30840, Note_on_c, 0, 52, 127
3, 30948, Note_off_c, 0, 52, 0
3, 30960, Note_on_c, 0, 61, 127
3, 31176, Note_off_c, 0, 61, 0
3, 31200, Note_on_c, 0, 60, 127
3, 31200, Note_on_c, 0, 56, 127
3, 31632, Note_off_c, 0, 60, 0
3, 31680, Note_on_c, 0, 60, 127
3, 32064, Note_off_c, 0, 56, 0
3, 32112, Note_off_c, 0, 60, 0
3, 32160, Note_on_c, 0, 49, 127
3, 32268, Note_off_c, 0, 49, 0
3, 32280, Note_on_c, 0, 56, 127
3, 32388, Note_off_c, 0, 56, 0
3, 32400, Note_on_c, 0, 61, 127
3, 32508, Note_off_c, 0, 61, 0
3, 32520, Note_on_c, 0, 56, 127
3, 32628, Note_off_c, 0, 56, 0
3, 32640, Note_on_c, 0, 64, 127
3, 33072, Note_off_c, 0, 64, 0
3, 33120, Note_on_c, 0, 49, 127
3, 33228, Note_off_c, 0, 49, 0
3, 33240, Note_on_c, 0, 56, 127
3, 33348, Note_off_c, 0, 56, 0
3, 33360, Note_on_c, 0, 61, 127
3, 33468, Note_off_c, 0, 61, 0
3, 33480, Note_on_c, 0, 56, 127
3, 33588, Note_off_c, 0, 56, 0
3, 33600, Note_on_c, 0, 64, 127
3, 34032, Note_off_c, 0, 64, 0
3, 34080, Note_on_c, 0, 45, 127
3, 34188, Note_off_c, 0, 45, 0
3, 34200, Note_on_c, 0, 52, 127
3, 34308, Note_off_c, 0, 52, 0
3, 34320, Note_on_c, 0, 57, 127
3, 34428, Note_off_c, 0, 57, 0
3, 34440, Note_on_c, 0, 52, 127
3, 34548, Note_off_c, 0, 52, 0
3, 34560, Note_on_c, 0, 61, 127
3, 34992, Note_off_c, 0, 61, 0
3, 35040, Note_on_c, 0, 45, 127
3, 35148, Note_off_c, 0, 45, 0
3, 35160, Note_on_c, 0, 52, 127
3, 35268, Note_off_c, 0, 52, 0
3, 35280, Note_on_c, 0, 57, 127
3, 35388, Note_off_c, 0, 57, 0
3, 35400, Note_on_c, 0, 52, 127
3, 35508, Note_off_c, 0, 52, 0
3, 35520, Note_on_c, 0, 61, 127
3, 35952, Note_off_c, 0, 61, 0
3, 36000, Note_on_c, 0, 47, 127
3, 36108, Note_off_c, 0, 47, 0
3, 36120, Note_on_c, 0, 54, 127
3, 36228, Note_off_c, 0, 54, 0
3, 36240, Note_on_c, 0, 59, 127
3, 36348, Note_off_c, 0, 59, 0
3, 36360, Note_on_c, 0, 54, 127
3, 36468, Note_off_c, 0, 54, 0
3, 36480, Note_on_c, 0, 63, 127
3, 36912, Note_off_c, 0, 63, 0
3, 36960, Note_on_c, 0, 47, 127
3, 37068, Note_off_c, 0, 47, 0
3, 37080, Note_on_c, 0, 54, 127
3, 37188, Note_off_c, 0, 54, 0
3, 37200, Note_on_c, 0, 59, 127
3, 37308, Note_off_c, 0, 59, 0
3, 37320, Note_on_c, 0, 54, 127
3, 37428, Note_off_c, 0, 54, 0
3, 37440, Note_on_c, 0, 63, 127
3, 37872, Note_off_c, 0, 63, 0
3, 37920, Note_on_c, 0, 49, 127
3, 38028, Note_off_c, 0, 49, 0
3, 38040, Note_on_c, 0, 56, 127
3, 38148, Note_off_c, 0, 56, 0
3, 38160, Note_on_c, 0, 61, 127
3, 38268, Note_off_c, 0, 61, 0
3, 38280, Note_on_c, 0, 56, 127
3, 38388, Note_off_c, 0, 56, 0
3, 38400, Note_on_c, 0, 64, 127
3, 38508, Note_off_c, 0, 64, 0
3, 38520, Note_on_c, 0, 61, 127
3, 38628, Note_off_c, 0, 61, 0
3, 38640, Note_on_c, 0, 56, 127
3, 38856, Note_off_c, 0, 56, 0
3, 38880, Note_on_c, 0, 44, 127
3, 38988, Note_off_c, 0, 44, 0
3, 39000, Note_on_c, 0, 51, 127
3, 39108, Note_off_c, 0, 51, 0
3, 39120, Note_on_c, 0, 56, 127
3, 39228, Note_off_c, 0, 56, 0
3, 39240, Note_on_c, 0, 51, 127
3, 39348, Note_off_c, 0, 51, 0
3, 39360, Note_on_c, 0, 60, 127
3, 39792, Note_off_c, 0, 60, 0
3, 39840, Note_on_c, 0, 49, 127
3, 39948, Note_off_c, 0, 49, 0
3, 39960, Note_on_c, 0, 56, 127
3, 40068, Note_off_c, 0, 56, 0
3, 40080, Note_on_c, 0, 61, 127
3, 40188, Note_off_c, 0, 61, 0
3, 40200, Note_on_c, 0, 56, 127
3, 40308, Note_off_c, 0, 56, 0
3, 40320, Note_on_c, 0, 64, 127
3, 40752, Note_off_c, 0, 64, 0
3, 40800, Note_on_c, 0, 49, 127
3, 40908, Note_off_c, 0, 49, 0
3, 40920, Note_on_c, 0, 56, 127
3, 41028, Note_off_c, 0, 56, 0
3, 41040, Note_on_c, 0, 61, 127
3, 41148, Note_off_c, 0, 61, 0
3, 41160, Note_on_c, 0, 56, 127
3, 41268, Note_off_c, 0, 56, 0
3, 41280, Note_on_c, 0, 64, 127
3, 41712, Note_off_c, 0, 64, 0
3, 41760, Note_on_c, 0, 45, 127
3, 41868, Note_off_c, 0, 45, 0
3, 41880, Note_on_c, 0, 52, 127
3, 41988, Note_off_c, 0, 52, 0
3, 42000, Note_on_c, 0, 57, 127
3, 42108, Note_off_c, 0, 57, 0
3, 42120, Note_on_c, 0, 52, 127
3, 42228, Note_off_c, 0, 52, 0
3, 42240, Note_on_c, 0, 61, 127
3, 42672, Note_off_c, 0, 61, 0
3, 42720, Note_on_c, 0, 45, 127
3, 42828, Note_off_c, 0, 45, 0
3, 42840, Note_on_c, 0, 52, 127
3, 42948, Note_off_c, 0, 52, 0
3, 42960, Note_on_c, 0, 57, 127
3, 43068, Note_off_c, 0, 57, 0
3, 43080, Note_on_c, 0, 52, 127
3, 43188, Note_off_c, 0, 52, 0
3, 43200, Note_on_c, 0, 61, 127
3, 43632, Note_off_c, 0, 61, 0
3, 43680, Note_on_c, 0, 47, 127
3, 43788, Note_off_c, 0, 47, 0
3, 43800, Note_on_c, 0, 54, 127
3, 43908, Note_off_c, 0, 54, 0
3, 43920, Note_on_c, 0, 59, 127
3, 44028, Note_off_c, 0, 59, 0
3, 44040, Note_on_c, 0, 54, 127
3, 44148, Note_off_c, 0, 54, 0
3, 44160, Note_on_c, 0, 63, 127
3, 44592, Note_off_c, 0, 63, 0
3, 44640, Note_on_c, 0, 47, 127
3, 44748, Note_off_c, 0, 47, 0
3, 44760, Note_on_c, 0, 54, 127
3, 44868, Note_off_c, 0, 54, 0
3, 44880, Note_on_c, 0, 59, 127
3, 44988, Note_off_c, 0, 59, 0
3, 45000, Note_on_c, 0, 54, 127
3, 45108, Note_off_c, 0, 54, 0
3, 45120, Note_on_c, 0, 63, 127
3, 45552, Note_off_c, 0, 63, 0
3, 45600, Note_on_c, 0, 49, 127
3, 45708, Note_off_c, 0, 49, 0
3, 45720, Note_on_c, 0, 56, 127
3, 45828, Note_off_c, 0, 56, 0
3, 45840, Note_on_c, 0, 61, 127
3, 45948, Note_off_c, 0, 61, 0
3, 45960, Note_on_c, 0, 56, 127
3, 46068, Note_off_c, 0, 56, 0
3, 46080, Note_on_c, 0, 64, 127
3, 46188, Note_off_c, 0, 64, 0
3, 46200, Note_on_c, 0, 61, 127
3, 46308, Note_off_c, 0, 61, 0
3, 46320, Note_on_c, 0, 64, 127
3, 46428, Note_off_c, 0, 64, 0
3, 46440, Note_on_c, 0, 68, 127
3, 46548, Note_off_c, 0, 68, 0
3, 46560, Note_on_c, 0, 49, 127
3, 46668, Note_off_c, 0, 49, 0
3, 46680, Note_on_c, 0, 56, 127
3, 46788, Note_off_c, 0, 56, 0
3, 46800, Note_on_c, 0, 61, 127
3, 46908, Note_off_c, 0, 61, 0
3, 46920, Note_on_c, 0, 64, 127
3, 47028, Note_off_c, 0, 64, 0
3, 47040, Note_on_c, 0, 68, 127
3, 47472, Note_off_c, 0, 68, 0
3, 47520, Note_on_c, 0, 46, 127
3, 47628, Note_off_c, 0, 46, 0
3, 47640, Note_on_c, 0, 49, 127
3, 47748, Note_off_c, 0, 49, 0
3, 47760, Note_on_c, 0, 53, 127
3, 47868, Note_off_c, 0, 53, 0
3, 47880, Note_on_c, 0, 49, 127
3, 47988, Note_off_c, 0, 49, 0
3, 48000, Note_on_c, 0, 58, 127
3, 48108, Note_off_c, 0, 58, 0
3, 48120, Note_on_c, 0, 49, 127
3, 48228, Note_off_c, 0, 49, 0
3, 48240, Note_on_c, 0, 53, 127
3, 48348, Note_off_c, 0, 53, 0
3, 48360, Note_on_c, 0, 49, 127
3, 48468, Note_off_c, 0, 49, 0
3, 48480, Note_on_c, 0, 46, 127
3, 48588, Note_off_c, 0, 46, 0
3, 48600, Note_on_c, 0, 49, 127
3, 48708, Note_off_c, 0, 49, 0
3, 48720, Note_on_c, 0, 53, 127
3, 48828, Note_off_c, 0, 53, 0
3, 48840, Note_on_c, 0, 49, 127
3, 48948, Note_off_c, 0, 49, 0
3, 48960, Note_on_c, 0, 58, 127
3, 49068, Note_off_c, 0, 58, 0
3, 49080, Note_on_c, 0, 49, 127
3, 49188, Note_off_c, 0, 49, 0
3, 49200, Note_on_c, 0, 53, 127
3, 49308, Note_off_c, 0, 53, 0
3, 49320, Note_on_c, 0, 49, 127
3, 49428, Note_off_c, 0, 49, 0
3, 49440, Note_on_c, 0, 42, 127
3, 49548, Note_off_c, 0, 42, 0
3, 49560, Note_on_c, 0, 49, 127
3, 49668, Note_off_c, 0, 49, 0
3, 49680, Note_on_c, 0, 54, 127
3, 49788, Note_off_c, 0, 54, 0
3, 49800, Note_on_c, 0, 49, 127
3, 49908, Note_off_c, 0, 49, 0
3, 49920, Note_on_c, 0, 58, 127
3, 50028, Note_off_c, 0, 58, 0
3, 50040, Note_on_c, 0, 49, 127
3, 50148, Note_off_c, 0, 49, 0
3, 50160, Note_on_c, 0, 54, 127
3, 50268, Note_off_c, 0, 54, 0
3, 50280, Note_on_c, 0, 49, 127
3, 50388, Note_off_c, 0, 49, 0
3, 50400, Note_on_c, 0, 42, 127
3, 50508, Note_off_c, 0, 42, 0
3, 50520, Note_on_c, 0, 49, 127
3, 50628, Note_off_c, 0, 49, 0
3, 50640, Note_on_c, 0, 54, 127
3, 50748, Note_off_c, 0, 54, 0
3, 50760, Note_on_c, 0, 49, 127
3, 50868, Note_off_c, 0, 49, 0
3, 50880, Note_on_c, 0, 58, 127
3, 50988, Note_off_c, 0, 58, 0
3, 51000, Note_on_c, 0, 49, 127
3, 51108, Note_off_c, 0, 49, 0
3, 51120, Note_on_c, 0, 54, 127
3, 51228, Note_off_c, 0, 54, 0
3, 51240, Note_on_c, 0, 49, 127
3, 51348, Note_off_c, 0, 49, 0
3, 51360, Note_on_c, 0, 44, 127
3, 51468, Note_off_c, 0, 44, 0
3, 51480, Note_on_c, 0, 51, 127
3, 51588, Note_off_c, 0, 51, 0
3, 51600, Note_on_c, 0, 56, 127
3, 51708, Note_off_c, 0, 56, 0
3, 51720, Note_on_c, 0, 51, 127
3, 51828, Note_off_c, 0, 51, 0
3, 51840, Note_on_c, 0, 60, 127
3, 51948, Note_off_c, 0, 60, 0
3, 51960, Note_on_c, 0, 51, 127
3, 52068, Note_off_c, 0, 51, 0
3, 52080, Note_on_c, 0, 56, 127
3, 52188, Note_off_c, 0, 56, 0
3, 52200, Note_on_c, 0, 51, 127
3, 52308, Note_off_c, 0, 51, 0
3, 52320, Note_on_c, 0, 42, 127
3, 52428, Note_off_c, 0, 42, 0
3, 52440, Note_on_c, 0, 49, 127
3, 52548, Note_off_c, 0, 49, 0
3, 52560, Note_on_c, 0, 54, 127
3, 52668, Note_off_c, 0, 54, 0
3, 52680, Note_on_c, 0, 49, 127
3, 52788, Note_off_c, 0, 49, 0
3, 52800, Note_on_c, 0, 58, 127
3, 52908, Note_off_c, 0, 58, 0
3, 52920, Note_on_c, 0, 49, 127
3, 53028, Note_off_c, 0, 49, 0
3, 53040, Note_on_c, 0, 54, 127
3, 53148, Note_off_c, 0, 54, 0
3, 53160, Note_on_c, 0, 49, 127
3, 53268, Note_off_c, 0, 49, 0
3, 53280, Note_on_c, 0, 41, 127
3, 53388, Note_off_c, 0, 41, 0
3, 53400, Note_on_c, 0, 48, 127
3, 53508, Note_off_c, 0, 48, 0
3, 53520, Note_on_c, 0, 53, 127
3, 53628, Note_off_c, 0, 53, 0
3, 53640, Note_on_c, 0, 48, 127
3, 53748, Note_off_c, 0, 48, 0
3, 53760, Note_on_c, 0, 57, 127
3, 53868, Note_off_c, 0, 57, 0
3, 53880, Note_on_c, 0, 48, 127
3, 53988, Note_off_c, 0, 48, 0
3, 54000, Note_on_c, 0, 53, 127
3, 54108, Note_off_c, 0, 53, 0
3, 54120, Note_on_c, 0, 48, 127
3, 54228, Note_off_c, 0, 48, 0
3, 54240, Note_on_c, 0, 41, 127
3, 54348, Note_off_c, 0, 41, 0
3, 54360, Note_on_c, 0, 48, 127
3, 54468, Note_off_c, 0, 48, 0
3, 54480, Note_on_c, 0, 53, 127
3, 54588, Note_off_c, 0, 53, 0
3, 54600, Note_on_c, 0, 48, 127
3, 54708, Note_off_c, 0, 48, 0
3, 54720, Note_on_c, 0, 57, 127
3, 54828, Note_off_c, 0, 57, 0
3, 54840, Note_on_c, 0, 48, 127
3, 54948, Note_off_c, 0, 48, 0
3, 54960, Note_on_c, 0, 53, 127
3, 55068, Note_off_c, 0, 53, 0
3, 55080, Note_on_c, 0, 48, 127
3, 55188, Note_off_c, 0, 48, 0
3, 55200, Note_on_c, 0, 46, 127
3, 55308, Note_off_c, 0, 46, 0
3, 55320, Note_on_c, 0, 53, 127
3, 55428, Note_off_c, 0, 53, 0
3, 55440, Note_on_c, 0, 58, 127
3, 55548, Note_off_c, 0, 58, 0
3, 55560, Note_on_c, 0, 53, 127
3, 55668, Note_off_c, 0, 53, 0
3, 55680, Note_on_c, 0, 61, 127
3, 55788, Note_off_c, 0, 61, 0
3, 55800, Note_on_c, 0, 53, 127
3, 55908, Note_off_c, 0, 53, 0
3, 55920, Note_on_c, 0, 58, 127
3, 56028, Note_off_c, 0, 58, 0
3, 56040, Note_on_c, 0, 53, 127
3, 56148, Note_off_c, 0, 53, 0
3, 56160, Note_on_c, 0, 46, 127
3, 56268, Note_off_c, 0, 46, 0
3, 56280, Note_on_c, 0, 53, 127
3, 56388, Note_off_c, 0, 53, 0
3, 56400, Note_on_c, 0, 58, 127
3, 56508, Note_off_c, 0, 58, 0
3, 56520, Note_on_c, 0, 53, 127
3, 56628, Note_off_c, 0, 53, 0
3, 56640, Note_on_c, 0, 61, 127
3, 56748, Note_off_c, 0, 61, 0
3, 56760, Note_on_c, 0, 53, 127
3, 56868, Note_off_c, 0, 53, 0
3, 56880, Note_on_c, 0, 58, 127
3, 56988, Note_off_c, 0, 58, 0
3, 57000, Note_on_c, 0, 53, 127
3, 57108, Note_off_c, 0, 53, 0
3, 57120, Note_on_c, 0, 42, 127
3, 57228, Note_off_c, 0, 42, 0
3, 57240, Note_on_c, 0, 49, 127
3, 57348, Note_off_c, 0, 49, 0
3, 57360, Note_on_c, 0, 54, 127
3, 57468, Note_off_c, 0, 54, 0
3, 57480, Note_on_c, 0, 49, 127
3, 57588, Note_off_c, 0, 49, 0
3, 57600, Note_on_c, 0, 58, 127
3, 57708, Note_off_c, 0, 58, 0
3, 57720, Note_on_c, 0, 49, 127
3, 57828, Note_off_c, 0, 49, 0
3, 57840, Note_on_c, 0, 54, 127
3, 57948, Note_off_c, 0, 54, 0
3, 57960, Note_on_c, 0, 49, 127
3, 58068, Note_off_c, 0, 49, 0
3, 58080, Note_on_c, 0, 42, 127
3, 58188, Note_off_c, 0, 42, 0
3, 58200, Note_on_c, 0, 49, 127
3, 58308, Note_off_c, 0, 49, 0
3, 58320, Note_on_c, 0, 54, 127
3, 58428, Note_off_c, 0, 54, 0
3, 58440, Note_on_c, 0, 49, 127
3, 58548, Note_off_c, 0, 49, 0
3, 58560, Note_on_c, 0, 58, 127
3, 58668, Note_off_c, 0, 58, 0
3, 58680, Note_on_c, 0, 49, 127
3, 58788, Note_off_c, 0, 49, 0
3, 58800, Note_on_c, 0, 54, 127
3, 58908, Note_off_c, 0, 54, 0
3, 58920, Note_on_c, 0, 49, 127
3, 59028, Note_off_c, 0, 49, 0
3, 59040, Note_on_c, 0, 44, 127
3, 59148, Note_off_c, 0, 44, 0
3, 59160, Note_on_c, 0, 51, 127
3, 59268, Note_off_c, 0, 51, 0
3, 59280, Note_on_c, 0, 56, 127
3, 59388, Note_off_c, 0, 56, 0
3, 59400, Note_on_c, 0, 51, 127
3, 59508, Note_off_c, 0, 51, 0
3, 59520, Note_on_c, 0, 60, 127
3, 59628, Note_off_c, 0, 60, 0
3, 59640, Note_on_c, 0, 51, 127
3, 59748, Note_off_c, 0, 51, 0
3, 59760, Note_on_c, 0, 56, 127
3, 59868, Note_off_c, 0, 56, 0
3, 59880, Note_on_c, 0, 51, 127
3, 59988, Note_off_c, 0, 51, 0
3, 60000, Note_on_c, 0, 42, 127
3, 60108, Note_off_c, 0, 42, 0
3, 60120, Note_on_c, 0, 49, 127
3, 60228, Note_off_c, 0, 49, 0
3, 60240, Note_on_c, 0, 54, 127
3, 60348, Note_off_c, 0, 54, 0
3, 60360, Note_on_c, 0, 49, 127
3, 60468, Note_off_c, 0, 49, 0
3, 60480, Note_on_c, 0, 58, 127
3, 60588, Note_off_c, 0, 58, 0
3, 60600, Note_on_c, 0, 49, 127
3, 60708, Note_off_c, 0, 49, 0
3, 60720, Note_on_c, 0, 54, 127
3, 60828, Note_off_c, 0, 54, 0
3, 60840, Note_on_c, 0, 49, 127
3, 60948, Note_off_c, 0, 49, 0
3, 60960, Note_on_c, 0, 41, 127
3, 61068, Note_off_c, 0, 41, 0
3, 61080, Note_on_c, 0, 48, 127
3, 61188, Note_off_c, 0, 48, 0
3, 61200, Note_on_c, 0, 53, 127
3, 61308, Note_off_c, 0, 53, 0
3, 61320, Note_on_c, 0, 48, 127
3, 61428, Note_off_c, 0, 48, 0
3, 61440, Note_on_c, 0, 57, 127
3, 61548, Note_off_c, 0, 57, 0
3, 61560, Note_on_c, 0, 48, 127
3, 61668, Note_off_c, 0, 48, 0
3, 61680, Note_on_c, 0, 53, 127
3, 61788, Note_off_c, 0, 53, 0
3, 61800, Note_on_c, 0, 48, 127
3, 61908, Note_off_c, 0, 48, 0
3, 61920, Note_on_c, 0, 41, 127
3, 62028, Note_off_c, 0, 41, 0
3, 62040, Note_on_c, 0, 48, 127
3, 62148, Note_off_c, 0, 48, 0
3, 62160, Note_on_c, 0, 53, 127
3, 62268, Note_off_c, 0, 53, 0
3, 62280, Note_on_c, 0, 48, 127
3, 62388, Note_off_c, 0, 48, 0
3, 62400, Note_on_c, 0, 57, 127
3, 62508, Note_off_c, 0, 57, 0
3, 62520, Note_on_c, 0, 48, 127
3, 62628, Note_off_c, 0, 48, 0
3, 62640, Note_on_c, 0, 53, 127
3, 62748, Note_off_c, 0, 53, 0
3, 62760, Note_on_c, 0, 48, 127
3, 62868, Note_off_c, 0, 48, 0
3, 62880, Note_on_c, 0, 46, 127
3, 62988, Note_off_c, 0, 46, 0
3, 63000, Note_on_c, 0, 49, 127
3, 63108, Note_off_c, 0, 49, 0
3, 63120, Note_on_c, 0, 53, 127
3, 63228, Note_off_c, 0, 53, 0
3, 63240, Note_on_c, 0, 49, 127
3, 63348, Note_off_c, 0, 49, 0
3, 63360, Note_on_c, 0, 58, 127
3, 63468, Note_off_c, 0, 58, 0
3, 63480, Note_on_c, 0, 49, 127
3, 63588, Note_off_c, 0, 49, 0
3, 63600, Note_on_c, 0, 53, 127
3, 63708, Note_off_c, 0, 53, 0
3, 63720, Note_on_c, 0, 49, 127
3, 63828, Note_off_c, 0, 49, 0
3, 63840, Note_on_c, 0, 46, 127
3, 63948, Note_off_c, 0, 46, 0
3, 63960, Note_on_c, 0, 49, 127
3, 64068, Note_off_c, 0, 49, 0
3, 64080, Note_on_c, 0, 53, 127
3, 64188, Note_off_c, 0, 53, 0
3, 64200, Note_on_c, 0, 49, 127
3, 64308, Note_off_c, 0, 49, 0
3, 64320, Note_on_c, 0, 58, 127
3, 64428, Note_off_c, 0, 58, 0
3, 64440, Note_on_c, 0, 49, 127
3, 64548, Note_off_c, 0, 49, 0
3, 64560, Note_on_c, 0, 53, 127
3, 64668, Note_off_c, 0, 53, 0
3, 64680, Note_on_c, 0, 49, 127
3, 64788, Note_off_c, 0, 49, 0
3, 64800, Note_on_c, 0, 42, 127
3, 64908, Note_off_c, 0, 42, 0
3, 64920, Note_on_c, 0, 49, 127
3, 65028, Note_off_c, 0, 49, 0
3, 65040, Note_on_c, 0, 54, 127
3, 65148, Note_off_c, 0, 54, 0
3, 65160, Note_on_c, 0, 49, 127
3, 65268, Note_off_c, 0, 49, 0
3, 65280, Note_on_c, 0, 58, 127
3, 65388, Note_off_c, 0, 58, 0
3, 65400, Note_on_c, 0, 49, 127
3, 65508, Note_off_c, 0, 49, 0
3, 65520, Note_on_c, 0, 54, 127
3, 65628, Note_off_c, 0, 54, 0
3, 65640, Note_on_c, 0, 49, 127
3, 65748, Note_off_c, 0, 49, 0
3, 65760, Note_on_c, 0, 42, 127
3, 65868, Note_off_c, 0, 42, 0
3, 65880, Note_on_c, 0, 49, 127
3, 65988, Note_off_c, 0, 49, 0
3, 66000, Note_on_c, 0, 54, 127
3, 66108, Note_off_c, 0, 54, 0
3, 66120, Note_on_c, 0, 49, 127
3, 66228, Note_off_c, 0, 49, 0
3, 66240, Note_on_c, 0, 58, 127
3, 66348, Note_off_c, 0, 58, 0
3, 66360, Note_on_c, 0, 49, 127
3, 66468, Note_off_c, 0, 49, 0
3, 66480, Note_on_c, 0, 54, 127
3, 66588, Note_off_c, 0, 54, 0
3, 66600, Note_on_c, 0, 49, 127
3, 66708, Note_off_c, 0, 49, 0
3, 66720, Note_on_c, 0, 44, 127
3, 66828, Note_off_c, 0, 44, 0
3, 66840, Note_on_c, 0, 51, 127
3, 66948, Note_off_c, 0, 51, 0
3, 66960, Note_on_c, 0, 56, 127
3, 67068, Note_off_c, 0, 56, 0
3, 67080, Note_on_c, 0, 51, 127
3, 67188, Note_off_c, 0, 51, 0
3, 67200, Note_on_c, 0, 60, 127
3, 67308, Note_off_c, 0, 60, 0
3, 67320, Note_on_c, 0, 51, 127
3, 67428, Note_off_c, 0, 51, 0
3, 67440, Note_on_c, 0, 56, 127
3, 67548, Note_off_c, 0, 56, 0
3, 67560, Note_on_c, 0, 51, 127
3, 67668, Note_off_c, 0, 51, 0
3, 67680, Note_on_c, 0, 42, 127
3, 67788, Note_off_c, 0, 42, 0
3, 67800, Note_on_c, 0, 49, 127
3, 67908, Note_off_c, 0, 49, 0
3, 67920, Note_on_c, 0, 54, 127
3, 68028, Note_off_c, 0, 54, 0
3, 68040, Note_on_c, 0, 49, 127
3, 68148, Note_off_c, 0, 49, 0
3, 68160, Note_on_c, 0, 58, 127
3, 68268, Note_off_c, 0, 58, 0
3, 68280, Note_on_c, 0, 49, 127
3, 68388, Note_off_c, 0, 49, 0
3, 68400, Note_on_c, 0, 54, 127
3, 68508, Note_off_c, 0, 54, 0
3, 68520, Note_on_c, 0, 49, 127
3, 68628, Note_off_c, 0, 49, 0
3, 68640, Note_on_c, 0, 41, 127
3, 68748, Note_off_c, 0, 41, 0
3, 68760, Note_on_c, 0, 48, 127
3, 68868, Note_off_c, 0, 48, 0
3, 68880, Note_on_c, 0, 53, 127
3, 68988, Note_off_c, 0, 53, 0
3, 69000, Note_on_c, 0, 48, 127
3, 69108, Note_off_c, 0, 48, 0
3, 69120, Note_on_c, 0, 57, 127
3, 69228, Note_off_c, 0, 57, 0
3, 69240, Note_on_c, 0, 48, 127
3, 69348, Note_off_c, 0, 48, 0
3, 69360, Note_on_c, 0, 53, 127
3, 69468, Note_off_c, 0, 53, 0
3, 69480, Note_on_c, 0, 48, 127
3, 69588, Note_off_c, 0, 48, 0
3, 69600, Note_on_c, 0, 41, 127
3, 69708, Note_off_c, 0, 41, 0
3, 69720, Note_on_c, 0, 48, 127
3, 69828, Note_off_c, 0, 48, 0
3, 69840, Note_on_c, 0, 53, 127
3, 69948, Note_off_c, 0, 53, 0
3, 69960, Note_on_c, 0, 48, 127
3, 70068, Note_off_c, 0, 48, 0
3, 70080, Note_on_c, 0, 57, 127
3, 70188, Note_off_c, 0, 57, 0
3, 70200, Note_on_c, 0, 48, 127
3, 70308, Note_off_c, 0, 48, 0
3, 70320, Note_on_c, 0, 53, 127
3, 70428, Note_off_c, 0, 53, 0
3, 70440, Note_on_c, 0, 48, 127
3, 70548, Note_off_c, 0, 48, 0
3, 70560, Note_on_c, 0, 46, 127
3, 70668, Note_off_c, 0, 46, 0
3, 70680, Note_on_c, 0, 53, 127
3, 70788, Note_off_c, 0, 53, 0
3, 70800, Note_on_c, 0, 58, 127
3, 70908, Note_off_c, 0, 58, 0
3, 70920, Note_on_c, 0, 53, 127
3, 71028, Note_off_c, 0, 53, 0
3, 71040, Note_on_c, 0, 61, 127
3, 71148, Note_off_c, 0, 61, 0
3, 71160, Note_on_c, 0, 53, 127
3, 71268, Note_off_c, 0, 53, 0
3, 71280, Note_on_c, 0, 58, 127
3, 71388, Note_off_c, 0, 58, 0
3, 71400, Note_on_c, 0, 53, 127
3, 71508, Note_off_c, 0, 53, 0
3, 71520, Note_on_c, 0, 46, 127
3, 71628, Note_off_c, 0, 46, 0
3, 71640, Note_on_c, 0, 53, 127
3, 71748, Note_off_c, 0, 53, 0
3, 71760, Note_on_c, 0, 58, 127
3, 71868, Note_off_c, 0, 58, 0
3, 71880, Note_on_c, 0, 53, 127
3, 71988, Note_off_c, 0, 53, 0
3, 72000, Note_on_c, 0, 61, 127
3, 72108, Note_off_c, 0, 61, 0
3, 72120, Note_on_c, 0, 53, 127
3, 72228, Note_off_c, 0, 53, 0
3, 72240, Note_on_c, 0, 58, 127
3, 72348, Note_off_c, 0, 58, 0
3, 72360, Note_on_c, 0, 53, 127
3, 72468, Note_off_c, 0, 53, 0
3, 72480, Note_on_c, 0, 42, 127
3, 72588, Note_off_c, 0, 42, 0
3, 72600, Note_on_c, 0, 49, 127
3, 72708, Note_off_c, 0, 49, 0
3, 72720, Note_on_c, 0, 54, 127
3, 72828, Note_off_c, 0, 54, 0
3, 72840, Note_on_c, 0, 49, 127
3, 72948, Note_off_c, 0, 49, 0
3, 72960, Note_on_c, 0, 58, 127
3, 73068, Note_off_c, 0, 58, 0
3, 73080, Note_on_c, 0, 49, 127
3, 73188, Note_off_c, 0, 49, 0
3, 73200, Note_on_c, 0, 54, 127
3, 73308, Note_off_c, 0, 54, 0
3, 73320, Note_on_c, 0, 49, 127
3, 73428, Note_off_c, 0, 49, 0
3, 73440, Note_on_c, 0, 42, 127
3, 73548, Note_off_c, 0, 42, 0
3, 73560, Note_on_c, 0, 49, 127
3, 73668, Note_off_c, 0, 49, 0
3, 73680, Note_on_c, 0, 54, 127
3, 73788, Note_off_c, 0, 54, 0
3, 73800, Note_on_c, 0, 49, 127
3, 73908, Note_off_c, 0, 49, 0
3, 73920, Note_on_c, 0, 58, 127
3, 74028, Note_off_c, 0, 58, 0
3, 74040, Note_on_c, 0, 49, 127
3, 74148, Note_off_c, 0, 49, 0
3, 74160, Note_on_c, 0, 54, 127
3, 74268, Note_off_c, 0, 54, 0
3, 74280, Note_on_c, 0, 49, 127
3, 74388, Note_off_c, 0, 49, 0
3, 74400, Note_on_c, 0, 44, 127
3, 74508, Note_off_c, 0, 44, 0
3, 74520, Note_on_c, 0, 51, 127
3, 74628, Note_off_c, 0, 51, 0
3, 74640, Note_on_c, 0, 56, 127
3, 74748, Note_off_c, 0, 56, 0
3, 74760, Note_on_c, 0, 51, 127
3, 74868, Note_off_c, 0, 51, 0
3, 74880, Note_on_c, 0, 60, 127
3, 74988, Note_off_c, 0, 60, 0
3, 75000, Note_on_c, 0, 51, 127
3, 75108, Note_off_c, 0, 51, 0
3, 75120, Note_on_c, 0, 56, 127
3, 75228, Note_off_c, 0, 56, 0
3, 75240, Note_on_c, 0, 51, 127
3, 75348, Note_off_c, 0, 51, 0
3, 75360, Note_on_c, 0, 42, 127
3, 75468, Note_off_c, 0, 42, 0
3, 75480, Note_on_c, 0, 49, 127
3, 75588, Note_off_c, 0, 49, 0
3, 75600, Note_on_c, 0, 54, 127
3, 75708, Note_off_c, 0, 54, 0
3, 75720, Note_on_c, 0, 49, 127
3, 75828, Note_off_c, 0, 49, 0
3, 75840, Note_on_c, 0, 58, 127
3, 75948, Note_off_c, 0, 58, 0
3, 75960, Note_on_c, 0, 49, 127
3, 76068, Note_off_c, 0, 49, 0
3, 76080, Note_on_c, 0, 54, 127
3, 76188, Note_off_c, 0, 54, 0
3, 76200, Note_on_c, 0, 49, 127
3, 76308, Note_off_c, 0, 49, 0
3, 76320, Note_on_c, 0, 41, 127
3, 76428, Note_off_c, 0, 41, 0
3, 76440, Note_on_c, 0, 48, 127
3, 76548, Note_off_c, 0, 48, 0
3, 76560, Note_on_c, 0, 53, 127
3, 76668, Note_off_c, 0, 53, 0
3, 76680, Note_on_c, 0, 48, 127
3, 76788, Note_off_c, 0, 48, 0
3, 76800, Note_on_c, 0, 57, 127
3, 76908, Note_off_c, 0, 57, 0
3, 76920, Note_on_c, 0, 48, 127
3, 77028, Note_off_c, 0, 48, 0
3, 77040, Note_on_c, 0, 53, 127
3, 77148, Note_off_c, 0, 53, 0
3, 77160, Note_on_c, 0, 48, 127
3, 77268, Note_off_c, 0, 48, 0
3, 77280, Note_on_c, 0, 41, 127
3, 77388, Note_off_c, 0, 41, 0
3, 77400, Note_on_c, 0, 48, 127
3, 77508, Note_off_c, 0, 48, 0
3, 77520, Note_on_c, 0, 53, 127
3, 77628, Note_off_c, 0, 53, 0
3, 77640, Note_on_c, 0, 57, 127
3, 77748, Note_off_c, 0, 57, 0
3, 77760, Note_on_c, 0, 60, 127
3, 77868, Note_off_c, 0, 60, 0
3, 77880, Note_on_c, 0, 65, 127
3, 77988, Note_off_c, 0, 65, 0
3, 78000, Note_on_c, 0, 69, 127
3, 78108, Note_off_c, 0, 69, 0
3, 78120, Note_on_c, 0, 72, 127
3, 78228, Note_off_c, 0, 72, 0
3, 78240, Note_on_c, 0, 53, 127
3, 78240, Note_on_c, 0, 41, 127
3, 79968, Note_off_c, 0, 53, 0
3, 79968, Note_off_c, 0, 41, 0
3, 80160, Note_on_c, 0, 49, 127
3, 80268, Note_off_c, 0, 49, 0
3, 80280, Note_on_c, 0, 56, 127
3, 80388, Note_off_c, 0, 56, 0
3, 80400, Note_on_c, 0, 61, 127
3, 80508, Note_off_c, 0, 61, 0
3, 80520, Note_on_c, 0, 56, 127
3, 80628, Note_off_c, 0, 56, 0
3, 80640, Note_on_c, 0, 64, 127
3, 81072, Note_off_c, 0, 64, 0
3, 81120, Note_on_c, 0, 49, 127
3, 81228, Note_off_c, 0, 49, 0
3, 81240, Note_on_c, 0, 56, 127
3, 81348, Note_off_c, 0, 56, 0
3, 81360, Note_on_c, 0, 61, 127
3, 81468, Note_off_c, 0, 61, 0
3, 81480, Note_on_c, 0, 56, 127
3, 81588, Note_off_c, 0, 56, 0
3, 81600, Note_on_c, 0, 64, 127
3, 82032, Note_off_c, 0, 64, 0
3, 82080, Note_on_c, 0, 45, 127
3, 82188, Note_off_c, 0, 45, 0
3, 82200, Note_on_c, 0, 52, 127
3, 82308, Note_off_c, 0, 52, 0
3, 82320, Note_on_c, 0, 57, 127
3, 82428, Note_off_c, 0, 57, 0
3, 82440, Note_on_c, 0, 52, 127
3, 82548, Note_off_c, 0, 52, 0
3, 82560, Note_on_c, 0, 61, 127
3, 82992, Note_off_c, 0, 61, 0
3, 83040, Note_on_c, 0, 45, 127
3, 83148, Note_off_c, 0, 45, 0
3, 83160, Note_on_c, 0, 52, 127
3, 83268, Note_off_c, 0, 52, 0
3, 83280, Note_on_c, 0, 57, 127
3, 83388, Note_off_c, 0, 57, 0
3, 83400, Note_on_c, 0, 52, 127
3, 83508, Note_off_c, 0, 52, 0
3, 83520, Note_on_c, 0, 61, 127
3, 83952, Note_off_c, 0, 61, 0
3, 84000, Note_on_c, 0, 47, 127
3, 84108, Note_off_c, 0, 47, 0
3, 84120, Note_on_c, 0, 54, 127
3, 84228, Note_off_c, 0, 54, 0
3, 84240, Note_on_c, 0, 59, 127
3, 84348, Note_off_c, 0, 59, 0
3, 84360, Note_on_c, 0, 54, 127
3, 84468, Note_off_c, 0, 54, 0
3, 84480, Note_on_c, 0, 63, 127
3, 84912, Note_off_c, 0, 63, 0
3, 84960, Note_on_c, 0, 45, 127
3, 85068, Note_off_c, 0, 45, 0
3, 85080, Note_on_c, 0, 52, 127
3, 85188, Note_off_c, 0, 52, 0
3, 85200, Note_on_c, 0, 57, 127
3, 85308, Note_off_c, 0, 57, 0
3, 85320, Note_on_c, 0, 52, 127
3, 85428, Note_off_c, 0, 52, 0
3, 85440, Note_on_c, 0, 61, 127
3, 85872, Note_off_c, 0, 61, 0
3, 85920, Note_on_c, 0, 44, 127
3, 86028, Note_off_c, 0, 44, 0
3, 86040, Note_on_c, 0, 51, 127
3, 86148, Note_off_c, 0, 51, 0
3, 86160, Note_on_c, 0, 56, 127
3, 86268, Note_off_c, 0, 56, 0
3, 86280, Note_on_c, 0, 51, 127
3, 86388, Note_off_c, 0, 51, 0
3, 86400, Note_on_c, 0, 60, 127
3, 86508, Note_off_c, 0, 60, 0
3, 86520, Note_on_c, 0, 56, 127
3, 86628, Note_off_c, 0, 56, 0
3, 86640, Note_on_c, 0, 60, 127
3, 86748, Note_off_c, 0, 60, 0
3, 86760, Note_on_c, 0, 63, 127
3, 86868, Note_off_c, 0, 63, 0
3, 86880, Note_on_c, 0, 44, 127
3, 86880, Note_on_c, 0, 48, 127
3, 86880, Note_on_c, 0, 51, 127
3, 86880, Note_on_c, 0, 56, 127
3, 87744, Note_off_c, 0, 44, 0
3, 87744, Note_off_c, 0, 48, 0
3, 87744, Note_off_c, 0, 51, 0
3, 87744, Note_off_c, 0, 56, 0
3, 87840, Note_on_c, 0, 49, 127
3, 87948, Note_off_c, 0, 49, 0
3, 87960, Note_on_c, 0, 56, 127
3, 88068, Note_off_c, 0, 56, 0
3, 88080, Note_on_c, 0, 61, 127
3, 88188, Note_off_c, 0, 61, 0
3, 88200, Note_on_c, 0, 56, 127
3, 88308, Note_off_c, 0, 56, 0
3, 88320, Note_on_c, 0, 64, 127
3, 88536, Note_off_c, 0, 64, 0
3, 88560, Note_on_c, 0, 61, 127
3, 88776, Note_off_c, 0, 61, 0
3, 88800, Note_on_c, 0, 49, 127
3, 88908, Note_off_c, 0, 49, 0
3, 88920, Note_on_c, 0, 56, 127
3, 89028, Note_off_c, 0, 56, 0
3, 89040, Note_on_c, 0, 61, 127
3, 89148, Note_off_c, 0, 61, 0
3, 89160, Note_on_c, 0, 56, 127
3, 89268, Note_off_c, 0, 56, 0
3, 89280, Note_on_c, 0, 64, 127
3, 89496, Note_off_c, 0, 64, 0
3, 89520, Note_on_c, 0, 61, 127
3, 89736, Note_off_c, 0, 61, 0
3, 89760, Note_on_c, 0, 45, 127
3, 89868, Note_off_c, 0, 45, 0
3, 89880, Note_on_c, 0, 52, 127
3, 89988, Note_off_c, 0, 52, 0
3, 90000, Note_on_c, 0, 57, 127
3, 90108, Note_off_c, 0, 57, 0
3, 90120, Note_on_c, 0, 52, 127
3, 90228, Note_off_c, 0, 52, 0
3, 90240, Note_on_c, 0, 61, 127
3, 90456, Note_off_c, 0, 61, 0
3, 90480, Note_on_c, 0, 57, 127
3, 90696, Note_off_c, 0, 57, 0
3, 90720, Note_on_c, 0, 45, 127
3, 90828, Note_off_c, 0, 45, 0
3, 90840, Note_on_c, 0, 52, 127
3, 90948, Note_off_c, 0, 52, 0
3, 90960, Note_on_c, 0, 57, 127
3, 91068, Note_off_c, 0, 57, 0
3, 91080, Note_on_c, 0, 52, 127
3, 91188, Note_off_c, 0, 52, 0
3, 91200, Note_on_c, 0, 61, 127
3, 91416, Note_off_c, 0, 61, 0
3, 91440, Note_on_c, 0, 57, 127
3, 91656, Note_off_c, 0, 57, 0
3, 91680, Note_on_c, 0, 47, 127
3, 91788, Note_off_c, 0, 47, 0
3, 91800, Note_on_c, 0, 54, 127
3, 91908, Note_off_c, 0, 54, 0
3, 91920, Note_on_c, 0, 59, 127
3, 92028, Note_off_c, 0, 59, 0
3, 92040, Note_on_c, 0, 54, 127
3, 92148, Note_off_c, 0, 54, 0
3, 92160, Note_on_c, 0, 63, 127
3, 92376, Note_off_c, 0, 63, 0
3, 92400, Note_on_c, 0, 59, 127
3, 92616, Note_off_c, 0, 59, 0
3, 92640, Note_on_c, 0, 47, 127
3, 92748, Note_off_c, 0, 47, 0
3, 92760, Note_on_c, 0, 54, 127
3, 92868, Note_off_c, 0, 54, 0
3, 92880, Note_on_c, 0, 59, 127
3, 92988, Note_off_c, 0, 59, 0
3, 93000, Note_on_c, 0, 54, 127
3, 93108, Note_off_c, 0, 54, 0
3, 93120, Note_on_c, 0, 63, 127
3, 93336, Note_off_c, 0, 63, 0
3, 93360, Note_on_c, 0, 59, 127
3, 93576, Note_off_c, 0, 59, 0
3, 93600, Note_on_c, 0, 49, 127
3, 93708, Note_off_c, 0, 49, 0
3, 93720, Note_on_c, 0, 56, 127
3, 93828, Note_off_c, 0, 56, 0
3, 93840, Note_on_c, 0, 61, 127
3, 93948, Note_off_c, 0, 61, 0
3, 93960, Note_on_c, 0, 64, 127
3, 94068, Note_off_c, 0, 64, 0
3, 94080, Note_on_c, 0, 56, 127
3, 94188, Note_off_c, 0, 56, 0
3, 94200, Note_on_c, 0, 61, 127
3, 94308, Note_off_c, 0, 61, 0
3, 94320, Note_on_c, 0, 64, 127
3, 94428, Note_off_c, 0, 64, 0
3, 94440, Note_on_c, 0, 56, 127
3, 94548, Note_off_c, 0, 56, 0
3, 94560, Note_on_c, 0, 44, 127
3, 94668, Note_off_c, 0, 44, 0
3, 94680, Note_on_c, 0, 51, 127
3, 94788, Note_off_c, 0, 51, 0
3, 94800, Note_on_c, 0, 56, 127
3, 94908, Note_off_c, 0, 56, 0
3, 94920, Note_on_c, 0, 51, 127
3, 95028, Note_off_c, 0, 51, 0
3, 95040, Note_on_c, 0, 60, 127
3, 95148, Note_off_c, 0, 60, 0
3, 95160, Note_on_c, 0, 56, 127
3, 95268, Note_off_c, 0, 56, 0
3, 95280, Note_on_c, 0, 51, 127
3, 95496, Note_off_c, 0, 51, 0
3, 95520, Note_on_c, 0, 49, 127
3, 95628, Note_off_c, 0, 49, 0
3, 95640, Note_on_c, 0, 56, 127
3, 95748, Note_off_c, 0, 56, 0
3, 95760, Note_on_c, 0, 61, 127
3, 95868, Note_off_c, 0, 61, 0
3, 95880, Note_on_c, 0, 56, 127
3, 95988, Note_off_c, 0, 56, 0
3, 96000, Note_on_c, 0, 64, 127
3, 96216, Note_off_c, 0, 64, 0
3, 96240, Note_on_c, 0, 61, 127
3, 96456, Note_off_c, 0, 61, 0
3, 96480, Note_on_c, 0, 49, 127
3, 96588, Note_off_c, 0, 49, 0
3, 96600, Note_on_c, 0, 56, 127
3, 96708, Note_off_c, 0, 56, 0
3, 96720, Note_on_c, 0, 61, 127
3, 96828, Note_off_c, 0, 61, 0
3, 96840, Note_on_c, 0, 56, 127
3, 96948, Note_off_c, 0, 56, 0
3, 96960, Note_on_c, 0, 64, 127
3, 97068, Note_off_c, 0, 64, 0
3, 97080, Note_on_c, 0, 61, 127
3, 97440, Note_off_c, 0, 61, 0
3, 97440, Note_on_c, 0, 45, 127
3, 97548, Note_off_c, 0, 45, 0
3, 97560, Note_on_c, 0, 52, 127
3, 97668, Note_off_c, 0, 52, 0
3, 97680, Note_on_c, 0, 57, 127
3, 97788, Note_off_c, 0, 57, 0
3, 97800, Note_on_c, 0, 52, 127
3, 97908, Note_off_c, 0, 52, 0
3, 97920, Note_on_c, 0, 61, 127
3, 98136, Note_off_c, 0, 61, 0
3, 98160, Note_on_c, 0, 57, 127
3, 98376, Note_off_c, 0, 57, 0
3, 98400, Note_on_c, 0, 45, 127
3, 98508, Note_off_c, 0, 45, 0
3, 98520, Note_on_c, 0, 52, 127
3, 98628, Note_off_c, 0, 52, 0
3, 98640, Note_on_c, 0, 57, 127
3, 98748, Note_off_c, 0, 57, 0
3, 98760, Note_on_c, 0, 52, 127
3, 98868, Note_off_c, 0, 52, 0
3, 98880, Note_on_c, 0, 61, 127
3, 99096, Note_off_c, 0, 61, 0
3, 99120, Note_on_c, 0, 57, 127
3, 99336, Note_off_c, 0, 57, 0
3, 99360, Note_on_c, 0, 47, 127
3, 99468, Note_off_c, 0, 47, 0
3, 99480, Note_on_c, 0, 54, 127
3, 99588, Note_off_c, 0, 54, 0
3, 99600, Note_on_c, 0, 59, 127
3, 99708, Note_off_c, 0, 59, 0
3, 99720, Note_on_c, 0, 54, 127
3, 99828, Note_off_c, 0, 54, 0
3, 99840, Note_on_c, 0, 63, 127
3, 100056, Note_off_c, 0, 63, 0
3, 100080, Note_on_c, 0, 59, 127
3, 100296, Note_off_c, 0, 59, 0
3, 100320, Note_on_c, 0, 47, 127
3, 100428, Note_off_c, 0, 47, 0
3, 100440, Note_on_c, 0, 54, 127
3, 100548, Note_off_c, 0, 54, 0
3, 100560, Note_on_c, 0, 59, 127
3, 100668, Note_off_c, 0, 59, 0
3, 100680, Note_on_c, 0, 54, 127
3, 100788, Note_off_c, 0, 54, 0
3, 100800, Note_on_c, 0, 47, 127
3, 101232, Note_off_c, 0, 47, 0
3, 101280, Note_on_c, 0, 37, 127
3, 101388, Note_off_c, 0, 37, 0
3, 101400, Note_on_c, 0, 44, 127
3, 101508, Note_off_c, 0, 44, 0
3, 101520, Note_on_c, 0, 49, 127
3, 101628, Note_off_c, 0, 49, 0
3, 101640, Note_on_c, 0, 44, 127
3, 101748, Note_off_c, 0, 44, 0
3, 101760, Note_on_c, 0, 49, 127
3, 101868, Note_off_c, 0, 49, 0
3, 101880, Note_on_c, 0, 52, 127
3, 101988, Note_off_c, 0, 52, 0
3, 102240, Note_on_c, 0, 37, 127
3, 102240, Note_on_c, 0, 44, 127
3, 102240, Note_on_c, 0, 49, 127
3, 103104, Note_off_c, 0, 37, 0
3, 103104, Note_off_c, 0, 44, 0
3, 103104, Note_off_c, 0, 49, 0
3, 108960, Note_on_c, 0, 49, 127
3, 109068, Note_off_c, 0, 49, 0
3, 109080, Note_on_c, 0, 56, 127
3, 109188, Note_off_c, 0, 56, 0
3, 109200, Note_on_c, 0, 61, 127
3, 109308, Note_off_c, 0, 61, 0
3, 109320, Note_on_c, 0, 63, 127
3, 109428, Note_off_c, 0, 63, 0
3, 109440, Note_on_c, 0, 64, 127
3, 109548, Note_off_c, 0, 64, 0
3, 109560, Note_on_c, 0, 56, 127
3, 109668, Note_off_c, 0, 56, 0
3, 109680, Note_on_c, 0, 61, 127
3, 109788, Note_off_c, 0, 61, 0
3, 109800, Note_on_c, 0, 56, 127
3, 109908, Note_off_c, 0, 56, 0
3, 109920, Note_on_c, 0, 47, 127
3, 110028, Note_off_c, 0, 47, 0
3, 110040, Note_on_c, 0, 56, 127
3, 110148, Note_off_c, 0, 56, 0
3, 110160, Note_on_c, 0, 59, 127
3, 110268, Note_off_c, 0, 59, 0
3, 110280, Note_on_c, 0, 58, 127
3, 110616, Note_off_c, 0, 58, 0
3, 110640, Note_on_c, 0, 54, 127
3, 110748, Note_off_c, 0, 54, 0
3, 110760, Note_on_c, 0, 58, 127
3, 110868, Note_off_c, 0, 58, 0
3, 110880, Note_on_c, 0, 45, 127
3, 110988, Note_off_c, 0, 45, 0
3, 111000, Note_on_c, 0, 52, 127
3, 111108, Note_off_c, 0, 52, 0
3, 111120, Note_on_c, 0, 57, 127
3, 111228, Note_off_c, 0, 57, 0
3, 111240, Note_on_c, 0, 52, 127
3, 111468, Note_off_c, 0, 52, 0
3, 111480, Note_on_c, 0, 52, 127
3, 111588, Note_off_c, 0, 52, 0
3, 111600, Note_on_c, 0, 57, 127
3, 111708, Note_off_c, 0, 57, 0
3, 111720, Note_on_c, 0, 52, 127
3, 111828, Note_off_c, 0, 52, 0
3, 111840, Note_on_c, 0, 47, 127
3, 111948, Note_off_c, 0, 47, 0
3, 111960, Note_on_c, 0, 54, 127
3, 112068, Note_off_c, 0, 54, 0
3, 112080, Note_on_c, 0, 59, 127
3, 112188, Note_off_c, 0, 59, 0
3, 112200, Note_on_c, 0, 54, 127
3, 112308, Note_off_c, 0, 54, 0
3, 112320, Note_on_c, 0, 63, 127
3, 112428, Note_off_c, 0, 63, 0
3, 112440, Note_on_c, 0, 54, 127
3, 112548, Note_off_c, 0, 54, 0
3, 112560, Note_on_c, 0, 59, 127
3, 112668, Note_off_c, 0, 59, 0
3, 112680, Note_on_c, 0, 54, 127
3, 112788, Note_off_c, 0, 54, 0
3, 112800, Note_on_c, 0, 44, 127
3, 112908, Note_off_c, 0, 44, 0
3, 112920, Note_on_c, 0, 51, 127
3, 113028, Note_off_c, 0, 51, 0
3, 113040, Note_on_c, 0, 56, 127
3, 113148, Note_off_c, 0, 56, 0
3, 113160, Note_on_c, 0, 51, 127
3, 113388, Note_off_c, 0, 51, 0
3, 113400, Note_on_c, 0, 51, 127
3, 113508, Note_off_c, 0, 51, 0
3, 113520, Note_on_c, 0, 56, 127
3, 113628, Note_off_c, 0, 56, 0
3, 113640, Note_on_c, 0, 51, 127
3, 113748, Note_off_c, 0, 51, 0
3, 113760, Note_on_c, 0, 49, 127
3, 113868, Note_off_c, 0, 49, 0
3, 113880, Note_on_c, 0, 56, 127
3, 113988, Note_off_c, 0, 56, 0
3, 114000, Note_on_c, 0, 61, 127
3, 114108, Note_off_c, 0, 61, 0
3, 114120, Note_on_c, 0, 56, 127
3, 114348, Note_off_c, 0, 56, 0
3, 114360, Note_on_c, 0, 56, 127
3, 114468, Note_off_c, 0, 56, 0
3, 114480, Note_on_c, 0, 61, 127
3, 114696, Note_off_c, 0, 61, 0
3, 114720, Note_on_c, 0, 42, 127
3, 114828, Note_off_c, 0, 42, 0
3, 114840, Note_on_c, 0, 49, 127
3, 114948, Note_off_c, 0, 49, 0
3, 114960, Note_on_c, 0, 54, 127
3, 115068, Note_off_c, 0, 54, 0
3, 115080, Note_on_c, 0, 49, 127
3, 115308, Note_off_c, 0, 49, 0
3, 115320, Note_on_c, 0, 49, 127
3, 115428, Note_off_c, 0, 49, 0
3, 115440, Note_on_c, 0, 54, 127
3, 115656, Note_off_c, 0, 54, 0
3, 115680, Note_on_c, 0, 43, 127
3, 115788, Note_off_c, 0, 43, 0
3, 115800, Note_on_c, 0, 51, 127
3, 115908, Note_off_c, 0, 51, 0
3, 115920, Note_on_c, 0, 55, 127
3, 116028, Note_off_c, 0, 55, 0
3, 116040, Note_on_c, 0, 51, 127
3, 116268, Note_off_c, 0, 51, 0
3, 116280, Note_on_c, 0, 51, 127
3, 116388, Note_off_c, 0, 51, 0
3, 116400, Note_on_c, 0, 55, 127
3, 116508, Note_off_c, 0, 55, 0
3, 116520, Note_on_c, 0, 51, 127
3, 116628, Note_off_c, 0, 51, 0
3, 116640, Note_on_c, 0, 44, 127
3, 116748, Note_off_c, 0, 44, 0
3, 116760, Note_on_c, 0, 51, 127
3, 116868, Note_off_c, 0, 51, 0
3, 116880, Note_on_c, 0, 56, 127
3, 116988, Note_off_c, 0, 56, 0
3, 117000, Note_on_c, 0, 51, 127
3, 117228, Note_off_c, 0, 51, 0
3, 117240, Note_on_c, 0, 51, 127
3, 117348, Note_off_c, 0, 51, 0
3, 117360, Note_on_c, 0, 56, 127
3, 117468, Note_off_c, 0, 56, 0
3, 117480, Note_on_c, 0, 51, 127
3, 117588, Note_off_c, 0, 51, 0
3, 117600, Note_on_c, 0, 44, 127
3, 117708, Note_off_c, 0, 44, 0
3, 117720, Note_on_c, 0, 51, 127
3, 117828, Note_off_c, 0, 51, 0
3, 117840, Note_on_c, 0, 56, 127
3, 117948, Note_off_c, 0, 56, 0
3, 117960, Note_on_c, 0, 51, 127
3, 118068, Note_off_c, 0, 51, 0
3, 118080, Note_on_c, 0, 44, 127
3, 118512, Note_off_c, 0, 44, 0
3, 118560, Note_on_c, 0, 41, 127
3, 118668, Note_off_c, 0, 41, 0
3, 118680, Note_on_c, 0, 48, 127
3, 118788, Note_off_c, 0, 48, 0
3, 118800, Note_on_c, 0, 53, 127
3, 118908, Note_off_c, 0, 53, 0
3, 118920, Note_on_c, 0, 57, 127
3, 119028, Note_off_c, 0, 57, 0
3, 119520, Note_on_c, 0, 53, 127
3, 119520, Note_on_c, 0, 41, 127
3, 122208, Note_off_c, 0, 53, 0
3, 122208, Note_off_c, 0, 41, 0
3, 122410, Note_on_c, 0, 46, 127
3, 124080, Note_on_c, 0, 46, 127
3, 124138, Note_off_c, 0, 46, 0
3, 124188, Note_off_c, 0, 46, 0
3, 124200, Note_on_c, 0, 44, 127
3, 124308, Note_off_c, 0, 44, 0
3, 124320, Note_on_c, 0, 42, 127
3, 126048, Note_off_c, 0, 42, 0
3, 126240, Note_on_c, 0, 44, 127
3, 127104, Note_off_c, 0, 44, 0
3, 127200, Note_on_c, 0, 42, 127
3, 128064, Note_off_c, 0, 42, 0
3, 128160, Note_on_c, 0, 41, 127
3, 129024, Note_off_c, 0, 41, 0
3, 130200, Note_on_c, 0, 65, 127
3, 130308, Note_off_c, 0, 65, 0
3, 130320, Note_on_c, 0, 61, 127
3, 130428, Note_off_c, 0, 61, 0
3, 130440, Note_on_c, 0, 60, 127
3, 130548, Note_off_c, 0, 60, 0
3, 130560, Note_on_c, 0, 58, 127
3, 130668, Note_off_c, 0, 58, 0
3, 130680, Note_on_c, 0, 65, 127
3, 130788, Note_off_c, 0, 65, 0
3, 130800, Note_on_c, 0, 72, 127
3, 130920, Note_on_c, 0, 65, 127
3, 131028, Note_off_c, 0, 65, 0
3, 131038, Note_off_c, 0, 72, 0
3, 131280, Note_on_c, 0, 61, 127
3, 131388, Note_off_c, 0, 61, 0
3, 131400, Note_on_c, 0, 60, 127
3, 131508, Note_off_c, 0, 60, 0
3, 131520, Note_on_c, 0, 58, 127
3, 131736, Note_off_c, 0, 58, 0
3, 131760, Note_on_c, 0, 61, 127
3, 131868, Note_off_c, 0, 61, 0
3, 131880, Note_on_c, 0, 65, 127
3, 131988, Note_off_c, 0, 65, 0
3, 132480, Note_on_c, 0, 54, 127
3, 132912, Note_off_c, 0, 54, 0
3, 132960, Note_on_c, 0, 42, 127
3, 132960, Note_on_c, 0, 54, 127
3, 133284, Note_off_c, 0, 42, 0
3, 133320, Note_off_c, 0, 54, 0
3, 133320, Note_on_c, 0, 42, 127
3, 133320, Note_on_c, 0, 54, 127
3, 133656, Note_off_c, 0, 42, 0
3, 133656, Note_off_c, 0, 54, 0
3, 133680, Note_on_c, 0, 42, 127
3, 133680, Note_on_c, 0, 54, 127
3, 133896, Note_off_c, 0, 42, 0
3, 133896, Note_off_c, 0, 54, 0
3, 133920, Note_on_c, 0, 44, 127
3, 134028, Note_off_c, 0, 44, 0
3, 134040, Note_on_c, 0, 51, 127
3, 134148, Note_off_c, 0, 51, 0
3, 134160, Note_on_c, 0, 56, 127
3, 134268, Note_off_c, 0, 56, 0
3, 134280, Note_on_c, 0, 51, 127
3, 134388, Note_off_c, 0, 51, 0
3, 134400, Note_on_c, 0, 60, 127
3, 134508, Note_off_c, 0, 60, 0
3, 134520, Note_on_c, 0, 51, 127
3, 134628, Note_off_c, 0, 51, 0
3, 134640, Note_on_c, 0, 56, 127
3, 134748, Note_off_c, 0, 56, 0
3, 134760, Note_on_c, 0, 51, 127
3, 134868, Note_off_c, 0, 51, 0
3, 134880, Note_on_c, 0, 42, 127
3, 134988, Note_off_c, 0, 42, 0
3, 135000, Note_on_c, 0, 49, 127
3, 135108, Note_off_c, 0, 49, 0
3, 135120, Note_on_c, 0, 54, 127
3, 135228, Note_off_c, 0, 54, 0
3, 135240, Note_on_c, 0, 49, 127
3, 135348, Note_off_c, 0, 49, 0
3, 135360, Note_on_c, 0, 58, 127
3, 135468, Note_off_c, 0, 58, 0
3, 135480, Note_on_c, 0, 49, 127
3, 135588, Note_off_c, 0, 49, 0
3, 135600, Note_on_c, 0, 54, 127
3, 135708, Note_off_c, 0, 54, 0
3, 135720, Note_on_c, 0, 49, 127
3, 135828, Note_off_c, 0, 49, 0
3, 135840, Note_on_c, 0, 41, 127
3, 135948, Note_off_c, 0, 41, 0
3, 135960, Note_on_c, 0, 48, 127
3, 136068, Note_off_c, 0, 48, 0
3, 136080, Note_on_c, 0, 53, 127
3, 136188, Note_off_c, 0, 53, 0
3, 136200, Note_on_c, 0, 48, 127
3, 136308, Note_off_c, 0, 48, 0
3, 136320, Note_on_c, 0, 57, 127
3, 136428, Note_off_c, 0, 57, 0
3, 136440, Note_on_c, 0, 48, 127
3, 136548, Note_off_c, 0, 48, 0
3, 136560, Note_on_c, 0, 53, 127
3, 136668, Note_off_c, 0, 53, 0
3, 136680, Note_on_c, 0, 48, 127
3, 136788, Note_off_c, 0, 48, 0
3, 136800, Note_on_c, 0, 41, 127
3, 136908, Note_off_c, 0, 41, 0
3, 136920, Note_on_c, 0, 48, 127
3, 137028, Note_off_c, 0, 48, 0
3, 137040, Note_on_c, 0, 53, 127
3, 137148, Note_off_c, 0, 53, 0
3, 137160, Note_on_c, 0, 48, 127
3, 137268, Note_off_c, 0, 48, 0
3, 137280, Note_on_c, 0, 57, 127
3, 137388, Note_off_c, 0, 57, 0
3, 137400, Note_on_c, 0, 48, 127
3, 137508, Note_off_c, 0, 48, 0
3, 137520, Note_on_c, 0, 53, 127
3, 137736, Note_off_c, 0, 53, 0
3, 137760, Note_on_c, 0, 46, 127
3, 137868, Note_off_c, 0, 46, 0
3, 137880, Note_on_c, 0, 49, 127
3, 137988, Note_off_c, 0, 49, 0
3, 138000, Note_on_c, 0, 53, 127
3, 138108, Note_off_c, 0, 53, 0
3, 138120, Note_on_c, 0, 49, 127
3, 138228, Note_off_c, 0, 49, 0
3, 138240, Note_on_c, 0, 58, 127
3, 138348, Note_off_c, 0, 58, 0
3, 138360, Note_on_c, 0, 49, 127
3, 138468, Note_off_c, 0, 49, 0
3, 138480, Note_on_c, 0, 53, 127
3, 138588, Note_off_c, 0, 53, 0
3, 138600, Note_on_c, 0, 49, 127
3, 138708, Note_off_c, 0, 49, 0
3, 138720, Note_on_c, 0, 46, 127
3, 138828, Note_off_c, 0, 46, 0
3, 138840, Note_on_c, 0, 49, 127
3, 138948, Note_off_c, 0, 49, 0
3, 138960, Note_on_c, 0, 53, 127
3, 139068, Note_off_c, 0, 53, 0
3, 139080, Note_on_c, 0, 49, 127
3, 139188, Note_off_c, 0, 49, 0
3, 139200, Note_on_c, 0, 58, 127
3, 139308, Note_off_c, 0, 58, 0
3, 139320, Note_on_c, 0, 49, 127
3, 139428, Note_off_c, 0, 49, 0
3, 139440, Note_on_c, 0, 53, 127
3, 139548, Note_off_c, 0, 53, 0
3, 139560, Note_on_c, 0, 49, 127
3, 139668, Note_off_c, 0, 49, 0
3, 139680, Note_on_c, 0, 42, 127
3, 139788, Note_off_c, 0, 42, 0
3, 139800, Note_on_c, 0, 49, 127
3, 139908, Note_off_c, 0, 49, 0
3, 139920, Note_on_c, 0, 54, 127
3, 140028, Note_off_c, 0, 54, 0
3, 140040, Note_on_c, 0, 49, 127
3, 140148, Note_off_c, 0, 49, 0
3, 140160, Note_on_c, 0, 58, 127
3, 140268, Note_off_c, 0, 58, 0
3, 140280, Note_on_c, 0, 49, 127
3, 140388, Note_off_c, 0, 49, 0
3, 140400, Note_on_c, 0, 54, 127
3, 140508, Note_off_c, 0, 54, 0
3, 140520, Note_on_c, 0, 49, 127
3, 140628, Note_off_c, 0, 49, 0
3, 140640, Note_on_c, 0, 42, 127
3, 140748, Note_off_c, 0, 42, 0
3, 140760, Note_on_c, 0, 49, 127
3, 140868, Note_off_c, 0, 49, 0
3, 140880, Note_on_c, 0, 54, 127
3, 140988, Note_off_c, 0, 54, 0
3, 141000, Note_on_c, 0, 49, 127
3, 141108, Note_off_c, 0, 49, 0
3, 141120, Note_on_c, 0, 58, 127
3, 141228, Note_off_c, 0, 58, 0
3, 141240, Note_on_c, 0, 49, 127
3, 141348, Note_off_c, 0, 49, 0
3, 141360, Note_on_c, 0, 54, 127
3, 141468, Note_off_c, 0, 54, 0
3, 141480, Note_on_c, 0, 49, 127
3, 141588, Note_off_c, 0, 49, 0
3, 141600, Note_on_c, 0, 44, 127
3, 141708, Note_off_c, 0, 44, 0
3, 141720, Note_on_c, 0, 51, 127
3, 141828, Note_off_c, 0, 51, 0
3, 141840, Note_on_c, 0, 56, 127
3, 141948, Note_off_c, 0, 56, 0
3, 141960, Note_on_c, 0, 51, 127
3, 142068, Note_off_c, 0, 51, 0
3, 142080, Note_on_c, 0, 60, 127
3, 142188, Note_off_c, 0, 60, 0
3, 142200, Note_on_c, 0, 51, 127
3, 142308, Note_off_c, 0, 51, 0
3, 142320, Note_on_c, 0, 56, 127
3, 142428, Note_off_c, 0, 56, 0
3, 142440, Note_on_c, 0, 51, 127
3, 142548, Note_off_c, 0, 51, 0
3, 142560, Note_on_c, 0, 42, 127
3, 142668, Note_off_c, 0, 42, 0
3, 142680, Note_on_c, 0, 49, 127
3, 142788, Note_off_c, 0, 49, 0
3, 142800, Note_on_c, 0, 54, 127
3, 142908, Note_off_c, 0, 54, 0
3, 142920, Note_on_c, 0, 49, 127
3, 143028, Note_off_c, 0, 49, 0
3, 143040, Note_on_c, 0, 58, 127
3, 143148, Note_off_c, 0, 58, 0
3, 143160, Note_on_c, 0, 49, 127
3, 143268, Note_off_c, 0, 49, 0
3, 143280, Note_on_c, 0, 54, 127
3, 143388, Note_off_c, 0, 54, 0
3, 143400, Note_on_c, 0, 49, 127
3, 143508, Note_off_c, 0, 49, 0
3, 143520, Note_on_c, 0, 41, 127
3, 143628, Note_off_c, 0, 41, 0
3, 143640, Note_on_c, 0, 48, 127
3, 143748, Note_off_c, 0, 48, 0
3, 143760, Note_on_c, 0, 53, 127
3, 143868, Note_off_c, 0, 53, 0
3, 143880, Note_on_c, 0, 48, 127
3, 143988, Note_off_c, 0, 48, 0
3, 144000, Note_on_c, 0, 57, 127
3, 144108, Note_off_c, 0, 57, 0
3, 144120, Note_on_c, 0, 48, 127
3, 144228, Note_off_c, 0, 48, 0
3, 144240, Note_on_c, 0, 53, 127
3, 144348, Note_off_c, 0, 53, 0
3, 144360, Note_on_c, 0, 48, 127
3, 144468, Note_off_c, 0, 48, 0
3, 144480, Note_on_c, 0, 41, 127
3, 144588, Note_off_c, 0, 41, 0
3, 144600, Note_on_c, 0, 48, 127
3, 144708, Note_off_c, 0, 48, 0
3, 144720, Note_on_c, 0, 53, 127
3, 144828, Note_off_c, 0, 53, 0
3, 144840, Note_on_c, 0, 48, 127
3, 144948, Note_off_c, 0, 48, 0
3, 144960, Note_on_c, 0, 57, 127
3, 145068, Note_off_c, 0, 57, 0
3, 145080, Note_on_c, 0, 48, 127
3, 145188, Note_off_c, 0, 48, 0
3, 145200, Note_on_c, 0, 53, 127
3, 145308, Note_off_c, 0, 53, 0
3, 145320, Note_on_c, 0, 48, 127
3, 145428, Note_off_c, 0, 48, 0
3, 145440, Note_on_c, 0, 46, 127
3, 145548, Note_off_c, 0, 46, 0
3, 145560, Note_on_c, 0, 53, 127
3, 145668, Note_off_c, 0, 53, 0
3, 145680, Note_on_c, 0, 58, 127
3, 145788, Note_off_c, 0, 58, 0
3, 145800, Note_on_c, 0, 53, 127
3, 145908, Note_off_c, 0, 53, 0
3, 145920, Note_on_c, 0, 61, 127
3, 146028, Note_off_c, 0, 61, 0
3, 146040, Note_on_c, 0, 53, 127
3, 146148, Note_off_c, 0, 53, 0
3, 146160, Note_on_c, 0, 58, 127
3, 146268, Note_off_c, 0, 58, 0
3, 146280, Note_on_c, 0, 53, 127
3, 146388, Note_off_c, 0, 53, 0
3, 146400, Note_on_c, 0, 46, 127
3, 146508, Note_off_c, 0, 46, 0
3, 146520, Note_on_c, 0, 53, 127
3, 146628, Note_off_c, 0, 53, 0
3, 146640, Note_on_c, 0, 58, 127
3, 146748, Note_off_c, 0, 58, 0
3, 146760, Note_on_c, 0, 53, 127
3, 146868, Note_off_c, 0, 53, 0
3, 146880, Note_on_c, 0, 61, 127
3, 146988, Note_off_c, 0, 61, 0
3, 147000, Note_on_c, 0, 53, 127
3, 147108, Note_off_c, 0, 53, 0
3, 147120, Note_on_c, 0, 58, 127
3, 147228, Note_off_c, 0, 58, 0
3, 147240, Note_on_c, 0, 53, 127
3, 147348, Note_off_c, 0, 53, 0
3, 147360, Note_on_c, 0, 42, 127
3, 147468, Note_off_c, 0, 42, 0
3, 147480, Note_on_c, 0, 49, 127
3, 147588, Note_off_c, 0, 49, 0
3, 147600, Note_on_c, 0, 54, 127
3, 147708, Note_off_c, 0, 54, 0
3, 147720, Note_on_c, 0, 49, 127
3, 147828, Note_off_c, 0, 49, 0
3, 147840, Note_on_c, 0, 58, 127
3, 147948, Note_off_c, 0, 58, 0
3, 147960, Note_on_c, 0, 49, 127
3, 148068, Note_off_c, 0, 49, 0
3, 148080, Note_on_c, 0, 54, 127
3, 148188, Note_off_c, 0, 54, 0
3, 148200, Note_on_c, 0, 49, 127
3, 148308, Note_off_c, 0, 49, 0
3, 148320, Note_on_c, 0, 42, 127
3, 148428, Note_off_c, 0, 42, 0
3, 148440, Note_on_c, 0, 49, 127
3, 148548, Note_off_c, 0, 49, 0
3, 148560, Note_on_c, 0, 54, 127
3, 148668, Note_off_c, 0, 54, 0
3, 148680, Note_on_c, 0, 49, 127
3, 148788, Note_off_c, 0, 49, 0
3, 148800, Note_on_c, 0, 58, 127
3, 148908, Note_off_c, 0, 58, 0
3, 148920, Note_on_c, 0, 49, 127
3, 149028, Note_off_c, 0, 49, 0
3, 149040, Note_on_c, 0, 54, 127
3, 149148, Note_off_c, 0, 54, 0
3, 149160, Note_on_c, 0, 49, 127
3, 149268, Note_off_c, 0, 49, 0
3, 149280, Note_on_c, 0, 44, 127
3, 149388, Note_off_c, 0, 44, 0
3, 149400, Note_on_c, 0, 51, 127
3, 149508, Note_off_c, 0, 51, 0
3, 149520, Note_on_c, 0, 56, 127
3, 149628, Note_off_c, 0, 56, 0
3, 149640, Note_on_c, 0, 51, 127
3, 149748, Note_off_c, 0, 51, 0
3, 149760, Note_on_c, 0, 60, 127
3, 149868, Note_off_c, 0, 60, 0
3, 149880, Note_on_c, 0, 51, 127
3, 149988, Note_off_c, 0, 51, 0
3, 150000, Note_on_c, 0, 56, 127
3, 150108, Note_off_c, 0, 56, 0
3, 150120, Note_on_c, 0, 51, 127
3, 150228, Note_off_c, 0, 51, 0
3, 150240, Note_on_c, 0, 42, 127
3, 150348, Note_off_c, 0, 42, 0
3, 150360, Note_on_c, 0, 49, 127
3, 150468, Note_off_c, 0, 49, 0
3, 150480, Note_on_c, 0, 54, 127
3, 150588, Note_off_c, 0, 54, 0
3, 150600, Note_on_c, 0, 49, 127
3, 150708, Note_off_c, 0, 49, 0
3, 150720, Note_on_c, 0, 58, 127
3, 150828, Note_off_c, 0, 58, 0
3, 150840, Note_on_c, 0, 49, 127
3, 150948, Note_off_c, 0, 49, 0
3, 150960, Note_on_c, 0, 54, 127
3, 151068, Note_off_c, 0, 54, 0
3, 151080, Note_on_c, 0, 49, 127
3, 151188, Note_off_c, 0, 49, 0
3, 151200, Note_on_c, 0, 41, 127
3, 151308, Note_off_c, 0, 41, 0
3, 151320, Note_on_c, 0, 48, 127
3, 151428, Note_off_c, 0, 48, 0
3, 151440, Note_on_c, 0, 53, 127
3, 151548, Note_off_c, 0, 53, 0
3, 151560, Note_on_c, 0, 48, 127
3, 151668, Note_off_c, 0, 48, 0
3, 151680, Note_on_c, 0, 57, 127
3, 151788, Note_off_c, 0, 57, 0
3, 151800, Note_on_c, 0, 48, 127
3, 151908, Note_off_c, 0, 48, 0
3, 151920, Note_on_c, 0, 53, 127
3, 152028, Note_off_c, 0, 53, 0
3, 152040, Note_on_c, 0, 48, 127
3, 152148, Note_off_c, 0, 48, 0
3, 152160, Note_on_c, 0, 41, 127
3, 152268, Note_off_c, 0, 41, 0
3, 152280, Note_on_c, 0, 48, 127
3, 152388, Note_off_c, 0, 48, 0
3, 152400, Note_on_c, 0, 53, 127
3, 152508, Note_off_c, 0, 53, 0
3, 152520, Note_on_c, 0, 48, 127
3, 152628, Note_off_c, 0, 48, 0
3, 152640, Note_on_c, 0, 57, 127
3, 152748, Note_off_c, 0, 57, 0
3, 152760, Note_on_c, 0, 48, 127
3, 152868, Note_off_c, 0, 48, 0
3, 152880, Note_on_c, 0, 53, 127
3, 152988, Note_off_c, 0, 53, 0
3, 153000, Note_on_c, 0, 48, 127
3, 153108, Note_off_c, 0, 48, 0
3, 153120, Note_on_c, 0, 46, 127
3, 153228, Note_off_c, 0, 46, 0
3, 153240, Note_on_c, 0, 53, 127
3, 153348, Note_off_c, 0, 53, 0
3, 153360, Note_on_c, 0, 58, 127
3, 153468, Note_off_c, 0, 58, 0
3, 153480, Note_on_c, 0, 53, 127
3, 153588, Note_off_c, 0, 53, 0
3, 153600, Note_on_c, 0, 61, 127
3, 153708, Note_off_c, 0, 61, 0
3, 153720, Note_on_c, 0, 53, 127
3, 153828, Note_off_c, 0, 53, 0
3, 153840, Note_on_c, 0, 58, 127
3, 153948, Note_off_c, 0, 58, 0
3, 153960, Note_on_c, 0, 53, 127
3, 154068, Note_off_c, 0, 53, 0
3, 154080, Note_on_c, 0, 46, 127
3, 154188, Note_off_c, 0, 46, 0
3, 154200, Note_on_c, 0, 53, 127
3, 154308, Note_off_c, 0, 53, 0
3, 154320, Note_on_c, 0, 58, 127
3, 154428, Note_off_c, 0, 58, 0
3, 154440, Note_on_c, 0, 53, 127
3, 154548, Note_off_c, 0, 53, 0
3, 154560, Note_on_c, 0, 61, 127
3, 154668, Note_off_c, 0, 61, 0
3, 154680, Note_on_c, 0, 53, 127
3, 154788, Note_off_c, 0, 53, 0
3, 154800, Note_on_c, 0, 58, 127
3, 154908, Note_off_c, 0, 58, 0
3, 154920, Note_on_c, 0, 53, 127
3, 155028, Note_off_c, 0, 53, 0
3, 155040, Note_on_c, 0, 42, 127
3, 155148, Note_off_c, 0, 42, 0
3, 155160, Note_on_c, 0, 49, 127
3, 155268, Note_off_c, 0, 49, 0
3, 155280, Note_on_c, 0, 54, 127
3, 155388, Note_off_c, 0, 54, 0
3, 155400, Note_on_c, 0, 49, 127
3, 155508, Note_off_c, 0, 49, 0
3, 155520, Note_on_c, 0, 58, 127
3, 155628, Note_off_c, 0, 58, 0
3, 155640, Note_on_c, 0, 49, 127
3, 155748, Note_off_c, 0, 49, 0
3, 155760, Note_on_c, 0, 54, 127
3, 155868, Note_off_c, 0, 54, 0
3, 155880, Note_on_c, 0, 49, 127
3, 155988, Note_off_c, 0, 49, 0
3, 156000, Note_on_c, 0, 42, 127
3, 156108, Note_off_c, 0, 42, 0
3, 156120, Note_on_c, 0, 49, 127
3, 156228, Note_off_c, 0, 49, 0
3, 156240, Note_on_c, 0, 54, 127
3, 156348, Note_off_c, 0, 54, 0
3, 156360, Note_on_c, 0, 49, 127
3, 156468, Note_off_c, 0, 49, 0
3, 156480, Note_on_c, 0, 58, 127
3, 156588, Note_off_c, 0, 58, 0
3, 156600, Note_on_c, 0, 49, 127
3, 156708, Note_off_c, 0, 49, 0
3, 156720, Note_on_c, 0, 54, 127
3, 156828, Note_off_c, 0, 54, 0
3, 156840, Note_on_c, 0, 49, 127
3, 156948, Note_off_c, 0, 49, 0
3, 156960, Note_on_c, 0, 44, 127
3, 157068, Note_off_c, 0, 44, 0
3, 157080, Note_on_c, 0, 51, 127
3, 157188, Note_off_c, 0, 51, 0
3, 157200, Note_on_c, 0, 56, 127
3, 157308, Note_off_c, 0, 56, 0
3, 157320, Note_on_c, 0, 51, 127
3, 157428, Note_off_c, 0, 51, 0
3, 157440, Note_on_c, 0, 60, 127
3, 157548, Note_off_c, 0, 60, 0
3, 157560, Note_on_c, 0, 51, 127
3, 157668, Note_off_c, 0, 51, 0
3, 157680, Note_on_c, 0, 56, 127
3, 157788, Note_off_c, 0, 56, 0
3, 157800, Note_on_c, 0, 51, 127
3, 157908, Note_off_c, 0, 51, 0
3, 157920, Note_on_c, 0, 42, 127
3, 158028, Note_off_c, 0, 42, 0
3, 158040, Note_on_c, 0, 49, 127
3, 158148, Note_off_c, 0, 49, 0
3, 158160, Note_on_c, 0, 54, 127
3, 158268, Note_off_c, 0, 54, 0
3, 158280, Note_on_c, 0, 49, 127
3, 158388, Note_off_c, 0, 49, 0
3, 158400, Note_on_c, 0, 58, 127
3, 158508, Note_off_c, 0, 58, 0
3, 158520, Note_on_c, 0, 49, 127
3, 158628, Note_off_c, 0, 49, 0
3, 158640, Note_on_c, 0, 54, 127
3, 158748, Note_off_c, 0, 54, 0
3, 158760, Note_on_c, 0, 49, 127
3, 158868, Note_off_c, 0, 49, 0
3, 158880, Note_on_c, 0, 41, 127
3, 158988, Note_off_c, 0, 41, 0
3, 159000, Note_on_c, 0, 48, 127
3, 159108, Note_off_c, 0, 48, 0
3, 159120, Note_on_c, 0, 53, 127
3, 159228, Note_off_c, 0, 53, 0
3, 159240, Note_on_c, 0, 48, 127
3, 159348, Note_off_c, 0, 48, 0
3, 159360, Note_on_c, 0, 57, 127
3, 159468, Note_off_c, 0, 57, 0
3, 159480, Note_on_c, 0, 48, 127
3, 159588, Note_off_c, 0, 48, 0
3, 159600, Note_on_c, 0, 53, 127
3, 159708, Note_off_c, 0, 53, 0
3, 159720, Note_on_c, 0, 48, 127
3, 159828, Note_off_c, 0, 48, 0
3, 159840, Note_on_c, 0, 41, 127
3, 159948, Note_off_c, 0, 41, 0
3, 159960, Note_on_c, 0, 48, 127
3, 160068, Note_off_c, 0, 48, 0
3, 160080, Note_on_c, 0, 53, 127
3, 160188, Note_off_c, 0, 53, 0
3, 160200, Note_on_c, 0, 48, 127
3, 160308, Note_off_c, 0, 48, 0
3, 160320, Note_on_c, 0, 57, 127
3, 160428, Note_off_c, 0, 57, 0
3, 160440, Note_on_c, 0, 48, 127
3, 160776, Note_off_c, 0, 48, 0
3, 160800, Note_on_c, 0, 46, 127
3, 160908, Note_off_c, 0, 46, 0
3, 160920, Note_on_c, 0, 53, 127
3, 161028, Note_off_c, 0, 53, 0
3, 161040, Note_on_c, 0, 58, 127
3, 161148, Note_off_c, 0, 58, 0
3, 161160, Note_on_c, 0, 53, 127
3, 161268, Note_off_c, 0, 53, 0
3, 161280, Note_on_c, 0, 61, 127
3, 161388, Note_off_c, 0, 61, 0
3, 161400, Note_on_c, 0, 53, 127
3, 161508, Note_off_c, 0, 53, 0
3, 161520, Note_on_c, 0, 58, 127
3, 161628, Note_off_c, 0, 58, 0
3, 161640, Note_on_c, 0, 53, 127
3, 161748, Note_off_c, 0, 53, 0
3, 161760, Note_on_c, 0, 46, 127
3, 161868, Note_off_c, 0, 46, 0
3, 161880, Note_on_c, 0, 53, 127
3, 161988, Note_off_c, 0, 53, 0
3, 162000, Note_on_c, 0, 58, 127
3, 162108, Note_off_c, 0, 58, 0
3, 162120, Note_on_c, 0, 53, 127
3, 162228, Note_off_c, 0, 53, 0
3, 162240, Note_on_c, 0, 61, 127
3, 162348, Note_off_c, 0, 61, 0
3, 162360, Note_on_c, 0, 53, 127
3, 162468, Note_off_c, 0, 53, 0
3, 162480, Note_on_c, 0, 58, 127
3, 162588, Note_off_c, 0, 58, 0
3, 162600, Note_on_c, 0, 53, 127
3, 162708, Note_off_c, 0, 53, 0
3, 162720, Note_on_c, 0, 42, 127
3, 162828, Note_off_c, 0, 42, 0
3, 162840, Note_on_c, 0, 49, 127
3, 162948, Note_off_c, 0, 49, 0
3, 162960, Note_on_c, 0, 54, 127
3, 163068, Note_off_c, 0, 54, 0
3, 163080, Note_on_c, 0, 49, 127
3, 163188, Note_off_c, 0, 49, 0
3, 163200, Note_on_c, 0, 58, 127
3, 163308, Note_off_c, 0, 58, 0
3, 163320, Note_on_c, 0, 49, 127
3, 163428, Note_off_c, 0, 49, 0
3, 163440, Note_on_c, 0, 54, 127
3, 163548, Note_off_c, 0, 54, 0
3, 163560, Note_on_c, 0, 49, 127
3, 163668, Note_off_c, 0, 49, 0
3, 163680, Note_on_c, 0, 42, 127
3, 163788, Note_off_c, 0, 42, 0
3, 163800, Note_on_c, 0, 49, 127
3, 163908, Note_off_c, 0, 49, 0
3, 163920, Note_on_c, 0, 54, 127
3, 164028, Note_off_c, 0, 54, 0
3, 164040, Note_on_c, 0, 49, 127
3, 164148, Note_off_c, 0, 49, 0
3, 164160, Note_on_c, 0, 58, 127
3, 164268, Note_off_c, 0, 58, 0
3, 164280, Note_on_c, 0, 49, 127
3, 164388, Note_off_c, 0, 49, 0
3, 164400, Note_on_c, 0, 54, 127
3, 164508, Note_off_c, 0, 54, 0
3, 164520, Note_on_c, 0, 49, 127
3, 164628, Note_off_c, 0, 49, 0
3, 164640, Note_on_c, 0, 44, 127
3, 164748, Note_off_c, 0, 44, 0
3, 164760, Note_on_c, 0, 51, 127
3, 164868, Note_off_c, 0, 51, 0
3, 164880, Note_on_c, 0, 56, 127
3, 164988, Note_off_c, 0, 56, 0
3, 165000, Note_on_c, 0, 60, 127
3, 165108, Note_off_c, 0, 60, 0
3, 165120, Note_on_c, 0, 63, 127
3, 165552, Note_off_c, 0, 63, 0
3, 165600, Note_on_c, 0, 42, 127
3, 165708, Note_off_c, 0, 42, 0
3, 165720, Note_on_c, 0, 49, 127
3, 165828, Note_off_c, 0, 49, 0
3, 165840, Note_on_c, 0, 54, 127
3, 165948, Note_off_c, 0, 54, 0
3, 165960, Note_on_c, 0, 58, 127
3, 166068, Note_off_c, 0, 58, 0
3, 166080, Note_on_c, 0, 61, 127
3, 166512, Note_off_c, 0, 61, 0
3, 166560, Note_on_c, 0, 41, 127
3, 166668, Note_off_c, 0, 41, 0
3, 166680, Note_on_c, 0, 48, 127
3, 166788, Note_off_c, 0, 48, 0
3, 166800, Note_on_c, 0, 53, 127
3, 166908, Note_off_c, 0, 53, 0
3, 166920, Note_on_c, 0, 48, 127
3, 167148, Note_off_c, 0, 48, 0
3, 167160, Note_on_c, 0, 48, 127
3, 167268, Note_off_c, 0, 48, 0
3, 167280, Note_on_c, 0, 53, 127
3, 167388, Note_off_c, 0, 53, 0
3, 167400, Note_on_c, 0, 48, 127
3, 167508, Note_off_c, 0, 48, 0
3, 167520, Note_on_c, 0, 41, 127
3, 167628, Note_off_c, 0, 41, 0
3, 167640, Note_on_c, 0, 48, 127
3, 167748, Note_off_c, 0, 48, 0
3, 167760, Note_on_c, 0, 53, 127
3, 167868, Note_off_c, 0, 53, 0
3, 167880, Note_on_c, 0, 48, 127
3, 168108, Note_off_c, 0, 48, 0
3, 168120, Note_on_c, 0, 48, 127
3, 168228, Note_off_c, 0, 48, 0
3, 168240, Note_on_c, 0, 53, 127
3, 168348, Note_off_c, 0, 53, 0
3, 168360, Note_on_c, 0, 48, 127
3, 168468, Note_off_c, 0, 48, 0
3, 168480, Note_on_c, 0, 41, 127
3, 168588, Note_off_c, 0, 41, 0
3, 168600, Note_on_c, 0, 48, 127
3, 168708, Note_off_c, 0, 48, 0
3, 168720, Note_on_c, 0, 53, 127
3, 168828, Note_off_c, 0, 53, 0
3, 168840, Note_on_c, 0, 48, 127
3, 168948, Note_off_c, 0, 48, 0
3, 168960, Note_on_c, 0, 57, 127
3, 169068, Note_off_c, 0, 57, 0
3, 169080, Note_on_c, 0, 48, 127
3, 169188, Note_off_c, 0, 48, 0
3, 169200, Note_on_c, 0, 53, 127
3, 169308, Note_off_c, 0, 53, 0
3, 169320, Note_on_c, 0, 48, 127
3, 169428, Note_off_c, 0, 48, 0
3, 169440, Note_on_c, 0, 41, 127
3, 169548, Note_off_c, 0, 41, 0
3, 169560, Note_on_c, 0, 48, 127
3, 169668, Note_off_c, 0, 48, 0
3, 169680, Note_on_c, 0, 53, 127
3, 169788, Note_off_c, 0, 53, 0
3, 169800, Note_on_c, 0, 57, 127
3, 169908, Note_off_c, 0, 57, 0
3, 169920, Note_on_c, 0, 60, 127
3, 170028, Note_off_c, 0, 60, 0
3, 170040, Note_on_c, 0, 65, 127
3, 170148, Note_off_c, 0, 65, 0
3, 170160, Note_on_c, 0, 69, 127
3, 170376, Note_off_c, 0, 69, 0
3, 170400, Note_on_c, 0, 45, 127
3, 170508, Note_off_c, 0, 45, 0
3, 170520, Note_on_c, 0, 52, 127
3, 170628, Note_off_c, 0, 52, 0
3, 170640, Note_on_c, 0, 57, 127
3, 170748, Note_off_c, 0, 57, 0
3, 170760, Note_on_c, 0, 52, 127
3, 170868, Note_off_c, 0, 52, 0
3, 170880, Note_on_c, 0, 47, 127
3, 170988, Note_off_c, 0, 47, 0
3, 171000, Note_on_c, 0, 54, 127
3, 171108, Note_off_c, 0, 54, 0
3, 171120, Note_on_c, 0, 59, 127
3, 171228, Note_off_c, 0, 59, 0
3, 171240, Note_on_c, 0, 61, 127
3, 171240, Note_on_c, 0, 56, 127
3, 171468, Note_off_c, 0, 61, 0
3, 171468, Note_off_c, 0, 56, 0
3, 171480, Note_on_c, 0, 56, 127
3, 171588, Note_off_c, 0, 56, 0
3, 171600, Note_on_c, 0, 61, 127
3, 171708, Note_off_c, 0, 61, 0
3, 171720, Note_on_c, 0, 56, 127
3, 171828, Note_off_c, 0, 56, 0
3, 171840, Note_on_c, 0, 64, 127
3, 171948, Note_off_c, 0, 64, 0
3, 171960, Note_on_c, 0, 56, 127
3, 172068, Note_off_c, 0, 56, 0
3, 172080, Note_on_c, 0, 61, 127
3, 172296, Note_off_c, 0, 61, 0
3, 172320, Note_on_c, 0, 45, 127
3, 172428, Note_off_c, 0, 45, 0
3, 172440, Note_on_c, 0, 52, 127
3, 172548, Note_off_c, 0, 52, 0
3, 172560, Note_on_c, 0, 57, 127
3, 172668, Note_off_c, 0, 57, 0
3, 172680, Note_on_c, 0, 52, 127
3, 172788, Note_off_c, 0, 52, 0
3, 172800, Note_on_c, 0, 47, 127
3, 172908, Note_off_c, 0, 47, 0
3, 172920, Note_on_c, 0, 54, 127
3, 173028, Note_off_c, 0, 54, 0
3, 173040, Note_on_c, 0, 59, 127
3, 173148, Note_off_c, 0, 59, 0
3, 173160, Note_on_c, 0, 61, 127
3, 173160, Note_on_c, 0, 56, 127
3, 173388, Note_off_c, 0, 61, 0
3, 173388, Note_off_c, 0, 56, 0
3, 173400, Note_on_c, 0, 56, 127
3, 173508, Note_off_c, 0, 56, 0
3, 173520, Note_on_c, 0, 61, 127
3, 173628, Note_off_c, 0, 61, 0
3, 173640, Note_on_c, 0, 56, 127
3, 173748, Note_off_c, 0, 56, 0
3, 173760, Note_on_c, 0, 64, 127
3, 173868, Note_off_c, 0, 64, 0
3, 173880, Note_on_c, 0, 56, 127
3, 173988, Note_off_c, 0, 56, 0
3, 174000, Note_on_c, 0, 61, 127
3, 174216, Note_off_c, 0, 61, 0
3, 174240, Note_on_c, 0, 45, 127
3, 174348, Note_off_c, 0, 45, 0
3, 174360, Note_on_c, 0, 52, 127
3, 174468, Note_off_c, 0, 52, 0
3, 174480, Note_on_c, 0, 57, 127
3, 174588, Note_off_c, 0, 57, 0
3, 174600, Note_on_c, 0, 52, 127
3, 174708, Note_off_c, 0, 52, 0
3, 174720, Note_on_c, 0, 47, 127
3, 174828, Note_off_c, 0, 47, 0
3, 174840, Note_on_c, 0, 54, 127
3, 174948, Note_off_c, 0, 54, 0
3, 174960, Note_on_c, 0, 59, 127
3, 175068, Note_off_c, 0, 59, 0
3, 175080, Note_on_c, 0, 49, 127
3, 175308, Note_off_c, 0, 49, 0
3, 175320, Note_on_c, 0, 56, 127
3, 175428, Note_off_c, 0, 56, 0
3, 175440, Note_on_c, 0, 61, 127
3, 175548, Note_off_c, 0, 61, 0
3, 175560, Note_on_c, 0, 56, 127
3, 175668, Note_off_c, 0, 56, 0
3, 175680, Note_on_c, 0, 64, 127
3, 176112, Note_off_c, 0, 64, 0
3, 176160, Note_on_c, 0, 45, 127
3, 176268, Note_off_c, 0, 45, 0
3, 176280, Note_on_c, 0, 49, 127
3, 176388, Note_off_c, 0, 49, 0
3, 176400, Note_on_c, 0, 54, 127
3, 176508, Note_off_c, 0, 54, 0
3, 176520, Note_on_c, 0, 52, 127
3, 176628, Note_off_c, 0, 52, 0
3, 176640, Note_on_c, 0, 47, 127
3, 176748, Note_off_c, 0, 47, 0
3, 176760, Note_on_c, 0, 54, 127
3, 176868, Note_off_c, 0, 54, 0
3, 176880, Note_on_c, 0, 59, 127
3, 176988, Note_off_c, 0, 59, 0
3, 177000, Note_on_c, 0, 56, 127
3, 177000, Note_on_c, 0, 49, 127
3, 177228, Note_off_c, 0, 49, 0
3, 177240, Note_on_c, 0, 52, 127
3, 177348, Note_off_c, 0, 52, 0
3, 177360, Note_on_c, 0, 56, 127
3, 177468, Note_off_c, 0, 56, 0
3, 177480, Note_on_c, 0, 52, 127
3, 177552, Note_off_c, 0, 56, 0
3, 177588, Note_off_c, 0, 52, 0
3, 177600, Note_on_c, 0, 47, 127
3, 177708, Note_off_c, 0, 47, 0
3, 177720, Note_on_c, 0, 54, 127
3, 177828, Note_off_c, 0, 54, 0
3, 177840, Note_on_c, 0, 57, 127
3, 177948, Note_off_c, 0, 57, 0
3, 177960, Note_on_c, 0, 56, 127
3, 177960, Note_on_c, 0, 49, 127
3, 178728, Note_off_c, 0, 56, 0
3, 178728, Note_off_c, 0, 49, 0
3, 178920, Note_on_c, 0, 37, 127
3, 178920, Note_on_c, 0, 49, 127
3, 179136, Note_off_c, 0, 37, 0
3, 179136, Note_off_c, 0, 49, 0
3, 179160, Note_on_c, 0, 37, 127
3, 179160, Note_on_c, 0, 44, 127
3, 179160, Note_on_c, 0, 47, 127
3, 179268, Note_off_c, 0, 37, 0
3, 179268, Note_off_c, 0, 44, 0
3, 179268, Note_off_c, 0, 47, 0
3, 179280, Note_on_c, 0, 37, 127
3, 179280, Note_on_c, 0, 44, 127
3, 179280, Note_on_c, 0, 47, 127
3, 179952, Note_off_c, 0, 37, 0
3, 179952, Note_off_c, 0, 44, 0
3, 179952, Note_off_c, 0, 47, 0
3, 179999, End_track
4, 0, Start_track
4, 0, Title_t, "Track 3"
4, 0, MIDI_port, 0
4, 0, Control_c, 1, 10, 64
4, 16800, Note_on_c, 1, 25, 100
4, 16800, Note_on_c, 1, 32, 100
4, 16800, Note_on_c, 1, 37, 100
4, 16800, Note_on_c, 1, 40, 100
4, 17760, Note_off_c, 1, 25, 0
4, 17760, Note_off_c, 1, 32, 0
4, 17760, Note_off_c, 1, 37, 0
4, 17760, Note_off_c, 1, 40, 0
4, 17760, Note_on_c, 1, 25, 100
4, 17760, Note_on_c, 1, 32, 100
4, 17760, Note_on_c, 1, 37, 100
4, 17760, Note_on_c, 1, 40, 100
4, 18720, Note_off_c, 1, 25, 0
4, 18720, Note_off_c, 1, 32, 0
4, 18720, Note_off_c, 1, 37, 0
4, 18720, Note_off_c, 1, 40, 0
4, 18720, Note_on_c, 1, 21, 100
4, 18720, Note_on_c, 1, 28, 100
4, 18720, Note_on_c, 1, 33, 100
4, 18720, Note_on_c, 1, 37, 100
4, 19680, Note_off_c, 1, 21, 0
4, 19680, Note_off_c, 1, 28, 0
4, 19680, Note_off_c, 1, 33, 0
4, 19680, Note_off_c, 1, 37, 0
4, 19680, Note_on_c, 1, 21, 100
4, 19680, Note_on_c, 1, 28, 100
4, 19680, Note_on_c, 1, 33, 100
4, 19680, Note_on_c, 1, 37, 100
4, 20640, Note_off_c, 1, 21, 0
4, 20640, Note_off_c, 1, 28, 0
4, 20640, Note_off_c, 1, 33, 0
4, 20640, Note_off_c, 1, 37, 0
4, 20640, Note_on_c, 1, 23, 100
4, 20640, Note_on_c, 1, 30, 100
4, 20640, Note_on_c, 1, 35, 100
4, 20640, Note_on_c, 1, 39, 100
4, 21600, Note_off_c, 1, 23, 0
4, 21600, Note_off_c, 1, 30, 0
4, 21600, Note_off_c, 1, 35, 0
4, 21600, Note_off_c, 1, 39, 0
4, 21600, Note_on_c, 1, 23, 100
4, 21600, Note_on_c, 1, 30, 100
4, 21600, Note_on_c, 1, 35, 100
4, 21600, Note_on_c, 1, 39, 100
4, 22560, Note_off_c, 1, 23, 0
4, 22560, Note_off_c, 1, 30, 0
4, 22560, Note_off_c, 1, 35, 0
4, 22560, Note_off_c, 1, 39, 0
4, 22560, Note_on_c, 1, 25, 100
4, 22560, Note_on_c, 1, 32, 100
4, 22560, Note_on_c, 1, 37, 100
4, 22560, Note_on_c, 1, 40, 100
4, 23520, Note_off_c, 1, 25, 0
4, 23520, Note_off_c, 1, 32, 0
4, 23520, Note_off_c, 1, 37, 0
4, 23520, Note_off_c, 1, 40, 0
4, 23520, Note_on_c, 1, 20, 100
4, 23520, Note_on_c, 1, 27, 100
4, 23520, Note_on_c, 1, 32, 100
4, 23520, Note_on_c, 1, 36, 100
4, 24480, Note_off_c, 1, 20, 0
4, 24480, Note_off_c, 1, 27, 0
4, 24480, Note_off_c, 1, 32, 0
4, 24480, Note_off_c, 1, 36, 0
4, 24480, Note_on_c, 1, 25, 100
4, 24480, Note_on_c, 1, 32, 100
4, 24480, Note_on_c, 1, 37, 100
4, 24480, Note_on_c, 1, 40, 100
4, 25440, Note_off_c, 1, 25, 0
4, 25440, Note_off_c, 1, 32, 0
4, 25440, Note_off_c, 1, 37, 0
4, 25440, Note_off_c, 1, 40, 0
4, 25440, Note_on_c, 1, 25, 100
4, 25440, Note_on_c, 1, 32, 100
4, 25440, Note_on_c, 1, 37, 100
4, 25440, Note_on_c, 1, 40, 100
4, 26400, Note_off_c, 1, 25, 0
4, 26400, Note_off_c, 1, 32, 0
4, 26400, Note_off_c, 1, 37, 0
4, 26400, Note_off_c, 1, 40, 0
4, 26400, Note_on_c, 1, 21, 100
4, 26400, Note_on_c, 1, 28, 100
4, 26400, Note_on_c, 1, 33, 100
4, 26400, Note_on_c, 1, 37, 100
4, 27360, Note_off_c, 1, 21, 0
4, 27360, Note_off_c, 1, 28, 0
4, 27360, Note_off_c, 1, 33, 0
4, 27360, Note_off_c, 1, 37, 0
4, 27360, Note_on_c, 1, 21, 100
4, 27360, Note_on_c, 1, 28, 100
4, 27360, Note_on_c, 1, 33, 100
4, 27360, Note_on_c, 1, 37, 100
4, 28320, Note_off_c, 1, 21, 0
4, 28320, Note_off_c, 1, 28, 0
4, 28320, Note_off_c, 1, 33, 0
4, 28320, Note_off_c, 1, 37, 0
4, 28320, Note_on_c, 1, 23, 100
4, 28320, Note_on_c, 1, 30, 100
4, 28320, Note_on_c, 1, 35, 100
4, 28320, Note_on_c, 1, 39, 100
4, 29280, Note_off_c, 1, 23, 0
4, 29280, Note_off_c, 1, 30, 0
4, 29280, Note_off_c, 1, 35, 0
4, 29280, Note_off_c, 1, 39, 0
4, 29280, Note_on_c, 1, 23, 100
4, 29280, Note_on_c, 1, 30, 100
4, 29280, Note_on_c, 1, 35, 100
4, 29280, Note_on_c, 1, 39, 100
4, 30240, Note_off_c, 1, 23, 0
4, 30240, Note_off_c, 1, 30, 0
4, 30240, Note_off_c, 1, 35, 0
4, 30240, Note_off_c, 1, 39, 0
4, 30240, Note_on_c, 1, 25, 100
4, 30240, Note_on_c, 1, 32, 100
4, 30240, Note_on_c, 1, 37, 100
4, 30240, Note_on_c, 1, 40, 100
4, 30240, Note_on_c, 1, 28, 100
4, 30240, Note_on_c, 1, 20, 100
4, 31200, Note_off_c, 1, 25, 0
4, 31200, Note_off_c, 1, 32, 0
4, 31200, Note_off_c, 1, 37, 0
4, 31200, Note_off_c, 1, 40, 0
4, 31200, Note_off_c, 1, 28, 0
4, 31200, Note_off_c, 1, 20, 0
4, 31200, Note_on_c, 1, 32, 100
4, 31200, Note_on_c, 1, 36, 100
4, 31200, Note_on_c, 1, 20, 100
4, 31200, Note_on_c, 1, 24, 100
4, 32160, Note_off_c, 1, 32, 0
4, 32160, Note_off_c, 1, 36, 0
4, 32160, Note_off_c, 1, 20, 0
4, 32160, Note_off_c, 1, 24, 0
4, 32160, Note_on_c, 1, 25, 100
4, 32160, Note_on_c, 1, 32, 100
4, 32160, Note_on_c, 1, 37, 100
4, 32160, Note_on_c, 1, 40, 100
4, 33120, Note_off_c, 1, 25, 0
4, 33120, Note_off_c, 1, 32, 0
4, 33120, Note_off_c, 1, 37, 0
4, 33120, Note_off_c, 1, 40, 0
4, 33120, Note_on_c, 1, 25, 100
4, 33120, Note_on_c, 1, 32, 100
4, 33120, Note_on_c, 1, 37, 100
4, 33120, Note_on_c, 1, 40, 100
4, 34080, Note_off_c, 1, 25, 0
4, 34080, Note_off_c, 1, 32, 0
4, 34080, Note_off_c, 1, 37, 0
4, 34080, Note_off_c, 1, 40, 0
4, 34080, Note_on_c, 1, 21, 100
4, 34080, Note_on_c, 1, 28, 100
4, 34080, Note_on_c, 1, 33, 100
4, 34080, Note_on_c, 1, 37, 100
4, 35040, Note_off_c, 1, 21, 0
4, 35040, Note_off_c, 1, 28, 0
4, 35040, Note_off_c, 1, 33, 0
4, 35040, Note_off_c, 1, 37, 0
4, 35040, Note_on_c, 1, 21, 100
4, 35040, Note_on_c, 1, 28, 100
4, 35040, Note_on_c, 1, 33, 100
4, 35040, Note_on_c, 1, 37, 100
4, 36000, Note_off_c, 1, 21, 0
4, 36000, Note_off_c, 1, 28, 0
4, 36000, Note_off_c, 1, 33, 0
4, 36000, Note_off_c, 1, 37, 0
4, 36000, Note_on_c, 1, 23, 100
4, 36000, Note_on_c, 1, 30, 100
4, 36000, Note_on_c, 1, 35, 100
4, 36000, Note_on_c, 1, 39, 100
4, 36960, Note_off_c, 1, 23, 0
4, 36960, Note_off_c, 1, 30, 0
4, 36960, Note_off_c, 1, 35, 0
4, 36960, Note_off_c, 1, 39, 0
4, 36960, Note_on_c, 1, 23, 100
4, 36960, Note_on_c, 1, 30, 100
4, 36960, Note_on_c, 1, 35, 100
4, 36960, Note_on_c, 1, 39, 100
4, 37920, Note_off_c, 1, 23, 0
4, 37920, Note_off_c, 1, 30, 0
4, 37920, Note_off_c, 1, 35, 0
4, 37920, Note_off_c, 1, 39, 0
4, 37920, Note_on_c, 1, 25, 100
4, 37920, Note_on_c, 1, 32, 100
4, 37920, Note_on_c, 1, 37, 100
4, 37920, Note_on_c, 1, 40, 100
4, 38880, Note_off_c, 1, 25, 0
4, 38880, Note_off_c, 1, 32, 0
4, 38880, Note_off_c, 1, 37, 0
4, 38880, Note_off_c, 1, 40, 0
4, 38880, Note_on_c, 1, 20, 100
4, 38880, Note_on_c, 1, 27, 100
4, 38880, Note_on_c, 1, 32, 100
4, 38880, Note_on_c, 1, 36, 100
4, 39840, Note_off_c, 1, 20, 0
4, 39840, Note_off_c, 1, 27, 0
4, 39840, Note_off_c, 1, 32, 0
4, 39840, Note_off_c, 1, 36, 0
4, 39840, Note_on_c, 1, 25, 100
4, 39840, Note_on_c, 1, 32, 100
4, 39840, Note_on_c, 1, 37, 100
4, 39840, Note_on_c, 1, 40, 100
4, 40800, Note_off_c, 1, 25, 0
4, 40800, Note_off_c, 1, 32, 0
4, 40800, Note_off_c, 1, 37, 0
4, 40800, Note_off_c, 1, 40, 0
4, 40800, Note_on_c, 1, 25, 100
4, 40800, Note_on_c, 1, 32, 100
4, 40800, Note_on_c, 1, 37, 100
4, 40800, Note_on_c, 1, 40, 100
4, 41760, Note_off_c, 1, 25, 0
4, 41760, Note_off_c, 1, 32, 0
4, 41760, Note_off_c, 1, 37, 0
4, 41760, Note_off_c, 1, 40, 0
4, 41760, Note_on_c, 1, 21, 100
4, 41760, Note_on_c, 1, 28, 100
4, 41760, Note_on_c, 1, 33, 100
4, 41760, Note_on_c, 1, 37, 100
4, 42720, Note_off_c, 1, 21, 0
4, 42720, Note_off_c, 1, 28, 0
4, 42720, Note_off_c, 1, 33, 0
4, 42720, Note_off_c, 1, 37, 0
4, 42720, Note_on_c, 1, 21, 100
4, 42720, Note_on_c, 1, 28, 100
4, 42720, Note_on_c, 1, 33, 100
4, 42720, Note_on_c, 1, 37, 100
4, 43680, Note_off_c, 1, 21, 0
4, 43680, Note_off_c, 1, 28, 0
4, 43680, Note_off_c, 1, 33, 0
4, 43680, Note_off_c, 1, 37, 0
4, 43680, Note_on_c, 1, 23, 100
4, 43680, Note_on_c, 1, 30, 100
4, 43680, Note_on_c, 1, 35, 100
4, 43680, Note_on_c, 1, 39, 100
4, 44640, Note_off_c, 1, 23, 0
4, 44640, Note_off_c, 1, 30, 0
4, 44640, Note_off_c, 1, 35, 0
4, 44640, Note_off_c, 1, 39, 0
4, 44640, Note_on_c, 1, 23, 100
4, 44640, Note_on_c, 1, 30, 100
4, 44640, Note_on_c, 1, 35, 100
4, 44640, Note_on_c, 1, 39, 100
4, 45600, Note_off_c, 1, 23, 0
4, 45600, Note_off_c, 1, 30, 0
4, 45600, Note_off_c, 1, 35, 0
4, 45600, Note_off_c, 1, 39, 0
4, 45600, Note_on_c, 1, 25, 100
4, 45600, Note_on_c, 1, 32, 100
4, 45600, Note_on_c, 1, 37, 100
4, 45600, Note_on_c, 1, 40, 100
4, 45600, Note_on_c, 1, 28, 100
4, 45600, Note_on_c, 1, 20, 100
4, 46560, Note_off_c, 1, 25, 0
4, 46560, Note_off_c, 1, 32, 0
4, 46560, Note_off_c, 1, 37, 0
4, 46560, Note_off_c, 1, 40, 0
4, 46560, Note_off_c, 1, 28, 0
4, 46560, Note_off_c, 1, 20, 0
4, 46560, Note_on_c, 1, 32, 100
4, 46560, Note_on_c, 1, 36, 100
4, 46560, Note_on_c, 1, 20, 100
4, 46560, Note_on_c, 1, 24, 100
4, 47520, Note_off_c, 1, 32, 0
4, 47520, Note_off_c, 1, 36, 0
4, 47520, Note_off_c, 1, 20, 0
4, 47520, Note_off_c, 1, 24, 0
4, 47520, Note_on_c, 1, 46, 100
4, 47520, Note_on_c, 1, 49, 100
4, 47520, Note_on_c, 1, 53, 100
4, 47520, Note_on_c, 1, 58, 100
4, 49440, Note_off_c, 1, 46, 0
4, 49440, Note_off_c, 1, 49, 0
4, 49440, Note_off_c, 1, 53, 0
4, 49440, Note_off_c, 1, 58, 0
4, 49440, Note_on_c, 1, 42, 100
4, 49440, Note_on_c, 1, 45, 100
4, 49440, Note_on_c, 1, 49, 100
4, 49440, Note_on_c, 1, 54, 100
4, 49440, Note_on_c, 1, 58, 100
4, 51360, Note_off_c, 1, 42, 0
4, 51360, Note_off_c, 1, 45, 0
4, 51360, Note_off_c, 1, 49, 0
4, 51360, Note_off_c, 1, 54, 0
4, 51360, Note_off_c, 1, 58, 0
4, 51360, Note_on_c, 1, 60, 100
4, 51360, Note_on_c, 1, 56, 100
4, 51360, Note_on_c, 1, 51, 100
4, 51360, Note_on_c, 1, 44, 100
4, 52320, Note_off_c, 1, 60, 0
4, 52320, Note_off_c, 1, 56, 0
4, 52320, Note_off_c, 1, 51, 0
4, 52320, Note_off_c, 1, 44, 0
4, 52320, Note_on_c, 1, 42, 100
4, 52320, Note_on_c, 1, 49, 100
4, 52320, Note_on_c, 1, 54, 100
4, 52320, Note_on_c, 1, 58, 100
4, 53280, Note_off_c, 1, 42, 0
4, 53280, Note_off_c, 1, 49, 0
4, 53280, Note_off_c, 1, 54, 0
4, 53280, Note_off_c, 1, 58, 0
4, 53280, Note_on_c, 1, 41, 100
4, 53280, Note_on_c, 1, 48, 100
4, 53280, Note_on_c, 1, 53, 100
4, 53280, Note_on_c, 1, 57, 100
4, 54240, Note_off_c, 1, 41, 0
4, 54240, Note_off_c, 1, 48, 0
4, 54240, Note_off_c, 1, 53, 0
4, 54240, Note_off_c, 1, 57, 0
4, 54240, Note_on_c, 1, 41, 100
4, 54240, Note_on_c, 1, 48, 100
4, 54240, Note_on_c, 1, 53, 100
4, 54240, Note_on_c, 1, 57, 100
4, 55200, Note_off_c, 1, 41, 0
4, 55200, Note_off_c, 1, 48, 0
4, 55200, Note_off_c, 1, 53, 0
4, 55200, Note_off_c, 1, 57, 0
4, 55200, Note_on_c, 1, 46, 100
4, 55200, Note_on_c, 1, 53, 100
4, 55200, Note_on_c, 1, 58, 100
4, 55200, Note_on_c, 1, 61, 100
4, 56160, Note_off_c, 1, 46, 0
4, 56160, Note_off_c, 1, 53, 0
4, 56160, Note_off_c, 1, 58, 0
4, 56160, Note_off_c, 1, 61, 0
4, 56160, Note_on_c, 1, 46, 100
4, 56160, Note_on_c, 1, 53, 100
4, 56160, Note_on_c, 1, 58, 100
4, 56160, Note_on_c, 1, 61, 100
4, 57120, Note_off_c, 1, 46, 0
4, 57120, Note_off_c, 1, 53, 0
4, 57120, Note_off_c, 1, 58, 0
4, 57120, Note_off_c, 1, 61, 0
4, 57120, Note_on_c, 1, 42, 100
4, 57120, Note_on_c, 1, 49, 100
4, 57120, Note_on_c, 1, 54, 100
4, 57120, Note_on_c, 1, 58, 100
4, 58080, Note_off_c, 1, 42, 0
4, 58080, Note_off_c, 1, 49, 0
4, 58080, Note_off_c, 1, 54, 0
4, 58080, Note_off_c, 1, 58, 0
4, 58080, Note_on_c, 1, 42, 100
4, 58080, Note_on_c, 1, 49, 100
4, 58080, Note_on_c, 1, 54, 100
4, 58080, Note_on_c, 1, 58, 100
4, 59040, Note_off_c, 1, 42, 0
4, 59040, Note_off_c, 1, 49, 0
4, 59040, Note_off_c, 1, 54, 0
4, 59040, Note_off_c, 1, 58, 0
4, 59040, Note_on_c, 1, 44, 100
4, 59040, Note_on_c, 1, 51, 100
4, 59040, Note_on_c, 1, 56, 100
4, 59040, Note_on_c, 1, 60, 100
4, 60000, Note_off_c, 1, 44, 0
4, 60000, Note_off_c, 1, 51, 0
4, 60000, Note_off_c, 1, 56, 0
4, 60000, Note_off_c, 1, 60, 0
4, 60000, Note_on_c, 1, 42, 100
4, 60000, Note_on_c, 1, 49, 100
4, 60000, Note_on_c, 1, 54, 100
4, 60000, Note_on_c, 1, 58, 100
4, 60960, Note_off_c, 1, 42, 0
4, 60960, Note_off_c, 1, 49, 0
4, 60960, Note_off_c, 1, 54, 0
4, 60960, Note_off_c, 1, 58, 0
4, 60960, Note_on_c, 1, 41, 100
4, 60960, Note_on_c, 1, 48, 100
4, 60960, Note_on_c, 1, 53, 100
4, 60960, Note_on_c, 1, 57, 100
4, 61920, Note_off_c, 1, 41, 0
4, 61920, Note_off_c, 1, 48, 0
4, 61920, Note_off_c, 1, 53, 0
4, 61920, Note_off_c, 1, 57, 0
4, 61920, Note_on_c, 1, 41, 100
4, 61920, Note_on_c, 1, 48, 100
4, 61920, Note_on_c, 1, 53, 100
4, 61920, Note_on_c, 1, 57, 100
4, 62880, Note_off_c, 1, 41, 0
4, 62880, Note_off_c, 1, 48, 0
4, 62880, Note_off_c, 1, 53, 0
4, 62880, Note_off_c, 1, 57, 0
4, 62880, Note_on_c, 1, 22, 100
4, 62880, Note_on_c, 1, 25, 100
4, 62880, Note_on_c, 1, 29, 100
4, 62880, Note_on_c, 1, 34, 100
4, 64800, Note_off_c, 1, 22, 0
4, 64800, Note_off_c, 1, 25, 0
4, 64800, Note_off_c, 1, 29, 0
4, 64800, Note_off_c, 1, 34, 0
4, 64800, Note_on_c, 1, 18, 100
4, 64800, Note_on_c, 1, 21, 100
4, 64800, Note_on_c, 1, 25, 100
4, 64800, Note_on_c, 1, 30, 100
4, 64800, Note_on_c, 1, 34, 100
4, 66720, Note_off_c, 1, 18, 0
4, 66720, Note_off_c, 1, 21, 0
4, 66720, Note_off_c, 1, 25, 0
4, 66720, Note_off_c, 1, 30, 0
4, 66720, Note_off_c, 1, 34, 0
4, 66720, Note_on_c, 1, 36, 100
4, 66720, Note_on_c, 1, 32, 100
4, 66720, Note_on_c, 1, 27, 100
4, 66720, Note_on_c, 1, 20, 100
4, 67680, Note_off_c, 1, 36, 0
4, 67680, Note_off_c, 1, 32, 0
4, 67680, Note_off_c, 1, 27, 0
4, 67680, Note_off_c, 1, 20, 0
4, 67680, Note_on_c, 1, 18, 100
4, 67680, Note_on_c, 1, 25, 100
4, 67680, Note_on_c, 1, 30, 100
4, 67680, Note_on_c, 1, 34, 100
4, 68640, Note_off_c, 1, 18, 0
4, 68640, Note_off_c, 1, 25, 0
4, 68640, Note_off_c, 1, 30, 0
4, 68640, Note_off_c, 1, 34, 0
4, 68640, Note_on_c, 1, 17, 100
4, 68640, Note_on_c, 1, 24, 100
4, 68640, Note_on_c, 1, 29, 100
4, 68640, Note_on_c, 1, 33, 100
4, 69600, Note_off_c, 1, 17, 0
4, 69600, Note_off_c, 1, 24, 0
4, 69600, Note_off_c, 1, 29, 0
4, 69600, Note_off_c, 1, 33, 0
4, 69600, Note_on_c, 1, 17, 100
4, 69600, Note_on_c, 1, 24, 100
4, 69600, Note_on_c, 1, 29, 100
4, 69600, Note_on_c, 1, 33, 100
4, 70560, Note_off_c, 1, 17, 0
4, 70560, Note_off_c, 1, 24, 0
4, 70560, Note_off_c, 1, 29, 0
4, 70560, Note_off_c, 1, 33, 0
4, 70560, Note_on_c, 1, 22, 100
4, 70560, Note_on_c, 1, 29, 100
4, 70560, Note_on_c, 1, 34, 100
4, 70560, Note_on_c, 1, 37, 100
4, 71520, Note_off_c, 1, 22, 0
4, 71520, Note_off_c, 1, 29, 0
4, 71520, Note_off_c, 1, 34, 0
4, 71520, Note_off_c, 1, 37, 0
4, 71520, Note_on_c, 1, 22, 100
4, 71520, Note_on_c, 1, 29, 100
4, 71520, Note_on_c, 1, 34, 100
4, 71520, Note_on_c, 1, 37, 100
4, 72480, Note_off_c, 1, 22, 0
4, 72480, Note_off_c, 1, 29, 0
4, 72480, Note_off_c, 1, 34, 0
4, 72480, Note_off_c, 1, 37, 0
4, 72480, Note_on_c, 1, 18, 100
4, 72480, Note_on_c, 1, 25, 100
4, 72480, Note_on_c, 1, 30, 100
4, 72480, Note_on_c, 1, 34, 100
4, 73440, Note_off_c, 1, 18, 0
4, 73440, Note_off_c, 1, 25, 0
4, 73440, Note_off_c, 1, 30, 0
4, 73440, Note_off_c, 1, 34, 0
4, 73440, Note_on_c, 1, 18, 100
4, 73440, Note_on_c, 1, 25, 100
4, 73440, Note_on_c, 1, 30, 100
4, 73440, Note_on_c, 1, 34, 100
4, 74400, Note_off_c, 1, 18, 0
4, 74400, Note_off_c, 1, 25, 0
4, 74400, Note_off_c, 1, 30, 0
4, 74400, Note_off_c, 1, 34, 0
4, 74400, Note_on_c, 1, 20, 100
4, 74400, Note_on_c, 1, 27, 100
4, 74400, Note_on_c, 1, 32, 100
4, 74400, Note_on_c, 1, 36, 100
4, 75360, Note_off_c, 1, 20, 0
4, 75360, Note_off_c, 1, 27, 0
4, 75360, Note_off_c, 1, 32, 0
4, 75360, Note_off_c, 1, 36, 0
4, 75360, Note_on_c, 1, 18, 100
4, 75360, Note_on_c, 1, 25, 100
4, 75360, Note_on_c, 1, 30, 100
4, 75360, Note_on_c, 1, 34, 100
4, 76320, Note_off_c, 1, 18, 0
4, 76320, Note_off_c, 1, 25, 0
4, 76320, Note_off_c, 1, 30, 0
4, 76320, Note_off_c, 1, 34, 0
4, 76320, Note_on_c, 1, 17, 100
4, 76320, Note_on_c, 1, 24, 100
4, 76320, Note_on_c, 1, 29, 100
4, 76320, Note_on_c, 1, 33, 100
4, 77280, Note_off_c, 1, 17, 0
4, 77280, Note_off_c, 1, 24, 0
4, 77280, Note_off_c, 1, 29, 0
4, 77280, Note_off_c, 1, 33, 0
4, 77280, Note_on_c, 1, 17, 100
4, 77280, Note_on_c, 1, 24, 100
4, 77280, Note_on_c, 1, 29, 100
4, 77280, Note_on_c, 1, 33, 100
4, 78240, Note_off_c, 1, 17, 0
4, 78240, Note_off_c, 1, 24, 0
4, 78240, Note_off_c, 1, 29, 0
4, 78240, Note_off_c, 1, 33, 0
4, 78240, Note_on_c, 1, 29, 100
4, 78672, Note_off_c, 1, 29, 0
4, 78720, Note_on_c, 1, 29, 100
4, 79152, Note_off_c, 1, 29, 0
4, 79200, Note_on_c, 1, 29, 100
4, 79632, Note_off_c, 1, 29, 0
4, 79680, Note_on_c, 1, 29, 99
4, 80112, Note_off_c, 1, 29, 0
4, 87840, Note_on_c, 1, 25, 100
4, 87840, Note_on_c, 1, 32, 100
4, 87840, Note_on_c, 1, 37, 100
4, 87840, Note_on_c, 1, 40, 100
4, 88800, Note_off_c, 1, 25, 0
4, 88800, Note_off_c, 1, 32, 0
4, 88800, Note_off_c, 1, 37, 0
4, 88800, Note_off_c, 1, 40, 0
4, 88800, Note_on_c, 1, 25, 100
4, 88800, Note_on_c, 1, 32, 100
4, 88800, Note_on_c, 1, 37, 100
4, 88800, Note_on_c, 1, 40, 100
4, 89760, Note_off_c, 1, 25, 0
4, 89760, Note_off_c, 1, 32, 0
4, 89760, Note_off_c, 1, 37, 0
4, 89760, Note_off_c, 1, 40, 0
4, 89760, Note_on_c, 1, 21, 100
4, 89760, Note_on_c, 1, 28, 100
4, 89760, Note_on_c, 1, 33, 100
4, 89760, Note_on_c, 1, 37, 100
4, 90720, Note_off_c, 1, 21, 0
4, 90720, Note_off_c, 1, 28, 0
4, 90720, Note_off_c, 1, 33, 0
4, 90720, Note_off_c, 1, 37, 0
4, 90720, Note_on_c, 1, 21, 100
4, 90720, Note_on_c, 1, 28, 100
4, 90720, Note_on_c, 1, 33, 100
4, 90720, Note_on_c, 1, 37, 100
4, 91680, Note_off_c, 1, 21, 0
4, 91680, Note_off_c, 1, 28, 0
4, 91680, Note_off_c, 1, 33, 0
4, 91680, Note_off_c, 1, 37, 0
4, 91680, Note_on_c, 1, 23, 100
4, 91680, Note_on_c, 1, 30, 100
4, 91680, Note_on_c, 1, 35, 100
4, 91680, Note_on_c, 1, 39, 100
4, 92640, Note_off_c, 1, 23, 0
4, 92640, Note_off_c, 1, 30, 0
4, 92640, Note_off_c, 1, 35, 0
4, 92640, Note_off_c, 1, 39, 0
4, 92640, Note_on_c, 1, 23, 100
4, 92640, Note_on_c, 1, 30, 100
4, 92640, Note_on_c, 1, 35, 100
4, 92640, Note_on_c, 1, 39, 100
4, 93600, Note_off_c, 1, 23, 0
4, 93600, Note_off_c, 1, 30, 0
4, 93600, Note_off_c, 1, 35, 0
4, 93600, Note_off_c, 1, 39, 0
4, 93600, Note_on_c, 1, 25, 100
4, 93600, Note_on_c, 1, 32, 100
4, 93600, Note_on_c, 1, 37, 100
4, 93600, Note_on_c, 1, 40, 100
4, 94560, Note_off_c, 1, 25, 0
4, 94560, Note_off_c, 1, 32, 0
4, 94560, Note_off_c, 1, 37, 0
4, 94560, Note_off_c, 1, 40, 0
4, 94560, Note_on_c, 1, 20, 100
4, 94560, Note_on_c, 1, 27, 100
4, 94560, Note_on_c, 1, 32, 100
4, 94560, Note_on_c, 1, 36, 100
4, 95520, Note_off_c, 1, 20, 0
4, 95520, Note_off_c, 1, 27, 0
4, 95520, Note_off_c, 1, 32, 0
4, 95520, Note_off_c, 1, 36, 0
4, 95520, Note_on_c, 1, 25, 100
4, 95520, Note_on_c, 1, 32, 100
4, 95520, Note_on_c, 1, 37, 100
4, 95520, Note_on_c, 1, 40, 100
4, 96480, Note_off_c, 1, 25, 0
4, 96480, Note_off_c, 1, 32, 0
4, 96480, Note_off_c, 1, 37, 0
4, 96480, Note_off_c, 1, 40, 0
4, 96480, Note_on_c, 1, 25, 100
4, 96480, Note_on_c, 1, 32, 100
4, 96480, Note_on_c, 1, 37, 100
4, 96480, Note_on_c, 1, 40, 100
4, 97440, Note_off_c, 1, 25, 0
4, 97440, Note_off_c, 1, 32, 0
4, 97440, Note_off_c, 1, 37, 0
4, 97440, Note_off_c, 1, 40, 0
4, 97440, Note_on_c, 1, 21, 100
4, 97440, Note_on_c, 1, 28, 100
4, 97440, Note_on_c, 1, 33, 100
4, 97440, Note_on_c, 1, 37, 100
4, 98400, Note_off_c, 1, 21, 0
4, 98400, Note_off_c, 1, 28, 0
4, 98400, Note_off_c, 1, 33, 0
4, 98400, Note_off_c, 1, 37, 0
4, 98400, Note_on_c, 1, 21, 100
4, 98400, Note_on_c, 1, 28, 100
4, 98400, Note_on_c, 1, 33, 100
4, 98400, Note_on_c, 1, 37, 100
4, 99360, Note_off_c, 1, 21, 0
4, 99360, Note_off_c, 1, 28, 0
4, 99360, Note_off_c, 1, 33, 0
4, 99360, Note_off_c, 1, 37, 0
4, 99360, Note_on_c, 1, 23, 100
4, 99360, Note_on_c, 1, 30, 100
4, 99360, Note_on_c, 1, 35, 100
4, 99360, Note_on_c, 1, 39, 100
4, 100320, Note_off_c, 1, 23, 0
4, 100320, Note_off_c, 1, 30, 0
4, 100320, Note_off_c, 1, 35, 0
4, 100320, Note_off_c, 1, 39, 0
4, 100320, Note_on_c, 1, 23, 100
4, 100320, Note_on_c, 1, 30, 100
4, 100320, Note_on_c, 1, 35, 100
4, 100320, Note_on_c, 1, 39, 100
4, 101280, Note_off_c, 1, 23, 0
4, 101280, Note_off_c, 1, 30, 0
4, 101280, Note_off_c, 1, 35, 0
4, 101280, Note_off_c, 1, 39, 0
4, 101280, Note_on_c, 1, 25, 100
4, 101280, Note_on_c, 1, 32, 100
4, 101280, Note_on_c, 1, 37, 100
4, 101280, Note_on_c, 1, 40, 100
4, 101280, Note_on_c, 1, 28, 100
4, 101280, Note_on_c, 1, 20, 100
4, 102240, Note_off_c, 1, 25, 0
4, 102240, Note_off_c, 1, 32, 0
4, 102240, Note_off_c, 1, 37, 0
4, 102240, Note_off_c, 1, 40, 0
4, 102240, Note_off_c, 1, 28, 0
4, 102240, Note_off_c, 1, 20, 0
4, 102240, Note_on_c, 1, 32, 100
4, 102240, Note_on_c, 1, 36, 100
4, 102240, Note_on_c, 1, 20, 100
4, 102240, Note_on_c, 1, 24, 100
4, 103200, Note_off_c, 1, 32, 0
4, 103200, Note_off_c, 1, 36, 0
4, 103200, Note_off_c, 1, 20, 0
4, 103200, Note_off_c, 1, 24, 0
4, 122400, Note_on_c, 1, 46, 100
4, 122400, Note_on_c, 1, 49, 100
4, 122400, Note_on_c, 1, 53, 100
4, 122400, Note_on_c, 1, 58, 100
4, 124320, Note_off_c, 1, 46, 0
4, 124320, Note_off_c, 1, 49, 0
4, 124320, Note_off_c, 1, 53, 0
4, 124320, Note_off_c, 1, 58, 0
4, 124320, Note_on_c, 1, 26, 1
4, 124320, Note_on_c, 1, 42, 100
4, 124320, Note_on_c, 1, 45, 100
4, 124320, Note_on_c, 1, 49, 100
4, 124320, Note_on_c, 1, 54, 100
4, 124320, Note_on_c, 1, 58, 100
4, 124752, Note_off_c, 1, 26, 0
4, 124800, Note_on_c, 1, 26, 1
4, 125232, Note_off_c, 1, 26, 0
4, 125280, Note_on_c, 1, 26, 1
4, 125712, Note_off_c, 1, 26, 0
4, 125760, Note_on_c, 1, 26, 1
4, 126192, Note_off_c, 1, 26, 0
4, 126240, Note_off_c, 1, 42, 0
4, 126240, Note_off_c, 1, 45, 0
4, 126240, Note_off_c, 1, 49, 0
4, 126240, Note_off_c, 1, 54, 0
4, 126240, Note_off_c, 1, 58, 0
4, 126240, Note_on_c, 1, 60, 100
4, 126240, Note_on_c, 1, 56, 100
4, 126240, Note_on_c, 1, 51, 100
4, 126240, Note_on_c, 1, 44, 100
4, 127200, Note_off_c, 1, 60, 0
4, 127200, Note_off_c, 1, 56, 0
4, 127200, Note_off_c, 1, 51, 0
4, 127200, Note_off_c, 1, 44, 0
4, 127200, Note_on_c, 1, 42, 100
4, 127200, Note_on_c, 1, 49, 100
4, 127200, Note_on_c, 1, 54, 100
4, 127200, Note_on_c, 1, 58, 100
4, 128160, Note_off_c, 1, 42, 0
4, 128160, Note_off_c, 1, 49, 0
4, 128160, Note_off_c, 1, 54, 0
4, 128160, Note_off_c, 1, 58, 0
4, 128160, Note_on_c, 1, 41, 100
4, 128160, Note_on_c, 1, 48, 100
4, 128160, Note_on_c, 1, 53, 100
4, 128160, Note_on_c, 1, 57, 100
4, 129120, Note_off_c, 1, 41, 0
4, 129120, Note_off_c, 1, 48, 0
4, 129120, Note_off_c, 1, 53, 0
4, 129120, Note_off_c, 1, 57, 0
4, 129120, Note_on_c, 1, 41, 100
4, 129120, Note_on_c, 1, 48, 100
4, 129120, Note_on_c, 1, 53, 100
4, 129120, Note_on_c, 1, 57, 100
4, 130080, Note_off_c, 1, 41, 0
4, 130080, Note_off_c, 1, 48, 0
4, 130080, Note_off_c, 1, 53, 0
4, 130080, Note_off_c, 1, 57, 0
4, 130080, Note_on_c, 1, 46, 100
4, 130080, Note_on_c, 1, 53, 100
4, 130080, Note_on_c, 1, 58, 100
4, 130080, Note_on_c, 1, 61, 100
4, 131040, Note_off_c, 1, 46, 0
4, 131040, Note_off_c, 1, 53, 0
4, 131040, Note_off_c, 1, 58, 0
4, 131040, Note_off_c, 1, 61, 0
4, 131040, Note_on_c, 1, 46, 100
4, 131040, Note_on_c, 1, 53, 100
4, 131040, Note_on_c, 1, 58, 100
4, 131040, Note_on_c, 1, 61, 100
4, 132000, Note_off_c, 1, 46, 0
4, 132000, Note_off_c, 1, 53, 0
4, 132000, Note_off_c, 1, 58, 0
4, 132000, Note_off_c, 1, 61, 0
4, 132000, Note_on_c, 1, 42, 100
4, 132000, Note_on_c, 1, 49, 100
4, 132000, Note_on_c, 1, 54, 100
4, 132000, Note_on_c, 1, 58, 100
4, 132960, Note_off_c, 1, 42, 0
4, 132960, Note_off_c, 1, 49, 0
4, 132960, Note_off_c, 1, 54, 0
4, 132960, Note_off_c, 1, 58, 0
4, 132960, Note_on_c, 1, 42, 100
4, 132960, Note_on_c, 1, 49, 100
4, 132960, Note_on_c, 1, 54, 100
4, 132960, Note_on_c, 1, 58, 100
4, 133920, Note_off_c, 1, 42, 0
4, 133920, Note_off_c, 1, 49, 0
4, 133920, Note_off_c, 1, 54, 0
4, 133920, Note_off_c, 1, 58, 0
4, 133920, Note_on_c, 1, 44, 100
4, 133920, Note_on_c, 1, 51, 100
4, 133920, Note_on_c, 1, 56, 100
4, 133920, Note_on_c, 1, 60, 100
4, 134880, Note_off_c, 1, 44, 0
4, 134880, Note_off_c, 1, 51, 0
4, 134880, Note_off_c, 1, 56, 0
4, 134880, Note_off_c, 1, 60, 0
4, 134880, Note_on_c, 1, 42, 100
4, 134880, Note_on_c, 1, 49, 100
4, 134880, Note_on_c, 1, 54, 100
4, 134880, Note_on_c, 1, 58, 100
4, 135840, Note_off_c, 1, 42, 0
4, 135840, Note_off_c, 1, 49, 0
4, 135840, Note_off_c, 1, 54, 0
4, 135840, Note_off_c, 1, 58, 0
4, 135840, Note_on_c, 1, 41, 100
4, 135840, Note_on_c, 1, 48, 100
4, 135840, Note_on_c, 1, 53, 100
4, 135840, Note_on_c, 1, 57, 100
4, 136800, Note_off_c, 1, 41, 0
4, 136800, Note_off_c, 1, 48, 0
4, 136800, Note_off_c, 1, 53, 0
4, 136800, Note_off_c, 1, 57, 0
4, 136800, Note_on_c, 1, 41, 100
4, 136800, Note_on_c, 1, 48, 100
4, 136800, Note_on_c, 1, 53, 100
4, 136800, Note_on_c, 1, 57, 100
4, 137760, Note_off_c, 1, 41, 0
4, 137760, Note_off_c, 1, 48, 0
4, 137760, Note_off_c, 1, 53, 0
4, 137760, Note_off_c, 1, 57, 0
4, 137760, Note_on_c, 1, 22, 100
4, 137760, Note_on_c, 1, 25, 100
4, 137760, Note_on_c, 1, 29, 100
4, 137760, Note_on_c, 1, 34, 100
4, 139680, Note_off_c, 1, 22, 0
4, 139680, Note_off_c, 1, 25, 0
4, 139680, Note_off_c, 1, 29, 0
4, 139680, Note_off_c, 1, 34, 0
4, 139680, Note_on_c, 1, 18, 100
4, 139680, Note_on_c, 1, 21, 100
4, 139680, Note_on_c, 1, 25, 100
4, 139680, Note_on_c, 1, 30, 100
4, 139680, Note_on_c, 1, 34, 100
4, 141600, Note_off_c, 1, 18, 0
4, 141600, Note_off_c, 1, 21, 0
4, 141600, Note_off_c, 1, 25, 0
4, 141600, Note_off_c, 1, 30, 0
4, 141600, Note_off_c, 1, 34, 0
4, 141600, Note_on_c, 1, 36, 100
4, 141600, Note_on_c, 1, 32, 100
4, 141600, Note_on_c, 1, 27, 100
4, 141600, Note_on_c, 1, 20, 100
4, 142560, Note_off_c, 1, 36, 0
4, 142560, Note_off_c, 1, 32, 0
4, 142560, Note_off_c, 1, 27, 0
4, 142560, Note_off_c, 1, 20, 0
4, 142560, Note_on_c, 1, 18, 100
4, 142560, Note_on_c, 1, 25, 100
4, 142560, Note_on_c, 1, 30, 100
4, 142560, Note_on_c, 1, 34, 100
4, 143520, Note_off_c, 1, 18, 0
4, 143520, Note_off_c, 1, 25, 0
4, 143520, Note_off_c, 1, 30, 0
4, 143520, Note_off_c, 1, 34, 0
4, 143520, Note_on_c, 1, 17, 100
4, 143520, Note_on_c, 1, 24, 100
4, 143520, Note_on_c, 1, 29, 100
4, 143520, Note_on_c, 1, 33, 100
4, 144480, Note_off_c, 1, 17, 0
4, 144480, Note_off_c, 1, 24, 0
4, 144480, Note_off_c, 1, 29, 0
4, 144480, Note_off_c, 1, 33, 0
4, 144480, Note_on_c, 1, 17, 100
4, 144480, Note_on_c, 1, 24, 100
4, 144480, Note_on_c, 1, 29, 100
4, 144480, Note_on_c, 1, 33, 100
4, 145440, Note_off_c, 1, 17, 0
4, 145440, Note_off_c, 1, 24, 0
4, 145440, Note_off_c, 1, 29, 0
4, 145440, Note_off_c, 1, 33, 0
4, 145440, Note_on_c, 1, 22, 100
4, 145440, Note_on_c, 1, 29, 100
4, 145440, Note_on_c, 1, 34, 100
4, 145440, Note_on_c, 1, 37, 100
4, 146400, Note_off_c, 1, 22, 0
4, 146400, Note_off_c, 1, 29, 0
4, 146400, Note_off_c, 1, 34, 0
4, 146400, Note_off_c, 1, 37, 0
4, 146400, Note_on_c, 1, 22, 100
4, 146400, Note_on_c, 1, 29, 100
4, 146400, Note_on_c, 1, 34, 100
4, 146400, Note_on_c, 1, 37, 100
4, 147360, Note_off_c, 1, 22, 0
4, 147360, Note_off_c, 1, 29, 0
4, 147360, Note_off_c, 1, 34, 0
4, 147360, Note_off_c, 1, 37, 0
4, 147360, Note_on_c, 1, 18, 100
4, 147360, Note_on_c, 1, 25, 100
4, 147360, Note_on_c, 1, 30, 100
4, 147360, Note_on_c, 1, 34, 100
4, 148320, Note_off_c, 1, 18, 0
4, 148320, Note_off_c, 1, 25, 0
4, 148320, Note_off_c, 1, 30, 0
4, 148320, Note_off_c, 1, 34, 0
4, 148320, Note_on_c, 1, 18, 100
4, 148320, Note_on_c, 1, 25, 100
4, 148320, Note_on_c, 1, 30, 100
4, 148320, Note_on_c, 1, 34, 100
4, 149280, Note_off_c, 1, 18, 0
4, 149280, Note_off_c, 1, 25, 0
4, 149280, Note_off_c, 1, 30, 0
4, 149280, Note_off_c, 1, 34, 0
4, 149280, Note_on_c, 1, 20, 100
4, 149280, Note_on_c, 1, 27, 100
4, 149280, Note_on_c, 1, 32, 100
4, 149280, Note_on_c, 1, 36, 100
4, 150240, Note_off_c, 1, 20, 0
4, 150240, Note_off_c, 1, 27, 0
4, 150240, Note_off_c, 1, 32, 0
4, 150240, Note_off_c, 1, 36, 0
4, 150240, Note_on_c, 1, 18, 100
4, 150240, Note_on_c, 1, 25, 100
4, 150240, Note_on_c, 1, 30, 100
4, 150240, Note_on_c, 1, 34, 100
4, 151200, Note_off_c, 1, 18, 0
4, 151200, Note_off_c, 1, 25, 0
4, 151200, Note_off_c, 1, 30, 0
4, 151200, Note_off_c, 1, 34, 0
4, 151200, Note_on_c, 1, 17, 100
4, 151200, Note_on_c, 1, 24, 100
4, 151200, Note_on_c, 1, 29, 100
4, 151200, Note_on_c, 1, 33, 100
4, 152160, Note_off_c, 1, 17, 0
4, 152160, Note_off_c, 1, 24, 0
4, 152160, Note_off_c, 1, 29, 0
4, 152160, Note_off_c, 1, 33, 0
4, 152160, Note_on_c, 1, 17, 100
4, 152160, Note_on_c, 1, 24, 100
4, 152160, Note_on_c, 1, 29, 100
4, 152160, Note_on_c, 1, 33, 100
4, 153120, Note_off_c, 1, 17, 0
4, 153120, Note_off_c, 1, 24, 0
4, 153120, Note_off_c, 1, 29, 0
4, 153120, Note_off_c, 1, 33, 0
4, 153120, Note_on_c, 1, 46, 100
4, 153120, Note_on_c, 1, 53, 100
4, 153120, Note_on_c, 1, 58, 100
4, 153120, Note_on_c, 1, 61, 100
4, 154080, Note_off_c, 1, 46, 0
4, 154080, Note_off_c, 1, 53, 0
4, 154080, Note_off_c, 1, 58, 0
4, 154080, Note_off_c, 1, 61, 0
4, 154080, Note_on_c, 1, 46, 100
4, 154080, Note_on_c, 1, 53, 100
4, 154080, Note_on_c, 1, 58, 100
4, 154080, Note_on_c, 1, 61, 100
4, 155040, Note_off_c, 1, 46, 0
4, 155040, Note_off_c, 1, 53, 0
4, 155040, Note_off_c, 1, 58, 0
4, 155040, Note_off_c, 1, 61, 0
4, 155040, Note_on_c, 1, 42, 100
4, 155040, Note_on_c, 1, 49, 100
4, 155040, Note_on_c, 1, 54, 100
4, 155040, Note_on_c, 1, 58, 100
4, 156000, Note_off_c, 1, 42, 0
4, 156000, Note_off_c, 1, 49, 0
4, 156000, Note_off_c, 1, 54, 0
4, 156000, Note_off_c, 1, 58, 0
4, 156000, Note_on_c, 1, 42, 100
4, 156000, Note_on_c, 1, 49, 100
4, 156000, Note_on_c, 1, 54, 100
4, 156000, Note_on_c, 1, 58, 100
4, 156960, Note_off_c, 1, 42, 0
4, 156960, Note_off_c, 1, 49, 0
4, 156960, Note_off_c, 1, 54, 0
4, 156960, Note_off_c, 1, 58, 0
4, 156960, Note_on_c, 1, 44, 100
4, 156960, Note_on_c, 1, 51, 100
4, 156960, Note_on_c, 1, 56, 100
4, 156960, Note_on_c, 1, 60, 100
4, 157920, Note_off_c, 1, 44, 0
4, 157920, Note_off_c, 1, 51, 0
4, 157920, Note_off_c, 1, 56, 0
4, 157920, Note_off_c, 1, 60, 0
4, 157920, Note_on_c, 1, 42, 100
4, 157920, Note_on_c, 1, 49, 100
4, 157920, Note_on_c, 1, 54, 100
4, 157920, Note_on_c, 1, 58, 100
4, 158880, Note_off_c, 1, 42, 0
4, 158880, Note_off_c, 1, 49, 0
4, 158880, Note_off_c, 1, 54, 0
4, 158880, Note_off_c, 1, 58, 0
4, 158880, Note_on_c, 1, 41, 100
4, 158880, Note_on_c, 1, 48, 100
4, 158880, Note_on_c, 1, 53, 100
4, 158880, Note_on_c, 1, 57, 100
4, 159840, Note_off_c, 1, 41, 0
4, 159840, Note_off_c, 1, 48, 0
4, 159840, Note_off_c, 1, 53, 0
4, 159840, Note_off_c, 1, 57, 0
4, 159840, Note_on_c, 1, 41, 100
4, 159840, Note_on_c, 1, 48, 100
4, 159840, Note_on_c, 1, 53, 100
4, 159840, Note_on_c, 1, 57, 100
4, 160800, Note_off_c, 1, 41, 0
4, 160800, Note_off_c, 1, 48, 0
4, 160800, Note_off_c, 1, 53, 0
4, 160800, Note_off_c, 1, 57, 0
4, 160800, Note_on_c, 1, 46, 100
4, 160800, Note_on_c, 1, 53, 100
4, 160800, Note_on_c, 1, 58, 100
4, 160800, Note_on_c, 1, 61, 100
4, 161760, Note_off_c, 1, 46, 0
4, 161760, Note_off_c, 1, 53, 0
4, 161760, Note_off_c, 1, 58, 0
4, 161760, Note_off_c, 1, 61, 0
4, 161760, Note_on_c, 1, 46, 100
4, 161760, Note_on_c, 1, 53, 100
4, 161760, Note_on_c, 1, 58, 100
4, 161760, Note_on_c, 1, 61, 100
4, 162720, Note_off_c, 1, 46, 0
4, 162720, Note_off_c, 1, 53, 0
4, 162720, Note_off_c, 1, 58, 0
4, 162720, Note_off_c, 1, 61, 0
4, 162720, Note_on_c, 1, 42, 100
4, 162720, Note_on_c, 1, 49, 100
4, 162720, Note_on_c, 1, 54, 100
4, 162720, Note_on_c, 1, 58, 100
4, 163680, Note_off_c, 1, 42, 0
4, 163680, Note_off_c, 1, 49, 0
4, 163680, Note_off_c, 1, 54, 0
4, 163680, Note_off_c, 1, 58, 0
4, 163680, Note_on_c, 1, 42, 100
4, 163680, Note_on_c, 1, 49, 100
4, 163680, Note_on_c, 1, 54, 100
4, 163680, Note_on_c, 1, 58, 100
4, 164640, Note_off_c, 1, 42, 0
4, 164640, Note_off_c, 1, 49, 0
4, 164640, Note_off_c, 1, 54, 0
4, 164640, Note_off_c, 1, 58, 0
4, 164640, Note_on_c, 1, 44, 100
4, 164640, Note_on_c, 1, 51, 100
4, 164640, Note_on_c, 1, 56, 100
4, 164640, Note_on_c, 1, 60, 100
4, 164640, Note_on_c, 1, 63, 100
4, 165600, Note_off_c, 1, 44, 0
4, 165600, Note_off_c, 1, 51, 0
4, 165600, Note_off_c, 1, 56, 0
4, 165600, Note_off_c, 1, 60, 0
4, 165600, Note_off_c, 1, 63, 0
4, 165600, Note_on_c, 1, 42, 100
4, 165600, Note_on_c, 1, 49, 100
4, 165600, Note_on_c, 1, 54, 100
4, 165600, Note_on_c, 1, 58, 100
4, 165600, Note_on_c, 1, 61, 100
4, 166560, Note_off_c, 1, 42, 0
4, 166560, Note_off_c, 1, 49, 0
4, 166560, Note_off_c, 1, 54, 0
4, 166560, Note_off_c, 1, 58, 0
4, 166560, Note_off_c, 1, 61, 0
4, 166560, Note_on_c, 1, 41, 100
4, 166560, Note_on_c, 1, 48, 100
4, 166560, Note_on_c, 1, 53, 100
4, 166560, Note_on_c, 1, 60, 100
4, 167520, Note_off_c, 1, 41, 0
4, 167520, Note_off_c, 1, 48, 0
4, 167520, Note_off_c, 1, 53, 0
4, 167520, Note_off_c, 1, 60, 0
4, 167520, Note_on_c, 1, 41, 100
4, 167520, Note_on_c, 1, 48, 100
4, 167520, Note_on_c, 1, 53, 100
4, 167520, Note_on_c, 1, 60, 100
4, 168480, Note_off_c, 1, 41, 0
4, 168480, Note_off_c, 1, 48, 0
4, 168480, Note_off_c, 1, 53, 0
4, 168480, Note_off_c, 1, 60, 0
4, 168480, Note_on_c, 1, 41, 100
4, 168480, Note_on_c, 1, 48, 100
4, 168480, Note_on_c, 1, 53, 100
4, 168480, Note_on_c, 1, 57, 100
4, 169440, Note_off_c, 1, 41, 0
4, 169440, Note_off_c, 1, 48, 0
4, 169440, Note_off_c, 1, 53, 0
4, 169440, Note_off_c, 1, 57, 0
4, 169440, Note_on_c, 1, 41, 100
4, 169440, Note_on_c, 1, 48, 100
4, 169440, Note_on_c, 1, 53, 100
4, 169440, Note_on_c, 1, 57, 100
4, 169440, Note_on_c, 1, 60, 100
4, 169440, Note_on_c, 1, 65, 100
4, 170400, Note_off_c, 1, 41, 0
4, 170400, Note_off_c, 1, 48, 0
4, 170400, Note_off_c, 1, 53, 0
4, 170400, Note_off_c, 1, 57, 0
4, 170400, Note_off_c, 1, 60, 0
4, 170400, Note_off_c, 1, 65, 0
4, 179999, End_track
5, 0, Start_track
5, 0, Title_t, ""
5, 0, MIDI_port, 0
5, 32160, Note_on_c, 2, 37, 100
5, 32160, Note_on_c, 2, 44, 100
5, 32160, Note_on_c, 2, 49, 100
5, 32160, Note_on_c, 2, 52, 100
5, 33120, Note_off_c, 2, 37, 0
5, 33120, Note_off_c, 2, 44, 0
5, 33120, Note_off_c, 2, 49, 0
5, 33120, Note_off_c, 2, 52, 0
5, 33120, Note_on_c, 2, 37, 100
5, 33120, Note_on_c, 2, 44, 100
5, 33120, Note_on_c, 2, 49, 100
5, 33120, Note_on_c, 2, 52, 100
5, 34080, Note_off_c, 2, 37, 0
5, 34080, Note_off_c, 2, 44, 0
5, 34080, Note_off_c, 2, 49, 0
5, 34080, Note_off_c, 2, 52, 0
5, 34080, Note_on_c, 2, 33, 100
5, 34080, Note_on_c, 2, 40, 100
5, 34080, Note_on_c, 2, 45, 100
5, 34080, Note_on_c, 2, 49, 100
5, 35040, Note_off_c, 2, 33, 0
5, 35040, Note_off_c, 2, 40, 0
5, 35040, Note_off_c, 2, 45, 0
5, 35040, Note_off_c, 2, 49, 0
5, 35040, Note_on_c, 2, 33, 100
5, 35040, Note_on_c, 2, 40, 100
5, 35040, Note_on_c, 2, 45, 100
5, 35040, Note_on_c, 2, 49, 100
5, 36000, Note_off_c, 2, 33, 0
5, 36000, Note_off_c, 2, 40, 0
5, 36000, Note_off_c, 2, 45, 0
5, 36000, Note_off_c, 2, 49, 0
5, 36000, Note_on_c, 2, 35, 100
5, 36000, Note_on_c, 2, 42, 100
5, 36000, Note_on_c, 2, 47, 100
5, 36000, Note_on_c, 2, 51, 100
5, 36960, Note_off_c, 2, 35, 0
5, 36960, Note_off_c, 2, 42, 0
5, 36960, Note_off_c, 2, 47, 0
5, 36960, Note_off_c, 2, 51, 0
5, 36960, Note_on_c, 2, 35, 100
5, 36960, Note_on_c, 2, 42, 100
5, 36960, Note_on_c, 2, 47, 100
5, 36960, Note_on_c, 2, 51, 100
5, 37920, Note_off_c, 2, 35, 0
5, 37920, Note_off_c, 2, 42, 0
5, 37920, Note_off_c, 2, 47, 0
5, 37920, Note_off_c, 2, 51, 0
5, 37920, Note_on_c, 2, 37, 100
5, 37920, Note_on_c, 2, 44, 100
5, 37920, Note_on_c, 2, 49, 100
5, 37920, Note_on_c, 2, 52, 100
5, 38880, Note_off_c, 2, 37, 0
5, 38880, Note_off_c, 2, 44, 0
5, 38880, Note_off_c, 2, 49, 0
5, 38880, Note_off_c, 2, 52, 0
5, 38880, Note_on_c, 2, 32, 100
5, 38880, Note_on_c, 2, 39, 100
5, 38880, Note_on_c, 2, 44, 100
5, 38880, Note_on_c, 2, 48, 100
5, 39840, Note_off_c, 2, 32, 0
5, 39840, Note_off_c, 2, 39, 0
5, 39840, Note_off_c, 2, 44, 0
5, 39840, Note_off_c, 2, 48, 0
5, 39840, Note_on_c, 2, 37, 100
5, 39840, Note_on_c, 2, 44, 100
5, 39840, Note_on_c, 2, 49, 100
5, 39840, Note_on_c, 2, 52, 100
5, 40800, Note_off_c, 2, 37, 0
5, 40800, Note_off_c, 2, 44, 0
5, 40800, Note_off_c, 2, 49, 0
5, 40800, Note_off_c, 2, 52, 0
5, 40800, Note_on_c, 2, 37, 100
5, 40800, Note_on_c, 2, 44, 100
5, 40800, Note_on_c, 2, 49, 100
5, 40800, Note_on_c, 2, 52, 100
5, 41760, Note_off_c, 2, 37, 0
5, 41760, Note_off_c, 2, 44, 0
5, 41760, Note_off_c, 2, 49, 0
5, 41760, Note_off_c, 2, 52, 0
5, 41760, Note_on_c, 2, 33, 100
5, 41760, Note_on_c, 2, 40, 100
5, 41760, Note_on_c, 2, 45, 100
5, 41760, Note_on_c, 2, 49, 100
5, 42720, Note_off_c, 2, 33, 0
5, 42720, Note_off_c, 2, 40, 0
5, 42720, Note_off_c, 2, 45, 0
5, 42720, Note_off_c, 2, 49, 0
5, 42720, Note_on_c, 2, 33, 100
5, 42720, Note_on_c, 2, 40, 100
5, 42720, Note_on_c, 2, 45, 100
5, 42720, Note_on_c, 2, 49, 100
5, 43680, Note_off_c, 2, 33, 0
5, 43680, Note_off_c, 2, 40, 0
5, 43680, Note_off_c, 2, 45, 0
5, 43680, Note_off_c, 2, 49, 0
5, 43680, Note_on_c, 2, 35, 100
5, 43680, Note_on_c, 2, 42, 100
5, 43680, Note_on_c, 2, 47, 100
5, 43680, Note_on_c, 2, 51, 100
5, 44640, Note_off_c, 2, 35, 0
5, 44640, Note_off_c, 2, 42, 0
5, 44640, Note_off_c, 2, 47, 0
5, 44640, Note_off_c, 2, 51, 0
5, 44640, Note_on_c, 2, 35, 100
5, 44640, Note_on_c, 2, 42, 100
5, 44640, Note_on_c, 2, 47, 100
5, 44640, Note_on_c, 2, 51, 100
5, 45600, Note_off_c, 2, 35, 0
5, 45600, Note_off_c, 2, 42, 0
5, 45600, Note_off_c, 2, 47, 0
5, 45600, Note_off_c, 2, 51, 0
5, 45600, Note_on_c, 2, 37, 100
5, 45600, Note_on_c, 2, 44, 100
5, 45600, Note_on_c, 2, 49, 100
5, 45600, Note_on_c, 2, 52, 100
5, 45600, Note_on_c, 2, 40, 100
5, 45600, Note_on_c, 2, 32, 100
5, 46560, Note_off_c, 2, 37, 0
5, 46560, Note_off_c, 2, 44, 0
5, 46560, Note_off_c, 2, 49, 0
5, 46560, Note_off_c, 2, 52, 0
5, 46560, Note_off_c, 2, 40, 0
5, 46560, Note_off_c, 2, 32, 0
5, 46560, Note_on_c, 2, 44, 100
5, 46560, Note_on_c, 2, 48, 100
5, 46560, Note_on_c, 2, 32, 100
5, 46560, Note_on_c, 2, 36, 100
5, 47520, Note_off_c, 2, 44, 0
5, 47520, Note_off_c, 2, 48, 0
5, 47520, Note_off_c, 2, 32, 0
5, 47520, Note_off_c, 2, 36, 0
5, 62880, Note_on_c, 2, 58, 100
5, 62880, Note_on_c, 2, 61, 100
5, 62880, Note_on_c, 2, 65, 100
5, 62880, Note_on_c, 2, 70, 100
5, 64800, Note_off_c, 2, 58, 0
5, 64800, Note_off_c, 2, 61, 0
5, 64800, Note_off_c, 2, 65, 0
5, 64800, Note_off_c, 2, 70, 0
5, 64800, Note_on_c, 2, 54, 100
5, 64800, Note_on_c, 2, 57, 100
5, 64800, Note_on_c, 2, 61, 100
5, 64800, Note_on_c, 2, 66, 100
5, 64800, Note_on_c, 2, 70, 100
5, 66720, Note_off_c, 2, 54, 0
5, 66720, Note_off_c, 2, 57, 0
5, 66720, Note_off_c, 2, 61, 0
5, 66720, Note_off_c, 2, 66, 0
5, 66720, Note_off_c, 2, 70, 0
5, 66720, Note_on_c, 2, 72, 100
5, 66720, Note_on_c, 2, 68, 100
5, 66720, Note_on_c, 2, 63, 100
5, 66720, Note_on_c, 2, 56, 100
5, 67680, Note_off_c, 2, 72, 0
5, 67680, Note_off_c, 2, 68, 0
5, 67680, Note_off_c, 2, 63, 0
5, 67680, Note_off_c, 2, 56, 0
5, 67680, Note_on_c, 2, 54, 100
5, 67680, Note_on_c, 2, 61, 100
5, 67680, Note_on_c, 2, 66, 100
5, 67680, Note_on_c, 2, 70, 100
5, 68640, Note_off_c, 2, 54, 0
5, 68640, Note_off_c, 2, 61, 0
5, 68640, Note_off_c, 2, 66, 0
5, 68640, Note_off_c, 2, 70, 0
5, 68640, Note_on_c, 2, 53, 100
5, 68640, Note_on_c, 2, 60, 100
5, 68640, Note_on_c, 2, 65, 100
5, 68640, Note_on_c, 2, 69, 100
5, 69600, Note_off_c, 2, 53, 0
5, 69600, Note_off_c, 2, 60, 0
5, 69600, Note_off_c, 2, 65, 0
5, 69600, Note_off_c, 2, 69, 0
5, 69600, Note_on_c, 2, 53, 100
5, 69600, Note_on_c, 2, 60, 100
5, 69600, Note_on_c, 2, 65, 100
5, 69600, Note_on_c, 2, 69, 100
5, 70560, Note_off_c, 2, 53, 0
5, 70560, Note_off_c, 2, 60, 0
5, 70560, Note_off_c, 2, 65, 0
5, 70560, Note_off_c, 2, 69, 0
5, 70560, Note_on_c, 2, 58, 100
5, 70560, Note_on_c, 2, 65, 100
5, 70560, Note_on_c, 2, 70, 100
5, 70560, Note_on_c, 2, 73, 100
5, 71520, Note_off_c, 2, 58, 0
5, 71520, Note_off_c, 2, 65, 0
5, 71520, Note_off_c, 2, 70, 0
5, 71520, Note_off_c, 2, 73, 0
5, 71520, Note_on_c, 2, 58, 100
5, 71520, Note_on_c, 2, 65, 100
5, 71520, Note_on_c, 2, 70, 100
5, 71520, Note_on_c, 2, 73, 100
5, 72480, Note_off_c, 2, 58, 0
5, 72480, Note_off_c, 2, 65, 0
5, 72480, Note_off_c, 2, 70, 0
5, 72480, Note_off_c, 2, 73, 0
5, 72480, Note_on_c, 2, 54, 100
5, 72480, Note_on_c, 2, 61, 100
5, 72480, Note_on_c, 2, 66, 100
5, 72480, Note_on_c, 2, 70, 100
5, 73440, Note_off_c, 2, 54, 0
5, 73440, Note_off_c, 2, 61, 0
5, 73440, Note_off_c, 2, 66, 0
5, 73440, Note_off_c, 2, 70, 0
5, 73440, Note_on_c, 2, 54, 100
5, 73440, Note_on_c, 2, 61, 100
5, 73440, Note_on_c, 2, 66, 100
5, 73440, Note_on_c, 2, 70, 100
5, 74400, Note_off_c, 2, 54, 0
5, 74400, Note_off_c, 2, 61, 0
5, 74400, Note_off_c, 2, 66, 0
5, 74400, Note_off_c, 2, 70, 0
5, 74400, Note_on_c, 2, 56, 100
5, 74400, Note_on_c, 2, 63, 100
5, 74400, Note_on_c, 2, 68, 100
5, 74400, Note_on_c, 2, 72, 100
5, 75360, Note_off_c, 2, 56, 0
5, 75360, Note_off_c, 2, 63, 0
5, 75360, Note_off_c, 2, 68, 0
5, 75360, Note_off_c, 2, 72, 0
5, 75360, Note_on_c, 2, 54, 100
5, 75360, Note_on_c, 2, 61, 100
5, 75360, Note_on_c, 2, 66, 100
5, 75360, Note_on_c, 2, 70, 100
5, 76320, Note_off_c, 2, 54, 0
5, 76320, Note_off_c, 2, 61, 0
5, 76320, Note_off_c, 2, 66, 0
5, 76320, Note_off_c, 2, 70, 0
5, 76320, Note_on_c, 2, 53, 100
5, 76320, Note_on_c, 2, 60, 100
5, 76320, Note_on_c, 2, 65, 100
5, 76320, Note_on_c, 2, 69, 100
5, 77280, Note_off_c, 2, 53, 0
5, 77280, Note_off_c, 2, 60, 0
5, 77280, Note_off_c, 2, 65, 0
5, 77280, Note_off_c, 2, 69, 0
5, 77280, Note_on_c, 2, 53, 100
5, 77280, Note_on_c, 2, 60, 100
5, 77280, Note_on_c, 2, 65, 100
5, 77280, Note_on_c, 2, 69, 100
5, 78240, Note_off_c, 2, 53, 0
5, 78240, Note_off_c, 2, 60, 0
5, 78240, Note_off_c, 2, 65, 0
5, 78240, Note_off_c, 2, 69, 0
5, 87840, Note_on_c, 2, 25, 100
5, 87870, Note_off_c, 2, 25, 0
5, 87870, Note_on_c, 2, 25, 100
5, 87900, Note_off_c, 2, 25, 0
5, 87900, Note_on_c, 2, 25, 100
5, 87930, Note_off_c, 2, 25, 0
5, 87930, Note_on_c, 2, 25, 100
5, 87960, Note_off_c, 2, 25, 0
5, 87960, Note_on_c, 2, 25, 100
5, 87990, Note_off_c, 2, 25, 0
5, 87990, Note_on_c, 2, 25, 100
5, 88020, Note_off_c, 2, 25, 0
5, 88020, Note_on_c, 2, 25, 100
5, 88050, Note_off_c, 2, 25, 0
5, 88050, Note_on_c, 2, 25, 100
5, 88080, Note_off_c, 2, 25, 0
5, 88080, Note_on_c, 2, 25, 100
5, 88110, Note_off_c, 2, 25, 0
5, 88110, Note_on_c, 2, 25, 100
5, 88140, Note_off_c, 2, 25, 0
5, 88140, Note_on_c, 2, 25, 100
5, 88170, Note_off_c, 2, 25, 0
5, 88170, Note_on_c, 2, 25, 100
5, 88200, Note_off_c, 2, 25, 0
5, 88200, Note_on_c, 2, 25, 100
5, 88230, Note_off_c, 2, 25, 0
5, 88230, Note_on_c, 2, 25, 100
5, 88260, Note_off_c, 2, 25, 0
5, 88260, Note_on_c, 2, 25, 100
5, 88290, Note_off_c, 2, 25, 0
5, 88290, Note_on_c, 2, 25, 100
5, 88320, Note_off_c, 2, 25, 0
5, 88320, Note_on_c, 2, 25, 100
5, 88350, Note_off_c, 2, 25, 0
5, 88350, Note_on_c, 2, 25, 100
5, 88380, Note_off_c, 2, 25, 0
5, 88380, Note_on_c, 2, 25, 100
5, 88410, Note_off_c, 2, 25, 0
5, 88410, Note_on_c, 2, 25, 100
5, 88440, Note_off_c, 2, 25, 0
5, 88440, Note_on_c, 2, 25, 100
5, 88470, Note_off_c, 2, 25, 0
5, 88470, Note_on_c, 2, 25, 100
5, 88500, Note_off_c, 2, 25, 0
5, 88500, Note_on_c, 2, 25, 100
5, 88530, Note_off_c, 2, 25, 0
5, 88530, Note_on_c, 2, 25, 100
5, 88560, Note_off_c, 2, 25, 0
5, 88560, Note_on_c, 2, 25, 100
5, 88590, Note_off_c, 2, 25, 0
5, 88590, Note_on_c, 2, 25, 100
5, 88620, Note_off_c, 2, 25, 0
5, 88620, Note_on_c, 2, 25, 100
5, 88650, Note_off_c, 2, 25, 0
5, 88650, Note_on_c, 2, 25, 100
5, 88680, Note_off_c, 2, 25, 0
5, 88680, Note_on_c, 2, 25, 100
5, 88710, Note_off_c, 2, 25, 0
5, 88710, Note_on_c, 2, 25, 100
5, 88740, Note_off_c, 2, 25, 0
5, 88740, Note_on_c, 2, 25, 100
5, 88770, Note_off_c, 2, 25, 0
5, 88770, Note_on_c, 2, 25, 100
5, 88800, Note_off_c, 2, 25, 0
5, 88800, Note_on_c, 2, 25, 100
5, 88830, Note_off_c, 2, 25, 0
5, 88830, Note_on_c, 2, 25, 100
5, 88860, Note_off_c, 2, 25, 0
5, 88860, Note_on_c, 2, 25, 100
5, 88890, Note_off_c, 2, 25, 0
5, 88890, Note_on_c, 2, 25, 100
5, 88920, Note_off_c, 2, 25, 0
5, 88920, Note_on_c, 2, 25, 100
5, 88950, Note_off_c, 2, 25, 0
5, 88950, Note_on_c, 2, 25, 100
5, 88980, Note_off_c, 2, 25, 0
5, 88980, Note_on_c, 2, 25, 100
5, 89010, Note_off_c, 2, 25, 0
5, 89010, Note_on_c, 2, 25, 100
5, 89040, Note_off_c, 2, 25, 0
5, 89040, Note_on_c, 2, 25, 100
5, 89070, Note_off_c, 2, 25, 0
5, 89070, Note_on_c, 2, 25, 100
5, 89100, Note_off_c, 2, 25, 0
5, 89100, Note_on_c, 2, 25, 100
5, 89130, Note_off_c, 2, 25, 0
5, 89130, Note_on_c, 2, 25, 100
5, 89160, Note_off_c, 2, 25, 0
5, 89160, Note_on_c, 2, 25, 100
5, 89190, Note_off_c, 2, 25, 0
5, 89190, Note_on_c, 2, 25, 100
5, 89220, Note_off_c, 2, 25, 0
5, 89220, Note_on_c, 2, 25, 100
5, 89250, Note_off_c, 2, 25, 0
5, 89250, Note_on_c, 2, 25, 100
5, 89280, Note_off_c, 2, 25, 0
5, 89280, Note_on_c, 2, 25, 100
5, 89310, Note_off_c, 2, 25, 0
5, 89310, Note_on_c, 2, 25, 100
5, 89340, Note_off_c, 2, 25, 0
5, 89340, Note_on_c, 2, 25, 100
5, 89370, Note_off_c, 2, 25, 0
5, 89370, Note_on_c, 2, 25, 100
5, 89400, Note_off_c, 2, 25, 0
5, 89400, Note_on_c, 2, 25, 100
5, 89430, Note_off_c, 2, 25, 0
5, 89430, Note_on_c, 2, 25, 100
5, 89460, Note_off_c, 2, 25, 0
5, 89460, Note_on_c, 2, 25, 100
5, 89490, Note_off_c, 2, 25, 0
5, 89490, Note_on_c, 2, 25, 100
5, 89520, Note_off_c, 2, 25, 0
5, 89520, Note_on_c, 2, 25, 100
5, 89550, Note_off_c, 2, 25, 0
5, 89550, Note_on_c, 2, 25, 100
5, 89580, Note_off_c, 2, 25, 0
5, 89580, Note_on_c, 2, 25, 100
5, 89610, Note_off_c, 2, 25, 0
5, 89610, Note_on_c, 2, 25, 100
5, 89640, Note_off_c, 2, 25, 0
5, 89640, Note_on_c, 2, 25, 100
5, 89670, Note_off_c, 2, 25, 0
5, 89670, Note_on_c, 2, 25, 100
5, 89700, Note_off_c, 2, 25, 0
5, 89700, Note_on_c, 2, 25, 100
5, 89730, Note_off_c, 2, 25, 0
5, 89730, Note_on_c, 2, 25, 100
5, 89760, Note_off_c, 2, 25, 0
5, 89760, Note_on_c, 2, 21, 100
5, 89790, Note_off_c, 2, 21, 0
5, 89790, Note_on_c, 2, 21, 100
5, 89820, Note_off_c, 2, 21, 0
5, 89820, Note_on_c, 2, 21, 100
5, 89850, Note_off_c, 2, 21, 0
5, 89850, Note_on_c, 2, 21, 100
5, 89880, Note_off_c, 2, 21, 0
5, 89880, Note_on_c, 2, 21, 100
5, 89910, Note_off_c, 2, 21, 0
5, 89910, Note_on_c, 2, 21, 100
5, 89940, Note_off_c, 2, 21, 0
5, 89940, Note_on_c, 2, 21, 100
5, 89970, Note_off_c, 2, 21, 0
5, 89970, Note_on_c, 2, 21, 100
5, 90000, Note_off_c, 2, 21, 0
5, 90000, Note_on_c, 2, 21, 100
5, 90030, Note_off_c, 2, 21, 0
5, 90030, Note_on_c, 2, 21, 100
5, 90060, Note_off_c, 2, 21, 0
5, 90060, Note_on_c, 2, 21, 100
5, 90090, Note_off_c, 2, 21, 0
5, 90090, Note_on_c, 2, 21, 100
5, 90120, Note_off_c, 2, 21, 0
5, 90120, Note_on_c, 2, 21, 100
5, 90150, Note_off_c, 2, 21, 0
5, 90150, Note_on_c, 2, 21, 100
5, 90180, Note_off_c, 2, 21, 0
5, 90180, Note_on_c, 2, 21, 100
5, 90210, Note_off_c, 2, 21, 0
5, 90210, Note_on_c, 2, 21, 100
5, 90240, Note_off_c, 2, 21, 0
5, 90240, Note_on_c, 2, 21, 100
5, 90270, Note_off_c, 2, 21, 0
5, 90270, Note_on_c, 2, 21, 100
5, 90300, Note_off_c, 2, 21, 0
5, 90300, Note_on_c, 2, 21, 100
5, 90330, Note_off_c, 2, 21, 0
5, 90330, Note_on_c, 2, 21, 100
5, 90360, Note_off_c, 2, 21, 0
5, 90360, Note_on_c, 2, 21, 100
5, 90390, Note_off_c, 2, 21, 0
5, 90390, Note_on_c, 2, 21, 100
5, 90420, Note_off_c, 2, 21, 0
5, 90420, Note_on_c, 2, 21, 100
5, 90450, Note_off_c, 2, 21, 0
5, 90450, Note_on_c, 2, 21, 100
5, 90480, Note_off_c, 2, 21, 0
5, 90480, Note_on_c, 2, 21, 100
5, 90510, Note_off_c, 2, 21, 0
5, 90510, Note_on_c, 2, 21, 100
5, 90540, Note_off_c, 2, 21, 0
5, 90540, Note_on_c, 2, 21, 100
5, 90570, Note_off_c, 2, 21, 0
5, 90570, Note_on_c, 2, 21, 100
5, 90600, Note_off_c, 2, 21, 0
5, 90600, Note_on_c, 2, 21, 100
5, 90630, Note_off_c, 2, 21, 0
5, 90630, Note_on_c, 2, 21, 100
5, 90660, Note_off_c, 2, 21, 0
5, 90660, Note_on_c, 2, 21, 100
5, 90690, Note_off_c, 2, 21, 0
5, 90690, Note_on_c, 2, 21, 100
5, 90720, Note_off_c, 2, 21, 0
5, 90720, Note_on_c, 2, 21, 100
5, 90750, Note_off_c, 2, 21, 0
5, 90750, Note_on_c, 2, 21, 100
5, 90780, Note_off_c, 2, 21, 0
5, 90780, Note_on_c, 2, 21, 100
5, 90810, Note_off_c, 2, 21, 0
5, 90810, Note_on_c, 2, 21, 100
5, 90840, Note_off_c, 2, 21, 0
5, 90840, Note_on_c, 2, 21, 100
5, 90870, Note_off_c, 2, 21, 0
5, 90870, Note_on_c, 2, 21, 100
5, 90900, Note_off_c, 2, 21, 0
5, 90900, Note_on_c, 2, 21, 100
5, 90930, Note_off_c, 2, 21, 0
5, 90930, Note_on_c, 2, 21, 100
5, 90960, Note_off_c, 2, 21, 0
5, 90960, Note_on_c, 2, 21, 100
5, 90990, Note_off_c, 2, 21, 0
5, 90990, Note_on_c, 2, 21, 100
5, 91020, Note_off_c, 2, 21, 0
5, 91020, Note_on_c, 2, 21, 100
5, 91050, Note_off_c, 2, 21, 0
5, 91050, Note_on_c, 2, 21, 100
5, 91080, Note_off_c, 2, 21, 0
5, 91080, Note_on_c, 2, 21, 100
5, 91110, Note_off_c, 2, 21, 0
5, 91110, Note_on_c, 2, 21, 100
5, 91140, Note_off_c, 2, 21, 0
5, 91140, Note_on_c, 2, 21, 100
5, 91170, Note_off_c, 2, 21, 0
5, 91170, Note_on_c, 2, 21, 100
5, 91200, Note_off_c, 2, 21, 0
5, 91200, Note_on_c, 2, 21, 100
5, 91230, Note_off_c, 2, 21, 0
5, 91230, Note_on_c, 2, 21, 100
5, 91260, Note_off_c, 2, 21, 0
5, 91260, Note_on_c, 2, 21, 100
5, 91290, Note_off_c, 2, 21, 0
5, 91290, Note_on_c, 2, 21, 100
5, 91320, Note_off_c, 2, 21, 0
5, 91320, Note_on_c, 2, 21, 100
5, 91350, Note_off_c, 2, 21, 0
5, 91350, Note_on_c, 2, 21, 100
5, 91380, Note_off_c, 2, 21, 0
5, 91380, Note_on_c, 2, 21, 100
5, 91410, Note_off_c, 2, 21, 0
5, 91410, Note_on_c, 2, 21, 100
5, 91440, Note_off_c, 2, 21, 0
5, 91440, Note_on_c, 2, 21, 100
5, 91470, Note_off_c, 2, 21, 0
5, 91470, Note_on_c, 2, 21, 100
5, 91500, Note_off_c, 2, 21, 0
5, 91500, Note_on_c, 2, 21, 100
5, 91530, Note_off_c, 2, 21, 0
5, 91530, Note_on_c, 2, 21, 100
5, 91560, Note_off_c, 2, 21, 0
5, 91560, Note_on_c, 2, 21, 100
5, 91590, Note_off_c, 2, 21, 0
5, 91590, Note_on_c, 2, 21, 100
5, 91620, Note_off_c, 2, 21, 0
5, 91620, Note_on_c, 2, 21, 100
5, 91650, Note_off_c, 2, 21, 0
5, 91650, Note_on_c, 2, 21, 100
5, 91680, Note_off_c, 2, 21, 0
5, 91680, Note_on_c, 2, 23, 100
5, 91710, Note_off_c, 2, 23, 0
5, 91710, Note_on_c, 2, 23, 100
5, 91740, Note_off_c, 2, 23, 0
5, 91740, Note_on_c, 2, 23, 100
5, 91770, Note_off_c, 2, 23, 0
5, 91770, Note_on_c, 2, 23, 100
5, 91800, Note_off_c, 2, 23, 0
5, 91800, Note_on_c, 2, 23, 100
5, 91830, Note_off_c, 2, 23, 0
5, 91830, Note_on_c, 2, 23, 100
5, 91860, Note_off_c, 2, 23, 0
5, 91860, Note_on_c, 2, 23, 100
5, 91890, Note_off_c, 2, 23, 0
5, 91890, Note_on_c, 2, 23, 100
5, 91920, Note_off_c, 2, 23, 0
5, 91920, Note_on_c, 2, 23, 100
5, 91950, Note_off_c, 2, 23, 0
5, 91950, Note_on_c, 2, 23, 100
5, 91980, Note_off_c, 2, 23, 0
5, 91980, Note_on_c, 2, 23, 100
5, 92010, Note_off_c, 2, 23, 0
5, 92010, Note_on_c, 2, 23, 100
5, 92040, Note_off_c, 2, 23, 0
5, 92040, Note_on_c, 2, 23, 100
5, 92070, Note_off_c, 2, 23, 0
5, 92070, Note_on_c, 2, 23, 100
5, 92100, Note_off_c, 2, 23, 0
5, 92100, Note_on_c, 2, 23, 100
5, 92130, Note_off_c, 2, 23, 0
5, 92130, Note_on_c, 2, 23, 100
5, 92160, Note_off_c, 2, 23, 0
5, 92160, Note_on_c, 2, 23, 100
5, 92190, Note_off_c, 2, 23, 0
5, 92190, Note_on_c, 2, 23, 100
5, 92220, Note_off_c, 2, 23, 0
5, 92220, Note_on_c, 2, 23, 100
5, 92250, Note_off_c, 2, 23, 0
5, 92250, Note_on_c, 2, 23, 100
5, 92280, Note_off_c, 2, 23, 0
5, 92280, Note_on_c, 2, 23, 100
5, 92310, Note_off_c, 2, 23, 0
5, 92310, Note_on_c, 2, 23, 100
5, 92340, Note_off_c, 2, 23, 0
5, 92340, Note_on_c, 2, 23, 100
5, 92370, Note_off_c, 2, 23, 0
5, 92370, Note_on_c, 2, 23, 100
5, 92400, Note_off_c, 2, 23, 0
5, 92400, Note_on_c, 2, 23, 100
5, 92430, Note_off_c, 2, 23, 0
5, 92430, Note_on_c, 2, 23, 100
5, 92460, Note_off_c, 2, 23, 0
5, 92460, Note_on_c, 2, 23, 100
5, 92490, Note_off_c, 2, 23, 0
5, 92490, Note_on_c, 2, 23, 100
5, 92520, Note_off_c, 2, 23, 0
5, 92520, Note_on_c, 2, 23, 100
5, 92550, Note_off_c, 2, 23, 0
5, 92550, Note_on_c, 2, 23, 100
5, 92580, Note_off_c, 2, 23, 0
5, 92580, Note_on_c, 2, 23, 100
5, 92610, Note_off_c, 2, 23, 0
5, 92610, Note_on_c, 2, 23, 100
5, 92640, Note_off_c, 2, 23, 0
5, 92640, Note_on_c, 2, 23, 100
5, 92670, Note_off_c, 2, 23, 0
5, 92670, Note_on_c, 2, 23, 100
5, 92700, Note_off_c, 2, 23, 0
5, 92700, Note_on_c, 2, 23, 100
5, 92730, Note_off_c, 2, 23, 0
5, 92730, Note_on_c, 2, 23, 100
5, 92760, Note_off_c, 2, 23, 0
5, 92760, Note_on_c, 2, 23, 100
5, 92790, Note_off_c, 2, 23, 0
5, 92790, Note_on_c, 2, 23, 100
5, 92820, Note_off_c, 2, 23, 0
5, 92820, Note_on_c, 2, 23, 100
5, 92850, Note_off_c, 2, 23, 0
5, 92850, Note_on_c, 2, 23, 100
5, 92880, Note_off_c, 2, 23, 0
5, 92880, Note_on_c, 2, 23, 100
5, 92910, Note_off_c, 2, 23, 0
5, 92910, Note_on_c, 2, 23, 100
5, 92940, Note_off_c, 2, 23, 0
5, 92940, Note_on_c, 2, 23, 100
5, 92970, Note_off_c, 2, 23, 0
5, 92970, Note_on_c, 2, 23, 100
5, 93000, Note_off_c, 2, 23, 0
5, 93000, Note_on_c, 2, 23, 100
5, 93030, Note_off_c, 2, 23, 0
5, 93030, Note_on_c, 2, 23, 100
5, 93060, Note_off_c, 2, 23, 0
5, 93060, Note_on_c, 2, 23, 100
5, 93090, Note_off_c, 2, 23, 0
5, 93090, Note_on_c, 2, 23, 100
5, 93120, Note_off_c, 2, 23, 0
5, 93120, Note_on_c, 2, 23, 100
5, 93150, Note_off_c, 2, 23, 0
5, 93150, Note_on_c, 2, 23, 100
5, 93180, Note_off_c, 2, 23, 0
5, 93180, Note_on_c, 2, 23, 100
5, 93210, Note_off_c, 2, 23, 0
5, 93210, Note_on_c, 2, 23, 100
5, 93240, Note_off_c, 2, 23, 0
5, 93240, Note_on_c, 2, 23, 100
5, 93270, Note_off_c, 2, 23, 0
5, 93270, Note_on_c, 2, 23, 100
5, 93300, Note_off_c, 2, 23, 0
5, 93300, Note_on_c, 2, 23, 100
5, 93330, Note_off_c, 2, 23, 0
5, 93330, Note_on_c, 2, 23, 100
5, 93360, Note_off_c, 2, 23, 0
5, 93360, Note_on_c, 2, 23, 100
5, 93390, Note_off_c, 2, 23, 0
5, 93390, Note_on_c, 2, 23, 100
5, 93420, Note_off_c, 2, 23, 0
5, 93420, Note_on_c, 2, 23, 100
5, 93450, Note_off_c, 2, 23, 0
5, 93450, Note_on_c, 2, 23, 100
5, 93480, Note_off_c, 2, 23, 0
5, 93480, Note_on_c, 2, 23, 100
5, 93510, Note_off_c, 2, 23, 0
5, 93510, Note_on_c, 2, 23, 100
5, 93540, Note_off_c, 2, 23, 0
5, 93540, Note_on_c, 2, 23, 100
5, 93570, Note_off_c, 2, 23, 0
5, 93570, Note_on_c, 2, 23, 100
5, 93600, Note_off_c, 2, 23, 0
5, 93600, Note_on_c, 2, 25, 100
5, 93630, Note_off_c, 2, 25, 0
5, 93630, Note_on_c, 2, 25, 100
5, 93660, Note_off_c, 2, 25, 0
5, 93660, Note_on_c, 2, 25, 100
5, 93690, Note_off_c, 2, 25, 0
5, 93690, Note_on_c, 2, 25, 100
5, 93720, Note_off_c, 2, 25, 0
5, 93720, Note_on_c, 2, 25, 100
5, 93750, Note_off_c, 2, 25, 0
5, 93750, Note_on_c, 2, 25, 100
5, 93780, Note_off_c, 2, 25, 0
5, 93780, Note_on_c, 2, 25, 100
5, 93810, Note_off_c, 2, 25, 0
5, 93810, Note_on_c, 2, 25, 100
5, 93840, Note_off_c, 2, 25, 0
5, 93840, Note_on_c, 2, 25, 100
5, 93870, Note_off_c, 2, 25, 0
5, 93870, Note_on_c, 2, 25, 100
5, 93900, Note_off_c, 2, 25, 0
5, 93900, Note_on_c, 2, 25, 100
5, 93930, Note_off_c, 2, 25, 0
5, 93930, Note_on_c, 2, 25, 100
5, 93960, Note_off_c, 2, 25, 0
5, 93960, Note_on_c, 2, 25, 100
5, 93990, Note_off_c, 2, 25, 0
5, 93990, Note_on_c, 2, 25, 100
5, 94020, Note_off_c, 2, 25, 0
5, 94020, Note_on_c, 2, 25, 100
5, 94050, Note_off_c, 2, 25, 0
5, 94050, Note_on_c, 2, 25, 100
5, 94080, Note_off_c, 2, 25, 0
5, 94080, Note_on_c, 2, 25, 100
5, 94110, Note_off_c, 2, 25, 0
5, 94110, Note_on_c, 2, 25, 100
5, 94140, Note_off_c, 2, 25, 0
5, 94140, Note_on_c, 2, 25, 100
5, 94170, Note_off_c, 2, 25, 0
5, 94170, Note_on_c, 2, 25, 100
5, 94200, Note_off_c, 2, 25, 0
5, 94200, Note_on_c, 2, 25, 100
5, 94230, Note_off_c, 2, 25, 0
5, 94230, Note_on_c, 2, 25, 100
5, 94260, Note_off_c, 2, 25, 0
5, 94260, Note_on_c, 2, 25, 100
5, 94290, Note_off_c, 2, 25, 0
5, 94290, Note_on_c, 2, 25, 100
5, 94320, Note_off_c, 2, 25, 0
5, 94320, Note_on_c, 2, 25, 100
5, 94350, Note_off_c, 2, 25, 0
5, 94350, Note_on_c, 2, 25, 100
5, 94380, Note_off_c, 2, 25, 0
5, 94380, Note_on_c, 2, 25, 100
5, 94410, Note_off_c, 2, 25, 0
5, 94410, Note_on_c, 2, 25, 100
5, 94440, Note_off_c, 2, 25, 0
5, 94440, Note_on_c, 2, 25, 100
5, 94470, Note_off_c, 2, 25, 0
5, 94470, Note_on_c, 2, 25, 100
5, 94500, Note_off_c, 2, 25, 0
5, 94500, Note_on_c, 2, 25, 100
5, 94530, Note_off_c, 2, 25, 0
5, 94530, Note_on_c, 2, 25, 100
5, 94560, Note_off_c, 2, 25, 0
5, 94560, Note_on_c, 2, 20, 100
5, 94590, Note_off_c, 2, 20, 0
5, 94590, Note_on_c, 2, 20, 100
5, 94620, Note_off_c, 2, 20, 0
5, 94620, Note_on_c, 2, 20, 100
5, 94650, Note_off_c, 2, 20, 0
5, 94650, Note_on_c, 2, 20, 100
5, 94680, Note_off_c, 2, 20, 0
5, 94680, Note_on_c, 2, 20, 100
5, 94710, Note_off_c, 2, 20, 0
5, 94710, Note_on_c, 2, 20, 100
5, 94740, Note_off_c, 2, 20, 0
5, 94740, Note_on_c, 2, 20, 100
5, 94770, Note_off_c, 2, 20, 0
5, 94770, Note_on_c, 2, 20, 100
5, 94800, Note_off_c, 2, 20, 0
5, 94800, Note_on_c, 2, 20, 100
5, 94830, Note_off_c, 2, 20, 0
5, 94830, Note_on_c, 2, 20, 100
5, 94860, Note_off_c, 2, 20, 0
5, 94860, Note_on_c, 2, 20, 100
5, 94890, Note_off_c, 2, 20, 0
5, 94890, Note_on_c, 2, 20, 100
5, 94920, Note_off_c, 2, 20, 0
5, 94920, Note_on_c, 2, 20, 100
5, 94950, Note_off_c, 2, 20, 0
5, 94950, Note_on_c, 2, 20, 100
5, 94980, Note_off_c, 2, 20, 0
5, 94980, Note_on_c, 2, 20, 100
5, 95010, Note_off_c, 2, 20, 0
5, 95010, Note_on_c, 2, 20, 100
5, 95040, Note_off_c, 2, 20, 0
5, 95040, Note_on_c, 2, 20, 100
5, 95070, Note_off_c, 2, 20, 0
5, 95070, Note_on_c, 2, 20, 100
5, 95100, Note_off_c, 2, 20, 0
5, 95100, Note_on_c, 2, 20, 100
5, 95130, Note_off_c, 2, 20, 0
5, 95130, Note_on_c, 2, 20, 100
5, 95160, Note_off_c, 2, 20, 0
5, 95160, Note_on_c, 2, 20, 100
5, 95190, Note_off_c, 2, 20, 0
5, 95190, Note_on_c, 2, 20, 100
5, 95220, Note_off_c, 2, 20, 0
5, 95220, Note_on_c, 2, 20, 100
5, 95250, Note_off_c, 2, 20, 0
5, 95250, Note_on_c, 2, 20, 100
5, 95280, Note_off_c, 2, 20, 0
5, 95280, Note_on_c, 2, 20, 100
5, 95310, Note_off_c, 2, 20, 0
5, 95310, Note_on_c, 2, 20, 100
5, 95340, Note_off_c, 2, 20, 0
5, 95340, Note_on_c, 2, 20, 100
5, 95370, Note_off_c, 2, 20, 0
5, 95370, Note_on_c, 2, 20, 100
5, 95400, Note_off_c, 2, 20, 0
5, 95400, Note_on_c, 2, 20, 100
5, 95430, Note_off_c, 2, 20, 0
5, 95430, Note_on_c, 2, 20, 100
5, 95460, Note_off_c, 2, 20, 0
5, 95460, Note_on_c, 2, 20, 100
5, 95490, Note_off_c, 2, 20, 0
5, 95490, Note_on_c, 2, 20, 100
5, 95520, Note_off_c, 2, 20, 0
5, 95520, Note_on_c, 2, 25, 100
5, 95520, Note_on_c, 2, 32, 100
5, 95550, Note_off_c, 2, 25, 0
5, 95550, Note_off_c, 2, 32, 0
5, 95550, Note_on_c, 2, 25, 100
5, 95550, Note_on_c, 2, 32, 100
5, 95580, Note_off_c, 2, 25, 0
5, 95580, Note_off_c, 2, 32, 0
5, 95580, Note_on_c, 2, 25, 100
5, 95580, Note_on_c, 2, 32, 100
5, 95610, Note_off_c, 2, 25, 0
5, 95610, Note_off_c, 2, 32, 0
5, 95610, Note_on_c, 2, 25, 100
5, 95610, Note_on_c, 2, 32, 100
5, 95640, Note_off_c, 2, 25, 0
5, 95640, Note_off_c, 2, 32, 0
5, 95640, Note_on_c, 2, 25, 100
5, 95640, Note_on_c, 2, 32, 100
5, 95670, Note_off_c, 2, 25, 0
5, 95670, Note_off_c, 2, 32, 0
5, 95670, Note_on_c, 2, 25, 100
5, 95670, Note_on_c, 2, 32, 100
5, 95700, Note_off_c, 2, 25, 0
5, 95700, Note_off_c, 2, 32, 0
5, 95700, Note_on_c, 2, 25, 100
5, 95700, Note_on_c, 2, 32, 100
5, 95730, Note_off_c, 2, 25, 0
5, 95730, Note_off_c, 2, 32, 0
5, 95730, Note_on_c, 2, 25, 100
5, 95730, Note_on_c, 2, 32, 100
5, 95760, Note_off_c, 2, 25, 0
5, 95760, Note_off_c, 2, 32, 0
5, 95760, Note_on_c, 2, 25, 100
5, 95760, Note_on_c, 2, 32, 100
5, 95790, Note_off_c, 2, 25, 0
5, 95790, Note_off_c, 2, 32, 0
5, 95790, Note_on_c, 2, 25, 100
5, 95790, Note_on_c, 2, 32, 100
5, 95820, Note_off_c, 2, 25, 0
5, 95820, Note_off_c, 2, 32, 0
5, 95820, Note_on_c, 2, 25, 100
5, 95820, Note_on_c, 2, 32, 100
5, 95850, Note_off_c, 2, 25, 0
5, 95850, Note_off_c, 2, 32, 0
5, 95850, Note_on_c, 2, 25, 100
5, 95850, Note_on_c, 2, 32, 100
5, 95880, Note_off_c, 2, 25, 0
5, 95880, Note_off_c, 2, 32, 0
5, 95880, Note_on_c, 2, 25, 100
5, 95880, Note_on_c, 2, 32, 100
5, 95910, Note_off_c, 2, 25, 0
5, 95910, Note_off_c, 2, 32, 0
5, 95910, Note_on_c, 2, 25, 100
5, 95910, Note_on_c, 2, 32, 100
5, 95940, Note_off_c, 2, 25, 0
5, 95940, Note_off_c, 2, 32, 0
5, 95940, Note_on_c, 2, 25, 100
5, 95940, Note_on_c, 2, 32, 100
5, 95970, Note_off_c, 2, 25, 0
5, 95970, Note_off_c, 2, 32, 0
5, 95970, Note_on_c, 2, 25, 100
5, 95970, Note_on_c, 2, 32, 100
5, 96000, Note_off_c, 2, 25, 0
5, 96000, Note_off_c, 2, 32, 0
5, 96000, Note_on_c, 2, 25, 100
5, 96000, Note_on_c, 2, 32, 100
5, 96030, Note_off_c, 2, 25, 0
5, 96030, Note_off_c, 2, 32, 0
5, 96030, Note_on_c, 2, 25, 100
5, 96030, Note_on_c, 2, 32, 100
5, 96060, Note_off_c, 2, 25, 0
5, 96060, Note_off_c, 2, 32, 0
5, 96060, Note_on_c, 2, 25, 100
5, 96060, Note_on_c, 2, 32, 100
5, 96090, Note_off_c, 2, 25, 0
5, 96090, Note_off_c, 2, 32, 0
5, 96090, Note_on_c, 2, 25, 100
5, 96090, Note_on_c, 2, 32, 100
5, 96120, Note_off_c, 2, 25, 0
5, 96120, Note_off_c, 2, 32, 0
5, 96120, Note_on_c, 2, 25, 100
5, 96120, Note_on_c, 2, 32, 100
5, 96150, Note_off_c, 2, 25, 0
5, 96150, Note_off_c, 2, 32, 0
5, 96150, Note_on_c, 2, 25, 100
5, 96150, Note_on_c, 2, 32, 100
5, 96180, Note_off_c, 2, 25, 0
5, 96180, Note_off_c, 2, 32, 0
5, 96180, Note_on_c, 2, 25, 100
5, 96180, Note_on_c, 2, 32, 100
5, 96210, Note_off_c, 2, 25, 0
5, 96210, Note_off_c, 2, 32, 0
5, 96210, Note_on_c, 2, 25, 100
5, 96210, Note_on_c, 2, 32, 100
5, 96240, Note_off_c, 2, 25, 0
5, 96240, Note_off_c, 2, 32, 0
5, 96240, Note_on_c, 2, 25, 100
5, 96240, Note_on_c, 2, 32, 100
5, 96270, Note_off_c, 2, 25, 0
5, 96270, Note_off_c, 2, 32, 0
5, 96270, Note_on_c, 2, 25, 100
5, 96270, Note_on_c, 2, 32, 100
5, 96300, Note_off_c, 2, 25, 0
5, 96300, Note_off_c, 2, 32, 0
5, 96300, Note_on_c, 2, 25, 100
5, 96300, Note_on_c, 2, 32, 100
5, 96330, Note_off_c, 2, 25, 0
5, 96330, Note_off_c, 2, 32, 0
5, 96330, Note_on_c, 2, 25, 100
5, 96330, Note_on_c, 2, 32, 100
5, 96360, Note_off_c, 2, 25, 0
5, 96360, Note_off_c, 2, 32, 0
5, 96360, Note_on_c, 2, 25, 100
5, 96360, Note_on_c, 2, 32, 100
5, 96390, Note_off_c, 2, 25, 0
5, 96390, Note_off_c, 2, 32, 0
5, 96390, Note_on_c, 2, 25, 100
5, 96390, Note_on_c, 2, 32, 100
5, 96420, Note_off_c, 2, 25, 0
5, 96420, Note_off_c, 2, 32, 0
5, 96420, Note_on_c, 2, 25, 100
5, 96420, Note_on_c, 2, 32, 100
5, 96450, Note_off_c, 2, 25, 0
5, 96450, Note_off_c, 2, 32, 0
5, 96450, Note_on_c, 2, 25, 100
5, 96450, Note_on_c, 2, 32, 100
5, 96480, Note_off_c, 2, 25, 0
5, 96480, Note_off_c, 2, 32, 0
5, 96480, Note_on_c, 2, 25, 100
5, 96480, Note_on_c, 2, 32, 100
5, 96510, Note_off_c, 2, 25, 0
5, 96510, Note_off_c, 2, 32, 0
5, 96510, Note_on_c, 2, 25, 100
5, 96510, Note_on_c, 2, 32, 100
5, 96540, Note_off_c, 2, 25, 0
5, 96540, Note_off_c, 2, 32, 0
5, 96540, Note_on_c, 2, 25, 100
5, 96540, Note_on_c, 2, 32, 100
5, 96570, Note_off_c, 2, 25, 0
5, 96570, Note_off_c, 2, 32, 0
5, 96570, Note_on_c, 2, 25, 100
5, 96570, Note_on_c, 2, 32, 100
5, 96600, Note_off_c, 2, 25, 0
5, 96600, Note_off_c, 2, 32, 0
5, 96600, Note_on_c, 2, 25, 100
5, 96600, Note_on_c, 2, 32, 100
5, 96630, Note_off_c, 2, 25, 0
5, 96630, Note_off_c, 2, 32, 0
5, 96630, Note_on_c, 2, 25, 100
5, 96630, Note_on_c, 2, 32, 100
5, 96660, Note_off_c, 2, 25, 0
5, 96660, Note_off_c, 2, 32, 0
5, 96660, Note_on_c, 2, 25, 100
5, 96660, Note_on_c, 2, 32, 100
5, 96690, Note_off_c, 2, 25, 0
5, 96690, Note_off_c, 2, 32, 0
5, 96690, Note_on_c, 2, 25, 100
5, 96690, Note_on_c, 2, 32, 100
5, 96720, Note_off_c, 2, 25, 0
5, 96720, Note_off_c, 2, 32, 0
5, 96720, Note_on_c, 2, 25, 100
5, 96720, Note_on_c, 2, 32, 100
5, 96750, Note_off_c, 2, 25, 0
5, 96750, Note_off_c, 2, 32, 0
5, 96750, Note_on_c, 2, 25, 100
5, 96750, Note_on_c, 2, 32, 100
5, 96780, Note_off_c, 2, 25, 0
5, 96780, Note_off_c, 2, 32, 0
5, 96780, Note_on_c, 2, 25, 100
5, 96780, Note_on_c, 2, 32, 100
5, 96810, Note_off_c, 2, 25, 0
5, 96810, Note_off_c, 2, 32, 0
5, 96810, Note_on_c, 2, 25, 100
5, 96810, Note_on_c, 2, 32, 100
5, 96840, Note_off_c, 2, 25, 0
5, 96840, Note_off_c, 2, 32, 0
5, 96840, Note_on_c, 2, 25, 100
5, 96840, Note_on_c, 2, 32, 100
5, 96870, Note_off_c, 2, 25, 0
5, 96870, Note_off_c, 2, 32, 0
5, 96870, Note_on_c, 2, 25, 100
5, 96870, Note_on_c, 2, 32, 100
5, 96900, Note_off_c, 2, 25, 0
5, 96900, Note_off_c, 2, 32, 0
5, 96900, Note_on_c, 2, 25, 100
5, 96900, Note_on_c, 2, 32, 100
5, 96930, Note_off_c, 2, 25, 0
5, 96930, Note_off_c, 2, 32, 0
5, 96930, Note_on_c, 2, 25, 100
5, 96930, Note_on_c, 2, 32, 100
5, 96960, Note_off_c, 2, 25, 0
5, 96960, Note_off_c, 2, 32, 0
5, 96960, Note_on_c, 2, 25, 100
5, 96960, Note_on_c, 2, 32, 100
5, 96990, Note_off_c, 2, 25, 0
5, 96990, Note_off_c, 2, 32, 0
5, 96990, Note_on_c, 2, 25, 100
5, 96990, Note_on_c, 2, 32, 100
5, 97020, Note_off_c, 2, 25, 0
5, 97020, Note_off_c, 2, 32, 0
5, 97020, Note_on_c, 2, 25, 100
5, 97020, Note_on_c, 2, 32, 100
5, 97050, Note_off_c, 2, 25, 0
5, 97050, Note_off_c, 2, 32, 0
5, 97050, Note_on_c, 2, 25, 100
5, 97050, Note_on_c, 2, 32, 100
5, 97080, Note_off_c, 2, 25, 0
5, 97080, Note_off_c, 2, 32, 0
5, 97080, Note_on_c, 2, 25, 100
5, 97080, Note_on_c, 2, 32, 100
5, 97110, Note_off_c, 2, 25, 0
5, 97110, Note_off_c, 2, 32, 0
5, 97110, Note_on_c, 2, 25, 100
5, 97110, Note_on_c, 2, 32, 100
5, 97140, Note_off_c, 2, 25, 0
5, 97140, Note_off_c, 2, 32, 0
5, 97140, Note_on_c, 2, 25, 100
5, 97140, Note_on_c, 2, 32, 100
5, 97170, Note_off_c, 2, 25, 0
5, 97170, Note_off_c, 2, 32, 0
5, 97170, Note_on_c, 2, 25, 100
5, 97170, Note_on_c, 2, 32, 100
5, 97200, Note_off_c, 2, 25, 0
5, 97200, Note_off_c, 2, 32, 0
5, 97200, Note_on_c, 2, 25, 100
5, 97200, Note_on_c, 2, 32, 100
5, 97230, Note_off_c, 2, 25, 0
5, 97230, Note_off_c, 2, 32, 0
5, 97230, Note_on_c, 2, 25, 100
5, 97230, Note_on_c, 2, 32, 100
5, 97260, Note_off_c, 2, 25, 0
5, 97260, Note_off_c, 2, 32, 0
5, 97260, Note_on_c, 2, 25, 100
5, 97260, Note_on_c, 2, 32, 100
5, 97290, Note_off_c, 2, 25, 0
5, 97290, Note_off_c, 2, 32, 0
5, 97290, Note_on_c, 2, 25, 100
5, 97290, Note_on_c, 2, 32, 100
5, 97320, Note_off_c, 2, 25, 0
5, 97320, Note_off_c, 2, 32, 0
5, 97320, Note_on_c, 2, 25, 100
5, 97320, Note_on_c, 2, 32, 100
5, 97350, Note_off_c, 2, 25, 0
5, 97350, Note_off_c, 2, 32, 0
5, 97350, Note_on_c, 2, 25, 100
5, 97350, Note_on_c, 2, 32, 100
5, 97380, Note_off_c, 2, 25, 0
5, 97380, Note_off_c, 2, 32, 0
5, 97380, Note_on_c, 2, 25, 100
5, 97380, Note_on_c, 2, 32, 100
5, 97410, Note_off_c, 2, 25, 0
5, 97410, Note_off_c, 2, 32, 0
5, 97410, Note_on_c, 2, 25, 100
5, 97410, Note_on_c, 2, 32, 100
5, 97440, Note_off_c, 2, 25, 0
5, 97440, Note_off_c, 2, 32, 0
5, 97440, Note_on_c, 2, 21, 100
5, 97440, Note_on_c, 2, 28, 100
5, 97440, Note_on_c, 2, 33, 100
5, 97470, Note_off_c, 2, 21, 0
5, 97470, Note_off_c, 2, 28, 0
5, 97470, Note_off_c, 2, 33, 0
5, 97470, Note_on_c, 2, 21, 100
5, 97470, Note_on_c, 2, 28, 100
5, 97470, Note_on_c, 2, 33, 100
5, 97500, Note_off_c, 2, 21, 0
5, 97500, Note_off_c, 2, 28, 0
5, 97500, Note_off_c, 2, 33, 0
5, 97500, Note_on_c, 2, 21, 100
5, 97500, Note_on_c, 2, 28, 100
5, 97500, Note_on_c, 2, 33, 100
5, 97530, Note_off_c, 2, 21, 0
5, 97530, Note_off_c, 2, 28, 0
5, 97530, Note_off_c, 2, 33, 0
5, 97530, Note_on_c, 2, 21, 100
5, 97530, Note_on_c, 2, 28, 100
5, 97530, Note_on_c, 2, 33, 100
5, 97560, Note_off_c, 2, 21, 0
5, 97560, Note_off_c, 2, 28, 0
5, 97560, Note_off_c, 2, 33, 0
5, 97560, Note_on_c, 2, 21, 100
5, 97560, Note_on_c, 2, 28, 100
5, 97560, Note_on_c, 2, 33, 100
5, 97590, Note_off_c, 2, 21, 0
5, 97590, Note_off_c, 2, 28, 0
5, 97590, Note_off_c, 2, 33, 0
5, 97590, Note_on_c, 2, 21, 100
5, 97590, Note_on_c, 2, 28, 100
5, 97590, Note_on_c, 2, 33, 100
5, 97620, Note_off_c, 2, 21, 0
5, 97620, Note_off_c, 2, 28, 0
5, 97620, Note_off_c, 2, 33, 0
5, 97620, Note_on_c, 2, 21, 100
5, 97620, Note_on_c, 2, 28, 100
5, 97620, Note_on_c, 2, 33, 100
5, 97650, Note_off_c, 2, 21, 0
5, 97650, Note_off_c, 2, 28, 0
5, 97650, Note_off_c, 2, 33, 0
5, 97650, Note_on_c, 2, 21, 100
5, 97650, Note_on_c, 2, 28, 100
5, 97650, Note_on_c, 2, 33, 100
5, 97680, Note_off_c, 2, 21, 0
5, 97680, Note_off_c, 2, 28, 0
5, 97680, Note_off_c, 2, 33, 0
5, 97680, Note_on_c, 2, 21, 100
5, 97680, Note_on_c, 2, 28, 100
5, 97680, Note_on_c, 2, 33, 100
5, 97710, Note_off_c, 2, 21, 0
5, 97710, Note_off_c, 2, 28, 0
5, 97710, Note_off_c, 2, 33, 0
5, 97710, Note_on_c, 2, 21, 100
5, 97710, Note_on_c, 2, 28, 100
5, 97710, Note_on_c, 2, 33, 100
5, 97740, Note_off_c, 2, 21, 0
5, 97740, Note_off_c, 2, 28, 0
5, 97740, Note_off_c, 2, 33, 0
5, 97740, Note_on_c, 2, 21, 100
5, 97740, Note_on_c, 2, 28, 100
5, 97740, Note_on_c, 2, 33, 100
5, 97770, Note_off_c, 2, 21, 0
5, 97770, Note_off_c, 2, 28, 0
5, 97770, Note_off_c, 2, 33, 0
5, 97770, Note_on_c, 2, 21, 100
5, 97770, Note_on_c, 2, 28, 100
5, 97770, Note_on_c, 2, 33, 100
5, 97800, Note_off_c, 2, 21, 0
5, 97800, Note_off_c, 2, 28, 0
5, 97800, Note_off_c, 2, 33, 0
5, 97800, Note_on_c, 2, 21, 100
5, 97800, Note_on_c, 2, 28, 100
5, 97800, Note_on_c, 2, 33, 100
5, 97830, Note_off_c, 2, 21, 0
5, 97830, Note_off_c, 2, 28, 0
5, 97830, Note_off_c, 2, 33, 0
5, 97830, Note_on_c, 2, 21, 100
5, 97830, Note_on_c, 2, 28, 100
5, 97830, Note_on_c, 2, 33, 100
5, 97860, Note_off_c, 2, 21, 0
5, 97860, Note_off_c, 2, 28, 0
5, 97860, Note_off_c, 2, 33, 0
5, 97860, Note_on_c, 2, 21, 100
5, 97860, Note_on_c, 2, 28, 100
5, 97860, Note_on_c, 2, 33, 100
5, 97890, Note_off_c, 2, 21, 0
5, 97890, Note_off_c, 2, 28, 0
5, 97890, Note_off_c, 2, 33, 0
5, 97890, Note_on_c, 2, 21, 100
5, 97890, Note_on_c, 2, 28, 100
5, 97890, Note_on_c, 2, 33, 100
5, 97920, Note_off_c, 2, 21, 0
5, 97920, Note_off_c, 2, 28, 0
5, 97920, Note_off_c, 2, 33, 0
5, 97920, Note_on_c, 2, 21, 100
5, 97920, Note_on_c, 2, 28, 100
5, 97920, Note_on_c, 2, 33, 100
5, 97950, Note_off_c, 2, 21, 0
5, 97950, Note_off_c, 2, 28, 0
5, 97950, Note_off_c, 2, 33, 0
5, 97950, Note_on_c, 2, 21, 100
5, 97950, Note_on_c, 2, 28, 100
5, 97950, Note_on_c, 2, 33, 100
5, 97980, Note_off_c, 2, 21, 0
5, 97980, Note_off_c, 2, 28, 0
5, 97980, Note_off_c, 2, 33, 0
5, 97980, Note_on_c, 2, 21, 100
5, 97980, Note_on_c, 2, 28, 100
5, 97980, Note_on_c, 2, 33, 100
5, 98010, Note_off_c, 2, 21, 0
5, 98010, Note_off_c, 2, 28, 0
5, 98010, Note_off_c, 2, 33, 0
5, 98010, Note_on_c, 2, 21, 100
5, 98010, Note_on_c, 2, 28, 100
5, 98010, Note_on_c, 2, 33, 100
5, 98040, Note_off_c, 2, 21, 0
5, 98040, Note_off_c, 2, 28, 0
5, 98040, Note_off_c, 2, 33, 0
5, 98040, Note_on_c, 2, 21, 100
5, 98040, Note_on_c, 2, 28, 100
5, 98040, Note_on_c, 2, 33, 100
5, 98070, Note_off_c, 2, 21, 0
5, 98070, Note_off_c, 2, 28, 0
5, 98070, Note_off_c, 2, 33, 0
5, 98070, Note_on_c, 2, 21, 100
5, 98070, Note_on_c, 2, 28, 100
5, 98070, Note_on_c, 2, 33, 100
5, 98100, Note_off_c, 2, 21, 0
5, 98100, Note_off_c, 2, 28, 0
5, 98100, Note_off_c, 2, 33, 0
5, 98100, Note_on_c, 2, 21, 100
5, 98100, Note_on_c, 2, 28, 100
5, 98100, Note_on_c, 2, 33, 100
5, 98130, Note_off_c, 2, 21, 0
5, 98130, Note_off_c, 2, 28, 0
5, 98130, Note_off_c, 2, 33, 0
5, 98130, Note_on_c, 2, 21, 100
5, 98130, Note_on_c, 2, 28, 100
5, 98130, Note_on_c, 2, 33, 100
5, 98160, Note_off_c, 2, 21, 0
5, 98160, Note_off_c, 2, 28, 0
5, 98160, Note_off_c, 2, 33, 0
5, 98160, Note_on_c, 2, 21, 100
5, 98160, Note_on_c, 2, 28, 100
5, 98160, Note_on_c, 2, 33, 100
5, 98190, Note_off_c, 2, 21, 0
5, 98190, Note_off_c, 2, 28, 0
5, 98190, Note_off_c, 2, 33, 0
5, 98190, Note_on_c, 2, 21, 100
5, 98190, Note_on_c, 2, 28, 100
5, 98190, Note_on_c, 2, 33, 100
5, 98220, Note_off_c, 2, 21, 0
5, 98220, Note_off_c, 2, 28, 0
5, 98220, Note_off_c, 2, 33, 0
5, 98220, Note_on_c, 2, 21, 100
5, 98220, Note_on_c, 2, 28, 100
5, 98220, Note_on_c, 2, 33, 100
5, 98250, Note_off_c, 2, 21, 0
5, 98250, Note_off_c, 2, 28, 0
5, 98250, Note_off_c, 2, 33, 0
5, 98250, Note_on_c, 2, 21, 100
5, 98250, Note_on_c, 2, 28, 100
5, 98250, Note_on_c, 2, 33, 100
5, 98280, Note_off_c, 2, 21, 0
5, 98280, Note_off_c, 2, 28, 0
5, 98280, Note_off_c, 2, 33, 0
5, 98280, Note_on_c, 2, 21, 100
5, 98280, Note_on_c, 2, 28, 100
5, 98280, Note_on_c, 2, 33, 100
5, 98310, Note_off_c, 2, 21, 0
5, 98310, Note_off_c, 2, 28, 0
5, 98310, Note_off_c, 2, 33, 0
5, 98310, Note_on_c, 2, 21, 100
5, 98310, Note_on_c, 2, 28, 100
5, 98310, Note_on_c, 2, 33, 100
5, 98340, Note_off_c, 2, 21, 0
5, 98340, Note_off_c, 2, 28, 0
5, 98340, Note_off_c, 2, 33, 0
5, 98340, Note_on_c, 2, 21, 100
5, 98340, Note_on_c, 2, 28, 100
5, 98340, Note_on_c, 2, 33, 100
5, 98370, Note_off_c, 2, 21, 0
5, 98370, Note_off_c, 2, 28, 0
5, 98370, Note_off_c, 2, 33, 0
5, 98370, Note_on_c, 2, 21, 100
5, 98370, Note_on_c, 2, 28, 100
5, 98370, Note_on_c, 2, 33, 100
5, 98400, Note_off_c, 2, 21, 0
5, 98400, Note_off_c, 2, 28, 0
5, 98400, Note_off_c, 2, 33, 0
5, 98400, Note_on_c, 2, 21, 100
5, 98400, Note_on_c, 2, 28, 100
5, 98400, Note_on_c, 2, 33, 100
5, 98430, Note_off_c, 2, 21, 0
5, 98430, Note_off_c, 2, 28, 0
5, 98430, Note_off_c, 2, 33, 0
5, 98430, Note_on_c, 2, 21, 100
5, 98430, Note_on_c, 2, 28, 100
5, 98430, Note_on_c, 2, 33, 100
5, 98460, Note_off_c, 2, 21, 0
5, 98460, Note_off_c, 2, 28, 0
5, 98460, Note_off_c, 2, 33, 0
5, 98460, Note_on_c, 2, 21, 100
5, 98460, Note_on_c, 2, 28, 100
5, 98460, Note_on_c, 2, 33, 100
5, 98490, Note_off_c, 2, 21, 0
5, 98490, Note_off_c, 2, 28, 0
5, 98490, Note_off_c, 2, 33, 0
5, 98490, Note_on_c, 2, 21, 100
5, 98490, Note_on_c, 2, 28, 100
5, 98490, Note_on_c, 2, 33, 100
5, 98520, Note_off_c, 2, 21, 0
5, 98520, Note_off_c, 2, 28, 0
5, 98520, Note_off_c, 2, 33, 0
5, 98520, Note_on_c, 2, 21, 100
5, 98520, Note_on_c, 2, 28, 100
5, 98520, Note_on_c, 2, 33, 100
5, 98550, Note_off_c, 2, 21, 0
5, 98550, Note_off_c, 2, 28, 0
5, 98550, Note_off_c, 2, 33, 0
5, 98550, Note_on_c, 2, 21, 100
5, 98550, Note_on_c, 2, 28, 100
5, 98550, Note_on_c, 2, 33, 100
5, 98580, Note_off_c, 2, 21, 0
5, 98580, Note_off_c, 2, 28, 0
5, 98580, Note_off_c, 2, 33, 0
5, 98580, Note_on_c, 2, 21, 100
5, 98580, Note_on_c, 2, 28, 100
5, 98580, Note_on_c, 2, 33, 100
5, 98610, Note_off_c, 2, 21, 0
5, 98610, Note_off_c, 2, 28, 0
5, 98610, Note_off_c, 2, 33, 0
5, 98610, Note_on_c, 2, 21, 100
5, 98610, Note_on_c, 2, 28, 100
5, 98610, Note_on_c, 2, 33, 100
5, 98640, Note_off_c, 2, 21, 0
5, 98640, Note_off_c, 2, 28, 0
5, 98640, Note_off_c, 2, 33, 0
5, 98640, Note_on_c, 2, 21, 100
5, 98640, Note_on_c, 2, 28, 100
5, 98640, Note_on_c, 2, 33, 100
5, 98670, Note_off_c, 2, 21, 0
5, 98670, Note_off_c, 2, 28, 0
5, 98670, Note_off_c, 2, 33, 0
5, 98670, Note_on_c, 2, 21, 100
5, 98670, Note_on_c, 2, 28, 100
5, 98670, Note_on_c, 2, 33, 100
5, 98700, Note_off_c, 2, 21, 0
5, 98700, Note_off_c, 2, 28, 0
5, 98700, Note_off_c, 2, 33, 0
5, 98700, Note_on_c, 2, 21, 100
5, 98700, Note_on_c, 2, 28, 100
5, 98700, Note_on_c, 2, 33, 100
5, 98730, Note_off_c, 2, 21, 0
5, 98730, Note_off_c, 2, 28, 0
5, 98730, Note_off_c, 2, 33, 0
5, 98730, Note_on_c, 2, 21, 100
5, 98730, Note_on_c, 2, 28, 100
5, 98730, Note_on_c, 2, 33, 100
5, 98760, Note_off_c, 2, 21, 0
5, 98760, Note_off_c, 2, 28, 0
5, 98760, Note_off_c, 2, 33, 0
5, 98760, Note_on_c, 2, 21, 100
5, 98760, Note_on_c, 2, 28, 100
5, 98760, Note_on_c, 2, 33, 100
5, 98790, Note_off_c, 2, 21, 0
5, 98790, Note_off_c, 2, 28, 0
5, 98790, Note_off_c, 2, 33, 0
5, 98790, Note_on_c, 2, 21, 100
5, 98790, Note_on_c, 2, 28, 100
5, 98790, Note_on_c, 2, 33, 100
5, 98820, Note_off_c, 2, 21, 0
5, 98820, Note_off_c, 2, 28, 0
5, 98820, Note_off_c, 2, 33, 0
5, 98820, Note_on_c, 2, 21, 100
5, 98820, Note_on_c, 2, 28, 100
5, 98820, Note_on_c, 2, 33, 100
5, 98850, Note_off_c, 2, 21, 0
5, 98850, Note_off_c, 2, 28, 0
5, 98850, Note_off_c, 2, 33, 0
5, 98850, Note_on_c, 2, 21, 100
5, 98850, Note_on_c, 2, 28, 100
5, 98850, Note_on_c, 2, 33, 100
5, 98880, Note_off_c, 2, 21, 0
5, 98880, Note_off_c, 2, 28, 0
5, 98880, Note_off_c, 2, 33, 0
5, 98880, Note_on_c, 2, 21, 100
5, 98880, Note_on_c, 2, 28, 100
5, 98880, Note_on_c, 2, 33, 100
5, 98910, Note_off_c, 2, 21, 0
5, 98910, Note_off_c, 2, 28, 0
5, 98910, Note_off_c, 2, 33, 0
5, 98910, Note_on_c, 2, 21, 100
5, 98910, Note_on_c, 2, 28, 100
5, 98910, Note_on_c, 2, 33, 100
5, 98940, Note_off_c, 2, 21, 0
5, 98940, Note_off_c, 2, 28, 0
5, 98940, Note_off_c, 2, 33, 0
5, 98940, Note_on_c, 2, 21, 100
5, 98940, Note_on_c, 2, 28, 100
5, 98940, Note_on_c, 2, 33, 100
5, 98970, Note_off_c, 2, 21, 0
5, 98970, Note_off_c, 2, 28, 0
5, 98970, Note_off_c, 2, 33, 0
5, 98970, Note_on_c, 2, 21, 100
5, 98970, Note_on_c, 2, 28, 100
5, 98970, Note_on_c, 2, 33, 100
5, 99000, Note_off_c, 2, 21, 0
5, 99000, Note_off_c, 2, 28, 0
5, 99000, Note_off_c, 2, 33, 0
5, 99000, Note_on_c, 2, 21, 100
5, 99000, Note_on_c, 2, 28, 100
5, 99000, Note_on_c, 2, 33, 100
5, 99030, Note_off_c, 2, 21, 0
5, 99030, Note_off_c, 2, 28, 0
5, 99030, Note_off_c, 2, 33, 0
5, 99030, Note_on_c, 2, 21, 100
5, 99030, Note_on_c, 2, 28, 100
5, 99030, Note_on_c, 2, 33, 100
5, 99060, Note_off_c, 2, 21, 0
5, 99060, Note_off_c, 2, 28, 0
5, 99060, Note_off_c, 2, 33, 0
5, 99060, Note_on_c, 2, 21, 100
5, 99060, Note_on_c, 2, 28, 100
5, 99060, Note_on_c, 2, 33, 100
5, 99090, Note_off_c, 2, 21, 0
5, 99090, Note_off_c, 2, 28, 0
5, 99090, Note_off_c, 2, 33, 0
5, 99090, Note_on_c, 2, 21, 100
5, 99090, Note_on_c, 2, 28, 100
5, 99090, Note_on_c, 2, 33, 100
5, 99120, Note_off_c, 2, 21, 0
5, 99120, Note_off_c, 2, 28, 0
5, 99120, Note_off_c, 2, 33, 0
5, 99120, Note_on_c, 2, 21, 100
5, 99120, Note_on_c, 2, 28, 100
5, 99120, Note_on_c, 2, 33, 100
5, 99150, Note_off_c, 2, 21, 0
5, 99150, Note_off_c, 2, 28, 0
5, 99150, Note_off_c, 2, 33, 0
5, 99150, Note_on_c, 2, 21, 100
5, 99150, Note_on_c, 2, 28, 100
5, 99150, Note_on_c, 2, 33, 100
5, 99180, Note_off_c, 2, 21, 0
5, 99180, Note_off_c, 2, 28, 0
5, 99180, Note_off_c, 2, 33, 0
5, 99180, Note_on_c, 2, 21, 100
5, 99180, Note_on_c, 2, 28, 100
5, 99180, Note_on_c, 2, 33, 100
5, 99210, Note_off_c, 2, 21, 0
5, 99210, Note_off_c, 2, 28, 0
5, 99210, Note_off_c, 2, 33, 0
5, 99210, Note_on_c, 2, 21, 100
5, 99210, Note_on_c, 2, 28, 100
5, 99210, Note_on_c, 2, 33, 100
5, 99240, Note_off_c, 2, 21, 0
5, 99240, Note_off_c, 2, 28, 0
5, 99240, Note_off_c, 2, 33, 0
5, 99240, Note_on_c, 2, 21, 100
5, 99240, Note_on_c, 2, 28, 100
5, 99240, Note_on_c, 2, 33, 100
5, 99270, Note_off_c, 2, 21, 0
5, 99270, Note_off_c, 2, 28, 0
5, 99270, Note_off_c, 2, 33, 0
5, 99270, Note_on_c, 2, 21, 100
5, 99270, Note_on_c, 2, 28, 100
5, 99270, Note_on_c, 2, 33, 100
5, 99300, Note_off_c, 2, 21, 0
5, 99300, Note_off_c, 2, 28, 0
5, 99300, Note_off_c, 2, 33, 0
5, 99300, Note_on_c, 2, 21, 100
5, 99300, Note_on_c, 2, 28, 100
5, 99300, Note_on_c, 2, 33, 100
5, 99330, Note_off_c, 2, 21, 0
5, 99330, Note_off_c, 2, 28, 0
5, 99330, Note_off_c, 2, 33, 0
5, 99330, Note_on_c, 2, 21, 100
5, 99330, Note_on_c, 2, 28, 100
5, 99330, Note_on_c, 2, 33, 100
5, 99360, Note_off_c, 2, 21, 0
5, 99360, Note_off_c, 2, 28, 0
5, 99360, Note_off_c, 2, 33, 0
5, 99360, Note_on_c, 2, 23, 100
5, 99360, Note_on_c, 2, 30, 100
5, 99360, Note_on_c, 2, 35, 100
5, 99360, Note_on_c, 2, 39, 100
5, 99390, Note_off_c, 2, 23, 0
5, 99390, Note_off_c, 2, 30, 0
5, 99390, Note_off_c, 2, 35, 0
5, 99390, Note_off_c, 2, 39, 0
5, 99390, Note_on_c, 2, 23, 100
5, 99390, Note_on_c, 2, 30, 100
5, 99390, Note_on_c, 2, 35, 100
5, 99390, Note_on_c, 2, 39, 100
5, 99420, Note_off_c, 2, 23, 0
5, 99420, Note_off_c, 2, 30, 0
5, 99420, Note_off_c, 2, 35, 0
5, 99420, Note_off_c, 2, 39, 0
5, 99420, Note_on_c, 2, 23, 100
5, 99420, Note_on_c, 2, 30, 100
5, 99420, Note_on_c, 2, 35, 100
5, 99420, Note_on_c, 2, 39, 100
5, 99450, Note_off_c, 2, 23, 0
5, 99450, Note_off_c, 2, 30, 0
5, 99450, Note_off_c, 2, 35, 0
5, 99450, Note_off_c, 2, 39, 0
5, 99450, Note_on_c, 2, 23, 100
5, 99450, Note_on_c, 2, 30, 100
5, 99450, Note_on_c, 2, 35, 100
5, 99450, Note_on_c, 2, 39, 100
5, 99480, Note_off_c, 2, 23, 0
5, 99480, Note_off_c, 2, 30, 0
5, 99480, Note_off_c, 2, 35, 0
5, 99480, Note_off_c, 2, 39, 0
5, 99480, Note_on_c, 2, 23, 100
5, 99480, Note_on_c, 2, 30, 100
5, 99480, Note_on_c, 2, 35, 100
5, 99480, Note_on_c, 2, 39, 100
5, 99510, Note_off_c, 2, 23, 0
5, 99510, Note_off_c, 2, 30, 0
5, 99510, Note_off_c, 2, 35, 0
5, 99510, Note_off_c, 2, 39, 0
5, 99510, Note_on_c, 2, 23, 100
5, 99510, Note_on_c, 2, 30, 100
5, 99510, Note_on_c, 2, 35, 100
5, 99510, Note_on_c, 2, 39, 100
5, 99540, Note_off_c, 2, 23, 0
5, 99540, Note_off_c, 2, 30, 0
5, 99540, Note_off_c, 2, 35, 0
5, 99540, Note_off_c, 2, 39, 0
5, 99540, Note_on_c, 2, 23, 100
5, 99540, Note_on_c, 2, 30, 100
5, 99540, Note_on_c, 2, 35, 100
5, 99540, Note_on_c, 2, 39, 100
5, 99570, Note_off_c, 2, 23, 0
5, 99570, Note_off_c, 2, 30, 0
5, 99570, Note_off_c, 2, 35, 0
5, 99570, Note_off_c, 2, 39, 0
5, 99570, Note_on_c, 2, 23, 100
5, 99570, Note_on_c, 2, 30, 100
5, 99570, Note_on_c, 2, 35, 100
5, 99570, Note_on_c, 2, 39, 100
5, 99600, Note_off_c, 2, 23, 0
5, 99600, Note_off_c, 2, 30, 0
5, 99600, Note_off_c, 2, 35, 0
5, 99600, Note_off_c, 2, 39, 0
5, 99600, Note_on_c, 2, 23, 100
5, 99600, Note_on_c, 2, 30, 100
5, 99600, Note_on_c, 2, 35, 100
5, 99600, Note_on_c, 2, 39, 100
5, 99630, Note_off_c, 2, 23, 0
5, 99630, Note_off_c, 2, 30, 0
5, 99630, Note_off_c, 2, 35, 0
5, 99630, Note_off_c, 2, 39, 0
5, 99630, Note_on_c, 2, 23, 100
5, 99630, Note_on_c, 2, 30, 100
5, 99630, Note_on_c, 2, 35, 100
5, 99630, Note_on_c, 2, 39, 100
5, 99660, Note_off_c, 2, 23, 0
5, 99660, Note_off_c, 2, 30, 0
5, 99660, Note_off_c, 2, 35, 0
5, 99660, Note_off_c, 2, 39, 0
5, 99660, Note_on_c, 2, 23, 100
5, 99660, Note_on_c, 2, 30, 100
5, 99660, Note_on_c, 2, 35, 100
5, 99660, Note_on_c, 2, 39, 100
5, 99690, Note_off_c, 2, 23, 0
5, 99690, Note_off_c, 2, 30, 0
5, 99690, Note_off_c, 2, 35, 0
5, 99690, Note_off_c, 2, 39, 0
5, 99690, Note_on_c, 2, 23, 100
5, 99690, Note_on_c, 2, 30, 100
5, 99690, Note_on_c, 2, 35, 100
5, 99690, Note_on_c, 2, 39, 100
5, 99720, Note_off_c, 2, 23, 0
5, 99720, Note_off_c, 2, 30, 0
5, 99720, Note_off_c, 2, 35, 0
5, 99720, Note_off_c, 2, 39, 0
5, 99720, Note_on_c, 2, 23, 100
5, 99720, Note_on_c, 2, 30, 100
5, 99720, Note_on_c, 2, 35, 100
5, 99720, Note_on_c, 2, 39, 100
5, 99750, Note_off_c, 2, 23, 0
5, 99750, Note_off_c, 2, 30, 0
5, 99750, Note_off_c, 2, 35, 0
5, 99750, Note_off_c, 2, 39, 0
5, 99750, Note_on_c, 2, 23, 100
5, 99750, Note_on_c, 2, 30, 100
5, 99750, Note_on_c, 2, 35, 100
5, 99750, Note_on_c, 2, 39, 100
5, 99780, Note_off_c, 2, 23, 0
5, 99780, Note_off_c, 2, 30, 0
5, 99780, Note_off_c, 2, 35, 0
5, 99780, Note_off_c, 2, 39, 0
5, 99780, Note_on_c, 2, 23, 100
5, 99780, Note_on_c, 2, 30, 100
5, 99780, Note_on_c, 2, 35, 100
5, 99780, Note_on_c, 2, 39, 100
5, 99810, Note_off_c, 2, 23, 0
5, 99810, Note_off_c, 2, 30, 0
5, 99810, Note_off_c, 2, 35, 0
5, 99810, Note_off_c, 2, 39, 0
5, 99810, Note_on_c, 2, 23, 100
5, 99810, Note_on_c, 2, 30, 100
5, 99810, Note_on_c, 2, 35, 100
5, 99810, Note_on_c, 2, 39, 100
5, 99840, Note_off_c, 2, 23, 0
5, 99840, Note_off_c, 2, 30, 0
5, 99840, Note_off_c, 2, 35, 0
5, 99840, Note_off_c, 2, 39, 0
5, 99840, Note_on_c, 2, 23, 100
5, 99840, Note_on_c, 2, 30, 100
5, 99840, Note_on_c, 2, 35, 100
5, 99840, Note_on_c, 2, 39, 100
5, 99870, Note_off_c, 2, 23, 0
5, 99870, Note_off_c, 2, 30, 0
5, 99870, Note_off_c, 2, 35, 0
5, 99870, Note_off_c, 2, 39, 0
5, 99870, Note_on_c, 2, 23, 100
5, 99870, Note_on_c, 2, 30, 100
5, 99870, Note_on_c, 2, 35, 100
5, 99870, Note_on_c, 2, 39, 100
5, 99900, Note_off_c, 2, 23, 0
5, 99900, Note_off_c, 2, 30, 0
5, 99900, Note_off_c, 2, 35, 0
5, 99900, Note_off_c, 2, 39, 0
5, 99900, Note_on_c, 2, 23, 100
5, 99900, Note_on_c, 2, 30, 100
5, 99900, Note_on_c, 2, 35, 100
5, 99900, Note_on_c, 2, 39, 100
5, 99930, Note_off_c, 2, 23, 0
5, 99930, Note_off_c, 2, 30, 0
5, 99930, Note_off_c, 2, 35, 0
5, 99930, Note_off_c, 2, 39, 0
5, 99930, Note_on_c, 2, 23, 100
5, 99930, Note_on_c, 2, 30, 100
5, 99930, Note_on_c, 2, 35, 100
5, 99930, Note_on_c, 2, 39, 100
5, 99960, Note_off_c, 2, 23, 0
5, 99960, Note_off_c, 2, 30, 0
5, 99960, Note_off_c, 2, 35, 0
5, 99960, Note_off_c, 2, 39, 0
5, 99960, Note_on_c, 2, 23, 100
5, 99960, Note_on_c, 2, 30, 100
5, 99960, Note_on_c, 2, 35, 100
5, 99960, Note_on_c, 2, 39, 100
5, 99990, Note_off_c, 2, 23, 0
5, 99990, Note_off_c, 2, 30, 0
5, 99990, Note_off_c, 2, 35, 0
5, 99990, Note_off_c, 2, 39, 0
5, 99990, Note_on_c, 2, 23, 100
5, 99990, Note_on_c, 2, 30, 100
5, 99990, Note_on_c, 2, 35, 100
5, 99990, Note_on_c, 2, 39, 100
5, 100020, Note_off_c, 2, 23, 0
5, 100020, Note_off_c, 2, 30, 0
5, 100020, Note_off_c, 2, 35, 0
5, 100020, Note_off_c, 2, 39, 0
5, 100020, Note_on_c, 2, 23, 100
5, 100020, Note_on_c, 2, 30, 100
5, 100020, Note_on_c, 2, 35, 100
5, 100020, Note_on_c, 2, 39, 100
5, 100050, Note_off_c, 2, 23, 0
5, 100050, Note_off_c, 2, 30, 0
5, 100050, Note_off_c, 2, 35, 0
5, 100050, Note_off_c, 2, 39, 0
5, 100050, Note_on_c, 2, 23, 100
5, 100050, Note_on_c, 2, 30, 100
5, 100050, Note_on_c, 2, 35, 100
5, 100050, Note_on_c, 2, 39, 100
5, 100080, Note_off_c, 2, 23, 0
5, 100080, Note_off_c, 2, 30, 0
5, 100080, Note_off_c, 2, 35, 0
5, 100080, Note_off_c, 2, 39, 0
5, 100080, Note_on_c, 2, 23, 100
5, 100080, Note_on_c, 2, 30, 100
5, 100080, Note_on_c, 2, 35, 100
5, 100080, Note_on_c, 2, 39, 100
5, 100110, Note_off_c, 2, 23, 0
5, 100110, Note_off_c, 2, 30, 0
5, 100110, Note_off_c, 2, 35, 0
5, 100110, Note_off_c, 2, 39, 0
5, 100110, Note_on_c, 2, 23, 100
5, 100110, Note_on_c, 2, 30, 100
5, 100110, Note_on_c, 2, 35, 100
5, 100110, Note_on_c, 2, 39, 100
5, 100140, Note_off_c, 2, 23, 0
5, 100140, Note_off_c, 2, 30, 0
5, 100140, Note_off_c, 2, 35, 0
5, 100140, Note_off_c, 2, 39, 0
5, 100140, Note_on_c, 2, 23, 100
5, 100140, Note_on_c, 2, 30, 100
5, 100140, Note_on_c, 2, 35, 100
5, 100140, Note_on_c, 2, 39, 100
5, 100170, Note_off_c, 2, 23, 0
5, 100170, Note_off_c, 2, 30, 0
5, 100170, Note_off_c, 2, 35, 0
5, 100170, Note_off_c, 2, 39, 0
5, 100170, Note_on_c, 2, 23, 100
5, 100170, Note_on_c, 2, 30, 100
5, 100170, Note_on_c, 2, 35, 100
5, 100170, Note_on_c, 2, 39, 100
5, 100200, Note_off_c, 2, 23, 0
5, 100200, Note_off_c, 2, 30, 0
5, 100200, Note_off_c, 2, 35, 0
5, 100200, Note_off_c, 2, 39, 0
5, 100200, Note_on_c, 2, 23, 100
5, 100200, Note_on_c, 2, 30, 100
5, 100200, Note_on_c, 2, 35, 100
5, 100200, Note_on_c, 2, 39, 100
5, 100230, Note_off_c, 2, 23, 0
5, 100230, Note_off_c, 2, 30, 0
5, 100230, Note_off_c, 2, 35, 0
5, 100230, Note_off_c, 2, 39, 0
5, 100230, Note_on_c, 2, 23, 100
5, 100230, Note_on_c, 2, 30, 100
5, 100230, Note_on_c, 2, 35, 100
5, 100230, Note_on_c, 2, 39, 100
5, 100260, Note_off_c, 2, 23, 0
5, 100260, Note_off_c, 2, 30, 0
5, 100260, Note_off_c, 2, 35, 0
5, 100260, Note_off_c, 2, 39, 0
5, 100260, Note_on_c, 2, 23, 100
5, 100260, Note_on_c, 2, 30, 100
5, 100260, Note_on_c, 2, 35, 100
5, 100260, Note_on_c, 2, 39, 100
5, 100290, Note_off_c, 2, 23, 0
5, 100290, Note_off_c, 2, 30, 0
5, 100290, Note_off_c, 2, 35, 0
5, 100290, Note_off_c, 2, 39, 0
5, 100290, Note_on_c, 2, 23, 100
5, 100290, Note_on_c, 2, 30, 100
5, 100290, Note_on_c, 2, 35, 100
5, 100290, Note_on_c, 2, 39, 100
5, 100320, Note_off_c, 2, 23, 0
5, 100320, Note_off_c, 2, 30, 0
5, 100320, Note_off_c, 2, 35, 0
5, 100320, Note_off_c, 2, 39, 0
5, 100320, Note_on_c, 2, 23, 100
5, 100320, Note_on_c, 2, 30, 100
5, 100320, Note_on_c, 2, 35, 100
5, 100320, Note_on_c, 2, 39, 100
5, 100350, Note_off_c, 2, 23, 0
5, 100350, Note_off_c, 2, 30, 0
5, 100350, Note_off_c, 2, 35, 0
5, 100350, Note_off_c, 2, 39, 0
5, 100350, Note_on_c, 2, 23, 100
5, 100350, Note_on_c, 2, 30, 100
5, 100350, Note_on_c, 2, 35, 100
5, 100350, Note_on_c, 2, 39, 100
5, 100380, Note_off_c, 2, 23, 0
5, 100380, Note_off_c, 2, 30, 0
5, 100380, Note_off_c, 2, 35, 0
5, 100380, Note_off_c, 2, 39, 0
5, 100380, Note_on_c, 2, 23, 100
5, 100380, Note_on_c, 2, 30, 100
5, 100380, Note_on_c, 2, 35, 100
5, 100380, Note_on_c, 2, 39, 100
5, 100410, Note_off_c, 2, 23, 0
5, 100410, Note_off_c, 2, 30, 0
5, 100410, Note_off_c, 2, 35, 0
5, 100410, Note_off_c, 2, 39, 0
5, 100410, Note_on_c, 2, 23, 100
5, 100410, Note_on_c, 2, 30, 100
5, 100410, Note_on_c, 2, 35, 100
5, 100410, Note_on_c, 2, 39, 100
5, 100440, Note_off_c, 2, 23, 0
5, 100440, Note_off_c, 2, 30, 0
5, 100440, Note_off_c, 2, 35, 0
5, 100440, Note_off_c, 2, 39, 0
5, 100440, Note_on_c, 2, 23, 100
5, 100440, Note_on_c, 2, 30, 100
5, 100440, Note_on_c, 2, 35, 100
5, 100440, Note_on_c, 2, 39, 100
5, 100470, Note_off_c, 2, 23, 0
5, 100470, Note_off_c, 2, 30, 0
5, 100470, Note_off_c, 2, 35, 0
5, 100470, Note_off_c, 2, 39, 0
5, 100470, Note_on_c, 2, 23, 100
5, 100470, Note_on_c, 2, 30, 100
5, 100470, Note_on_c, 2, 35, 100
5, 100470, Note_on_c, 2, 39, 100
5, 100500, Note_off_c, 2, 23, 0
5, 100500, Note_off_c, 2, 30, 0
5, 100500, Note_off_c, 2, 35, 0
5, 100500, Note_off_c, 2, 39, 0
5, 100500, Note_on_c, 2, 23, 100
5, 100500, Note_on_c, 2, 30, 100
5, 100500, Note_on_c, 2, 35, 100
5, 100500, Note_on_c, 2, 39, 100
5, 100530, Note_off_c, 2, 23, 0
5, 100530, Note_off_c, 2, 30, 0
5, 100530, Note_off_c, 2, 35, 0
5, 100530, Note_off_c, 2, 39, 0
5, 100530, Note_on_c, 2, 23, 100
5, 100530, Note_on_c, 2, 30, 100
5, 100530, Note_on_c, 2, 35, 100
5, 100530, Note_on_c, 2, 39, 100
5, 100560, Note_off_c, 2, 23, 0
5, 100560, Note_off_c, 2, 30, 0
5, 100560, Note_off_c, 2, 35, 0
5, 100560, Note_off_c, 2, 39, 0
5, 100560, Note_on_c, 2, 23, 100
5, 100560, Note_on_c, 2, 30, 100
5, 100560, Note_on_c, 2, 35, 100
5, 100560, Note_on_c, 2, 39, 100
5, 100590, Note_off_c, 2, 23, 0
5, 100590, Note_off_c, 2, 30, 0
5, 100590, Note_off_c, 2, 35, 0
5, 100590, Note_off_c, 2, 39, 0
5, 100590, Note_on_c, 2, 23, 100
5, 100590, Note_on_c, 2, 30, 100
5, 100590, Note_on_c, 2, 35, 100
5, 100590, Note_on_c, 2, 39, 100
5, 100620, Note_off_c, 2, 23, 0
5, 100620, Note_off_c, 2, 30, 0
5, 100620, Note_off_c, 2, 35, 0
5, 100620, Note_off_c, 2, 39, 0
5, 100620, Note_on_c, 2, 23, 100
5, 100620, Note_on_c, 2, 30, 100
5, 100620, Note_on_c, 2, 35, 100
5, 100620, Note_on_c, 2, 39, 100
5, 100650, Note_off_c, 2, 23, 0
5, 100650, Note_off_c, 2, 30, 0
5, 100650, Note_off_c, 2, 35, 0
5, 100650, Note_off_c, 2, 39, 0
5, 100650, Note_on_c, 2, 23, 100
5, 100650, Note_on_c, 2, 30, 100
5, 100650, Note_on_c, 2, 35, 100
5, 100650, Note_on_c, 2, 39, 100
5, 100680, Note_off_c, 2, 23, 0
5, 100680, Note_off_c, 2, 30, 0
5, 100680, Note_off_c, 2, 35, 0
5, 100680, Note_off_c, 2, 39, 0
5, 100680, Note_on_c, 2, 23, 100
5, 100680, Note_on_c, 2, 30, 100
5, 100680, Note_on_c, 2, 35, 100
5, 100680, Note_on_c, 2, 39, 100
5, 100710, Note_off_c, 2, 23, 0
5, 100710, Note_off_c, 2, 30, 0
5, 100710, Note_off_c, 2, 35, 0
5, 100710, Note_off_c, 2, 39, 0
5, 100710, Note_on_c, 2, 23, 100
5, 100710, Note_on_c, 2, 30, 100
5, 100710, Note_on_c, 2, 35, 100
5, 100710, Note_on_c, 2, 39, 100
5, 100740, Note_off_c, 2, 23, 0
5, 100740, Note_off_c, 2, 30, 0
5, 100740, Note_off_c, 2, 35, 0
5, 100740, Note_off_c, 2, 39, 0
5, 100740, Note_on_c, 2, 23, 100
5, 100740, Note_on_c, 2, 30, 100
5, 100740, Note_on_c, 2, 35, 100
5, 100740, Note_on_c, 2, 39, 100
5, 100770, Note_off_c, 2, 23, 0
5, 100770, Note_off_c, 2, 30, 0
5, 100770, Note_off_c, 2, 35, 0
5, 100770, Note_off_c, 2, 39, 0
5, 100770, Note_on_c, 2, 23, 100
5, 100770, Note_on_c, 2, 30, 100
5, 100770, Note_on_c, 2, 35, 100
5, 100770, Note_on_c, 2, 39, 100
5, 100800, Note_off_c, 2, 23, 0
5, 100800, Note_off_c, 2, 30, 0
5, 100800, Note_off_c, 2, 35, 0
5, 100800, Note_off_c, 2, 39, 0
5, 100800, Note_on_c, 2, 23, 100
5, 100800, Note_on_c, 2, 30, 100
5, 100800, Note_on_c, 2, 35, 100
5, 100800, Note_on_c, 2, 39, 100
5, 100830, Note_off_c, 2, 23, 0
5, 100830, Note_off_c, 2, 30, 0
5, 100830, Note_off_c, 2, 35, 0
5, 100830, Note_off_c, 2, 39, 0
5, 100830, Note_on_c, 2, 23, 100
5, 100830, Note_on_c, 2, 30, 100
5, 100830, Note_on_c, 2, 35, 100
5, 100830, Note_on_c, 2, 39, 100
5, 100860, Note_off_c, 2, 23, 0
5, 100860, Note_off_c, 2, 30, 0
5, 100860, Note_off_c, 2, 35, 0
5, 100860, Note_off_c, 2, 39, 0
5, 100860, Note_on_c, 2, 23, 100
5, 100860, Note_on_c, 2, 30, 100
5, 100860, Note_on_c, 2, 35, 100
5, 100860, Note_on_c, 2, 39, 100
5, 100890, Note_off_c, 2, 23, 0
5, 100890, Note_off_c, 2, 30, 0
5, 100890, Note_off_c, 2, 35, 0
5, 100890, Note_off_c, 2, 39, 0
5, 100890, Note_on_c, 2, 23, 100
5, 100890, Note_on_c, 2, 30, 100
5, 100890, Note_on_c, 2, 35, 100
5, 100890, Note_on_c, 2, 39, 100
5, 100920, Note_off_c, 2, 23, 0
5, 100920, Note_off_c, 2, 30, 0
5, 100920, Note_off_c, 2, 35, 0
5, 100920, Note_off_c, 2, 39, 0
5, 100920, Note_on_c, 2, 23, 100
5, 100920, Note_on_c, 2, 30, 100
5, 100920, Note_on_c, 2, 35, 100
5, 100920, Note_on_c, 2, 39, 100
5, 100950, Note_off_c, 2, 23, 0
5, 100950, Note_off_c, 2, 30, 0
5, 100950, Note_off_c, 2, 35, 0
5, 100950, Note_off_c, 2, 39, 0
5, 100950, Note_on_c, 2, 23, 100
5, 100950, Note_on_c, 2, 30, 100
5, 100950, Note_on_c, 2, 35, 100
5, 100950, Note_on_c, 2, 39, 100
5, 100980, Note_off_c, 2, 23, 0
5, 100980, Note_off_c, 2, 30, 0
5, 100980, Note_off_c, 2, 35, 0
5, 100980, Note_off_c, 2, 39, 0
5, 100980, Note_on_c, 2, 23, 100
5, 100980, Note_on_c, 2, 30, 100
5, 100980, Note_on_c, 2, 35, 100
5, 100980, Note_on_c, 2, 39, 100
5, 101010, Note_off_c, 2, 23, 0
5, 101010, Note_off_c, 2, 30, 0
5, 101010, Note_off_c, 2, 35, 0
5, 101010, Note_off_c, 2, 39, 0
5, 101010, Note_on_c, 2, 23, 100
5, 101010, Note_on_c, 2, 30, 100
5, 101010, Note_on_c, 2, 35, 100
5, 101010, Note_on_c, 2, 39, 100
5, 101040, Note_off_c, 2, 23, 0
5, 101040, Note_off_c, 2, 30, 0
5, 101040, Note_off_c, 2, 35, 0
5, 101040, Note_off_c, 2, 39, 0
5, 101040, Note_on_c, 2, 23, 100
5, 101040, Note_on_c, 2, 30, 100
5, 101040, Note_on_c, 2, 35, 100
5, 101040, Note_on_c, 2, 39, 100
5, 101070, Note_off_c, 2, 23, 0
5, 101070, Note_off_c, 2, 30, 0
5, 101070, Note_off_c, 2, 35, 0
5, 101070, Note_off_c, 2, 39, 0
5, 101070, Note_on_c, 2, 23, 100
5, 101070, Note_on_c, 2, 30, 100
5, 101070, Note_on_c, 2, 35, 100
5, 101070, Note_on_c, 2, 39, 100
5, 101100, Note_off_c, 2, 23, 0
5, 101100, Note_off_c, 2, 30, 0
5, 101100, Note_off_c, 2, 35, 0
5, 101100, Note_off_c, 2, 39, 0
5, 101100, Note_on_c, 2, 23, 100
5, 101100, Note_on_c, 2, 30, 100
5, 101100, Note_on_c, 2, 35, 100
5, 101100, Note_on_c, 2, 39, 100
5, 101130, Note_off_c, 2, 23, 0
5, 101130, Note_off_c, 2, 30, 0
5, 101130, Note_off_c, 2, 35, 0
5, 101130, Note_off_c, 2, 39, 0
5, 101130, Note_on_c, 2, 23, 100
5, 101130, Note_on_c, 2, 30, 100
5, 101130, Note_on_c, 2, 35, 100
5, 101130, Note_on_c, 2, 39, 100
5, 101160, Note_off_c, 2, 23, 0
5, 101160, Note_off_c, 2, 30, 0
5, 101160, Note_off_c, 2, 35, 0
5, 101160, Note_off_c, 2, 39, 0
5, 101160, Note_on_c, 2, 23, 100
5, 101160, Note_on_c, 2, 30, 100
5, 101160, Note_on_c, 2, 35, 100
5, 101160, Note_on_c, 2, 39, 100
5, 101190, Note_off_c, 2, 23, 0
5, 101190, Note_off_c, 2, 30, 0
5, 101190, Note_off_c, 2, 35, 0
5, 101190, Note_off_c, 2, 39, 0
5, 101190, Note_on_c, 2, 23, 100
5, 101190, Note_on_c, 2, 30, 100
5, 101190, Note_on_c, 2, 35, 100
5, 101190, Note_on_c, 2, 39, 100
5, 101220, Note_off_c, 2, 23, 0
5, 101220, Note_off_c, 2, 30, 0
5, 101220, Note_off_c, 2, 35, 0
5, 101220, Note_off_c, 2, 39, 0
5, 101220, Note_on_c, 2, 23, 100
5, 101220, Note_on_c, 2, 30, 100
5, 101220, Note_on_c, 2, 35, 100
5, 101220, Note_on_c, 2, 39, 100
5, 101250, Note_off_c, 2, 23, 0
5, 101250, Note_off_c, 2, 30, 0
5, 101250, Note_off_c, 2, 35, 0
5, 101250, Note_off_c, 2, 39, 0
5, 101250, Note_on_c, 2, 23, 100
5, 101250, Note_on_c, 2, 30, 100
5, 101250, Note_on_c, 2, 35, 100
5, 101250, Note_on_c, 2, 39, 100
5, 101280, Note_off_c, 2, 23, 0
5, 101280, Note_off_c, 2, 30, 0
5, 101280, Note_off_c, 2, 35, 0
5, 101280, Note_off_c, 2, 39, 0
5, 101280, Note_on_c, 2, 20, 100
5, 101280, Note_on_c, 2, 25, 100
5, 101280, Note_on_c, 2, 28, 100
5, 101280, Note_on_c, 2, 32, 100
5, 101280, Note_on_c, 2, 37, 100
5, 101310, Note_off_c, 2, 20, 0
5, 101310, Note_off_c, 2, 25, 0
5, 101310, Note_off_c, 2, 28, 0
5, 101310, Note_off_c, 2, 32, 0
5, 101310, Note_off_c, 2, 37, 0
5, 101310, Note_on_c, 2, 20, 100
5, 101310, Note_on_c, 2, 25, 100
5, 101310, Note_on_c, 2, 28, 100
5, 101310, Note_on_c, 2, 32, 100
5, 101310, Note_on_c, 2, 37, 100
5, 101340, Note_off_c, 2, 20, 0
5, 101340, Note_off_c, 2, 25, 0
5, 101340, Note_off_c, 2, 28, 0
5, 101340, Note_off_c, 2, 32, 0
5, 101340, Note_off_c, 2, 37, 0
5, 101340, Note_on_c, 2, 20, 100
5, 101340, Note_on_c, 2, 25, 100
5, 101340, Note_on_c, 2, 28, 100
5, 101340, Note_on_c, 2, 32, 100
5, 101340, Note_on_c, 2, 37, 100
5, 101370, Note_off_c, 2, 20, 0
5, 101370, Note_off_c, 2, 25, 0
5, 101370, Note_off_c, 2, 28, 0
5, 101370, Note_off_c, 2, 32, 0
5, 101370, Note_off_c, 2, 37, 0
5, 101370, Note_on_c, 2, 20, 100
5, 101370, Note_on_c, 2, 25, 100
5, 101370, Note_on_c, 2, 28, 100
5, 101370, Note_on_c, 2, 32, 100
5, 101370, Note_on_c, 2, 37, 100
5, 101400, Note_off_c, 2, 20, 0
5, 101400, Note_off_c, 2, 25, 0
5, 101400, Note_off_c, 2, 28, 0
5, 101400, Note_off_c, 2, 32, 0
5, 101400, Note_off_c, 2, 37, 0
5, 101400, Note_on_c, 2, 20, 100
5, 101400, Note_on_c, 2, 25, 100
5, 101400, Note_on_c, 2, 28, 100
5, 101400, Note_on_c, 2, 32, 100
5, 101400, Note_on_c, 2, 37, 100
5, 101430, Note_off_c, 2, 20, 0
5, 101430, Note_off_c, 2, 25, 0
5, 101430, Note_off_c, 2, 28, 0
5, 101430, Note_off_c, 2, 32, 0
5, 101430, Note_off_c, 2, 37, 0
5, 101430, Note_on_c, 2, 20, 100
5, 101430, Note_on_c, 2, 25, 100
5, 101430, Note_on_c, 2, 28, 100
5, 101430, Note_on_c, 2, 32, 100
5, 101430, Note_on_c, 2, 37, 100
5, 101460, Note_off_c, 2, 20, 0
5, 101460, Note_off_c, 2, 25, 0
5, 101460, Note_off_c, 2, 28, 0
5, 101460, Note_off_c, 2, 32, 0
5, 101460, Note_off_c, 2, 37, 0
5, 101460, Note_on_c, 2, 20, 100
5, 101460, Note_on_c, 2, 25, 100
5, 101460, Note_on_c, 2, 28, 100
5, 101460, Note_on_c, 2, 32, 100
5, 101460, Note_on_c, 2, 37, 100
5, 101490, Note_off_c, 2, 20, 0
5, 101490, Note_off_c, 2, 25, 0
5, 101490, Note_off_c, 2, 28, 0
5, 101490, Note_off_c, 2, 32, 0
5, 101490, Note_off_c, 2, 37, 0
5, 101490, Note_on_c, 2, 20, 100
5, 101490, Note_on_c, 2, 25, 100
5, 101490, Note_on_c, 2, 28, 100
5, 101490, Note_on_c, 2, 32, 100
5, 101490, Note_on_c, 2, 37, 100
5, 101520, Note_off_c, 2, 20, 0
5, 101520, Note_off_c, 2, 25, 0
5, 101520, Note_off_c, 2, 28, 0
5, 101520, Note_off_c, 2, 32, 0
5, 101520, Note_off_c, 2, 37, 0
5, 101520, Note_on_c, 2, 20, 100
5, 101520, Note_on_c, 2, 25, 100
5, 101520, Note_on_c, 2, 28, 100
5, 101520, Note_on_c, 2, 32, 100
5, 101520, Note_on_c, 2, 37, 100
5, 101550, Note_off_c, 2, 20, 0
5, 101550, Note_off_c, 2, 25, 0
5, 101550, Note_off_c, 2, 28, 0
5, 101550, Note_off_c, 2, 32, 0
5, 101550, Note_off_c, 2, 37, 0
5, 101550, Note_on_c, 2, 20, 100
5, 101550, Note_on_c, 2, 25, 100
5, 101550, Note_on_c, 2, 28, 100
5, 101550, Note_on_c, 2, 32, 100
5, 101550, Note_on_c, 2, 37, 100
5, 101580, Note_off_c, 2, 20, 0
5, 101580, Note_off_c, 2, 25, 0
5, 101580, Note_off_c, 2, 28, 0
5, 101580, Note_off_c, 2, 32, 0
5, 101580, Note_off_c, 2, 37, 0
5, 101580, Note_on_c, 2, 20, 100
5, 101580, Note_on_c, 2, 25, 100
5, 101580, Note_on_c, 2, 28, 100
5, 101580, Note_on_c, 2, 32, 100
5, 101580, Note_on_c, 2, 37, 100
5, 101610, Note_off_c, 2, 20, 0
5, 101610, Note_off_c, 2, 25, 0
5, 101610, Note_off_c, 2, 28, 0
5, 101610, Note_off_c, 2, 32, 0
5, 101610, Note_off_c, 2, 37, 0
5, 101610, Note_on_c, 2, 20, 100
5, 101610, Note_on_c, 2, 25, 100
5, 101610, Note_on_c, 2, 28, 100
5, 101610, Note_on_c, 2, 32, 100
5, 101610, Note_on_c, 2, 37, 100
5, 101640, Note_off_c, 2, 20, 0
5, 101640, Note_off_c, 2, 25, 0
5, 101640, Note_off_c, 2, 28, 0
5, 101640, Note_off_c, 2, 32, 0
5, 101640, Note_off_c, 2, 37, 0
5, 101640, Note_on_c, 2, 20, 100
5, 101640, Note_on_c, 2, 25, 100
5, 101640, Note_on_c, 2, 28, 100
5, 101640, Note_on_c, 2, 32, 100
5, 101640, Note_on_c, 2, 37, 100
5, 101670, Note_off_c, 2, 20, 0
5, 101670, Note_off_c, 2, 25, 0
5, 101670, Note_off_c, 2, 28, 0
5, 101670, Note_off_c, 2, 32, 0
5, 101670, Note_off_c, 2, 37, 0
5, 101670, Note_on_c, 2, 20, 100
5, 101670, Note_on_c, 2, 25, 100
5, 101670, Note_on_c, 2, 28, 100
5, 101670, Note_on_c, 2, 32, 100
5, 101670, Note_on_c, 2, 37, 100
5, 101700, Note_off_c, 2, 20, 0
5, 101700, Note_off_c, 2, 25, 0
5, 101700, Note_off_c, 2, 28, 0
5, 101700, Note_off_c, 2, 32, 0
5, 101700, Note_off_c, 2, 37, 0
5, 101700, Note_on_c, 2, 20, 100
5, 101700, Note_on_c, 2, 25, 100
5, 101700, Note_on_c, 2, 28, 100
5, 101700, Note_on_c, 2, 32, 100
5, 101700, Note_on_c, 2, 37, 100
5, 101730, Note_off_c, 2, 20, 0
5, 101730, Note_off_c, 2, 25, 0
5, 101730, Note_off_c, 2, 28, 0
5, 101730, Note_off_c, 2, 32, 0
5, 101730, Note_off_c, 2, 37, 0
5, 101730, Note_on_c, 2, 20, 100
5, 101730, Note_on_c, 2, 25, 100
5, 101730, Note_on_c, 2, 28, 100
5, 101730, Note_on_c, 2, 32, 100
5, 101730, Note_on_c, 2, 37, 100
5, 101760, Note_off_c, 2, 20, 0
5, 101760, Note_off_c, 2, 25, 0
5, 101760, Note_off_c, 2, 28, 0
5, 101760, Note_off_c, 2, 32, 0
5, 101760, Note_off_c, 2, 37, 0
5, 101760, Note_on_c, 2, 20, 100
5, 101760, Note_on_c, 2, 25, 100
5, 101760, Note_on_c, 2, 28, 100
5, 101760, Note_on_c, 2, 32, 100
5, 101760, Note_on_c, 2, 37, 100
5, 101790, Note_off_c, 2, 20, 0
5, 101790, Note_off_c, 2, 25, 0
5, 101790, Note_off_c, 2, 28, 0
5, 101790, Note_off_c, 2, 32, 0
5, 101790, Note_off_c, 2, 37, 0
5, 101790, Note_on_c, 2, 20, 100
5, 101790, Note_on_c, 2, 25, 100
5, 101790, Note_on_c, 2, 28, 100
5, 101790, Note_on_c, 2, 32, 100
5, 101790, Note_on_c, 2, 37, 100
5, 101820, Note_off_c, 2, 20, 0
5, 101820, Note_off_c, 2, 25, 0
5, 101820, Note_off_c, 2, 28, 0
5, 101820, Note_off_c, 2, 32, 0
5, 101820, Note_off_c, 2, 37, 0
5, 101820, Note_on_c, 2, 20, 100
5, 101820, Note_on_c, 2, 25, 100
5, 101820, Note_on_c, 2, 28, 100
5, 101820, Note_on_c, 2, 32, 100
5, 101820, Note_on_c, 2, 37, 100
5, 101850, Note_off_c, 2, 20, 0
5, 101850, Note_off_c, 2, 25, 0
5, 101850, Note_off_c, 2, 28, 0
5, 101850, Note_off_c, 2, 32, 0
5, 101850, Note_off_c, 2, 37, 0
5, 101850, Note_on_c, 2, 20, 100
5, 101850, Note_on_c, 2, 25, 100
5, 101850, Note_on_c, 2, 28, 100
5, 101850, Note_on_c, 2, 32, 100
5, 101850, Note_on_c, 2, 37, 100
5, 101880, Note_off_c, 2, 20, 0
5, 101880, Note_off_c, 2, 25, 0
5, 101880, Note_off_c, 2, 28, 0
5, 101880, Note_off_c, 2, 32, 0
5, 101880, Note_off_c, 2, 37, 0
5, 101880, Note_on_c, 2, 20, 100
5, 101880, Note_on_c, 2, 25, 100
5, 101880, Note_on_c, 2, 28, 100
5, 101880, Note_on_c, 2, 32, 100
5, 101880, Note_on_c, 2, 37, 100
5, 101910, Note_off_c, 2, 20, 0
5, 101910, Note_off_c, 2, 25, 0
5, 101910, Note_off_c, 2, 28, 0
5, 101910, Note_off_c, 2, 32, 0
5, 101910, Note_off_c, 2, 37, 0
5, 101910, Note_on_c, 2, 20, 100
5, 101910, Note_on_c, 2, 25, 100
5, 101910, Note_on_c, 2, 28, 100
5, 101910, Note_on_c, 2, 32, 100
5, 101910, Note_on_c, 2, 37, 100
5, 101940, Note_off_c, 2, 20, 0
5, 101940, Note_off_c, 2, 25, 0
5, 101940, Note_off_c, 2, 28, 0
5, 101940, Note_off_c, 2, 32, 0
5, 101940, Note_off_c, 2, 37, 0
5, 101940, Note_on_c, 2, 20, 100
5, 101940, Note_on_c, 2, 25, 100
5, 101940, Note_on_c, 2, 28, 100
5, 101940, Note_on_c, 2, 32, 100
5, 101940, Note_on_c, 2, 37, 100
5, 101970, Note_off_c, 2, 20, 0
5, 101970, Note_off_c, 2, 25, 0
5, 101970, Note_off_c, 2, 28, 0
5, 101970, Note_off_c, 2, 32, 0
5, 101970, Note_off_c, 2, 37, 0
5, 101970, Note_on_c, 2, 20, 100
5, 101970, Note_on_c, 2, 25, 100
5, 101970, Note_on_c, 2, 28, 100
5, 101970, Note_on_c, 2, 32, 100
5, 101970, Note_on_c, 2, 37, 100
5, 102000, Note_off_c, 2, 20, 0
5, 102000, Note_off_c, 2, 25, 0
5, 102000, Note_off_c, 2, 28, 0
5, 102000, Note_off_c, 2, 32, 0
5, 102000, Note_off_c, 2, 37, 0
5, 102000, Note_on_c, 2, 20, 100
5, 102000, Note_on_c, 2, 25, 100
5, 102000, Note_on_c, 2, 28, 100
5, 102000, Note_on_c, 2, 32, 100
5, 102000, Note_on_c, 2, 37, 100
5, 102030, Note_off_c, 2, 20, 0
5, 102030, Note_off_c, 2, 25, 0
5, 102030, Note_off_c, 2, 28, 0
5, 102030, Note_off_c, 2, 32, 0
5, 102030, Note_off_c, 2, 37, 0
5, 102030, Note_on_c, 2, 20, 100
5, 102030, Note_on_c, 2, 25, 100
5, 102030, Note_on_c, 2, 28, 100
5, 102030, Note_on_c, 2, 32, 100
5, 102030, Note_on_c, 2, 37, 100
5, 102060, Note_off_c, 2, 20, 0
5, 102060, Note_off_c, 2, 25, 0
5, 102060, Note_off_c, 2, 28, 0
5, 102060, Note_off_c, 2, 32, 0
5, 102060, Note_off_c, 2, 37, 0
5, 102060, Note_on_c, 2, 20, 100
5, 102060, Note_on_c, 2, 25, 100
5, 102060, Note_on_c, 2, 28, 100
5, 102060, Note_on_c, 2, 32, 100
5, 102060, Note_on_c, 2, 37, 100
5, 102090, Note_off_c, 2, 20, 0
5, 102090, Note_off_c, 2, 25, 0
5, 102090, Note_off_c, 2, 28, 0
5, 102090, Note_off_c, 2, 32, 0
5, 102090, Note_off_c, 2, 37, 0
5, 102090, Note_on_c, 2, 20, 100
5, 102090, Note_on_c, 2, 25, 100
5, 102090, Note_on_c, 2, 28, 100
5, 102090, Note_on_c, 2, 32, 100
5, 102090, Note_on_c, 2, 37, 100
5, 102120, Note_off_c, 2, 20, 0
5, 102120, Note_off_c, 2, 25, 0
5, 102120, Note_off_c, 2, 28, 0
5, 102120, Note_off_c, 2, 32, 0
5, 102120, Note_off_c, 2, 37, 0
5, 102120, Note_on_c, 2, 20, 100
5, 102120, Note_on_c, 2, 25, 100
5, 102120, Note_on_c, 2, 28, 100
5, 102120, Note_on_c, 2, 32, 100
5, 102120, Note_on_c, 2, 37, 100
5, 102150, Note_off_c, 2, 20, 0
5, 102150, Note_off_c, 2, 25, 0
5, 102150, Note_off_c, 2, 28, 0
5, 102150, Note_off_c, 2, 32, 0
5, 102150, Note_off_c, 2, 37, 0
5, 102150, Note_on_c, 2, 20, 100
5, 102150, Note_on_c, 2, 25, 100
5, 102150, Note_on_c, 2, 28, 100
5, 102150, Note_on_c, 2, 32, 100
5, 102150, Note_on_c, 2, 37, 100
5, 102180, Note_off_c, 2, 20, 0
5, 102180, Note_off_c, 2, 25, 0
5, 102180, Note_off_c, 2, 28, 0
5, 102180, Note_off_c, 2, 32, 0
5, 102180, Note_off_c, 2, 37, 0
5, 102180, Note_on_c, 2, 20, 100
5, 102180, Note_on_c, 2, 25, 100
5, 102180, Note_on_c, 2, 28, 100
5, 102180, Note_on_c, 2, 32, 100
5, 102180, Note_on_c, 2, 37, 100
5, 102210, Note_off_c, 2, 20, 0
5, 102210, Note_off_c, 2, 25, 0
5, 102210, Note_off_c, 2, 28, 0
5, 102210, Note_off_c, 2, 32, 0
5, 102210, Note_off_c, 2, 37, 0
5, 102210, Note_on_c, 2, 20, 100
5, 102210, Note_on_c, 2, 25, 100
5, 102210, Note_on_c, 2, 28, 100
5, 102210, Note_on_c, 2, 32, 100
5, 102210, Note_on_c, 2, 37, 100
5, 102240, Note_off_c, 2, 20, 0
5, 102240, Note_off_c, 2, 25, 0
5, 102240, Note_off_c, 2, 28, 0
5, 102240, Note_off_c, 2, 32, 0
5, 102240, Note_off_c, 2, 37, 0
5, 102240, Note_on_c, 2, 20, 100
5, 102240, Note_on_c, 2, 24, 100
5, 102240, Note_on_c, 2, 32, 100
5, 102240, Note_on_c, 2, 36, 100
5, 102240, Note_on_c, 2, 44, 100
5, 102270, Note_off_c, 2, 20, 0
5, 102270, Note_off_c, 2, 24, 0
5, 102270, Note_off_c, 2, 32, 0
5, 102270, Note_off_c, 2, 36, 0
5, 102270, Note_off_c, 2, 44, 0
5, 102270, Note_on_c, 2, 20, 100
5, 102270, Note_on_c, 2, 24, 100
5, 102270, Note_on_c, 2, 32, 100
5, 102270, Note_on_c, 2, 36, 100
5, 102270, Note_on_c, 2, 44, 100
5, 102300, Note_off_c, 2, 20, 0
5, 102300, Note_off_c, 2, 24, 0
5, 102300, Note_off_c, 2, 32, 0
5, 102300, Note_off_c, 2, 36, 0
5, 102300, Note_off_c, 2, 44, 0
5, 102300, Note_on_c, 2, 20, 100
5, 102300, Note_on_c, 2, 24, 100
5, 102300, Note_on_c, 2, 32, 100
5, 102300, Note_on_c, 2, 36, 100
5, 102300, Note_on_c, 2, 44, 100
5, 102330, Note_off_c, 2, 20, 0
5, 102330, Note_off_c, 2, 24, 0
5, 102330, Note_off_c, 2, 32, 0
5, 102330, Note_off_c, 2, 36, 0
5, 102330, Note_off_c, 2, 44, 0
5, 102330, Note_on_c, 2, 20, 100
5, 102330, Note_on_c, 2, 24, 100
5, 102330, Note_on_c, 2, 32, 100
5, 102330, Note_on_c, 2, 36, 100
5, 102330, Note_on_c, 2, 44, 100
5, 102360, Note_off_c, 2, 20, 0
5, 102360, Note_off_c, 2, 24, 0
5, 102360, Note_off_c, 2, 32, 0
5, 102360, Note_off_c, 2, 36, 0
5, 102360, Note_off_c, 2, 44, 0
5, 102360, Note_on_c, 2, 20, 100
5, 102360, Note_on_c, 2, 24, 100
5, 102360, Note_on_c, 2, 32, 100
5, 102360, Note_on_c, 2, 36, 100
5, 102360, Note_on_c, 2, 44, 100
5, 102390, Note_off_c, 2, 20, 0
5, 102390, Note_off_c, 2, 24, 0
5, 102390, Note_off_c, 2, 32, 0
5, 102390, Note_off_c, 2, 36, 0
5, 102390, Note_off_c, 2, 44, 0
5, 102390, Note_on_c, 2, 20, 100
5, 102390, Note_on_c, 2, 24, 100
5, 102390, Note_on_c, 2, 32, 100
5, 102390, Note_on_c, 2, 36, 100
5, 102390, Note_on_c, 2, 44, 100
5, 102420, Note_off_c, 2, 20, 0
5, 102420, Note_off_c, 2, 24, 0
5, 102420, Note_off_c, 2, 32, 0
5, 102420, Note_off_c, 2, 36, 0
5, 102420, Note_off_c, 2, 44, 0
5, 102420, Note_on_c, 2, 20, 100
5, 102420, Note_on_c, 2, 24, 100
5, 102420, Note_on_c, 2, 32, 100
5, 102420, Note_on_c, 2, 36, 100
5, 102420, Note_on_c, 2, 44, 100
5, 102450, Note_off_c, 2, 20, 0
5, 102450, Note_off_c, 2, 24, 0
5, 102450, Note_off_c, 2, 32, 0
5, 102450, Note_off_c, 2, 36, 0
5, 102450, Note_off_c, 2, 44, 0
5, 102450, Note_on_c, 2, 20, 100
5, 102450, Note_on_c, 2, 24, 100
5, 102450, Note_on_c, 2, 32, 100
5, 102450, Note_on_c, 2, 36, 100
5, 102450, Note_on_c, 2, 44, 100
5, 102480, Note_off_c, 2, 20, 0
5, 102480, Note_off_c, 2, 24, 0
5, 102480, Note_off_c, 2, 32, 0
5, 102480, Note_off_c, 2, 36, 0
5, 102480, Note_off_c, 2, 44, 0
5, 102480, Note_on_c, 2, 20, 100
5, 102480, Note_on_c, 2, 24, 100
5, 102480, Note_on_c, 2, 32, 100
5, 102480, Note_on_c, 2, 36, 100
5, 102480, Note_on_c, 2, 44, 100
5, 102510, Note_off_c, 2, 20, 0
5, 102510, Note_off_c, 2, 24, 0
5, 102510, Note_off_c, 2, 32, 0
5, 102510, Note_off_c, 2, 36, 0
5, 102510, Note_off_c, 2, 44, 0
5, 102510, Note_on_c, 2, 20, 100
5, 102510, Note_on_c, 2, 24, 100
5, 102510, Note_on_c, 2, 32, 100
5, 102510, Note_on_c, 2, 36, 100
5, 102510, Note_on_c, 2, 44, 100
5, 102540, Note_off_c, 2, 20, 0
5, 102540, Note_off_c, 2, 24, 0
5, 102540, Note_off_c, 2, 32, 0
5, 102540, Note_off_c, 2, 36, 0
5, 102540, Note_off_c, 2, 44, 0
5, 102540, Note_on_c, 2, 20, 100
5, 102540, Note_on_c, 2, 24, 100
5, 102540, Note_on_c, 2, 32, 100
5, 102540, Note_on_c, 2, 36, 100
5, 102540, Note_on_c, 2, 44, 100
5, 102570, Note_off_c, 2, 20, 0
5, 102570, Note_off_c, 2, 24, 0
5, 102570, Note_off_c, 2, 32, 0
5, 102570, Note_off_c, 2, 36, 0
5, 102570, Note_off_c, 2, 44, 0
5, 102570, Note_on_c, 2, 20, 100
5, 102570, Note_on_c, 2, 24, 100
5, 102570, Note_on_c, 2, 32, 100
5, 102570, Note_on_c, 2, 36, 100
5, 102570, Note_on_c, 2, 44, 100
5, 102600, Note_off_c, 2, 20, 0
5, 102600, Note_off_c, 2, 24, 0
5, 102600, Note_off_c, 2, 32, 0
5, 102600, Note_off_c, 2, 36, 0
5, 102600, Note_off_c, 2, 44, 0
5, 102600, Note_on_c, 2, 20, 100
5, 102600, Note_on_c, 2, 24, 100
5, 102600, Note_on_c, 2, 32, 100
5, 102600, Note_on_c, 2, 36, 100
5, 102600, Note_on_c, 2, 44, 100
5, 102630, Note_off_c, 2, 20, 0
5, 102630, Note_off_c, 2, 24, 0
5, 102630, Note_off_c, 2, 32, 0
5, 102630, Note_off_c, 2, 36, 0
5, 102630, Note_off_c, 2, 44, 0
5, 102630, Note_on_c, 2, 20, 100
5, 102630, Note_on_c, 2, 24, 100
5, 102630, Note_on_c, 2, 32, 100
5, 102630, Note_on_c, 2, 36, 100
5, 102630, Note_on_c, 2, 44, 100
5, 102660, Note_off_c, 2, 20, 0
5, 102660, Note_off_c, 2, 24, 0
5, 102660, Note_off_c, 2, 32, 0
5, 102660, Note_off_c, 2, 36, 0
5, 102660, Note_off_c, 2, 44, 0
5, 102660, Note_on_c, 2, 20, 100
5, 102660, Note_on_c, 2, 24, 100
5, 102660, Note_on_c, 2, 32, 100
5, 102660, Note_on_c, 2, 36, 100
5, 102660, Note_on_c, 2, 44, 100
5, 102690, Note_off_c, 2, 20, 0
5, 102690, Note_off_c, 2, 24, 0
5, 102690, Note_off_c, 2, 32, 0
5, 102690, Note_off_c, 2, 36, 0
5, 102690, Note_off_c, 2, 44, 0
5, 102690, Note_on_c, 2, 20, 100
5, 102690, Note_on_c, 2, 24, 100
5, 102690, Note_on_c, 2, 32, 100
5, 102690, Note_on_c, 2, 36, 100
5, 102690, Note_on_c, 2, 44, 100
5, 102720, Note_off_c, 2, 20, 0
5, 102720, Note_off_c, 2, 24, 0
5, 102720, Note_off_c, 2, 32, 0
5, 102720, Note_off_c, 2, 36, 0
5, 102720, Note_off_c, 2, 44, 0
5, 102720, Note_on_c, 2, 20, 100
5, 102720, Note_on_c, 2, 24, 100
5, 102720, Note_on_c, 2, 32, 100
5, 102720, Note_on_c, 2, 36, 100
5, 102720, Note_on_c, 2, 44, 100
5, 102720, Note_on_c, 2, 48, 100
5, 102750, Note_off_c, 2, 20, 0
5, 102750, Note_off_c, 2, 24, 0
5, 102750, Note_off_c, 2, 32, 0
5, 102750, Note_off_c, 2, 36, 0
5, 102750, Note_off_c, 2, 44, 0
5, 102750, Note_off_c, 2, 48, 0
5, 102750, Note_on_c, 2, 20, 100
5, 102750, Note_on_c, 2, 24, 100
5, 102750, Note_on_c, 2, 32, 100
5, 102750, Note_on_c, 2, 36, 100
5, 102750, Note_on_c, 2, 44, 100
5, 102750, Note_on_c, 2, 48, 100
5, 102780, Note_off_c, 2, 20, 0
5, 102780, Note_off_c, 2, 24, 0
5, 102780, Note_off_c, 2, 32, 0
5, 102780, Note_off_c, 2, 36, 0
5, 102780, Note_off_c, 2, 44, 0
5, 102780, Note_off_c, 2, 48, 0
5, 102780, Note_on_c, 2, 20, 100
5, 102780, Note_on_c, 2, 24, 100
5, 102780, Note_on_c, 2, 32, 100
5, 102780, Note_on_c, 2, 36, 100
5, 102780, Note_on_c, 2, 44, 100
5, 102780, Note_on_c, 2, 48, 100
5, 102810, Note_off_c, 2, 20, 0
5, 102810, Note_off_c, 2, 24, 0
5, 102810, Note_off_c, 2, 32, 0
5, 102810, Note_off_c, 2, 36, 0
5, 102810, Note_off_c, 2, 44, 0
5, 102810, Note_off_c, 2, 48, 0
5, 102810, Note_on_c, 2, 20, 100
5, 102810, Note_on_c, 2, 24, 100
5, 102810, Note_on_c, 2, 32, 100
5, 102810, Note_on_c, 2, 36, 100
5, 102810, Note_on_c, 2, 44, 100
5, 102810, Note_on_c, 2, 48, 100
5, 102840, Note_off_c, 2, 20, 0
5, 102840, Note_off_c, 2, 24, 0
5, 102840, Note_off_c, 2, 32, 0
5, 102840, Note_off_c, 2, 36, 0
5, 102840, Note_off_c, 2, 44, 0
5, 102840, Note_off_c, 2, 48, 0
5, 102840, Note_on_c, 2, 20, 100
5, 102840, Note_on_c, 2, 24, 100
5, 102840, Note_on_c, 2, 32, 100
5, 102840, Note_on_c, 2, 36, 100
5, 102840, Note_on_c, 2, 44, 100
5, 102840, Note_on_c, 2, 48, 100
5, 102870, Note_off_c, 2, 20, 0
5, 102870, Note_off_c, 2, 24, 0
5, 102870, Note_off_c, 2, 32, 0
5, 102870, Note_off_c, 2, 36, 0
5, 102870, Note_off_c, 2, 44, 0
5, 102870, Note_off_c, 2, 48, 0
5, 102870, Note_on_c, 2, 20, 100
5, 102870, Note_on_c, 2, 24, 100
5, 102870, Note_on_c, 2, 32, 100
5, 102870, Note_on_c, 2, 36, 100
5, 102870, Note_on_c, 2, 44, 100
5, 102870, Note_on_c, 2, 48, 100
5, 102900, Note_off_c, 2, 20, 0
5, 102900, Note_off_c, 2, 24, 0
5, 102900, Note_off_c, 2, 32, 0
5, 102900, Note_off_c, 2, 36, 0
5, 102900, Note_off_c, 2, 44, 0
5, 102900, Note_off_c, 2, 48, 0
5, 102900, Note_on_c, 2, 20, 100
5, 102900, Note_on_c, 2, 24, 100
5, 102900, Note_on_c, 2, 32, 100
5, 102900, Note_on_c, 2, 36, 100
5, 102900, Note_on_c, 2, 44, 100
5, 102900, Note_on_c, 2, 48, 100
5, 102930, Note_off_c, 2, 20, 0
5, 102930, Note_off_c, 2, 24, 0
5, 102930, Note_off_c, 2, 32, 0
5, 102930, Note_off_c, 2, 36, 0
5, 102930, Note_off_c, 2, 44, 0
5, 102930, Note_off_c, 2, 48, 0
5, 102930, Note_on_c, 2, 20, 100
5, 102930, Note_on_c, 2, 24, 100
5, 102930, Note_on_c, 2, 32, 100
5, 102930, Note_on_c, 2, 36, 100
5, 102930, Note_on_c, 2, 44, 100
5, 102930, Note_on_c, 2, 48, 100
5, 102960, Note_off_c, 2, 20, 0
5, 102960, Note_off_c, 2, 24, 0
5, 102960, Note_off_c, 2, 32, 0
5, 102960, Note_off_c, 2, 36, 0
5, 102960, Note_off_c, 2, 44, 0
5, 102960, Note_off_c, 2, 48, 0
5, 102960, Note_on_c, 2, 20, 100
5, 102960, Note_on_c, 2, 24, 100
5, 102960, Note_on_c, 2, 32, 100
5, 102960, Note_on_c, 2, 36, 100
5, 102960, Note_on_c, 2, 44, 100
5, 102960, Note_on_c, 2, 56, 100
5, 102960, Note_on_c, 2, 48, 100
5, 102990, Note_off_c, 2, 20, 0
5, 102990, Note_off_c, 2, 24, 0
5, 102990, Note_off_c, 2, 32, 0
5, 102990, Note_off_c, 2, 36, 0
5, 102990, Note_off_c, 2, 44, 0
5, 102990, Note_off_c, 2, 56, 0
5, 102990, Note_off_c, 2, 48, 0
5, 102990, Note_on_c, 2, 20, 100
5, 102990, Note_on_c, 2, 24, 100
5, 102990, Note_on_c, 2, 32, 100
5, 102990, Note_on_c, 2, 36, 100
5, 102990, Note_on_c, 2, 44, 100
5, 102990, Note_on_c, 2, 56, 100
5, 102990, Note_on_c, 2, 48, 100
5, 103020, Note_off_c, 2, 20, 0
5, 103020, Note_off_c, 2, 24, 0
5, 103020, Note_off_c, 2, 32, 0
5, 103020, Note_off_c, 2, 36, 0
5, 103020, Note_off_c, 2, 44, 0
5, 103020, Note_off_c, 2, 56, 0
5, 103020, Note_off_c, 2, 48, 0
5, 103020, Note_on_c, 2, 20, 100
5, 103020, Note_on_c, 2, 24, 100
5, 103020, Note_on_c, 2, 32, 100
5, 103020, Note_on_c, 2, 36, 100
5, 103020, Note_on_c, 2, 44, 100
5, 103020, Note_on_c, 2, 56, 100
5, 103020, Note_on_c, 2, 48, 100
5, 103050, Note_off_c, 2, 20, 0
5, 103050, Note_off_c, 2, 24, 0
5, 103050, Note_off_c, 2, 32, 0
5, 103050, Note_off_c, 2, 36, 0
5, 103050, Note_off_c, 2, 44, 0
5, 103050, Note_off_c, 2, 56, 0
5, 103050, Note_off_c, 2, 48, 0
5, 103050, Note_on_c, 2, 20, 100
5, 103050, Note_on_c, 2, 24, 100
5, 103050, Note_on_c, 2, 32, 100
5, 103050, Note_on_c, 2, 36, 100
5, 103050, Note_on_c, 2, 44, 100
5, 103050, Note_on_c, 2, 56, 100
5, 103050, Note_on_c, 2, 48, 100
5, 103080, Note_off_c, 2, 20, 0
5, 103080, Note_off_c, 2, 24, 0
5, 103080, Note_off_c, 2, 32, 0
5, 103080, Note_off_c, 2, 36, 0
5, 103080, Note_off_c, 2, 44, 0
5, 103080, Note_off_c, 2, 56, 0
5, 103080, Note_off_c, 2, 48, 0
5, 103080, Note_on_c, 2, 20, 100
5, 103080, Note_on_c, 2, 24, 100
5, 103080, Note_on_c, 2, 32, 100
5, 103080, Note_on_c, 2, 36, 100
5, 103080, Note_on_c, 2, 44, 100
5, 103080, Note_on_c, 2, 56, 100
5, 103080, Note_on_c, 2, 60, 100
5, 103080, Note_on_c, 2, 48, 100
5, 103110, Note_off_c, 2, 20, 0
5, 103110, Note_off_c, 2, 24, 0
5, 103110, Note_off_c, 2, 32, 0
5, 103110, Note_off_c, 2, 36, 0
5, 103110, Note_off_c, 2, 44, 0
5, 103110, Note_off_c, 2, 56, 0
5, 103110, Note_off_c, 2, 60, 0
5, 103110, Note_off_c, 2, 48, 0
5, 103110, Note_on_c, 2, 20, 100
5, 103110, Note_on_c, 2, 24, 100
5, 103110, Note_on_c, 2, 32, 100
5, 103110, Note_on_c, 2, 36, 100
5, 103110, Note_on_c, 2, 44, 100
5, 103110, Note_on_c, 2, 56, 100
5, 103110, Note_on_c, 2, 60, 100
5, 103110, Note_on_c, 2, 48, 100
5, 103140, Note_off_c, 2, 20, 0
5, 103140, Note_off_c, 2, 24, 0
5, 103140, Note_off_c, 2, 32, 0
5, 103140, Note_off_c, 2, 36, 0
5, 103140, Note_off_c, 2, 44, 0
5, 103140, Note_off_c, 2, 56, 0
5, 103140, Note_off_c, 2, 60, 0
5, 103140, Note_off_c, 2, 48, 0
5, 103140, Note_on_c, 2, 20, 100
5, 103140, Note_on_c, 2, 24, 100
5, 103140, Note_on_c, 2, 32, 100
5, 103140, Note_on_c, 2, 36, 100
5, 103140, Note_on_c, 2, 44, 100
5, 103140, Note_on_c, 2, 56, 100
5, 103140, Note_on_c, 2, 60, 100
5, 103140, Note_on_c, 2, 48, 100
5, 103140, Note_on_c, 2, 68, 100
5, 103170, Note_off_c, 2, 20, 0
5, 103170, Note_off_c, 2, 24, 0
5, 103170, Note_off_c, 2, 32, 0
5, 103170, Note_off_c, 2, 36, 0
5, 103170, Note_off_c, 2, 44, 0
5, 103170, Note_off_c, 2, 56, 0
5, 103170, Note_off_c, 2, 60, 0
5, 103170, Note_off_c, 2, 48, 0
5, 103170, Note_off_c, 2, 68, 0
5, 103170, Note_on_c, 2, 20, 100
5, 103170, Note_on_c, 2, 24, 100
5, 103170, Note_on_c, 2, 32, 100
5, 103170, Note_on_c, 2, 36, 100
5, 103170, Note_on_c, 2, 44, 100
5, 103170, Note_on_c, 2, 56, 100
5, 103170, Note_on_c, 2, 60, 100
5, 103170, Note_on_c, 2, 48, 100
5, 103170, Note_on_c, 2, 68, 100
5, 103170, Note_on_c, 2, 72, 100
5, 103200, Note_off_c, 2, 20, 0
5, 103200, Note_off_c, 2, 24, 0
5, 103200, Note_off_c, 2, 32, 0
5, 103200, Note_off_c, 2, 36, 0
5, 103200, Note_off_c, 2, 44, 0
5, 103200, Note_off_c, 2, 56, 0
5, 103200, Note_off_c, 2, 60, 0
5, 103200, Note_off_c, 2, 48, 0
5, 103200, Note_off_c, 2, 68, 0
5, 103200, Note_off_c, 2, 72, 0
5, 130080, Note_on_c, 2, 34, 100
5, 130080, Note_on_c, 2, 41, 100
5, 130080, Note_on_c, 2, 46, 100
5, 130080, Note_on_c, 2, 49, 100
5, 131040, Note_off_c, 2, 34, 0
5, 131040, Note_off_c, 2, 41, 0
5, 131040, Note_off_c, 2, 46, 0
5, 131040, Note_off_c, 2, 49, 0
5, 131040, Note_on_c, 2, 34, 100
5, 131040, Note_on_c, 2, 41, 100
5, 131040, Note_on_c, 2, 46, 100
5, 131040, Note_on_c, 2, 49, 100
5, 132000, Note_off_c, 2, 34, 0
5, 132000, Note_off_c, 2, 41, 0
5, 132000, Note_off_c, 2, 46, 0
5, 132000, Note_off_c, 2, 49, 0
5, 132000, Note_on_c, 2, 30, 100
5, 132000, Note_on_c, 2, 37, 100
5, 132000, Note_on_c, 2, 42, 100
5, 132000, Note_on_c, 2, 46, 100
5, 132960, Note_off_c, 2, 30, 0
5, 132960, Note_off_c, 2, 37, 0
5, 132960, Note_off_c, 2, 42, 0
5, 132960, Note_off_c, 2, 46, 0
5, 132960, Note_on_c, 2, 30, 100
5, 132960, Note_on_c, 2, 37, 100
5, 132960, Note_on_c, 2, 42, 100
5, 132960, Note_on_c, 2, 46, 100
5, 133920, Note_off_c, 2, 30, 0
5, 133920, Note_off_c, 2, 37, 0
5, 133920, Note_off_c, 2, 42, 0
5, 133920, Note_off_c, 2, 46, 0
5, 133920, Note_on_c, 2, 32, 100
5, 133920, Note_on_c, 2, 39, 100
5, 133920, Note_on_c, 2, 44, 100
5, 133920, Note_on_c, 2, 48, 100
5, 134880, Note_off_c, 2, 32, 0
5, 134880, Note_off_c, 2, 39, 0
5, 134880, Note_off_c, 2, 44, 0
5, 134880, Note_off_c, 2, 48, 0
5, 134880, Note_on_c, 2, 30, 100
5, 134880, Note_on_c, 2, 37, 100
5, 134880, Note_on_c, 2, 42, 100
5, 134880, Note_on_c, 2, 46, 100
5, 135840, Note_off_c, 2, 30, 0
5, 135840, Note_off_c, 2, 37, 0
5, 135840, Note_off_c, 2, 42, 0
5, 135840, Note_off_c, 2, 46, 0
5, 135840, Note_on_c, 2, 29, 100
5, 135840, Note_on_c, 2, 36, 100
5, 135840, Note_on_c, 2, 41, 100
5, 135840, Note_on_c, 2, 45, 100
5, 136800, Note_off_c, 2, 29, 0
5, 136800, Note_off_c, 2, 36, 0
5, 136800, Note_off_c, 2, 41, 0
5, 136800, Note_off_c, 2, 45, 0
5, 136800, Note_on_c, 2, 29, 100
5, 136800, Note_on_c, 2, 36, 100
5, 136800, Note_on_c, 2, 41, 100
5, 136800, Note_on_c, 2, 45, 100
5, 137760, Note_off_c, 2, 29, 0
5, 137760, Note_off_c, 2, 36, 0
5, 137760, Note_off_c, 2, 41, 0
5, 137760, Note_off_c, 2, 45, 0
5, 137760, Note_on_c, 2, 58, 100
5, 137760, Note_on_c, 2, 61, 100
5, 137760, Note_on_c, 2, 65, 100
5, 137760, Note_on_c, 2, 70, 100
5, 139680, Note_off_c, 2, 58, 0
5, 139680, Note_off_c, 2, 61, 0
5, 139680, Note_off_c, 2, 65, 0
5, 139680, Note_off_c, 2, 70, 0
5, 139680, Note_on_c, 2, 54, 100
5, 139680, Note_on_c, 2, 57, 100
5, 139680, Note_on_c, 2, 61, 100
5, 139680, Note_on_c, 2, 66, 100
5, 139680, Note_on_c, 2, 70, 100
5, 141600, Note_off_c, 2, 54, 0
5, 141600, Note_off_c, 2, 57, 0
5, 141600, Note_off_c, 2, 61, 0
5, 141600, Note_off_c, 2, 66, 0
5, 141600, Note_off_c, 2, 70, 0
5, 141600, Note_on_c, 2, 72, 100
5, 141600, Note_on_c, 2, 68, 100
5, 141600, Note_on_c, 2, 63, 100
5, 141600, Note_on_c, 2, 56, 100
5, 142560, Note_off_c, 2, 72, 0
5, 142560, Note_off_c, 2, 68, 0
5, 142560, Note_off_c, 2, 63, 0
5, 142560, Note_off_c, 2, 56, 0
5, 142560, Note_on_c, 2, 54, 100
5, 142560, Note_on_c, 2, 61, 100
5, 142560, Note_on_c, 2, 66, 100
5, 142560, Note_on_c, 2, 70, 100
5, 143520, Note_off_c, 2, 54, 0
5, 143520, Note_off_c, 2, 61, 0
5, 143520, Note_off_c, 2, 66, 0
5, 143520, Note_off_c, 2, 70, 0
5, 143520, Note_on_c, 2, 53, 100
5, 143520, Note_on_c, 2, 60, 100
5, 143520, Note_on_c, 2, 65, 100
5, 143520, Note_on_c, 2, 69, 100
5, 144480, Note_off_c, 2, 53, 0
5, 144480, Note_off_c, 2, 60, 0
5, 144480, Note_off_c, 2, 65, 0
5, 144480, Note_off_c, 2, 69, 0
5, 144480, Note_on_c, 2, 53, 100
5, 144480, Note_on_c, 2, 60, 100
5, 144480, Note_on_c, 2, 65, 100
5, 144480, Note_on_c, 2, 69, 100
5, 145440, Note_off_c, 2, 53, 0
5, 145440, Note_off_c, 2, 60, 0
5, 145440, Note_off_c, 2, 65, 0
5, 145440, Note_off_c, 2, 69, 0
5, 145440, Note_on_c, 2, 58, 100
5, 145440, Note_on_c, 2, 65, 100
5, 145440, Note_on_c, 2, 70, 100
5, 145440, Note_on_c, 2, 73, 100
5, 146400, Note_off_c, 2, 58, 0
5, 146400, Note_off_c, 2, 65, 0
5, 146400, Note_off_c, 2, 70, 0
5, 146400, Note_off_c, 2, 73, 0
5, 146400, Note_on_c, 2, 58, 100
5, 146400, Note_on_c, 2, 65, 100
5, 146400, Note_on_c, 2, 70, 100
5, 146400, Note_on_c, 2, 73, 100
5, 147360, Note_off_c, 2, 58, 0
5, 147360, Note_off_c, 2, 65, 0
5, 147360, Note_off_c, 2, 70, 0
5, 147360, Note_off_c, 2, 73, 0
5, 147360, Note_on_c, 2, 54, 100
5, 147360, Note_on_c, 2, 61, 100
5, 147360, Note_on_c, 2, 66, 100
5, 147360, Note_on_c, 2, 70, 100
5, 148320, Note_off_c, 2, 54, 0
5, 148320, Note_off_c, 2, 61, 0
5, 148320, Note_off_c, 2, 66, 0
5, 148320, Note_off_c, 2, 70, 0
5, 148320, Note_on_c, 2, 54, 100
5, 148320, Note_on_c, 2, 61, 100
5, 148320, Note_on_c, 2, 66, 100
5, 148320, Note_on_c, 2, 70, 100
5, 149280, Note_off_c, 2, 54, 0
5, 149280, Note_off_c, 2, 61, 0
5, 149280, Note_off_c, 2, 66, 0
5, 149280, Note_off_c, 2, 70, 0
5, 149280, Note_on_c, 2, 56, 100
5, 149280, Note_on_c, 2, 63, 100
5, 149280, Note_on_c, 2, 68, 100
5, 149280, Note_on_c, 2, 72, 100
5, 150240, Note_off_c, 2, 56, 0
5, 150240, Note_off_c, 2, 63, 0
5, 150240, Note_off_c, 2, 68, 0
5, 150240, Note_off_c, 2, 72, 0
5, 150240, Note_on_c, 2, 54, 100
5, 150240, Note_on_c, 2, 61, 100
5, 150240, Note_on_c, 2, 66, 100
5, 150240, Note_on_c, 2, 70, 100
5, 151200, Note_off_c, 2, 54, 0
5, 151200, Note_off_c, 2, 61, 0
5, 151200, Note_off_c, 2, 66, 0
5, 151200, Note_off_c, 2, 70, 0
5, 151200, Note_on_c, 2, 53, 100
5, 151200, Note_on_c, 2, 60, 100
5, 151200, Note_on_c, 2, 65, 100
5, 151200, Note_on_c, 2, 69, 100
5, 152160, Note_off_c, 2, 53, 0
5, 152160, Note_off_c, 2, 60, 0
5, 152160, Note_off_c, 2, 65, 0
5, 152160, Note_off_c, 2, 69, 0
5, 152160, Note_on_c, 2, 53, 100
5, 152160, Note_on_c, 2, 60, 100
5, 152160, Note_on_c, 2, 65, 100
5, 152160, Note_on_c, 2, 69, 100
5, 153120, Note_off_c, 2, 53, 0
5, 153120, Note_off_c, 2, 60, 0
5, 153120, Note_off_c, 2, 65, 0
5, 153120, Note_off_c, 2, 69, 0
5, 153120, Note_on_c, 2, 34, 100
5, 153120, Note_on_c, 2, 41, 100
5, 153120, Note_on_c, 2, 46, 100
5, 153120, Note_on_c, 2, 49, 100
5, 154080, Note_off_c, 2, 34, 0
5, 154080, Note_off_c, 2, 41, 0
5, 154080, Note_off_c, 2, 46, 0
5, 154080, Note_off_c, 2, 49, 0
5, 154080, Note_on_c, 2, 34, 100
5, 154080, Note_on_c, 2, 41, 100
5, 154080, Note_on_c, 2, 46, 100
5, 154080, Note_on_c, 2, 49, 100
5, 155040, Note_off_c, 2, 34, 0
5, 155040, Note_off_c, 2, 41, 0
5, 155040, Note_off_c, 2, 46, 0
5, 155040, Note_off_c, 2, 49, 0
5, 155040, Note_on_c, 2, 30, 100
5, 155040, Note_on_c, 2, 37, 100
5, 155040, Note_on_c, 2, 42, 100
5, 155040, Note_on_c, 2, 46, 100
5, 156000, Note_off_c, 2, 30, 0
5, 156000, Note_off_c, 2, 37, 0
5, 156000, Note_off_c, 2, 42, 0
5, 156000, Note_off_c, 2, 46, 0
5, 156000, Note_on_c, 2, 30, 100
5, 156000, Note_on_c, 2, 37, 100
5, 156000, Note_on_c, 2, 42, 100
5, 156000, Note_on_c, 2, 46, 100
5, 156960, Note_off_c, 2, 30, 0
5, 156960, Note_off_c, 2, 37, 0
5, 156960, Note_off_c, 2, 42, 0
5, 156960, Note_off_c, 2, 46, 0
5, 156960, Note_on_c, 2, 32, 100
5, 156960, Note_on_c, 2, 39, 100
5, 156960, Note_on_c, 2, 44, 100
5, 156960, Note_on_c, 2, 48, 100
5, 157920, Note_off_c, 2, 32, 0
5, 157920, Note_off_c, 2, 39, 0
5, 157920, Note_off_c, 2, 44, 0
5, 157920, Note_off_c, 2, 48, 0
5, 157920, Note_on_c, 2, 30, 100
5, 157920, Note_on_c, 2, 37, 100
5, 157920, Note_on_c, 2, 42, 100
5, 157920, Note_on_c, 2, 46, 100
5, 158880, Note_off_c, 2, 30, 0
5, 158880, Note_off_c, 2, 37, 0
5, 158880, Note_off_c, 2, 42, 0
5, 158880, Note_off_c, 2, 46, 0
5, 158880, Note_on_c, 2, 29, 100
5, 158880, Note_on_c, 2, 36, 100
5, 158880, Note_on_c, 2, 41, 100
5, 158880, Note_on_c, 2, 45, 100
5, 159840, Note_off_c, 2, 29, 0
5, 159840, Note_off_c, 2, 36, 0
5, 159840, Note_off_c, 2, 41, 0
5, 159840, Note_off_c, 2, 45, 0
5, 159840, Note_on_c, 2, 29, 100
5, 159840, Note_on_c, 2, 36, 100
5, 159840, Note_on_c, 2, 41, 100
5, 159840, Note_on_c, 2, 45, 100
5, 160800, Note_off_c, 2, 29, 0
5, 160800, Note_off_c, 2, 36, 0
5, 160800, Note_off_c, 2, 41, 0
5, 160800, Note_off_c, 2, 45, 0
5, 160800, Note_on_c, 2, 34, 100
5, 160800, Note_on_c, 2, 41, 100
5, 160800, Note_on_c, 2, 46, 100
5, 160800, Note_on_c, 2, 49, 100
5, 161760, Note_off_c, 2, 34, 0
5, 161760, Note_off_c, 2, 41, 0
5, 161760, Note_off_c, 2, 46, 0
5, 161760, Note_off_c, 2, 49, 0
5, 161760, Note_on_c, 2, 34, 100
5, 161760, Note_on_c, 2, 41, 100
5, 161760, Note_on_c, 2, 46, 100
5, 161760, Note_on_c, 2, 49, 100
5, 162720, Note_off_c, 2, 34, 0
5, 162720, Note_off_c, 2, 41, 0
5, 162720, Note_off_c, 2, 46, 0
5, 162720, Note_off_c, 2, 49, 0
5, 162720, Note_on_c, 2, 30, 100
5, 162720, Note_on_c, 2, 37, 100
5, 162720, Note_on_c, 2, 42, 100
5, 162720, Note_on_c, 2, 46, 100
5, 163680, Note_off_c, 2, 30, 0
5, 163680, Note_off_c, 2, 37, 0
5, 163680, Note_off_c, 2, 42, 0
5, 163680, Note_off_c, 2, 46, 0
5, 163680, Note_on_c, 2, 30, 100
5, 163680, Note_on_c, 2, 37, 100
5, 163680, Note_on_c, 2, 42, 100
5, 163680, Note_on_c, 2, 46, 100
5, 164640, Note_off_c, 2, 30, 0
5, 164640, Note_off_c, 2, 37, 0
5, 164640, Note_off_c, 2, 42, 0
5, 164640, Note_off_c, 2, 46, 0
5, 164640, Note_on_c, 2, 32, 100
5, 164640, Note_on_c, 2, 39, 100
5, 164640, Note_on_c, 2, 44, 100
5, 164640, Note_on_c, 2, 48, 100
5, 164640, Note_on_c, 2, 51, 100
5, 165600, Note_off_c, 2, 32, 0
5, 165600, Note_off_c, 2, 39, 0
5, 165600, Note_off_c, 2, 44, 0
5, 165600, Note_off_c, 2, 48, 0
5, 165600, Note_off_c, 2, 51, 0
5, 165600, Note_on_c, 2, 30, 100
5, 165600, Note_on_c, 2, 37, 100
5, 165600, Note_on_c, 2, 42, 100
5, 165600, Note_on_c, 2, 46, 100
5, 165600, Note_on_c, 2, 49, 100
5, 166560, Note_off_c, 2, 30, 0
5, 166560, Note_off_c, 2, 37, 0
5, 166560, Note_off_c, 2, 42, 0
5, 166560, Note_off_c, 2, 46, 0
5, 166560, Note_off_c, 2, 49, 0
5, 166560, Note_on_c, 2, 29, 100
5, 166560, Note_on_c, 2, 36, 100
5, 166560, Note_on_c, 2, 41, 100
5, 166560, Note_on_c, 2, 48, 100
5, 167520, Note_off_c, 2, 29, 0
5, 167520, Note_off_c, 2, 36, 0
5, 167520, Note_off_c, 2, 41, 0
5, 167520, Note_off_c, 2, 48, 0
5, 167520, Note_on_c, 2, 29, 100
5, 167520, Note_on_c, 2, 36, 100
5, 167520, Note_on_c, 2, 41, 100
5, 167520, Note_on_c, 2, 48, 100
5, 168480, Note_off_c, 2, 29, 0
5, 168480, Note_off_c, 2, 36, 0
5, 168480, Note_off_c, 2, 41, 0
5, 168480, Note_off_c, 2, 48, 0
5, 168480, Note_on_c, 2, 29, 100
5, 168480, Note_on_c, 2, 36, 100
5, 168480, Note_on_c, 2, 41, 100
5, 168480, Note_on_c, 2, 45, 100
5, 169440, Note_off_c, 2, 29, 0
5, 169440, Note_off_c, 2, 36, 0
5, 169440, Note_off_c, 2, 41, 0
5, 169440, Note_off_c, 2, 45, 0
5, 169440, Note_on_c, 2, 29, 100
5, 169440, Note_on_c, 2, 36, 100
5, 169440, Note_on_c, 2, 41, 100
5, 169440, Note_on_c, 2, 45, 100
5, 169440, Note_on_c, 2, 48, 100
5, 169440, Note_on_c, 2, 53, 100
5, 170400, Note_off_c, 2, 29, 0
5, 170400, Note_off_c, 2, 36, 0
5, 170400, Note_off_c, 2, 41, 0
5, 170400, Note_off_c, 2, 45, 0
5, 170400, Note_off_c, 2, 48, 0
5, 170400, Note_off_c, 2, 53, 0
5, 170400, End_track
6, 0, Start_track
6, 0, Title_t, ""
6, 0, MIDI_port, 0
6, 32160, Note_on_c, 3, 97, 100
6, 32160, Note_on_c, 3, 104, 100
6, 32160, Note_on_c, 3, 109, 100
6, 32160, Note_on_c, 3, 112, 100
6, 33120, Note_off_c, 3, 97, 0
6, 33120, Note_off_c, 3, 104, 0
6, 33120, Note_off_c, 3, 109, 0
6, 33120, Note_off_c, 3, 112, 0
6, 33120, Note_on_c, 3, 97, 100
6, 33120, Note_on_c, 3, 104, 100
6, 33120, Note_on_c, 3, 109, 100
6, 33120, Note_on_c, 3, 112, 100
6, 34080, Note_off_c, 3, 97, 0
6, 34080, Note_off_c, 3, 104, 0
6, 34080, Note_off_c, 3, 109, 0
6, 34080, Note_off_c, 3, 112, 0
6, 34080, Note_on_c, 3, 93, 100
6, 34080, Note_on_c, 3, 100, 100
6, 34080, Note_on_c, 3, 105, 100
6, 34080, Note_on_c, 3, 109, 100
6, 35040, Note_off_c, 3, 93, 0
6, 35040, Note_off_c, 3, 100, 0
6, 35040, Note_off_c, 3, 105, 0
6, 35040, Note_off_c, 3, 109, 0
6, 35040, Note_on_c, 3, 93, 100
6, 35040, Note_on_c, 3, 100, 100
6, 35040, Note_on_c, 3, 105, 100
6, 35040, Note_on_c, 3, 109, 100
6, 36000, Note_off_c, 3, 93, 0
6, 36000, Note_off_c, 3, 100, 0
6, 36000, Note_off_c, 3, 105, 0
6, 36000, Note_off_c, 3, 109, 0
6, 36000, Note_on_c, 3, 95, 100
6, 36000, Note_on_c, 3, 102, 100
6, 36000, Note_on_c, 3, 107, 100
6, 36000, Note_on_c, 3, 111, 100
6, 36960, Note_off_c, 3, 95, 0
6, 36960, Note_off_c, 3, 102, 0
6, 36960, Note_off_c, 3, 107, 0
6, 36960, Note_off_c, 3, 111, 0
6, 36960, Note_on_c, 3, 95, 100
6, 36960, Note_on_c, 3, 102, 100
6, 36960, Note_on_c, 3, 107, 100
6, 36960, Note_on_c, 3, 111, 100
6, 37920, Note_off_c, 3, 95, 0
6, 37920, Note_off_c, 3, 102, 0
6, 37920, Note_off_c, 3, 107, 0
6, 37920, Note_off_c, 3, 111, 0
6, 37920, Note_on_c, 3, 97, 100
6, 37920, Note_on_c, 3, 104, 100
6, 37920, Note_on_c, 3, 109, 100
6, 37920, Note_on_c, 3, 112, 100
6, 38880, Note_off_c, 3, 97, 0
6, 38880, Note_off_c, 3, 104, 0
6, 38880, Note_off_c, 3, 109, 0
6, 38880, Note_off_c, 3, 112, 0
6, 38880, Note_on_c, 3, 92, 100
6, 38880, Note_on_c, 3, 99, 100
6, 38880, Note_on_c, 3, 104, 100
6, 38880, Note_on_c, 3, 108, 100
6, 39840, Note_off_c, 3, 92, 0
6, 39840, Note_off_c, 3, 99, 0
6, 39840, Note_off_c, 3, 104, 0
6, 39840, Note_off_c, 3, 108, 0
6, 39840, Note_on_c, 3, 97, 100
6, 39840, Note_on_c, 3, 104, 100
6, 39840, Note_on_c, 3, 109, 100
6, 39840, Note_on_c, 3, 112, 100
6, 40800, Note_off_c, 3, 97, 0
6, 40800, Note_off_c, 3, 104, 0
6, 40800, Note_off_c, 3, 109, 0
6, 40800, Note_off_c, 3, 112, 0
6, 40800, Note_on_c, 3, 97, 100
6, 40800, Note_on_c, 3, 104, 100
6, 40800, Note_on_c, 3, 109, 100
6, 40800, Note_on_c, 3, 112, 100
6, 41760, Note_off_c, 3, 97, 0
6, 41760, Note_off_c, 3, 104, 0
6, 41760, Note_off_c, 3, 109, 0
6, 41760, Note_off_c, 3, 112, 0
6, 41760, Note_on_c, 3, 93, 100
6, 41760, Note_on_c, 3, 100, 100
6, 41760, Note_on_c, 3, 105, 100
6, 41760, Note_on_c, 3, 109, 100
6, 42720, Note_off_c, 3, 93, 0
6, 42720, Note_off_c, 3, 100, 0
6, 42720, Note_off_c, 3, 105, 0
6, 42720, Note_off_c, 3, 109, 0
6, 42720, Note_on_c, 3, 93, 100
6, 42720, Note_on_c, 3, 100, 100
6, 42720, Note_on_c, 3, 105, 100
6, 42720, Note_on_c, 3, 109, 100
6, 43680, Note_off_c, 3, 93, 0
6, 43680, Note_off_c, 3, 100, 0
6, 43680, Note_off_c, 3, 105, 0
6, 43680, Note_off_c, 3, 109, 0
6, 43680, Note_on_c, 3, 95, 100
6, 43680, Note_on_c, 3, 102, 100
6, 43680, Note_on_c, 3, 107, 100
6, 43680, Note_on_c, 3, 111, 100
6, 44640, Note_off_c, 3, 95, 0
6, 44640, Note_off_c, 3, 102, 0
6, 44640, Note_off_c, 3, 107, 0
6, 44640, Note_off_c, 3, 111, 0
6, 44640, Note_on_c, 3, 95, 100
6, 44640, Note_on_c, 3, 102, 100
6, 44640, Note_on_c, 3, 107, 100
6, 44640, Note_on_c, 3, 111, 100
6, 45600, Note_off_c, 3, 95, 0
6, 45600, Note_off_c, 3, 102, 0
6, 45600, Note_off_c, 3, 107, 0
6, 45600, Note_off_c, 3, 111, 0
6, 45600, Note_on_c, 3, 97, 100
6, 45600, Note_on_c, 3, 104, 100
6, 45600, Note_on_c, 3, 109, 100
6, 45600, Note_on_c, 3, 112, 100
6, 45600, Note_on_c, 3, 100, 100
6, 45600, Note_on_c, 3, 92, 100
6, 46560, Note_off_c, 3, 97, 0
6, 46560, Note_off_c, 3, 104, 0
6, 46560, Note_off_c, 3, 109, 0
6, 46560, Note_off_c, 3, 112, 0
6, 46560, Note_off_c, 3, 100, 0
6, 46560, Note_off_c, 3, 92, 0
6, 46560, Note_on_c, 3, 104, 100
6, 46560, Note_on_c, 3, 108, 100
6, 46560, Note_on_c, 3, 92, 100
6, 46560, Note_on_c, 3, 96, 100
6, 47520, Note_off_c, 3, 104, 0
6, 47520, Note_off_c, 3, 108, 0
6, 47520, Note_off_c, 3, 92, 0
6, 47520, Note_off_c, 3, 96, 0
6, 62880, Note_on_c, 3, 89, 100
6, 62880, Note_on_c, 3, 94, 100
6, 62910, Note_off_c, 3, 89, 0
6, 62910, Note_off_c, 3, 94, 0
6, 62910, Note_on_c, 3, 89, 100
6, 62910, Note_on_c, 3, 94, 100
6, 62940, Note_off_c, 3, 89, 0
6, 62940, Note_off_c, 3, 94, 0
6, 62940, Note_on_c, 3, 89, 100
6, 62940, Note_on_c, 3, 94, 100
6, 62970, Note_off_c, 3, 89, 0
6, 62970, Note_off_c, 3, 94, 0
6, 62970, Note_on_c, 3, 89, 100
6, 62970, Note_on_c, 3, 94, 100
6, 63000, Note_off_c, 3, 89, 0
6, 63000, Note_off_c, 3, 94, 0
6, 63000, Note_on_c, 3, 89, 100
6, 63000, Note_on_c, 3, 94, 100
6, 63030, Note_off_c, 3, 89, 0
6, 63030, Note_off_c, 3, 94, 0
6, 63030, Note_on_c, 3, 89, 100
6, 63030, Note_on_c, 3, 94, 100
6, 63060, Note_off_c, 3, 89, 0
6, 63060, Note_off_c, 3, 94, 0
6, 63060, Note_on_c, 3, 89, 100
6, 63060, Note_on_c, 3, 94, 100
6, 63090, Note_off_c, 3, 89, 0
6, 63090, Note_off_c, 3, 94, 0
6, 63090, Note_on_c, 3, 89, 100
6, 63090, Note_on_c, 3, 94, 100
6, 63120, Note_off_c, 3, 89, 0
6, 63120, Note_off_c, 3, 94, 0
6, 63120, Note_on_c, 3, 89, 100
6, 63120, Note_on_c, 3, 94, 100
6, 63150, Note_off_c, 3, 89, 0
6, 63150, Note_off_c, 3, 94, 0
6, 63150, Note_on_c, 3, 89, 100
6, 63150, Note_on_c, 3, 94, 100
6, 63180, Note_off_c, 3, 89, 0
6, 63180, Note_off_c, 3, 94, 0
6, 63180, Note_on_c, 3, 89, 100
6, 63180, Note_on_c, 3, 94, 100
6, 63210, Note_off_c, 3, 89, 0
6, 63210, Note_off_c, 3, 94, 0
6, 63210, Note_on_c, 3, 89, 100
6, 63210, Note_on_c, 3, 94, 100
6, 63240, Note_off_c, 3, 89, 0
6, 63240, Note_off_c, 3, 94, 0
6, 63240, Note_on_c, 3, 89, 100
6, 63240, Note_on_c, 3, 94, 100
6, 63270, Note_off_c, 3, 89, 0
6, 63270, Note_off_c, 3, 94, 0
6, 63270, Note_on_c, 3, 89, 100
6, 63270, Note_on_c, 3, 94, 100
6, 63300, Note_off_c, 3, 89, 0
6, 63300, Note_off_c, 3, 94, 0
6, 63300, Note_on_c, 3, 89, 100
6, 63300, Note_on_c, 3, 94, 100
6, 63330, Note_off_c, 3, 89, 0
6, 63330, Note_off_c, 3, 94, 0
6, 63330, Note_on_c, 3, 89, 100
6, 63330, Note_on_c, 3, 94, 100
6, 63360, Note_off_c, 3, 89, 0
6, 63360, Note_off_c, 3, 94, 0
6, 63360, Note_on_c, 3, 89, 100
6, 63360, Note_on_c, 3, 94, 100
6, 63390, Note_off_c, 3, 89, 0
6, 63390, Note_off_c, 3, 94, 0
6, 63390, Note_on_c, 3, 89, 100
6, 63390, Note_on_c, 3, 94, 100
6, 63420, Note_off_c, 3, 89, 0
6, 63420, Note_off_c, 3, 94, 0
6, 63420, Note_on_c, 3, 89, 100
6, 63420, Note_on_c, 3, 94, 100
6, 63450, Note_off_c, 3, 89, 0
6, 63450, Note_off_c, 3, 94, 0
6, 63450, Note_on_c, 3, 89, 100
6, 63450, Note_on_c, 3, 94, 100
6, 63480, Note_off_c, 3, 89, 0
6, 63480, Note_off_c, 3, 94, 0
6, 63480, Note_on_c, 3, 89, 100
6, 63480, Note_on_c, 3, 94, 100
6, 63510, Note_off_c, 3, 89, 0
6, 63510, Note_off_c, 3, 94, 0
6, 63510, Note_on_c, 3, 89, 100
6, 63510, Note_on_c, 3, 94, 100
6, 63540, Note_off_c, 3, 89, 0
6, 63540, Note_off_c, 3, 94, 0
6, 63540, Note_on_c, 3, 89, 100
6, 63540, Note_on_c, 3, 94, 100
6, 63570, Note_off_c, 3, 89, 0
6, 63570, Note_off_c, 3, 94, 0
6, 63570, Note_on_c, 3, 89, 100
6, 63570, Note_on_c, 3, 94, 100
6, 63600, Note_off_c, 3, 89, 0
6, 63600, Note_off_c, 3, 94, 0
6, 63600, Note_on_c, 3, 89, 100
6, 63600, Note_on_c, 3, 94, 100
6, 63630, Note_off_c, 3, 89, 0
6, 63630, Note_off_c, 3, 94, 0
6, 63630, Note_on_c, 3, 89, 100
6, 63630, Note_on_c, 3, 94, 100
6, 63660, Note_off_c, 3, 89, 0
6, 63660, Note_off_c, 3, 94, 0
6, 63660, Note_on_c, 3, 89, 100
6, 63660, Note_on_c, 3, 94, 100
6, 63690, Note_off_c, 3, 89, 0
6, 63690, Note_off_c, 3, 94, 0
6, 63690, Note_on_c, 3, 89, 100
6, 63690, Note_on_c, 3, 94, 100
6, 63720, Note_off_c, 3, 89, 0
6, 63720, Note_off_c, 3, 94, 0
6, 63720, Note_on_c, 3, 89, 100
6, 63720, Note_on_c, 3, 94, 100
6, 63750, Note_off_c, 3, 89, 0
6, 63750, Note_off_c, 3, 94, 0
6, 63750, Note_on_c, 3, 89, 100
6, 63750, Note_on_c, 3, 94, 100
6, 63780, Note_off_c, 3, 89, 0
6, 63780, Note_off_c, 3, 94, 0
6, 63780, Note_on_c, 3, 89, 100
6, 63780, Note_on_c, 3, 94, 100
6, 63810, Note_off_c, 3, 89, 0
6, 63810, Note_off_c, 3, 94, 0
6, 63810, Note_on_c, 3, 89, 100
6, 63810, Note_on_c, 3, 94, 100
6, 63840, Note_off_c, 3, 89, 0
6, 63840, Note_off_c, 3, 94, 0
6, 63840, Note_on_c, 3, 89, 100
6, 63840, Note_on_c, 3, 94, 100
6, 63870, Note_off_c, 3, 89, 0
6, 63870, Note_off_c, 3, 94, 0
6, 63870, Note_on_c, 3, 89, 100
6, 63870, Note_on_c, 3, 94, 100
6, 63900, Note_off_c, 3, 89, 0
6, 63900, Note_off_c, 3, 94, 0
6, 63900, Note_on_c, 3, 89, 100
6, 63900, Note_on_c, 3, 94, 100
6, 63930, Note_off_c, 3, 89, 0
6, 63930, Note_off_c, 3, 94, 0
6, 63930, Note_on_c, 3, 89, 100
6, 63930, Note_on_c, 3, 94, 100
6, 63960, Note_off_c, 3, 89, 0
6, 63960, Note_off_c, 3, 94, 0
6, 63960, Note_on_c, 3, 89, 100
6, 63960, Note_on_c, 3, 94, 100
6, 63990, Note_off_c, 3, 89, 0
6, 63990, Note_off_c, 3, 94, 0
6, 63990, Note_on_c, 3, 89, 100
6, 63990, Note_on_c, 3, 94, 100
6, 64020, Note_off_c, 3, 89, 0
6, 64020, Note_off_c, 3, 94, 0
6, 64020, Note_on_c, 3, 89, 100
6, 64020, Note_on_c, 3, 94, 100
6, 64050, Note_off_c, 3, 89, 0
6, 64050, Note_off_c, 3, 94, 0
6, 64050, Note_on_c, 3, 89, 100
6, 64050, Note_on_c, 3, 94, 100
6, 64080, Note_off_c, 3, 89, 0
6, 64080, Note_off_c, 3, 94, 0
6, 64080, Note_on_c, 3, 89, 100
6, 64080, Note_on_c, 3, 94, 100
6, 64110, Note_off_c, 3, 89, 0
6, 64110, Note_off_c, 3, 94, 0
6, 64110, Note_on_c, 3, 89, 100
6, 64110, Note_on_c, 3, 94, 100
6, 64140, Note_off_c, 3, 89, 0
6, 64140, Note_off_c, 3, 94, 0
6, 64140, Note_on_c, 3, 89, 100
6, 64140, Note_on_c, 3, 94, 100
6, 64170, Note_off_c, 3, 89, 0
6, 64170, Note_off_c, 3, 94, 0
6, 64170, Note_on_c, 3, 89, 100
6, 64170, Note_on_c, 3, 94, 100
6, 64200, Note_off_c, 3, 89, 0
6, 64200, Note_off_c, 3, 94, 0
6, 64200, Note_on_c, 3, 89, 100
6, 64200, Note_on_c, 3, 94, 100
6, 64230, Note_off_c, 3, 89, 0
6, 64230, Note_off_c, 3, 94, 0
6, 64230, Note_on_c, 3, 89, 100
6, 64230, Note_on_c, 3, 94, 100
6, 64260, Note_off_c, 3, 89, 0
6, 64260, Note_off_c, 3, 94, 0
6, 64260, Note_on_c, 3, 89, 100
6, 64260, Note_on_c, 3, 94, 100
6, 64290, Note_off_c, 3, 89, 0
6, 64290, Note_off_c, 3, 94, 0
6, 64290, Note_on_c, 3, 89, 100
6, 64290, Note_on_c, 3, 94, 100
6, 64320, Note_off_c, 3, 89, 0
6, 64320, Note_off_c, 3, 94, 0
6, 64320, Note_on_c, 3, 89, 100
6, 64320, Note_on_c, 3, 94, 100
6, 64350, Note_off_c, 3, 89, 0
6, 64350, Note_off_c, 3, 94, 0
6, 64350, Note_on_c, 3, 89, 100
6, 64350, Note_on_c, 3, 94, 100
6, 64380, Note_off_c, 3, 89, 0
6, 64380, Note_off_c, 3, 94, 0
6, 64380, Note_on_c, 3, 89, 100
6, 64380, Note_on_c, 3, 94, 100
6, 64410, Note_off_c, 3, 89, 0
6, 64410, Note_off_c, 3, 94, 0
6, 64410, Note_on_c, 3, 89, 100
6, 64410, Note_on_c, 3, 94, 100
6, 64440, Note_off_c, 3, 89, 0
6, 64440, Note_off_c, 3, 94, 0
6, 64440, Note_on_c, 3, 89, 100
6, 64440, Note_on_c, 3, 94, 100
6, 64470, Note_off_c, 3, 89, 0
6, 64470, Note_off_c, 3, 94, 0
6, 64470, Note_on_c, 3, 89, 100
6, 64470, Note_on_c, 3, 94, 100
6, 64500, Note_off_c, 3, 89, 0
6, 64500, Note_off_c, 3, 94, 0
6, 64500, Note_on_c, 3, 89, 100
6, 64500, Note_on_c, 3, 94, 100
6, 64530, Note_off_c, 3, 89, 0
6, 64530, Note_off_c, 3, 94, 0
6, 64530, Note_on_c, 3, 89, 100
6, 64530, Note_on_c, 3, 94, 100
6, 64560, Note_off_c, 3, 89, 0
6, 64560, Note_off_c, 3, 94, 0
6, 64560, Note_on_c, 3, 89, 100
6, 64560, Note_on_c, 3, 94, 100
6, 64590, Note_off_c, 3, 89, 0
6, 64590, Note_off_c, 3, 94, 0
6, 64590, Note_on_c, 3, 89, 100
6, 64590, Note_on_c, 3, 94, 100
6, 64620, Note_off_c, 3, 89, 0
6, 64620, Note_off_c, 3, 94, 0
6, 64620, Note_on_c, 3, 89, 100
6, 64620, Note_on_c, 3, 94, 100
6, 64650, Note_off_c, 3, 89, 0
6, 64650, Note_off_c, 3, 94, 0
6, 64650, Note_on_c, 3, 89, 100
6, 64650, Note_on_c, 3, 94, 100
6, 64680, Note_off_c, 3, 89, 0
6, 64680, Note_off_c, 3, 94, 0
6, 64680, Note_on_c, 3, 89, 100
6, 64680, Note_on_c, 3, 94, 100
6, 64710, Note_off_c, 3, 89, 0
6, 64710, Note_off_c, 3, 94, 0
6, 64710, Note_on_c, 3, 89, 100
6, 64710, Note_on_c, 3, 94, 100
6, 64740, Note_off_c, 3, 89, 0
6, 64740, Note_off_c, 3, 94, 0
6, 64740, Note_on_c, 3, 89, 100
6, 64740, Note_on_c, 3, 94, 100
6, 64770, Note_off_c, 3, 89, 0
6, 64770, Note_off_c, 3, 94, 0
6, 64770, Note_on_c, 3, 89, 100
6, 64770, Note_on_c, 3, 94, 100
6, 64800, Note_off_c, 3, 89, 0
6, 64800, Note_off_c, 3, 94, 0
6, 64800, Note_on_c, 3, 90, 100
6, 64800, Note_on_c, 3, 94, 100
6, 64830, Note_off_c, 3, 90, 0
6, 64830, Note_off_c, 3, 94, 0
6, 64830, Note_on_c, 3, 90, 100
6, 64830, Note_on_c, 3, 94, 100
6, 64860, Note_off_c, 3, 90, 0
6, 64860, Note_off_c, 3, 94, 0
6, 64860, Note_on_c, 3, 90, 100
6, 64860, Note_on_c, 3, 94, 100
6, 64890, Note_off_c, 3, 90, 0
6, 64890, Note_off_c, 3, 94, 0
6, 64890, Note_on_c, 3, 90, 100
6, 64890, Note_on_c, 3, 94, 100
6, 64920, Note_off_c, 3, 90, 0
6, 64920, Note_off_c, 3, 94, 0
6, 64920, Note_on_c, 3, 90, 100
6, 64920, Note_on_c, 3, 94, 100
6, 64950, Note_off_c, 3, 90, 0
6, 64950, Note_off_c, 3, 94, 0
6, 64950, Note_on_c, 3, 90, 100
6, 64950, Note_on_c, 3, 94, 100
6, 64980, Note_off_c, 3, 90, 0
6, 64980, Note_off_c, 3, 94, 0
6, 64980, Note_on_c, 3, 90, 100
6, 64980, Note_on_c, 3, 94, 100
6, 65010, Note_off_c, 3, 90, 0
6, 65010, Note_off_c, 3, 94, 0
6, 65010, Note_on_c, 3, 90, 100
6, 65010, Note_on_c, 3, 94, 100
6, 65040, Note_off_c, 3, 90, 0
6, 65040, Note_off_c, 3, 94, 0
6, 65040, Note_on_c, 3, 90, 100
6, 65040, Note_on_c, 3, 94, 100
6, 65070, Note_off_c, 3, 90, 0
6, 65070, Note_off_c, 3, 94, 0
6, 65070, Note_on_c, 3, 90, 100
6, 65070, Note_on_c, 3, 94, 100
6, 65100, Note_off_c, 3, 90, 0
6, 65100, Note_off_c, 3, 94, 0
6, 65100, Note_on_c, 3, 90, 100
6, 65100, Note_on_c, 3, 94, 100
6, 65130, Note_off_c, 3, 90, 0
6, 65130, Note_off_c, 3, 94, 0
6, 65130, Note_on_c, 3, 90, 100
6, 65130, Note_on_c, 3, 94, 100
6, 65160, Note_off_c, 3, 90, 0
6, 65160, Note_off_c, 3, 94, 0
6, 65160, Note_on_c, 3, 90, 100
6, 65160, Note_on_c, 3, 94, 100
6, 65190, Note_off_c, 3, 90, 0
6, 65190, Note_off_c, 3, 94, 0
6, 65190, Note_on_c, 3, 90, 100
6, 65190, Note_on_c, 3, 94, 100
6, 65220, Note_off_c, 3, 90, 0
6, 65220, Note_off_c, 3, 94, 0
6, 65220, Note_on_c, 3, 90, 100
6, 65220, Note_on_c, 3, 94, 100
6, 65250, Note_off_c, 3, 90, 0
6, 65250, Note_off_c, 3, 94, 0
6, 65250, Note_on_c, 3, 90, 100
6, 65250, Note_on_c, 3, 94, 100
6, 65280, Note_off_c, 3, 90, 0
6, 65280, Note_off_c, 3, 94, 0
6, 65280, Note_on_c, 3, 90, 100
6, 65280, Note_on_c, 3, 94, 100
6, 65310, Note_off_c, 3, 90, 0
6, 65310, Note_off_c, 3, 94, 0
6, 65310, Note_on_c, 3, 90, 100
6, 65310, Note_on_c, 3, 94, 100
6, 65340, Note_off_c, 3, 90, 0
6, 65340, Note_off_c, 3, 94, 0
6, 65340, Note_on_c, 3, 90, 100
6, 65340, Note_on_c, 3, 94, 100
6, 65370, Note_off_c, 3, 90, 0
6, 65370, Note_off_c, 3, 94, 0
6, 65370, Note_on_c, 3, 90, 100
6, 65370, Note_on_c, 3, 94, 100
6, 65400, Note_off_c, 3, 90, 0
6, 65400, Note_off_c, 3, 94, 0
6, 65400, Note_on_c, 3, 90, 100
6, 65400, Note_on_c, 3, 94, 100
6, 65430, Note_off_c, 3, 90, 0
6, 65430, Note_off_c, 3, 94, 0
6, 65430, Note_on_c, 3, 90, 100
6, 65430, Note_on_c, 3, 94, 100
6, 65460, Note_off_c, 3, 90, 0
6, 65460, Note_off_c, 3, 94, 0
6, 65460, Note_on_c, 3, 90, 100
6, 65460, Note_on_c, 3, 94, 100
6, 65490, Note_off_c, 3, 90, 0
6, 65490, Note_off_c, 3, 94, 0
6, 65490, Note_on_c, 3, 90, 100
6, 65490, Note_on_c, 3, 94, 100
6, 65520, Note_off_c, 3, 90, 0
6, 65520, Note_off_c, 3, 94, 0
6, 65520, Note_on_c, 3, 90, 100
6, 65520, Note_on_c, 3, 94, 100
6, 65550, Note_off_c, 3, 90, 0
6, 65550, Note_off_c, 3, 94, 0
6, 65550, Note_on_c, 3, 90, 100
6, 65550, Note_on_c, 3, 94, 100
6, 65580, Note_off_c, 3, 90, 0
6, 65580, Note_off_c, 3, 94, 0
6, 65580, Note_on_c, 3, 90, 100
6, 65580, Note_on_c, 3, 94, 100
6, 65610, Note_off_c, 3, 90, 0
6, 65610, Note_off_c, 3, 94, 0
6, 65610, Note_on_c, 3, 90, 100
6, 65610, Note_on_c, 3, 94, 100
6, 65640, Note_off_c, 3, 90, 0
6, 65640, Note_off_c, 3, 94, 0
6, 65640, Note_on_c, 3, 90, 100
6, 65640, Note_on_c, 3, 94, 100
6, 65670, Note_off_c, 3, 90, 0
6, 65670, Note_off_c, 3, 94, 0
6, 65670, Note_on_c, 3, 90, 100
6, 65670, Note_on_c, 3, 94, 100
6, 65700, Note_off_c, 3, 90, 0
6, 65700, Note_off_c, 3, 94, 0
6, 65700, Note_on_c, 3, 90, 100
6, 65700, Note_on_c, 3, 94, 100
6, 65730, Note_off_c, 3, 90, 0
6, 65730, Note_off_c, 3, 94, 0
6, 65730, Note_on_c, 3, 90, 100
6, 65730, Note_on_c, 3, 94, 100
6, 65760, Note_off_c, 3, 90, 0
6, 65760, Note_off_c, 3, 94, 0
6, 65760, Note_on_c, 3, 90, 100
6, 65760, Note_on_c, 3, 94, 100
6, 65790, Note_off_c, 3, 90, 0
6, 65790, Note_off_c, 3, 94, 0
6, 65790, Note_on_c, 3, 90, 100
6, 65790, Note_on_c, 3, 94, 100
6, 65820, Note_off_c, 3, 90, 0
6, 65820, Note_off_c, 3, 94, 0
6, 65820, Note_on_c, 3, 90, 100
6, 65820, Note_on_c, 3, 94, 100
6, 65850, Note_off_c, 3, 90, 0
6, 65850, Note_off_c, 3, 94, 0
6, 65850, Note_on_c, 3, 90, 100
6, 65850, Note_on_c, 3, 94, 100
6, 65880, Note_off_c, 3, 90, 0
6, 65880, Note_off_c, 3, 94, 0
6, 65880, Note_on_c, 3, 90, 100
6, 65880, Note_on_c, 3, 94, 100
6, 65910, Note_off_c, 3, 90, 0
6, 65910, Note_off_c, 3, 94, 0
6, 65910, Note_on_c, 3, 90, 100
6, 65910, Note_on_c, 3, 94, 100
6, 65940, Note_off_c, 3, 90, 0
6, 65940, Note_off_c, 3, 94, 0
6, 65940, Note_on_c, 3, 90, 100
6, 65940, Note_on_c, 3, 94, 100
6, 65970, Note_off_c, 3, 90, 0
6, 65970, Note_off_c, 3, 94, 0
6, 65970, Note_on_c, 3, 90, 100
6, 65970, Note_on_c, 3, 94, 100
6, 66000, Note_off_c, 3, 90, 0
6, 66000, Note_off_c, 3, 94, 0
6, 66000, Note_on_c, 3, 90, 100
6, 66000, Note_on_c, 3, 94, 100
6, 66030, Note_off_c, 3, 90, 0
6, 66030, Note_off_c, 3, 94, 0
6, 66030, Note_on_c, 3, 90, 100
6, 66030, Note_on_c, 3, 94, 100
6, 66060, Note_off_c, 3, 90, 0
6, 66060, Note_off_c, 3, 94, 0
6, 66060, Note_on_c, 3, 90, 100
6, 66060, Note_on_c, 3, 94, 100
6, 66090, Note_off_c, 3, 90, 0
6, 66090, Note_off_c, 3, 94, 0
6, 66090, Note_on_c, 3, 90, 100
6, 66090, Note_on_c, 3, 94, 100
6, 66120, Note_off_c, 3, 90, 0
6, 66120, Note_off_c, 3, 94, 0
6, 66120, Note_on_c, 3, 90, 100
6, 66120, Note_on_c, 3, 94, 100
6, 66150, Note_off_c, 3, 90, 0
6, 66150, Note_off_c, 3, 94, 0
6, 66150, Note_on_c, 3, 90, 100
6, 66150, Note_on_c, 3, 94, 100
6, 66180, Note_off_c, 3, 90, 0
6, 66180, Note_off_c, 3, 94, 0
6, 66180, Note_on_c, 3, 90, 100
6, 66180, Note_on_c, 3, 94, 100
6, 66210, Note_off_c, 3, 90, 0
6, 66210, Note_off_c, 3, 94, 0
6, 66210, Note_on_c, 3, 90, 100
6, 66210, Note_on_c, 3, 94, 100
6, 66240, Note_off_c, 3, 90, 0
6, 66240, Note_off_c, 3, 94, 0
6, 66240, Note_on_c, 3, 90, 100
6, 66240, Note_on_c, 3, 94, 100
6, 66270, Note_off_c, 3, 90, 0
6, 66270, Note_off_c, 3, 94, 0
6, 66270, Note_on_c, 3, 90, 100
6, 66270, Note_on_c, 3, 94, 100
6, 66300, Note_off_c, 3, 90, 0
6, 66300, Note_off_c, 3, 94, 0
6, 66300, Note_on_c, 3, 90, 100
6, 66300, Note_on_c, 3, 94, 100
6, 66330, Note_off_c, 3, 90, 0
6, 66330, Note_off_c, 3, 94, 0
6, 66330, Note_on_c, 3, 90, 100
6, 66330, Note_on_c, 3, 94, 100
6, 66360, Note_off_c, 3, 90, 0
6, 66360, Note_off_c, 3, 94, 0
6, 66360, Note_on_c, 3, 90, 100
6, 66360, Note_on_c, 3, 94, 100
6, 66390, Note_off_c, 3, 90, 0
6, 66390, Note_off_c, 3, 94, 0
6, 66390, Note_on_c, 3, 90, 100
6, 66390, Note_on_c, 3, 94, 100
6, 66420, Note_off_c, 3, 90, 0
6, 66420, Note_off_c, 3, 94, 0
6, 66420, Note_on_c, 3, 90, 100
6, 66420, Note_on_c, 3, 94, 100
6, 66450, Note_off_c, 3, 90, 0
6, 66450, Note_off_c, 3, 94, 0
6, 66450, Note_on_c, 3, 90, 100
6, 66450, Note_on_c, 3, 94, 100
6, 66480, Note_off_c, 3, 90, 0
6, 66480, Note_off_c, 3, 94, 0
6, 66480, Note_on_c, 3, 90, 100
6, 66480, Note_on_c, 3, 94, 100
6, 66510, Note_off_c, 3, 90, 0
6, 66510, Note_off_c, 3, 94, 0
6, 66510, Note_on_c, 3, 90, 100
6, 66510, Note_on_c, 3, 94, 100
6, 66540, Note_off_c, 3, 90, 0
6, 66540, Note_off_c, 3, 94, 0
6, 66540, Note_on_c, 3, 90, 100
6, 66540, Note_on_c, 3, 94, 100
6, 66570, Note_off_c, 3, 90, 0
6, 66570, Note_off_c, 3, 94, 0
6, 66570, Note_on_c, 3, 90, 100
6, 66570, Note_on_c, 3, 94, 100
6, 66600, Note_off_c, 3, 90, 0
6, 66600, Note_off_c, 3, 94, 0
6, 66600, Note_on_c, 3, 90, 100
6, 66600, Note_on_c, 3, 94, 100
6, 66630, Note_off_c, 3, 90, 0
6, 66630, Note_off_c, 3, 94, 0
6, 66630, Note_on_c, 3, 90, 100
6, 66630, Note_on_c, 3, 94, 100
6, 66660, Note_off_c, 3, 90, 0
6, 66660, Note_off_c, 3, 94, 0
6, 66660, Note_on_c, 3, 90, 100
6, 66660, Note_on_c, 3, 94, 100
6, 66690, Note_off_c, 3, 90, 0
6, 66690, Note_off_c, 3, 94, 0
6, 66690, Note_on_c, 3, 90, 100
6, 66690, Note_on_c, 3, 94, 100
6, 66720, Note_off_c, 3, 90, 0
6, 66720, Note_off_c, 3, 94, 0
6, 66720, Note_on_c, 3, 92, 100
6, 66720, Note_on_c, 3, 96, 100
6, 66750, Note_off_c, 3, 92, 0
6, 66750, Note_off_c, 3, 96, 0
6, 66750, Note_on_c, 3, 92, 100
6, 66750, Note_on_c, 3, 96, 100
6, 66780, Note_off_c, 3, 92, 0
6, 66780, Note_off_c, 3, 96, 0
6, 66780, Note_on_c, 3, 92, 100
6, 66780, Note_on_c, 3, 96, 100
6, 66810, Note_off_c, 3, 92, 0
6, 66810, Note_off_c, 3, 96, 0
6, 66810, Note_on_c, 3, 92, 100
6, 66810, Note_on_c, 3, 96, 100
6, 66840, Note_off_c, 3, 92, 0
6, 66840, Note_off_c, 3, 96, 0
6, 66840, Note_on_c, 3, 92, 100
6, 66840, Note_on_c, 3, 96, 100
6, 66870, Note_off_c, 3, 92, 0
6, 66870, Note_off_c, 3, 96, 0
6, 66870, Note_on_c, 3, 92, 100
6, 66870, Note_on_c, 3, 96, 100
6, 66900, Note_off_c, 3, 92, 0
6, 66900, Note_off_c, 3, 96, 0
6, 66900, Note_on_c, 3, 92, 100
6, 66900, Note_on_c, 3, 96, 100
6, 66930, Note_off_c, 3, 92, 0
6, 66930, Note_off_c, 3, 96, 0
6, 66930, Note_on_c, 3, 92, 100
6, 66930, Note_on_c, 3, 96, 100
6, 66960, Note_off_c, 3, 92, 0
6, 66960, Note_off_c, 3, 96, 0
6, 66960, Note_on_c, 3, 92, 100
6, 66960, Note_on_c, 3, 96, 100
6, 66990, Note_off_c, 3, 92, 0
6, 66990, Note_off_c, 3, 96, 0
6, 66990, Note_on_c, 3, 92, 100
6, 66990, Note_on_c, 3, 96, 100
6, 67020, Note_off_c, 3, 92, 0
6, 67020, Note_off_c, 3, 96, 0
6, 67020, Note_on_c, 3, 92, 100
6, 67020, Note_on_c, 3, 96, 100
6, 67050, Note_off_c, 3, 92, 0
6, 67050, Note_off_c, 3, 96, 0
6, 67050, Note_on_c, 3, 92, 100
6, 67050, Note_on_c, 3, 96, 100
6, 67080, Note_off_c, 3, 92, 0
6, 67080, Note_off_c, 3, 96, 0
6, 67080, Note_on_c, 3, 92, 100
6, 67080, Note_on_c, 3, 96, 100
6, 67110, Note_off_c, 3, 92, 0
6, 67110, Note_off_c, 3, 96, 0
6, 67110, Note_on_c, 3, 92, 100
6, 67110, Note_on_c, 3, 96, 100
6, 67140, Note_off_c, 3, 92, 0
6, 67140, Note_off_c, 3, 96, 0
6, 67140, Note_on_c, 3, 92, 100
6, 67140, Note_on_c, 3, 96, 100
6, 67170, Note_off_c, 3, 92, 0
6, 67170, Note_off_c, 3, 96, 0
6, 67170, Note_on_c, 3, 92, 100
6, 67170, Note_on_c, 3, 96, 100
6, 67200, Note_off_c, 3, 92, 0
6, 67200, Note_off_c, 3, 96, 0
6, 67200, Note_on_c, 3, 92, 100
6, 67200, Note_on_c, 3, 96, 100
6, 67230, Note_off_c, 3, 92, 0
6, 67230, Note_off_c, 3, 96, 0
6, 67230, Note_on_c, 3, 92, 100
6, 67230, Note_on_c, 3, 96, 100
6, 67260, Note_off_c, 3, 92, 0
6, 67260, Note_off_c, 3, 96, 0
6, 67260, Note_on_c, 3, 92, 100
6, 67260, Note_on_c, 3, 96, 100
6, 67290, Note_off_c, 3, 92, 0
6, 67290, Note_off_c, 3, 96, 0
6, 67290, Note_on_c, 3, 92, 100
6, 67290, Note_on_c, 3, 96, 100
6, 67320, Note_off_c, 3, 92, 0
6, 67320, Note_off_c, 3, 96, 0
6, 67320, Note_on_c, 3, 92, 100
6, 67320, Note_on_c, 3, 96, 100
6, 67350, Note_off_c, 3, 92, 0
6, 67350, Note_off_c, 3, 96, 0
6, 67350, Note_on_c, 3, 92, 100
6, 67350, Note_on_c, 3, 96, 100
6, 67380, Note_off_c, 3, 92, 0
6, 67380, Note_off_c, 3, 96, 0
6, 67380, Note_on_c, 3, 92, 100
6, 67380, Note_on_c, 3, 96, 100
6, 67410, Note_off_c, 3, 92, 0
6, 67410, Note_off_c, 3, 96, 0
6, 67410, Note_on_c, 3, 92, 100
6, 67410, Note_on_c, 3, 96, 100
6, 67440, Note_off_c, 3, 92, 0
6, 67440, Note_off_c, 3, 96, 0
6, 67440, Note_on_c, 3, 92, 100
6, 67440, Note_on_c, 3, 96, 100
6, 67470, Note_off_c, 3, 92, 0
6, 67470, Note_off_c, 3, 96, 0
6, 67470, Note_on_c, 3, 92, 100
6, 67470, Note_on_c, 3, 96, 100
6, 67500, Note_off_c, 3, 92, 0
6, 67500, Note_off_c, 3, 96, 0
6, 67500, Note_on_c, 3, 92, 100
6, 67500, Note_on_c, 3, 96, 100
6, 67530, Note_off_c, 3, 92, 0
6, 67530, Note_off_c, 3, 96, 0
6, 67530, Note_on_c, 3, 92, 100
6, 67530, Note_on_c, 3, 96, 100
6, 67560, Note_off_c, 3, 92, 0
6, 67560, Note_off_c, 3, 96, 0
6, 67560, Note_on_c, 3, 92, 100
6, 67560, Note_on_c, 3, 96, 100
6, 67590, Note_off_c, 3, 92, 0
6, 67590, Note_off_c, 3, 96, 0
6, 67590, Note_on_c, 3, 92, 100
6, 67590, Note_on_c, 3, 96, 100
6, 67620, Note_off_c, 3, 92, 0
6, 67620, Note_off_c, 3, 96, 0
6, 67620, Note_on_c, 3, 92, 100
6, 67620, Note_on_c, 3, 96, 100
6, 67650, Note_off_c, 3, 92, 0
6, 67650, Note_off_c, 3, 96, 0
6, 67650, Note_on_c, 3, 92, 100
6, 67650, Note_on_c, 3, 96, 100
6, 67680, Note_off_c, 3, 92, 0
6, 67680, Note_off_c, 3, 96, 0
6, 67680, Note_on_c, 3, 90, 100
6, 67680, Note_on_c, 3, 94, 100
6, 67710, Note_off_c, 3, 90, 0
6, 67710, Note_off_c, 3, 94, 0
6, 67710, Note_on_c, 3, 90, 100
6, 67710, Note_on_c, 3, 94, 100
6, 67740, Note_off_c, 3, 90, 0
6, 67740, Note_off_c, 3, 94, 0
6, 67740, Note_on_c, 3, 90, 100
6, 67740, Note_on_c, 3, 94, 100
6, 67770, Note_off_c, 3, 90, 0
6, 67770, Note_off_c, 3, 94, 0
6, 67770, Note_on_c, 3, 90, 100
6, 67770, Note_on_c, 3, 94, 100
6, 67800, Note_off_c, 3, 90, 0
6, 67800, Note_off_c, 3, 94, 0
6, 67800, Note_on_c, 3, 90, 100
6, 67800, Note_on_c, 3, 94, 100
6, 67830, Note_off_c, 3, 90, 0
6, 67830, Note_off_c, 3, 94, 0
6, 67830, Note_on_c, 3, 90, 100
6, 67830, Note_on_c, 3, 94, 100
6, 67860, Note_off_c, 3, 90, 0
6, 67860, Note_off_c, 3, 94, 0
6, 67860, Note_on_c, 3, 90, 100
6, 67860, Note_on_c, 3, 94, 100
6, 67890, Note_off_c, 3, 90, 0
6, 67890, Note_off_c, 3, 94, 0
6, 67890, Note_on_c, 3, 90, 100
6, 67890, Note_on_c, 3, 94, 100
6, 67920, Note_off_c, 3, 90, 0
6, 67920, Note_off_c, 3, 94, 0
6, 67920, Note_on_c, 3, 90, 100
6, 67920, Note_on_c, 3, 94, 100
6, 67950, Note_off_c, 3, 90, 0
6, 67950, Note_off_c, 3, 94, 0
6, 67950, Note_on_c, 3, 90, 100
6, 67950, Note_on_c, 3, 94, 100
6, 67980, Note_off_c, 3, 90, 0
6, 67980, Note_off_c, 3, 94, 0
6, 67980, Note_on_c, 3, 90, 100
6, 67980, Note_on_c, 3, 94, 100
6, 68010, Note_off_c, 3, 90, 0
6, 68010, Note_off_c, 3, 94, 0
6, 68010, Note_on_c, 3, 90, 100
6, 68010, Note_on_c, 3, 94, 100
6, 68040, Note_off_c, 3, 90, 0
6, 68040, Note_off_c, 3, 94, 0
6, 68040, Note_on_c, 3, 90, 100
6, 68040, Note_on_c, 3, 94, 100
6, 68070, Note_off_c, 3, 90, 0
6, 68070, Note_off_c, 3, 94, 0
6, 68070, Note_on_c, 3, 90, 100
6, 68070, Note_on_c, 3, 94, 100
6, 68100, Note_off_c, 3, 90, 0
6, 68100, Note_off_c, 3, 94, 0
6, 68100, Note_on_c, 3, 90, 100
6, 68100, Note_on_c, 3, 94, 100
6, 68130, Note_off_c, 3, 90, 0
6, 68130, Note_off_c, 3, 94, 0
6, 68130, Note_on_c, 3, 90, 100
6, 68130, Note_on_c, 3, 94, 100
6, 68160, Note_off_c, 3, 90, 0
6, 68160, Note_off_c, 3, 94, 0
6, 68160, Note_on_c, 3, 90, 100
6, 68160, Note_on_c, 3, 94, 100
6, 68190, Note_off_c, 3, 90, 0
6, 68190, Note_off_c, 3, 94, 0
6, 68190, Note_on_c, 3, 90, 100
6, 68190, Note_on_c, 3, 94, 100
6, 68220, Note_off_c, 3, 90, 0
6, 68220, Note_off_c, 3, 94, 0
6, 68220, Note_on_c, 3, 90, 100
6, 68220, Note_on_c, 3, 94, 100
6, 68250, Note_off_c, 3, 90, 0
6, 68250, Note_off_c, 3, 94, 0
6, 68250, Note_on_c, 3, 90, 100
6, 68250, Note_on_c, 3, 94, 100
6, 68280, Note_off_c, 3, 90, 0
6, 68280, Note_off_c, 3, 94, 0
6, 68280, Note_on_c, 3, 90, 100
6, 68280, Note_on_c, 3, 94, 100
6, 68310, Note_off_c, 3, 90, 0
6, 68310, Note_off_c, 3, 94, 0
6, 68310, Note_on_c, 3, 90, 100
6, 68310, Note_on_c, 3, 94, 100
6, 68340, Note_off_c, 3, 90, 0
6, 68340, Note_off_c, 3, 94, 0
6, 68340, Note_on_c, 3, 90, 100
6, 68340, Note_on_c, 3, 94, 100
6, 68370, Note_off_c, 3, 90, 0
6, 68370, Note_off_c, 3, 94, 0
6, 68370, Note_on_c, 3, 90, 100
6, 68370, Note_on_c, 3, 94, 100
6, 68400, Note_off_c, 3, 90, 0
6, 68400, Note_off_c, 3, 94, 0
6, 68400, Note_on_c, 3, 90, 100
6, 68400, Note_on_c, 3, 94, 100
6, 68430, Note_off_c, 3, 90, 0
6, 68430, Note_off_c, 3, 94, 0
6, 68430, Note_on_c, 3, 90, 100
6, 68430, Note_on_c, 3, 94, 100
6, 68460, Note_off_c, 3, 90, 0
6, 68460, Note_off_c, 3, 94, 0
6, 68460, Note_on_c, 3, 90, 100
6, 68460, Note_on_c, 3, 94, 100
6, 68490, Note_off_c, 3, 90, 0
6, 68490, Note_off_c, 3, 94, 0
6, 68490, Note_on_c, 3, 90, 100
6, 68490, Note_on_c, 3, 94, 100
6, 68520, Note_off_c, 3, 90, 0
6, 68520, Note_off_c, 3, 94, 0
6, 68520, Note_on_c, 3, 90, 100
6, 68520, Note_on_c, 3, 94, 100
6, 68550, Note_off_c, 3, 90, 0
6, 68550, Note_off_c, 3, 94, 0
6, 68550, Note_on_c, 3, 90, 100
6, 68550, Note_on_c, 3, 94, 100
6, 68580, Note_off_c, 3, 90, 0
6, 68580, Note_off_c, 3, 94, 0
6, 68580, Note_on_c, 3, 90, 100
6, 68580, Note_on_c, 3, 94, 100
6, 68610, Note_off_c, 3, 90, 0
6, 68610, Note_off_c, 3, 94, 0
6, 68610, Note_on_c, 3, 90, 100
6, 68610, Note_on_c, 3, 94, 100
6, 68640, Note_off_c, 3, 90, 0
6, 68640, Note_off_c, 3, 94, 0
6, 68640, Note_on_c, 3, 89, 100
6, 68640, Note_on_c, 3, 93, 100
6, 68670, Note_off_c, 3, 89, 0
6, 68670, Note_off_c, 3, 93, 0
6, 68670, Note_on_c, 3, 89, 100
6, 68670, Note_on_c, 3, 93, 100
6, 68700, Note_off_c, 3, 89, 0
6, 68700, Note_off_c, 3, 93, 0
6, 68700, Note_on_c, 3, 89, 100
6, 68700, Note_on_c, 3, 93, 100
6, 68730, Note_off_c, 3, 89, 0
6, 68730, Note_off_c, 3, 93, 0
6, 68730, Note_on_c, 3, 89, 100
6, 68730, Note_on_c, 3, 93, 100
6, 68760, Note_off_c, 3, 89, 0
6, 68760, Note_off_c, 3, 93, 0
6, 68760, Note_on_c, 3, 89, 100
6, 68760, Note_on_c, 3, 93, 100
6, 68790, Note_off_c, 3, 89, 0
6, 68790, Note_off_c, 3, 93, 0
6, 68790, Note_on_c, 3, 89, 100
6, 68790, Note_on_c, 3, 93, 100
6, 68820, Note_off_c, 3, 89, 0
6, 68820, Note_off_c, 3, 93, 0
6, 68820, Note_on_c, 3, 89, 100
6, 68820, Note_on_c, 3, 93, 100
6, 68850, Note_off_c, 3, 89, 0
6, 68850, Note_off_c, 3, 93, 0
6, 68850, Note_on_c, 3, 89, 100
6, 68850, Note_on_c, 3, 93, 100
6, 68880, Note_off_c, 3, 89, 0
6, 68880, Note_off_c, 3, 93, 0
6, 68880, Note_on_c, 3, 89, 100
6, 68880, Note_on_c, 3, 93, 100
6, 68910, Note_off_c, 3, 89, 0
6, 68910, Note_off_c, 3, 93, 0
6, 68910, Note_on_c, 3, 89, 100
6, 68910, Note_on_c, 3, 93, 100
6, 68940, Note_off_c, 3, 89, 0
6, 68940, Note_off_c, 3, 93, 0
6, 68940, Note_on_c, 3, 89, 100
6, 68940, Note_on_c, 3, 93, 100
6, 68970, Note_off_c, 3, 89, 0
6, 68970, Note_off_c, 3, 93, 0
6, 68970, Note_on_c, 3, 89, 100
6, 68970, Note_on_c, 3, 93, 100
6, 69000, Note_off_c, 3, 89, 0
6, 69000, Note_off_c, 3, 93, 0
6, 69000, Note_on_c, 3, 89, 100
6, 69000, Note_on_c, 3, 93, 100
6, 69030, Note_off_c, 3, 89, 0
6, 69030, Note_off_c, 3, 93, 0
6, 69030, Note_on_c, 3, 89, 100
6, 69030, Note_on_c, 3, 93, 100
6, 69060, Note_off_c, 3, 89, 0
6, 69060, Note_off_c, 3, 93, 0
6, 69060, Note_on_c, 3, 89, 100
6, 69060, Note_on_c, 3, 93, 100
6, 69090, Note_off_c, 3, 89, 0
6, 69090, Note_off_c, 3, 93, 0
6, 69090, Note_on_c, 3, 89, 100
6, 69090, Note_on_c, 3, 93, 100
6, 69120, Note_off_c, 3, 89, 0
6, 69120, Note_off_c, 3, 93, 0
6, 69120, Note_on_c, 3, 89, 100
6, 69120, Note_on_c, 3, 93, 100
6, 69150, Note_off_c, 3, 89, 0
6, 69150, Note_off_c, 3, 93, 0
6, 69150, Note_on_c, 3, 89, 100
6, 69150, Note_on_c, 3, 93, 100
6, 69180, Note_off_c, 3, 89, 0
6, 69180, Note_off_c, 3, 93, 0
6, 69180, Note_on_c, 3, 89, 100
6, 69180, Note_on_c, 3, 93, 100
6, 69210, Note_off_c, 3, 89, 0
6, 69210, Note_off_c, 3, 93, 0
6, 69210, Note_on_c, 3, 89, 100
6, 69210, Note_on_c, 3, 93, 100
6, 69240, Note_off_c, 3, 89, 0
6, 69240, Note_off_c, 3, 93, 0
6, 69240, Note_on_c, 3, 89, 100
6, 69240, Note_on_c, 3, 93, 100
6, 69270, Note_off_c, 3, 89, 0
6, 69270, Note_off_c, 3, 93, 0
6, 69270, Note_on_c, 3, 89, 100
6, 69270, Note_on_c, 3, 93, 100
6, 69300, Note_off_c, 3, 89, 0
6, 69300, Note_off_c, 3, 93, 0
6, 69300, Note_on_c, 3, 89, 100
6, 69300, Note_on_c, 3, 93, 100
6, 69330, Note_off_c, 3, 89, 0
6, 69330, Note_off_c, 3, 93, 0
6, 69330, Note_on_c, 3, 89, 100
6, 69330, Note_on_c, 3, 93, 100
6, 69360, Note_off_c, 3, 89, 0
6, 69360, Note_off_c, 3, 93, 0
6, 69360, Note_on_c, 3, 89, 100
6, 69360, Note_on_c, 3, 93, 100
6, 69390, Note_off_c, 3, 89, 0
6, 69390, Note_off_c, 3, 93, 0
6, 69390, Note_on_c, 3, 89, 100
6, 69390, Note_on_c, 3, 93, 100
6, 69420, Note_off_c, 3, 89, 0
6, 69420, Note_off_c, 3, 93, 0
6, 69420, Note_on_c, 3, 89, 100
6, 69420, Note_on_c, 3, 93, 100
6, 69450, Note_off_c, 3, 89, 0
6, 69450, Note_off_c, 3, 93, 0
6, 69450, Note_on_c, 3, 89, 100
6, 69450, Note_on_c, 3, 93, 100
6, 69480, Note_off_c, 3, 89, 0
6, 69480, Note_off_c, 3, 93, 0
6, 69480, Note_on_c, 3, 89, 100
6, 69480, Note_on_c, 3, 93, 100
6, 69510, Note_off_c, 3, 89, 0
6, 69510, Note_off_c, 3, 93, 0
6, 69510, Note_on_c, 3, 89, 100
6, 69510, Note_on_c, 3, 93, 100
6, 69540, Note_off_c, 3, 89, 0
6, 69540, Note_off_c, 3, 93, 0
6, 69540, Note_on_c, 3, 89, 100
6, 69540, Note_on_c, 3, 93, 100
6, 69570, Note_off_c, 3, 89, 0
6, 69570, Note_off_c, 3, 93, 0
6, 69570, Note_on_c, 3, 89, 100
6, 69570, Note_on_c, 3, 93, 100
6, 69600, Note_off_c, 3, 89, 0
6, 69600, Note_off_c, 3, 93, 0
6, 69600, Note_on_c, 3, 89, 100
6, 69600, Note_on_c, 3, 93, 100
6, 69630, Note_off_c, 3, 89, 0
6, 69630, Note_off_c, 3, 93, 0
6, 69630, Note_on_c, 3, 89, 100
6, 69630, Note_on_c, 3, 93, 100
6, 69660, Note_off_c, 3, 89, 0
6, 69660, Note_off_c, 3, 93, 0
6, 69660, Note_on_c, 3, 89, 100
6, 69660, Note_on_c, 3, 93, 100
6, 69690, Note_off_c, 3, 89, 0
6, 69690, Note_off_c, 3, 93, 0
6, 69690, Note_on_c, 3, 89, 100
6, 69690, Note_on_c, 3, 93, 100
6, 69720, Note_off_c, 3, 89, 0
6, 69720, Note_off_c, 3, 93, 0
6, 69720, Note_on_c, 3, 89, 100
6, 69720, Note_on_c, 3, 93, 100
6, 69750, Note_off_c, 3, 89, 0
6, 69750, Note_off_c, 3, 93, 0
6, 69750, Note_on_c, 3, 89, 100
6, 69750, Note_on_c, 3, 93, 100
6, 69780, Note_off_c, 3, 89, 0
6, 69780, Note_off_c, 3, 93, 0
6, 69780, Note_on_c, 3, 89, 100
6, 69780, Note_on_c, 3, 93, 100
6, 69810, Note_off_c, 3, 89, 0
6, 69810, Note_off_c, 3, 93, 0
6, 69810, Note_on_c, 3, 89, 100
6, 69810, Note_on_c, 3, 93, 100
6, 69840, Note_off_c, 3, 89, 0
6, 69840, Note_off_c, 3, 93, 0
6, 69840, Note_on_c, 3, 89, 100
6, 69840, Note_on_c, 3, 93, 100
6, 69870, Note_off_c, 3, 89, 0
6, 69870, Note_off_c, 3, 93, 0
6, 69870, Note_on_c, 3, 89, 100
6, 69870, Note_on_c, 3, 93, 100
6, 69900, Note_off_c, 3, 89, 0
6, 69900, Note_off_c, 3, 93, 0
6, 69900, Note_on_c, 3, 89, 100
6, 69900, Note_on_c, 3, 93, 100
6, 69930, Note_off_c, 3, 89, 0
6, 69930, Note_off_c, 3, 93, 0
6, 69930, Note_on_c, 3, 89, 100
6, 69930, Note_on_c, 3, 93, 100
6, 69960, Note_off_c, 3, 89, 0
6, 69960, Note_off_c, 3, 93, 0
6, 69960, Note_on_c, 3, 89, 100
6, 69960, Note_on_c, 3, 93, 100
6, 69990, Note_off_c, 3, 89, 0
6, 69990, Note_off_c, 3, 93, 0
6, 69990, Note_on_c, 3, 89, 100
6, 69990, Note_on_c, 3, 93, 100
6, 70020, Note_off_c, 3, 89, 0
6, 70020, Note_off_c, 3, 93, 0
6, 70020, Note_on_c, 3, 89, 100
6, 70020, Note_on_c, 3, 93, 100
6, 70050, Note_off_c, 3, 89, 0
6, 70050, Note_off_c, 3, 93, 0
6, 70050, Note_on_c, 3, 89, 100
6, 70050, Note_on_c, 3, 93, 100
6, 70080, Note_off_c, 3, 89, 0
6, 70080, Note_off_c, 3, 93, 0
6, 70080, Note_on_c, 3, 89, 100
6, 70080, Note_on_c, 3, 93, 100
6, 70110, Note_off_c, 3, 89, 0
6, 70110, Note_off_c, 3, 93, 0
6, 70110, Note_on_c, 3, 89, 100
6, 70110, Note_on_c, 3, 93, 100
6, 70140, Note_off_c, 3, 89, 0
6, 70140, Note_off_c, 3, 93, 0
6, 70140, Note_on_c, 3, 89, 100
6, 70140, Note_on_c, 3, 93, 100
6, 70170, Note_off_c, 3, 89, 0
6, 70170, Note_off_c, 3, 93, 0
6, 70170, Note_on_c, 3, 89, 100
6, 70170, Note_on_c, 3, 93, 100
6, 70200, Note_off_c, 3, 89, 0
6, 70200, Note_off_c, 3, 93, 0
6, 70200, Note_on_c, 3, 89, 100
6, 70200, Note_on_c, 3, 93, 100
6, 70230, Note_off_c, 3, 89, 0
6, 70230, Note_off_c, 3, 93, 0
6, 70230, Note_on_c, 3, 89, 100
6, 70230, Note_on_c, 3, 93, 100
6, 70260, Note_off_c, 3, 89, 0
6, 70260, Note_off_c, 3, 93, 0
6, 70260, Note_on_c, 3, 89, 100
6, 70260, Note_on_c, 3, 93, 100
6, 70290, Note_off_c, 3, 89, 0
6, 70290, Note_off_c, 3, 93, 0
6, 70290, Note_on_c, 3, 89, 100
6, 70290, Note_on_c, 3, 93, 100
6, 70320, Note_off_c, 3, 89, 0
6, 70320, Note_off_c, 3, 93, 0
6, 70320, Note_on_c, 3, 89, 100
6, 70320, Note_on_c, 3, 93, 100
6, 70350, Note_off_c, 3, 89, 0
6, 70350, Note_off_c, 3, 93, 0
6, 70350, Note_on_c, 3, 89, 100
6, 70350, Note_on_c, 3, 93, 100
6, 70380, Note_off_c, 3, 89, 0
6, 70380, Note_off_c, 3, 93, 0
6, 70380, Note_on_c, 3, 89, 100
6, 70380, Note_on_c, 3, 93, 100
6, 70410, Note_off_c, 3, 89, 0
6, 70410, Note_off_c, 3, 93, 0
6, 70410, Note_on_c, 3, 89, 100
6, 70410, Note_on_c, 3, 93, 100
6, 70440, Note_off_c, 3, 89, 0
6, 70440, Note_off_c, 3, 93, 0
6, 70440, Note_on_c, 3, 89, 100
6, 70440, Note_on_c, 3, 93, 100
6, 70470, Note_off_c, 3, 89, 0
6, 70470, Note_off_c, 3, 93, 0
6, 70470, Note_on_c, 3, 89, 100
6, 70470, Note_on_c, 3, 93, 100
6, 70500, Note_off_c, 3, 89, 0
6, 70500, Note_off_c, 3, 93, 0
6, 70500, Note_on_c, 3, 89, 100
6, 70500, Note_on_c, 3, 93, 100
6, 70530, Note_off_c, 3, 89, 0
6, 70530, Note_off_c, 3, 93, 0
6, 70530, Note_on_c, 3, 89, 100
6, 70530, Note_on_c, 3, 93, 100
6, 70560, Note_off_c, 3, 89, 0
6, 70560, Note_off_c, 3, 93, 0
6, 70560, Note_on_c, 3, 89, 100
6, 70560, Note_on_c, 3, 94, 100
6, 70590, Note_off_c, 3, 89, 0
6, 70590, Note_off_c, 3, 94, 0
6, 70590, Note_on_c, 3, 89, 100
6, 70590, Note_on_c, 3, 94, 100
6, 70620, Note_off_c, 3, 89, 0
6, 70620, Note_off_c, 3, 94, 0
6, 70620, Note_on_c, 3, 89, 100
6, 70620, Note_on_c, 3, 94, 100
6, 70650, Note_off_c, 3, 89, 0
6, 70650, Note_off_c, 3, 94, 0
6, 70650, Note_on_c, 3, 89, 100
6, 70650, Note_on_c, 3, 94, 100
6, 70680, Note_off_c, 3, 89, 0
6, 70680, Note_off_c, 3, 94, 0
6, 70680, Note_on_c, 3, 89, 100
6, 70680, Note_on_c, 3, 94, 100
6, 70710, Note_off_c, 3, 89, 0
6, 70710, Note_off_c, 3, 94, 0
6, 70710, Note_on_c, 3, 89, 100
6, 70710, Note_on_c, 3, 94, 100
6, 70740, Note_off_c, 3, 89, 0
6, 70740, Note_off_c, 3, 94, 0
6, 70740, Note_on_c, 3, 89, 100
6, 70740, Note_on_c, 3, 94, 100
6, 70770, Note_off_c, 3, 89, 0
6, 70770, Note_off_c, 3, 94, 0
6, 70770, Note_on_c, 3, 89, 100
6, 70770, Note_on_c, 3, 94, 100
6, 70800, Note_off_c, 3, 89, 0
6, 70800, Note_off_c, 3, 94, 0
6, 70800, Note_on_c, 3, 89, 100
6, 70800, Note_on_c, 3, 94, 100
6, 70830, Note_off_c, 3, 89, 0
6, 70830, Note_off_c, 3, 94, 0
6, 70830, Note_on_c, 3, 89, 100
6, 70830, Note_on_c, 3, 94, 100
6, 70860, Note_off_c, 3, 89, 0
6, 70860, Note_off_c, 3, 94, 0
6, 70860, Note_on_c, 3, 89, 100
6, 70860, Note_on_c, 3, 94, 100
6, 70890, Note_off_c, 3, 89, 0
6, 70890, Note_off_c, 3, 94, 0
6, 70890, Note_on_c, 3, 89, 100
6, 70890, Note_on_c, 3, 94, 100
6, 70920, Note_off_c, 3, 89, 0
6, 70920, Note_off_c, 3, 94, 0
6, 70920, Note_on_c, 3, 89, 100
6, 70920, Note_on_c, 3, 94, 100
6, 70950, Note_off_c, 3, 89, 0
6, 70950, Note_off_c, 3, 94, 0
6, 70950, Note_on_c, 3, 89, 100
6, 70950, Note_on_c, 3, 94, 100
6, 70980, Note_off_c, 3, 89, 0
6, 70980, Note_off_c, 3, 94, 0
6, 70980, Note_on_c, 3, 89, 100
6, 70980, Note_on_c, 3, 94, 100
6, 71010, Note_off_c, 3, 89, 0
6, 71010, Note_off_c, 3, 94, 0
6, 71010, Note_on_c, 3, 89, 100
6, 71010, Note_on_c, 3, 94, 100
6, 71040, Note_off_c, 3, 89, 0
6, 71040, Note_off_c, 3, 94, 0
6, 71040, Note_on_c, 3, 89, 100
6, 71040, Note_on_c, 3, 94, 100
6, 71070, Note_off_c, 3, 89, 0
6, 71070, Note_off_c, 3, 94, 0
6, 71070, Note_on_c, 3, 89, 100
6, 71070, Note_on_c, 3, 94, 100
6, 71100, Note_off_c, 3, 89, 0
6, 71100, Note_off_c, 3, 94, 0
6, 71100, Note_on_c, 3, 89, 100
6, 71100, Note_on_c, 3, 94, 100
6, 71130, Note_off_c, 3, 89, 0
6, 71130, Note_off_c, 3, 94, 0
6, 71130, Note_on_c, 3, 89, 100
6, 71130, Note_on_c, 3, 94, 100
6, 71160, Note_off_c, 3, 89, 0
6, 71160, Note_off_c, 3, 94, 0
6, 71160, Note_on_c, 3, 89, 100
6, 71160, Note_on_c, 3, 94, 100
6, 71190, Note_off_c, 3, 89, 0
6, 71190, Note_off_c, 3, 94, 0
6, 71190, Note_on_c, 3, 89, 100
6, 71190, Note_on_c, 3, 94, 100
6, 71220, Note_off_c, 3, 89, 0
6, 71220, Note_off_c, 3, 94, 0
6, 71220, Note_on_c, 3, 89, 100
6, 71220, Note_on_c, 3, 94, 100
6, 71250, Note_off_c, 3, 89, 0
6, 71250, Note_off_c, 3, 94, 0
6, 71250, Note_on_c, 3, 89, 100
6, 71250, Note_on_c, 3, 94, 100
6, 71280, Note_off_c, 3, 89, 0
6, 71280, Note_off_c, 3, 94, 0
6, 71280, Note_on_c, 3, 89, 100
6, 71280, Note_on_c, 3, 94, 100
6, 71310, Note_off_c, 3, 89, 0
6, 71310, Note_off_c, 3, 94, 0
6, 71310, Note_on_c, 3, 89, 100
6, 71310, Note_on_c, 3, 94, 100
6, 71340, Note_off_c, 3, 89, 0
6, 71340, Note_off_c, 3, 94, 0
6, 71340, Note_on_c, 3, 89, 100
6, 71340, Note_on_c, 3, 94, 100
6, 71370, Note_off_c, 3, 89, 0
6, 71370, Note_off_c, 3, 94, 0
6, 71370, Note_on_c, 3, 89, 100
6, 71370, Note_on_c, 3, 94, 100
6, 71400, Note_off_c, 3, 89, 0
6, 71400, Note_off_c, 3, 94, 0
6, 71400, Note_on_c, 3, 89, 100
6, 71400, Note_on_c, 3, 94, 100
6, 71430, Note_off_c, 3, 89, 0
6, 71430, Note_off_c, 3, 94, 0
6, 71430, Note_on_c, 3, 89, 100
6, 71430, Note_on_c, 3, 94, 100
6, 71460, Note_off_c, 3, 89, 0
6, 71460, Note_off_c, 3, 94, 0
6, 71460, Note_on_c, 3, 89, 100
6, 71460, Note_on_c, 3, 94, 100
6, 71490, Note_off_c, 3, 89, 0
6, 71490, Note_off_c, 3, 94, 0
6, 71490, Note_on_c, 3, 89, 100
6, 71490, Note_on_c, 3, 94, 100
6, 71520, Note_off_c, 3, 89, 0
6, 71520, Note_off_c, 3, 94, 0
6, 71520, Note_on_c, 3, 89, 100
6, 71520, Note_on_c, 3, 94, 100
6, 71550, Note_off_c, 3, 89, 0
6, 71550, Note_off_c, 3, 94, 0
6, 71550, Note_on_c, 3, 89, 100
6, 71550, Note_on_c, 3, 94, 100
6, 71580, Note_off_c, 3, 89, 0
6, 71580, Note_off_c, 3, 94, 0
6, 71580, Note_on_c, 3, 89, 100
6, 71580, Note_on_c, 3, 94, 100
6, 71610, Note_off_c, 3, 89, 0
6, 71610, Note_off_c, 3, 94, 0
6, 71610, Note_on_c, 3, 89, 100
6, 71610, Note_on_c, 3, 94, 100
6, 71640, Note_off_c, 3, 89, 0
6, 71640, Note_off_c, 3, 94, 0
6, 71640, Note_on_c, 3, 89, 100
6, 71640, Note_on_c, 3, 94, 100
6, 71670, Note_off_c, 3, 89, 0
6, 71670, Note_off_c, 3, 94, 0
6, 71670, Note_on_c, 3, 89, 100
6, 71670, Note_on_c, 3, 94, 100
6, 71700, Note_off_c, 3, 89, 0
6, 71700, Note_off_c, 3, 94, 0
6, 71700, Note_on_c, 3, 89, 100
6, 71700, Note_on_c, 3, 94, 100
6, 71730, Note_off_c, 3, 89, 0
6, 71730, Note_off_c, 3, 94, 0
6, 71730, Note_on_c, 3, 89, 100
6, 71730, Note_on_c, 3, 94, 100
6, 71760, Note_off_c, 3, 89, 0
6, 71760, Note_off_c, 3, 94, 0
6, 71760, Note_on_c, 3, 89, 100
6, 71760, Note_on_c, 3, 94, 100
6, 71790, Note_off_c, 3, 89, 0
6, 71790, Note_off_c, 3, 94, 0
6, 71790, Note_on_c, 3, 89, 100
6, 71790, Note_on_c, 3, 94, 100
6, 71820, Note_off_c, 3, 89, 0
6, 71820, Note_off_c, 3, 94, 0
6, 71820, Note_on_c, 3, 89, 100
6, 71820, Note_on_c, 3, 94, 100
6, 71850, Note_off_c, 3, 89, 0
6, 71850, Note_off_c, 3, 94, 0
6, 71850, Note_on_c, 3, 89, 100
6, 71850, Note_on_c, 3, 94, 100
6, 71880, Note_off_c, 3, 89, 0
6, 71880, Note_off_c, 3, 94, 0
6, 71880, Note_on_c, 3, 89, 100
6, 71880, Note_on_c, 3, 94, 100
6, 71910, Note_off_c, 3, 89, 0
6, 71910, Note_off_c, 3, 94, 0
6, 71910, Note_on_c, 3, 89, 100
6, 71910, Note_on_c, 3, 94, 100
6, 71940, Note_off_c, 3, 89, 0
6, 71940, Note_off_c, 3, 94, 0
6, 71940, Note_on_c, 3, 89, 100
6, 71940, Note_on_c, 3, 94, 100
6, 71970, Note_off_c, 3, 89, 0
6, 71970, Note_off_c, 3, 94, 0
6, 71970, Note_on_c, 3, 89, 100
6, 71970, Note_on_c, 3, 94, 100
6, 72000, Note_off_c, 3, 89, 0
6, 72000, Note_off_c, 3, 94, 0
6, 72000, Note_on_c, 3, 89, 100
6, 72000, Note_on_c, 3, 94, 100
6, 72030, Note_off_c, 3, 89, 0
6, 72030, Note_off_c, 3, 94, 0
6, 72030, Note_on_c, 3, 89, 100
6, 72030, Note_on_c, 3, 94, 100
6, 72060, Note_off_c, 3, 89, 0
6, 72060, Note_off_c, 3, 94, 0
6, 72060, Note_on_c, 3, 89, 100
6, 72060, Note_on_c, 3, 94, 100
6, 72090, Note_off_c, 3, 89, 0
6, 72090, Note_off_c, 3, 94, 0
6, 72090, Note_on_c, 3, 89, 100
6, 72090, Note_on_c, 3, 94, 100
6, 72120, Note_off_c, 3, 89, 0
6, 72120, Note_off_c, 3, 94, 0
6, 72120, Note_on_c, 3, 89, 100
6, 72120, Note_on_c, 3, 94, 100
6, 72150, Note_off_c, 3, 89, 0
6, 72150, Note_off_c, 3, 94, 0
6, 72150, Note_on_c, 3, 89, 100
6, 72150, Note_on_c, 3, 94, 100
6, 72180, Note_off_c, 3, 89, 0
6, 72180, Note_off_c, 3, 94, 0
6, 72180, Note_on_c, 3, 89, 100
6, 72180, Note_on_c, 3, 94, 100
6, 72210, Note_off_c, 3, 89, 0
6, 72210, Note_off_c, 3, 94, 0
6, 72210, Note_on_c, 3, 89, 100
6, 72210, Note_on_c, 3, 94, 100
6, 72240, Note_off_c, 3, 89, 0
6, 72240, Note_off_c, 3, 94, 0
6, 72240, Note_on_c, 3, 89, 100
6, 72240, Note_on_c, 3, 94, 100
6, 72270, Note_off_c, 3, 89, 0
6, 72270, Note_off_c, 3, 94, 0
6, 72270, Note_on_c, 3, 89, 100
6, 72270, Note_on_c, 3, 94, 100
6, 72300, Note_off_c, 3, 89, 0
6, 72300, Note_off_c, 3, 94, 0
6, 72300, Note_on_c, 3, 89, 100
6, 72300, Note_on_c, 3, 94, 100
6, 72330, Note_off_c, 3, 89, 0
6, 72330, Note_off_c, 3, 94, 0
6, 72330, Note_on_c, 3, 89, 100
6, 72330, Note_on_c, 3, 94, 100
6, 72360, Note_off_c, 3, 89, 0
6, 72360, Note_off_c, 3, 94, 0
6, 72360, Note_on_c, 3, 89, 100
6, 72360, Note_on_c, 3, 94, 100
6, 72390, Note_off_c, 3, 89, 0
6, 72390, Note_off_c, 3, 94, 0
6, 72390, Note_on_c, 3, 89, 100
6, 72390, Note_on_c, 3, 94, 100
6, 72420, Note_off_c, 3, 89, 0
6, 72420, Note_off_c, 3, 94, 0
6, 72420, Note_on_c, 3, 89, 100
6, 72420, Note_on_c, 3, 94, 100
6, 72450, Note_off_c, 3, 89, 0
6, 72450, Note_off_c, 3, 94, 0
6, 72450, Note_on_c, 3, 89, 100
6, 72450, Note_on_c, 3, 94, 100
6, 72480, Note_off_c, 3, 89, 0
6, 72480, Note_off_c, 3, 94, 0
6, 72480, Note_on_c, 3, 90, 100
6, 72480, Note_on_c, 3, 94, 100
6, 72510, Note_off_c, 3, 90, 0
6, 72510, Note_off_c, 3, 94, 0
6, 72510, Note_on_c, 3, 90, 100
6, 72510, Note_on_c, 3, 94, 100
6, 72540, Note_off_c, 3, 90, 0
6, 72540, Note_off_c, 3, 94, 0
6, 72540, Note_on_c, 3, 90, 100
6, 72540, Note_on_c, 3, 94, 100
6, 72570, Note_off_c, 3, 90, 0
6, 72570, Note_off_c, 3, 94, 0
6, 72570, Note_on_c, 3, 90, 100
6, 72570, Note_on_c, 3, 94, 100
6, 72600, Note_off_c, 3, 90, 0
6, 72600, Note_off_c, 3, 94, 0
6, 72600, Note_on_c, 3, 90, 100
6, 72600, Note_on_c, 3, 94, 100
6, 72630, Note_off_c, 3, 90, 0
6, 72630, Note_off_c, 3, 94, 0
6, 72630, Note_on_c, 3, 90, 100
6, 72630, Note_on_c, 3, 94, 100
6, 72660, Note_off_c, 3, 90, 0
6, 72660, Note_off_c, 3, 94, 0
6, 72660, Note_on_c, 3, 90, 100
6, 72660, Note_on_c, 3, 94, 100
6, 72690, Note_off_c, 3, 90, 0
6, 72690, Note_off_c, 3, 94, 0
6, 72690, Note_on_c, 3, 90, 100
6, 72690, Note_on_c, 3, 94, 100
6, 72720, Note_off_c, 3, 90, 0
6, 72720, Note_off_c, 3, 94, 0
6, 72720, Note_on_c, 3, 90, 100
6, 72720, Note_on_c, 3, 94, 100
6, 72750, Note_off_c, 3, 90, 0
6, 72750, Note_off_c, 3, 94, 0
6, 72750, Note_on_c, 3, 90, 100
6, 72750, Note_on_c, 3, 94, 100
6, 72780, Note_off_c, 3, 90, 0
6, 72780, Note_off_c, 3, 94, 0
6, 72780, Note_on_c, 3, 90, 100
6, 72780, Note_on_c, 3, 94, 100
6, 72810, Note_off_c, 3, 90, 0
6, 72810, Note_off_c, 3, 94, 0
6, 72810, Note_on_c, 3, 90, 100
6, 72810, Note_on_c, 3, 94, 100
6, 72840, Note_off_c, 3, 90, 0
6, 72840, Note_off_c, 3, 94, 0
6, 72840, Note_on_c, 3, 90, 100
6, 72840, Note_on_c, 3, 94, 100
6, 72870, Note_off_c, 3, 90, 0
6, 72870, Note_off_c, 3, 94, 0
6, 72870, Note_on_c, 3, 90, 100
6, 72870, Note_on_c, 3, 94, 100
6, 72900, Note_off_c, 3, 90, 0
6, 72900, Note_off_c, 3, 94, 0
6, 72900, Note_on_c, 3, 90, 100
6, 72900, Note_on_c, 3, 94, 100
6, 72930, Note_off_c, 3, 90, 0
6, 72930, Note_off_c, 3, 94, 0
6, 72930, Note_on_c, 3, 90, 100
6, 72930, Note_on_c, 3, 94, 100
6, 72960, Note_off_c, 3, 90, 0
6, 72960, Note_off_c, 3, 94, 0
6, 72960, Note_on_c, 3, 90, 100
6, 72960, Note_on_c, 3, 94, 100
6, 72990, Note_off_c, 3, 90, 0
6, 72990, Note_off_c, 3, 94, 0
6, 72990, Note_on_c, 3, 90, 100
6, 72990, Note_on_c, 3, 94, 100
6, 73020, Note_off_c, 3, 90, 0
6, 73020, Note_off_c, 3, 94, 0
6, 73020, Note_on_c, 3, 90, 100
6, 73020, Note_on_c, 3, 94, 100
6, 73050, Note_off_c, 3, 90, 0
6, 73050, Note_off_c, 3, 94, 0
6, 73050, Note_on_c, 3, 90, 100
6, 73050, Note_on_c, 3, 94, 100
6, 73080, Note_off_c, 3, 90, 0
6, 73080, Note_off_c, 3, 94, 0
6, 73080, Note_on_c, 3, 90, 100
6, 73080, Note_on_c, 3, 94, 100
6, 73110, Note_off_c, 3, 90, 0
6, 73110, Note_off_c, 3, 94, 0
6, 73110, Note_on_c, 3, 90, 100
6, 73110, Note_on_c, 3, 94, 100
6, 73140, Note_off_c, 3, 90, 0
6, 73140, Note_off_c, 3, 94, 0
6, 73140, Note_on_c, 3, 90, 100
6, 73140, Note_on_c, 3, 94, 100
6, 73170, Note_off_c, 3, 90, 0
6, 73170, Note_off_c, 3, 94, 0
6, 73170, Note_on_c, 3, 90, 100
6, 73170, Note_on_c, 3, 94, 100
6, 73200, Note_off_c, 3, 90, 0
6, 73200, Note_off_c, 3, 94, 0
6, 73200, Note_on_c, 3, 90, 100
6, 73200, Note_on_c, 3, 94, 100
6, 73230, Note_off_c, 3, 90, 0
6, 73230, Note_off_c, 3, 94, 0
6, 73230, Note_on_c, 3, 90, 100
6, 73230, Note_on_c, 3, 94, 100
6, 73260, Note_off_c, 3, 90, 0
6, 73260, Note_off_c, 3, 94, 0
6, 73260, Note_on_c, 3, 90, 100
6, 73260, Note_on_c, 3, 94, 100
6, 73290, Note_off_c, 3, 90, 0
6, 73290, Note_off_c, 3, 94, 0
6, 73290, Note_on_c, 3, 90, 100
6, 73290, Note_on_c, 3, 94, 100
6, 73320, Note_off_c, 3, 90, 0
6, 73320, Note_off_c, 3, 94, 0
6, 73320, Note_on_c, 3, 90, 100
6, 73320, Note_on_c, 3, 94, 100
6, 73350, Note_off_c, 3, 90, 0
6, 73350, Note_off_c, 3, 94, 0
6, 73350, Note_on_c, 3, 90, 100
6, 73350, Note_on_c, 3, 94, 100
6, 73380, Note_off_c, 3, 90, 0
6, 73380, Note_off_c, 3, 94, 0
6, 73380, Note_on_c, 3, 90, 100
6, 73380, Note_on_c, 3, 94, 100
6, 73410, Note_off_c, 3, 90, 0
6, 73410, Note_off_c, 3, 94, 0
6, 73410, Note_on_c, 3, 90, 100
6, 73410, Note_on_c, 3, 94, 100
6, 73440, Note_off_c, 3, 90, 0
6, 73440, Note_off_c, 3, 94, 0
6, 73440, Note_on_c, 3, 90, 100
6, 73440, Note_on_c, 3, 94, 100
6, 73470, Note_off_c, 3, 90, 0
6, 73470, Note_off_c, 3, 94, 0
6, 73470, Note_on_c, 3, 90, 100
6, 73470, Note_on_c, 3, 94, 100
6, 73500, Note_off_c, 3, 90, 0
6, 73500, Note_off_c, 3, 94, 0
6, 73500, Note_on_c, 3, 90, 100
6, 73500, Note_on_c, 3, 94, 100
6, 73530, Note_off_c, 3, 90, 0
6, 73530, Note_off_c, 3, 94, 0
6, 73530, Note_on_c, 3, 90, 100
6, 73530, Note_on_c, 3, 94, 100
6, 73560, Note_off_c, 3, 90, 0
6, 73560, Note_off_c, 3, 94, 0
6, 73560, Note_on_c, 3, 90, 100
6, 73560, Note_on_c, 3, 94, 100
6, 73590, Note_off_c, 3, 90, 0
6, 73590, Note_off_c, 3, 94, 0
6, 73590, Note_on_c, 3, 90, 100
6, 73590, Note_on_c, 3, 94, 100
6, 73620, Note_off_c, 3, 90, 0
6, 73620, Note_off_c, 3, 94, 0
6, 73620, Note_on_c, 3, 90, 100
6, 73620, Note_on_c, 3, 94, 100
6, 73650, Note_off_c, 3, 90, 0
6, 73650, Note_off_c, 3, 94, 0
6, 73650, Note_on_c, 3, 90, 100
6, 73650, Note_on_c, 3, 94, 100
6, 73680, Note_off_c, 3, 90, 0
6, 73680, Note_off_c, 3, 94, 0
6, 73680, Note_on_c, 3, 90, 100
6, 73680, Note_on_c, 3, 94, 100
6, 73710, Note_off_c, 3, 90, 0
6, 73710, Note_off_c, 3, 94, 0
6, 73710, Note_on_c, 3, 90, 100
6, 73710, Note_on_c, 3, 94, 100
6, 73740, Note_off_c, 3, 90, 0
6, 73740, Note_off_c, 3, 94, 0
6, 73740, Note_on_c, 3, 90, 100
6, 73740, Note_on_c, 3, 94, 100
6, 73770, Note_off_c, 3, 90, 0
6, 73770, Note_off_c, 3, 94, 0
6, 73770, Note_on_c, 3, 90, 100
6, 73770, Note_on_c, 3, 94, 100
6, 73800, Note_off_c, 3, 90, 0
6, 73800, Note_off_c, 3, 94, 0
6, 73800, Note_on_c, 3, 90, 100
6, 73800, Note_on_c, 3, 94, 100
6, 73830, Note_off_c, 3, 90, 0
6, 73830, Note_off_c, 3, 94, 0
6, 73830, Note_on_c, 3, 90, 100
6, 73830, Note_on_c, 3, 94, 100
6, 73860, Note_off_c, 3, 90, 0
6, 73860, Note_off_c, 3, 94, 0
6, 73860, Note_on_c, 3, 90, 100
6, 73860, Note_on_c, 3, 94, 100
6, 73890, Note_off_c, 3, 90, 0
6, 73890, Note_off_c, 3, 94, 0
6, 73890, Note_on_c, 3, 90, 100
6, 73890, Note_on_c, 3, 94, 100
6, 73920, Note_off_c, 3, 90, 0
6, 73920, Note_off_c, 3, 94, 0
6, 73920, Note_on_c, 3, 90, 100
6, 73920, Note_on_c, 3, 94, 100
6, 73950, Note_off_c, 3, 90, 0
6, 73950, Note_off_c, 3, 94, 0
6, 73950, Note_on_c, 3, 90, 100
6, 73950, Note_on_c, 3, 94, 100
6, 73980, Note_off_c, 3, 90, 0
6, 73980, Note_off_c, 3, 94, 0
6, 73980, Note_on_c, 3, 90, 100
6, 73980, Note_on_c, 3, 94, 100
6, 74010, Note_off_c, 3, 90, 0
6, 74010, Note_off_c, 3, 94, 0
6, 74010, Note_on_c, 3, 90, 100
6, 74010, Note_on_c, 3, 94, 100
6, 74040, Note_off_c, 3, 90, 0
6, 74040, Note_off_c, 3, 94, 0
6, 74040, Note_on_c, 3, 90, 100
6, 74040, Note_on_c, 3, 94, 100
6, 74070, Note_off_c, 3, 90, 0
6, 74070, Note_off_c, 3, 94, 0
6, 74070, Note_on_c, 3, 90, 100
6, 74070, Note_on_c, 3, 94, 100
6, 74100, Note_off_c, 3, 90, 0
6, 74100, Note_off_c, 3, 94, 0
6, 74100, Note_on_c, 3, 90, 100
6, 74100, Note_on_c, 3, 94, 100
6, 74130, Note_off_c, 3, 90, 0
6, 74130, Note_off_c, 3, 94, 0
6, 74130, Note_on_c, 3, 90, 100
6, 74130, Note_on_c, 3, 94, 100
6, 74160, Note_off_c, 3, 90, 0
6, 74160, Note_off_c, 3, 94, 0
6, 74160, Note_on_c, 3, 90, 100
6, 74160, Note_on_c, 3, 94, 100
6, 74190, Note_off_c, 3, 90, 0
6, 74190, Note_off_c, 3, 94, 0
6, 74190, Note_on_c, 3, 90, 100
6, 74190, Note_on_c, 3, 94, 100
6, 74220, Note_off_c, 3, 90, 0
6, 74220, Note_off_c, 3, 94, 0
6, 74220, Note_on_c, 3, 90, 100
6, 74220, Note_on_c, 3, 94, 100
6, 74250, Note_off_c, 3, 90, 0
6, 74250, Note_off_c, 3, 94, 0
6, 74250, Note_on_c, 3, 90, 100
6, 74250, Note_on_c, 3, 94, 100
6, 74280, Note_off_c, 3, 90, 0
6, 74280, Note_off_c, 3, 94, 0
6, 74280, Note_on_c, 3, 90, 100
6, 74280, Note_on_c, 3, 94, 100
6, 74310, Note_off_c, 3, 90, 0
6, 74310, Note_off_c, 3, 94, 0
6, 74310, Note_on_c, 3, 90, 100
6, 74310, Note_on_c, 3, 94, 100
6, 74340, Note_off_c, 3, 90, 0
6, 74340, Note_off_c, 3, 94, 0
6, 74340, Note_on_c, 3, 90, 100
6, 74340, Note_on_c, 3, 94, 100
6, 74370, Note_off_c, 3, 90, 0
6, 74370, Note_off_c, 3, 94, 0
6, 74370, Note_on_c, 3, 90, 100
6, 74370, Note_on_c, 3, 94, 100
6, 74400, Note_off_c, 3, 90, 0
6, 74400, Note_off_c, 3, 94, 0
6, 74400, Note_on_c, 3, 92, 100
6, 74400, Note_on_c, 3, 96, 100
6, 74430, Note_off_c, 3, 92, 0
6, 74430, Note_off_c, 3, 96, 0
6, 74430, Note_on_c, 3, 92, 100
6, 74430, Note_on_c, 3, 96, 100
6, 74460, Note_off_c, 3, 92, 0
6, 74460, Note_off_c, 3, 96, 0
6, 74460, Note_on_c, 3, 92, 100
6, 74460, Note_on_c, 3, 96, 100
6, 74490, Note_off_c, 3, 92, 0
6, 74490, Note_off_c, 3, 96, 0
6, 74490, Note_on_c, 3, 92, 100
6, 74490, Note_on_c, 3, 96, 100
6, 74520, Note_off_c, 3, 92, 0
6, 74520, Note_off_c, 3, 96, 0
6, 74520, Note_on_c, 3, 92, 100
6, 74520, Note_on_c, 3, 96, 100
6, 74550, Note_off_c, 3, 92, 0
6, 74550, Note_off_c, 3, 96, 0
6, 74550, Note_on_c, 3, 92, 100
6, 74550, Note_on_c, 3, 96, 100
6, 74580, Note_off_c, 3, 92, 0
6, 74580, Note_off_c, 3, 96, 0
6, 74580, Note_on_c, 3, 92, 100
6, 74580, Note_on_c, 3, 96, 100
6, 74610, Note_off_c, 3, 92, 0
6, 74610, Note_off_c, 3, 96, 0
6, 74610, Note_on_c, 3, 92, 100
6, 74610, Note_on_c, 3, 96, 100
6, 74640, Note_off_c, 3, 92, 0
6, 74640, Note_off_c, 3, 96, 0
6, 74640, Note_on_c, 3, 92, 100
6, 74640, Note_on_c, 3, 96, 100
6, 74670, Note_off_c, 3, 92, 0
6, 74670, Note_off_c, 3, 96, 0
6, 74670, Note_on_c, 3, 92, 100
6, 74670, Note_on_c, 3, 96, 100
6, 74700, Note_off_c, 3, 92, 0
6, 74700, Note_off_c, 3, 96, 0
6, 74700, Note_on_c, 3, 92, 100
6, 74700, Note_on_c, 3, 96, 100
6, 74730, Note_off_c, 3, 92, 0
6, 74730, Note_off_c, 3, 96, 0
6, 74730, Note_on_c, 3, 92, 100
6, 74730, Note_on_c, 3, 96, 100
6, 74760, Note_off_c, 3, 92, 0
6, 74760, Note_off_c, 3, 96, 0
6, 74760, Note_on_c, 3, 92, 100
6, 74760, Note_on_c, 3, 96, 100
6, 74790, Note_off_c, 3, 92, 0
6, 74790, Note_off_c, 3, 96, 0
6, 74790, Note_on_c, 3, 92, 100
6, 74790, Note_on_c, 3, 96, 100
6, 74820, Note_off_c, 3, 92, 0
6, 74820, Note_off_c, 3, 96, 0
6, 74820, Note_on_c, 3, 92, 100
6, 74820, Note_on_c, 3, 96, 100
6, 74850, Note_off_c, 3, 92, 0
6, 74850, Note_off_c, 3, 96, 0
6, 74850, Note_on_c, 3, 92, 100
6, 74850, Note_on_c, 3, 96, 100
6, 74880, Note_off_c, 3, 92, 0
6, 74880, Note_off_c, 3, 96, 0
6, 74880, Note_on_c, 3, 92, 100
6, 74880, Note_on_c, 3, 96, 100
6, 74910, Note_off_c, 3, 92, 0
6, 74910, Note_off_c, 3, 96, 0
6, 74910, Note_on_c, 3, 92, 100
6, 74910, Note_on_c, 3, 96, 100
6, 74940, Note_off_c, 3, 92, 0
6, 74940, Note_off_c, 3, 96, 0
6, 74940, Note_on_c, 3, 92, 100
6, 74940, Note_on_c, 3, 96, 100
6, 74970, Note_off_c, 3, 92, 0
6, 74970, Note_off_c, 3, 96, 0
6, 74970, Note_on_c, 3, 92, 100
6, 74970, Note_on_c, 3, 96, 100
6, 75000, Note_off_c, 3, 92, 0
6, 75000, Note_off_c, 3, 96, 0
6, 75000, Note_on_c, 3, 92, 100
6, 75000, Note_on_c, 3, 96, 100
6, 75030, Note_off_c, 3, 92, 0
6, 75030, Note_off_c, 3, 96, 0
6, 75030, Note_on_c, 3, 92, 100
6, 75030, Note_on_c, 3, 96, 100
6, 75060, Note_off_c, 3, 92, 0
6, 75060, Note_off_c, 3, 96, 0
6, 75060, Note_on_c, 3, 92, 100
6, 75060, Note_on_c, 3, 96, 100
6, 75090, Note_off_c, 3, 92, 0
6, 75090, Note_off_c, 3, 96, 0
6, 75090, Note_on_c, 3, 92, 100
6, 75090, Note_on_c, 3, 96, 100
6, 75120, Note_off_c, 3, 92, 0
6, 75120, Note_off_c, 3, 96, 0
6, 75120, Note_on_c, 3, 92, 100
6, 75120, Note_on_c, 3, 96, 100
6, 75150, Note_off_c, 3, 92, 0
6, 75150, Note_off_c, 3, 96, 0
6, 75150, Note_on_c, 3, 92, 100
6, 75150, Note_on_c, 3, 96, 100
6, 75180, Note_off_c, 3, 92, 0
6, 75180, Note_off_c, 3, 96, 0
6, 75180, Note_on_c, 3, 92, 100
6, 75180, Note_on_c, 3, 96, 100
6, 75210, Note_off_c, 3, 92, 0
6, 75210, Note_off_c, 3, 96, 0
6, 75210, Note_on_c, 3, 92, 100
6, 75210, Note_on_c, 3, 96, 100
6, 75240, Note_off_c, 3, 92, 0
6, 75240, Note_off_c, 3, 96, 0
6, 75240, Note_on_c, 3, 92, 100
6, 75240, Note_on_c, 3, 96, 100
6, 75270, Note_off_c, 3, 92, 0
6, 75270, Note_off_c, 3, 96, 0
6, 75270, Note_on_c, 3, 92, 100
6, 75270, Note_on_c, 3, 96, 100
6, 75300, Note_off_c, 3, 92, 0
6, 75300, Note_off_c, 3, 96, 0
6, 75300, Note_on_c, 3, 92, 100
6, 75300, Note_on_c, 3, 96, 100
6, 75330, Note_off_c, 3, 92, 0
6, 75330, Note_off_c, 3, 96, 0
6, 75330, Note_on_c, 3, 92, 100
6, 75330, Note_on_c, 3, 96, 100
6, 75360, Note_off_c, 3, 92, 0
6, 75360, Note_off_c, 3, 96, 0
6, 75360, Note_on_c, 3, 90, 100
6, 75360, Note_on_c, 3, 94, 100
6, 75390, Note_off_c, 3, 90, 0
6, 75390, Note_off_c, 3, 94, 0
6, 75390, Note_on_c, 3, 90, 100
6, 75390, Note_on_c, 3, 94, 100
6, 75420, Note_off_c, 3, 90, 0
6, 75420, Note_off_c, 3, 94, 0
6, 75420, Note_on_c, 3, 90, 100
6, 75420, Note_on_c, 3, 94, 100
6, 75450, Note_off_c, 3, 90, 0
6, 75450, Note_off_c, 3, 94, 0
6, 75450, Note_on_c, 3, 90, 100
6, 75450, Note_on_c, 3, 94, 100
6, 75480, Note_off_c, 3, 90, 0
6, 75480, Note_off_c, 3, 94, 0
6, 75480, Note_on_c, 3, 90, 100
6, 75480, Note_on_c, 3, 94, 100
6, 75510, Note_off_c, 3, 90, 0
6, 75510, Note_off_c, 3, 94, 0
6, 75510, Note_on_c, 3, 90, 100
6, 75510, Note_on_c, 3, 94, 100
6, 75540, Note_off_c, 3, 90, 0
6, 75540, Note_off_c, 3, 94, 0
6, 75540, Note_on_c, 3, 90, 100
6, 75540, Note_on_c, 3, 94, 100
6, 75570, Note_off_c, 3, 90, 0
6, 75570, Note_off_c, 3, 94, 0
6, 75570, Note_on_c, 3, 90, 100
6, 75570, Note_on_c, 3, 94, 100
6, 75600, Note_off_c, 3, 90, 0
6, 75600, Note_off_c, 3, 94, 0
6, 75600, Note_on_c, 3, 90, 100
6, 75600, Note_on_c, 3, 94, 100
6, 75630, Note_off_c, 3, 90, 0
6, 75630, Note_off_c, 3, 94, 0
6, 75630, Note_on_c, 3, 90, 100
6, 75630, Note_on_c, 3, 94, 100
6, 75660, Note_off_c, 3, 90, 0
6, 75660, Note_off_c, 3, 94, 0
6, 75660, Note_on_c, 3, 90, 100
6, 75660, Note_on_c, 3, 94, 100
6, 75690, Note_off_c, 3, 90, 0
6, 75690, Note_off_c, 3, 94, 0
6, 75690, Note_on_c, 3, 90, 100
6, 75690, Note_on_c, 3, 94, 100
6, 75720, Note_off_c, 3, 90, 0
6, 75720, Note_off_c, 3, 94, 0
6, 75720, Note_on_c, 3, 90, 100
6, 75720, Note_on_c, 3, 94, 100
6, 75750, Note_off_c, 3, 90, 0
6, 75750, Note_off_c, 3, 94, 0
6, 75750, Note_on_c, 3, 90, 100
6, 75750, Note_on_c, 3, 94, 100
6, 75780, Note_off_c, 3, 90, 0
6, 75780, Note_off_c, 3, 94, 0
6, 75780, Note_on_c, 3, 90, 100
6, 75780, Note_on_c, 3, 94, 100
6, 75810, Note_off_c, 3, 90, 0
6, 75810, Note_off_c, 3, 94, 0
6, 75810, Note_on_c, 3, 90, 100
6, 75810, Note_on_c, 3, 94, 100
6, 75840, Note_off_c, 3, 90, 0
6, 75840, Note_off_c, 3, 94, 0
6, 75840, Note_on_c, 3, 90, 100
6, 75840, Note_on_c, 3, 94, 100
6, 75870, Note_off_c, 3, 90, 0
6, 75870, Note_off_c, 3, 94, 0
6, 75870, Note_on_c, 3, 90, 100
6, 75870, Note_on_c, 3, 94, 100
6, 75900, Note_off_c, 3, 90, 0
6, 75900, Note_off_c, 3, 94, 0
6, 75900, Note_on_c, 3, 90, 100
6, 75900, Note_on_c, 3, 94, 100
6, 75930, Note_off_c, 3, 90, 0
6, 75930, Note_off_c, 3, 94, 0
6, 75930, Note_on_c, 3, 90, 100
6, 75930, Note_on_c, 3, 94, 100
6, 75960, Note_off_c, 3, 90, 0
6, 75960, Note_off_c, 3, 94, 0
6, 75960, Note_on_c, 3, 90, 100
6, 75960, Note_on_c, 3, 94, 100
6, 75990, Note_off_c, 3, 90, 0
6, 75990, Note_off_c, 3, 94, 0
6, 75990, Note_on_c, 3, 90, 100
6, 75990, Note_on_c, 3, 94, 100
6, 76020, Note_off_c, 3, 90, 0
6, 76020, Note_off_c, 3, 94, 0
6, 76020, Note_on_c, 3, 90, 100
6, 76020, Note_on_c, 3, 94, 100
6, 76050, Note_off_c, 3, 90, 0
6, 76050, Note_off_c, 3, 94, 0
6, 76050, Note_on_c, 3, 90, 100
6, 76050, Note_on_c, 3, 94, 100
6, 76080, Note_off_c, 3, 90, 0
6, 76080, Note_off_c, 3, 94, 0
6, 76080, Note_on_c, 3, 90, 100
6, 76080, Note_on_c, 3, 94, 100
6, 76110, Note_off_c, 3, 90, 0
6, 76110, Note_off_c, 3, 94, 0
6, 76110, Note_on_c, 3, 90, 100
6, 76110, Note_on_c, 3, 94, 100
6, 76140, Note_off_c, 3, 90, 0
6, 76140, Note_off_c, 3, 94, 0
6, 76140, Note_on_c, 3, 90, 100
6, 76140, Note_on_c, 3, 94, 100
6, 76170, Note_off_c, 3, 90, 0
6, 76170, Note_off_c, 3, 94, 0
6, 76170, Note_on_c, 3, 90, 100
6, 76170, Note_on_c, 3, 94, 100
6, 76200, Note_off_c, 3, 90, 0
6, 76200, Note_off_c, 3, 94, 0
6, 76200, Note_on_c, 3, 90, 100
6, 76200, Note_on_c, 3, 94, 100
6, 76230, Note_off_c, 3, 90, 0
6, 76230, Note_off_c, 3, 94, 0
6, 76230, Note_on_c, 3, 90, 100
6, 76230, Note_on_c, 3, 94, 100
6, 76260, Note_off_c, 3, 90, 0
6, 76260, Note_off_c, 3, 94, 0
6, 76260, Note_on_c, 3, 90, 100
6, 76260, Note_on_c, 3, 94, 100
6, 76290, Note_off_c, 3, 90, 0
6, 76290, Note_off_c, 3, 94, 0
6, 76290, Note_on_c, 3, 90, 100
6, 76290, Note_on_c, 3, 94, 100
6, 76320, Note_off_c, 3, 90, 0
6, 76320, Note_off_c, 3, 94, 0
6, 76320, Note_on_c, 3, 89, 100
6, 76320, Note_on_c, 3, 93, 100
6, 76350, Note_off_c, 3, 89, 0
6, 76350, Note_off_c, 3, 93, 0
6, 76350, Note_on_c, 3, 89, 100
6, 76350, Note_on_c, 3, 93, 100
6, 76380, Note_off_c, 3, 89, 0
6, 76380, Note_off_c, 3, 93, 0
6, 76380, Note_on_c, 3, 89, 100
6, 76380, Note_on_c, 3, 93, 100
6, 76410, Note_off_c, 3, 89, 0
6, 76410, Note_off_c, 3, 93, 0
6, 76410, Note_on_c, 3, 89, 100
6, 76410, Note_on_c, 3, 93, 100
6, 76440, Note_off_c, 3, 89, 0
6, 76440, Note_off_c, 3, 93, 0
6, 76440, Note_on_c, 3, 89, 100
6, 76440, Note_on_c, 3, 93, 100
6, 76470, Note_off_c, 3, 89, 0
6, 76470, Note_off_c, 3, 93, 0
6, 76470, Note_on_c, 3, 89, 100
6, 76470, Note_on_c, 3, 93, 100
6, 76500, Note_off_c, 3, 89, 0
6, 76500, Note_off_c, 3, 93, 0
6, 76500, Note_on_c, 3, 89, 100
6, 76500, Note_on_c, 3, 93, 100
6, 76530, Note_off_c, 3, 89, 0
6, 76530, Note_off_c, 3, 93, 0
6, 76530, Note_on_c, 3, 89, 100
6, 76530, Note_on_c, 3, 93, 100
6, 76560, Note_off_c, 3, 89, 0
6, 76560, Note_off_c, 3, 93, 0
6, 76560, Note_on_c, 3, 89, 100
6, 76560, Note_on_c, 3, 93, 100
6, 76590, Note_off_c, 3, 89, 0
6, 76590, Note_off_c, 3, 93, 0
6, 76590, Note_on_c, 3, 89, 100
6, 76590, Note_on_c, 3, 93, 100
6, 76620, Note_off_c, 3, 89, 0
6, 76620, Note_off_c, 3, 93, 0
6, 76620, Note_on_c, 3, 89, 100
6, 76620, Note_on_c, 3, 93, 100
6, 76650, Note_off_c, 3, 89, 0
6, 76650, Note_off_c, 3, 93, 0
6, 76650, Note_on_c, 3, 89, 100
6, 76650, Note_on_c, 3, 93, 100
6, 76680, Note_off_c, 3, 89, 0
6, 76680, Note_off_c, 3, 93, 0
6, 76680, Note_on_c, 3, 89, 100
6, 76680, Note_on_c, 3, 93, 100
6, 76710, Note_off_c, 3, 89, 0
6, 76710, Note_off_c, 3, 93, 0
6, 76710, Note_on_c, 3, 89, 100
6, 76710, Note_on_c, 3, 93, 100
6, 76740, Note_off_c, 3, 89, 0
6, 76740, Note_off_c, 3, 93, 0
6, 76740, Note_on_c, 3, 89, 100
6, 76740, Note_on_c, 3, 93, 100
6, 76770, Note_off_c, 3, 89, 0
6, 76770, Note_off_c, 3, 93, 0
6, 76770, Note_on_c, 3, 89, 100
6, 76770, Note_on_c, 3, 93, 100
6, 76800, Note_off_c, 3, 89, 0
6, 76800, Note_off_c, 3, 93, 0
6, 76800, Note_on_c, 3, 89, 100
6, 76800, Note_on_c, 3, 93, 100
6, 76830, Note_off_c, 3, 89, 0
6, 76830, Note_off_c, 3, 93, 0
6, 76830, Note_on_c, 3, 89, 100
6, 76830, Note_on_c, 3, 93, 100
6, 76860, Note_off_c, 3, 89, 0
6, 76860, Note_off_c, 3, 93, 0
6, 76860, Note_on_c, 3, 89, 100
6, 76860, Note_on_c, 3, 93, 100
6, 76890, Note_off_c, 3, 89, 0
6, 76890, Note_off_c, 3, 93, 0
6, 76890, Note_on_c, 3, 89, 100
6, 76890, Note_on_c, 3, 93, 100
6, 76920, Note_off_c, 3, 89, 0
6, 76920, Note_off_c, 3, 93, 0
6, 76920, Note_on_c, 3, 89, 100
6, 76920, Note_on_c, 3, 93, 100
6, 76950, Note_off_c, 3, 89, 0
6, 76950, Note_off_c, 3, 93, 0
6, 76950, Note_on_c, 3, 89, 100
6, 76950, Note_on_c, 3, 93, 100
6, 76980, Note_off_c, 3, 89, 0
6, 76980, Note_off_c, 3, 93, 0
6, 76980, Note_on_c, 3, 89, 100
6, 76980, Note_on_c, 3, 93, 100
6, 77010, Note_off_c, 3, 89, 0
6, 77010, Note_off_c, 3, 93, 0
6, 77010, Note_on_c, 3, 89, 100
6, 77010, Note_on_c, 3, 93, 100
6, 77040, Note_off_c, 3, 89, 0
6, 77040, Note_off_c, 3, 93, 0
6, 77040, Note_on_c, 3, 89, 100
6, 77040, Note_on_c, 3, 93, 100
6, 77070, Note_off_c, 3, 89, 0
6, 77070, Note_off_c, 3, 93, 0
6, 77070, Note_on_c, 3, 89, 100
6, 77070, Note_on_c, 3, 93, 100
6, 77100, Note_off_c, 3, 89, 0
6, 77100, Note_off_c, 3, 93, 0
6, 77100, Note_on_c, 3, 89, 100
6, 77100, Note_on_c, 3, 93, 100
6, 77130, Note_off_c, 3, 89, 0
6, 77130, Note_off_c, 3, 93, 0
6, 77130, Note_on_c, 3, 89, 100
6, 77130, Note_on_c, 3, 93, 100
6, 77160, Note_off_c, 3, 89, 0
6, 77160, Note_off_c, 3, 93, 0
6, 77160, Note_on_c, 3, 89, 100
6, 77160, Note_on_c, 3, 93, 100
6, 77190, Note_off_c, 3, 89, 0
6, 77190, Note_off_c, 3, 93, 0
6, 77190, Note_on_c, 3, 89, 100
6, 77190, Note_on_c, 3, 93, 100
6, 77220, Note_off_c, 3, 89, 0
6, 77220, Note_off_c, 3, 93, 0
6, 77220, Note_on_c, 3, 89, 100
6, 77220, Note_on_c, 3, 93, 100
6, 77250, Note_off_c, 3, 89, 0
6, 77250, Note_off_c, 3, 93, 0
6, 77250, Note_on_c, 3, 89, 100
6, 77250, Note_on_c, 3, 93, 100
6, 77280, Note_off_c, 3, 89, 0
6, 77280, Note_off_c, 3, 93, 0
6, 77280, Note_on_c, 3, 89, 100
6, 77280, Note_on_c, 3, 93, 100
6, 77310, Note_off_c, 3, 89, 0
6, 77310, Note_off_c, 3, 93, 0
6, 77310, Note_on_c, 3, 89, 100
6, 77310, Note_on_c, 3, 93, 100
6, 77340, Note_off_c, 3, 89, 0
6, 77340, Note_off_c, 3, 93, 0
6, 77340, Note_on_c, 3, 89, 100
6, 77340, Note_on_c, 3, 93, 100
6, 77370, Note_off_c, 3, 89, 0
6, 77370, Note_off_c, 3, 93, 0
6, 77370, Note_on_c, 3, 89, 100
6, 77370, Note_on_c, 3, 93, 100
6, 77400, Note_off_c, 3, 89, 0
6, 77400, Note_off_c, 3, 93, 0
6, 77400, Note_on_c, 3, 89, 100
6, 77400, Note_on_c, 3, 93, 100
6, 77430, Note_off_c, 3, 89, 0
6, 77430, Note_off_c, 3, 93, 0
6, 77430, Note_on_c, 3, 89, 100
6, 77430, Note_on_c, 3, 93, 100
6, 77460, Note_off_c, 3, 89, 0
6, 77460, Note_off_c, 3, 93, 0
6, 77460, Note_on_c, 3, 89, 100
6, 77460, Note_on_c, 3, 93, 100
6, 77490, Note_off_c, 3, 89, 0
6, 77490, Note_off_c, 3, 93, 0
6, 77490, Note_on_c, 3, 89, 100
6, 77490, Note_on_c, 3, 93, 100
6, 77520, Note_off_c, 3, 89, 0
6, 77520, Note_off_c, 3, 93, 0
6, 77520, Note_on_c, 3, 89, 100
6, 77520, Note_on_c, 3, 93, 100
6, 77550, Note_off_c, 3, 89, 0
6, 77550, Note_off_c, 3, 93, 0
6, 77550, Note_on_c, 3, 89, 100
6, 77550, Note_on_c, 3, 93, 100
6, 77580, Note_off_c, 3, 89, 0
6, 77580, Note_off_c, 3, 93, 0
6, 77580, Note_on_c, 3, 89, 100
6, 77580, Note_on_c, 3, 93, 100
6, 77610, Note_off_c, 3, 89, 0
6, 77610, Note_off_c, 3, 93, 0
6, 77610, Note_on_c, 3, 89, 100
6, 77610, Note_on_c, 3, 93, 100
6, 77640, Note_off_c, 3, 89, 0
6, 77640, Note_off_c, 3, 93, 0
6, 77640, Note_on_c, 3, 89, 100
6, 77640, Note_on_c, 3, 93, 100
6, 77670, Note_off_c, 3, 89, 0
6, 77670, Note_off_c, 3, 93, 0
6, 77670, Note_on_c, 3, 89, 100
6, 77670, Note_on_c, 3, 93, 100
6, 77700, Note_off_c, 3, 89, 0
6, 77700, Note_off_c, 3, 93, 0
6, 77700, Note_on_c, 3, 89, 100
6, 77700, Note_on_c, 3, 93, 100
6, 77730, Note_off_c, 3, 89, 0
6, 77730, Note_off_c, 3, 93, 0
6, 77730, Note_on_c, 3, 89, 100
6, 77730, Note_on_c, 3, 93, 100
6, 77760, Note_off_c, 3, 89, 0
6, 77760, Note_off_c, 3, 93, 0
6, 77760, Note_on_c, 3, 89, 100
6, 77760, Note_on_c, 3, 93, 100
6, 77790, Note_off_c, 3, 89, 0
6, 77790, Note_off_c, 3, 93, 0
6, 77790, Note_on_c, 3, 89, 100
6, 77790, Note_on_c, 3, 93, 100
6, 77820, Note_off_c, 3, 89, 0
6, 77820, Note_off_c, 3, 93, 0
6, 77820, Note_on_c, 3, 89, 100
6, 77820, Note_on_c, 3, 93, 100
6, 77850, Note_off_c, 3, 89, 0
6, 77850, Note_off_c, 3, 93, 0
6, 77850, Note_on_c, 3, 89, 100
6, 77850, Note_on_c, 3, 93, 100
6, 77880, Note_off_c, 3, 89, 0
6, 77880, Note_off_c, 3, 93, 0
6, 77880, Note_on_c, 3, 89, 100
6, 77880, Note_on_c, 3, 93, 100
6, 77910, Note_off_c, 3, 89, 0
6, 77910, Note_off_c, 3, 93, 0
6, 77910, Note_on_c, 3, 89, 100
6, 77910, Note_on_c, 3, 93, 100
6, 77940, Note_off_c, 3, 89, 0
6, 77940, Note_off_c, 3, 93, 0
6, 77940, Note_on_c, 3, 89, 100
6, 77940, Note_on_c, 3, 93, 100
6, 77970, Note_off_c, 3, 89, 0
6, 77970, Note_off_c, 3, 93, 0
6, 77970, Note_on_c, 3, 89, 100
6, 77970, Note_on_c, 3, 93, 100
6, 78000, Note_off_c, 3, 89, 0
6, 78000, Note_off_c, 3, 93, 0
6, 78000, Note_on_c, 3, 89, 100
6, 78000, Note_on_c, 3, 93, 100
6, 78030, Note_off_c, 3, 89, 0
6, 78030, Note_off_c, 3, 93, 0
6, 78030, Note_on_c, 3, 89, 100
6, 78030, Note_on_c, 3, 93, 100
6, 78060, Note_off_c, 3, 89, 0
6, 78060, Note_off_c, 3, 93, 0
6, 78060, Note_on_c, 3, 89, 100
6, 78060, Note_on_c, 3, 93, 100
6, 78090, Note_off_c, 3, 89, 0
6, 78090, Note_off_c, 3, 93, 0
6, 78090, Note_on_c, 3, 89, 100
6, 78090, Note_on_c, 3, 93, 100
6, 78120, Note_off_c, 3, 89, 0
6, 78120, Note_off_c, 3, 93, 0
6, 78120, Note_on_c, 3, 89, 100
6, 78120, Note_on_c, 3, 93, 100
6, 78150, Note_off_c, 3, 89, 0
6, 78150, Note_off_c, 3, 93, 0
6, 78150, Note_on_c, 3, 89, 100
6, 78150, Note_on_c, 3, 93, 100
6, 78180, Note_off_c, 3, 89, 0
6, 78180, Note_off_c, 3, 93, 0
6, 78180, Note_on_c, 3, 89, 100
6, 78180, Note_on_c, 3, 93, 100
6, 78210, Note_off_c, 3, 89, 0
6, 78210, Note_off_c, 3, 93, 0
6, 78210, Note_on_c, 3, 89, 100
6, 78210, Note_on_c, 3, 93, 100
6, 78240, Note_off_c, 3, 89, 0
6, 78240, Note_off_c, 3, 93, 0
6, 130080, Note_on_c, 3, 82, 100
6, 130080, Note_on_c, 3, 89, 100
6, 130080, Note_on_c, 3, 94, 100
6, 130080, Note_on_c, 3, 97, 100
6, 131040, Note_off_c, 3, 82, 0
6, 131040, Note_off_c, 3, 89, 0
6, 131040, Note_off_c, 3, 94, 0
6, 131040, Note_off_c, 3, 97, 0
6, 131040, Note_on_c, 3, 82, 100
6, 131040, Note_on_c, 3, 89, 100
6, 131040, Note_on_c, 3, 94, 100
6, 131040, Note_on_c, 3, 97, 100
6, 132000, Note_off_c, 3, 82, 0
6, 132000, Note_off_c, 3, 89, 0
6, 132000, Note_off_c, 3, 94, 0
6, 132000, Note_off_c, 3, 97, 0
6, 132000, Note_on_c, 3, 78, 100
6, 132000, Note_on_c, 3, 85, 100
6, 132000, Note_on_c, 3, 90, 100
6, 132000, Note_on_c, 3, 94, 100
6, 132960, Note_off_c, 3, 78, 0
6, 132960, Note_off_c, 3, 85, 0
6, 132960, Note_off_c, 3, 90, 0
6, 132960, Note_off_c, 3, 94, 0
6, 132960, Note_on_c, 3, 78, 100
6, 132960, Note_on_c, 3, 85, 100
6, 132960, Note_on_c, 3, 90, 100
6, 132960, Note_on_c, 3, 94, 100
6, 133920, Note_off_c, 3, 78, 0
6, 133920, Note_off_c, 3, 85, 0
6, 133920, Note_off_c, 3, 90, 0
6, 133920, Note_off_c, 3, 94, 0
6, 133920, Note_on_c, 3, 80, 100
6, 133920, Note_on_c, 3, 87, 100
6, 133920, Note_on_c, 3, 92, 100
6, 133920, Note_on_c, 3, 96, 100
6, 134880, Note_off_c, 3, 80, 0
6, 134880, Note_off_c, 3, 87, 0
6, 134880, Note_off_c, 3, 92, 0
6, 134880, Note_off_c, 3, 96, 0
6, 134880, Note_on_c, 3, 78, 100
6, 134880, Note_on_c, 3, 85, 100
6, 134880, Note_on_c, 3, 90, 100
6, 134880, Note_on_c, 3, 94, 100
6, 135840, Note_off_c, 3, 78, 0
6, 135840, Note_off_c, 3, 85, 0
6, 135840, Note_off_c, 3, 90, 0
6, 135840, Note_off_c, 3, 94, 0
6, 135840, Note_on_c, 3, 77, 100
6, 135840, Note_on_c, 3, 84, 100
6, 135840, Note_on_c, 3, 89, 100
6, 135840, Note_on_c, 3, 93, 100
6, 136800, Note_off_c, 3, 77, 0
6, 136800, Note_off_c, 3, 84, 0
6, 136800, Note_off_c, 3, 89, 0
6, 136800, Note_off_c, 3, 93, 0
6, 136800, Note_on_c, 3, 77, 100
6, 136800, Note_on_c, 3, 84, 100
6, 136800, Note_on_c, 3, 89, 100
6, 136800, Note_on_c, 3, 93, 100
6, 137760, Note_off_c, 3, 77, 0
6, 137760, Note_off_c, 3, 84, 0
6, 137760, Note_off_c, 3, 89, 0
6, 137760, Note_off_c, 3, 93, 0
6, 137760, Note_on_c, 3, 89, 100
6, 137760, Note_on_c, 3, 94, 100
6, 137760, Note_on_c, 3, 101, 100
6, 137760, Note_on_c, 3, 106, 100
6, 137790, Note_off_c, 3, 89, 0
6, 137790, Note_off_c, 3, 94, 0
6, 137790, Note_off_c, 3, 101, 0
6, 137790, Note_off_c, 3, 106, 0
6, 137790, Note_on_c, 3, 89, 100
6, 137790, Note_on_c, 3, 94, 100
6, 137790, Note_on_c, 3, 101, 100
6, 137790, Note_on_c, 3, 106, 100
6, 137820, Note_off_c, 3, 89, 0
6, 137820, Note_off_c, 3, 94, 0
6, 137820, Note_off_c, 3, 101, 0
6, 137820, Note_off_c, 3, 106, 0
6, 137820, Note_on_c, 3, 89, 100
6, 137820, Note_on_c, 3, 94, 100
6, 137820, Note_on_c, 3, 101, 100
6, 137820, Note_on_c, 3, 106, 100
6, 137850, Note_off_c, 3, 89, 0
6, 137850, Note_off_c, 3, 94, 0
6, 137850, Note_off_c, 3, 101, 0
6, 137850, Note_off_c, 3, 106, 0
6, 137850, Note_on_c, 3, 89, 100
6, 137850, Note_on_c, 3, 94, 100
6, 137850, Note_on_c, 3, 101, 100
6, 137850, Note_on_c, 3, 106, 100
6, 137880, Note_off_c, 3, 89, 0
6, 137880, Note_off_c, 3, 94, 0
6, 137880, Note_off_c, 3, 101, 0
6, 137880, Note_off_c, 3, 106, 0
6, 137880, Note_on_c, 3, 89, 100
6, 137880, Note_on_c, 3, 94, 100
6, 137880, Note_on_c, 3, 101, 100
6, 137880, Note_on_c, 3, 106, 100
6, 137910, Note_off_c, 3, 89, 0
6, 137910, Note_off_c, 3, 94, 0
6, 137910, Note_off_c, 3, 101, 0
6, 137910, Note_off_c, 3, 106, 0
6, 137910, Note_on_c, 3, 89, 100
6, 137910, Note_on_c, 3, 94, 100
6, 137910, Note_on_c, 3, 101, 100
6, 137910, Note_on_c, 3, 106, 100
6, 137940, Note_off_c, 3, 89, 0
6, 137940, Note_off_c, 3, 94, 0
6, 137940, Note_off_c, 3, 101, 0
6, 137940, Note_off_c, 3, 106, 0
6, 137940, Note_on_c, 3, 89, 100
6, 137940, Note_on_c, 3, 94, 100
6, 137940, Note_on_c, 3, 101, 100
6, 137940, Note_on_c, 3, 106, 100
6, 137970, Note_off_c, 3, 89, 0
6, 137970, Note_off_c, 3, 94, 0
6, 137970, Note_off_c, 3, 101, 0
6, 137970, Note_off_c, 3, 106, 0
6, 137970, Note_on_c, 3, 89, 100
6, 137970, Note_on_c, 3, 94, 100
6, 137970, Note_on_c, 3, 101, 100
6, 137970, Note_on_c, 3, 106, 100
6, 138000, Note_off_c, 3, 89, 0
6, 138000, Note_off_c, 3, 94, 0
6, 138000, Note_off_c, 3, 101, 0
6, 138000, Note_off_c, 3, 106, 0
6, 138000, Note_on_c, 3, 89, 100
6, 138000, Note_on_c, 3, 94, 100
6, 138000, Note_on_c, 3, 101, 100
6, 138000, Note_on_c, 3, 106, 100
6, 138030, Note_off_c, 3, 89, 0
6, 138030, Note_off_c, 3, 94, 0
6, 138030, Note_off_c, 3, 101, 0
6, 138030, Note_off_c, 3, 106, 0
6, 138030, Note_on_c, 3, 89, 100
6, 138030, Note_on_c, 3, 94, 100
6, 138030, Note_on_c, 3, 101, 100
6, 138030, Note_on_c, 3, 106, 100
6, 138060, Note_off_c, 3, 89, 0
6, 138060, Note_off_c, 3, 94, 0
6, 138060, Note_off_c, 3, 101, 0
6, 138060, Note_off_c, 3, 106, 0
6, 138060, Note_on_c, 3, 89, 100
6, 138060, Note_on_c, 3, 94, 100
6, 138060, Note_on_c, 3, 101, 100
6, 138060, Note_on_c, 3, 106, 100
6, 138090, Note_off_c, 3, 89, 0
6, 138090, Note_off_c, 3, 94, 0
6, 138090, Note_off_c, 3, 101, 0
6, 138090, Note_off_c, 3, 106, 0
6, 138090, Note_on_c, 3, 89, 100
6, 138090, Note_on_c, 3, 94, 100
6, 138090, Note_on_c, 3, 101, 100
6, 138090, Note_on_c, 3, 106, 100
6, 138120, Note_off_c, 3, 89, 0
6, 138120, Note_off_c, 3, 94, 0
6, 138120, Note_off_c, 3, 101, 0
6, 138120, Note_off_c, 3, 106, 0
6, 138120, Note_on_c, 3, 89, 100
6, 138120, Note_on_c, 3, 94, 100
6, 138120, Note_on_c, 3, 101, 100
6, 138120, Note_on_c, 3, 106, 100
6, 138150, Note_off_c, 3, 89, 0
6, 138150, Note_off_c, 3, 94, 0
6, 138150, Note_off_c, 3, 101, 0
6, 138150, Note_off_c, 3, 106, 0
6, 138150, Note_on_c, 3, 89, 100
6, 138150, Note_on_c, 3, 94, 100
6, 138150, Note_on_c, 3, 101, 100
6, 138150, Note_on_c, 3, 106, 100
6, 138180, Note_off_c, 3, 89, 0
6, 138180, Note_off_c, 3, 94, 0
6, 138180, Note_off_c, 3, 101, 0
6, 138180, Note_off_c, 3, 106, 0
6, 138180, Note_on_c, 3, 89, 100
6, 138180, Note_on_c, 3, 94, 100
6, 138180, Note_on_c, 3, 101, 100
6, 138180, Note_on_c, 3, 106, 100
6, 138210, Note_off_c, 3, 89, 0
6, 138210, Note_off_c, 3, 94, 0
6, 138210, Note_off_c, 3, 101, 0
6, 138210, Note_off_c, 3, 106, 0
6, 138210, Note_on_c, 3, 89, 100
6, 138210, Note_on_c, 3, 94, 100
6, 138210, Note_on_c, 3, 101, 100
6, 138210, Note_on_c, 3, 106, 100
6, 138240, Note_off_c, 3, 89, 0
6, 138240, Note_off_c, 3, 94, 0
6, 138240, Note_off_c, 3, 101, 0
6, 138240, Note_off_c, 3, 106, 0
6, 138240, Note_on_c, 3, 89, 100
6, 138240, Note_on_c, 3, 94, 100
6, 138240, Note_on_c, 3, 101, 100
6, 138240, Note_on_c, 3, 106, 100
6, 138270, Note_off_c, 3, 89, 0
6, 138270, Note_off_c, 3, 94, 0
6, 138270, Note_off_c, 3, 101, 0
6, 138270, Note_off_c, 3, 106, 0
6, 138270, Note_on_c, 3, 89, 100
6, 138270, Note_on_c, 3, 94, 100
6, 138270, Note_on_c, 3, 101, 100
6, 138270, Note_on_c, 3, 106, 100
6, 138300, Note_off_c, 3, 89, 0
6, 138300, Note_off_c, 3, 94, 0
6, 138300, Note_off_c, 3, 101, 0
6, 138300, Note_off_c, 3, 106, 0
6, 138300, Note_on_c, 3, 89, 100
6, 138300, Note_on_c, 3, 94, 100
6, 138300, Note_on_c, 3, 101, 100
6, 138300, Note_on_c, 3, 106, 100
6, 138330, Note_off_c, 3, 89, 0
6, 138330, Note_off_c, 3, 94, 0
6, 138330, Note_off_c, 3, 101, 0
6, 138330, Note_off_c, 3, 106, 0
6, 138330, Note_on_c, 3, 89, 100
6, 138330, Note_on_c, 3, 94, 100
6, 138330, Note_on_c, 3, 101, 100
6, 138330, Note_on_c, 3, 106, 100
6, 138360, Note_off_c, 3, 89, 0
6, 138360, Note_off_c, 3, 94, 0
6, 138360, Note_off_c, 3, 101, 0
6, 138360, Note_off_c, 3, 106, 0
6, 138360, Note_on_c, 3, 89, 100
6, 138360, Note_on_c, 3, 94, 100
6, 138360, Note_on_c, 3, 101, 100
6, 138360, Note_on_c, 3, 106, 100
6, 138390, Note_off_c, 3, 89, 0
6, 138390, Note_off_c, 3, 94, 0
6, 138390, Note_off_c, 3, 101, 0
6, 138390, Note_off_c, 3, 106, 0
6, 138390, Note_on_c, 3, 89, 100
6, 138390, Note_on_c, 3, 94, 100
6, 138390, Note_on_c, 3, 101, 100
6, 138390, Note_on_c, 3, 106, 100
6, 138420, Note_off_c, 3, 89, 0
6, 138420, Note_off_c, 3, 94, 0
6, 138420, Note_off_c, 3, 101, 0
6, 138420, Note_off_c, 3, 106, 0
6, 138420, Note_on_c, 3, 89, 100
6, 138420, Note_on_c, 3, 94, 100
6, 138420, Note_on_c, 3, 101, 100
6, 138420, Note_on_c, 3, 106, 100
6, 138450, Note_off_c, 3, 89, 0
6, 138450, Note_off_c, 3, 94, 0
6, 138450, Note_off_c, 3, 101, 0
6, 138450, Note_off_c, 3, 106, 0
6, 138450, Note_on_c, 3, 89, 100
6, 138450, Note_on_c, 3, 94, 100
6, 138450, Note_on_c, 3, 101, 100
6, 138450, Note_on_c, 3, 106, 100
6, 138480, Note_off_c, 3, 89, 0
6, 138480, Note_off_c, 3, 94, 0
6, 138480, Note_off_c, 3, 101, 0
6, 138480, Note_off_c, 3, 106, 0
6, 138480, Note_on_c, 3, 89, 100
6, 138480, Note_on_c, 3, 94, 100
6, 138480, Note_on_c, 3, 101, 100
6, 138480, Note_on_c, 3, 106, 100
6, 138510, Note_off_c, 3, 89, 0
6, 138510, Note_off_c, 3, 94, 0
6, 138510, Note_off_c, 3, 101, 0
6, 138510, Note_off_c, 3, 106, 0
6, 138510, Note_on_c, 3, 89, 100
6, 138510, Note_on_c, 3, 94, 100
6, 138510, Note_on_c, 3, 101, 100
6, 138510, Note_on_c, 3, 106, 100
6, 138540, Note_off_c, 3, 89, 0
6, 138540, Note_off_c, 3, 94, 0
6, 138540, Note_off_c, 3, 101, 0
6, 138540, Note_off_c, 3, 106, 0
6, 138540, Note_on_c, 3, 89, 100
6, 138540, Note_on_c, 3, 94, 100
6, 138540, Note_on_c, 3, 101, 100
6, 138540, Note_on_c, 3, 106, 100
6, 138570, Note_off_c, 3, 89, 0
6, 138570, Note_off_c, 3, 94, 0
6, 138570, Note_off_c, 3, 101, 0
6, 138570, Note_off_c, 3, 106, 0
6, 138570, Note_on_c, 3, 89, 100
6, 138570, Note_on_c, 3, 94, 100
6, 138570, Note_on_c, 3, 101, 100
6, 138570, Note_on_c, 3, 106, 100
6, 138600, Note_off_c, 3, 89, 0
6, 138600, Note_off_c, 3, 94, 0
6, 138600, Note_off_c, 3, 101, 0
6, 138600, Note_off_c, 3, 106, 0
6, 138600, Note_on_c, 3, 89, 100
6, 138600, Note_on_c, 3, 94, 100
6, 138600, Note_on_c, 3, 101, 100
6, 138600, Note_on_c, 3, 106, 100
6, 138630, Note_off_c, 3, 89, 0
6, 138630, Note_off_c, 3, 94, 0
6, 138630, Note_off_c, 3, 101, 0
6, 138630, Note_off_c, 3, 106, 0
6, 138630, Note_on_c, 3, 89, 100
6, 138630, Note_on_c, 3, 94, 100
6, 138630, Note_on_c, 3, 101, 100
6, 138630, Note_on_c, 3, 106, 100
6, 138660, Note_off_c, 3, 89, 0
6, 138660, Note_off_c, 3, 94, 0
6, 138660, Note_off_c, 3, 101, 0
6, 138660, Note_off_c, 3, 106, 0
6, 138660, Note_on_c, 3, 89, 100
6, 138660, Note_on_c, 3, 94, 100
6, 138660, Note_on_c, 3, 101, 100
6, 138660, Note_on_c, 3, 106, 100
6, 138690, Note_off_c, 3, 89, 0
6, 138690, Note_off_c, 3, 94, 0
6, 138690, Note_off_c, 3, 101, 0
6, 138690, Note_off_c, 3, 106, 0
6, 138690, Note_on_c, 3, 89, 100
6, 138690, Note_on_c, 3, 94, 100
6, 138690, Note_on_c, 3, 101, 100
6, 138690, Note_on_c, 3, 106, 100
6, 138720, Note_off_c, 3, 89, 0
6, 138720, Note_off_c, 3, 94, 0
6, 138720, Note_off_c, 3, 101, 0
6, 138720, Note_off_c, 3, 106, 0
6, 138720, Note_on_c, 3, 89, 100
6, 138720, Note_on_c, 3, 94, 100
6, 138720, Note_on_c, 3, 101, 100
6, 138720, Note_on_c, 3, 106, 100
6, 138750, Note_off_c, 3, 89, 0
6, 138750, Note_off_c, 3, 94, 0
6, 138750, Note_off_c, 3, 101, 0
6, 138750, Note_off_c, 3, 106, 0
6, 138750, Note_on_c, 3, 89, 100
6, 138750, Note_on_c, 3, 94, 100
6, 138750, Note_on_c, 3, 101, 100
6, 138750, Note_on_c, 3, 106, 100
6, 138780, Note_off_c, 3, 89, 0
6, 138780, Note_off_c, 3, 94, 0
6, 138780, Note_off_c, 3, 101, 0
6, 138780, Note_off_c, 3, 106, 0
6, 138780, Note_on_c, 3, 89, 100
6, 138780, Note_on_c, 3, 94, 100
6, 138780, Note_on_c, 3, 101, 100
6, 138780, Note_on_c, 3, 106, 100
6, 138810, Note_off_c, 3, 89, 0
6, 138810, Note_off_c, 3, 94, 0
6, 138810, Note_off_c, 3, 101, 0
6, 138810, Note_off_c, 3, 106, 0
6, 138810, Note_on_c, 3, 89, 100
6, 138810, Note_on_c, 3, 94, 100
6, 138810, Note_on_c, 3, 101, 100
6, 138810, Note_on_c, 3, 106, 100
6, 138840, Note_off_c, 3, 89, 0
6, 138840, Note_off_c, 3, 94, 0
6, 138840, Note_off_c, 3, 101, 0
6, 138840, Note_off_c, 3, 106, 0
6, 138840, Note_on_c, 3, 89, 100
6, 138840, Note_on_c, 3, 94, 100
6, 138840, Note_on_c, 3, 101, 100
6, 138840, Note_on_c, 3, 106, 100
6, 138870, Note_off_c, 3, 89, 0
6, 138870, Note_off_c, 3, 94, 0
6, 138870, Note_off_c, 3, 101, 0
6, 138870, Note_off_c, 3, 106, 0
6, 138870, Note_on_c, 3, 89, 100
6, 138870, Note_on_c, 3, 94, 100
6, 138870, Note_on_c, 3, 101, 100
6, 138870, Note_on_c, 3, 106, 100
6, 138900, Note_off_c, 3, 89, 0
6, 138900, Note_off_c, 3, 94, 0
6, 138900, Note_off_c, 3, 101, 0
6, 138900, Note_off_c, 3, 106, 0
6, 138900, Note_on_c, 3, 89, 100
6, 138900, Note_on_c, 3, 94, 100
6, 138900, Note_on_c, 3, 101, 100
6, 138900, Note_on_c, 3, 106, 100
6, 138930, Note_off_c, 3, 89, 0
6, 138930, Note_off_c, 3, 94, 0
6, 138930, Note_off_c, 3, 101, 0
6, 138930, Note_off_c, 3, 106, 0
6, 138930, Note_on_c, 3, 89, 100
6, 138930, Note_on_c, 3, 94, 100
6, 138930, Note_on_c, 3, 101, 100
6, 138930, Note_on_c, 3, 106, 100
6, 138960, Note_off_c, 3, 89, 0
6, 138960, Note_off_c, 3, 94, 0
6, 138960, Note_off_c, 3, 101, 0
6, 138960, Note_off_c, 3, 106, 0
6, 138960, Note_on_c, 3, 89, 100
6, 138960, Note_on_c, 3, 94, 100
6, 138960, Note_on_c, 3, 101, 100
6, 138960, Note_on_c, 3, 106, 100
6, 138990, Note_off_c, 3, 89, 0
6, 138990, Note_off_c, 3, 94, 0
6, 138990, Note_off_c, 3, 101, 0
6, 138990, Note_off_c, 3, 106, 0
6, 138990, Note_on_c, 3, 89, 100
6, 138990, Note_on_c, 3, 94, 100
6, 138990, Note_on_c, 3, 101, 100
6, 138990, Note_on_c, 3, 106, 100
6, 139020, Note_off_c, 3, 89, 0
6, 139020, Note_off_c, 3, 94, 0
6, 139020, Note_off_c, 3, 101, 0
6, 139020, Note_off_c, 3, 106, 0
6, 139020, Note_on_c, 3, 89, 100
6, 139020, Note_on_c, 3, 94, 100
6, 139020, Note_on_c, 3, 101, 100
6, 139020, Note_on_c, 3, 106, 100
6, 139050, Note_off_c, 3, 89, 0
6, 139050, Note_off_c, 3, 94, 0
6, 139050, Note_off_c, 3, 101, 0
6, 139050, Note_off_c, 3, 106, 0
6, 139050, Note_on_c, 3, 89, 100
6, 139050, Note_on_c, 3, 94, 100
6, 139050, Note_on_c, 3, 101, 100
6, 139050, Note_on_c, 3, 106, 100
6, 139080, Note_off_c, 3, 89, 0
6, 139080, Note_off_c, 3, 94, 0
6, 139080, Note_off_c, 3, 101, 0
6, 139080, Note_off_c, 3, 106, 0
6, 139080, Note_on_c, 3, 89, 100
6, 139080, Note_on_c, 3, 94, 100
6, 139080, Note_on_c, 3, 101, 100
6, 139080, Note_on_c, 3, 106, 100
6, 139110, Note_off_c, 3, 89, 0
6, 139110, Note_off_c, 3, 94, 0
6, 139110, Note_off_c, 3, 101, 0
6, 139110, Note_off_c, 3, 106, 0
6, 139110, Note_on_c, 3, 89, 100
6, 139110, Note_on_c, 3, 94, 100
6, 139110, Note_on_c, 3, 101, 100
6, 139110, Note_on_c, 3, 106, 100
6, 139140, Note_off_c, 3, 89, 0
6, 139140, Note_off_c, 3, 94, 0
6, 139140, Note_off_c, 3, 101, 0
6, 139140, Note_off_c, 3, 106, 0
6, 139140, Note_on_c, 3, 89, 100
6, 139140, Note_on_c, 3, 94, 100
6, 139140, Note_on_c, 3, 101, 100
6, 139140, Note_on_c, 3, 106, 100
6, 139170, Note_off_c, 3, 89, 0
6, 139170, Note_off_c, 3, 94, 0
6, 139170, Note_off_c, 3, 101, 0
6, 139170, Note_off_c, 3, 106, 0
6, 139170, Note_on_c, 3, 89, 100
6, 139170, Note_on_c, 3, 94, 100
6, 139170, Note_on_c, 3, 101, 100
6, 139170, Note_on_c, 3, 106, 100
6, 139200, Note_off_c, 3, 89, 0
6, 139200, Note_off_c, 3, 94, 0
6, 139200, Note_off_c, 3, 101, 0
6, 139200, Note_off_c, 3, 106, 0
6, 139200, Note_on_c, 3, 89, 100
6, 139200, Note_on_c, 3, 94, 100
6, 139200, Note_on_c, 3, 101, 100
6, 139200, Note_on_c, 3, 106, 100
6, 139230, Note_off_c, 3, 89, 0
6, 139230, Note_off_c, 3, 94, 0
6, 139230, Note_off_c, 3, 101, 0
6, 139230, Note_off_c, 3, 106, 0
6, 139230, Note_on_c, 3, 89, 100
6, 139230, Note_on_c, 3, 94, 100
6, 139230, Note_on_c, 3, 101, 100
6, 139230, Note_on_c, 3, 106, 100
6, 139260, Note_off_c, 3, 89, 0
6, 139260, Note_off_c, 3, 94, 0
6, 139260, Note_off_c, 3, 101, 0
6, 139260, Note_off_c, 3, 106, 0
6, 139260, Note_on_c, 3, 89, 100
6, 139260, Note_on_c, 3, 94, 100
6, 139260, Note_on_c, 3, 101, 100
6, 139260, Note_on_c, 3, 106, 100
6, 139290, Note_off_c, 3, 89, 0
6, 139290, Note_off_c, 3, 94, 0
6, 139290, Note_off_c, 3, 101, 0
6, 139290, Note_off_c, 3, 106, 0
6, 139290, Note_on_c, 3, 89, 100
6, 139290, Note_on_c, 3, 94, 100
6, 139290, Note_on_c, 3, 101, 100
6, 139290, Note_on_c, 3, 106, 100
6, 139320, Note_off_c, 3, 89, 0
6, 139320, Note_off_c, 3, 94, 0
6, 139320, Note_off_c, 3, 101, 0
6, 139320, Note_off_c, 3, 106, 0
6, 139320, Note_on_c, 3, 89, 100
6, 139320, Note_on_c, 3, 94, 100
6, 139320, Note_on_c, 3, 101, 100
6, 139320, Note_on_c, 3, 106, 100
6, 139350, Note_off_c, 3, 89, 0
6, 139350, Note_off_c, 3, 94, 0
6, 139350, Note_off_c, 3, 101, 0
6, 139350, Note_off_c, 3, 106, 0
6, 139350, Note_on_c, 3, 89, 100
6, 139350, Note_on_c, 3, 94, 100
6, 139350, Note_on_c, 3, 101, 100
6, 139350, Note_on_c, 3, 106, 100
6, 139380, Note_off_c, 3, 89, 0
6, 139380, Note_off_c, 3, 94, 0
6, 139380, Note_off_c, 3, 101, 0
6, 139380, Note_off_c, 3, 106, 0
6, 139380, Note_on_c, 3, 89, 100
6, 139380, Note_on_c, 3, 94, 100
6, 139380, Note_on_c, 3, 101, 100
6, 139380, Note_on_c, 3, 106, 100
6, 139410, Note_off_c, 3, 89, 0
6, 139410, Note_off_c, 3, 94, 0
6, 139410, Note_off_c, 3, 101, 0
6, 139410, Note_off_c, 3, 106, 0
6, 139410, Note_on_c, 3, 89, 100
6, 139410, Note_on_c, 3, 94, 100
6, 139410, Note_on_c, 3, 101, 100
6, 139410, Note_on_c, 3, 106, 100
6, 139440, Note_off_c, 3, 89, 0
6, 139440, Note_off_c, 3, 94, 0
6, 139440, Note_off_c, 3, 101, 0
6, 139440, Note_off_c, 3, 106, 0
6, 139440, Note_on_c, 3, 89, 100
6, 139440, Note_on_c, 3, 94, 100
6, 139440, Note_on_c, 3, 101, 100
6, 139440, Note_on_c, 3, 106, 100
6, 139470, Note_off_c, 3, 89, 0
6, 139470, Note_off_c, 3, 94, 0
6, 139470, Note_off_c, 3, 101, 0
6, 139470, Note_off_c, 3, 106, 0
6, 139470, Note_on_c, 3, 89, 100
6, 139470, Note_on_c, 3, 94, 100
6, 139470, Note_on_c, 3, 101, 100
6, 139470, Note_on_c, 3, 106, 100
6, 139500, Note_off_c, 3, 89, 0
6, 139500, Note_off_c, 3, 94, 0
6, 139500, Note_off_c, 3, 101, 0
6, 139500, Note_off_c, 3, 106, 0
6, 139500, Note_on_c, 3, 89, 100
6, 139500, Note_on_c, 3, 94, 100
6, 139500, Note_on_c, 3, 101, 100
6, 139500, Note_on_c, 3, 106, 100
6, 139530, Note_off_c, 3, 89, 0
6, 139530, Note_off_c, 3, 94, 0
6, 139530, Note_off_c, 3, 101, 0
6, 139530, Note_off_c, 3, 106, 0
6, 139530, Note_on_c, 3, 89, 100
6, 139530, Note_on_c, 3, 94, 100
6, 139530, Note_on_c, 3, 101, 100
6, 139530, Note_on_c, 3, 106, 100
6, 139560, Note_off_c, 3, 89, 0
6, 139560, Note_off_c, 3, 94, 0
6, 139560, Note_off_c, 3, 101, 0
6, 139560, Note_off_c, 3, 106, 0
6, 139560, Note_on_c, 3, 89, 100
6, 139560, Note_on_c, 3, 94, 100
6, 139560, Note_on_c, 3, 101, 100
6, 139560, Note_on_c, 3, 106, 100
6, 139590, Note_off_c, 3, 89, 0
6, 139590, Note_off_c, 3, 94, 0
6, 139590, Note_off_c, 3, 101, 0
6, 139590, Note_off_c, 3, 106, 0
6, 139590, Note_on_c, 3, 89, 100
6, 139590, Note_on_c, 3, 94, 100
6, 139590, Note_on_c, 3, 101, 100
6, 139590, Note_on_c, 3, 106, 100
6, 139620, Note_off_c, 3, 89, 0
6, 139620, Note_off_c, 3, 94, 0
6, 139620, Note_off_c, 3, 101, 0
6, 139620, Note_off_c, 3, 106, 0
6, 139620, Note_on_c, 3, 89, 100
6, 139620, Note_on_c, 3, 94, 100
6, 139620, Note_on_c, 3, 101, 100
6, 139620, Note_on_c, 3, 106, 100
6, 139650, Note_off_c, 3, 89, 0
6, 139650, Note_off_c, 3, 94, 0
6, 139650, Note_off_c, 3, 101, 0
6, 139650, Note_off_c, 3, 106, 0
6, 139650, Note_on_c, 3, 89, 100
6, 139650, Note_on_c, 3, 94, 100
6, 139650, Note_on_c, 3, 101, 100
6, 139650, Note_on_c, 3, 106, 100
6, 139680, Note_off_c, 3, 89, 0
6, 139680, Note_off_c, 3, 94, 0
6, 139680, Note_off_c, 3, 101, 0
6, 139680, Note_off_c, 3, 106, 0
6, 139680, Note_on_c, 3, 90, 100
6, 139680, Note_on_c, 3, 94, 100
6, 139680, Note_on_c, 3, 102, 100
6, 139680, Note_on_c, 3, 106, 100
6, 139710, Note_off_c, 3, 90, 0
6, 139710, Note_off_c, 3, 94, 0
6, 139710, Note_off_c, 3, 102, 0
6, 139710, Note_off_c, 3, 106, 0
6, 139710, Note_on_c, 3, 90, 100
6, 139710, Note_on_c, 3, 94, 100
6, 139710, Note_on_c, 3, 102, 100
6, 139710, Note_on_c, 3, 106, 100
6, 139740, Note_off_c, 3, 90, 0
6, 139740, Note_off_c, 3, 94, 0
6, 139740, Note_off_c, 3, 102, 0
6, 139740, Note_off_c, 3, 106, 0
6, 139740, Note_on_c, 3, 90, 100
6, 139740, Note_on_c, 3, 94, 100
6, 139740, Note_on_c, 3, 102, 100
6, 139740, Note_on_c, 3, 106, 100
6, 139770, Note_off_c, 3, 90, 0
6, 139770, Note_off_c, 3, 94, 0
6, 139770, Note_off_c, 3, 102, 0
6, 139770, Note_off_c, 3, 106, 0
6, 139770, Note_on_c, 3, 90, 100
6, 139770, Note_on_c, 3, 94, 100
6, 139770, Note_on_c, 3, 102, 100
6, 139770, Note_on_c, 3, 106, 100
6, 139800, Note_off_c, 3, 90, 0
6, 139800, Note_off_c, 3, 94, 0
6, 139800, Note_off_c, 3, 102, 0
6, 139800, Note_off_c, 3, 106, 0
6, 139800, Note_on_c, 3, 90, 100
6, 139800, Note_on_c, 3, 94, 100
6, 139800, Note_on_c, 3, 102, 100
6, 139800, Note_on_c, 3, 106, 100
6, 139830, Note_off_c, 3, 90, 0
6, 139830, Note_off_c, 3, 94, 0
6, 139830, Note_off_c, 3, 102, 0
6, 139830, Note_off_c, 3, 106, 0
6, 139830, Note_on_c, 3, 90, 100
6, 139830, Note_on_c, 3, 94, 100
6, 139830, Note_on_c, 3, 102, 100
6, 139830, Note_on_c, 3, 106, 100
6, 139860, Note_off_c, 3, 90, 0
6, 139860, Note_off_c, 3, 94, 0
6, 139860, Note_off_c, 3, 102, 0
6, 139860, Note_off_c, 3, 106, 0
6, 139860, Note_on_c, 3, 90, 100
6, 139860, Note_on_c, 3, 94, 100
6, 139860, Note_on_c, 3, 102, 100
6, 139860, Note_on_c, 3, 106, 100
6, 139890, Note_off_c, 3, 90, 0
6, 139890, Note_off_c, 3, 94, 0
6, 139890, Note_off_c, 3, 102, 0
6, 139890, Note_off_c, 3, 106, 0
6, 139890, Note_on_c, 3, 90, 100
6, 139890, Note_on_c, 3, 94, 100
6, 139890, Note_on_c, 3, 102, 100
6, 139890, Note_on_c, 3, 106, 100
6, 139920, Note_off_c, 3, 90, 0
6, 139920, Note_off_c, 3, 94, 0
6, 139920, Note_off_c, 3, 102, 0
6, 139920, Note_off_c, 3, 106, 0
6, 139920, Note_on_c, 3, 90, 100
6, 139920, Note_on_c, 3, 94, 100
6, 139920, Note_on_c, 3, 102, 100
6, 139920, Note_on_c, 3, 106, 100
6, 139950, Note_off_c, 3, 90, 0
6, 139950, Note_off_c, 3, 94, 0
6, 139950, Note_off_c, 3, 102, 0
6, 139950, Note_off_c, 3, 106, 0
6, 139950, Note_on_c, 3, 90, 100
6, 139950, Note_on_c, 3, 94, 100
6, 139950, Note_on_c, 3, 102, 100
6, 139950, Note_on_c, 3, 106, 100
6, 139980, Note_off_c, 3, 90, 0
6, 139980, Note_off_c, 3, 94, 0
6, 139980, Note_off_c, 3, 102, 0
6, 139980, Note_off_c, 3, 106, 0
6, 139980, Note_on_c, 3, 90, 100
6, 139980, Note_on_c, 3, 94, 100
6, 139980, Note_on_c, 3, 102, 100
6, 139980, Note_on_c, 3, 106, 100
6, 140010, Note_off_c, 3, 90, 0
6, 140010, Note_off_c, 3, 94, 0
6, 140010, Note_off_c, 3, 102, 0
6, 140010, Note_off_c, 3, 106, 0
6, 140010, Note_on_c, 3, 90, 100
6, 140010, Note_on_c, 3, 94, 100
6, 140010, Note_on_c, 3, 102, 100
6, 140010, Note_on_c, 3, 106, 100
6, 140040, Note_off_c, 3, 90, 0
6, 140040, Note_off_c, 3, 94, 0
6, 140040, Note_off_c, 3, 102, 0
6, 140040, Note_off_c, 3, 106, 0
6, 140040, Note_on_c, 3, 90, 100
6, 140040, Note_on_c, 3, 94, 100
6, 140040, Note_on_c, 3, 102, 100
6, 140040, Note_on_c, 3, 106, 100
6, 140070, Note_off_c, 3, 90, 0
6, 140070, Note_off_c, 3, 94, 0
6, 140070, Note_off_c, 3, 102, 0
6, 140070, Note_off_c, 3, 106, 0
6, 140070, Note_on_c, 3, 90, 100
6, 140070, Note_on_c, 3, 94, 100
6, 140070, Note_on_c, 3, 102, 100
6, 140070, Note_on_c, 3, 106, 100
6, 140100, Note_off_c, 3, 90, 0
6, 140100, Note_off_c, 3, 94, 0
6, 140100, Note_off_c, 3, 102, 0
6, 140100, Note_off_c, 3, 106, 0
6, 140100, Note_on_c, 3, 90, 100
6, 140100, Note_on_c, 3, 94, 100
6, 140100, Note_on_c, 3, 102, 100
6, 140100, Note_on_c, 3, 106, 100
6, 140130, Note_off_c, 3, 90, 0
6, 140130, Note_off_c, 3, 94, 0
6, 140130, Note_off_c, 3, 102, 0
6, 140130, Note_off_c, 3, 106, 0
6, 140130, Note_on_c, 3, 90, 100
6, 140130, Note_on_c, 3, 94, 100
6, 140130, Note_on_c, 3, 102, 100
6, 140130, Note_on_c, 3, 106, 100
6, 140160, Note_off_c, 3, 90, 0
6, 140160, Note_off_c, 3, 94, 0
6, 140160, Note_off_c, 3, 102, 0
6, 140160, Note_off_c, 3, 106, 0
6, 140160, Note_on_c, 3, 90, 100
6, 140160, Note_on_c, 3, 94, 100
6, 140160, Note_on_c, 3, 102, 100
6, 140160, Note_on_c, 3, 106, 100
6, 140190, Note_off_c, 3, 90, 0
6, 140190, Note_off_c, 3, 94, 0
6, 140190, Note_off_c, 3, 102, 0
6, 140190, Note_off_c, 3, 106, 0
6, 140190, Note_on_c, 3, 90, 100
6, 140190, Note_on_c, 3, 94, 100
6, 140190, Note_on_c, 3, 102, 100
6, 140190, Note_on_c, 3, 106, 100
6, 140220, Note_off_c, 3, 90, 0
6, 140220, Note_off_c, 3, 94, 0
6, 140220, Note_off_c, 3, 102, 0
6, 140220, Note_off_c, 3, 106, 0
6, 140220, Note_on_c, 3, 90, 100
6, 140220, Note_on_c, 3, 94, 100
6, 140220, Note_on_c, 3, 102, 100
6, 140220, Note_on_c, 3, 106, 100
6, 140250, Note_off_c, 3, 90, 0
6, 140250, Note_off_c, 3, 94, 0
6, 140250, Note_off_c, 3, 102, 0
6, 140250, Note_off_c, 3, 106, 0
6, 140250, Note_on_c, 3, 90, 100
6, 140250, Note_on_c, 3, 94, 100
6, 140250, Note_on_c, 3, 102, 100
6, 140250, Note_on_c, 3, 106, 100
6, 140280, Note_off_c, 3, 90, 0
6, 140280, Note_off_c, 3, 94, 0
6, 140280, Note_off_c, 3, 102, 0
6, 140280, Note_off_c, 3, 106, 0
6, 140280, Note_on_c, 3, 90, 100
6, 140280, Note_on_c, 3, 94, 100
6, 140280, Note_on_c, 3, 102, 100
6, 140280, Note_on_c, 3, 106, 100
6, 140310, Note_off_c, 3, 90, 0
6, 140310, Note_off_c, 3, 94, 0
6, 140310, Note_off_c, 3, 102, 0
6, 140310, Note_off_c, 3, 106, 0
6, 140310, Note_on_c, 3, 90, 100
6, 140310, Note_on_c, 3, 94, 100
6, 140310, Note_on_c, 3, 102, 100
6, 140310, Note_on_c, 3, 106, 100
6, 140340, Note_off_c, 3, 90, 0
6, 140340, Note_off_c, 3, 94, 0
6, 140340, Note_off_c, 3, 102, 0
6, 140340, Note_off_c, 3, 106, 0
6, 140340, Note_on_c, 3, 90, 100
6, 140340, Note_on_c, 3, 94, 100
6, 140340, Note_on_c, 3, 102, 100
6, 140340, Note_on_c, 3, 106, 100
6, 140370, Note_off_c, 3, 90, 0
6, 140370, Note_off_c, 3, 94, 0
6, 140370, Note_off_c, 3, 102, 0
6, 140370, Note_off_c, 3, 106, 0
6, 140370, Note_on_c, 3, 90, 100
6, 140370, Note_on_c, 3, 94, 100
6, 140370, Note_on_c, 3, 102, 100
6, 140370, Note_on_c, 3, 106, 100
6, 140400, Note_off_c, 3, 90, 0
6, 140400, Note_off_c, 3, 94, 0
6, 140400, Note_off_c, 3, 102, 0
6, 140400, Note_off_c, 3, 106, 0
6, 140400, Note_on_c, 3, 90, 100
6, 140400, Note_on_c, 3, 94, 100
6, 140400, Note_on_c, 3, 102, 100
6, 140400, Note_on_c, 3, 106, 100
6, 140430, Note_off_c, 3, 90, 0
6, 140430, Note_off_c, 3, 94, 0
6, 140430, Note_off_c, 3, 102, 0
6, 140430, Note_off_c, 3, 106, 0
6, 140430, Note_on_c, 3, 90, 100
6, 140430, Note_on_c, 3, 94, 100
6, 140430, Note_on_c, 3, 102, 100
6, 140430, Note_on_c, 3, 106, 100
6, 140460, Note_off_c, 3, 90, 0
6, 140460, Note_off_c, 3, 94, 0
6, 140460, Note_off_c, 3, 102, 0
6, 140460, Note_off_c, 3, 106, 0
6, 140460, Note_on_c, 3, 90, 100
6, 140460, Note_on_c, 3, 94, 100
6, 140460, Note_on_c, 3, 102, 100
6, 140460, Note_on_c, 3, 106, 100
6, 140490, Note_off_c, 3, 90, 0
6, 140490, Note_off_c, 3, 94, 0
6, 140490, Note_off_c, 3, 102, 0
6, 140490, Note_off_c, 3, 106, 0
6, 140490, Note_on_c, 3, 90, 100
6, 140490, Note_on_c, 3, 94, 100
6, 140490, Note_on_c, 3, 102, 100
6, 140490, Note_on_c, 3, 106, 100
6, 140520, Note_off_c, 3, 90, 0
6, 140520, Note_off_c, 3, 94, 0
6, 140520, Note_off_c, 3, 102, 0
6, 140520, Note_off_c, 3, 106, 0
6, 140520, Note_on_c, 3, 90, 100
6, 140520, Note_on_c, 3, 94, 100
6, 140520, Note_on_c, 3, 102, 100
6, 140520, Note_on_c, 3, 106, 100
6, 140550, Note_off_c, 3, 90, 0
6, 140550, Note_off_c, 3, 94, 0
6, 140550, Note_off_c, 3, 102, 0
6, 140550, Note_off_c, 3, 106, 0
6, 140550, Note_on_c, 3, 90, 100
6, 140550, Note_on_c, 3, 94, 100
6, 140550, Note_on_c, 3, 102, 100
6, 140550, Note_on_c, 3, 106, 100
6, 140580, Note_off_c, 3, 90, 0
6, 140580, Note_off_c, 3, 94, 0
6, 140580, Note_off_c, 3, 102, 0
6, 140580, Note_off_c, 3, 106, 0
6, 140580, Note_on_c, 3, 90, 100
6, 140580, Note_on_c, 3, 94, 100
6, 140580, Note_on_c, 3, 102, 100
6, 140580, Note_on_c, 3, 106, 100
6, 140610, Note_off_c, 3, 90, 0
6, 140610, Note_off_c, 3, 94, 0
6, 140610, Note_off_c, 3, 102, 0
6, 140610, Note_off_c, 3, 106, 0
6, 140610, Note_on_c, 3, 90, 100
6, 140610, Note_on_c, 3, 94, 100
6, 140610, Note_on_c, 3, 102, 100
6, 140610, Note_on_c, 3, 106, 100
6, 140640, Note_off_c, 3, 90, 0
6, 140640, Note_off_c, 3, 94, 0
6, 140640, Note_off_c, 3, 102, 0
6, 140640, Note_off_c, 3, 106, 0
6, 140640, Note_on_c, 3, 90, 100
6, 140640, Note_on_c, 3, 94, 100
6, 140640, Note_on_c, 3, 102, 100
6, 140640, Note_on_c, 3, 106, 100
6, 140670, Note_off_c, 3, 90, 0
6, 140670, Note_off_c, 3, 94, 0
6, 140670, Note_off_c, 3, 102, 0
6, 140670, Note_off_c, 3, 106, 0
6, 140670, Note_on_c, 3, 90, 100
6, 140670, Note_on_c, 3, 94, 100
6, 140670, Note_on_c, 3, 102, 100
6, 140670, Note_on_c, 3, 106, 100
6, 140700, Note_off_c, 3, 90, 0
6, 140700, Note_off_c, 3, 94, 0
6, 140700, Note_off_c, 3, 102, 0
6, 140700, Note_off_c, 3, 106, 0
6, 140700, Note_on_c, 3, 90, 100
6, 140700, Note_on_c, 3, 94, 100
6, 140700, Note_on_c, 3, 102, 100
6, 140700, Note_on_c, 3, 106, 100
6, 140730, Note_off_c, 3, 90, 0
6, 140730, Note_off_c, 3, 94, 0
6, 140730, Note_off_c, 3, 102, 0
6, 140730, Note_off_c, 3, 106, 0
6, 140730, Note_on_c, 3, 90, 100
6, 140730, Note_on_c, 3, 94, 100
6, 140730, Note_on_c, 3, 102, 100
6, 140730, Note_on_c, 3, 106, 100
6, 140760, Note_off_c, 3, 90, 0
6, 140760, Note_off_c, 3, 94, 0
6, 140760, Note_off_c, 3, 102, 0
6, 140760, Note_off_c, 3, 106, 0
6, 140760, Note_on_c, 3, 90, 100
6, 140760, Note_on_c, 3, 94, 100
6, 140760, Note_on_c, 3, 102, 100
6, 140760, Note_on_c, 3, 106, 100
6, 140790, Note_off_c, 3, 90, 0
6, 140790, Note_off_c, 3, 94, 0
6, 140790, Note_off_c, 3, 102, 0
6, 140790, Note_off_c, 3, 106, 0
6, 140790, Note_on_c, 3, 90, 100
6, 140790, Note_on_c, 3, 94, 100
6, 140790, Note_on_c, 3, 102, 100
6, 140790, Note_on_c, 3, 106, 100
6, 140820, Note_off_c, 3, 90, 0
6, 140820, Note_off_c, 3, 94, 0
6, 140820, Note_off_c, 3, 102, 0
6, 140820, Note_off_c, 3, 106, 0
6, 140820, Note_on_c, 3, 90, 100
6, 140820, Note_on_c, 3, 94, 100
6, 140820, Note_on_c, 3, 102, 100
6, 140820, Note_on_c, 3, 106, 100
6, 140850, Note_off_c, 3, 90, 0
6, 140850, Note_off_c, 3, 94, 0
6, 140850, Note_off_c, 3, 102, 0
6, 140850, Note_off_c, 3, 106, 0
6, 140850, Note_on_c, 3, 90, 100
6, 140850, Note_on_c, 3, 94, 100
6, 140850, Note_on_c, 3, 102, 100
6, 140850, Note_on_c, 3, 106, 100
6, 140880, Note_off_c, 3, 90, 0
6, 140880, Note_off_c, 3, 94, 0
6, 140880, Note_off_c, 3, 102, 0
6, 140880, Note_off_c, 3, 106, 0
6, 140880, Note_on_c, 3, 90, 100
6, 140880, Note_on_c, 3, 94, 100
6, 140880, Note_on_c, 3, 102, 100
6, 140880, Note_on_c, 3, 106, 100
6, 140910, Note_off_c, 3, 90, 0
6, 140910, Note_off_c, 3, 94, 0
6, 140910, Note_off_c, 3, 102, 0
6, 140910, Note_off_c, 3, 106, 0
6, 140910, Note_on_c, 3, 90, 100
6, 140910, Note_on_c, 3, 94, 100
6, 140910, Note_on_c, 3, 102, 100
6, 140910, Note_on_c, 3, 106, 100
6, 140940, Note_off_c, 3, 90, 0
6, 140940, Note_off_c, 3, 94, 0
6, 140940, Note_off_c, 3, 102, 0
6, 140940, Note_off_c, 3, 106, 0
6, 140940, Note_on_c, 3, 90, 100
6, 140940, Note_on_c, 3, 94, 100
6, 140940, Note_on_c, 3, 102, 100
6, 140940, Note_on_c, 3, 106, 100
6, 140970, Note_off_c, 3, 90, 0
6, 140970, Note_off_c, 3, 94, 0
6, 140970, Note_off_c, 3, 102, 0
6, 140970, Note_off_c, 3, 106, 0
6, 140970, Note_on_c, 3, 90, 100
6, 140970, Note_on_c, 3, 94, 100
6, 140970, Note_on_c, 3, 102, 100
6, 140970, Note_on_c, 3, 106, 100
6, 141000, Note_off_c, 3, 90, 0
6, 141000, Note_off_c, 3, 94, 0
6, 141000, Note_off_c, 3, 102, 0
6, 141000, Note_off_c, 3, 106, 0
6, 141000, Note_on_c, 3, 90, 100
6, 141000, Note_on_c, 3, 94, 100
6, 141000, Note_on_c, 3, 102, 100
6, 141000, Note_on_c, 3, 106, 100
6, 141030, Note_off_c, 3, 90, 0
6, 141030, Note_off_c, 3, 94, 0
6, 141030, Note_off_c, 3, 102, 0
6, 141030, Note_off_c, 3, 106, 0
6, 141030, Note_on_c, 3, 90, 100
6, 141030, Note_on_c, 3, 94, 100
6, 141030, Note_on_c, 3, 102, 100
6, 141030, Note_on_c, 3, 106, 100
6, 141060, Note_off_c, 3, 90, 0
6, 141060, Note_off_c, 3, 94, 0
6, 141060, Note_off_c, 3, 102, 0
6, 141060, Note_off_c, 3, 106, 0
6, 141060, Note_on_c, 3, 90, 100
6, 141060, Note_on_c, 3, 94, 100
6, 141060, Note_on_c, 3, 102, 100
6, 141060, Note_on_c, 3, 106, 100
6, 141090, Note_off_c, 3, 90, 0
6, 141090, Note_off_c, 3, 94, 0
6, 141090, Note_off_c, 3, 102, 0
6, 141090, Note_off_c, 3, 106, 0
6, 141090, Note_on_c, 3, 90, 100
6, 141090, Note_on_c, 3, 94, 100
6, 141090, Note_on_c, 3, 102, 100
6, 141090, Note_on_c, 3, 106, 100
6, 141120, Note_off_c, 3, 90, 0
6, 141120, Note_off_c, 3, 94, 0
6, 141120, Note_off_c, 3, 102, 0
6, 141120, Note_off_c, 3, 106, 0
6, 141120, Note_on_c, 3, 90, 100
6, 141120, Note_on_c, 3, 94, 100
6, 141120, Note_on_c, 3, 102, 100
6, 141120, Note_on_c, 3, 106, 100
6, 141150, Note_off_c, 3, 90, 0
6, 141150, Note_off_c, 3, 94, 0
6, 141150, Note_off_c, 3, 102, 0
6, 141150, Note_off_c, 3, 106, 0
6, 141150, Note_on_c, 3, 90, 100
6, 141150, Note_on_c, 3, 94, 100
6, 141150, Note_on_c, 3, 102, 100
6, 141150, Note_on_c, 3, 106, 100
6, 141180, Note_off_c, 3, 90, 0
6, 141180, Note_off_c, 3, 94, 0
6, 141180, Note_off_c, 3, 102, 0
6, 141180, Note_off_c, 3, 106, 0
6, 141180, Note_on_c, 3, 90, 100
6, 141180, Note_on_c, 3, 94, 100
6, 141180, Note_on_c, 3, 102, 100
6, 141180, Note_on_c, 3, 106, 100
6, 141210, Note_off_c, 3, 90, 0
6, 141210, Note_off_c, 3, 94, 0
6, 141210, Note_off_c, 3, 102, 0
6, 141210, Note_off_c, 3, 106, 0
6, 141210, Note_on_c, 3, 90, 100
6, 141210, Note_on_c, 3, 94, 100
6, 141210, Note_on_c, 3, 102, 100
6, 141210, Note_on_c, 3, 106, 100
6, 141240, Note_off_c, 3, 90, 0
6, 141240, Note_off_c, 3, 94, 0
6, 141240, Note_off_c, 3, 102, 0
6, 141240, Note_off_c, 3, 106, 0
6, 141240, Note_on_c, 3, 90, 100
6, 141240, Note_on_c, 3, 94, 100
6, 141240, Note_on_c, 3, 102, 100
6, 141240, Note_on_c, 3, 106, 100
6, 141270, Note_off_c, 3, 90, 0
6, 141270, Note_off_c, 3, 94, 0
6, 141270, Note_off_c, 3, 102, 0
6, 141270, Note_off_c, 3, 106, 0
6, 141270, Note_on_c, 3, 90, 100
6, 141270, Note_on_c, 3, 94, 100
6, 141270, Note_on_c, 3, 102, 100
6, 141270, Note_on_c, 3, 106, 100
6, 141300, Note_off_c, 3, 90, 0
6, 141300, Note_off_c, 3, 94, 0
6, 141300, Note_off_c, 3, 102, 0
6, 141300, Note_off_c, 3, 106, 0
6, 141300, Note_on_c, 3, 90, 100
6, 141300, Note_on_c, 3, 94, 100
6, 141300, Note_on_c, 3, 102, 100
6, 141300, Note_on_c, 3, 106, 100
6, 141330, Note_off_c, 3, 90, 0
6, 141330, Note_off_c, 3, 94, 0
6, 141330, Note_off_c, 3, 102, 0
6, 141330, Note_off_c, 3, 106, 0
6, 141330, Note_on_c, 3, 90, 100
6, 141330, Note_on_c, 3, 94, 100
6, 141330, Note_on_c, 3, 102, 100
6, 141330, Note_on_c, 3, 106, 100
6, 141360, Note_off_c, 3, 90, 0
6, 141360, Note_off_c, 3, 94, 0
6, 141360, Note_off_c, 3, 102, 0
6, 141360, Note_off_c, 3, 106, 0
6, 141360, Note_on_c, 3, 90, 100
6, 141360, Note_on_c, 3, 94, 100
6, 141360, Note_on_c, 3, 102, 100
6, 141360, Note_on_c, 3, 106, 100
6, 141390, Note_off_c, 3, 90, 0
6, 141390, Note_off_c, 3, 94, 0
6, 141390, Note_off_c, 3, 102, 0
6, 141390, Note_off_c, 3, 106, 0
6, 141390, Note_on_c, 3, 90, 100
6, 141390, Note_on_c, 3, 94, 100
6, 141390, Note_on_c, 3, 102, 100
6, 141390, Note_on_c, 3, 106, 100
6, 141420, Note_off_c, 3, 90, 0
6, 141420, Note_off_c, 3, 94, 0
6, 141420, Note_off_c, 3, 102, 0
6, 141420, Note_off_c, 3, 106, 0
6, 141420, Note_on_c, 3, 90, 100
6, 141420, Note_on_c, 3, 94, 100
6, 141420, Note_on_c, 3, 102, 100
6, 141420, Note_on_c, 3, 106, 100
6, 141450, Note_off_c, 3, 90, 0
6, 141450, Note_off_c, 3, 94, 0
6, 141450, Note_off_c, 3, 102, 0
6, 141450, Note_off_c, 3, 106, 0
6, 141450, Note_on_c, 3, 90, 100
6, 141450, Note_on_c, 3, 94, 100
6, 141450, Note_on_c, 3, 102, 100
6, 141450, Note_on_c, 3, 106, 100
6, 141480, Note_off_c, 3, 90, 0
6, 141480, Note_off_c, 3, 94, 0
6, 141480, Note_off_c, 3, 102, 0
6, 141480, Note_off_c, 3, 106, 0
6, 141480, Note_on_c, 3, 90, 100
6, 141480, Note_on_c, 3, 94, 100
6, 141480, Note_on_c, 3, 102, 100
6, 141480, Note_on_c, 3, 106, 100
6, 141510, Note_off_c, 3, 90, 0
6, 141510, Note_off_c, 3, 94, 0
6, 141510, Note_off_c, 3, 102, 0
6, 141510, Note_off_c, 3, 106, 0
6, 141510, Note_on_c, 3, 90, 100
6, 141510, Note_on_c, 3, 94, 100
6, 141510, Note_on_c, 3, 102, 100
6, 141510, Note_on_c, 3, 106, 100
6, 141540, Note_off_c, 3, 90, 0
6, 141540, Note_off_c, 3, 94, 0
6, 141540, Note_off_c, 3, 102, 0
6, 141540, Note_off_c, 3, 106, 0
6, 141540, Note_on_c, 3, 90, 100
6, 141540, Note_on_c, 3, 94, 100
6, 141540, Note_on_c, 3, 102, 100
6, 141540, Note_on_c, 3, 106, 100
6, 141570, Note_off_c, 3, 90, 0
6, 141570, Note_off_c, 3, 94, 0
6, 141570, Note_off_c, 3, 102, 0
6, 141570, Note_off_c, 3, 106, 0
6, 141570, Note_on_c, 3, 90, 100
6, 141570, Note_on_c, 3, 94, 100
6, 141570, Note_on_c, 3, 102, 100
6, 141570, Note_on_c, 3, 106, 100
6, 141600, Note_off_c, 3, 90, 0
6, 141600, Note_off_c, 3, 94, 0
6, 141600, Note_off_c, 3, 102, 0
6, 141600, Note_off_c, 3, 106, 0
6, 141600, Note_on_c, 3, 92, 100
6, 141600, Note_on_c, 3, 96, 100
6, 141600, Note_on_c, 3, 104, 100
6, 141600, Note_on_c, 3, 108, 100
6, 141630, Note_off_c, 3, 92, 0
6, 141630, Note_off_c, 3, 96, 0
6, 141630, Note_off_c, 3, 104, 0
6, 141630, Note_off_c, 3, 108, 0
6, 141630, Note_on_c, 3, 92, 100
6, 141630, Note_on_c, 3, 96, 100
6, 141630, Note_on_c, 3, 104, 100
6, 141630, Note_on_c, 3, 108, 100
6, 141660, Note_off_c, 3, 92, 0
6, 141660, Note_off_c, 3, 96, 0
6, 141660, Note_off_c, 3, 104, 0
6, 141660, Note_off_c, 3, 108, 0
6, 141660, Note_on_c, 3, 92, 100
6, 141660, Note_on_c, 3, 96, 100
6, 141660, Note_on_c, 3, 104, 100
6, 141660, Note_on_c, 3, 108, 100
6, 141690, Note_off_c, 3, 92, 0
6, 141690, Note_off_c, 3, 96, 0
6, 141690, Note_off_c, 3, 104, 0
6, 141690, Note_off_c, 3, 108, 0
6, 141690, Note_on_c, 3, 92, 100
6, 141690, Note_on_c, 3, 96, 100
6, 141690, Note_on_c, 3, 104, 100
6, 141690, Note_on_c, 3, 108, 100
6, 141720, Note_off_c, 3, 92, 0
6, 141720, Note_off_c, 3, 96, 0
6, 141720, Note_off_c, 3, 104, 0
6, 141720, Note_off_c, 3, 108, 0
6, 141720, Note_on_c, 3, 92, 100
6, 141720, Note_on_c, 3, 96, 100
6, 141720, Note_on_c, 3, 104, 100
6, 141720, Note_on_c, 3, 108, 100
6, 141750, Note_off_c, 3, 92, 0
6, 141750, Note_off_c, 3, 96, 0
6, 141750, Note_off_c, 3, 104, 0
6, 141750, Note_off_c, 3, 108, 0
6, 141750, Note_on_c, 3, 92, 100
6, 141750, Note_on_c, 3, 96, 100
6, 141750, Note_on_c, 3, 104, 100
6, 141750, Note_on_c, 3, 108, 100
6, 141780, Note_off_c, 3, 92, 0
6, 141780, Note_off_c, 3, 96, 0
6, 141780, Note_off_c, 3, 104, 0
6, 141780, Note_off_c, 3, 108, 0
6, 141780, Note_on_c, 3, 92, 100
6, 141780, Note_on_c, 3, 96, 100
6, 141780, Note_on_c, 3, 104, 100
6, 141780, Note_on_c, 3, 108, 100
6, 141810, Note_off_c, 3, 92, 0
6, 141810, Note_off_c, 3, 96, 0
6, 141810, Note_off_c, 3, 104, 0
6, 141810, Note_off_c, 3, 108, 0
6, 141810, Note_on_c, 3, 92, 100
6, 141810, Note_on_c, 3, 96, 100
6, 141810, Note_on_c, 3, 104, 100
6, 141810, Note_on_c, 3, 108, 100
6, 141840, Note_off_c, 3, 92, 0
6, 141840, Note_off_c, 3, 96, 0
6, 141840, Note_off_c, 3, 104, 0
6, 141840, Note_off_c, 3, 108, 0
6, 141840, Note_on_c, 3, 92, 100
6, 141840, Note_on_c, 3, 96, 100
6, 141840, Note_on_c, 3, 104, 100
6, 141840, Note_on_c, 3, 108, 100
6, 141870, Note_off_c, 3, 92, 0
6, 141870, Note_off_c, 3, 96, 0
6, 141870, Note_off_c, 3, 104, 0
6, 141870, Note_off_c, 3, 108, 0
6, 141870, Note_on_c, 3, 92, 100
6, 141870, Note_on_c, 3, 96, 100
6, 141870, Note_on_c, 3, 104, 100
6, 141870, Note_on_c, 3, 108, 100
6, 141900, Note_off_c, 3, 92, 0
6, 141900, Note_off_c, 3, 96, 0
6, 141900, Note_off_c, 3, 104, 0
6, 141900, Note_off_c, 3, 108, 0
6, 141900, Note_on_c, 3, 92, 100
6, 141900, Note_on_c, 3, 96, 100
6, 141900, Note_on_c, 3, 104, 100
6, 141900, Note_on_c, 3, 108, 100
6, 141930, Note_off_c, 3, 92, 0
6, 141930, Note_off_c, 3, 96, 0
6, 141930, Note_off_c, 3, 104, 0
6, 141930, Note_off_c, 3, 108, 0
6, 141930, Note_on_c, 3, 92, 100
6, 141930, Note_on_c, 3, 96, 100
6, 141930, Note_on_c, 3, 104, 100
6, 141930, Note_on_c, 3, 108, 100
6, 141960, Note_off_c, 3, 92, 0
6, 141960, Note_off_c, 3, 96, 0
6, 141960, Note_off_c, 3, 104, 0
6, 141960, Note_off_c, 3, 108, 0
6, 141960, Note_on_c, 3, 92, 100
6, 141960, Note_on_c, 3, 96, 100
6, 141960, Note_on_c, 3, 104, 100
6, 141960, Note_on_c, 3, 108, 100
6, 141990, Note_off_c, 3, 92, 0
6, 141990, Note_off_c, 3, 96, 0
6, 141990, Note_off_c, 3, 104, 0
6, 141990, Note_off_c, 3, 108, 0
6, 141990, Note_on_c, 3, 92, 100
6, 141990, Note_on_c, 3, 96, 100
6, 141990, Note_on_c, 3, 104, 100
6, 141990, Note_on_c, 3, 108, 100
6, 142020, Note_off_c, 3, 92, 0
6, 142020, Note_off_c, 3, 96, 0
6, 142020, Note_off_c, 3, 104, 0
6, 142020, Note_off_c, 3, 108, 0
6, 142020, Note_on_c, 3, 92, 100
6, 142020, Note_on_c, 3, 96, 100
6, 142020, Note_on_c, 3, 104, 100
6, 142020, Note_on_c, 3, 108, 100
6, 142050, Note_off_c, 3, 92, 0
6, 142050, Note_off_c, 3, 96, 0
6, 142050, Note_off_c, 3, 104, 0
6, 142050, Note_off_c, 3, 108, 0
6, 142050, Note_on_c, 3, 92, 100
6, 142050, Note_on_c, 3, 96, 100
6, 142050, Note_on_c, 3, 104, 100
6, 142050, Note_on_c, 3, 108, 100
6, 142080, Note_off_c, 3, 92, 0
6, 142080, Note_off_c, 3, 96, 0
6, 142080, Note_off_c, 3, 104, 0
6, 142080, Note_off_c, 3, 108, 0
6, 142080, Note_on_c, 3, 92, 100
6, 142080, Note_on_c, 3, 96, 100
6, 142080, Note_on_c, 3, 104, 100
6, 142080, Note_on_c, 3, 108, 100
6, 142110, Note_off_c, 3, 92, 0
6, 142110, Note_off_c, 3, 96, 0
6, 142110, Note_off_c, 3, 104, 0
6, 142110, Note_off_c, 3, 108, 0
6, 142110, Note_on_c, 3, 92, 100
6, 142110, Note_on_c, 3, 96, 100
6, 142110, Note_on_c, 3, 104, 100
6, 142110, Note_on_c, 3, 108, 100
6, 142140, Note_off_c, 3, 92, 0
6, 142140, Note_off_c, 3, 96, 0
6, 142140, Note_off_c, 3, 104, 0
6, 142140, Note_off_c, 3, 108, 0
6, 142140, Note_on_c, 3, 92, 100
6, 142140, Note_on_c, 3, 96, 100
6, 142140, Note_on_c, 3, 104, 100
6, 142140, Note_on_c, 3, 108, 100
6, 142170, Note_off_c, 3, 92, 0
6, 142170, Note_off_c, 3, 96, 0
6, 142170, Note_off_c, 3, 104, 0
6, 142170, Note_off_c, 3, 108, 0
6, 142170, Note_on_c, 3, 92, 100
6, 142170, Note_on_c, 3, 96, 100
6, 142170, Note_on_c, 3, 104, 100
6, 142170, Note_on_c, 3, 108, 100
6, 142200, Note_off_c, 3, 92, 0
6, 142200, Note_off_c, 3, 96, 0
6, 142200, Note_off_c, 3, 104, 0
6, 142200, Note_off_c, 3, 108, 0
6, 142200, Note_on_c, 3, 92, 100
6, 142200, Note_on_c, 3, 96, 100
6, 142200, Note_on_c, 3, 104, 100
6, 142200, Note_on_c, 3, 108, 100
6, 142230, Note_off_c, 3, 92, 0
6, 142230, Note_off_c, 3, 96, 0
6, 142230, Note_off_c, 3, 104, 0
6, 142230, Note_off_c, 3, 108, 0
6, 142230, Note_on_c, 3, 92, 100
6, 142230, Note_on_c, 3, 96, 100
6, 142230, Note_on_c, 3, 104, 100
6, 142230, Note_on_c, 3, 108, 100
6, 142260, Note_off_c, 3, 92, 0
6, 142260, Note_off_c, 3, 96, 0
6, 142260, Note_off_c, 3, 104, 0
6, 142260, Note_off_c, 3, 108, 0
6, 142260, Note_on_c, 3, 92, 100
6, 142260, Note_on_c, 3, 96, 100
6, 142260, Note_on_c, 3, 104, 100
6, 142260, Note_on_c, 3, 108, 100
6, 142290, Note_off_c, 3, 92, 0
6, 142290, Note_off_c, 3, 96, 0
6, 142290, Note_off_c, 3, 104, 0
6, 142290, Note_off_c, 3, 108, 0
6, 142290, Note_on_c, 3, 92, 100
6, 142290, Note_on_c, 3, 96, 100
6, 142290, Note_on_c, 3, 104, 100
6, 142290, Note_on_c, 3, 108, 100
6, 142320, Note_off_c, 3, 92, 0
6, 142320, Note_off_c, 3, 96, 0
6, 142320, Note_off_c, 3, 104, 0
6, 142320, Note_off_c, 3, 108, 0
6, 142320, Note_on_c, 3, 92, 100
6, 142320, Note_on_c, 3, 96, 100
6, 142320, Note_on_c, 3, 104, 100
6, 142320, Note_on_c, 3, 108, 100
6, 142350, Note_off_c, 3, 92, 0
6, 142350, Note_off_c, 3, 96, 0
6, 142350, Note_off_c, 3, 104, 0
6, 142350, Note_off_c, 3, 108, 0
6, 142350, Note_on_c, 3, 92, 100
6, 142350, Note_on_c, 3, 96, 100
6, 142350, Note_on_c, 3, 104, 100
6, 142350, Note_on_c, 3, 108, 100
6, 142380, Note_off_c, 3, 92, 0
6, 142380, Note_off_c, 3, 96, 0
6, 142380, Note_off_c, 3, 104, 0
6, 142380, Note_off_c, 3, 108, 0
6, 142380, Note_on_c, 3, 92, 100
6, 142380, Note_on_c, 3, 96, 100
6, 142380, Note_on_c, 3, 104, 100
6, 142380, Note_on_c, 3, 108, 100
6, 142410, Note_off_c, 3, 92, 0
6, 142410, Note_off_c, 3, 96, 0
6, 142410, Note_off_c, 3, 104, 0
6, 142410, Note_off_c, 3, 108, 0
6, 142410, Note_on_c, 3, 92, 100
6, 142410, Note_on_c, 3, 96, 100
6, 142410, Note_on_c, 3, 104, 100
6, 142410, Note_on_c, 3, 108, 100
6, 142440, Note_off_c, 3, 92, 0
6, 142440, Note_off_c, 3, 96, 0
6, 142440, Note_off_c, 3, 104, 0
6, 142440, Note_off_c, 3, 108, 0
6, 142440, Note_on_c, 3, 92, 100
6, 142440, Note_on_c, 3, 96, 100
6, 142440, Note_on_c, 3, 104, 100
6, 142440, Note_on_c, 3, 108, 100
6, 142470, Note_off_c, 3, 92, 0
6, 142470, Note_off_c, 3, 96, 0
6, 142470, Note_off_c, 3, 104, 0
6, 142470, Note_off_c, 3, 108, 0
6, 142470, Note_on_c, 3, 92, 100
6, 142470, Note_on_c, 3, 96, 100
6, 142470, Note_on_c, 3, 104, 100
6, 142470, Note_on_c, 3, 108, 100
6, 142500, Note_off_c, 3, 92, 0
6, 142500, Note_off_c, 3, 96, 0
6, 142500, Note_off_c, 3, 104, 0
6, 142500, Note_off_c, 3, 108, 0
6, 142500, Note_on_c, 3, 92, 100
6, 142500, Note_on_c, 3, 96, 100
6, 142500, Note_on_c, 3, 104, 100
6, 142500, Note_on_c, 3, 108, 100
6, 142530, Note_off_c, 3, 92, 0
6, 142530, Note_off_c, 3, 96, 0
6, 142530, Note_off_c, 3, 104, 0
6, 142530, Note_off_c, 3, 108, 0
6, 142530, Note_on_c, 3, 92, 100
6, 142530, Note_on_c, 3, 96, 100
6, 142530, Note_on_c, 3, 104, 100
6, 142530, Note_on_c, 3, 108, 100
6, 142560, Note_off_c, 3, 92, 0
6, 142560, Note_off_c, 3, 96, 0
6, 142560, Note_off_c, 3, 104, 0
6, 142560, Note_off_c, 3, 108, 0
6, 142560, Note_on_c, 3, 90, 100
6, 142560, Note_on_c, 3, 94, 100
6, 142560, Note_on_c, 3, 102, 100
6, 142560, Note_on_c, 3, 106, 100
6, 142590, Note_off_c, 3, 90, 0
6, 142590, Note_off_c, 3, 94, 0
6, 142590, Note_off_c, 3, 102, 0
6, 142590, Note_off_c, 3, 106, 0
6, 142590, Note_on_c, 3, 90, 100
6, 142590, Note_on_c, 3, 94, 100
6, 142590, Note_on_c, 3, 102, 100
6, 142590, Note_on_c, 3, 106, 100
6, 142620, Note_off_c, 3, 90, 0
6, 142620, Note_off_c, 3, 94, 0
6, 142620, Note_off_c, 3, 102, 0
6, 142620, Note_off_c, 3, 106, 0
6, 142620, Note_on_c, 3, 90, 100
6, 142620, Note_on_c, 3, 94, 100
6, 142620, Note_on_c, 3, 102, 100
6, 142620, Note_on_c, 3, 106, 100
6, 142650, Note_off_c, 3, 90, 0
6, 142650, Note_off_c, 3, 94, 0
6, 142650, Note_off_c, 3, 102, 0
6, 142650, Note_off_c, 3, 106, 0
6, 142650, Note_on_c, 3, 90, 100
6, 142650, Note_on_c, 3, 94, 100
6, 142650, Note_on_c, 3, 102, 100
6, 142650, Note_on_c, 3, 106, 100
6, 142680, Note_off_c, 3, 90, 0
6, 142680, Note_off_c, 3, 94, 0
6, 142680, Note_off_c, 3, 102, 0
6, 142680, Note_off_c, 3, 106, 0
6, 142680, Note_on_c, 3, 90, 100
6, 142680, Note_on_c, 3, 94, 100
6, 142680, Note_on_c, 3, 102, 100
6, 142680, Note_on_c, 3, 106, 100
6, 142710, Note_off_c, 3, 90, 0
6, 142710, Note_off_c, 3, 94, 0
6, 142710, Note_off_c, 3, 102, 0
6, 142710, Note_off_c, 3, 106, 0
6, 142710, Note_on_c, 3, 90, 100
6, 142710, Note_on_c, 3, 94, 100
6, 142710, Note_on_c, 3, 102, 100
6, 142710, Note_on_c, 3, 106, 100
6, 142740, Note_off_c, 3, 90, 0
6, 142740, Note_off_c, 3, 94, 0
6, 142740, Note_off_c, 3, 102, 0
6, 142740, Note_off_c, 3, 106, 0
6, 142740, Note_on_c, 3, 90, 100
6, 142740, Note_on_c, 3, 94, 100
6, 142740, Note_on_c, 3, 102, 100
6, 142740, Note_on_c, 3, 106, 100
6, 142770, Note_off_c, 3, 90, 0
6, 142770, Note_off_c, 3, 94, 0
6, 142770, Note_off_c, 3, 102, 0
6, 142770, Note_off_c, 3, 106, 0
6, 142770, Note_on_c, 3, 90, 100
6, 142770, Note_on_c, 3, 94, 100
6, 142770, Note_on_c, 3, 102, 100
6, 142770, Note_on_c, 3, 106, 100
6, 142800, Note_off_c, 3, 90, 0
6, 142800, Note_off_c, 3, 94, 0
6, 142800, Note_off_c, 3, 102, 0
6, 142800, Note_off_c, 3, 106, 0
6, 142800, Note_on_c, 3, 90, 100
6, 142800, Note_on_c, 3, 94, 100
6, 142800, Note_on_c, 3, 102, 100
6, 142800, Note_on_c, 3, 106, 100
6, 142830, Note_off_c, 3, 90, 0
6, 142830, Note_off_c, 3, 94, 0
6, 142830, Note_off_c, 3, 102, 0
6, 142830, Note_off_c, 3, 106, 0
6, 142830, Note_on_c, 3, 90, 100
6, 142830, Note_on_c, 3, 94, 100
6, 142830, Note_on_c, 3, 102, 100
6, 142830, Note_on_c, 3, 106, 100
6, 142860, Note_off_c, 3, 90, 0
6, 142860, Note_off_c, 3, 94, 0
6, 142860, Note_off_c, 3, 102, 0
6, 142860, Note_off_c, 3, 106, 0
6, 142860, Note_on_c, 3, 90, 100
6, 142860, Note_on_c, 3, 94, 100
6, 142860, Note_on_c, 3, 102, 100
6, 142860, Note_on_c, 3, 106, 100
6, 142890, Note_off_c, 3, 90, 0
6, 142890, Note_off_c, 3, 94, 0
6, 142890, Note_off_c, 3, 102, 0
6, 142890, Note_off_c, 3, 106, 0
6, 142890, Note_on_c, 3, 90, 100
6, 142890, Note_on_c, 3, 94, 100
6, 142890, Note_on_c, 3, 102, 100
6, 142890, Note_on_c, 3, 106, 100
6, 142920, Note_off_c, 3, 90, 0
6, 142920, Note_off_c, 3, 94, 0
6, 142920, Note_off_c, 3, 102, 0
6, 142920, Note_off_c, 3, 106, 0
6, 142920, Note_on_c, 3, 90, 100
6, 142920, Note_on_c, 3, 94, 100
6, 142920, Note_on_c, 3, 102, 100
6, 142920, Note_on_c, 3, 106, 100
6, 142950, Note_off_c, 3, 90, 0
6, 142950, Note_off_c, 3, 94, 0
6, 142950, Note_off_c, 3, 102, 0
6, 142950, Note_off_c, 3, 106, 0
6, 142950, Note_on_c, 3, 90, 100
6, 142950, Note_on_c, 3, 94, 100
6, 142950, Note_on_c, 3, 102, 100
6, 142950, Note_on_c, 3, 106, 100
6, 142980, Note_off_c, 3, 90, 0
6, 142980, Note_off_c, 3, 94, 0
6, 142980, Note_off_c, 3, 102, 0
6, 142980, Note_off_c, 3, 106, 0
6, 142980, Note_on_c, 3, 90, 100
6, 142980, Note_on_c, 3, 94, 100
6, 142980, Note_on_c, 3, 102, 100
6, 142980, Note_on_c, 3, 106, 100
6, 143010, Note_off_c, 3, 90, 0
6, 143010, Note_off_c, 3, 94, 0
6, 143010, Note_off_c, 3, 102, 0
6, 143010, Note_off_c, 3, 106, 0
6, 143010, Note_on_c, 3, 90, 100
6, 143010, Note_on_c, 3, 94, 100
6, 143010, Note_on_c, 3, 102, 100
6, 143010, Note_on_c, 3, 106, 100
6, 143040, Note_off_c, 3, 90, 0
6, 143040, Note_off_c, 3, 94, 0
6, 143040, Note_off_c, 3, 102, 0
6, 143040, Note_off_c, 3, 106, 0
6, 143040, Note_on_c, 3, 90, 100
6, 143040, Note_on_c, 3, 94, 100
6, 143040, Note_on_c, 3, 102, 100
6, 143040, Note_on_c, 3, 106, 100
6, 143070, Note_off_c, 3, 90, 0
6, 143070, Note_off_c, 3, 94, 0
6, 143070, Note_off_c, 3, 102, 0
6, 143070, Note_off_c, 3, 106, 0
6, 143070, Note_on_c, 3, 90, 100
6, 143070, Note_on_c, 3, 94, 100
6, 143070, Note_on_c, 3, 102, 100
6, 143070, Note_on_c, 3, 106, 100
6, 143100, Note_off_c, 3, 90, 0
6, 143100, Note_off_c, 3, 94, 0
6, 143100, Note_off_c, 3, 102, 0
6, 143100, Note_off_c, 3, 106, 0
6, 143100, Note_on_c, 3, 90, 100
6, 143100, Note_on_c, 3, 94, 100
6, 143100, Note_on_c, 3, 102, 100
6, 143100, Note_on_c, 3, 106, 100
6, 143130, Note_off_c, 3, 90, 0
6, 143130, Note_off_c, 3, 94, 0
6, 143130, Note_off_c, 3, 102, 0
6, 143130, Note_off_c, 3, 106, 0
6, 143130, Note_on_c, 3, 90, 100
6, 143130, Note_on_c, 3, 94, 100
6, 143130, Note_on_c, 3, 102, 100
6, 143130, Note_on_c, 3, 106, 100
6, 143160, Note_off_c, 3, 90, 0
6, 143160, Note_off_c, 3, 94, 0
6, 143160, Note_off_c, 3, 102, 0
6, 143160, Note_off_c, 3, 106, 0
6, 143160, Note_on_c, 3, 90, 100
6, 143160, Note_on_c, 3, 94, 100
6, 143160, Note_on_c, 3, 102, 100
6, 143160, Note_on_c, 3, 106, 100
6, 143190, Note_off_c, 3, 90, 0
6, 143190, Note_off_c, 3, 94, 0
6, 143190, Note_off_c, 3, 102, 0
6, 143190, Note_off_c, 3, 106, 0
6, 143190, Note_on_c, 3, 90, 100
6, 143190, Note_on_c, 3, 94, 100
6, 143190, Note_on_c, 3, 102, 100
6, 143190, Note_on_c, 3, 106, 100
6, 143220, Note_off_c, 3, 90, 0
6, 143220, Note_off_c, 3, 94, 0
6, 143220, Note_off_c, 3, 102, 0
6, 143220, Note_off_c, 3, 106, 0
6, 143220, Note_on_c, 3, 90, 100
6, 143220, Note_on_c, 3, 94, 100
6, 143220, Note_on_c, 3, 102, 100
6, 143220, Note_on_c, 3, 106, 100
6, 143250, Note_off_c, 3, 90, 0
6, 143250, Note_off_c, 3, 94, 0
6, 143250, Note_off_c, 3, 102, 0
6, 143250, Note_off_c, 3, 106, 0
6, 143250, Note_on_c, 3, 90, 100
6, 143250, Note_on_c, 3, 94, 100
6, 143250, Note_on_c, 3, 102, 100
6, 143250, Note_on_c, 3, 106, 100
6, 143280, Note_off_c, 3, 90, 0
6, 143280, Note_off_c, 3, 94, 0
6, 143280, Note_off_c, 3, 102, 0
6, 143280, Note_off_c, 3, 106, 0
6, 143280, Note_on_c, 3, 90, 100
6, 143280, Note_on_c, 3, 94, 100
6, 143280, Note_on_c, 3, 102, 100
6, 143280, Note_on_c, 3, 106, 100
6, 143310, Note_off_c, 3, 90, 0
6, 143310, Note_off_c, 3, 94, 0
6, 143310, Note_off_c, 3, 102, 0
6, 143310, Note_off_c, 3, 106, 0
6, 143310, Note_on_c, 3, 90, 100
6, 143310, Note_on_c, 3, 94, 100
6, 143310, Note_on_c, 3, 102, 100
6, 143310, Note_on_c, 3, 106, 100
6, 143340, Note_off_c, 3, 90, 0
6, 143340, Note_off_c, 3, 94, 0
6, 143340, Note_off_c, 3, 102, 0
6, 143340, Note_off_c, 3, 106, 0
6, 143340, Note_on_c, 3, 90, 100
6, 143340, Note_on_c, 3, 94, 100
6, 143340, Note_on_c, 3, 102, 100
6, 143340, Note_on_c, 3, 106, 100
6, 143370, Note_off_c, 3, 90, 0
6, 143370, Note_off_c, 3, 94, 0
6, 143370, Note_off_c, 3, 102, 0
6, 143370, Note_off_c, 3, 106, 0
6, 143370, Note_on_c, 3, 90, 100
6, 143370, Note_on_c, 3, 94, 100
6, 143370, Note_on_c, 3, 102, 100
6, 143370, Note_on_c, 3, 106, 100
6, 143400, Note_off_c, 3, 90, 0
6, 143400, Note_off_c, 3, 94, 0
6, 143400, Note_off_c, 3, 102, 0
6, 143400, Note_off_c, 3, 106, 0
6, 143400, Note_on_c, 3, 90, 100
6, 143400, Note_on_c, 3, 94, 100
6, 143400, Note_on_c, 3, 102, 100
6, 143400, Note_on_c, 3, 106, 100
6, 143430, Note_off_c, 3, 90, 0
6, 143430, Note_off_c, 3, 94, 0
6, 143430, Note_off_c, 3, 102, 0
6, 143430, Note_off_c, 3, 106, 0
6, 143430, Note_on_c, 3, 90, 100
6, 143430, Note_on_c, 3, 94, 100
6, 143430, Note_on_c, 3, 102, 100
6, 143430, Note_on_c, 3, 106, 100
6, 143460, Note_off_c, 3, 90, 0
6, 143460, Note_off_c, 3, 94, 0
6, 143460, Note_off_c, 3, 102, 0
6, 143460, Note_off_c, 3, 106, 0
6, 143460, Note_on_c, 3, 90, 100
6, 143460, Note_on_c, 3, 94, 100
6, 143460, Note_on_c, 3, 102, 100
6, 143460, Note_on_c, 3, 106, 100
6, 143490, Note_off_c, 3, 90, 0
6, 143490, Note_off_c, 3, 94, 0
6, 143490, Note_off_c, 3, 102, 0
6, 143490, Note_off_c, 3, 106, 0
6, 143490, Note_on_c, 3, 90, 100
6, 143490, Note_on_c, 3, 94, 100
6, 143490, Note_on_c, 3, 102, 100
6, 143490, Note_on_c, 3, 106, 100
6, 143520, Note_off_c, 3, 90, 0
6, 143520, Note_off_c, 3, 94, 0
6, 143520, Note_off_c, 3, 102, 0
6, 143520, Note_off_c, 3, 106, 0
6, 143520, Note_on_c, 3, 89, 100
6, 143520, Note_on_c, 3, 93, 100
6, 143520, Note_on_c, 3, 101, 100
6, 143520, Note_on_c, 3, 105, 100
6, 143550, Note_off_c, 3, 89, 0
6, 143550, Note_off_c, 3, 93, 0
6, 143550, Note_off_c, 3, 101, 0
6, 143550, Note_off_c, 3, 105, 0
6, 143550, Note_on_c, 3, 89, 100
6, 143550, Note_on_c, 3, 93, 100
6, 143550, Note_on_c, 3, 101, 100
6, 143550, Note_on_c, 3, 105, 100
6, 143580, Note_off_c, 3, 89, 0
6, 143580, Note_off_c, 3, 93, 0
6, 143580, Note_off_c, 3, 101, 0
6, 143580, Note_off_c, 3, 105, 0
6, 143580, Note_on_c, 3, 89, 100
6, 143580, Note_on_c, 3, 93, 100
6, 143580, Note_on_c, 3, 101, 100
6, 143580, Note_on_c, 3, 105, 100
6, 143610, Note_off_c, 3, 89, 0
6, 143610, Note_off_c, 3, 93, 0
6, 143610, Note_off_c, 3, 101, 0
6, 143610, Note_off_c, 3, 105, 0
6, 143610, Note_on_c, 3, 89, 100
6, 143610, Note_on_c, 3, 93, 100
6, 143610, Note_on_c, 3, 101, 100
6, 143610, Note_on_c, 3, 105, 100
6, 143640, Note_off_c, 3, 89, 0
6, 143640, Note_off_c, 3, 93, 0
6, 143640, Note_off_c, 3, 101, 0
6, 143640, Note_off_c, 3, 105, 0
6, 143640, Note_on_c, 3, 89, 100
6, 143640, Note_on_c, 3, 93, 100
6, 143640, Note_on_c, 3, 101, 100
6, 143640, Note_on_c, 3, 105, 100
6, 143670, Note_off_c, 3, 89, 0
6, 143670, Note_off_c, 3, 93, 0
6, 143670, Note_off_c, 3, 101, 0
6, 143670, Note_off_c, 3, 105, 0
6, 143670, Note_on_c, 3, 89, 100
6, 143670, Note_on_c, 3, 93, 100
6, 143670, Note_on_c, 3, 101, 100
6, 143670, Note_on_c, 3, 105, 100
6, 143700, Note_off_c, 3, 89, 0
6, 143700, Note_off_c, 3, 93, 0
6, 143700, Note_off_c, 3, 101, 0
6, 143700, Note_off_c, 3, 105, 0
6, 143700, Note_on_c, 3, 89, 100
6, 143700, Note_on_c, 3, 93, 100
6, 143700, Note_on_c, 3, 101, 100
6, 143700, Note_on_c, 3, 105, 100
6, 143730, Note_off_c, 3, 89, 0
6, 143730, Note_off_c, 3, 93, 0
6, 143730, Note_off_c, 3, 101, 0
6, 143730, Note_off_c, 3, 105, 0
6, 143730, Note_on_c, 3, 89, 100
6, 143730, Note_on_c, 3, 93, 100
6, 143730, Note_on_c, 3, 101, 100
6, 143730, Note_on_c, 3, 105, 100
6, 143760, Note_off_c, 3, 89, 0
6, 143760, Note_off_c, 3, 93, 0
6, 143760, Note_off_c, 3, 101, 0
6, 143760, Note_off_c, 3, 105, 0
6, 143760, Note_on_c, 3, 89, 100
6, 143760, Note_on_c, 3, 93, 100
6, 143760, Note_on_c, 3, 101, 100
6, 143760, Note_on_c, 3, 105, 100
6, 143790, Note_off_c, 3, 89, 0
6, 143790, Note_off_c, 3, 93, 0
6, 143790, Note_off_c, 3, 101, 0
6, 143790, Note_off_c, 3, 105, 0
6, 143790, Note_on_c, 3, 89, 100
6, 143790, Note_on_c, 3, 93, 100
6, 143790, Note_on_c, 3, 101, 100
6, 143790, Note_on_c, 3, 105, 100
6, 143820, Note_off_c, 3, 89, 0
6, 143820, Note_off_c, 3, 93, 0
6, 143820, Note_off_c, 3, 101, 0
6, 143820, Note_off_c, 3, 105, 0
6, 143820, Note_on_c, 3, 89, 100
6, 143820, Note_on_c, 3, 93, 100
6, 143820, Note_on_c, 3, 101, 100
6, 143820, Note_on_c, 3, 105, 100
6, 143850, Note_off_c, 3, 89, 0
6, 143850, Note_off_c, 3, 93, 0
6, 143850, Note_off_c, 3, 101, 0
6, 143850, Note_off_c, 3, 105, 0
6, 143850, Note_on_c, 3, 89, 100
6, 143850, Note_on_c, 3, 93, 100
6, 143850, Note_on_c, 3, 101, 100
6, 143850, Note_on_c, 3, 105, 100
6, 143880, Note_off_c, 3, 89, 0
6, 143880, Note_off_c, 3, 93, 0
6, 143880, Note_off_c, 3, 101, 0
6, 143880, Note_off_c, 3, 105, 0
6, 143880, Note_on_c, 3, 89, 100
6, 143880, Note_on_c, 3, 93, 100
6, 143880, Note_on_c, 3, 101, 100
6, 143880, Note_on_c, 3, 105, 100
6, 143910, Note_off_c, 3, 89, 0
6, 143910, Note_off_c, 3, 93, 0
6, 143910, Note_off_c, 3, 101, 0
6, 143910, Note_off_c, 3, 105, 0
6, 143910, Note_on_c, 3, 89, 100
6, 143910, Note_on_c, 3, 93, 100
6, 143910, Note_on_c, 3, 101, 100
6, 143910, Note_on_c, 3, 105, 100
6, 143940, Note_off_c, 3, 89, 0
6, 143940, Note_off_c, 3, 93, 0
6, 143940, Note_off_c, 3, 101, 0
6, 143940, Note_off_c, 3, 105, 0
6, 143940, Note_on_c, 3, 89, 100
6, 143940, Note_on_c, 3, 93, 100
6, 143940, Note_on_c, 3, 101, 100
6, 143940, Note_on_c, 3, 105, 100
6, 143970, Note_off_c, 3, 89, 0
6, 143970, Note_off_c, 3, 93, 0
6, 143970, Note_off_c, 3, 101, 0
6, 143970, Note_off_c, 3, 105, 0
6, 143970, Note_on_c, 3, 89, 100
6, 143970, Note_on_c, 3, 93, 100
6, 143970, Note_on_c, 3, 101, 100
6, 143970, Note_on_c, 3, 105, 100
6, 144000, Note_off_c, 3, 89, 0
6, 144000, Note_off_c, 3, 93, 0
6, 144000, Note_off_c, 3, 101, 0
6, 144000, Note_off_c, 3, 105, 0
6, 144000, Note_on_c, 3, 89, 100
6, 144000, Note_on_c, 3, 93, 100
6, 144000, Note_on_c, 3, 101, 100
6, 144000, Note_on_c, 3, 105, 100
6, 144030, Note_off_c, 3, 89, 0
6, 144030, Note_off_c, 3, 93, 0
6, 144030, Note_off_c, 3, 101, 0
6, 144030, Note_off_c, 3, 105, 0
6, 144030, Note_on_c, 3, 89, 100
6, 144030, Note_on_c, 3, 93, 100
6, 144030, Note_on_c, 3, 101, 100
6, 144030, Note_on_c, 3, 105, 100
6, 144060, Note_off_c, 3, 89, 0
6, 144060, Note_off_c, 3, 93, 0
6, 144060, Note_off_c, 3, 101, 0
6, 144060, Note_off_c, 3, 105, 0
6, 144060, Note_on_c, 3, 89, 100
6, 144060, Note_on_c, 3, 93, 100
6, 144060, Note_on_c, 3, 101, 100
6, 144060, Note_on_c, 3, 105, 100
6, 144090, Note_off_c, 3, 89, 0
6, 144090, Note_off_c, 3, 93, 0
6, 144090, Note_off_c, 3, 101, 0
6, 144090, Note_off_c, 3, 105, 0
6, 144090, Note_on_c, 3, 89, 100
6, 144090, Note_on_c, 3, 93, 100
6, 144090, Note_on_c, 3, 101, 100
6, 144090, Note_on_c, 3, 105, 100
6, 144120, Note_off_c, 3, 89, 0
6, 144120, Note_off_c, 3, 93, 0
6, 144120, Note_off_c, 3, 101, 0
6, 144120, Note_off_c, 3, 105, 0
6, 144120, Note_on_c, 3, 89, 100
6, 144120, Note_on_c, 3, 93, 100
6, 144120, Note_on_c, 3, 101, 100
6, 144120, Note_on_c, 3, 105, 100
6, 144150, Note_off_c, 3, 89, 0
6, 144150, Note_off_c, 3, 93, 0
6, 144150, Note_off_c, 3, 101, 0
6, 144150, Note_off_c, 3, 105, 0
6, 144150, Note_on_c, 3, 89, 100
6, 144150, Note_on_c, 3, 93, 100
6, 144150, Note_on_c, 3, 101, 100
6, 144150, Note_on_c, 3, 105, 100
6, 144180, Note_off_c, 3, 89, 0
6, 144180, Note_off_c, 3, 93, 0
6, 144180, Note_off_c, 3, 101, 0
6, 144180, Note_off_c, 3, 105, 0
6, 144180, Note_on_c, 3, 89, 100
6, 144180, Note_on_c, 3, 93, 100
6, 144180, Note_on_c, 3, 101, 100
6, 144180, Note_on_c, 3, 105, 100
6, 144210, Note_off_c, 3, 89, 0
6, 144210, Note_off_c, 3, 93, 0
6, 144210, Note_off_c, 3, 101, 0
6, 144210, Note_off_c, 3, 105, 0
6, 144210, Note_on_c, 3, 89, 100
6, 144210, Note_on_c, 3, 93, 100
6, 144210, Note_on_c, 3, 101, 100
6, 144210, Note_on_c, 3, 105, 100
6, 144240, Note_off_c, 3, 89, 0
6, 144240, Note_off_c, 3, 93, 0
6, 144240, Note_off_c, 3, 101, 0
6, 144240, Note_off_c, 3, 105, 0
6, 144240, Note_on_c, 3, 89, 100
6, 144240, Note_on_c, 3, 93, 100
6, 144240, Note_on_c, 3, 101, 100
6, 144240, Note_on_c, 3, 105, 100
6, 144270, Note_off_c, 3, 89, 0
6, 144270, Note_off_c, 3, 93, 0
6, 144270, Note_off_c, 3, 101, 0
6, 144270, Note_off_c, 3, 105, 0
6, 144270, Note_on_c, 3, 89, 100
6, 144270, Note_on_c, 3, 93, 100
6, 144270, Note_on_c, 3, 101, 100
6, 144270, Note_on_c, 3, 105, 100
6, 144300, Note_off_c, 3, 89, 0
6, 144300, Note_off_c, 3, 93, 0
6, 144300, Note_off_c, 3, 101, 0
6, 144300, Note_off_c, 3, 105, 0
6, 144300, Note_on_c, 3, 89, 100
6, 144300, Note_on_c, 3, 93, 100
6, 144300, Note_on_c, 3, 101, 100
6, 144300, Note_on_c, 3, 105, 100
6, 144330, Note_off_c, 3, 89, 0
6, 144330, Note_off_c, 3, 93, 0
6, 144330, Note_off_c, 3, 101, 0
6, 144330, Note_off_c, 3, 105, 0
6, 144330, Note_on_c, 3, 89, 100
6, 144330, Note_on_c, 3, 93, 100
6, 144330, Note_on_c, 3, 101, 100
6, 144330, Note_on_c, 3, 105, 100
6, 144360, Note_off_c, 3, 89, 0
6, 144360, Note_off_c, 3, 93, 0
6, 144360, Note_off_c, 3, 101, 0
6, 144360, Note_off_c, 3, 105, 0
6, 144360, Note_on_c, 3, 89, 100
6, 144360, Note_on_c, 3, 93, 100
6, 144360, Note_on_c, 3, 101, 100
6, 144360, Note_on_c, 3, 105, 100
6, 144390, Note_off_c, 3, 89, 0
6, 144390, Note_off_c, 3, 93, 0
6, 144390, Note_off_c, 3, 101, 0
6, 144390, Note_off_c, 3, 105, 0
6, 144390, Note_on_c, 3, 89, 100
6, 144390, Note_on_c, 3, 93, 100
6, 144390, Note_on_c, 3, 101, 100
6, 144390, Note_on_c, 3, 105, 100
6, 144420, Note_off_c, 3, 89, 0
6, 144420, Note_off_c, 3, 93, 0
6, 144420, Note_off_c, 3, 101, 0
6, 144420, Note_off_c, 3, 105, 0
6, 144420, Note_on_c, 3, 89, 100
6, 144420, Note_on_c, 3, 93, 100
6, 144420, Note_on_c, 3, 101, 100
6, 144420, Note_on_c, 3, 105, 100
6, 144450, Note_off_c, 3, 89, 0
6, 144450, Note_off_c, 3, 93, 0
6, 144450, Note_off_c, 3, 101, 0
6, 144450, Note_off_c, 3, 105, 0
6, 144450, Note_on_c, 3, 89, 100
6, 144450, Note_on_c, 3, 93, 100
6, 144450, Note_on_c, 3, 101, 100
6, 144450, Note_on_c, 3, 105, 100
6, 144480, Note_off_c, 3, 89, 0
6, 144480, Note_off_c, 3, 93, 0
6, 144480, Note_off_c, 3, 101, 0
6, 144480, Note_off_c, 3, 105, 0
6, 144480, Note_on_c, 3, 89, 100
6, 144480, Note_on_c, 3, 93, 100
6, 144480, Note_on_c, 3, 101, 100
6, 144480, Note_on_c, 3, 105, 100
6, 144510, Note_off_c, 3, 89, 0
6, 144510, Note_off_c, 3, 93, 0
6, 144510, Note_off_c, 3, 101, 0
6, 144510, Note_off_c, 3, 105, 0
6, 144510, Note_on_c, 3, 89, 100
6, 144510, Note_on_c, 3, 93, 100
6, 144510, Note_on_c, 3, 101, 100
6, 144510, Note_on_c, 3, 105, 100
6, 144540, Note_off_c, 3, 89, 0
6, 144540, Note_off_c, 3, 93, 0
6, 144540, Note_off_c, 3, 101, 0
6, 144540, Note_off_c, 3, 105, 0
6, 144540, Note_on_c, 3, 89, 100
6, 144540, Note_on_c, 3, 93, 100
6, 144540, Note_on_c, 3, 101, 100
6, 144540, Note_on_c, 3, 105, 100
6, 144570, Note_off_c, 3, 89, 0
6, 144570, Note_off_c, 3, 93, 0
6, 144570, Note_off_c, 3, 101, 0
6, 144570, Note_off_c, 3, 105, 0
6, 144570, Note_on_c, 3, 89, 100
6, 144570, Note_on_c, 3, 93, 100
6, 144570, Note_on_c, 3, 101, 100
6, 144570, Note_on_c, 3, 105, 100
6, 144600, Note_off_c, 3, 89, 0
6, 144600, Note_off_c, 3, 93, 0
6, 144600, Note_off_c, 3, 101, 0
6, 144600, Note_off_c, 3, 105, 0
6, 144600, Note_on_c, 3, 89, 100
6, 144600, Note_on_c, 3, 93, 100
6, 144600, Note_on_c, 3, 101, 100
6, 144600, Note_on_c, 3, 105, 100
6, 144630, Note_off_c, 3, 89, 0
6, 144630, Note_off_c, 3, 93, 0
6, 144630, Note_off_c, 3, 101, 0
6, 144630, Note_off_c, 3, 105, 0
6, 144630, Note_on_c, 3, 89, 100
6, 144630, Note_on_c, 3, 93, 100
6, 144630, Note_on_c, 3, 101, 100
6, 144630, Note_on_c, 3, 105, 100
6, 144660, Note_off_c, 3, 89, 0
6, 144660, Note_off_c, 3, 93, 0
6, 144660, Note_off_c, 3, 101, 0
6, 144660, Note_off_c, 3, 105, 0
6, 144660, Note_on_c, 3, 89, 100
6, 144660, Note_on_c, 3, 93, 100
6, 144660, Note_on_c, 3, 101, 100
6, 144660, Note_on_c, 3, 105, 100
6, 144690, Note_off_c, 3, 89, 0
6, 144690, Note_off_c, 3, 93, 0
6, 144690, Note_off_c, 3, 101, 0
6, 144690, Note_off_c, 3, 105, 0
6, 144690, Note_on_c, 3, 89, 100
6, 144690, Note_on_c, 3, 93, 100
6, 144690, Note_on_c, 3, 101, 100
6, 144690, Note_on_c, 3, 105, 100
6, 144720, Note_off_c, 3, 89, 0
6, 144720, Note_off_c, 3, 93, 0
6, 144720, Note_off_c, 3, 101, 0
6, 144720, Note_off_c, 3, 105, 0
6, 144720, Note_on_c, 3, 89, 100
6, 144720, Note_on_c, 3, 93, 100
6, 144720, Note_on_c, 3, 101, 100
6, 144720, Note_on_c, 3, 105, 100
6, 144750, Note_off_c, 3, 89, 0
6, 144750, Note_off_c, 3, 93, 0
6, 144750, Note_off_c, 3, 101, 0
6, 144750, Note_off_c, 3, 105, 0
6, 144750, Note_on_c, 3, 89, 100
6, 144750, Note_on_c, 3, 93, 100
6, 144750, Note_on_c, 3, 101, 100
6, 144750, Note_on_c, 3, 105, 100
6, 144780, Note_off_c, 3, 89, 0
6, 144780, Note_off_c, 3, 93, 0
6, 144780, Note_off_c, 3, 101, 0
6, 144780, Note_off_c, 3, 105, 0
6, 144780, Note_on_c, 3, 89, 100
6, 144780, Note_on_c, 3, 93, 100
6, 144780, Note_on_c, 3, 101, 100
6, 144780, Note_on_c, 3, 105, 100
6, 144810, Note_off_c, 3, 89, 0
6, 144810, Note_off_c, 3, 93, 0
6, 144810, Note_off_c, 3, 101, 0
6, 144810, Note_off_c, 3, 105, 0
6, 144810, Note_on_c, 3, 89, 100
6, 144810, Note_on_c, 3, 93, 100
6, 144810, Note_on_c, 3, 101, 100
6, 144810, Note_on_c, 3, 105, 100
6, 144840, Note_off_c, 3, 89, 0
6, 144840, Note_off_c, 3, 93, 0
6, 144840, Note_off_c, 3, 101, 0
6, 144840, Note_off_c, 3, 105, 0
6, 144840, Note_on_c, 3, 89, 100
6, 144840, Note_on_c, 3, 93, 100
6, 144840, Note_on_c, 3, 101, 100
6, 144840, Note_on_c, 3, 105, 100
6, 144870, Note_off_c, 3, 89, 0
6, 144870, Note_off_c, 3, 93, 0
6, 144870, Note_off_c, 3, 101, 0
6, 144870, Note_off_c, 3, 105, 0
6, 144870, Note_on_c, 3, 89, 100
6, 144870, Note_on_c, 3, 93, 100
6, 144870, Note_on_c, 3, 101, 100
6, 144870, Note_on_c, 3, 105, 100
6, 144900, Note_off_c, 3, 89, 0
6, 144900, Note_off_c, 3, 93, 0
6, 144900, Note_off_c, 3, 101, 0
6, 144900, Note_off_c, 3, 105, 0
6, 144900, Note_on_c, 3, 89, 100
6, 144900, Note_on_c, 3, 93, 100
6, 144900, Note_on_c, 3, 101, 100
6, 144900, Note_on_c, 3, 105, 100
6, 144930, Note_off_c, 3, 89, 0
6, 144930, Note_off_c, 3, 93, 0
6, 144930, Note_off_c, 3, 101, 0
6, 144930, Note_off_c, 3, 105, 0
6, 144930, Note_on_c, 3, 89, 100
6, 144930, Note_on_c, 3, 93, 100
6, 144930, Note_on_c, 3, 101, 100
6, 144930, Note_on_c, 3, 105, 100
6, 144960, Note_off_c, 3, 89, 0
6, 144960, Note_off_c, 3, 93, 0
6, 144960, Note_off_c, 3, 101, 0
6, 144960, Note_off_c, 3, 105, 0
6, 144960, Note_on_c, 3, 89, 100
6, 144960, Note_on_c, 3, 93, 100
6, 144960, Note_on_c, 3, 101, 100
6, 144960, Note_on_c, 3, 105, 100
6, 144990, Note_off_c, 3, 89, 0
6, 144990, Note_off_c, 3, 93, 0
6, 144990, Note_off_c, 3, 101, 0
6, 144990, Note_off_c, 3, 105, 0
6, 144990, Note_on_c, 3, 89, 100
6, 144990, Note_on_c, 3, 93, 100
6, 144990, Note_on_c, 3, 101, 100
6, 144990, Note_on_c, 3, 105, 100
6, 145020, Note_off_c, 3, 89, 0
6, 145020, Note_off_c, 3, 93, 0
6, 145020, Note_off_c, 3, 101, 0
6, 145020, Note_off_c, 3, 105, 0
6, 145020, Note_on_c, 3, 89, 100
6, 145020, Note_on_c, 3, 93, 100
6, 145020, Note_on_c, 3, 101, 100
6, 145020, Note_on_c, 3, 105, 100
6, 145050, Note_off_c, 3, 89, 0
6, 145050, Note_off_c, 3, 93, 0
6, 145050, Note_off_c, 3, 101, 0
6, 145050, Note_off_c, 3, 105, 0
6, 145050, Note_on_c, 3, 89, 100
6, 145050, Note_on_c, 3, 93, 100
6, 145050, Note_on_c, 3, 101, 100
6, 145050, Note_on_c, 3, 105, 100
6, 145080, Note_off_c, 3, 89, 0
6, 145080, Note_off_c, 3, 93, 0
6, 145080, Note_off_c, 3, 101, 0
6, 145080, Note_off_c, 3, 105, 0
6, 145080, Note_on_c, 3, 89, 100
6, 145080, Note_on_c, 3, 93, 100
6, 145080, Note_on_c, 3, 101, 100
6, 145080, Note_on_c, 3, 105, 100
6, 145110, Note_off_c, 3, 89, 0
6, 145110, Note_off_c, 3, 93, 0
6, 145110, Note_off_c, 3, 101, 0
6, 145110, Note_off_c, 3, 105, 0
6, 145110, Note_on_c, 3, 89, 100
6, 145110, Note_on_c, 3, 93, 100
6, 145110, Note_on_c, 3, 101, 100
6, 145110, Note_on_c, 3, 105, 100
6, 145140, Note_off_c, 3, 89, 0
6, 145140, Note_off_c, 3, 93, 0
6, 145140, Note_off_c, 3, 101, 0
6, 145140, Note_off_c, 3, 105, 0
6, 145140, Note_on_c, 3, 89, 100
6, 145140, Note_on_c, 3, 93, 100
6, 145140, Note_on_c, 3, 101, 100
6, 145140, Note_on_c, 3, 105, 100
6, 145170, Note_off_c, 3, 89, 0
6, 145170, Note_off_c, 3, 93, 0
6, 145170, Note_off_c, 3, 101, 0
6, 145170, Note_off_c, 3, 105, 0
6, 145170, Note_on_c, 3, 89, 100
6, 145170, Note_on_c, 3, 93, 100
6, 145170, Note_on_c, 3, 101, 100
6, 145170, Note_on_c, 3, 105, 100
6, 145200, Note_off_c, 3, 89, 0
6, 145200, Note_off_c, 3, 93, 0
6, 145200, Note_off_c, 3, 101, 0
6, 145200, Note_off_c, 3, 105, 0
6, 145200, Note_on_c, 3, 89, 100
6, 145200, Note_on_c, 3, 93, 100
6, 145200, Note_on_c, 3, 101, 100
6, 145200, Note_on_c, 3, 105, 100
6, 145230, Note_off_c, 3, 89, 0
6, 145230, Note_off_c, 3, 93, 0
6, 145230, Note_off_c, 3, 101, 0
6, 145230, Note_off_c, 3, 105, 0
6, 145230, Note_on_c, 3, 89, 100
6, 145230, Note_on_c, 3, 93, 100
6, 145230, Note_on_c, 3, 101, 100
6, 145230, Note_on_c, 3, 105, 100
6, 145260, Note_off_c, 3, 89, 0
6, 145260, Note_off_c, 3, 93, 0
6, 145260, Note_off_c, 3, 101, 0
6, 145260, Note_off_c, 3, 105, 0
6, 145260, Note_on_c, 3, 89, 100
6, 145260, Note_on_c, 3, 93, 100
6, 145260, Note_on_c, 3, 101, 100
6, 145260, Note_on_c, 3, 105, 100
6, 145290, Note_off_c, 3, 89, 0
6, 145290, Note_off_c, 3, 93, 0
6, 145290, Note_off_c, 3, 101, 0
6, 145290, Note_off_c, 3, 105, 0
6, 145290, Note_on_c, 3, 89, 100
6, 145290, Note_on_c, 3, 93, 100
6, 145290, Note_on_c, 3, 101, 100
6, 145290, Note_on_c, 3, 105, 100
6, 145320, Note_off_c, 3, 89, 0
6, 145320, Note_off_c, 3, 93, 0
6, 145320, Note_off_c, 3, 101, 0
6, 145320, Note_off_c, 3, 105, 0
6, 145320, Note_on_c, 3, 89, 100
6, 145320, Note_on_c, 3, 93, 100
6, 145320, Note_on_c, 3, 101, 100
6, 145320, Note_on_c, 3, 105, 100
6, 145350, Note_off_c, 3, 89, 0
6, 145350, Note_off_c, 3, 93, 0
6, 145350, Note_off_c, 3, 101, 0
6, 145350, Note_off_c, 3, 105, 0
6, 145350, Note_on_c, 3, 89, 100
6, 145350, Note_on_c, 3, 93, 100
6, 145350, Note_on_c, 3, 101, 100
6, 145350, Note_on_c, 3, 105, 100
6, 145380, Note_off_c, 3, 89, 0
6, 145380, Note_off_c, 3, 93, 0
6, 145380, Note_off_c, 3, 101, 0
6, 145380, Note_off_c, 3, 105, 0
6, 145380, Note_on_c, 3, 89, 100
6, 145380, Note_on_c, 3, 93, 100
6, 145380, Note_on_c, 3, 101, 100
6, 145380, Note_on_c, 3, 105, 100
6, 145410, Note_off_c, 3, 89, 0
6, 145410, Note_off_c, 3, 93, 0
6, 145410, Note_off_c, 3, 101, 0
6, 145410, Note_off_c, 3, 105, 0
6, 145410, Note_on_c, 3, 89, 100
6, 145410, Note_on_c, 3, 93, 100
6, 145410, Note_on_c, 3, 101, 100
6, 145410, Note_on_c, 3, 105, 100
6, 145440, Note_off_c, 3, 89, 0
6, 145440, Note_off_c, 3, 93, 0
6, 145440, Note_off_c, 3, 101, 0
6, 145440, Note_off_c, 3, 105, 0
6, 145440, Note_on_c, 3, 89, 100
6, 145440, Note_on_c, 3, 94, 100
6, 145440, Note_on_c, 3, 101, 100
6, 145440, Note_on_c, 3, 106, 100
6, 145470, Note_off_c, 3, 89, 0
6, 145470, Note_off_c, 3, 94, 0
6, 145470, Note_off_c, 3, 101, 0
6, 145470, Note_off_c, 3, 106, 0
6, 145470, Note_on_c, 3, 89, 100
6, 145470, Note_on_c, 3, 94, 100
6, 145470, Note_on_c, 3, 101, 100
6, 145470, Note_on_c, 3, 106, 100
6, 145500, Note_off_c, 3, 89, 0
6, 145500, Note_off_c, 3, 94, 0
6, 145500, Note_off_c, 3, 101, 0
6, 145500, Note_off_c, 3, 106, 0
6, 145500, Note_on_c, 3, 89, 100
6, 145500, Note_on_c, 3, 94, 100
6, 145500, Note_on_c, 3, 101, 100
6, 145500, Note_on_c, 3, 106, 100
6, 145530, Note_off_c, 3, 89, 0
6, 145530, Note_off_c, 3, 94, 0
6, 145530, Note_off_c, 3, 101, 0
6, 145530, Note_off_c, 3, 106, 0
6, 145530, Note_on_c, 3, 89, 100
6, 145530, Note_on_c, 3, 94, 100
6, 145530, Note_on_c, 3, 101, 100
6, 145530, Note_on_c, 3, 106, 100
6, 145560, Note_off_c, 3, 89, 0
6, 145560, Note_off_c, 3, 94, 0
6, 145560, Note_off_c, 3, 101, 0
6, 145560, Note_off_c, 3, 106, 0
6, 145560, Note_on_c, 3, 89, 100
6, 145560, Note_on_c, 3, 94, 100
6, 145560, Note_on_c, 3, 101, 100
6, 145560, Note_on_c, 3, 106, 100
6, 145590, Note_off_c, 3, 89, 0
6, 145590, Note_off_c, 3, 94, 0
6, 145590, Note_off_c, 3, 101, 0
6, 145590, Note_off_c, 3, 106, 0
6, 145590, Note_on_c, 3, 89, 100
6, 145590, Note_on_c, 3, 94, 100
6, 145590, Note_on_c, 3, 101, 100
6, 145590, Note_on_c, 3, 106, 100
6, 145620, Note_off_c, 3, 89, 0
6, 145620, Note_off_c, 3, 94, 0
6, 145620, Note_off_c, 3, 101, 0
6, 145620, Note_off_c, 3, 106, 0
6, 145620, Note_on_c, 3, 89, 100
6, 145620, Note_on_c, 3, 94, 100
6, 145620, Note_on_c, 3, 101, 100
6, 145620, Note_on_c, 3, 106, 100
6, 145650, Note_off_c, 3, 89, 0
6, 145650, Note_off_c, 3, 94, 0
6, 145650, Note_off_c, 3, 101, 0
6, 145650, Note_off_c, 3, 106, 0
6, 145650, Note_on_c, 3, 89, 100
6, 145650, Note_on_c, 3, 94, 100
6, 145650, Note_on_c, 3, 101, 100
6, 145650, Note_on_c, 3, 106, 100
6, 145680, Note_off_c, 3, 89, 0
6, 145680, Note_off_c, 3, 94, 0
6, 145680, Note_off_c, 3, 101, 0
6, 145680, Note_off_c, 3, 106, 0
6, 145680, Note_on_c, 3, 89, 100
6, 145680, Note_on_c, 3, 94, 100
6, 145680, Note_on_c, 3, 101, 100
6, 145680, Note_on_c, 3, 106, 100
6, 145710, Note_off_c, 3, 89, 0
6, 145710, Note_off_c, 3, 94, 0
6, 145710, Note_off_c, 3, 101, 0
6, 145710, Note_off_c, 3, 106, 0
6, 145710, Note_on_c, 3, 89, 100
6, 145710, Note_on_c, 3, 94, 100
6, 145710, Note_on_c, 3, 101, 100
6, 145710, Note_on_c, 3, 106, 100
6, 145740, Note_off_c, 3, 89, 0
6, 145740, Note_off_c, 3, 94, 0
6, 145740, Note_off_c, 3, 101, 0
6, 145740, Note_off_c, 3, 106, 0
6, 145740, Note_on_c, 3, 89, 100
6, 145740, Note_on_c, 3, 94, 100
6, 145740, Note_on_c, 3, 101, 100
6, 145740, Note_on_c, 3, 106, 100
6, 145770, Note_off_c, 3, 89, 0
6, 145770, Note_off_c, 3, 94, 0
6, 145770, Note_off_c, 3, 101, 0
6, 145770, Note_off_c, 3, 106, 0
6, 145770, Note_on_c, 3, 89, 100
6, 145770, Note_on_c, 3, 94, 100
6, 145770, Note_on_c, 3, 101, 100
6, 145770, Note_on_c, 3, 106, 100
6, 145800, Note_off_c, 3, 89, 0
6, 145800, Note_off_c, 3, 94, 0
6, 145800, Note_off_c, 3, 101, 0
6, 145800, Note_off_c, 3, 106, 0
6, 145800, Note_on_c, 3, 89, 100
6, 145800, Note_on_c, 3, 94, 100
6, 145800, Note_on_c, 3, 101, 100
6, 145800, Note_on_c, 3, 106, 100
6, 145830, Note_off_c, 3, 89, 0
6, 145830, Note_off_c, 3, 94, 0
6, 145830, Note_off_c, 3, 101, 0
6, 145830, Note_off_c, 3, 106, 0
6, 145830, Note_on_c, 3, 89, 100
6, 145830, Note_on_c, 3, 94, 100
6, 145830, Note_on_c, 3, 101, 100
6, 145830, Note_on_c, 3, 106, 100
6, 145860, Note_off_c, 3, 89, 0
6, 145860, Note_off_c, 3, 94, 0
6, 145860, Note_off_c, 3, 101, 0
6, 145860, Note_off_c, 3, 106, 0
6, 145860, Note_on_c, 3, 89, 100
6, 145860, Note_on_c, 3, 94, 100
6, 145860, Note_on_c, 3, 101, 100
6, 145860, Note_on_c, 3, 106, 100
6, 145890, Note_off_c, 3, 89, 0
6, 145890, Note_off_c, 3, 94, 0
6, 145890, Note_off_c, 3, 101, 0
6, 145890, Note_off_c, 3, 106, 0
6, 145890, Note_on_c, 3, 89, 100
6, 145890, Note_on_c, 3, 94, 100
6, 145890, Note_on_c, 3, 101, 100
6, 145890, Note_on_c, 3, 106, 100
6, 145920, Note_off_c, 3, 89, 0
6, 145920, Note_off_c, 3, 94, 0
6, 145920, Note_off_c, 3, 101, 0
6, 145920, Note_off_c, 3, 106, 0
6, 145920, Note_on_c, 3, 89, 100
6, 145920, Note_on_c, 3, 94, 100
6, 145920, Note_on_c, 3, 101, 100
6, 145920, Note_on_c, 3, 106, 100
6, 145950, Note_off_c, 3, 89, 0
6, 145950, Note_off_c, 3, 94, 0
6, 145950, Note_off_c, 3, 101, 0
6, 145950, Note_off_c, 3, 106, 0
6, 145950, Note_on_c, 3, 89, 100
6, 145950, Note_on_c, 3, 94, 100
6, 145950, Note_on_c, 3, 101, 100
6, 145950, Note_on_c, 3, 106, 100
6, 145980, Note_off_c, 3, 89, 0
6, 145980, Note_off_c, 3, 94, 0
6, 145980, Note_off_c, 3, 101, 0
6, 145980, Note_off_c, 3, 106, 0
6, 145980, Note_on_c, 3, 89, 100
6, 145980, Note_on_c, 3, 94, 100
6, 145980, Note_on_c, 3, 101, 100
6, 145980, Note_on_c, 3, 106, 100
6, 146010, Note_off_c, 3, 89, 0
6, 146010, Note_off_c, 3, 94, 0
6, 146010, Note_off_c, 3, 101, 0
6, 146010, Note_off_c, 3, 106, 0
6, 146010, Note_on_c, 3, 89, 100
6, 146010, Note_on_c, 3, 94, 100
6, 146010, Note_on_c, 3, 101, 100
6, 146010, Note_on_c, 3, 106, 100
6, 146040, Note_off_c, 3, 89, 0
6, 146040, Note_off_c, 3, 94, 0
6, 146040, Note_off_c, 3, 101, 0
6, 146040, Note_off_c, 3, 106, 0
6, 146040, Note_on_c, 3, 89, 100
6, 146040, Note_on_c, 3, 94, 100
6, 146040, Note_on_c, 3, 101, 100
6, 146040, Note_on_c, 3, 106, 100
6, 146070, Note_off_c, 3, 89, 0
6, 146070, Note_off_c, 3, 94, 0
6, 146070, Note_off_c, 3, 101, 0
6, 146070, Note_off_c, 3, 106, 0
6, 146070, Note_on_c, 3, 89, 100
6, 146070, Note_on_c, 3, 94, 100
6, 146070, Note_on_c, 3, 101, 100
6, 146070, Note_on_c, 3, 106, 100
6, 146100, Note_off_c, 3, 89, 0
6, 146100, Note_off_c, 3, 94, 0
6, 146100, Note_off_c, 3, 101, 0
6, 146100, Note_off_c, 3, 106, 0
6, 146100, Note_on_c, 3, 89, 100
6, 146100, Note_on_c, 3, 94, 100
6, 146100, Note_on_c, 3, 101, 100
6, 146100, Note_on_c, 3, 106, 100
6, 146130, Note_off_c, 3, 89, 0
6, 146130, Note_off_c, 3, 94, 0
6, 146130, Note_off_c, 3, 101, 0
6, 146130, Note_off_c, 3, 106, 0
6, 146130, Note_on_c, 3, 89, 100
6, 146130, Note_on_c, 3, 94, 100
6, 146130, Note_on_c, 3, 101, 100
6, 146130, Note_on_c, 3, 106, 100
6, 146160, Note_off_c, 3, 89, 0
6, 146160, Note_off_c, 3, 94, 0
6, 146160, Note_off_c, 3, 101, 0
6, 146160, Note_off_c, 3, 106, 0
6, 146160, Note_on_c, 3, 89, 100
6, 146160, Note_on_c, 3, 94, 100
6, 146160, Note_on_c, 3, 101, 100
6, 146160, Note_on_c, 3, 106, 100
6, 146190, Note_off_c, 3, 89, 0
6, 146190, Note_off_c, 3, 94, 0
6, 146190, Note_off_c, 3, 101, 0
6, 146190, Note_off_c, 3, 106, 0
6, 146190, Note_on_c, 3, 89, 100
6, 146190, Note_on_c, 3, 94, 100
6, 146190, Note_on_c, 3, 101, 100
6, 146190, Note_on_c, 3, 106, 100
6, 146220, Note_off_c, 3, 89, 0
6, 146220, Note_off_c, 3, 94, 0
6, 146220, Note_off_c, 3, 101, 0
6, 146220, Note_off_c, 3, 106, 0
6, 146220, Note_on_c, 3, 89, 100
6, 146220, Note_on_c, 3, 94, 100
6, 146220, Note_on_c, 3, 101, 100
6, 146220, Note_on_c, 3, 106, 100
6, 146250, Note_off_c, 3, 89, 0
6, 146250, Note_off_c, 3, 94, 0
6, 146250, Note_off_c, 3, 101, 0
6, 146250, Note_off_c, 3, 106, 0
6, 146250, Note_on_c, 3, 89, 100
6, 146250, Note_on_c, 3, 94, 100
6, 146250, Note_on_c, 3, 101, 100
6, 146250, Note_on_c, 3, 106, 100
6, 146280, Note_off_c, 3, 89, 0
6, 146280, Note_off_c, 3, 94, 0
6, 146280, Note_off_c, 3, 101, 0
6, 146280, Note_off_c, 3, 106, 0
6, 146280, Note_on_c, 3, 89, 100
6, 146280, Note_on_c, 3, 94, 100
6, 146280, Note_on_c, 3, 101, 100
6, 146280, Note_on_c, 3, 106, 100
6, 146310, Note_off_c, 3, 89, 0
6, 146310, Note_off_c, 3, 94, 0
6, 146310, Note_off_c, 3, 101, 0
6, 146310, Note_off_c, 3, 106, 0
6, 146310, Note_on_c, 3, 89, 100
6, 146310, Note_on_c, 3, 94, 100
6, 146310, Note_on_c, 3, 101, 100
6, 146310, Note_on_c, 3, 106, 100
6, 146340, Note_off_c, 3, 89, 0
6, 146340, Note_off_c, 3, 94, 0
6, 146340, Note_off_c, 3, 101, 0
6, 146340, Note_off_c, 3, 106, 0
6, 146340, Note_on_c, 3, 89, 100
6, 146340, Note_on_c, 3, 94, 100
6, 146340, Note_on_c, 3, 101, 100
6, 146340, Note_on_c, 3, 106, 100
6, 146370, Note_off_c, 3, 89, 0
6, 146370, Note_off_c, 3, 94, 0
6, 146370, Note_off_c, 3, 101, 0
6, 146370, Note_off_c, 3, 106, 0
6, 146370, Note_on_c, 3, 89, 100
6, 146370, Note_on_c, 3, 94, 100
6, 146370, Note_on_c, 3, 101, 100
6, 146370, Note_on_c, 3, 106, 100
6, 146400, Note_off_c, 3, 89, 0
6, 146400, Note_off_c, 3, 94, 0
6, 146400, Note_off_c, 3, 101, 0
6, 146400, Note_off_c, 3, 106, 0
6, 146400, Note_on_c, 3, 89, 100
6, 146400, Note_on_c, 3, 94, 100
6, 146400, Note_on_c, 3, 101, 100
6, 146400, Note_on_c, 3, 106, 100
6, 146430, Note_off_c, 3, 89, 0
6, 146430, Note_off_c, 3, 94, 0
6, 146430, Note_off_c, 3, 101, 0
6, 146430, Note_off_c, 3, 106, 0
6, 146430, Note_on_c, 3, 89, 100
6, 146430, Note_on_c, 3, 94, 100
6, 146430, Note_on_c, 3, 101, 100
6, 146430, Note_on_c, 3, 106, 100
6, 146460, Note_off_c, 3, 89, 0
6, 146460, Note_off_c, 3, 94, 0
6, 146460, Note_off_c, 3, 101, 0
6, 146460, Note_off_c, 3, 106, 0
6, 146460, Note_on_c, 3, 89, 100
6, 146460, Note_on_c, 3, 94, 100
6, 146460, Note_on_c, 3, 101, 100
6, 146460, Note_on_c, 3, 106, 100
6, 146490, Note_off_c, 3, 89, 0
6, 146490, Note_off_c, 3, 94, 0
6, 146490, Note_off_c, 3, 101, 0
6, 146490, Note_off_c, 3, 106, 0
6, 146490, Note_on_c, 3, 89, 100
6, 146490, Note_on_c, 3, 94, 100
6, 146490, Note_on_c, 3, 101, 100
6, 146490, Note_on_c, 3, 106, 100
6, 146520, Note_off_c, 3, 89, 0
6, 146520, Note_off_c, 3, 94, 0
6, 146520, Note_off_c, 3, 101, 0
6, 146520, Note_off_c, 3, 106, 0
6, 146520, Note_on_c, 3, 89, 100
6, 146520, Note_on_c, 3, 94, 100
6, 146520, Note_on_c, 3, 101, 100
6, 146520, Note_on_c, 3, 106, 100
6, 146550, Note_off_c, 3, 89, 0
6, 146550, Note_off_c, 3, 94, 0
6, 146550, Note_off_c, 3, 101, 0
6, 146550, Note_off_c, 3, 106, 0
6, 146550, Note_on_c, 3, 89, 100
6, 146550, Note_on_c, 3, 94, 100
6, 146550, Note_on_c, 3, 101, 100
6, 146550, Note_on_c, 3, 106, 100
6, 146580, Note_off_c, 3, 89, 0
6, 146580, Note_off_c, 3, 94, 0
6, 146580, Note_off_c, 3, 101, 0
6, 146580, Note_off_c, 3, 106, 0
6, 146580, Note_on_c, 3, 89, 100
6, 146580, Note_on_c, 3, 94, 100
6, 146580, Note_on_c, 3, 101, 100
6, 146580, Note_on_c, 3, 106, 100
6, 146610, Note_off_c, 3, 89, 0
6, 146610, Note_off_c, 3, 94, 0
6, 146610, Note_off_c, 3, 101, 0
6, 146610, Note_off_c, 3, 106, 0
6, 146610, Note_on_c, 3, 89, 100
6, 146610, Note_on_c, 3, 94, 100
6, 146610, Note_on_c, 3, 101, 100
6, 146610, Note_on_c, 3, 106, 100
6, 146640, Note_off_c, 3, 89, 0
6, 146640, Note_off_c, 3, 94, 0
6, 146640, Note_off_c, 3, 101, 0
6, 146640, Note_off_c, 3, 106, 0
6, 146640, Note_on_c, 3, 89, 100
6, 146640, Note_on_c, 3, 94, 100
6, 146640, Note_on_c, 3, 101, 100
6, 146640, Note_on_c, 3, 106, 100
6, 146670, Note_off_c, 3, 89, 0
6, 146670, Note_off_c, 3, 94, 0
6, 146670, Note_off_c, 3, 101, 0
6, 146670, Note_off_c, 3, 106, 0
6, 146670, Note_on_c, 3, 89, 100
6, 146670, Note_on_c, 3, 94, 100
6, 146670, Note_on_c, 3, 101, 100
6, 146670, Note_on_c, 3, 106, 100
6, 146700, Note_off_c, 3, 89, 0
6, 146700, Note_off_c, 3, 94, 0
6, 146700, Note_off_c, 3, 101, 0
6, 146700, Note_off_c, 3, 106, 0
6, 146700, Note_on_c, 3, 89, 100
6, 146700, Note_on_c, 3, 94, 100
6, 146700, Note_on_c, 3, 101, 100
6, 146700, Note_on_c, 3, 106, 100
6, 146730, Note_off_c, 3, 89, 0
6, 146730, Note_off_c, 3, 94, 0
6, 146730, Note_off_c, 3, 101, 0
6, 146730, Note_off_c, 3, 106, 0
6, 146730, Note_on_c, 3, 89, 100
6, 146730, Note_on_c, 3, 94, 100
6, 146730, Note_on_c, 3, 101, 100
6, 146730, Note_on_c, 3, 106, 100
6, 146760, Note_off_c, 3, 89, 0
6, 146760, Note_off_c, 3, 94, 0
6, 146760, Note_off_c, 3, 101, 0
6, 146760, Note_off_c, 3, 106, 0
6, 146760, Note_on_c, 3, 89, 100
6, 146760, Note_on_c, 3, 94, 100
6, 146760, Note_on_c, 3, 101, 100
6, 146760, Note_on_c, 3, 106, 100
6, 146790, Note_off_c, 3, 89, 0
6, 146790, Note_off_c, 3, 94, 0
6, 146790, Note_off_c, 3, 101, 0
6, 146790, Note_off_c, 3, 106, 0
6, 146790, Note_on_c, 3, 89, 100
6, 146790, Note_on_c, 3, 94, 100
6, 146790, Note_on_c, 3, 101, 100
6, 146790, Note_on_c, 3, 106, 100
6, 146820, Note_off_c, 3, 89, 0
6, 146820, Note_off_c, 3, 94, 0
6, 146820, Note_off_c, 3, 101, 0
6, 146820, Note_off_c, 3, 106, 0
6, 146820, Note_on_c, 3, 89, 100
6, 146820, Note_on_c, 3, 94, 100
6, 146820, Note_on_c, 3, 101, 100
6, 146820, Note_on_c, 3, 106, 100
6, 146850, Note_off_c, 3, 89, 0
6, 146850, Note_off_c, 3, 94, 0
6, 146850, Note_off_c, 3, 101, 0
6, 146850, Note_off_c, 3, 106, 0
6, 146850, Note_on_c, 3, 89, 100
6, 146850, Note_on_c, 3, 94, 100
6, 146850, Note_on_c, 3, 101, 100
6, 146850, Note_on_c, 3, 106, 100
6, 146880, Note_off_c, 3, 89, 0
6, 146880, Note_off_c, 3, 94, 0
6, 146880, Note_off_c, 3, 101, 0
6, 146880, Note_off_c, 3, 106, 0
6, 146880, Note_on_c, 3, 89, 100
6, 146880, Note_on_c, 3, 94, 100
6, 146880, Note_on_c, 3, 101, 100
6, 146880, Note_on_c, 3, 106, 100
6, 146910, Note_off_c, 3, 89, 0
6, 146910, Note_off_c, 3, 94, 0
6, 146910, Note_off_c, 3, 101, 0
6, 146910, Note_off_c, 3, 106, 0
6, 146910, Note_on_c, 3, 89, 100
6, 146910, Note_on_c, 3, 94, 100
6, 146910, Note_on_c, 3, 101, 100
6, 146910, Note_on_c, 3, 106, 100
6, 146940, Note_off_c, 3, 89, 0
6, 146940, Note_off_c, 3, 94, 0
6, 146940, Note_off_c, 3, 101, 0
6, 146940, Note_off_c, 3, 106, 0
6, 146940, Note_on_c, 3, 89, 100
6, 146940, Note_on_c, 3, 94, 100
6, 146940, Note_on_c, 3, 101, 100
6, 146940, Note_on_c, 3, 106, 100
6, 146970, Note_off_c, 3, 89, 0
6, 146970, Note_off_c, 3, 94, 0
6, 146970, Note_off_c, 3, 101, 0
6, 146970, Note_off_c, 3, 106, 0
6, 146970, Note_on_c, 3, 89, 100
6, 146970, Note_on_c, 3, 94, 100
6, 146970, Note_on_c, 3, 101, 100
6, 146970, Note_on_c, 3, 106, 100
6, 147000, Note_off_c, 3, 89, 0
6, 147000, Note_off_c, 3, 94, 0
6, 147000, Note_off_c, 3, 101, 0
6, 147000, Note_off_c, 3, 106, 0
6, 147000, Note_on_c, 3, 89, 100
6, 147000, Note_on_c, 3, 94, 100
6, 147000, Note_on_c, 3, 101, 100
6, 147000, Note_on_c, 3, 106, 100
6, 147030, Note_off_c, 3, 89, 0
6, 147030, Note_off_c, 3, 94, 0
6, 147030, Note_off_c, 3, 101, 0
6, 147030, Note_off_c, 3, 106, 0
6, 147030, Note_on_c, 3, 89, 100
6, 147030, Note_on_c, 3, 94, 100
6, 147030, Note_on_c, 3, 101, 100
6, 147030, Note_on_c, 3, 106, 100
6, 147060, Note_off_c, 3, 89, 0
6, 147060, Note_off_c, 3, 94, 0
6, 147060, Note_off_c, 3, 101, 0
6, 147060, Note_off_c, 3, 106, 0
6, 147060, Note_on_c, 3, 89, 100
6, 147060, Note_on_c, 3, 94, 100
6, 147060, Note_on_c, 3, 101, 100
6, 147060, Note_on_c, 3, 106, 100
6, 147090, Note_off_c, 3, 89, 0
6, 147090, Note_off_c, 3, 94, 0
6, 147090, Note_off_c, 3, 101, 0
6, 147090, Note_off_c, 3, 106, 0
6, 147090, Note_on_c, 3, 89, 100
6, 147090, Note_on_c, 3, 94, 100
6, 147090, Note_on_c, 3, 101, 100
6, 147090, Note_on_c, 3, 106, 100
6, 147120, Note_off_c, 3, 89, 0
6, 147120, Note_off_c, 3, 94, 0
6, 147120, Note_off_c, 3, 101, 0
6, 147120, Note_off_c, 3, 106, 0
6, 147120, Note_on_c, 3, 89, 100
6, 147120, Note_on_c, 3, 94, 100
6, 147120, Note_on_c, 3, 101, 100
6, 147120, Note_on_c, 3, 106, 100
6, 147150, Note_off_c, 3, 89, 0
6, 147150, Note_off_c, 3, 94, 0
6, 147150, Note_off_c, 3, 101, 0
6, 147150, Note_off_c, 3, 106, 0
6, 147150, Note_on_c, 3, 89, 100
6, 147150, Note_on_c, 3, 94, 100
6, 147150, Note_on_c, 3, 101, 100
6, 147150, Note_on_c, 3, 106, 100
6, 147180, Note_off_c, 3, 89, 0
6, 147180, Note_off_c, 3, 94, 0
6, 147180, Note_off_c, 3, 101, 0
6, 147180, Note_off_c, 3, 106, 0
6, 147180, Note_on_c, 3, 89, 100
6, 147180, Note_on_c, 3, 94, 100
6, 147180, Note_on_c, 3, 101, 100
6, 147180, Note_on_c, 3, 106, 100
6, 147210, Note_off_c, 3, 89, 0
6, 147210, Note_off_c, 3, 94, 0
6, 147210, Note_off_c, 3, 101, 0
6, 147210, Note_off_c, 3, 106, 0
6, 147210, Note_on_c, 3, 89, 100
6, 147210, Note_on_c, 3, 94, 100
6, 147210, Note_on_c, 3, 101, 100
6, 147210, Note_on_c, 3, 106, 100
6, 147240, Note_off_c, 3, 89, 0
6, 147240, Note_off_c, 3, 94, 0
6, 147240, Note_off_c, 3, 101, 0
6, 147240, Note_off_c, 3, 106, 0
6, 147240, Note_on_c, 3, 89, 100
6, 147240, Note_on_c, 3, 94, 100
6, 147240, Note_on_c, 3, 101, 100
6, 147240, Note_on_c, 3, 106, 100
6, 147270, Note_off_c, 3, 89, 0
6, 147270, Note_off_c, 3, 94, 0
6, 147270, Note_off_c, 3, 101, 0
6, 147270, Note_off_c, 3, 106, 0
6, 147270, Note_on_c, 3, 89, 100
6, 147270, Note_on_c, 3, 94, 100
6, 147270, Note_on_c, 3, 101, 100
6, 147270, Note_on_c, 3, 106, 100
6, 147300, Note_off_c, 3, 89, 0
6, 147300, Note_off_c, 3, 94, 0
6, 147300, Note_off_c, 3, 101, 0
6, 147300, Note_off_c, 3, 106, 0
6, 147300, Note_on_c, 3, 89, 100
6, 147300, Note_on_c, 3, 94, 100
6, 147300, Note_on_c, 3, 101, 100
6, 147300, Note_on_c, 3, 106, 100
6, 147330, Note_off_c, 3, 89, 0
6, 147330, Note_off_c, 3, 94, 0
6, 147330, Note_off_c, 3, 101, 0
6, 147330, Note_off_c, 3, 106, 0
6, 147330, Note_on_c, 3, 89, 100
6, 147330, Note_on_c, 3, 94, 100
6, 147330, Note_on_c, 3, 101, 100
6, 147330, Note_on_c, 3, 106, 100
6, 147360, Note_off_c, 3, 89, 0
6, 147360, Note_off_c, 3, 94, 0
6, 147360, Note_off_c, 3, 101, 0
6, 147360, Note_off_c, 3, 106, 0
6, 147360, Note_on_c, 3, 90, 100
6, 147360, Note_on_c, 3, 94, 100
6, 147360, Note_on_c, 3, 102, 100
6, 147360, Note_on_c, 3, 106, 100
6, 147390, Note_off_c, 3, 90, 0
6, 147390, Note_off_c, 3, 94, 0
6, 147390, Note_off_c, 3, 102, 0
6, 147390, Note_off_c, 3, 106, 0
6, 147390, Note_on_c, 3, 90, 100
6, 147390, Note_on_c, 3, 94, 100
6, 147390, Note_on_c, 3, 102, 100
6, 147390, Note_on_c, 3, 106, 100
6, 147420, Note_off_c, 3, 90, 0
6, 147420, Note_off_c, 3, 94, 0
6, 147420, Note_off_c, 3, 102, 0
6, 147420, Note_off_c, 3, 106, 0
6, 147420, Note_on_c, 3, 90, 100
6, 147420, Note_on_c, 3, 94, 100
6, 147420, Note_on_c, 3, 102, 100
6, 147420, Note_on_c, 3, 106, 100
6, 147450, Note_off_c, 3, 90, 0
6, 147450, Note_off_c, 3, 94, 0
6, 147450, Note_off_c, 3, 102, 0
6, 147450, Note_off_c, 3, 106, 0
6, 147450, Note_on_c, 3, 90, 100
6, 147450, Note_on_c, 3, 94, 100
6, 147450, Note_on_c, 3, 102, 100
6, 147450, Note_on_c, 3, 106, 100
6, 147480, Note_off_c, 3, 90, 0
6, 147480, Note_off_c, 3, 94, 0
6, 147480, Note_off_c, 3, 102, 0
6, 147480, Note_off_c, 3, 106, 0
6, 147480, Note_on_c, 3, 90, 100
6, 147480, Note_on_c, 3, 94, 100
6, 147480, Note_on_c, 3, 102, 100
6, 147480, Note_on_c, 3, 106, 100
6, 147510, Note_off_c, 3, 90, 0
6, 147510, Note_off_c, 3, 94, 0
6, 147510, Note_off_c, 3, 102, 0
6, 147510, Note_off_c, 3, 106, 0
6, 147510, Note_on_c, 3, 90, 100
6, 147510, Note_on_c, 3, 94, 100
6, 147510, Note_on_c, 3, 102, 100
6, 147510, Note_on_c, 3, 106, 100
6, 147540, Note_off_c, 3, 90, 0
6, 147540, Note_off_c, 3, 94, 0
6, 147540, Note_off_c, 3, 102, 0
6, 147540, Note_off_c, 3, 106, 0
6, 147540, Note_on_c, 3, 90, 100
6, 147540, Note_on_c, 3, 94, 100
6, 147540, Note_on_c, 3, 102, 100
6, 147540, Note_on_c, 3, 106, 100
6, 147570, Note_off_c, 3, 90, 0
6, 147570, Note_off_c, 3, 94, 0
6, 147570, Note_off_c, 3, 102, 0
6, 147570, Note_off_c, 3, 106, 0
6, 147570, Note_on_c, 3, 90, 100
6, 147570, Note_on_c, 3, 94, 100
6, 147570, Note_on_c, 3, 102, 100
6, 147570, Note_on_c, 3, 106, 100
6, 147600, Note_off_c, 3, 90, 0
6, 147600, Note_off_c, 3, 94, 0
6, 147600, Note_off_c, 3, 102, 0
6, 147600, Note_off_c, 3, 106, 0
6, 147600, Note_on_c, 3, 90, 100
6, 147600, Note_on_c, 3, 94, 100
6, 147600, Note_on_c, 3, 102, 100
6, 147600, Note_on_c, 3, 106, 100
6, 147630, Note_off_c, 3, 90, 0
6, 147630, Note_off_c, 3, 94, 0
6, 147630, Note_off_c, 3, 102, 0
6, 147630, Note_off_c, 3, 106, 0
6, 147630, Note_on_c, 3, 90, 100
6, 147630, Note_on_c, 3, 94, 100
6, 147630, Note_on_c, 3, 102, 100
6, 147630, Note_on_c, 3, 106, 100
6, 147660, Note_off_c, 3, 90, 0
6, 147660, Note_off_c, 3, 94, 0
6, 147660, Note_off_c, 3, 102, 0
6, 147660, Note_off_c, 3, 106, 0
6, 147660, Note_on_c, 3, 90, 100
6, 147660, Note_on_c, 3, 94, 100
6, 147660, Note_on_c, 3, 102, 100
6, 147660, Note_on_c, 3, 106, 100
6, 147690, Note_off_c, 3, 90, 0
6, 147690, Note_off_c, 3, 94, 0
6, 147690, Note_off_c, 3, 102, 0
6, 147690, Note_off_c, 3, 106, 0
6, 147690, Note_on_c, 3, 90, 100
6, 147690, Note_on_c, 3, 94, 100
6, 147690, Note_on_c, 3, 102, 100
6, 147690, Note_on_c, 3, 106, 100
6, 147720, Note_off_c, 3, 90, 0
6, 147720, Note_off_c, 3, 94, 0
6, 147720, Note_off_c, 3, 102, 0
6, 147720, Note_off_c, 3, 106, 0
6, 147720, Note_on_c, 3, 90, 100
6, 147720, Note_on_c, 3, 94, 100
6, 147720, Note_on_c, 3, 102, 100
6, 147720, Note_on_c, 3, 106, 100
6, 147750, Note_off_c, 3, 90, 0
6, 147750, Note_off_c, 3, 94, 0
6, 147750, Note_off_c, 3, 102, 0
6, 147750, Note_off_c, 3, 106, 0
6, 147750, Note_on_c, 3, 90, 100
6, 147750, Note_on_c, 3, 94, 100
6, 147750, Note_on_c, 3, 102, 100
6, 147750, Note_on_c, 3, 106, 100
6, 147780, Note_off_c, 3, 90, 0
6, 147780, Note_off_c, 3, 94, 0
6, 147780, Note_off_c, 3, 102, 0
6, 147780, Note_off_c, 3, 106, 0
6, 147780, Note_on_c, 3, 90, 100
6, 147780, Note_on_c, 3, 94, 100
6, 147780, Note_on_c, 3, 102, 100
6, 147780, Note_on_c, 3, 106, 100
6, 147810, Note_off_c, 3, 90, 0
6, 147810, Note_off_c, 3, 94, 0
6, 147810, Note_off_c, 3, 102, 0
6, 147810, Note_off_c, 3, 106, 0
6, 147810, Note_on_c, 3, 90, 100
6, 147810, Note_on_c, 3, 94, 100
6, 147810, Note_on_c, 3, 102, 100
6, 147810, Note_on_c, 3, 106, 100
6, 147840, Note_off_c, 3, 90, 0
6, 147840, Note_off_c, 3, 94, 0
6, 147840, Note_off_c, 3, 102, 0
6, 147840, Note_off_c, 3, 106, 0
6, 147840, Note_on_c, 3, 90, 100
6, 147840, Note_on_c, 3, 94, 100
6, 147840, Note_on_c, 3, 102, 100
6, 147840, Note_on_c, 3, 106, 100
6, 147870, Note_off_c, 3, 90, 0
6, 147870, Note_off_c, 3, 94, 0
6, 147870, Note_off_c, 3, 102, 0
6, 147870, Note_off_c, 3, 106, 0
6, 147870, Note_on_c, 3, 90, 100
6, 147870, Note_on_c, 3, 94, 100
6, 147870, Note_on_c, 3, 102, 100
6, 147870, Note_on_c, 3, 106, 100
6, 147900, Note_off_c, 3, 90, 0
6, 147900, Note_off_c, 3, 94, 0
6, 147900, Note_off_c, 3, 102, 0
6, 147900, Note_off_c, 3, 106, 0
6, 147900, Note_on_c, 3, 90, 100
6, 147900, Note_on_c, 3, 94, 100
6, 147900, Note_on_c, 3, 102, 100
6, 147900, Note_on_c, 3, 106, 100
6, 147930, Note_off_c, 3, 90, 0
6, 147930, Note_off_c, 3, 94, 0
6, 147930, Note_off_c, 3, 102, 0
6, 147930, Note_off_c, 3, 106, 0
6, 147930, Note_on_c, 3, 90, 100
6, 147930, Note_on_c, 3, 94, 100
6, 147930, Note_on_c, 3, 102, 100
6, 147930, Note_on_c, 3, 106, 100
6, 147960, Note_off_c, 3, 90, 0
6, 147960, Note_off_c, 3, 94, 0
6, 147960, Note_off_c, 3, 102, 0
6, 147960, Note_off_c, 3, 106, 0
6, 147960, Note_on_c, 3, 90, 100
6, 147960, Note_on_c, 3, 94, 100
6, 147960, Note_on_c, 3, 102, 100
6, 147960, Note_on_c, 3, 106, 100
6, 147990, Note_off_c, 3, 90, 0
6, 147990, Note_off_c, 3, 94, 0
6, 147990, Note_off_c, 3, 102, 0
6, 147990, Note_off_c, 3, 106, 0
6, 147990, Note_on_c, 3, 90, 100
6, 147990, Note_on_c, 3, 94, 100
6, 147990, Note_on_c, 3, 102, 100
6, 147990, Note_on_c, 3, 106, 100
6, 148020, Note_off_c, 3, 90, 0
6, 148020, Note_off_c, 3, 94, 0
6, 148020, Note_off_c, 3, 102, 0
6, 148020, Note_off_c, 3, 106, 0
6, 148020, Note_on_c, 3, 90, 100
6, 148020, Note_on_c, 3, 94, 100
6, 148020, Note_on_c, 3, 102, 100
6, 148020, Note_on_c, 3, 106, 100
6, 148050, Note_off_c, 3, 90, 0
6, 148050, Note_off_c, 3, 94, 0
6, 148050, Note_off_c, 3, 102, 0
6, 148050, Note_off_c, 3, 106, 0
6, 148050, Note_on_c, 3, 90, 100
6, 148050, Note_on_c, 3, 94, 100
6, 148050, Note_on_c, 3, 102, 100
6, 148050, Note_on_c, 3, 106, 100
6, 148080, Note_off_c, 3, 90, 0
6, 148080, Note_off_c, 3, 94, 0
6, 148080, Note_off_c, 3, 102, 0
6, 148080, Note_off_c, 3, 106, 0
6, 148080, Note_on_c, 3, 90, 100
6, 148080, Note_on_c, 3, 94, 100
6, 148080, Note_on_c, 3, 102, 100
6, 148080, Note_on_c, 3, 106, 100
6, 148110, Note_off_c, 3, 90, 0
6, 148110, Note_off_c, 3, 94, 0
6, 148110, Note_off_c, 3, 102, 0
6, 148110, Note_off_c, 3, 106, 0
6, 148110, Note_on_c, 3, 90, 100
6, 148110, Note_on_c, 3, 94, 100
6, 148110, Note_on_c, 3, 102, 100
6, 148110, Note_on_c, 3, 106, 100
6, 148140, Note_off_c, 3, 90, 0
6, 148140, Note_off_c, 3, 94, 0
6, 148140, Note_off_c, 3, 102, 0
6, 148140, Note_off_c, 3, 106, 0
6, 148140, Note_on_c, 3, 90, 100
6, 148140, Note_on_c, 3, 94, 100
6, 148140, Note_on_c, 3, 102, 100
6, 148140, Note_on_c, 3, 106, 100
6, 148170, Note_off_c, 3, 90, 0
6, 148170, Note_off_c, 3, 94, 0
6, 148170, Note_off_c, 3, 102, 0
6, 148170, Note_off_c, 3, 106, 0
6, 148170, Note_on_c, 3, 90, 100
6, 148170, Note_on_c, 3, 94, 100
6, 148170, Note_on_c, 3, 102, 100
6, 148170, Note_on_c, 3, 106, 100
6, 148200, Note_off_c, 3, 90, 0
6, 148200, Note_off_c, 3, 94, 0
6, 148200, Note_off_c, 3, 102, 0
6, 148200, Note_off_c, 3, 106, 0
6, 148200, Note_on_c, 3, 90, 100
6, 148200, Note_on_c, 3, 94, 100
6, 148200, Note_on_c, 3, 102, 100
6, 148200, Note_on_c, 3, 106, 100
6, 148230, Note_off_c, 3, 90, 0
6, 148230, Note_off_c, 3, 94, 0
6, 148230, Note_off_c, 3, 102, 0
6, 148230, Note_off_c, 3, 106, 0
6, 148230, Note_on_c, 3, 90, 100
6, 148230, Note_on_c, 3, 94, 100
6, 148230, Note_on_c, 3, 102, 100
6, 148230, Note_on_c, 3, 106, 100
6, 148260, Note_off_c, 3, 90, 0
6, 148260, Note_off_c, 3, 94, 0
6, 148260, Note_off_c, 3, 102, 0
6, 148260, Note_off_c, 3, 106, 0
6, 148260, Note_on_c, 3, 90, 100
6, 148260, Note_on_c, 3, 94, 100
6, 148260, Note_on_c, 3, 102, 100
6, 148260, Note_on_c, 3, 106, 100
6, 148290, Note_off_c, 3, 90, 0
6, 148290, Note_off_c, 3, 94, 0
6, 148290, Note_off_c, 3, 102, 0
6, 148290, Note_off_c, 3, 106, 0
6, 148290, Note_on_c, 3, 90, 100
6, 148290, Note_on_c, 3, 94, 100
6, 148290, Note_on_c, 3, 102, 100
6, 148290, Note_on_c, 3, 106, 100
6, 148320, Note_off_c, 3, 90, 0
6, 148320, Note_off_c, 3, 94, 0
6, 148320, Note_off_c, 3, 102, 0
6, 148320, Note_off_c, 3, 106, 0
6, 148320, Note_on_c, 3, 90, 100
6, 148320, Note_on_c, 3, 94, 100
6, 148320, Note_on_c, 3, 102, 100
6, 148320, Note_on_c, 3, 106, 100
6, 148350, Note_off_c, 3, 90, 0
6, 148350, Note_off_c, 3, 94, 0
6, 148350, Note_off_c, 3, 102, 0
6, 148350, Note_off_c, 3, 106, 0
6, 148350, Note_on_c, 3, 90, 100
6, 148350, Note_on_c, 3, 94, 100
6, 148350, Note_on_c, 3, 102, 100
6, 148350, Note_on_c, 3, 106, 100
6, 148380, Note_off_c, 3, 90, 0
6, 148380, Note_off_c, 3, 94, 0
6, 148380, Note_off_c, 3, 102, 0
6, 148380, Note_off_c, 3, 106, 0
6, 148380, Note_on_c, 3, 90, 100
6, 148380, Note_on_c, 3, 94, 100
6, 148380, Note_on_c, 3, 102, 100
6, 148380, Note_on_c, 3, 106, 100
6, 148410, Note_off_c, 3, 90, 0
6, 148410, Note_off_c, 3, 94, 0
6, 148410, Note_off_c, 3, 102, 0
6, 148410, Note_off_c, 3, 106, 0
6, 148410, Note_on_c, 3, 90, 100
6, 148410, Note_on_c, 3, 94, 100
6, 148410, Note_on_c, 3, 102, 100
6, 148410, Note_on_c, 3, 106, 100
6, 148440, Note_off_c, 3, 90, 0
6, 148440, Note_off_c, 3, 94, 0
6, 148440, Note_off_c, 3, 102, 0
6, 148440, Note_off_c, 3, 106, 0
6, 148440, Note_on_c, 3, 90, 100
6, 148440, Note_on_c, 3, 94, 100
6, 148440, Note_on_c, 3, 102, 100
6, 148440, Note_on_c, 3, 106, 100
6, 148470, Note_off_c, 3, 90, 0
6, 148470, Note_off_c, 3, 94, 0
6, 148470, Note_off_c, 3, 102, 0
6, 148470, Note_off_c, 3, 106, 0
6, 148470, Note_on_c, 3, 90, 100
6, 148470, Note_on_c, 3, 94, 100
6, 148470, Note_on_c, 3, 102, 100
6, 148470, Note_on_c, 3, 106, 100
6, 148500, Note_off_c, 3, 90, 0
6, 148500, Note_off_c, 3, 94, 0
6, 148500, Note_off_c, 3, 102, 0
6, 148500, Note_off_c, 3, 106, 0
6, 148500, Note_on_c, 3, 90, 100
6, 148500, Note_on_c, 3, 94, 100
6, 148500, Note_on_c, 3, 102, 100
6, 148500, Note_on_c, 3, 106, 100
6, 148530, Note_off_c, 3, 90, 0
6, 148530, Note_off_c, 3, 94, 0
6, 148530, Note_off_c, 3, 102, 0
6, 148530, Note_off_c, 3, 106, 0
6, 148530, Note_on_c, 3, 90, 100
6, 148530, Note_on_c, 3, 94, 100
6, 148530, Note_on_c, 3, 102, 100
6, 148530, Note_on_c, 3, 106, 100
6, 148560, Note_off_c, 3, 90, 0
6, 148560, Note_off_c, 3, 94, 0
6, 148560, Note_off_c, 3, 102, 0
6, 148560, Note_off_c, 3, 106, 0
6, 148560, Note_on_c, 3, 90, 100
6, 148560, Note_on_c, 3, 94, 100
6, 148560, Note_on_c, 3, 102, 100
6, 148560, Note_on_c, 3, 106, 100
6, 148590, Note_off_c, 3, 90, 0
6, 148590, Note_off_c, 3, 94, 0
6, 148590, Note_off_c, 3, 102, 0
6, 148590, Note_off_c, 3, 106, 0
6, 148590, Note_on_c, 3, 90, 100
6, 148590, Note_on_c, 3, 94, 100
6, 148590, Note_on_c, 3, 102, 100
6, 148590, Note_on_c, 3, 106, 100
6, 148620, Note_off_c, 3, 90, 0
6, 148620, Note_off_c, 3, 94, 0
6, 148620, Note_off_c, 3, 102, 0
6, 148620, Note_off_c, 3, 106, 0
6, 148620, Note_on_c, 3, 90, 100
6, 148620, Note_on_c, 3, 94, 100
6, 148620, Note_on_c, 3, 102, 100
6, 148620, Note_on_c, 3, 106, 100
6, 148650, Note_off_c, 3, 90, 0
6, 148650, Note_off_c, 3, 94, 0
6, 148650, Note_off_c, 3, 102, 0
6, 148650, Note_off_c, 3, 106, 0
6, 148650, Note_on_c, 3, 90, 100
6, 148650, Note_on_c, 3, 94, 100
6, 148650, Note_on_c, 3, 102, 100
6, 148650, Note_on_c, 3, 106, 100
6, 148680, Note_off_c, 3, 90, 0
6, 148680, Note_off_c, 3, 94, 0
6, 148680, Note_off_c, 3, 102, 0
6, 148680, Note_off_c, 3, 106, 0
6, 148680, Note_on_c, 3, 90, 100
6, 148680, Note_on_c, 3, 94, 100
6, 148680, Note_on_c, 3, 102, 100
6, 148680, Note_on_c, 3, 106, 100
6, 148710, Note_off_c, 3, 90, 0
6, 148710, Note_off_c, 3, 94, 0
6, 148710, Note_off_c, 3, 102, 0
6, 148710, Note_off_c, 3, 106, 0
6, 148710, Note_on_c, 3, 90, 100
6, 148710, Note_on_c, 3, 94, 100
6, 148710, Note_on_c, 3, 102, 100
6, 148710, Note_on_c, 3, 106, 100
6, 148740, Note_off_c, 3, 90, 0
6, 148740, Note_off_c, 3, 94, 0
6, 148740, Note_off_c, 3, 102, 0
6, 148740, Note_off_c, 3, 106, 0
6, 148740, Note_on_c, 3, 90, 100
6, 148740, Note_on_c, 3, 94, 100
6, 148740, Note_on_c, 3, 102, 100
6, 148740, Note_on_c, 3, 106, 100
6, 148770, Note_off_c, 3, 90, 0
6, 148770, Note_off_c, 3, 94, 0
6, 148770, Note_off_c, 3, 102, 0
6, 148770, Note_off_c, 3, 106, 0
6, 148770, Note_on_c, 3, 90, 100
6, 148770, Note_on_c, 3, 94, 100
6, 148770, Note_on_c, 3, 102, 100
6, 148770, Note_on_c, 3, 106, 100
6, 148800, Note_off_c, 3, 90, 0
6, 148800, Note_off_c, 3, 94, 0
6, 148800, Note_off_c, 3, 102, 0
6, 148800, Note_off_c, 3, 106, 0
6, 148800, Note_on_c, 3, 90, 100
6, 148800, Note_on_c, 3, 94, 100
6, 148800, Note_on_c, 3, 102, 100
6, 148800, Note_on_c, 3, 106, 100
6, 148830, Note_off_c, 3, 90, 0
6, 148830, Note_off_c, 3, 94, 0
6, 148830, Note_off_c, 3, 102, 0
6, 148830, Note_off_c, 3, 106, 0
6, 148830, Note_on_c, 3, 90, 100
6, 148830, Note_on_c, 3, 94, 100
6, 148830, Note_on_c, 3, 102, 100
6, 148830, Note_on_c, 3, 106, 100
6, 148860, Note_off_c, 3, 90, 0
6, 148860, Note_off_c, 3, 94, 0
6, 148860, Note_off_c, 3, 102, 0
6, 148860, Note_off_c, 3, 106, 0
6, 148860, Note_on_c, 3, 90, 100
6, 148860, Note_on_c, 3, 94, 100
6, 148860, Note_on_c, 3, 102, 100
6, 148860, Note_on_c, 3, 106, 100
6, 148890, Note_off_c, 3, 90, 0
6, 148890, Note_off_c, 3, 94, 0
6, 148890, Note_off_c, 3, 102, 0
6, 148890, Note_off_c, 3, 106, 0
6, 148890, Note_on_c, 3, 90, 100
6, 148890, Note_on_c, 3, 94, 100
6, 148890, Note_on_c, 3, 102, 100
6, 148890, Note_on_c, 3, 106, 100
6, 148920, Note_off_c, 3, 90, 0
6, 148920, Note_off_c, 3, 94, 0
6, 148920, Note_off_c, 3, 102, 0
6, 148920, Note_off_c, 3, 106, 0
6, 148920, Note_on_c, 3, 90, 100
6, 148920, Note_on_c, 3, 94, 100
6, 148920, Note_on_c, 3, 102, 100
6, 148920, Note_on_c, 3, 106, 100
6, 148950, Note_off_c, 3, 90, 0
6, 148950, Note_off_c, 3, 94, 0
6, 148950, Note_off_c, 3, 102, 0
6, 148950, Note_off_c, 3, 106, 0
6, 148950, Note_on_c, 3, 90, 100
6, 148950, Note_on_c, 3, 94, 100
6, 148950, Note_on_c, 3, 102, 100
6, 148950, Note_on_c, 3, 106, 100
6, 148980, Note_off_c, 3, 90, 0
6, 148980, Note_off_c, 3, 94, 0
6, 148980, Note_off_c, 3, 102, 0
6, 148980, Note_off_c, 3, 106, 0
6, 148980, Note_on_c, 3, 90, 100
6, 148980, Note_on_c, 3, 94, 100
6, 148980, Note_on_c, 3, 102, 100
6, 148980, Note_on_c, 3, 106, 100
6, 149010, Note_off_c, 3, 90, 0
6, 149010, Note_off_c, 3, 94, 0
6, 149010, Note_off_c, 3, 102, 0
6, 149010, Note_off_c, 3, 106, 0
6, 149010, Note_on_c, 3, 90, 100
6, 149010, Note_on_c, 3, 94, 100
6, 149010, Note_on_c, 3, 102, 100
6, 149010, Note_on_c, 3, 106, 100
6, 149040, Note_off_c, 3, 90, 0
6, 149040, Note_off_c, 3, 94, 0
6, 149040, Note_off_c, 3, 102, 0
6, 149040, Note_off_c, 3, 106, 0
6, 149040, Note_on_c, 3, 90, 100
6, 149040, Note_on_c, 3, 94, 100
6, 149040, Note_on_c, 3, 102, 100
6, 149040, Note_on_c, 3, 106, 100
6, 149070, Note_off_c, 3, 90, 0
6, 149070, Note_off_c, 3, 94, 0
6, 149070, Note_off_c, 3, 102, 0
6, 149070, Note_off_c, 3, 106, 0
6, 149070, Note_on_c, 3, 90, 100
6, 149070, Note_on_c, 3, 94, 100
6, 149070, Note_on_c, 3, 102, 100
6, 149070, Note_on_c, 3, 106, 100
6, 149100, Note_off_c, 3, 90, 0
6, 149100, Note_off_c, 3, 94, 0
6, 149100, Note_off_c, 3, 102, 0
6, 149100, Note_off_c, 3, 106, 0
6, 149100, Note_on_c, 3, 90, 100
6, 149100, Note_on_c, 3, 94, 100
6, 149100, Note_on_c, 3, 102, 100
6, 149100, Note_on_c, 3, 106, 100
6, 149130, Note_off_c, 3, 90, 0
6, 149130, Note_off_c, 3, 94, 0
6, 149130, Note_off_c, 3, 102, 0
6, 149130, Note_off_c, 3, 106, 0
6, 149130, Note_on_c, 3, 90, 100
6, 149130, Note_on_c, 3, 94, 100
6, 149130, Note_on_c, 3, 102, 100
6, 149130, Note_on_c, 3, 106, 100
6, 149160, Note_off_c, 3, 90, 0
6, 149160, Note_off_c, 3, 94, 0
6, 149160, Note_off_c, 3, 102, 0
6, 149160, Note_off_c, 3, 106, 0
6, 149160, Note_on_c, 3, 90, 100
6, 149160, Note_on_c, 3, 94, 100
6, 149160, Note_on_c, 3, 102, 100
6, 149160, Note_on_c, 3, 106, 100
6, 149190, Note_off_c, 3, 90, 0
6, 149190, Note_off_c, 3, 94, 0
6, 149190, Note_off_c, 3, 102, 0
6, 149190, Note_off_c, 3, 106, 0
6, 149190, Note_on_c, 3, 90, 100
6, 149190, Note_on_c, 3, 94, 100
6, 149190, Note_on_c, 3, 102, 100
6, 149190, Note_on_c, 3, 106, 100
6, 149220, Note_off_c, 3, 90, 0
6, 149220, Note_off_c, 3, 94, 0
6, 149220, Note_off_c, 3, 102, 0
6, 149220, Note_off_c, 3, 106, 0
6, 149220, Note_on_c, 3, 90, 100
6, 149220, Note_on_c, 3, 94, 100
6, 149220, Note_on_c, 3, 102, 100
6, 149220, Note_on_c, 3, 106, 100
6, 149250, Note_off_c, 3, 90, 0
6, 149250, Note_off_c, 3, 94, 0
6, 149250, Note_off_c, 3, 102, 0
6, 149250, Note_off_c, 3, 106, 0
6, 149250, Note_on_c, 3, 90, 100
6, 149250, Note_on_c, 3, 94, 100
6, 149250, Note_on_c, 3, 102, 100
6, 149250, Note_on_c, 3, 106, 100
6, 149280, Note_off_c, 3, 90, 0
6, 149280, Note_off_c, 3, 94, 0
6, 149280, Note_off_c, 3, 102, 0
6, 149280, Note_off_c, 3, 106, 0
6, 149280, Note_on_c, 3, 92, 100
6, 149280, Note_on_c, 3, 96, 100
6, 149280, Note_on_c, 3, 104, 100
6, 149280, Note_on_c, 3, 108, 100
6, 149310, Note_off_c, 3, 92, 0
6, 149310, Note_off_c, 3, 96, 0
6, 149310, Note_off_c, 3, 104, 0
6, 149310, Note_off_c, 3, 108, 0
6, 149310, Note_on_c, 3, 92, 100
6, 149310, Note_on_c, 3, 96, 100
6, 149310, Note_on_c, 3, 104, 100
6, 149310, Note_on_c, 3, 108, 100
6, 149340, Note_off_c, 3, 92, 0
6, 149340, Note_off_c, 3, 96, 0
6, 149340, Note_off_c, 3, 104, 0
6, 149340, Note_off_c, 3, 108, 0
6, 149340, Note_on_c, 3, 92, 100
6, 149340, Note_on_c, 3, 96, 100
6, 149340, Note_on_c, 3, 104, 100
6, 149340, Note_on_c, 3, 108, 100
6, 149370, Note_off_c, 3, 92, 0
6, 149370, Note_off_c, 3, 96, 0
6, 149370, Note_off_c, 3, 104, 0
6, 149370, Note_off_c, 3, 108, 0
6, 149370, Note_on_c, 3, 92, 100
6, 149370, Note_on_c, 3, 96, 100
6, 149370, Note_on_c, 3, 104, 100
6, 149370, Note_on_c, 3, 108, 100
6, 149400, Note_off_c, 3, 92, 0
6, 149400, Note_off_c, 3, 96, 0
6, 149400, Note_off_c, 3, 104, 0
6, 149400, Note_off_c, 3, 108, 0
6, 149400, Note_on_c, 3, 92, 100
6, 149400, Note_on_c, 3, 96, 100
6, 149400, Note_on_c, 3, 104, 100
6, 149400, Note_on_c, 3, 108, 100
6, 149430, Note_off_c, 3, 92, 0
6, 149430, Note_off_c, 3, 96, 0
6, 149430, Note_off_c, 3, 104, 0
6, 149430, Note_off_c, 3, 108, 0
6, 149430, Note_on_c, 3, 92, 100
6, 149430, Note_on_c, 3, 96, 100
6, 149430, Note_on_c, 3, 104, 100
6, 149430, Note_on_c, 3, 108, 100
6, 149460, Note_off_c, 3, 92, 0
6, 149460, Note_off_c, 3, 96, 0
6, 149460, Note_off_c, 3, 104, 0
6, 149460, Note_off_c, 3, 108, 0
6, 149460, Note_on_c, 3, 92, 100
6, 149460, Note_on_c, 3, 96, 100
6, 149460, Note_on_c, 3, 104, 100
6, 149460, Note_on_c, 3, 108, 100
6, 149490, Note_off_c, 3, 92, 0
6, 149490, Note_off_c, 3, 96, 0
6, 149490, Note_off_c, 3, 104, 0
6, 149490, Note_off_c, 3, 108, 0
6, 149490, Note_on_c, 3, 92, 100
6, 149490, Note_on_c, 3, 96, 100
6, 149490, Note_on_c, 3, 104, 100
6, 149490, Note_on_c, 3, 108, 100
6, 149520, Note_off_c, 3, 92, 0
6, 149520, Note_off_c, 3, 96, 0
6, 149520, Note_off_c, 3, 104, 0
6, 149520, Note_off_c, 3, 108, 0
6, 149520, Note_on_c, 3, 92, 100
6, 149520, Note_on_c, 3, 96, 100
6, 149520, Note_on_c, 3, 104, 100
6, 149520, Note_on_c, 3, 108, 100
6, 149550, Note_off_c, 3, 92, 0
6, 149550, Note_off_c, 3, 96, 0
6, 149550, Note_off_c, 3, 104, 0
6, 149550, Note_off_c, 3, 108, 0
6, 149550, Note_on_c, 3, 92, 100
6, 149550, Note_on_c, 3, 96, 100
6, 149550, Note_on_c, 3, 104, 100
6, 149550, Note_on_c, 3, 108, 100
6, 149580, Note_off_c, 3, 92, 0
6, 149580, Note_off_c, 3, 96, 0
6, 149580, Note_off_c, 3, 104, 0
6, 149580, Note_off_c, 3, 108, 0
6, 149580, Note_on_c, 3, 92, 100
6, 149580, Note_on_c, 3, 96, 100
6, 149580, Note_on_c, 3, 104, 100
6, 149580, Note_on_c, 3, 108, 100
6, 149610, Note_off_c, 3, 92, 0
6, 149610, Note_off_c, 3, 96, 0
6, 149610, Note_off_c, 3, 104, 0
6, 149610, Note_off_c, 3, 108, 0
6, 149610, Note_on_c, 3, 92, 100
6, 149610, Note_on_c, 3, 96, 100
6, 149610, Note_on_c, 3, 104, 100
6, 149610, Note_on_c, 3, 108, 100
6, 149640, Note_off_c, 3, 92, 0
6, 149640, Note_off_c, 3, 96, 0
6, 149640, Note_off_c, 3, 104, 0
6, 149640, Note_off_c, 3, 108, 0
6, 149640, Note_on_c, 3, 92, 100
6, 149640, Note_on_c, 3, 96, 100
6, 149640, Note_on_c, 3, 104, 100
6, 149640, Note_on_c, 3, 108, 100
6, 149670, Note_off_c, 3, 92, 0
6, 149670, Note_off_c, 3, 96, 0
6, 149670, Note_off_c, 3, 104, 0
6, 149670, Note_off_c, 3, 108, 0
6, 149670, Note_on_c, 3, 92, 100
6, 149670, Note_on_c, 3, 96, 100
6, 149670, Note_on_c, 3, 104, 100
6, 149670, Note_on_c, 3, 108, 100
6, 149700, Note_off_c, 3, 92, 0
6, 149700, Note_off_c, 3, 96, 0
6, 149700, Note_off_c, 3, 104, 0
6, 149700, Note_off_c, 3, 108, 0
6, 149700, Note_on_c, 3, 92, 100
6, 149700, Note_on_c, 3, 96, 100
6, 149700, Note_on_c, 3, 104, 100
6, 149700, Note_on_c, 3, 108, 100
6, 149730, Note_off_c, 3, 92, 0
6, 149730, Note_off_c, 3, 96, 0
6, 149730, Note_off_c, 3, 104, 0
6, 149730, Note_off_c, 3, 108, 0
6, 149730, Note_on_c, 3, 92, 100
6, 149730, Note_on_c, 3, 96, 100
6, 149730, Note_on_c, 3, 104, 100
6, 149730, Note_on_c, 3, 108, 100
6, 149760, Note_off_c, 3, 92, 0
6, 149760, Note_off_c, 3, 96, 0
6, 149760, Note_off_c, 3, 104, 0
6, 149760, Note_off_c, 3, 108, 0
6, 149760, Note_on_c, 3, 92, 100
6, 149760, Note_on_c, 3, 96, 100
6, 149760, Note_on_c, 3, 104, 100
6, 149760, Note_on_c, 3, 108, 100
6, 149790, Note_off_c, 3, 92, 0
6, 149790, Note_off_c, 3, 96, 0
6, 149790, Note_off_c, 3, 104, 0
6, 149790, Note_off_c, 3, 108, 0
6, 149790, Note_on_c, 3, 92, 100
6, 149790, Note_on_c, 3, 96, 100
6, 149790, Note_on_c, 3, 104, 100
6, 149790, Note_on_c, 3, 108, 100
6, 149820, Note_off_c, 3, 92, 0
6, 149820, Note_off_c, 3, 96, 0
6, 149820, Note_off_c, 3, 104, 0
6, 149820, Note_off_c, 3, 108, 0
6, 149820, Note_on_c, 3, 92, 100
6, 149820, Note_on_c, 3, 96, 100
6, 149820, Note_on_c, 3, 104, 100
6, 149820, Note_on_c, 3, 108, 100
6, 149850, Note_off_c, 3, 92, 0
6, 149850, Note_off_c, 3, 96, 0
6, 149850, Note_off_c, 3, 104, 0
6, 149850, Note_off_c, 3, 108, 0
6, 149850, Note_on_c, 3, 92, 100
6, 149850, Note_on_c, 3, 96, 100
6, 149850, Note_on_c, 3, 104, 100
6, 149850, Note_on_c, 3, 108, 100
6, 149880, Note_off_c, 3, 92, 0
6, 149880, Note_off_c, 3, 96, 0
6, 149880, Note_off_c, 3, 104, 0
6, 149880, Note_off_c, 3, 108, 0
6, 149880, Note_on_c, 3, 92, 100
6, 149880, Note_on_c, 3, 96, 100
6, 149880, Note_on_c, 3, 104, 100
6, 149880, Note_on_c, 3, 108, 100
6, 149910, Note_off_c, 3, 92, 0
6, 149910, Note_off_c, 3, 96, 0
6, 149910, Note_off_c, 3, 104, 0
6, 149910, Note_off_c, 3, 108, 0
6, 149910, Note_on_c, 3, 92, 100
6, 149910, Note_on_c, 3, 96, 100
6, 149910, Note_on_c, 3, 104, 100
6, 149910, Note_on_c, 3, 108, 100
6, 149940, Note_off_c, 3, 92, 0
6, 149940, Note_off_c, 3, 96, 0
6, 149940, Note_off_c, 3, 104, 0
6, 149940, Note_off_c, 3, 108, 0
6, 149940, Note_on_c, 3, 92, 100
6, 149940, Note_on_c, 3, 96, 100
6, 149940, Note_on_c, 3, 104, 100
6, 149940, Note_on_c, 3, 108, 100
6, 149970, Note_off_c, 3, 92, 0
6, 149970, Note_off_c, 3, 96, 0
6, 149970, Note_off_c, 3, 104, 0
6, 149970, Note_off_c, 3, 108, 0
6, 149970, Note_on_c, 3, 92, 100
6, 149970, Note_on_c, 3, 96, 100
6, 149970, Note_on_c, 3, 104, 100
6, 149970, Note_on_c, 3, 108, 100
6, 150000, Note_off_c, 3, 92, 0
6, 150000, Note_off_c, 3, 96, 0
6, 150000, Note_off_c, 3, 104, 0
6, 150000, Note_off_c, 3, 108, 0
6, 150000, Note_on_c, 3, 92, 100
6, 150000, Note_on_c, 3, 96, 100
6, 150000, Note_on_c, 3, 104, 100
6, 150000, Note_on_c, 3, 108, 100
6, 150030, Note_off_c, 3, 92, 0
6, 150030, Note_off_c, 3, 96, 0
6, 150030, Note_off_c, 3, 104, 0
6, 150030, Note_off_c, 3, 108, 0
6, 150030, Note_on_c, 3, 92, 100
6, 150030, Note_on_c, 3, 96, 100
6, 150030, Note_on_c, 3, 104, 100
6, 150030, Note_on_c, 3, 108, 100
6, 150060, Note_off_c, 3, 92, 0
6, 150060, Note_off_c, 3, 96, 0
6, 150060, Note_off_c, 3, 104, 0
6, 150060, Note_off_c, 3, 108, 0
6, 150060, Note_on_c, 3, 92, 100
6, 150060, Note_on_c, 3, 96, 100
6, 150060, Note_on_c, 3, 104, 100
6, 150060, Note_on_c, 3, 108, 100
6, 150090, Note_off_c, 3, 92, 0
6, 150090, Note_off_c, 3, 96, 0
6, 150090, Note_off_c, 3, 104, 0
6, 150090, Note_off_c, 3, 108, 0
6, 150090, Note_on_c, 3, 92, 100
6, 150090, Note_on_c, 3, 96, 100
6, 150090, Note_on_c, 3, 104, 100
6, 150090, Note_on_c, 3, 108, 100
6, 150120, Note_off_c, 3, 92, 0
6, 150120, Note_off_c, 3, 96, 0
6, 150120, Note_off_c, 3, 104, 0
6, 150120, Note_off_c, 3, 108, 0
6, 150120, Note_on_c, 3, 92, 100
6, 150120, Note_on_c, 3, 96, 100
6, 150120, Note_on_c, 3, 104, 100
6, 150120, Note_on_c, 3, 108, 100
6, 150150, Note_off_c, 3, 92, 0
6, 150150, Note_off_c, 3, 96, 0
6, 150150, Note_off_c, 3, 104, 0
6, 150150, Note_off_c, 3, 108, 0
6, 150150, Note_on_c, 3, 92, 100
6, 150150, Note_on_c, 3, 96, 100
6, 150150, Note_on_c, 3, 104, 100
6, 150150, Note_on_c, 3, 108, 100
6, 150180, Note_off_c, 3, 92, 0
6, 150180, Note_off_c, 3, 96, 0
6, 150180, Note_off_c, 3, 104, 0
6, 150180, Note_off_c, 3, 108, 0
6, 150180, Note_on_c, 3, 92, 100
6, 150180, Note_on_c, 3, 96, 100
6, 150180, Note_on_c, 3, 104, 100
6, 150180, Note_on_c, 3, 108, 100
6, 150210, Note_off_c, 3, 92, 0
6, 150210, Note_off_c, 3, 96, 0
6, 150210, Note_off_c, 3, 104, 0
6, 150210, Note_off_c, 3, 108, 0
6, 150210, Note_on_c, 3, 92, 100
6, 150210, Note_on_c, 3, 96, 100
6, 150210, Note_on_c, 3, 104, 100
6, 150210, Note_on_c, 3, 108, 100
6, 150240, Note_off_c, 3, 92, 0
6, 150240, Note_off_c, 3, 96, 0
6, 150240, Note_off_c, 3, 104, 0
6, 150240, Note_off_c, 3, 108, 0
6, 150240, Note_on_c, 3, 90, 100
6, 150240, Note_on_c, 3, 94, 100
6, 150240, Note_on_c, 3, 102, 100
6, 150240, Note_on_c, 3, 106, 100
6, 150270, Note_off_c, 3, 90, 0
6, 150270, Note_off_c, 3, 94, 0
6, 150270, Note_off_c, 3, 102, 0
6, 150270, Note_off_c, 3, 106, 0
6, 150270, Note_on_c, 3, 90, 100
6, 150270, Note_on_c, 3, 94, 100
6, 150270, Note_on_c, 3, 102, 100
6, 150270, Note_on_c, 3, 106, 100
6, 150300, Note_off_c, 3, 90, 0
6, 150300, Note_off_c, 3, 94, 0
6, 150300, Note_off_c, 3, 102, 0
6, 150300, Note_off_c, 3, 106, 0
6, 150300, Note_on_c, 3, 90, 100
6, 150300, Note_on_c, 3, 94, 100
6, 150300, Note_on_c, 3, 102, 100
6, 150300, Note_on_c, 3, 106, 100
6, 150330, Note_off_c, 3, 90, 0
6, 150330, Note_off_c, 3, 94, 0
6, 150330, Note_off_c, 3, 102, 0
6, 150330, Note_off_c, 3, 106, 0
6, 150330, Note_on_c, 3, 90, 100
6, 150330, Note_on_c, 3, 94, 100
6, 150330, Note_on_c, 3, 102, 100
6, 150330, Note_on_c, 3, 106, 100
6, 150360, Note_off_c, 3, 90, 0
6, 150360, Note_off_c, 3, 94, 0
6, 150360, Note_off_c, 3, 102, 0
6, 150360, Note_off_c, 3, 106, 0
6, 150360, Note_on_c, 3, 90, 100
6, 150360, Note_on_c, 3, 94, 100
6, 150360, Note_on_c, 3, 102, 100
6, 150360, Note_on_c, 3, 106, 100
6, 150390, Note_off_c, 3, 90, 0
6, 150390, Note_off_c, 3, 94, 0
6, 150390, Note_off_c, 3, 102, 0
6, 150390, Note_off_c, 3, 106, 0
6, 150390, Note_on_c, 3, 90, 100
6, 150390, Note_on_c, 3, 94, 100
6, 150390, Note_on_c, 3, 102, 100
6, 150390, Note_on_c, 3, 106, 100
6, 150420, Note_off_c, 3, 90, 0
6, 150420, Note_off_c, 3, 94, 0
6, 150420, Note_off_c, 3, 102, 0
6, 150420, Note_off_c, 3, 106, 0
6, 150420, Note_on_c, 3, 90, 100
6, 150420, Note_on_c, 3, 94, 100
6, 150420, Note_on_c, 3, 102, 100
6, 150420, Note_on_c, 3, 106, 100
6, 150450, Note_off_c, 3, 90, 0
6, 150450, Note_off_c, 3, 94, 0
6, 150450, Note_off_c, 3, 102, 0
6, 150450, Note_off_c, 3, 106, 0
6, 150450, Note_on_c, 3, 90, 100
6, 150450, Note_on_c, 3, 94, 100
6, 150450, Note_on_c, 3, 102, 100
6, 150450, Note_on_c, 3, 106, 100
6, 150480, Note_off_c, 3, 90, 0
6, 150480, Note_off_c, 3, 94, 0
6, 150480, Note_off_c, 3, 102, 0
6, 150480, Note_off_c, 3, 106, 0
6, 150480, Note_on_c, 3, 90, 100
6, 150480, Note_on_c, 3, 94, 100
6, 150480, Note_on_c, 3, 102, 100
6, 150480, Note_on_c, 3, 106, 100
6, 150510, Note_off_c, 3, 90, 0
6, 150510, Note_off_c, 3, 94, 0
6, 150510, Note_off_c, 3, 102, 0
6, 150510, Note_off_c, 3, 106, 0
6, 150510, Note_on_c, 3, 90, 100
6, 150510, Note_on_c, 3, 94, 100
6, 150510, Note_on_c, 3, 102, 100
6, 150510, Note_on_c, 3, 106, 100
6, 150540, Note_off_c, 3, 90, 0
6, 150540, Note_off_c, 3, 94, 0
6, 150540, Note_off_c, 3, 102, 0
6, 150540, Note_off_c, 3, 106, 0
6, 150540, Note_on_c, 3, 90, 100
6, 150540, Note_on_c, 3, 94, 100
6, 150540, Note_on_c, 3, 102, 100
6, 150540, Note_on_c, 3, 106, 100
6, 150570, Note_off_c, 3, 90, 0
6, 150570, Note_off_c, 3, 94, 0
6, 150570, Note_off_c, 3, 102, 0
6, 150570, Note_off_c, 3, 106, 0
6, 150570, Note_on_c, 3, 90, 100
6, 150570, Note_on_c, 3, 94, 100
6, 150570, Note_on_c, 3, 102, 100
6, 150570, Note_on_c, 3, 106, 100
6, 150600, Note_off_c, 3, 90, 0
6, 150600, Note_off_c, 3, 94, 0
6, 150600, Note_off_c, 3, 102, 0
6, 150600, Note_off_c, 3, 106, 0
6, 150600, Note_on_c, 3, 90, 100
6, 150600, Note_on_c, 3, 94, 100
6, 150600, Note_on_c, 3, 102, 100
6, 150600, Note_on_c, 3, 106, 100
6, 150630, Note_off_c, 3, 90, 0
6, 150630, Note_off_c, 3, 94, 0
6, 150630, Note_off_c, 3, 102, 0
6, 150630, Note_off_c, 3, 106, 0
6, 150630, Note_on_c, 3, 90, 100
6, 150630, Note_on_c, 3, 94, 100
6, 150630, Note_on_c, 3, 102, 100
6, 150630, Note_on_c, 3, 106, 100
6, 150660, Note_off_c, 3, 90, 0
6, 150660, Note_off_c, 3, 94, 0
6, 150660, Note_off_c, 3, 102, 0
6, 150660, Note_off_c, 3, 106, 0
6, 150660, Note_on_c, 3, 90, 100
6, 150660, Note_on_c, 3, 94, 100
6, 150660, Note_on_c, 3, 102, 100
6, 150660, Note_on_c, 3, 106, 100
6, 150690, Note_off_c, 3, 90, 0
6, 150690, Note_off_c, 3, 94, 0
6, 150690, Note_off_c, 3, 102, 0
6, 150690, Note_off_c, 3, 106, 0
6, 150690, Note_on_c, 3, 90, 100
6, 150690, Note_on_c, 3, 94, 100
6, 150690, Note_on_c, 3, 102, 100
6, 150690, Note_on_c, 3, 106, 100
6, 150720, Note_off_c, 3, 90, 0
6, 150720, Note_off_c, 3, 94, 0
6, 150720, Note_off_c, 3, 102, 0
6, 150720, Note_off_c, 3, 106, 0
6, 150720, Note_on_c, 3, 90, 100
6, 150720, Note_on_c, 3, 94, 100
6, 150720, Note_on_c, 3, 102, 100
6, 150720, Note_on_c, 3, 106, 100
6, 150750, Note_off_c, 3, 90, 0
6, 150750, Note_off_c, 3, 94, 0
6, 150750, Note_off_c, 3, 102, 0
6, 150750, Note_off_c, 3, 106, 0
6, 150750, Note_on_c, 3, 90, 100
6, 150750, Note_on_c, 3, 94, 100
6, 150750, Note_on_c, 3, 102, 100
6, 150750, Note_on_c, 3, 106, 100
6, 150780, Note_off_c, 3, 90, 0
6, 150780, Note_off_c, 3, 94, 0
6, 150780, Note_off_c, 3, 102, 0
6, 150780, Note_off_c, 3, 106, 0
6, 150780, Note_on_c, 3, 90, 100
6, 150780, Note_on_c, 3, 94, 100
6, 150780, Note_on_c, 3, 102, 100
6, 150780, Note_on_c, 3, 106, 100
6, 150810, Note_off_c, 3, 90, 0
6, 150810, Note_off_c, 3, 94, 0
6, 150810, Note_off_c, 3, 102, 0
6, 150810, Note_off_c, 3, 106, 0
6, 150810, Note_on_c, 3, 90, 100
6, 150810, Note_on_c, 3, 94, 100
6, 150810, Note_on_c, 3, 102, 100
6, 150810, Note_on_c, 3, 106, 100
6, 150840, Note_off_c, 3, 90, 0
6, 150840, Note_off_c, 3, 94, 0
6, 150840, Note_off_c, 3, 102, 0
6, 150840, Note_off_c, 3, 106, 0
6, 150840, Note_on_c, 3, 90, 100
6, 150840, Note_on_c, 3, 94, 100
6, 150840, Note_on_c, 3, 102, 100
6, 150840, Note_on_c, 3, 106, 100
6, 150870, Note_off_c, 3, 90, 0
6, 150870, Note_off_c, 3, 94, 0
6, 150870, Note_off_c, 3, 102, 0
6, 150870, Note_off_c, 3, 106, 0
6, 150870, Note_on_c, 3, 90, 100
6, 150870, Note_on_c, 3, 94, 100
6, 150870, Note_on_c, 3, 102, 100
6, 150870, Note_on_c, 3, 106, 100
6, 150900, Note_off_c, 3, 90, 0
6, 150900, Note_off_c, 3, 94, 0
6, 150900, Note_off_c, 3, 102, 0
6, 150900, Note_off_c, 3, 106, 0
6, 150900, Note_on_c, 3, 90, 100
6, 150900, Note_on_c, 3, 94, 100
6, 150900, Note_on_c, 3, 102, 100
6, 150900, Note_on_c, 3, 106, 100
6, 150930, Note_off_c, 3, 90, 0
6, 150930, Note_off_c, 3, 94, 0
6, 150930, Note_off_c, 3, 102, 0
6, 150930, Note_off_c, 3, 106, 0
6, 150930, Note_on_c, 3, 90, 100
6, 150930, Note_on_c, 3, 94, 100
6, 150930, Note_on_c, 3, 102, 100
6, 150930, Note_on_c, 3, 106, 100
6, 150960, Note_off_c, 3, 90, 0
6, 150960, Note_off_c, 3, 94, 0
6, 150960, Note_off_c, 3, 102, 0
6, 150960, Note_off_c, 3, 106, 0
6, 150960, Note_on_c, 3, 90, 100
6, 150960, Note_on_c, 3, 94, 100
6, 150960, Note_on_c, 3, 102, 100
6, 150960, Note_on_c, 3, 106, 100
6, 150990, Note_off_c, 3, 90, 0
6, 150990, Note_off_c, 3, 94, 0
6, 150990, Note_off_c, 3, 102, 0
6, 150990, Note_off_c, 3, 106, 0
6, 150990, Note_on_c, 3, 90, 100
6, 150990, Note_on_c, 3, 94, 100
6, 150990, Note_on_c, 3, 102, 100
6, 150990, Note_on_c, 3, 106, 100
6, 151020, Note_off_c, 3, 90, 0
6, 151020, Note_off_c, 3, 94, 0
6, 151020, Note_off_c, 3, 102, 0
6, 151020, Note_off_c, 3, 106, 0
6, 151020, Note_on_c, 3, 90, 100
6, 151020, Note_on_c, 3, 94, 100
6, 151020, Note_on_c, 3, 102, 100
6, 151020, Note_on_c, 3, 106, 100
6, 151050, Note_off_c, 3, 90, 0
6, 151050, Note_off_c, 3, 94, 0
6, 151050, Note_off_c, 3, 102, 0
6, 151050, Note_off_c, 3, 106, 0
6, 151050, Note_on_c, 3, 90, 100
6, 151050, Note_on_c, 3, 94, 100
6, 151050, Note_on_c, 3, 102, 100
6, 151050, Note_on_c, 3, 106, 100
6, 151080, Note_off_c, 3, 90, 0
6, 151080, Note_off_c, 3, 94, 0
6, 151080, Note_off_c, 3, 102, 0
6, 151080, Note_off_c, 3, 106, 0
6, 151080, Note_on_c, 3, 90, 100
6, 151080, Note_on_c, 3, 94, 100
6, 151080, Note_on_c, 3, 102, 100
6, 151080, Note_on_c, 3, 106, 100
6, 151110, Note_off_c, 3, 90, 0
6, 151110, Note_off_c, 3, 94, 0
6, 151110, Note_off_c, 3, 102, 0
6, 151110, Note_off_c, 3, 106, 0
6, 151110, Note_on_c, 3, 90, 100
6, 151110, Note_on_c, 3, 94, 100
6, 151110, Note_on_c, 3, 102, 100
6, 151110, Note_on_c, 3, 106, 100
6, 151140, Note_off_c, 3, 90, 0
6, 151140, Note_off_c, 3, 94, 0
6, 151140, Note_off_c, 3, 102, 0
6, 151140, Note_off_c, 3, 106, 0
6, 151140, Note_on_c, 3, 90, 100
6, 151140, Note_on_c, 3, 94, 100
6, 151140, Note_on_c, 3, 102, 100
6, 151140, Note_on_c, 3, 106, 100
6, 151170, Note_off_c, 3, 90, 0
6, 151170, Note_off_c, 3, 94, 0
6, 151170, Note_off_c, 3, 102, 0
6, 151170, Note_off_c, 3, 106, 0
6, 151170, Note_on_c, 3, 90, 100
6, 151170, Note_on_c, 3, 94, 100
6, 151170, Note_on_c, 3, 102, 100
6, 151170, Note_on_c, 3, 106, 100
6, 151200, Note_off_c, 3, 90, 0
6, 151200, Note_off_c, 3, 94, 0
6, 151200, Note_off_c, 3, 102, 0
6, 151200, Note_off_c, 3, 106, 0
6, 151200, Note_on_c, 3, 89, 100
6, 151200, Note_on_c, 3, 93, 100
6, 151200, Note_on_c, 3, 101, 100
6, 151200, Note_on_c, 3, 105, 100
6, 151230, Note_off_c, 3, 89, 0
6, 151230, Note_off_c, 3, 93, 0
6, 151230, Note_off_c, 3, 101, 0
6, 151230, Note_off_c, 3, 105, 0
6, 151230, Note_on_c, 3, 89, 100
6, 151230, Note_on_c, 3, 93, 100
6, 151230, Note_on_c, 3, 101, 100
6, 151230, Note_on_c, 3, 105, 100
6, 151260, Note_off_c, 3, 89, 0
6, 151260, Note_off_c, 3, 93, 0
6, 151260, Note_off_c, 3, 101, 0
6, 151260, Note_off_c, 3, 105, 0
6, 151260, Note_on_c, 3, 89, 100
6, 151260, Note_on_c, 3, 93, 100
6, 151260, Note_on_c, 3, 101, 100
6, 151260, Note_on_c, 3, 105, 100
6, 151290, Note_off_c, 3, 89, 0
6, 151290, Note_off_c, 3, 93, 0
6, 151290, Note_off_c, 3, 101, 0
6, 151290, Note_off_c, 3, 105, 0
6, 151290, Note_on_c, 3, 89, 100
6, 151290, Note_on_c, 3, 93, 100
6, 151290, Note_on_c, 3, 101, 100
6, 151290, Note_on_c, 3, 105, 100
6, 151320, Note_off_c, 3, 89, 0
6, 151320, Note_off_c, 3, 93, 0
6, 151320, Note_off_c, 3, 101, 0
6, 151320, Note_off_c, 3, 105, 0
6, 151320, Note_on_c, 3, 89, 100
6, 151320, Note_on_c, 3, 93, 100
6, 151320, Note_on_c, 3, 101, 100
6, 151320, Note_on_c, 3, 105, 100
6, 151350, Note_off_c, 3, 89, 0
6, 151350, Note_off_c, 3, 93, 0
6, 151350, Note_off_c, 3, 101, 0
6, 151350, Note_off_c, 3, 105, 0
6, 151350, Note_on_c, 3, 89, 100
6, 151350, Note_on_c, 3, 93, 100
6, 151350, Note_on_c, 3, 101, 100
6, 151350, Note_on_c, 3, 105, 100
6, 151380, Note_off_c, 3, 89, 0
6, 151380, Note_off_c, 3, 93, 0
6, 151380, Note_off_c, 3, 101, 0
6, 151380, Note_off_c, 3, 105, 0
6, 151380, Note_on_c, 3, 89, 100
6, 151380, Note_on_c, 3, 93, 100
6, 151380, Note_on_c, 3, 101, 100
6, 151380, Note_on_c, 3, 105, 100
6, 151410, Note_off_c, 3, 89, 0
6, 151410, Note_off_c, 3, 93, 0
6, 151410, Note_off_c, 3, 101, 0
6, 151410, Note_off_c, 3, 105, 0
6, 151410, Note_on_c, 3, 89, 100
6, 151410, Note_on_c, 3, 93, 100
6, 151410, Note_on_c, 3, 101, 100
6, 151410, Note_on_c, 3, 105, 100
6, 151440, Note_off_c, 3, 89, 0
6, 151440, Note_off_c, 3, 93, 0
6, 151440, Note_off_c, 3, 101, 0
6, 151440, Note_off_c, 3, 105, 0
6, 151440, Note_on_c, 3, 89, 100
6, 151440, Note_on_c, 3, 93, 100
6, 151440, Note_on_c, 3, 101, 100
6, 151440, Note_on_c, 3, 105, 100
6, 151470, Note_off_c, 3, 89, 0
6, 151470, Note_off_c, 3, 93, 0
6, 151470, Note_off_c, 3, 101, 0
6, 151470, Note_off_c, 3, 105, 0
6, 151470, Note_on_c, 3, 89, 100
6, 151470, Note_on_c, 3, 93, 100
6, 151470, Note_on_c, 3, 101, 100
6, 151470, Note_on_c, 3, 105, 100
6, 151500, Note_off_c, 3, 89, 0
6, 151500, Note_off_c, 3, 93, 0
6, 151500, Note_off_c, 3, 101, 0
6, 151500, Note_off_c, 3, 105, 0
6, 151500, Note_on_c, 3, 89, 100
6, 151500, Note_on_c, 3, 93, 100
6, 151500, Note_on_c, 3, 101, 100
6, 151500, Note_on_c, 3, 105, 100
6, 151530, Note_off_c, 3, 89, 0
6, 151530, Note_off_c, 3, 93, 0
6, 151530, Note_off_c, 3, 101, 0
6, 151530, Note_off_c, 3, 105, 0
6, 151530, Note_on_c, 3, 89, 100
6, 151530, Note_on_c, 3, 93, 100
6, 151530, Note_on_c, 3, 101, 100
6, 151530, Note_on_c, 3, 105, 100
6, 151560, Note_off_c, 3, 89, 0
6, 151560, Note_off_c, 3, 93, 0
6, 151560, Note_off_c, 3, 101, 0
6, 151560, Note_off_c, 3, 105, 0
6, 151560, Note_on_c, 3, 89, 100
6, 151560, Note_on_c, 3, 93, 100
6, 151560, Note_on_c, 3, 101, 100
6, 151560, Note_on_c, 3, 105, 100
6, 151590, Note_off_c, 3, 89, 0
6, 151590, Note_off_c, 3, 93, 0
6, 151590, Note_off_c, 3, 101, 0
6, 151590, Note_off_c, 3, 105, 0
6, 151590, Note_on_c, 3, 89, 100
6, 151590, Note_on_c, 3, 93, 100
6, 151590, Note_on_c, 3, 101, 100
6, 151590, Note_on_c, 3, 105, 100
6, 151620, Note_off_c, 3, 89, 0
6, 151620, Note_off_c, 3, 93, 0
6, 151620, Note_off_c, 3, 101, 0
6, 151620, Note_off_c, 3, 105, 0
6, 151620, Note_on_c, 3, 89, 100
6, 151620, Note_on_c, 3, 93, 100
6, 151620, Note_on_c, 3, 101, 100
6, 151620, Note_on_c, 3, 105, 100
6, 151650, Note_off_c, 3, 89, 0
6, 151650, Note_off_c, 3, 93, 0
6, 151650, Note_off_c, 3, 101, 0
6, 151650, Note_off_c, 3, 105, 0
6, 151650, Note_on_c, 3, 89, 100
6, 151650, Note_on_c, 3, 93, 100
6, 151650, Note_on_c, 3, 101, 100
6, 151650, Note_on_c, 3, 105, 100
6, 151680, Note_off_c, 3, 89, 0
6, 151680, Note_off_c, 3, 93, 0
6, 151680, Note_off_c, 3, 101, 0
6, 151680, Note_off_c, 3, 105, 0
6, 151680, Note_on_c, 3, 89, 100
6, 151680, Note_on_c, 3, 93, 100
6, 151680, Note_on_c, 3, 101, 100
6, 151680, Note_on_c, 3, 105, 100
6, 151710, Note_off_c, 3, 89, 0
6, 151710, Note_off_c, 3, 93, 0
6, 151710, Note_off_c, 3, 101, 0
6, 151710, Note_off_c, 3, 105, 0
6, 151710, Note_on_c, 3, 89, 100
6, 151710, Note_on_c, 3, 93, 100
6, 151710, Note_on_c, 3, 101, 100
6, 151710, Note_on_c, 3, 105, 100
6, 151740, Note_off_c, 3, 89, 0
6, 151740, Note_off_c, 3, 93, 0
6, 151740, Note_off_c, 3, 101, 0
6, 151740, Note_off_c, 3, 105, 0
6, 151740, Note_on_c, 3, 89, 100
6, 151740, Note_on_c, 3, 93, 100
6, 151740, Note_on_c, 3, 101, 100
6, 151740, Note_on_c, 3, 105, 100
6, 151770, Note_off_c, 3, 89, 0
6, 151770, Note_off_c, 3, 93, 0
6, 151770, Note_off_c, 3, 101, 0
6, 151770, Note_off_c, 3, 105, 0
6, 151770, Note_on_c, 3, 89, 100
6, 151770, Note_on_c, 3, 93, 100
6, 151770, Note_on_c, 3, 101, 100
6, 151770, Note_on_c, 3, 105, 100
6, 151800, Note_off_c, 3, 89, 0
6, 151800, Note_off_c, 3, 93, 0
6, 151800, Note_off_c, 3, 101, 0
6, 151800, Note_off_c, 3, 105, 0
6, 151800, Note_on_c, 3, 89, 100
6, 151800, Note_on_c, 3, 93, 100
6, 151800, Note_on_c, 3, 101, 100
6, 151800, Note_on_c, 3, 105, 100
6, 151830, Note_off_c, 3, 89, 0
6, 151830, Note_off_c, 3, 93, 0
6, 151830, Note_off_c, 3, 101, 0
6, 151830, Note_off_c, 3, 105, 0
6, 151830, Note_on_c, 3, 89, 100
6, 151830, Note_on_c, 3, 93, 100
6, 151830, Note_on_c, 3, 101, 100
6, 151830, Note_on_c, 3, 105, 100
6, 151860, Note_off_c, 3, 89, 0
6, 151860, Note_off_c, 3, 93, 0
6, 151860, Note_off_c, 3, 101, 0
6, 151860, Note_off_c, 3, 105, 0
6, 151860, Note_on_c, 3, 89, 100
6, 151860, Note_on_c, 3, 93, 100
6, 151860, Note_on_c, 3, 101, 100
6, 151860, Note_on_c, 3, 105, 100
6, 151890, Note_off_c, 3, 89, 0
6, 151890, Note_off_c, 3, 93, 0
6, 151890, Note_off_c, 3, 101, 0
6, 151890, Note_off_c, 3, 105, 0
6, 151890, Note_on_c, 3, 89, 100
6, 151890, Note_on_c, 3, 93, 100
6, 151890, Note_on_c, 3, 101, 100
6, 151890, Note_on_c, 3, 105, 100
6, 151920, Note_off_c, 3, 89, 0
6, 151920, Note_off_c, 3, 93, 0
6, 151920, Note_off_c, 3, 101, 0
6, 151920, Note_off_c, 3, 105, 0
6, 151920, Note_on_c, 3, 89, 100
6, 151920, Note_on_c, 3, 93, 100
6, 151920, Note_on_c, 3, 101, 100
6, 151920, Note_on_c, 3, 105, 100
6, 151950, Note_off_c, 3, 89, 0
6, 151950, Note_off_c, 3, 93, 0
6, 151950, Note_off_c, 3, 101, 0
6, 151950, Note_off_c, 3, 105, 0
6, 151950, Note_on_c, 3, 89, 100
6, 151950, Note_on_c, 3, 93, 100
6, 151950, Note_on_c, 3, 101, 100
6, 151950, Note_on_c, 3, 105, 100
6, 151980, Note_off_c, 3, 89, 0
6, 151980, Note_off_c, 3, 93, 0
6, 151980, Note_off_c, 3, 101, 0
6, 151980, Note_off_c, 3, 105, 0
6, 151980, Note_on_c, 3, 89, 100
6, 151980, Note_on_c, 3, 93, 100
6, 151980, Note_on_c, 3, 101, 100
6, 151980, Note_on_c, 3, 105, 100
6, 152010, Note_off_c, 3, 89, 0
6, 152010, Note_off_c, 3, 93, 0
6, 152010, Note_off_c, 3, 101, 0
6, 152010, Note_off_c, 3, 105, 0
6, 152010, Note_on_c, 3, 89, 100
6, 152010, Note_on_c, 3, 93, 100
6, 152010, Note_on_c, 3, 101, 100
6, 152010, Note_on_c, 3, 105, 100
6, 152040, Note_off_c, 3, 89, 0
6, 152040, Note_off_c, 3, 93, 0
6, 152040, Note_off_c, 3, 101, 0
6, 152040, Note_off_c, 3, 105, 0
6, 152040, Note_on_c, 3, 89, 100
6, 152040, Note_on_c, 3, 93, 100
6, 152040, Note_on_c, 3, 101, 100
6, 152040, Note_on_c, 3, 105, 100
6, 152070, Note_off_c, 3, 89, 0
6, 152070, Note_off_c, 3, 93, 0
6, 152070, Note_off_c, 3, 101, 0
6, 152070, Note_off_c, 3, 105, 0
6, 152070, Note_on_c, 3, 89, 100
6, 152070, Note_on_c, 3, 93, 100
6, 152070, Note_on_c, 3, 101, 100
6, 152070, Note_on_c, 3, 105, 100
6, 152100, Note_off_c, 3, 89, 0
6, 152100, Note_off_c, 3, 93, 0
6, 152100, Note_off_c, 3, 101, 0
6, 152100, Note_off_c, 3, 105, 0
6, 152100, Note_on_c, 3, 89, 100
6, 152100, Note_on_c, 3, 93, 100
6, 152100, Note_on_c, 3, 101, 100
6, 152100, Note_on_c, 3, 105, 100
6, 152130, Note_off_c, 3, 89, 0
6, 152130, Note_off_c, 3, 93, 0
6, 152130, Note_off_c, 3, 101, 0
6, 152130, Note_off_c, 3, 105, 0
6, 152130, Note_on_c, 3, 89, 100
6, 152130, Note_on_c, 3, 93, 100
6, 152130, Note_on_c, 3, 101, 100
6, 152130, Note_on_c, 3, 105, 100
6, 152160, Note_off_c, 3, 89, 0
6, 152160, Note_off_c, 3, 93, 0
6, 152160, Note_off_c, 3, 101, 0
6, 152160, Note_off_c, 3, 105, 0
6, 152160, Note_on_c, 3, 89, 100
6, 152160, Note_on_c, 3, 93, 100
6, 152160, Note_on_c, 3, 101, 100
6, 152160, Note_on_c, 3, 105, 100
6, 152190, Note_off_c, 3, 89, 0
6, 152190, Note_off_c, 3, 93, 0
6, 152190, Note_off_c, 3, 101, 0
6, 152190, Note_off_c, 3, 105, 0
6, 152190, Note_on_c, 3, 89, 100
6, 152190, Note_on_c, 3, 93, 100
6, 152190, Note_on_c, 3, 101, 100
6, 152190, Note_on_c, 3, 105, 100
6, 152220, Note_off_c, 3, 89, 0
6, 152220, Note_off_c, 3, 93, 0
6, 152220, Note_off_c, 3, 101, 0
6, 152220, Note_off_c, 3, 105, 0
6, 152220, Note_on_c, 3, 89, 100
6, 152220, Note_on_c, 3, 93, 100
6, 152220, Note_on_c, 3, 101, 100
6, 152220, Note_on_c, 3, 105, 100
6, 152250, Note_off_c, 3, 89, 0
6, 152250, Note_off_c, 3, 93, 0
6, 152250, Note_off_c, 3, 101, 0
6, 152250, Note_off_c, 3, 105, 0
6, 152250, Note_on_c, 3, 89, 100
6, 152250, Note_on_c, 3, 93, 100
6, 152250, Note_on_c, 3, 101, 100
6, 152250, Note_on_c, 3, 105, 100
6, 152280, Note_off_c, 3, 89, 0
6, 152280, Note_off_c, 3, 93, 0
6, 152280, Note_off_c, 3, 101, 0
6, 152280, Note_off_c, 3, 105, 0
6, 152280, Note_on_c, 3, 89, 100
6, 152280, Note_on_c, 3, 93, 100
6, 152280, Note_on_c, 3, 101, 100
6, 152280, Note_on_c, 3, 105, 100
6, 152310, Note_off_c, 3, 89, 0
6, 152310, Note_off_c, 3, 93, 0
6, 152310, Note_off_c, 3, 101, 0
6, 152310, Note_off_c, 3, 105, 0
6, 152310, Note_on_c, 3, 89, 100
6, 152310, Note_on_c, 3, 93, 100
6, 152310, Note_on_c, 3, 101, 100
6, 152310, Note_on_c, 3, 105, 100
6, 152340, Note_off_c, 3, 89, 0
6, 152340, Note_off_c, 3, 93, 0
6, 152340, Note_off_c, 3, 101, 0
6, 152340, Note_off_c, 3, 105, 0
6, 152340, Note_on_c, 3, 89, 100
6, 152340, Note_on_c, 3, 93, 100
6, 152340, Note_on_c, 3, 101, 100
6, 152340, Note_on_c, 3, 105, 100
6, 152370, Note_off_c, 3, 89, 0
6, 152370, Note_off_c, 3, 93, 0
6, 152370, Note_off_c, 3, 101, 0
6, 152370, Note_off_c, 3, 105, 0
6, 152370, Note_on_c, 3, 89, 100
6, 152370, Note_on_c, 3, 93, 100
6, 152370, Note_on_c, 3, 101, 100
6, 152370, Note_on_c, 3, 105, 100
6, 152400, Note_off_c, 3, 89, 0
6, 152400, Note_off_c, 3, 93, 0
6, 152400, Note_off_c, 3, 101, 0
6, 152400, Note_off_c, 3, 105, 0
6, 152400, Note_on_c, 3, 89, 100
6, 152400, Note_on_c, 3, 93, 100
6, 152400, Note_on_c, 3, 101, 100
6, 152400, Note_on_c, 3, 105, 100
6, 152430, Note_off_c, 3, 89, 0
6, 152430, Note_off_c, 3, 93, 0
6, 152430, Note_off_c, 3, 101, 0
6, 152430, Note_off_c, 3, 105, 0
6, 152430, Note_on_c, 3, 89, 100
6, 152430, Note_on_c, 3, 93, 100
6, 152430, Note_on_c, 3, 101, 100
6, 152430, Note_on_c, 3, 105, 100
6, 152460, Note_off_c, 3, 89, 0
6, 152460, Note_off_c, 3, 93, 0
6, 152460, Note_off_c, 3, 101, 0
6, 152460, Note_off_c, 3, 105, 0
6, 152460, Note_on_c, 3, 89, 100
6, 152460, Note_on_c, 3, 93, 100
6, 152460, Note_on_c, 3, 101, 100
6, 152460, Note_on_c, 3, 105, 100
6, 152490, Note_off_c, 3, 89, 0
6, 152490, Note_off_c, 3, 93, 0
6, 152490, Note_off_c, 3, 101, 0
6, 152490, Note_off_c, 3, 105, 0
6, 152490, Note_on_c, 3, 89, 100
6, 152490, Note_on_c, 3, 93, 100
6, 152490, Note_on_c, 3, 101, 100
6, 152490, Note_on_c, 3, 105, 100
6, 152520, Note_off_c, 3, 89, 0
6, 152520, Note_off_c, 3, 93, 0
6, 152520, Note_off_c, 3, 101, 0
6, 152520, Note_off_c, 3, 105, 0
6, 152520, Note_on_c, 3, 89, 100
6, 152520, Note_on_c, 3, 93, 100
6, 152520, Note_on_c, 3, 101, 100
6, 152520, Note_on_c, 3, 105, 100
6, 152550, Note_off_c, 3, 89, 0
6, 152550, Note_off_c, 3, 93, 0
6, 152550, Note_off_c, 3, 101, 0
6, 152550, Note_off_c, 3, 105, 0
6, 152550, Note_on_c, 3, 89, 100
6, 152550, Note_on_c, 3, 93, 100
6, 152550, Note_on_c, 3, 101, 100
6, 152550, Note_on_c, 3, 105, 100
6, 152580, Note_off_c, 3, 89, 0
6, 152580, Note_off_c, 3, 93, 0
6, 152580, Note_off_c, 3, 101, 0
6, 152580, Note_off_c, 3, 105, 0
6, 152580, Note_on_c, 3, 89, 100
6, 152580, Note_on_c, 3, 93, 100
6, 152580, Note_on_c, 3, 101, 100
6, 152580, Note_on_c, 3, 105, 100
6, 152610, Note_off_c, 3, 89, 0
6, 152610, Note_off_c, 3, 93, 0
6, 152610, Note_off_c, 3, 101, 0
6, 152610, Note_off_c, 3, 105, 0
6, 152610, Note_on_c, 3, 89, 100
6, 152610, Note_on_c, 3, 93, 100
6, 152610, Note_on_c, 3, 101, 100
6, 152610, Note_on_c, 3, 105, 100
6, 152640, Note_off_c, 3, 89, 0
6, 152640, Note_off_c, 3, 93, 0
6, 152640, Note_off_c, 3, 101, 0
6, 152640, Note_off_c, 3, 105, 0
6, 152640, Note_on_c, 3, 89, 100
6, 152640, Note_on_c, 3, 93, 100
6, 152640, Note_on_c, 3, 101, 100
6, 152640, Note_on_c, 3, 105, 100
6, 152670, Note_off_c, 3, 89, 0
6, 152670, Note_off_c, 3, 93, 0
6, 152670, Note_off_c, 3, 101, 0
6, 152670, Note_off_c, 3, 105, 0
6, 152670, Note_on_c, 3, 89, 100
6, 152670, Note_on_c, 3, 93, 100
6, 152670, Note_on_c, 3, 101, 100
6, 152670, Note_on_c, 3, 105, 100
6, 152700, Note_off_c, 3, 89, 0
6, 152700, Note_off_c, 3, 93, 0
6, 152700, Note_off_c, 3, 101, 0
6, 152700, Note_off_c, 3, 105, 0
6, 152700, Note_on_c, 3, 89, 100
6, 152700, Note_on_c, 3, 93, 100
6, 152700, Note_on_c, 3, 101, 100
6, 152700, Note_on_c, 3, 105, 100
6, 152730, Note_off_c, 3, 89, 0
6, 152730, Note_off_c, 3, 93, 0
6, 152730, Note_off_c, 3, 101, 0
6, 152730, Note_off_c, 3, 105, 0
6, 152730, Note_on_c, 3, 89, 100
6, 152730, Note_on_c, 3, 93, 100
6, 152730, Note_on_c, 3, 101, 100
6, 152730, Note_on_c, 3, 105, 100
6, 152760, Note_off_c, 3, 89, 0
6, 152760, Note_off_c, 3, 93, 0
6, 152760, Note_off_c, 3, 101, 0
6, 152760, Note_off_c, 3, 105, 0
6, 152760, Note_on_c, 3, 89, 100
6, 152760, Note_on_c, 3, 93, 100
6, 152760, Note_on_c, 3, 101, 100
6, 152760, Note_on_c, 3, 105, 100
6, 152790, Note_off_c, 3, 89, 0
6, 152790, Note_off_c, 3, 93, 0
6, 152790, Note_off_c, 3, 101, 0
6, 152790, Note_off_c, 3, 105, 0
6, 152790, Note_on_c, 3, 89, 100
6, 152790, Note_on_c, 3, 93, 100
6, 152790, Note_on_c, 3, 101, 100
6, 152790, Note_on_c, 3, 105, 100
6, 152820, Note_off_c, 3, 89, 0
6, 152820, Note_off_c, 3, 93, 0
6, 152820, Note_off_c, 3, 101, 0
6, 152820, Note_off_c, 3, 105, 0
6, 152820, Note_on_c, 3, 89, 100
6, 152820, Note_on_c, 3, 93, 100
6, 152820, Note_on_c, 3, 101, 100
6, 152820, Note_on_c, 3, 105, 100
6, 152850, Note_off_c, 3, 89, 0
6, 152850, Note_off_c, 3, 93, 0
6, 152850, Note_off_c, 3, 101, 0
6, 152850, Note_off_c, 3, 105, 0
6, 152850, Note_on_c, 3, 89, 100
6, 152850, Note_on_c, 3, 93, 100
6, 152850, Note_on_c, 3, 101, 100
6, 152850, Note_on_c, 3, 105, 100
6, 152880, Note_off_c, 3, 89, 0
6, 152880, Note_off_c, 3, 93, 0
6, 152880, Note_off_c, 3, 101, 0
6, 152880, Note_off_c, 3, 105, 0
6, 152880, Note_on_c, 3, 89, 100
6, 152880, Note_on_c, 3, 93, 100
6, 152880, Note_on_c, 3, 101, 100
6, 152880, Note_on_c, 3, 105, 100
6, 152910, Note_off_c, 3, 89, 0
6, 152910, Note_off_c, 3, 93, 0
6, 152910, Note_off_c, 3, 101, 0
6, 152910, Note_off_c, 3, 105, 0
6, 152910, Note_on_c, 3, 89, 100
6, 152910, Note_on_c, 3, 93, 100
6, 152910, Note_on_c, 3, 101, 100
6, 152910, Note_on_c, 3, 105, 100
6, 152940, Note_off_c, 3, 89, 0
6, 152940, Note_off_c, 3, 93, 0
6, 152940, Note_off_c, 3, 101, 0
6, 152940, Note_off_c, 3, 105, 0
6, 152940, Note_on_c, 3, 89, 100
6, 152940, Note_on_c, 3, 93, 100
6, 152940, Note_on_c, 3, 101, 100
6, 152940, Note_on_c, 3, 105, 100
6, 152970, Note_off_c, 3, 89, 0
6, 152970, Note_off_c, 3, 93, 0
6, 152970, Note_off_c, 3, 101, 0
6, 152970, Note_off_c, 3, 105, 0
6, 152970, Note_on_c, 3, 89, 100
6, 152970, Note_on_c, 3, 93, 100
6, 152970, Note_on_c, 3, 101, 100
6, 152970, Note_on_c, 3, 105, 100
6, 153000, Note_off_c, 3, 89, 0
6, 153000, Note_off_c, 3, 93, 0
6, 153000, Note_off_c, 3, 101, 0
6, 153000, Note_off_c, 3, 105, 0
6, 153000, Note_on_c, 3, 89, 100
6, 153000, Note_on_c, 3, 93, 100
6, 153000, Note_on_c, 3, 101, 100
6, 153000, Note_on_c, 3, 105, 100
6, 153030, Note_off_c, 3, 89, 0
6, 153030, Note_off_c, 3, 93, 0
6, 153030, Note_off_c, 3, 101, 0
6, 153030, Note_off_c, 3, 105, 0
6, 153030, Note_on_c, 3, 89, 100
6, 153030, Note_on_c, 3, 93, 100
6, 153030, Note_on_c, 3, 101, 100
6, 153030, Note_on_c, 3, 105, 100
6, 153060, Note_off_c, 3, 89, 0
6, 153060, Note_off_c, 3, 93, 0
6, 153060, Note_off_c, 3, 101, 0
6, 153060, Note_off_c, 3, 105, 0
6, 153060, Note_on_c, 3, 89, 100
6, 153060, Note_on_c, 3, 93, 100
6, 153060, Note_on_c, 3, 101, 100
6, 153060, Note_on_c, 3, 105, 100
6, 153090, Note_off_c, 3, 89, 0
6, 153090, Note_off_c, 3, 93, 0
6, 153090, Note_off_c, 3, 101, 0
6, 153090, Note_off_c, 3, 105, 0
6, 153090, Note_on_c, 3, 89, 100
6, 153090, Note_on_c, 3, 93, 100
6, 153090, Note_on_c, 3, 101, 100
6, 153090, Note_on_c, 3, 105, 100
6, 153120, Note_off_c, 3, 89, 0
6, 153120, Note_off_c, 3, 93, 0
6, 153120, Note_off_c, 3, 101, 0
6, 153120, Note_off_c, 3, 105, 0
6, 153120, End_track
7, 0, Start_track
7, 0, Title_t, ""
7, 0, MIDI_port, 0
7, 62880, Note_on_c, 4, 46, 100
7, 62880, Note_on_c, 4, 49, 100
7, 62880, Note_on_c, 4, 53, 100
7, 62880, Note_on_c, 4, 58, 100
7, 63000, Note_off_c, 4, 46, 0
7, 63000, Note_off_c, 4, 49, 0
7, 63000, Note_off_c, 4, 53, 0
7, 63000, Note_off_c, 4, 58, 0
7, 63120, Note_on_c, 4, 46, 100
7, 63120, Note_on_c, 4, 49, 100
7, 63120, Note_on_c, 4, 53, 100
7, 63120, Note_on_c, 4, 58, 100
7, 63240, Note_off_c, 4, 46, 0
7, 63240, Note_off_c, 4, 49, 0
7, 63240, Note_off_c, 4, 53, 0
7, 63240, Note_off_c, 4, 58, 0
7, 63360, Note_on_c, 4, 46, 100
7, 63360, Note_on_c, 4, 49, 100
7, 63360, Note_on_c, 4, 53, 100
7, 63360, Note_on_c, 4, 58, 100
7, 63480, Note_off_c, 4, 46, 0
7, 63480, Note_off_c, 4, 49, 0
7, 63480, Note_off_c, 4, 53, 0
7, 63480, Note_off_c, 4, 58, 0
7, 63600, Note_on_c, 4, 46, 100
7, 63600, Note_on_c, 4, 49, 100
7, 63600, Note_on_c, 4, 53, 100
7, 63600, Note_on_c, 4, 58, 100
7, 63720, Note_off_c, 4, 46, 0
7, 63720, Note_off_c, 4, 49, 0
7, 63720, Note_off_c, 4, 53, 0
7, 63720, Note_off_c, 4, 58, 0
7, 63840, Note_on_c, 4, 46, 100
7, 63840, Note_on_c, 4, 49, 100
7, 63840, Note_on_c, 4, 53, 100
7, 63840, Note_on_c, 4, 58, 100
7, 63960, Note_off_c, 4, 46, 0
7, 63960, Note_off_c, 4, 49, 0
7, 63960, Note_off_c, 4, 53, 0
7, 63960, Note_off_c, 4, 58, 0
7, 64080, Note_on_c, 4, 46, 100
7, 64080, Note_on_c, 4, 49, 100
7, 64080, Note_on_c, 4, 53, 100
7, 64080, Note_on_c, 4, 58, 100
7, 64200, Note_off_c, 4, 46, 0
7, 64200, Note_off_c, 4, 49, 0
7, 64200, Note_off_c, 4, 53, 0
7, 64200, Note_off_c, 4, 58, 0
7, 64320, Note_on_c, 4, 46, 100
7, 64320, Note_on_c, 4, 49, 100
7, 64320, Note_on_c, 4, 53, 100
7, 64320, Note_on_c, 4, 58, 100
7, 64440, Note_off_c, 4, 46, 0
7, 64440, Note_off_c, 4, 49, 0
7, 64440, Note_off_c, 4, 53, 0
7, 64440, Note_off_c, 4, 58, 0
7, 64560, Note_on_c, 4, 46, 100
7, 64560, Note_on_c, 4, 49, 100
7, 64560, Note_on_c, 4, 53, 100
7, 64560, Note_on_c, 4, 58, 100
7, 64680, Note_off_c, 4, 46, 0
7, 64680, Note_off_c, 4, 49, 0
7, 64680, Note_off_c, 4, 53, 0
7, 64680, Note_off_c, 4, 58, 0
7, 64800, Note_on_c, 4, 42, 100
7, 64800, Note_on_c, 4, 45, 100
7, 64800, Note_on_c, 4, 49, 100
7, 64800, Note_on_c, 4, 54, 100
7, 64920, Note_off_c, 4, 42, 0
7, 64920, Note_off_c, 4, 45, 0
7, 64920, Note_off_c, 4, 49, 0
7, 64920, Note_off_c, 4, 54, 0
7, 65040, Note_on_c, 4, 42, 100
7, 65040, Note_on_c, 4, 45, 100
7, 65040, Note_on_c, 4, 49, 100
7, 65040, Note_on_c, 4, 54, 100
7, 65160, Note_off_c, 4, 42, 0
7, 65160, Note_off_c, 4, 45, 0
7, 65160, Note_off_c, 4, 49, 0
7, 65160, Note_off_c, 4, 54, 0
7, 65280, Note_on_c, 4, 42, 100
7, 65280, Note_on_c, 4, 45, 100
7, 65280, Note_on_c, 4, 49, 100
7, 65280, Note_on_c, 4, 54, 100
7, 65400, Note_off_c, 4, 42, 0
7, 65400, Note_off_c, 4, 45, 0
7, 65400, Note_off_c, 4, 49, 0
7, 65400, Note_off_c, 4, 54, 0
7, 65520, Note_on_c, 4, 42, 100
7, 65520, Note_on_c, 4, 45, 100
7, 65520, Note_on_c, 4, 49, 100
7, 65520, Note_on_c, 4, 54, 100
7, 65640, Note_off_c, 4, 42, 0
7, 65640, Note_off_c, 4, 45, 0
7, 65640, Note_off_c, 4, 49, 0
7, 65640, Note_off_c, 4, 54, 0
7, 65760, Note_on_c, 4, 42, 100
7, 65760, Note_on_c, 4, 45, 100
7, 65760, Note_on_c, 4, 49, 100
7, 65760, Note_on_c, 4, 54, 100
7, 65880, Note_off_c, 4, 42, 0
7, 65880, Note_off_c, 4, 45, 0
7, 65880, Note_off_c, 4, 49, 0
7, 65880, Note_off_c, 4, 54, 0
7, 66000, Note_on_c, 4, 42, 100
7, 66000, Note_on_c, 4, 45, 100
7, 66000, Note_on_c, 4, 49, 100
7, 66000, Note_on_c, 4, 54, 100
7, 66120, Note_off_c, 4, 42, 0
7, 66120, Note_off_c, 4, 45, 0
7, 66120, Note_off_c, 4, 49, 0
7, 66120, Note_off_c, 4, 54, 0
7, 66240, Note_on_c, 4, 42, 100
7, 66240, Note_on_c, 4, 45, 100
7, 66240, Note_on_c, 4, 49, 100
7, 66240, Note_on_c, 4, 54, 100
7, 66360, Note_off_c, 4, 42, 0
7, 66360, Note_off_c, 4, 45, 0
7, 66360, Note_off_c, 4, 49, 0
7, 66360, Note_off_c, 4, 54, 0
7, 66480, Note_on_c, 4, 42, 100
7, 66480, Note_on_c, 4, 45, 100
7, 66480, Note_on_c, 4, 49, 100
7, 66480, Note_on_c, 4, 54, 100
7, 66600, Note_off_c, 4, 42, 0
7, 66600, Note_off_c, 4, 45, 0
7, 66600, Note_off_c, 4, 49, 0
7, 66600, Note_off_c, 4, 54, 0
7, 66720, Note_on_c, 4, 44, 100
7, 66720, Note_on_c, 4, 51, 100
7, 66720, Note_on_c, 4, 56, 100
7, 66720, Note_on_c, 4, 60, 100
7, 66840, Note_off_c, 4, 44, 0
7, 66840, Note_off_c, 4, 51, 0
7, 66840, Note_off_c, 4, 56, 0
7, 66840, Note_off_c, 4, 60, 0
7, 66960, Note_on_c, 4, 44, 100
7, 66960, Note_on_c, 4, 51, 100
7, 66960, Note_on_c, 4, 56, 100
7, 66960, Note_on_c, 4, 60, 100
7, 67080, Note_off_c, 4, 44, 0
7, 67080, Note_off_c, 4, 51, 0
7, 67080, Note_off_c, 4, 56, 0
7, 67080, Note_off_c, 4, 60, 0
7, 67200, Note_on_c, 4, 44, 100
7, 67200, Note_on_c, 4, 51, 100
7, 67200, Note_on_c, 4, 56, 100
7, 67200, Note_on_c, 4, 60, 100
7, 67320, Note_off_c, 4, 44, 0
7, 67320, Note_off_c, 4, 51, 0
7, 67320, Note_off_c, 4, 56, 0
7, 67320, Note_off_c, 4, 60, 0
7, 67440, Note_on_c, 4, 44, 100
7, 67440, Note_on_c, 4, 51, 100
7, 67440, Note_on_c, 4, 56, 100
7, 67440, Note_on_c, 4, 60, 100
7, 67560, Note_off_c, 4, 44, 0
7, 67560, Note_off_c, 4, 51, 0
7, 67560, Note_off_c, 4, 56, 0
7, 67560, Note_off_c, 4, 60, 0
7, 67680, Note_on_c, 4, 42, 100
7, 67680, Note_on_c, 4, 49, 100
7, 67680, Note_on_c, 4, 54, 100
7, 67680, Note_on_c, 4, 58, 100
7, 67800, Note_off_c, 4, 42, 0
7, 67800, Note_off_c, 4, 49, 0
7, 67800, Note_off_c, 4, 54, 0
7, 67800, Note_off_c, 4, 58, 0
7, 67920, Note_on_c, 4, 42, 100
7, 67920, Note_on_c, 4, 49, 100
7, 67920, Note_on_c, 4, 54, 100
7, 67920, Note_on_c, 4, 58, 100
7, 68040, Note_off_c, 4, 42, 0
7, 68040, Note_off_c, 4, 49, 0
7, 68040, Note_off_c, 4, 54, 0
7, 68040, Note_off_c, 4, 58, 0
7, 68160, Note_on_c, 4, 42, 100
7, 68160, Note_on_c, 4, 49, 100
7, 68160, Note_on_c, 4, 54, 100
7, 68160, Note_on_c, 4, 58, 100
7, 68280, Note_off_c, 4, 42, 0
7, 68280, Note_off_c, 4, 49, 0
7, 68280, Note_off_c, 4, 54, 0
7, 68280, Note_off_c, 4, 58, 0
7, 68400, Note_on_c, 4, 42, 100
7, 68400, Note_on_c, 4, 49, 100
7, 68400, Note_on_c, 4, 54, 100
7, 68400, Note_on_c, 4, 58, 100
7, 68520, Note_off_c, 4, 42, 0
7, 68520, Note_off_c, 4, 49, 0
7, 68520, Note_off_c, 4, 54, 0
7, 68520, Note_off_c, 4, 58, 0
7, 68640, Note_on_c, 4, 41, 100
7, 68640, Note_on_c, 4, 48, 100
7, 68640, Note_on_c, 4, 53, 100
7, 68640, Note_on_c, 4, 57, 100
7, 68760, Note_off_c, 4, 41, 0
7, 68760, Note_off_c, 4, 48, 0
7, 68760, Note_off_c, 4, 53, 0
7, 68760, Note_off_c, 4, 57, 0
7, 68880, Note_on_c, 4, 41, 100
7, 68880, Note_on_c, 4, 48, 100
7, 68880, Note_on_c, 4, 53, 100
7, 68880, Note_on_c, 4, 57, 100
7, 69000, Note_off_c, 4, 41, 0
7, 69000, Note_off_c, 4, 48, 0
7, 69000, Note_off_c, 4, 53, 0
7, 69000, Note_off_c, 4, 57, 0
7, 69120, Note_on_c, 4, 41, 100
7, 69120, Note_on_c, 4, 48, 100
7, 69120, Note_on_c, 4, 53, 100
7, 69120, Note_on_c, 4, 57, 100
7, 69240, Note_off_c, 4, 41, 0
7, 69240, Note_off_c, 4, 48, 0
7, 69240, Note_off_c, 4, 53, 0
7, 69240, Note_off_c, 4, 57, 0
7, 69360, Note_on_c, 4, 41, 100
7, 69360, Note_on_c, 4, 48, 100
7, 69360, Note_on_c, 4, 53, 100
7, 69360, Note_on_c, 4, 57, 100
7, 69480, Note_off_c, 4, 41, 0
7, 69480, Note_off_c, 4, 48, 0
7, 69480, Note_off_c, 4, 53, 0
7, 69480, Note_off_c, 4, 57, 0
7, 69600, Note_on_c, 4, 41, 100
7, 69600, Note_on_c, 4, 48, 100
7, 69600, Note_on_c, 4, 53, 100
7, 69600, Note_on_c, 4, 57, 100
7, 69720, Note_off_c, 4, 41, 0
7, 69720, Note_off_c, 4, 48, 0
7, 69720, Note_off_c, 4, 53, 0
7, 69720, Note_off_c, 4, 57, 0
7, 69840, Note_on_c, 4, 41, 100
7, 69840, Note_on_c, 4, 48, 100
7, 69840, Note_on_c, 4, 53, 100
7, 69840, Note_on_c, 4, 57, 100
7, 69960, Note_off_c, 4, 41, 0
7, 69960, Note_off_c, 4, 48, 0
7, 69960, Note_off_c, 4, 53, 0
7, 69960, Note_off_c, 4, 57, 0
7, 70080, Note_on_c, 4, 41, 100
7, 70080, Note_on_c, 4, 48, 100
7, 70080, Note_on_c, 4, 53, 100
7, 70080, Note_on_c, 4, 57, 100
7, 70200, Note_off_c, 4, 41, 0
7, 70200, Note_off_c, 4, 48, 0
7, 70200, Note_off_c, 4, 53, 0
7, 70200, Note_off_c, 4, 57, 0
7, 70320, Note_on_c, 4, 41, 100
7, 70320, Note_on_c, 4, 48, 100
7, 70320, Note_on_c, 4, 53, 100
7, 70320, Note_on_c, 4, 57, 100
7, 70440, Note_off_c, 4, 41, 0
7, 70440, Note_off_c, 4, 48, 0
7, 70440, Note_off_c, 4, 53, 0
7, 70440, Note_off_c, 4, 57, 0
7, 70560, Note_on_c, 4, 46, 100
7, 70560, Note_on_c, 4, 53, 100
7, 70560, Note_on_c, 4, 58, 100
7, 70560, Note_on_c, 4, 61, 100
7, 70680, Note_off_c, 4, 46, 0
7, 70680, Note_off_c, 4, 53, 0
7, 70680, Note_off_c, 4, 58, 0
7, 70680, Note_off_c, 4, 61, 0
7, 70800, Note_on_c, 4, 46, 100
7, 70800, Note_on_c, 4, 53, 100
7, 70800, Note_on_c, 4, 58, 100
7, 70800, Note_on_c, 4, 61, 100
7, 70920, Note_off_c, 4, 46, 0
7, 70920, Note_off_c, 4, 53, 0
7, 70920, Note_off_c, 4, 58, 0
7, 70920, Note_off_c, 4, 61, 0
7, 71040, Note_on_c, 4, 46, 100
7, 71040, Note_on_c, 4, 53, 100
7, 71040, Note_on_c, 4, 58, 100
7, 71040, Note_on_c, 4, 61, 100
7, 71160, Note_off_c, 4, 46, 0
7, 71160, Note_off_c, 4, 53, 0
7, 71160, Note_off_c, 4, 58, 0
7, 71160, Note_off_c, 4, 61, 0
7, 71280, Note_on_c, 4, 46, 100
7, 71280, Note_on_c, 4, 53, 100
7, 71280, Note_on_c, 4, 58, 100
7, 71280, Note_on_c, 4, 61, 100
7, 71400, Note_off_c, 4, 46, 0
7, 71400, Note_off_c, 4, 53, 0
7, 71400, Note_off_c, 4, 58, 0
7, 71400, Note_off_c, 4, 61, 0
7, 71520, Note_on_c, 4, 46, 100
7, 71520, Note_on_c, 4, 53, 100
7, 71520, Note_on_c, 4, 58, 100
7, 71520, Note_on_c, 4, 61, 100
7, 71640, Note_off_c, 4, 46, 0
7, 71640, Note_off_c, 4, 53, 0
7, 71640, Note_off_c, 4, 58, 0
7, 71640, Note_off_c, 4, 61, 0
7, 71760, Note_on_c, 4, 46, 100
7, 71760, Note_on_c, 4, 53, 100
7, 71760, Note_on_c, 4, 58, 100
7, 71760, Note_on_c, 4, 61, 100
7, 71880, Note_off_c, 4, 46, 0
7, 71880, Note_off_c, 4, 53, 0
7, 71880, Note_off_c, 4, 58, 0
7, 71880, Note_off_c, 4, 61, 0
7, 72000, Note_on_c, 4, 46, 100
7, 72000, Note_on_c, 4, 53, 100
7, 72000, Note_on_c, 4, 58, 100
7, 72000, Note_on_c, 4, 61, 100
7, 72120, Note_off_c, 4, 46, 0
7, 72120, Note_off_c, 4, 53, 0
7, 72120, Note_off_c, 4, 58, 0
7, 72120, Note_off_c, 4, 61, 0
7, 72240, Note_on_c, 4, 46, 100
7, 72240, Note_on_c, 4, 53, 100
7, 72240, Note_on_c, 4, 58, 100
7, 72240, Note_on_c, 4, 61, 100
7, 72360, Note_off_c, 4, 46, 0
7, 72360, Note_off_c, 4, 53, 0
7, 72360, Note_off_c, 4, 58, 0
7, 72360, Note_off_c, 4, 61, 0
7, 72480, Note_on_c, 4, 42, 100
7, 72480, Note_on_c, 4, 49, 100
7, 72480, Note_on_c, 4, 54, 100
7, 72480, Note_on_c, 4, 58, 100
7, 72600, Note_off_c, 4, 42, 0
7, 72600, Note_off_c, 4, 49, 0
7, 72600, Note_off_c, 4, 54, 0
7, 72600, Note_off_c, 4, 58, 0
7, 72720, Note_on_c, 4, 42, 100
7, 72720, Note_on_c, 4, 49, 100
7, 72720, Note_on_c, 4, 54, 100
7, 72720, Note_on_c, 4, 58, 100
7, 72840, Note_off_c, 4, 42, 0
7, 72840, Note_off_c, 4, 49, 0
7, 72840, Note_off_c, 4, 54, 0
7, 72840, Note_off_c, 4, 58, 0
7, 72960, Note_on_c, 4, 42, 100
7, 72960, Note_on_c, 4, 49, 100
7, 72960, Note_on_c, 4, 54, 100
7, 72960, Note_on_c, 4, 58, 100
7, 73080, Note_off_c, 4, 42, 0
7, 73080, Note_off_c, 4, 49, 0
7, 73080, Note_off_c, 4, 54, 0
7, 73080, Note_off_c, 4, 58, 0
7, 73200, Note_on_c, 4, 42, 100
7, 73200, Note_on_c, 4, 49, 100
7, 73200, Note_on_c, 4, 54, 100
7, 73200, Note_on_c, 4, 58, 100
7, 73320, Note_off_c, 4, 42, 0
7, 73320, Note_off_c, 4, 49, 0
7, 73320, Note_off_c, 4, 54, 0
7, 73320, Note_off_c, 4, 58, 0
7, 73440, Note_on_c, 4, 42, 100
7, 73440, Note_on_c, 4, 49, 100
7, 73440, Note_on_c, 4, 54, 100
7, 73440, Note_on_c, 4, 58, 100
7, 73560, Note_off_c, 4, 42, 0
7, 73560, Note_off_c, 4, 49, 0
7, 73560, Note_off_c, 4, 54, 0
7, 73560, Note_off_c, 4, 58, 0
7, 73680, Note_on_c, 4, 42, 100
7, 73680, Note_on_c, 4, 49, 100
7, 73680, Note_on_c, 4, 54, 100
7, 73680, Note_on_c, 4, 58, 100
7, 73800, Note_off_c, 4, 42, 0
7, 73800, Note_off_c, 4, 49, 0
7, 73800, Note_off_c, 4, 54, 0
7, 73800, Note_off_c, 4, 58, 0
7, 73920, Note_on_c, 4, 42, 100
7, 73920, Note_on_c, 4, 49, 100
7, 73920, Note_on_c, 4, 54, 100
7, 73920, Note_on_c, 4, 58, 100
7, 74040, Note_off_c, 4, 42, 0
7, 74040, Note_off_c, 4, 49, 0
7, 74040, Note_off_c, 4, 54, 0
7, 74040, Note_off_c, 4, 58, 0
7, 74160, Note_on_c, 4, 42, 100
7, 74160, Note_on_c, 4, 49, 100
7, 74160, Note_on_c, 4, 54, 100
7, 74160, Note_on_c, 4, 58, 100
7, 74280, Note_off_c, 4, 42, 0
7, 74280, Note_off_c, 4, 49, 0
7, 74280, Note_off_c, 4, 54, 0
7, 74280, Note_off_c, 4, 58, 0
7, 74400, Note_on_c, 4, 44, 100
7, 74400, Note_on_c, 4, 51, 100
7, 74400, Note_on_c, 4, 56, 100
7, 74400, Note_on_c, 4, 60, 100
7, 74520, Note_off_c, 4, 44, 0
7, 74520, Note_off_c, 4, 51, 0
7, 74520, Note_off_c, 4, 56, 0
7, 74520, Note_off_c, 4, 60, 0
7, 74640, Note_on_c, 4, 44, 100
7, 74640, Note_on_c, 4, 51, 100
7, 74640, Note_on_c, 4, 56, 100
7, 74640, Note_on_c, 4, 60, 100
7, 74760, Note_off_c, 4, 44, 0
7, 74760, Note_off_c, 4, 51, 0
7, 74760, Note_off_c, 4, 56, 0
7, 74760, Note_off_c, 4, 60, 0
7, 74880, Note_on_c, 4, 44, 100
7, 74880, Note_on_c, 4, 51, 100
7, 74880, Note_on_c, 4, 56, 100
7, 74880, Note_on_c, 4, 60, 100
7, 75000, Note_off_c, 4, 44, 0
7, 75000, Note_off_c, 4, 51, 0
7, 75000, Note_off_c, 4, 56, 0
7, 75000, Note_off_c, 4, 60, 0
7, 75120, Note_on_c, 4, 44, 100
7, 75120, Note_on_c, 4, 51, 100
7, 75120, Note_on_c, 4, 56, 100
7, 75120, Note_on_c, 4, 60, 100
7, 75240, Note_off_c, 4, 44, 0
7, 75240, Note_off_c, 4, 51, 0
7, 75240, Note_off_c, 4, 56, 0
7, 75240, Note_off_c, 4, 60, 0
7, 75360, Note_on_c, 4, 42, 100
7, 75360, Note_on_c, 4, 49, 100
7, 75360, Note_on_c, 4, 54, 100
7, 75360, Note_on_c, 4, 58, 100
7, 75480, Note_off_c, 4, 42, 0
7, 75480, Note_off_c, 4, 49, 0
7, 75480, Note_off_c, 4, 54, 0
7, 75480, Note_off_c, 4, 58, 0
7, 75600, Note_on_c, 4, 42, 100
7, 75600, Note_on_c, 4, 49, 100
7, 75600, Note_on_c, 4, 54, 100
7, 75600, Note_on_c, 4, 58, 100
7, 75720, Note_off_c, 4, 42, 0
7, 75720, Note_off_c, 4, 49, 0
7, 75720, Note_off_c, 4, 54, 0
7, 75720, Note_off_c, 4, 58, 0
7, 75840, Note_on_c, 4, 42, 100
7, 75840, Note_on_c, 4, 49, 100
7, 75840, Note_on_c, 4, 54, 100
7, 75840, Note_on_c, 4, 58, 100
7, 75960, Note_off_c, 4, 42, 0
7, 75960, Note_off_c, 4, 49, 0
7, 75960, Note_off_c, 4, 54, 0
7, 75960, Note_off_c, 4, 58, 0
7, 76080, Note_on_c, 4, 42, 100
7, 76080, Note_on_c, 4, 49, 100
7, 76080, Note_on_c, 4, 54, 100
7, 76080, Note_on_c, 4, 58, 100
7, 76200, Note_off_c, 4, 42, 0
7, 76200, Note_off_c, 4, 49, 0
7, 76200, Note_off_c, 4, 54, 0
7, 76200, Note_off_c, 4, 58, 0
7, 76320, Note_on_c, 4, 41, 100
7, 76320, Note_on_c, 4, 48, 100
7, 76320, Note_on_c, 4, 53, 100
7, 76320, Note_on_c, 4, 57, 100
7, 76440, Note_off_c, 4, 41, 0
7, 76440, Note_off_c, 4, 48, 0
7, 76440, Note_off_c, 4, 53, 0
7, 76440, Note_off_c, 4, 57, 0
7, 76560, Note_on_c, 4, 41, 100
7, 76560, Note_on_c, 4, 48, 100
7, 76560, Note_on_c, 4, 53, 100
7, 76560, Note_on_c, 4, 57, 100
7, 76680, Note_off_c, 4, 41, 0
7, 76680, Note_off_c, 4, 48, 0
7, 76680, Note_off_c, 4, 53, 0
7, 76680, Note_off_c, 4, 57, 0
7, 76800, Note_on_c, 4, 41, 100
7, 76800, Note_on_c, 4, 48, 100
7, 76800, Note_on_c, 4, 53, 100
7, 76800, Note_on_c, 4, 57, 100
7, 76920, Note_off_c, 4, 41, 0
7, 76920, Note_off_c, 4, 48, 0
7, 76920, Note_off_c, 4, 53, 0
7, 76920, Note_off_c, 4, 57, 0
7, 77040, Note_on_c, 4, 41, 100
7, 77040, Note_on_c, 4, 48, 100
7, 77040, Note_on_c, 4, 53, 100
7, 77040, Note_on_c, 4, 57, 100
7, 77160, Note_off_c, 4, 41, 0
7, 77160, Note_off_c, 4, 48, 0
7, 77160, Note_off_c, 4, 53, 0
7, 77160, Note_off_c, 4, 57, 0
7, 77280, Note_on_c, 4, 41, 100
7, 77280, Note_on_c, 4, 48, 100
7, 77280, Note_on_c, 4, 53, 100
7, 77280, Note_on_c, 4, 57, 100
7, 77400, Note_off_c, 4, 41, 0
7, 77400, Note_off_c, 4, 48, 0
7, 77400, Note_off_c, 4, 53, 0
7, 77400, Note_off_c, 4, 57, 0
7, 77520, Note_on_c, 4, 41, 100
7, 77520, Note_on_c, 4, 48, 100
7, 77520, Note_on_c, 4, 53, 100
7, 77520, Note_on_c, 4, 57, 100
7, 77640, Note_off_c, 4, 41, 0
7, 77640, Note_off_c, 4, 48, 0
7, 77640, Note_off_c, 4, 53, 0
7, 77640, Note_off_c, 4, 57, 0
7, 77760, Note_on_c, 4, 41, 100
7, 77760, Note_on_c, 4, 48, 100
7, 77760, Note_on_c, 4, 53, 100
7, 77760, Note_on_c, 4, 57, 100
7, 77880, Note_off_c, 4, 41, 0
7, 77880, Note_off_c, 4, 48, 0
7, 77880, Note_off_c, 4, 53, 0
7, 77880, Note_off_c, 4, 57, 0
7, 78000, Note_on_c, 4, 41, 100
7, 78000, Note_on_c, 4, 48, 100
7, 78000, Note_on_c, 4, 53, 100
7, 78000, Note_on_c, 4, 57, 100
7, 78120, Note_off_c, 4, 41, 0
7, 78120, Note_off_c, 4, 48, 0
7, 78120, Note_off_c, 4, 53, 0
7, 78120, Note_off_c, 4, 57, 0
7, 137760, Note_on_c, 4, 46, 100
7, 137760, Note_on_c, 4, 49, 100
7, 137760, Note_on_c, 4, 53, 100
7, 137760, Note_on_c, 4, 58, 100
7, 137820, Note_off_c, 4, 46, 0
7, 137820, Note_off_c, 4, 49, 0
7, 137820, Note_off_c, 4, 53, 0
7, 137820, Note_off_c, 4, 58, 0
7, 137880, Note_on_c, 4, 46, 100
7, 137880, Note_on_c, 4, 49, 100
7, 137880, Note_on_c, 4, 53, 100
7, 137880, Note_on_c, 4, 58, 100
7, 137940, Note_off_c, 4, 46, 0
7, 137940, Note_off_c, 4, 49, 0
7, 137940, Note_off_c, 4, 53, 0
7, 137940, Note_off_c, 4, 58, 0
7, 138000, Note_on_c, 4, 46, 100
7, 138000, Note_on_c, 4, 49, 100
7, 138000, Note_on_c, 4, 53, 100
7, 138000, Note_on_c, 4, 58, 100
7, 138060, Note_off_c, 4, 46, 0
7, 138060, Note_off_c, 4, 49, 0
7, 138060, Note_off_c, 4, 53, 0
7, 138060, Note_off_c, 4, 58, 0
7, 138120, Note_on_c, 4, 46, 100
7, 138120, Note_on_c, 4, 49, 100
7, 138120, Note_on_c, 4, 53, 100
7, 138120, Note_on_c, 4, 58, 100
7, 138180, Note_off_c, 4, 46, 0
7, 138180, Note_off_c, 4, 49, 0
7, 138180, Note_off_c, 4, 53, 0
7, 138180, Note_off_c, 4, 58, 0
7, 138240, Note_on_c, 4, 46, 100
7, 138240, Note_on_c, 4, 49, 100
7, 138240, Note_on_c, 4, 53, 100
7, 138240, Note_on_c, 4, 58, 100
7, 138300, Note_off_c, 4, 46, 0
7, 138300, Note_off_c, 4, 49, 0
7, 138300, Note_off_c, 4, 53, 0
7, 138300, Note_off_c, 4, 58, 0
7, 138360, Note_on_c, 4, 46, 100
7, 138360, Note_on_c, 4, 49, 100
7, 138360, Note_on_c, 4, 53, 100
7, 138360, Note_on_c, 4, 58, 100
7, 138420, Note_off_c, 4, 46, 0
7, 138420, Note_off_c, 4, 49, 0
7, 138420, Note_off_c, 4, 53, 0
7, 138420, Note_off_c, 4, 58, 0
7, 138480, Note_on_c, 4, 46, 100
7, 138480, Note_on_c, 4, 49, 100
7, 138480, Note_on_c, 4, 53, 100
7, 138480, Note_on_c, 4, 58, 100
7, 138540, Note_off_c, 4, 46, 0
7, 138540, Note_off_c, 4, 49, 0
7, 138540, Note_off_c, 4, 53, 0
7, 138540, Note_off_c, 4, 58, 0
7, 138600, Note_on_c, 4, 46, 100
7, 138600, Note_on_c, 4, 49, 100
7, 138600, Note_on_c, 4, 53, 100
7, 138600, Note_on_c, 4, 58, 100
7, 138660, Note_off_c, 4, 46, 0
7, 138660, Note_off_c, 4, 49, 0
7, 138660, Note_off_c, 4, 53, 0
7, 138660, Note_off_c, 4, 58, 0
7, 138720, Note_on_c, 4, 46, 100
7, 138720, Note_on_c, 4, 49, 100
7, 138720, Note_on_c, 4, 53, 100
7, 138720, Note_on_c, 4, 58, 100
7, 138780, Note_off_c, 4, 46, 0
7, 138780, Note_off_c, 4, 49, 0
7, 138780, Note_off_c, 4, 53, 0
7, 138780, Note_off_c, 4, 58, 0
7, 138840, Note_on_c, 4, 46, 100
7, 138840, Note_on_c, 4, 49, 100
7, 138840, Note_on_c, 4, 53, 100
7, 138840, Note_on_c, 4, 58, 100
7, 138900, Note_off_c, 4, 46, 0
7, 138900, Note_off_c, 4, 49, 0
7, 138900, Note_off_c, 4, 53, 0
7, 138900, Note_off_c, 4, 58, 0
7, 138960, Note_on_c, 4, 46, 100
7, 138960, Note_on_c, 4, 49, 100
7, 138960, Note_on_c, 4, 53, 100
7, 138960, Note_on_c, 4, 58, 100
7, 139020, Note_off_c, 4, 46, 0
7, 139020, Note_off_c, 4, 49, 0
7, 139020, Note_off_c, 4, 53, 0
7, 139020, Note_off_c, 4, 58, 0
7, 139080, Note_on_c, 4, 46, 100
7, 139080, Note_on_c, 4, 49, 100
7, 139080, Note_on_c, 4, 53, 100
7, 139080, Note_on_c, 4, 58, 100
7, 139140, Note_off_c, 4, 46, 0
7, 139140, Note_off_c, 4, 49, 0
7, 139140, Note_off_c, 4, 53, 0
7, 139140, Note_off_c, 4, 58, 0
7, 139200, Note_on_c, 4, 46, 100
7, 139200, Note_on_c, 4, 49, 100
7, 139200, Note_on_c, 4, 53, 100
7, 139200, Note_on_c, 4, 58, 100
7, 139260, Note_off_c, 4, 46, 0
7, 139260, Note_off_c, 4, 49, 0
7, 139260, Note_off_c, 4, 53, 0
7, 139260, Note_off_c, 4, 58, 0
7, 139320, Note_on_c, 4, 46, 100
7, 139320, Note_on_c, 4, 49, 100
7, 139320, Note_on_c, 4, 53, 100
7, 139320, Note_on_c, 4, 58, 100
7, 139380, Note_off_c, 4, 46, 0
7, 139380, Note_off_c, 4, 49, 0
7, 139380, Note_off_c, 4, 53, 0
7, 139380, Note_off_c, 4, 58, 0
7, 139440, Note_on_c, 4, 46, 100
7, 139440, Note_on_c, 4, 49, 100
7, 139440, Note_on_c, 4, 53, 100
7, 139440, Note_on_c, 4, 58, 100
7, 139500, Note_off_c, 4, 46, 0
7, 139500, Note_off_c, 4, 49, 0
7, 139500, Note_off_c, 4, 53, 0
7, 139500, Note_off_c, 4, 58, 0
7, 139560, Note_on_c, 4, 46, 100
7, 139560, Note_on_c, 4, 49, 100
7, 139560, Note_on_c, 4, 53, 100
7, 139560, Note_on_c, 4, 58, 100
7, 139620, Note_off_c, 4, 46, 0
7, 139620, Note_off_c, 4, 49, 0
7, 139620, Note_off_c, 4, 53, 0
7, 139620, Note_off_c, 4, 58, 0
7, 139680, Note_on_c, 4, 42, 100
7, 139680, Note_on_c, 4, 45, 100
7, 139680, Note_on_c, 4, 49, 100
7, 139680, Note_on_c, 4, 54, 100
7, 139740, Note_off_c, 4, 42, 0
7, 139740, Note_off_c, 4, 45, 0
7, 139740, Note_off_c, 4, 49, 0
7, 139740, Note_off_c, 4, 54, 0
7, 139800, Note_on_c, 4, 42, 100
7, 139800, Note_on_c, 4, 45, 100
7, 139800, Note_on_c, 4, 49, 100
7, 139800, Note_on_c, 4, 54, 100
7, 139860, Note_off_c, 4, 42, 0
7, 139860, Note_off_c, 4, 45, 0
7, 139860, Note_off_c, 4, 49, 0
7, 139860, Note_off_c, 4, 54, 0
7, 139920, Note_on_c, 4, 42, 100
7, 139920, Note_on_c, 4, 45, 100
7, 139920, Note_on_c, 4, 49, 100
7, 139920, Note_on_c, 4, 54, 100
7, 139980, Note_off_c, 4, 42, 0
7, 139980, Note_off_c, 4, 45, 0
7, 139980, Note_off_c, 4, 49, 0
7, 139980, Note_off_c, 4, 54, 0
7, 140040, Note_on_c, 4, 42, 100
7, 140040, Note_on_c, 4, 45, 100
7, 140040, Note_on_c, 4, 49, 100
7, 140040, Note_on_c, 4, 54, 100
7, 140100, Note_off_c, 4, 42, 0
7, 140100, Note_off_c, 4, 45, 0
7, 140100, Note_off_c, 4, 49, 0
7, 140100, Note_off_c, 4, 54, 0
7, 140160, Note_on_c, 4, 42, 100
7, 140160, Note_on_c, 4, 45, 100
7, 140160, Note_on_c, 4, 49, 100
7, 140160, Note_on_c, 4, 54, 100
7, 140220, Note_off_c, 4, 42, 0
7, 140220, Note_off_c, 4, 45, 0
7, 140220, Note_off_c, 4, 49, 0
7, 140220, Note_off_c, 4, 54, 0
7, 140280, Note_on_c, 4, 42, 100
7, 140280, Note_on_c, 4, 45, 100
7, 140280, Note_on_c, 4, 49, 100
7, 140280, Note_on_c, 4, 54, 100
7, 140340, Note_off_c, 4, 42, 0
7, 140340, Note_off_c, 4, 45, 0
7, 140340, Note_off_c, 4, 49, 0
7, 140340, Note_off_c, 4, 54, 0
7, 140400, Note_on_c, 4, 42, 100
7, 140400, Note_on_c, 4, 45, 100
7, 140400, Note_on_c, 4, 49, 100
7, 140400, Note_on_c, 4, 54, 100
7, 140460, Note_off_c, 4, 42, 0
7, 140460, Note_off_c, 4, 45, 0
7, 140460, Note_off_c, 4, 49, 0
7, 140460, Note_off_c, 4, 54, 0
7, 140520, Note_on_c, 4, 42, 100
7, 140520, Note_on_c, 4, 45, 100
7, 140520, Note_on_c, 4, 49, 100
7, 140520, Note_on_c, 4, 54, 100
7, 140580, Note_off_c, 4, 42, 0
7, 140580, Note_off_c, 4, 45, 0
7, 140580, Note_off_c, 4, 49, 0
7, 140580, Note_off_c, 4, 54, 0
7, 140640, Note_on_c, 4, 42, 100
7, 140640, Note_on_c, 4, 45, 100
7, 140640, Note_on_c, 4, 49, 100
7, 140640, Note_on_c, 4, 54, 100
7, 140700, Note_off_c, 4, 42, 0
7, 140700, Note_off_c, 4, 45, 0
7, 140700, Note_off_c, 4, 49, 0
7, 140700, Note_off_c, 4, 54, 0
7, 140760, Note_on_c, 4, 42, 100
7, 140760, Note_on_c, 4, 45, 100
7, 140760, Note_on_c, 4, 49, 100
7, 140760, Note_on_c, 4, 54, 100
7, 140820, Note_off_c, 4, 42, 0
7, 140820, Note_off_c, 4, 45, 0
7, 140820, Note_off_c, 4, 49, 0
7, 140820, Note_off_c, 4, 54, 0
7, 140880, Note_on_c, 4, 42, 100
7, 140880, Note_on_c, 4, 45, 100
7, 140880, Note_on_c, 4, 49, 100
7, 140880, Note_on_c, 4, 54, 100
7, 140940, Note_off_c, 4, 42, 0
7, 140940, Note_off_c, 4, 45, 0
7, 140940, Note_off_c, 4, 49, 0
7, 140940, Note_off_c, 4, 54, 0
7, 141000, Note_on_c, 4, 42, 100
7, 141000, Note_on_c, 4, 45, 100
7, 141000, Note_on_c, 4, 49, 100
7, 141000, Note_on_c, 4, 54, 100
7, 141060, Note_off_c, 4, 42, 0
7, 141060, Note_off_c, 4, 45, 0
7, 141060, Note_off_c, 4, 49, 0
7, 141060, Note_off_c, 4, 54, 0
7, 141120, Note_on_c, 4, 42, 100
7, 141120, Note_on_c, 4, 45, 100
7, 141120, Note_on_c, 4, 49, 100
7, 141120, Note_on_c, 4, 54, 100
7, 141180, Note_off_c, 4, 42, 0
7, 141180, Note_off_c, 4, 45, 0
7, 141180, Note_off_c, 4, 49, 0
7, 141180, Note_off_c, 4, 54, 0
7, 141240, Note_on_c, 4, 42, 100
7, 141240, Note_on_c, 4, 45, 100
7, 141240, Note_on_c, 4, 49, 100
7, 141240, Note_on_c, 4, 54, 100
7, 141300, Note_off_c, 4, 42, 0
7, 141300, Note_off_c, 4, 45, 0
7, 141300, Note_off_c, 4, 49, 0
7, 141300, Note_off_c, 4, 54, 0
7, 141360, Note_on_c, 4, 42, 100
7, 141360, Note_on_c, 4, 45, 100
7, 141360, Note_on_c, 4, 49, 100
7, 141360, Note_on_c, 4, 54, 100
7, 141420, Note_off_c, 4, 42, 0
7, 141420, Note_off_c, 4, 45, 0
7, 141420, Note_off_c, 4, 49, 0
7, 141420, Note_off_c, 4, 54, 0
7, 141480, Note_on_c, 4, 42, 100
7, 141480, Note_on_c, 4, 45, 100
7, 141480, Note_on_c, 4, 49, 100
7, 141480, Note_on_c, 4, 54, 100
7, 141540, Note_off_c, 4, 42, 0
7, 141540, Note_off_c, 4, 45, 0
7, 141540, Note_off_c, 4, 49, 0
7, 141540, Note_off_c, 4, 54, 0
7, 141600, Note_on_c, 4, 44, 100
7, 141600, Note_on_c, 4, 51, 100
7, 141600, Note_on_c, 4, 56, 100
7, 141600, Note_on_c, 4, 60, 100
7, 141660, Note_off_c, 4, 44, 0
7, 141660, Note_off_c, 4, 51, 0
7, 141660, Note_off_c, 4, 56, 0
7, 141660, Note_off_c, 4, 60, 0
7, 141720, Note_on_c, 4, 44, 100
7, 141720, Note_on_c, 4, 51, 100
7, 141720, Note_on_c, 4, 56, 100
7, 141720, Note_on_c, 4, 60, 100
7, 141780, Note_off_c, 4, 44, 0
7, 141780, Note_off_c, 4, 51, 0
7, 141780, Note_off_c, 4, 56, 0
7, 141780, Note_off_c, 4, 60, 0
7, 141840, Note_on_c, 4, 44, 100
7, 141840, Note_on_c, 4, 51, 100
7, 141840, Note_on_c, 4, 56, 100
7, 141840, Note_on_c, 4, 60, 100
7, 141900, Note_off_c, 4, 44, 0
7, 141900, Note_off_c, 4, 51, 0
7, 141900, Note_off_c, 4, 56, 0
7, 141900, Note_off_c, 4, 60, 0
7, 141960, Note_on_c, 4, 44, 100
7, 141960, Note_on_c, 4, 51, 100
7, 141960, Note_on_c, 4, 56, 100
7, 141960, Note_on_c, 4, 60, 100
7, 142020, Note_off_c, 4, 44, 0
7, 142020, Note_off_c, 4, 51, 0
7, 142020, Note_off_c, 4, 56, 0
7, 142020, Note_off_c, 4, 60, 0
7, 142080, Note_on_c, 4, 44, 100
7, 142080, Note_on_c, 4, 51, 100
7, 142080, Note_on_c, 4, 56, 100
7, 142080, Note_on_c, 4, 60, 100
7, 142140, Note_off_c, 4, 44, 0
7, 142140, Note_off_c, 4, 51, 0
7, 142140, Note_off_c, 4, 56, 0
7, 142140, Note_off_c, 4, 60, 0
7, 142200, Note_on_c, 4, 44, 100
7, 142200, Note_on_c, 4, 51, 100
7, 142200, Note_on_c, 4, 56, 100
7, 142200, Note_on_c, 4, 60, 100
7, 142260, Note_off_c, 4, 44, 0
7, 142260, Note_off_c, 4, 51, 0
7, 142260, Note_off_c, 4, 56, 0
7, 142260, Note_off_c, 4, 60, 0
7, 142320, Note_on_c, 4, 44, 100
7, 142320, Note_on_c, 4, 51, 100
7, 142320, Note_on_c, 4, 56, 100
7, 142320, Note_on_c, 4, 60, 100
7, 142380, Note_off_c, 4, 44, 0
7, 142380, Note_off_c, 4, 51, 0
7, 142380, Note_off_c, 4, 56, 0
7, 142380, Note_off_c, 4, 60, 0
7, 142440, Note_on_c, 4, 44, 100
7, 142440, Note_on_c, 4, 51, 100
7, 142440, Note_on_c, 4, 56, 100
7, 142440, Note_on_c, 4, 60, 100
7, 142500, Note_off_c, 4, 44, 0
7, 142500, Note_off_c, 4, 51, 0
7, 142500, Note_off_c, 4, 56, 0
7, 142500, Note_off_c, 4, 60, 0
7, 142560, Note_on_c, 4, 42, 100
7, 142560, Note_on_c, 4, 49, 100
7, 142560, Note_on_c, 4, 54, 100
7, 142560, Note_on_c, 4, 58, 100
7, 142620, Note_off_c, 4, 42, 0
7, 142620, Note_off_c, 4, 49, 0
7, 142620, Note_off_c, 4, 54, 0
7, 142620, Note_off_c, 4, 58, 0
7, 142680, Note_on_c, 4, 42, 100
7, 142680, Note_on_c, 4, 49, 100
7, 142680, Note_on_c, 4, 54, 100
7, 142680, Note_on_c, 4, 58, 100
7, 142740, Note_off_c, 4, 42, 0
7, 142740, Note_off_c, 4, 49, 0
7, 142740, Note_off_c, 4, 54, 0
7, 142740, Note_off_c, 4, 58, 0
7, 142800, Note_on_c, 4, 42, 100
7, 142800, Note_on_c, 4, 49, 100
7, 142800, Note_on_c, 4, 54, 100
7, 142800, Note_on_c, 4, 58, 100
7, 142860, Note_off_c, 4, 42, 0
7, 142860, Note_off_c, 4, 49, 0
7, 142860, Note_off_c, 4, 54, 0
7, 142860, Note_off_c, 4, 58, 0
7, 142920, Note_on_c, 4, 42, 100
7, 142920, Note_on_c, 4, 49, 100
7, 142920, Note_on_c, 4, 54, 100
7, 142920, Note_on_c, 4, 58, 100
7, 142980, Note_off_c, 4, 42, 0
7, 142980, Note_off_c, 4, 49, 0
7, 142980, Note_off_c, 4, 54, 0
7, 142980, Note_off_c, 4, 58, 0
7, 143040, Note_on_c, 4, 42, 100
7, 143040, Note_on_c, 4, 49, 100
7, 143040, Note_on_c, 4, 54, 100
7, 143040, Note_on_c, 4, 58, 100
7, 143100, Note_off_c, 4, 42, 0
7, 143100, Note_off_c, 4, 49, 0
7, 143100, Note_off_c, 4, 54, 0
7, 143100, Note_off_c, 4, 58, 0
7, 143160, Note_on_c, 4, 42, 100
7, 143160, Note_on_c, 4, 49, 100
7, 143160, Note_on_c, 4, 54, 100
7, 143160, Note_on_c, 4, 58, 100
7, 143220, Note_off_c, 4, 42, 0
7, 143220, Note_off_c, 4, 49, 0
7, 143220, Note_off_c, 4, 54, 0
7, 143220, Note_off_c, 4, 58, 0
7, 143280, Note_on_c, 4, 42, 100
7, 143280, Note_on_c, 4, 49, 100
7, 143280, Note_on_c, 4, 54, 100
7, 143280, Note_on_c, 4, 58, 100
7, 143340, Note_off_c, 4, 42, 0
7, 143340, Note_off_c, 4, 49, 0
7, 143340, Note_off_c, 4, 54, 0
7, 143340, Note_off_c, 4, 58, 0
7, 143400, Note_on_c, 4, 42, 100
7, 143400, Note_on_c, 4, 49, 100
7, 143400, Note_on_c, 4, 54, 100
7, 143400, Note_on_c, 4, 58, 100
7, 143460, Note_off_c, 4, 42, 0
7, 143460, Note_off_c, 4, 49, 0
7, 143460, Note_off_c, 4, 54, 0
7, 143460, Note_off_c, 4, 58, 0
7, 143520, Note_on_c, 4, 41, 100
7, 143520, Note_on_c, 4, 48, 100
7, 143520, Note_on_c, 4, 53, 100
7, 143520, Note_on_c, 4, 57, 100
7, 143580, Note_off_c, 4, 41, 0
7, 143580, Note_off_c, 4, 48, 0
7, 143580, Note_off_c, 4, 53, 0
7, 143580, Note_off_c, 4, 57, 0
7, 143640, Note_on_c, 4, 41, 100
7, 143640, Note_on_c, 4, 48, 100
7, 143640, Note_on_c, 4, 53, 100
7, 143640, Note_on_c, 4, 57, 100
7, 143700, Note_off_c, 4, 41, 0
7, 143700, Note_off_c, 4, 48, 0
7, 143700, Note_off_c, 4, 53, 0
7, 143700, Note_off_c, 4, 57, 0
7, 143760, Note_on_c, 4, 41, 100
7, 143760, Note_on_c, 4, 48, 100
7, 143760, Note_on_c, 4, 53, 100
7, 143760, Note_on_c, 4, 57, 100
7, 143820, Note_off_c, 4, 41, 0
7, 143820, Note_off_c, 4, 48, 0
7, 143820, Note_off_c, 4, 53, 0
7, 143820, Note_off_c, 4, 57, 0
7, 143880, Note_on_c, 4, 41, 100
7, 143880, Note_on_c, 4, 48, 100
7, 143880, Note_on_c, 4, 53, 100
7, 143880, Note_on_c, 4, 57, 100
7, 143940, Note_off_c, 4, 41, 0
7, 143940, Note_off_c, 4, 48, 0
7, 143940, Note_off_c, 4, 53, 0
7, 143940, Note_off_c, 4, 57, 0
7, 144000, Note_on_c, 4, 41, 100
7, 144000, Note_on_c, 4, 48, 100
7, 144000, Note_on_c, 4, 53, 100
7, 144000, Note_on_c, 4, 57, 100
7, 144060, Note_off_c, 4, 41, 0
7, 144060, Note_off_c, 4, 48, 0
7, 144060, Note_off_c, 4, 53, 0
7, 144060, Note_off_c, 4, 57, 0
7, 144120, Note_on_c, 4, 41, 100
7, 144120, Note_on_c, 4, 48, 100
7, 144120, Note_on_c, 4, 53, 100
7, 144120, Note_on_c, 4, 57, 100
7, 144180, Note_off_c, 4, 41, 0
7, 144180, Note_off_c, 4, 48, 0
7, 144180, Note_off_c, 4, 53, 0
7, 144180, Note_off_c, 4, 57, 0
7, 144240, Note_on_c, 4, 41, 100
7, 144240, Note_on_c, 4, 48, 100
7, 144240, Note_on_c, 4, 53, 100
7, 144240, Note_on_c, 4, 57, 100
7, 144300, Note_off_c, 4, 41, 0
7, 144300, Note_off_c, 4, 48, 0
7, 144300, Note_off_c, 4, 53, 0
7, 144300, Note_off_c, 4, 57, 0
7, 144360, Note_on_c, 4, 41, 100
7, 144360, Note_on_c, 4, 48, 100
7, 144360, Note_on_c, 4, 53, 100
7, 144360, Note_on_c, 4, 57, 100
7, 144420, Note_off_c, 4, 41, 0
7, 144420, Note_off_c, 4, 48, 0
7, 144420, Note_off_c, 4, 53, 0
7, 144420, Note_off_c, 4, 57, 0
7, 144480, Note_on_c, 4, 41, 100
7, 144480, Note_on_c, 4, 48, 100
7, 144480, Note_on_c, 4, 53, 100
7, 144480, Note_on_c, 4, 57, 100
7, 144540, Note_off_c, 4, 41, 0
7, 144540, Note_off_c, 4, 48, 0
7, 144540, Note_off_c, 4, 53, 0
7, 144540, Note_off_c, 4, 57, 0
7, 144600, Note_on_c, 4, 41, 100
7, 144600, Note_on_c, 4, 48, 100
7, 144600, Note_on_c, 4, 53, 100
7, 144600, Note_on_c, 4, 57, 100
7, 144660, Note_off_c, 4, 41, 0
7, 144660, Note_off_c, 4, 48, 0
7, 144660, Note_off_c, 4, 53, 0
7, 144660, Note_off_c, 4, 57, 0
7, 144720, Note_on_c, 4, 41, 100
7, 144720, Note_on_c, 4, 48, 100
7, 144720, Note_on_c, 4, 53, 100
7, 144720, Note_on_c, 4, 57, 100
7, 144780, Note_off_c, 4, 41, 0
7, 144780, Note_off_c, 4, 48, 0
7, 144780, Note_off_c, 4, 53, 0
7, 144780, Note_off_c, 4, 57, 0
7, 144840, Note_on_c, 4, 41, 100
7, 144840, Note_on_c, 4, 48, 100
7, 144840, Note_on_c, 4, 53, 100
7, 144840, Note_on_c, 4, 57, 100
7, 144900, Note_off_c, 4, 41, 0
7, 144900, Note_off_c, 4, 48, 0
7, 144900, Note_off_c, 4, 53, 0
7, 144900, Note_off_c, 4, 57, 0
7, 144960, Note_on_c, 4, 41, 100
7, 144960, Note_on_c, 4, 48, 100
7, 144960, Note_on_c, 4, 53, 100
7, 144960, Note_on_c, 4, 57, 100
7, 145020, Note_off_c, 4, 41, 0
7, 145020, Note_off_c, 4, 48, 0
7, 145020, Note_off_c, 4, 53, 0
7, 145020, Note_off_c, 4, 57, 0
7, 145080, Note_on_c, 4, 41, 100
7, 145080, Note_on_c, 4, 48, 100
7, 145080, Note_on_c, 4, 53, 100
7, 145080, Note_on_c, 4, 57, 100
7, 145140, Note_off_c, 4, 41, 0
7, 145140, Note_off_c, 4, 48, 0
7, 145140, Note_off_c, 4, 53, 0
7, 145140, Note_off_c, 4, 57, 0
7, 145200, Note_on_c, 4, 41, 100
7, 145200, Note_on_c, 4, 48, 100
7, 145200, Note_on_c, 4, 53, 100
7, 145200, Note_on_c, 4, 57, 100
7, 145260, Note_off_c, 4, 41, 0
7, 145260, Note_off_c, 4, 48, 0
7, 145260, Note_off_c, 4, 53, 0
7, 145260, Note_off_c, 4, 57, 0
7, 145320, Note_on_c, 4, 41, 100
7, 145320, Note_on_c, 4, 48, 100
7, 145320, Note_on_c, 4, 53, 100
7, 145320, Note_on_c, 4, 57, 100
7, 145380, Note_off_c, 4, 41, 0
7, 145380, Note_off_c, 4, 48, 0
7, 145380, Note_off_c, 4, 53, 0
7, 145380, Note_off_c, 4, 57, 0
7, 145440, Note_on_c, 4, 46, 100
7, 145440, Note_on_c, 4, 53, 100
7, 145440, Note_on_c, 4, 58, 100
7, 145440, Note_on_c, 4, 61, 100
7, 145500, Note_off_c, 4, 46, 0
7, 145500, Note_off_c, 4, 53, 0
7, 145500, Note_off_c, 4, 58, 0
7, 145500, Note_off_c, 4, 61, 0
7, 145560, Note_on_c, 4, 46, 100
7, 145560, Note_on_c, 4, 53, 100
7, 145560, Note_on_c, 4, 58, 100
7, 145560, Note_on_c, 4, 61, 100
7, 145620, Note_off_c, 4, 46, 0
7, 145620, Note_off_c, 4, 53, 0
7, 145620, Note_off_c, 4, 58, 0
7, 145620, Note_off_c, 4, 61, 0
7, 145680, Note_on_c, 4, 46, 100
7, 145680, Note_on_c, 4, 53, 100
7, 145680, Note_on_c, 4, 58, 100
7, 145680, Note_on_c, 4, 61, 100
7, 145740, Note_off_c, 4, 46, 0
7, 145740, Note_off_c, 4, 53, 0
7, 145740, Note_off_c, 4, 58, 0
7, 145740, Note_off_c, 4, 61, 0
7, 145800, Note_on_c, 4, 46, 100
7, 145800, Note_on_c, 4, 53, 100
7, 145800, Note_on_c, 4, 58, 100
7, 145800, Note_on_c, 4, 61, 100
7, 145860, Note_off_c, 4, 46, 0
7, 145860, Note_off_c, 4, 53, 0
7, 145860, Note_off_c, 4, 58, 0
7, 145860, Note_off_c, 4, 61, 0
7, 145920, Note_on_c, 4, 46, 100
7, 145920, Note_on_c, 4, 53, 100
7, 145920, Note_on_c, 4, 58, 100
7, 145920, Note_on_c, 4, 61, 100
7, 145980, Note_off_c, 4, 46, 0
7, 145980, Note_off_c, 4, 53, 0
7, 145980, Note_off_c, 4, 58, 0
7, 145980, Note_off_c, 4, 61, 0
7, 146040, Note_on_c, 4, 46, 100
7, 146040, Note_on_c, 4, 53, 100
7, 146040, Note_on_c, 4, 58, 100
7, 146040, Note_on_c, 4, 61, 100
7, 146100, Note_off_c, 4, 46, 0
7, 146100, Note_off_c, 4, 53, 0
7, 146100, Note_off_c, 4, 58, 0
7, 146100, Note_off_c, 4, 61, 0
7, 146160, Note_on_c, 4, 46, 100
7, 146160, Note_on_c, 4, 53, 100
7, 146160, Note_on_c, 4, 58, 100
7, 146160, Note_on_c, 4, 61, 100
7, 146220, Note_off_c, 4, 46, 0
7, 146220, Note_off_c, 4, 53, 0
7, 146220, Note_off_c, 4, 58, 0
7, 146220, Note_off_c, 4, 61, 0
7, 146280, Note_on_c, 4, 46, 100
7, 146280, Note_on_c, 4, 53, 100
7, 146280, Note_on_c, 4, 58, 100
7, 146280, Note_on_c, 4, 61, 100
7, 146340, Note_off_c, 4, 46, 0
7, 146340, Note_off_c, 4, 53, 0
7, 146340, Note_off_c, 4, 58, 0
7, 146340, Note_off_c, 4, 61, 0
7, 146400, Note_on_c, 4, 46, 100
7, 146400, Note_on_c, 4, 53, 100
7, 146400, Note_on_c, 4, 58, 100
7, 146400, Note_on_c, 4, 61, 100
7, 146460, Note_off_c, 4, 46, 0
7, 146460, Note_off_c, 4, 53, 0
7, 146460, Note_off_c, 4, 58, 0
7, 146460, Note_off_c, 4, 61, 0
7, 146520, Note_on_c, 4, 46, 100
7, 146520, Note_on_c, 4, 53, 100
7, 146520, Note_on_c, 4, 58, 100
7, 146520, Note_on_c, 4, 61, 100
7, 146580, Note_off_c, 4, 46, 0
7, 146580, Note_off_c, 4, 53, 0
7, 146580, Note_off_c, 4, 58, 0
7, 146580, Note_off_c, 4, 61, 0
7, 146640, Note_on_c, 4, 46, 100
7, 146640, Note_on_c, 4, 53, 100
7, 146640, Note_on_c, 4, 58, 100
7, 146640, Note_on_c, 4, 61, 100
7, 146700, Note_off_c, 4, 46, 0
7, 146700, Note_off_c, 4, 53, 0
7, 146700, Note_off_c, 4, 58, 0
7, 146700, Note_off_c, 4, 61, 0
7, 146760, Note_on_c, 4, 46, 100
7, 146760, Note_on_c, 4, 53, 100
7, 146760, Note_on_c, 4, 58, 100
7, 146760, Note_on_c, 4, 61, 100
7, 146820, Note_off_c, 4, 46, 0
7, 146820, Note_off_c, 4, 53, 0
7, 146820, Note_off_c, 4, 58, 0
7, 146820, Note_off_c, 4, 61, 0
7, 146880, Note_on_c, 4, 46, 100
7, 146880, Note_on_c, 4, 53, 100
7, 146880, Note_on_c, 4, 58, 100
7, 146880, Note_on_c, 4, 61, 100
7, 146940, Note_off_c, 4, 46, 0
7, 146940, Note_off_c, 4, 53, 0
7, 146940, Note_off_c, 4, 58, 0
7, 146940, Note_off_c, 4, 61, 0
7, 147000, Note_on_c, 4, 46, 100
7, 147000, Note_on_c, 4, 53, 100
7, 147000, Note_on_c, 4, 58, 100
7, 147000, Note_on_c, 4, 61, 100
7, 147060, Note_off_c, 4, 46, 0
7, 147060, Note_off_c, 4, 53, 0
7, 147060, Note_off_c, 4, 58, 0
7, 147060, Note_off_c, 4, 61, 0
7, 147120, Note_on_c, 4, 46, 100
7, 147120, Note_on_c, 4, 53, 100
7, 147120, Note_on_c, 4, 58, 100
7, 147120, Note_on_c, 4, 61, 100
7, 147180, Note_off_c, 4, 46, 0
7, 147180, Note_off_c, 4, 53, 0
7, 147180, Note_off_c, 4, 58, 0
7, 147180, Note_off_c, 4, 61, 0
7, 147240, Note_on_c, 4, 46, 100
7, 147240, Note_on_c, 4, 53, 100
7, 147240, Note_on_c, 4, 58, 100
7, 147240, Note_on_c, 4, 61, 100
7, 147300, Note_off_c, 4, 46, 0
7, 147300, Note_off_c, 4, 53, 0
7, 147300, Note_off_c, 4, 58, 0
7, 147300, Note_off_c, 4, 61, 0
7, 147360, Note_on_c, 4, 42, 100
7, 147360, Note_on_c, 4, 49, 100
7, 147360, Note_on_c, 4, 54, 100
7, 147360, Note_on_c, 4, 58, 100
7, 147420, Note_off_c, 4, 42, 0
7, 147420, Note_off_c, 4, 49, 0
7, 147420, Note_off_c, 4, 54, 0
7, 147420, Note_off_c, 4, 58, 0
7, 147480, Note_on_c, 4, 42, 100
7, 147480, Note_on_c, 4, 49, 100
7, 147480, Note_on_c, 4, 54, 100
7, 147480, Note_on_c, 4, 58, 100
7, 147540, Note_off_c, 4, 42, 0
7, 147540, Note_off_c, 4, 49, 0
7, 147540, Note_off_c, 4, 54, 0
7, 147540, Note_off_c, 4, 58, 0
7, 147600, Note_on_c, 4, 42, 100
7, 147600, Note_on_c, 4, 49, 100
7, 147600, Note_on_c, 4, 54, 100
7, 147600, Note_on_c, 4, 58, 100
7, 147660, Note_off_c, 4, 42, 0
7, 147660, Note_off_c, 4, 49, 0
7, 147660, Note_off_c, 4, 54, 0
7, 147660, Note_off_c, 4, 58, 0
7, 147720, Note_on_c, 4, 42, 100
7, 147720, Note_on_c, 4, 49, 100
7, 147720, Note_on_c, 4, 54, 100
7, 147720, Note_on_c, 4, 58, 100
7, 147780, Note_off_c, 4, 42, 0
7, 147780, Note_off_c, 4, 49, 0
7, 147780, Note_off_c, 4, 54, 0
7, 147780, Note_off_c, 4, 58, 0
7, 147840, Note_on_c, 4, 42, 100
7, 147840, Note_on_c, 4, 49, 100
7, 147840, Note_on_c, 4, 54, 100
7, 147840, Note_on_c, 4, 58, 100
7, 147900, Note_off_c, 4, 42, 0
7, 147900, Note_off_c, 4, 49, 0
7, 147900, Note_off_c, 4, 54, 0
7, 147900, Note_off_c, 4, 58, 0
7, 147960, Note_on_c, 4, 42, 100
7, 147960, Note_on_c, 4, 49, 100
7, 147960, Note_on_c, 4, 54, 100
7, 147960, Note_on_c, 4, 58, 100
7, 148020, Note_off_c, 4, 42, 0
7, 148020, Note_off_c, 4, 49, 0
7, 148020, Note_off_c, 4, 54, 0
7, 148020, Note_off_c, 4, 58, 0
7, 148080, Note_on_c, 4, 42, 100
7, 148080, Note_on_c, 4, 49, 100
7, 148080, Note_on_c, 4, 54, 100
7, 148080, Note_on_c, 4, 58, 100
7, 148140, Note_off_c, 4, 42, 0
7, 148140, Note_off_c, 4, 49, 0
7, 148140, Note_off_c, 4, 54, 0
7, 148140, Note_off_c, 4, 58, 0
7, 148200, Note_on_c, 4, 42, 100
7, 148200, Note_on_c, 4, 49, 100
7, 148200, Note_on_c, 4, 54, 100
7, 148200, Note_on_c, 4, 58, 100
7, 148260, Note_off_c, 4, 42, 0
7, 148260, Note_off_c, 4, 49, 0
7, 148260, Note_off_c, 4, 54, 0
7, 148260, Note_off_c, 4, 58, 0
7, 148320, Note_on_c, 4, 42, 100
7, 148320, Note_on_c, 4, 49, 100
7, 148320, Note_on_c, 4, 54, 100
7, 148320, Note_on_c, 4, 58, 100
7, 148380, Note_off_c, 4, 42, 0
7, 148380, Note_off_c, 4, 49, 0
7, 148380, Note_off_c, 4, 54, 0
7, 148380, Note_off_c, 4, 58, 0
7, 148440, Note_on_c, 4, 42, 100
7, 148440, Note_on_c, 4, 49, 100
7, 148440, Note_on_c, 4, 54, 100
7, 148440, Note_on_c, 4, 58, 100
7, 148500, Note_off_c, 4, 42, 0
7, 148500, Note_off_c, 4, 49, 0
7, 148500, Note_off_c, 4, 54, 0
7, 148500, Note_off_c, 4, 58, 0
7, 148560, Note_on_c, 4, 42, 100
7, 148560, Note_on_c, 4, 49, 100
7, 148560, Note_on_c, 4, 54, 100
7, 148560, Note_on_c, 4, 58, 100
7, 148620, Note_off_c, 4, 42, 0
7, 148620, Note_off_c, 4, 49, 0
7, 148620, Note_off_c, 4, 54, 0
7, 148620, Note_off_c, 4, 58, 0
7, 148680, Note_on_c, 4, 42, 100
7, 148680, Note_on_c, 4, 49, 100
7, 148680, Note_on_c, 4, 54, 100
7, 148680, Note_on_c, 4, 58, 100
7, 148740, Note_off_c, 4, 42, 0
7, 148740, Note_off_c, 4, 49, 0
7, 148740, Note_off_c, 4, 54, 0
7, 148740, Note_off_c, 4, 58, 0
7, 148800, Note_on_c, 4, 42, 100
7, 148800, Note_on_c, 4, 49, 100
7, 148800, Note_on_c, 4, 54, 100
7, 148800, Note_on_c, 4, 58, 100
7, 148860, Note_off_c, 4, 42, 0
7, 148860, Note_off_c, 4, 49, 0
7, 148860, Note_off_c, 4, 54, 0
7, 148860, Note_off_c, 4, 58, 0
7, 148920, Note_on_c, 4, 42, 100
7, 148920, Note_on_c, 4, 49, 100
7, 148920, Note_on_c, 4, 54, 100
7, 148920, Note_on_c, 4, 58, 100
7, 148980, Note_off_c, 4, 42, 0
7, 148980, Note_off_c, 4, 49, 0
7, 148980, Note_off_c, 4, 54, 0
7, 148980, Note_off_c, 4, 58, 0
7, 149040, Note_on_c, 4, 42, 100
7, 149040, Note_on_c, 4, 49, 100
7, 149040, Note_on_c, 4, 54, 100
7, 149040, Note_on_c, 4, 58, 100
7, 149100, Note_off_c, 4, 42, 0
7, 149100, Note_off_c, 4, 49, 0
7, 149100, Note_off_c, 4, 54, 0
7, 149100, Note_off_c, 4, 58, 0
7, 149160, Note_on_c, 4, 42, 100
7, 149160, Note_on_c, 4, 49, 100
7, 149160, Note_on_c, 4, 54, 100
7, 149160, Note_on_c, 4, 58, 100
7, 149220, Note_off_c, 4, 42, 0
7, 149220, Note_off_c, 4, 49, 0
7, 149220, Note_off_c, 4, 54, 0
7, 149220, Note_off_c, 4, 58, 0
7, 149280, Note_on_c, 4, 44, 100
7, 149280, Note_on_c, 4, 51, 100
7, 149280, Note_on_c, 4, 56, 100
7, 149280, Note_on_c, 4, 60, 100
7, 149340, Note_off_c, 4, 44, 0
7, 149340, Note_off_c, 4, 51, 0
7, 149340, Note_off_c, 4, 56, 0
7, 149340, Note_off_c, 4, 60, 0
7, 149400, Note_on_c, 4, 44, 100
7, 149400, Note_on_c, 4, 51, 100
7, 149400, Note_on_c, 4, 56, 100
7, 149400, Note_on_c, 4, 60, 100
7, 149460, Note_off_c, 4, 44, 0
7, 149460, Note_off_c, 4, 51, 0
7, 149460, Note_off_c, 4, 56, 0
7, 149460, Note_off_c, 4, 60, 0
7, 149520, Note_on_c, 4, 44, 100
7, 149520, Note_on_c, 4, 51, 100
7, 149520, Note_on_c, 4, 56, 100
7, 149520, Note_on_c, 4, 60, 100
7, 149580, Note_off_c, 4, 44, 0
7, 149580, Note_off_c, 4, 51, 0
7, 149580, Note_off_c, 4, 56, 0
7, 149580, Note_off_c, 4, 60, 0
7, 149640, Note_on_c, 4, 44, 100
7, 149640, Note_on_c, 4, 51, 100
7, 149640, Note_on_c, 4, 56, 100
7, 149640, Note_on_c, 4, 60, 100
7, 149700, Note_off_c, 4, 44, 0
7, 149700, Note_off_c, 4, 51, 0
7, 149700, Note_off_c, 4, 56, 0
7, 149700, Note_off_c, 4, 60, 0
7, 149760, Note_on_c, 4, 44, 100
7, 149760, Note_on_c, 4, 51, 100
7, 149760, Note_on_c, 4, 56, 100
7, 149760, Note_on_c, 4, 60, 100
7, 149820, Note_off_c, 4, 44, 0
7, 149820, Note_off_c, 4, 51, 0
7, 149820, Note_off_c, 4, 56, 0
7, 149820, Note_off_c, 4, 60, 0
7, 149880, Note_on_c, 4, 44, 100
7, 149880, Note_on_c, 4, 51, 100
7, 149880, Note_on_c, 4, 56, 100
7, 149880, Note_on_c, 4, 60, 100
7, 149940, Note_off_c, 4, 44, 0
7, 149940, Note_off_c, 4, 51, 0
7, 149940, Note_off_c, 4, 56, 0
7, 149940, Note_off_c, 4, 60, 0
7, 150000, Note_on_c, 4, 44, 100
7, 150000, Note_on_c, 4, 51, 100
7, 150000, Note_on_c, 4, 56, 100
7, 150000, Note_on_c, 4, 60, 100
7, 150060, Note_off_c, 4, 44, 0
7, 150060, Note_off_c, 4, 51, 0
7, 150060, Note_off_c, 4, 56, 0
7, 150060, Note_off_c, 4, 60, 0
7, 150120, Note_on_c, 4, 44, 100
7, 150120, Note_on_c, 4, 51, 100
7, 150120, Note_on_c, 4, 56, 100
7, 150120, Note_on_c, 4, 60, 100
7, 150180, Note_off_c, 4, 44, 0
7, 150180, Note_off_c, 4, 51, 0
7, 150180, Note_off_c, 4, 56, 0
7, 150180, Note_off_c, 4, 60, 0
7, 150240, Note_on_c, 4, 42, 100
7, 150240, Note_on_c, 4, 49, 100
7, 150240, Note_on_c, 4, 54, 100
7, 150240, Note_on_c, 4, 58, 100
7, 150300, Note_off_c, 4, 42, 0
7, 150300, Note_off_c, 4, 49, 0
7, 150300, Note_off_c, 4, 54, 0
7, 150300, Note_off_c, 4, 58, 0
7, 150360, Note_on_c, 4, 42, 100
7, 150360, Note_on_c, 4, 49, 100
7, 150360, Note_on_c, 4, 54, 100
7, 150360, Note_on_c, 4, 58, 100
7, 150420, Note_off_c, 4, 42, 0
7, 150420, Note_off_c, 4, 49, 0
7, 150420, Note_off_c, 4, 54, 0
7, 150420, Note_off_c, 4, 58, 0
7, 150480, Note_on_c, 4, 42, 100
7, 150480, Note_on_c, 4, 49, 100
7, 150480, Note_on_c, 4, 54, 100
7, 150480, Note_on_c, 4, 58, 100
7, 150540, Note_off_c, 4, 42, 0
7, 150540, Note_off_c, 4, 49, 0
7, 150540, Note_off_c, 4, 54, 0
7, 150540, Note_off_c, 4, 58, 0
7, 150600, Note_on_c, 4, 42, 100
7, 150600, Note_on_c, 4, 49, 100
7, 150600, Note_on_c, 4, 54, 100
7, 150600, Note_on_c, 4, 58, 100
7, 150660, Note_off_c, 4, 42, 0
7, 150660, Note_off_c, 4, 49, 0
7, 150660, Note_off_c, 4, 54, 0
7, 150660, Note_off_c, 4, 58, 0
7, 150720, Note_on_c, 4, 42, 100
7, 150720, Note_on_c, 4, 49, 100
7, 150720, Note_on_c, 4, 54, 100
7, 150720, Note_on_c, 4, 58, 100
7, 150780, Note_off_c, 4, 42, 0
7, 150780, Note_off_c, 4, 49, 0
7, 150780, Note_off_c, 4, 54, 0
7, 150780, Note_off_c, 4, 58, 0
7, 150840, Note_on_c, 4, 42, 100
7, 150840, Note_on_c, 4, 49, 100
7, 150840, Note_on_c, 4, 54, 100
7, 150840, Note_on_c, 4, 58, 100
7, 150900, Note_off_c, 4, 42, 0
7, 150900, Note_off_c, 4, 49, 0
7, 150900, Note_off_c, 4, 54, 0
7, 150900, Note_off_c, 4, 58, 0
7, 150960, Note_on_c, 4, 42, 100
7, 150960, Note_on_c, 4, 49, 100
7, 150960, Note_on_c, 4, 54, 100
7, 150960, Note_on_c, 4, 58, 100
7, 151020, Note_off_c, 4, 42, 0
7, 151020, Note_off_c, 4, 49, 0
7, 151020, Note_off_c, 4, 54, 0
7, 151020, Note_off_c, 4, 58, 0
7, 151080, Note_on_c, 4, 42, 100
7, 151080, Note_on_c, 4, 49, 100
7, 151080, Note_on_c, 4, 54, 100
7, 151080, Note_on_c, 4, 58, 100
7, 151140, Note_off_c, 4, 42, 0
7, 151140, Note_off_c, 4, 49, 0
7, 151140, Note_off_c, 4, 54, 0
7, 151140, Note_off_c, 4, 58, 0
7, 151200, Note_on_c, 4, 41, 100
7, 151200, Note_on_c, 4, 48, 100
7, 151200, Note_on_c, 4, 53, 100
7, 151200, Note_on_c, 4, 57, 100
7, 151260, Note_off_c, 4, 41, 0
7, 151260, Note_off_c, 4, 48, 0
7, 151260, Note_off_c, 4, 53, 0
7, 151260, Note_off_c, 4, 57, 0
7, 151320, Note_on_c, 4, 41, 100
7, 151320, Note_on_c, 4, 48, 100
7, 151320, Note_on_c, 4, 53, 100
7, 151320, Note_on_c, 4, 57, 100
7, 151380, Note_off_c, 4, 41, 0
7, 151380, Note_off_c, 4, 48, 0
7, 151380, Note_off_c, 4, 53, 0
7, 151380, Note_off_c, 4, 57, 0
7, 151440, Note_on_c, 4, 41, 100
7, 151440, Note_on_c, 4, 48, 100
7, 151440, Note_on_c, 4, 53, 100
7, 151440, Note_on_c, 4, 57, 100
7, 151500, Note_off_c, 4, 41, 0
7, 151500, Note_off_c, 4, 48, 0
7, 151500, Note_off_c, 4, 53, 0
7, 151500, Note_off_c, 4, 57, 0
7, 151560, Note_on_c, 4, 41, 100
7, 151560, Note_on_c, 4, 48, 100
7, 151560, Note_on_c, 4, 53, 100
7, 151560, Note_on_c, 4, 57, 100
7, 151620, Note_off_c, 4, 41, 0
7, 151620, Note_off_c, 4, 48, 0
7, 151620, Note_off_c, 4, 53, 0
7, 151620, Note_off_c, 4, 57, 0
7, 151680, Note_on_c, 4, 41, 100
7, 151680, Note_on_c, 4, 48, 100
7, 151680, Note_on_c, 4, 53, 100
7, 151680, Note_on_c, 4, 57, 100
7, 151740, Note_off_c, 4, 41, 0
7, 151740, Note_off_c, 4, 48, 0
7, 151740, Note_off_c, 4, 53, 0
7, 151740, Note_off_c, 4, 57, 0
7, 151800, Note_on_c, 4, 41, 100
7, 151800, Note_on_c, 4, 48, 100
7, 151800, Note_on_c, 4, 53, 100
7, 151800, Note_on_c, 4, 57, 100
7, 151860, Note_off_c, 4, 41, 0
7, 151860, Note_off_c, 4, 48, 0
7, 151860, Note_off_c, 4, 53, 0
7, 151860, Note_off_c, 4, 57, 0
7, 151920, Note_on_c, 4, 41, 100
7, 151920, Note_on_c, 4, 48, 100
7, 151920, Note_on_c, 4, 53, 100
7, 151920, Note_on_c, 4, 57, 100
7, 151980, Note_off_c, 4, 41, 0
7, 151980, Note_off_c, 4, 48, 0
7, 151980, Note_off_c, 4, 53, 0
7, 151980, Note_off_c, 4, 57, 0
7, 152040, Note_on_c, 4, 41, 100
7, 152040, Note_on_c, 4, 48, 100
7, 152040, Note_on_c, 4, 53, 100
7, 152040, Note_on_c, 4, 57, 100
7, 152100, Note_off_c, 4, 41, 0
7, 152100, Note_off_c, 4, 48, 0
7, 152100, Note_off_c, 4, 53, 0
7, 152100, Note_off_c, 4, 57, 0
7, 152160, Note_on_c, 4, 41, 100
7, 152160, Note_on_c, 4, 48, 100
7, 152160, Note_on_c, 4, 53, 100
7, 152160, Note_on_c, 4, 57, 100
7, 152220, Note_off_c, 4, 41, 0
7, 152220, Note_off_c, 4, 48, 0
7, 152220, Note_off_c, 4, 53, 0
7, 152220, Note_off_c, 4, 57, 0
7, 152280, Note_on_c, 4, 41, 100
7, 152280, Note_on_c, 4, 48, 100
7, 152280, Note_on_c, 4, 53, 100
7, 152280, Note_on_c, 4, 57, 100
7, 152340, Note_off_c, 4, 41, 0
7, 152340, Note_off_c, 4, 48, 0
7, 152340, Note_off_c, 4, 53, 0
7, 152340, Note_off_c, 4, 57, 0
7, 152400, Note_on_c, 4, 41, 100
7, 152400, Note_on_c, 4, 48, 100
7, 152400, Note_on_c, 4, 53, 100
7, 152400, Note_on_c, 4, 57, 100
7, 152460, Note_off_c, 4, 41, 0
7, 152460, Note_off_c, 4, 48, 0
7, 152460, Note_off_c, 4, 53, 0
7, 152460, Note_off_c, 4, 57, 0
7, 152520, Note_on_c, 4, 41, 100
7, 152520, Note_on_c, 4, 48, 100
7, 152520, Note_on_c, 4, 53, 100
7, 152520, Note_on_c, 4, 57, 100
7, 152580, Note_off_c, 4, 41, 0
7, 152580, Note_off_c, 4, 48, 0
7, 152580, Note_off_c, 4, 53, 0
7, 152580, Note_off_c, 4, 57, 0
7, 152640, Note_on_c, 4, 41, 100
7, 152640, Note_on_c, 4, 48, 100
7, 152640, Note_on_c, 4, 53, 100
7, 152640, Note_on_c, 4, 57, 100
7, 152700, Note_off_c, 4, 41, 0
7, 152700, Note_off_c, 4, 48, 0
7, 152700, Note_off_c, 4, 53, 0
7, 152700, Note_off_c, 4, 57, 0
7, 152760, Note_on_c, 4, 41, 100
7, 152760, Note_on_c, 4, 48, 100
7, 152760, Note_on_c, 4, 53, 100
7, 152760, Note_on_c, 4, 57, 100
7, 152820, Note_off_c, 4, 41, 0
7, 152820, Note_off_c, 4, 48, 0
7, 152820, Note_off_c, 4, 53, 0
7, 152820, Note_off_c, 4, 57, 0
7, 152880, Note_on_c, 4, 41, 100
7, 152880, Note_on_c, 4, 48, 100
7, 152880, Note_on_c, 4, 53, 100
7, 152880, Note_on_c, 4, 57, 100
7, 152940, Note_off_c, 4, 41, 0
7, 152940, Note_off_c, 4, 48, 0
7, 152940, Note_off_c, 4, 53, 0
7, 152940, Note_off_c, 4, 57, 0
7, 153000, Note_on_c, 4, 41, 100
7, 153000, Note_on_c, 4, 48, 100
7, 153000, Note_on_c, 4, 53, 100
7, 153000, Note_on_c, 4, 57, 100
7, 153060, Note_off_c, 4, 41, 0
7, 153060, Note_off_c, 4, 48, 0
7, 153060, Note_off_c, 4, 53, 0
7, 153060, Note_off_c, 4, 57, 0
7, 153060, End_track
8, 0, Start_track
8, 0, Title_t, ""
8, 0, MIDI_port, 0
8, 130080, Note_on_c, 5, 61, 1
8, 130080, Note_on_c, 5, 58, 1
8, 130080, Note_on_c, 5, 53, 1
8, 130080, Note_on_c, 5, 46, 1
8, 130110, Note_off_c, 5, 61, 0
8, 130110, Note_off_c, 5, 58, 0
8, 130110, Note_off_c, 5, 53, 0
8, 130110, Note_off_c, 5, 46, 0
8, 130110, Note_on_c, 5, 61, 1
8, 130110, Note_on_c, 5, 58, 1
8, 130110, Note_on_c, 5, 53, 1
8, 130110, Note_on_c, 5, 46, 1
8, 130140, Note_off_c, 5, 61, 0
8, 130140, Note_off_c, 5, 58, 0
8, 130140, Note_off_c, 5, 53, 0
8, 130140, Note_off_c, 5, 46, 0
8, 130140, Note_on_c, 5, 61, 2
8, 130140, Note_on_c, 5, 58, 2
8, 130140, Note_on_c, 5, 53, 2
8, 130140, Note_on_c, 5, 46, 2
8, 130170, Note_off_c, 5, 61, 0
8, 130170, Note_off_c, 5, 58, 0
8, 130170, Note_off_c, 5, 53, 0
8, 130170, Note_off_c, 5, 46, 0
8, 130170, Note_on_c, 5, 61, 2
8, 130170, Note_on_c, 5, 58, 2
8, 130170, Note_on_c, 5, 53, 2
8, 130170, Note_on_c, 5, 46, 2
8, 130200, Note_off_c, 5, 61, 0
8, 130200, Note_off_c, 5, 58, 0
8, 130200, Note_off_c, 5, 53, 0
8, 130200, Note_off_c, 5, 46, 0
8, 130200, Note_on_c, 5, 61, 3
8, 130200, Note_on_c, 5, 58, 3
8, 130200, Note_on_c, 5, 53, 3
8, 130200, Note_on_c, 5, 46, 3
8, 130230, Note_off_c, 5, 61, 0
8, 130230, Note_off_c, 5, 58, 0
8, 130230, Note_off_c, 5, 53, 0
8, 130230, Note_off_c, 5, 46, 0
8, 130230, Note_on_c, 5, 61, 3
8, 130230, Note_on_c, 5, 58, 3
8, 130230, Note_on_c, 5, 53, 3
8, 130230, Note_on_c, 5, 46, 3
8, 130260, Note_off_c, 5, 61, 0
8, 130260, Note_off_c, 5, 58, 0
8, 130260, Note_off_c, 5, 53, 0
8, 130260, Note_off_c, 5, 46, 0
8, 130260, Note_on_c, 5, 61, 3
8, 130260, Note_on_c, 5, 58, 3
8, 130260, Note_on_c, 5, 53, 3
8, 130260, Note_on_c, 5, 46, 3
8, 130290, Note_off_c, 5, 61, 0
8, 130290, Note_off_c, 5, 58, 0
8, 130290, Note_off_c, 5, 53, 0
8, 130290, Note_off_c, 5, 46, 0
8, 130290, Note_on_c, 5, 61, 4
8, 130290, Note_on_c, 5, 58, 4
8, 130290, Note_on_c, 5, 53, 4
8, 130290, Note_on_c, 5, 46, 4
8, 130320, Note_off_c, 5, 61, 0
8, 130320, Note_off_c, 5, 58, 0
8, 130320, Note_off_c, 5, 53, 0
8, 130320, Note_off_c, 5, 46, 0
8, 130320, Note_on_c, 5, 61, 5
8, 130320, Note_on_c, 5, 58, 5
8, 130320, Note_on_c, 5, 53, 5
8, 130320, Note_on_c, 5, 46, 5
8, 130350, Note_off_c, 5, 61, 0
8, 130350, Note_off_c, 5, 58, 0
8, 130350, Note_off_c, 5, 53, 0
8, 130350, Note_off_c, 5, 46, 0
8, 130350, Note_on_c, 5, 61, 5
8, 130350, Note_on_c, 5, 58, 5
8, 130350, Note_on_c, 5, 53, 5
8, 130350, Note_on_c, 5, 46, 5
8, 130380, Note_off_c, 5, 61, 0
8, 130380, Note_off_c, 5, 58, 0
8, 130380, Note_off_c, 5, 53, 0
8, 130380, Note_off_c, 5, 46, 0
8, 130380, Note_on_c, 5, 61, 6
8, 130380, Note_on_c, 5, 58, 6
8, 130380, Note_on_c, 5, 53, 6
8, 130380, Note_on_c, 5, 46, 6
8, 130410, Note_off_c, 5, 61, 0
8, 130410, Note_off_c, 5, 58, 0
8, 130410, Note_off_c, 5, 53, 0
8, 130410, Note_off_c, 5, 46, 0
8, 130410, Note_on_c, 5, 61, 6
8, 130410, Note_on_c, 5, 58, 6
8, 130410, Note_on_c, 5, 53, 6
8, 130410, Note_on_c, 5, 46, 6
8, 130440, Note_off_c, 5, 61, 0
8, 130440, Note_off_c, 5, 58, 0
8, 130440, Note_off_c, 5, 53, 0
8, 130440, Note_off_c, 5, 46, 0
8, 130440, Note_on_c, 5, 61, 7
8, 130440, Note_on_c, 5, 58, 7
8, 130440, Note_on_c, 5, 53, 7
8, 130440, Note_on_c, 5, 46, 7
8, 130470, Note_off_c, 5, 61, 0
8, 130470, Note_off_c, 5, 58, 0
8, 130470, Note_off_c, 5, 53, 0
8, 130470, Note_off_c, 5, 46, 0
8, 130470, Note_on_c, 5, 61, 7
8, 130470, Note_on_c, 5, 58, 7
8, 130470, Note_on_c, 5, 53, 7
8, 130470, Note_on_c, 5, 46, 7
8, 130500, Note_off_c, 5, 61, 0
8, 130500, Note_off_c, 5, 58, 0
8, 130500, Note_off_c, 5, 53, 0
8, 130500, Note_off_c, 5, 46, 0
8, 130500, Note_on_c, 5, 61, 7
8, 130500, Note_on_c, 5, 58, 7
8, 130500, Note_on_c, 5, 53, 7
8, 130500, Note_on_c, 5, 46, 7
8, 130530, Note_off_c, 5, 61, 0
8, 130530, Note_off_c, 5, 58, 0
8, 130530, Note_off_c, 5, 53, 0
8, 130530, Note_off_c, 5, 46, 0
8, 130530, Note_on_c, 5, 61, 8
8, 130530, Note_on_c, 5, 58, 8
8, 130530, Note_on_c, 5, 53, 8
8, 130530, Note_on_c, 5, 46, 8
8, 130560, Note_off_c, 5, 61, 0
8, 130560, Note_off_c, 5, 58, 0
8, 130560, Note_off_c, 5, 53, 0
8, 130560, Note_off_c, 5, 46, 0
8, 130560, Note_on_c, 5, 61, 9
8, 130560, Note_on_c, 5, 58, 9
8, 130560, Note_on_c, 5, 53, 9
8, 130560, Note_on_c, 5, 46, 9
8, 130590, Note_off_c, 5, 61, 0
8, 130590, Note_off_c, 5, 58, 0
8, 130590, Note_off_c, 5, 53, 0
8, 130590, Note_off_c, 5, 46, 0
8, 130590, Note_on_c, 5, 61, 9
8, 130590, Note_on_c, 5, 58, 9
8, 130590, Note_on_c, 5, 53, 9
8, 130590, Note_on_c, 5, 46, 9
8, 130620, Note_off_c, 5, 61, 0
8, 130620, Note_off_c, 5, 58, 0
8, 130620, Note_off_c, 5, 53, 0
8, 130620, Note_off_c, 5, 46, 0
8, 130620, Note_on_c, 5, 61, 10
8, 130620, Note_on_c, 5, 58, 10
8, 130620, Note_on_c, 5, 53, 10
8, 130620, Note_on_c, 5, 46, 10
8, 130650, Note_off_c, 5, 61, 0
8, 130650, Note_off_c, 5, 58, 0
8, 130650, Note_off_c, 5, 53, 0
8, 130650, Note_off_c, 5, 46, 0
8, 130650, Note_on_c, 5, 61, 10
8, 130650, Note_on_c, 5, 58, 10
8, 130650, Note_on_c, 5, 53, 10
8, 130650, Note_on_c, 5, 46, 10
8, 130680, Note_off_c, 5, 61, 0
8, 130680, Note_off_c, 5, 58, 0
8, 130680, Note_off_c, 5, 53, 0
8, 130680, Note_off_c, 5, 46, 0
8, 130680, Note_on_c, 5, 61, 10
8, 130680, Note_on_c, 5, 58, 10
8, 130680, Note_on_c, 5, 53, 10
8, 130680, Note_on_c, 5, 46, 10
8, 130710, Note_off_c, 5, 61, 0
8, 130710, Note_off_c, 5, 58, 0
8, 130710, Note_off_c, 5, 53, 0
8, 130710, Note_off_c, 5, 46, 0
8, 130710, Note_on_c, 5, 61, 11
8, 130710, Note_on_c, 5, 58, 11
8, 130710, Note_on_c, 5, 53, 11
8, 130710, Note_on_c, 5, 46, 11
8, 130740, Note_off_c, 5, 61, 0
8, 130740, Note_off_c, 5, 58, 0
8, 130740, Note_off_c, 5, 53, 0
8, 130740, Note_off_c, 5, 46, 0
8, 130740, Note_on_c, 5, 61, 11
8, 130740, Note_on_c, 5, 58, 11
8, 130740, Note_on_c, 5, 53, 11
8, 130740, Note_on_c, 5, 46, 11
8, 130770, Note_off_c, 5, 61, 0
8, 130770, Note_off_c, 5, 58, 0
8, 130770, Note_off_c, 5, 53, 0
8, 130770, Note_off_c, 5, 46, 0
8, 130770, Note_on_c, 5, 61, 12
8, 130770, Note_on_c, 5, 58, 12
8, 130770, Note_on_c, 5, 53, 12
8, 130770, Note_on_c, 5, 46, 12
8, 130800, Note_off_c, 5, 61, 0
8, 130800, Note_off_c, 5, 58, 0
8, 130800, Note_off_c, 5, 53, 0
8, 130800, Note_off_c, 5, 46, 0
8, 130800, Note_on_c, 5, 61, 13
8, 130800, Note_on_c, 5, 58, 13
8, 130800, Note_on_c, 5, 53, 13
8, 130800, Note_on_c, 5, 46, 13
8, 130830, Note_off_c, 5, 61, 0
8, 130830, Note_off_c, 5, 58, 0
8, 130830, Note_off_c, 5, 53, 0
8, 130830, Note_off_c, 5, 46, 0
8, 130830, Note_on_c, 5, 61, 13
8, 130830, Note_on_c, 5, 58, 13
8, 130830, Note_on_c, 5, 53, 13
8, 130830, Note_on_c, 5, 46, 13
8, 130860, Note_off_c, 5, 61, 0
8, 130860, Note_off_c, 5, 58, 0
8, 130860, Note_off_c, 5, 53, 0
8, 130860, Note_off_c, 5, 46, 0
8, 130860, Note_on_c, 5, 61, 14
8, 130860, Note_on_c, 5, 58, 14
8, 130860, Note_on_c, 5, 53, 14
8, 130860, Note_on_c, 5, 46, 14
8, 130890, Note_off_c, 5, 61, 0
8, 130890, Note_off_c, 5, 58, 0
8, 130890, Note_off_c, 5, 53, 0
8, 130890, Note_off_c, 5, 46, 0
8, 130890, Note_on_c, 5, 61, 14
8, 130890, Note_on_c, 5, 58, 14
8, 130890, Note_on_c, 5, 53, 14
8, 130890, Note_on_c, 5, 46, 14
8, 130920, Note_off_c, 5, 61, 0
8, 130920, Note_off_c, 5, 58, 0
8, 130920, Note_off_c, 5, 53, 0
8, 130920, Note_off_c, 5, 46, 0
8, 130920, Note_on_c, 5, 61, 14
8, 130920, Note_on_c, 5, 58, 14
8, 130920, Note_on_c, 5, 53, 14
8, 130920, Note_on_c, 5, 46, 14
8, 130950, Note_off_c, 5, 61, 0
8, 130950, Note_off_c, 5, 58, 0
8, 130950, Note_off_c, 5, 53, 0
8, 130950, Note_off_c, 5, 46, 0
8, 130950, Note_on_c, 5, 61, 15
8, 130950, Note_on_c, 5, 58, 15
8, 130950, Note_on_c, 5, 53, 15
8, 130950, Note_on_c, 5, 46, 15
8, 130980, Note_off_c, 5, 61, 0
8, 130980, Note_off_c, 5, 58, 0
8, 130980, Note_off_c, 5, 53, 0
8, 130980, Note_off_c, 5, 46, 0
8, 130980, Note_on_c, 5, 61, 15
8, 130980, Note_on_c, 5, 58, 15
8, 130980, Note_on_c, 5, 53, 15
8, 130980, Note_on_c, 5, 46, 15
8, 131010, Note_off_c, 5, 61, 0
8, 131010, Note_off_c, 5, 58, 0
8, 131010, Note_off_c, 5, 53, 0
8, 131010, Note_off_c, 5, 46, 0
8, 131010, Note_on_c, 5, 61, 16
8, 131010, Note_on_c, 5, 58, 16
8, 131010, Note_on_c, 5, 53, 16
8, 131010, Note_on_c, 5, 46, 16
8, 131040, Note_off_c, 5, 61, 0
8, 131040, Note_off_c, 5, 58, 0
8, 131040, Note_off_c, 5, 53, 0
8, 131040, Note_off_c, 5, 46, 0
8, 131040, Note_on_c, 5, 61, 17
8, 131040, Note_on_c, 5, 58, 17
8, 131040, Note_on_c, 5, 53, 17
8, 131040, Note_on_c, 5, 46, 17
8, 131070, Note_off_c, 5, 61, 0
8, 131070, Note_off_c, 5, 58, 0
8, 131070, Note_off_c, 5, 53, 0
8, 131070, Note_off_c, 5, 46, 0
8, 131070, Note_on_c, 5, 61, 17
8, 131070, Note_on_c, 5, 58, 17
8, 131070, Note_on_c, 5, 53, 17
8, 131070, Note_on_c, 5, 46, 17
8, 131100, Note_off_c, 5, 61, 0
8, 131100, Note_off_c, 5, 58, 0
8, 131100, Note_off_c, 5, 53, 0
8, 131100, Note_off_c, 5, 46, 0
8, 131100, Note_on_c, 5, 61, 18
8, 131100, Note_on_c, 5, 58, 18
8, 131100, Note_on_c, 5, 53, 18
8, 131100, Note_on_c, 5, 46, 18
8, 131130, Note_off_c, 5, 61, 0
8, 131130, Note_off_c, 5, 58, 0
8, 131130, Note_off_c, 5, 53, 0
8, 131130, Note_off_c, 5, 46, 0
8, 131130, Note_on_c, 5, 61, 18
8, 131130, Note_on_c, 5, 58, 18
8, 131130, Note_on_c, 5, 53, 18
8, 131130, Note_on_c, 5, 46, 18
8, 131160, Note_off_c, 5, 61, 0
8, 131160, Note_off_c, 5, 58, 0
8, 131160, Note_off_c, 5, 53, 0
8, 131160, Note_off_c, 5, 46, 0
8, 131160, Note_on_c, 5, 61, 18
8, 131160, Note_on_c, 5, 58, 18
8, 131160, Note_on_c, 5, 53, 18
8, 131160, Note_on_c, 5, 46, 18
8, 131190, Note_off_c, 5, 61, 0
8, 131190, Note_off_c, 5, 58, 0
8, 131190, Note_off_c, 5, 53, 0
8, 131190, Note_off_c, 5, 46, 0
8, 131190, Note_on_c, 5, 61, 19
8, 131190, Note_on_c, 5, 58, 19
8, 131190, Note_on_c, 5, 53, 19
8, 131190, Note_on_c, 5, 46, 19
8, 131220, Note_off_c, 5, 61, 0
8, 131220, Note_off_c, 5, 58, 0
8, 131220, Note_off_c, 5, 53, 0
8, 131220, Note_off_c, 5, 46, 0
8, 131220, Note_on_c, 5, 61, 19
8, 131220, Note_on_c, 5, 58, 19
8, 131220, Note_on_c, 5, 53, 19
8, 131220, Note_on_c, 5, 46, 19
8, 131250, Note_off_c, 5, 61, 0
8, 131250, Note_off_c, 5, 58, 0
8, 131250, Note_off_c, 5, 53, 0
8, 131250, Note_off_c, 5, 46, 0
8, 131250, Note_on_c, 5, 61, 20
8, 131250, Note_on_c, 5, 58, 20
8, 131250, Note_on_c, 5, 53, 20
8, 131250, Note_on_c, 5, 46, 20
8, 131280, Note_off_c, 5, 61, 0
8, 131280, Note_off_c, 5, 58, 0
8, 131280, Note_off_c, 5, 53, 0
8, 131280, Note_off_c, 5, 46, 0
8, 131280, Note_on_c, 5, 61, 21
8, 131280, Note_on_c, 5, 58, 21
8, 131280, Note_on_c, 5, 53, 21
8, 131280, Note_on_c, 5, 46, 21
8, 131310, Note_off_c, 5, 61, 0
8, 131310, Note_off_c, 5, 58, 0
8, 131310, Note_off_c, 5, 53, 0
8, 131310, Note_off_c, 5, 46, 0
8, 131310, Note_on_c, 5, 61, 21
8, 131310, Note_on_c, 5, 58, 21
8, 131310, Note_on_c, 5, 53, 21
8, 131310, Note_on_c, 5, 46, 21
8, 131340, Note_off_c, 5, 61, 0
8, 131340, Note_off_c, 5, 58, 0
8, 131340, Note_off_c, 5, 53, 0
8, 131340, Note_off_c, 5, 46, 0
8, 131340, Note_on_c, 5, 61, 21
8, 131340, Note_on_c, 5, 58, 21
8, 131340, Note_on_c, 5, 53, 21
8, 131340, Note_on_c, 5, 46, 21
8, 131370, Note_off_c, 5, 61, 0
8, 131370, Note_off_c, 5, 58, 0
8, 131370, Note_off_c, 5, 53, 0
8, 131370, Note_off_c, 5, 46, 0
8, 131370, Note_on_c, 5, 61, 21
8, 131370, Note_on_c, 5, 58, 21
8, 131370, Note_on_c, 5, 53, 21
8, 131370, Note_on_c, 5, 46, 21
8, 131400, Note_off_c, 5, 61, 0
8, 131400, Note_off_c, 5, 58, 0
8, 131400, Note_off_c, 5, 53, 0
8, 131400, Note_off_c, 5, 46, 0
8, 131400, Note_on_c, 5, 61, 22
8, 131400, Note_on_c, 5, 58, 22
8, 131400, Note_on_c, 5, 53, 22
8, 131400, Note_on_c, 5, 46, 22
8, 131430, Note_off_c, 5, 61, 0
8, 131430, Note_off_c, 5, 58, 0
8, 131430, Note_off_c, 5, 53, 0
8, 131430, Note_off_c, 5, 46, 0
8, 131430, Note_on_c, 5, 61, 23
8, 131430, Note_on_c, 5, 58, 23
8, 131430, Note_on_c, 5, 53, 23
8, 131430, Note_on_c, 5, 46, 23
8, 131460, Note_off_c, 5, 61, 0
8, 131460, Note_off_c, 5, 58, 0
8, 131460, Note_off_c, 5, 53, 0
8, 131460, Note_off_c, 5, 46, 0
8, 131460, Note_on_c, 5, 61, 23
8, 131460, Note_on_c, 5, 58, 23
8, 131460, Note_on_c, 5, 53, 23
8, 131460, Note_on_c, 5, 46, 23
8, 131490, Note_off_c, 5, 61, 0
8, 131490, Note_off_c, 5, 58, 0
8, 131490, Note_off_c, 5, 53, 0
8, 131490, Note_off_c, 5, 46, 0
8, 131490, Note_on_c, 5, 61, 24
8, 131490, Note_on_c, 5, 58, 24
8, 131490, Note_on_c, 5, 53, 24
8, 131490, Note_on_c, 5, 46, 24
8, 131520, Note_off_c, 5, 61, 0
8, 131520, Note_off_c, 5, 58, 0
8, 131520, Note_off_c, 5, 53, 0
8, 131520, Note_off_c, 5, 46, 0
8, 131520, Note_on_c, 5, 61, 25
8, 131520, Note_on_c, 5, 58, 25
8, 131520, Note_on_c, 5, 53, 25
8, 131520, Note_on_c, 5, 46, 25
8, 131550, Note_off_c, 5, 61, 0
8, 131550, Note_off_c, 5, 58, 0
8, 131550, Note_off_c, 5, 53, 0
8, 131550, Note_off_c, 5, 46, 0
8, 131550, Note_on_c, 5, 61, 25
8, 131550, Note_on_c, 5, 58, 25
8, 131550, Note_on_c, 5, 53, 25
8, 131550, Note_on_c, 5, 46, 25
8, 131580, Note_off_c, 5, 61, 0
8, 131580, Note_off_c, 5, 58, 0
8, 131580, Note_off_c, 5, 53, 0
8, 131580, Note_off_c, 5, 46, 0
8, 131580, Note_on_c, 5, 61, 25
8, 131580, Note_on_c, 5, 58, 25
8, 131580, Note_on_c, 5, 53, 25
8, 131580, Note_on_c, 5, 46, 25
8, 131610, Note_off_c, 5, 61, 0
8, 131610, Note_off_c, 5, 58, 0
8, 131610, Note_off_c, 5, 53, 0
8, 131610, Note_off_c, 5, 46, 0
8, 131610, Note_on_c, 5, 61, 25
8, 131610, Note_on_c, 5, 58, 25
8, 131610, Note_on_c, 5, 53, 25
8, 131610, Note_on_c, 5, 46, 25
8, 131640, Note_off_c, 5, 61, 0
8, 131640, Note_off_c, 5, 58, 0
8, 131640, Note_off_c, 5, 53, 0
8, 131640, Note_off_c, 5, 46, 0
8, 131640, Note_on_c, 5, 61, 26
8, 131640, Note_on_c, 5, 58, 26
8, 131640, Note_on_c, 5, 53, 26
8, 131640, Note_on_c, 5, 46, 26
8, 131670, Note_off_c, 5, 61, 0
8, 131670, Note_off_c, 5, 58, 0
8, 131670, Note_off_c, 5, 53, 0
8, 131670, Note_off_c, 5, 46, 0
8, 131670, Note_on_c, 5, 61, 27
8, 131670, Note_on_c, 5, 58, 27
8, 131670, Note_on_c, 5, 53, 27
8, 131670, Note_on_c, 5, 46, 27
8, 131700, Note_off_c, 5, 61, 0
8, 131700, Note_off_c, 5, 58, 0
8, 131700, Note_off_c, 5, 53, 0
8, 131700, Note_off_c, 5, 46, 0
8, 131700, Note_on_c, 5, 61, 27
8, 131700, Note_on_c, 5, 58, 27
8, 131700, Note_on_c, 5, 53, 27
8, 131700, Note_on_c, 5, 46, 27
8, 131730, Note_off_c, 5, 61, 0
8, 131730, Note_off_c, 5, 58, 0
8, 131730, Note_off_c, 5, 53, 0
8, 131730, Note_off_c, 5, 46, 0
8, 131730, Note_on_c, 5, 61, 28
8, 131730, Note_on_c, 5, 58, 28
8, 131730, Note_on_c, 5, 53, 28
8, 131730, Note_on_c, 5, 46, 28
8, 131760, Note_off_c, 5, 61, 0
8, 131760, Note_off_c, 5, 58, 0
8, 131760, Note_off_c, 5, 53, 0
8, 131760, Note_off_c, 5, 46, 0
8, 131760, Note_on_c, 5, 61, 29
8, 131760, Note_on_c, 5, 58, 29
8, 131760, Note_on_c, 5, 53, 29
8, 131760, Note_on_c, 5, 46, 29
8, 131790, Note_off_c, 5, 61, 0
8, 131790, Note_off_c, 5, 58, 0
8, 131790, Note_off_c, 5, 53, 0
8, 131790, Note_off_c, 5, 46, 0
8, 131790, Note_on_c, 5, 61, 29
8, 131790, Note_on_c, 5, 58, 29
8, 131790, Note_on_c, 5, 53, 29
8, 131790, Note_on_c, 5, 46, 29
8, 131820, Note_off_c, 5, 61, 0
8, 131820, Note_off_c, 5, 58, 0
8, 131820, Note_off_c, 5, 53, 0
8, 131820, Note_off_c, 5, 46, 0
8, 131820, Note_on_c, 5, 61, 29
8, 131820, Note_on_c, 5, 58, 29
8, 131820, Note_on_c, 5, 53, 29
8, 131820, Note_on_c, 5, 46, 29
8, 131850, Note_off_c, 5, 61, 0
8, 131850, Note_off_c, 5, 58, 0
8, 131850, Note_off_c, 5, 53, 0
8, 131850, Note_off_c, 5, 46, 0
8, 131850, Note_on_c, 5, 61, 29
8, 131850, Note_on_c, 5, 58, 29
8, 131850, Note_on_c, 5, 53, 29
8, 131850, Note_on_c, 5, 46, 29
8, 131880, Note_off_c, 5, 61, 0
8, 131880, Note_off_c, 5, 58, 0
8, 131880, Note_off_c, 5, 53, 0
8, 131880, Note_off_c, 5, 46, 0
8, 131880, Note_on_c, 5, 61, 30
8, 131880, Note_on_c, 5, 58, 30
8, 131880, Note_on_c, 5, 53, 30
8, 131880, Note_on_c, 5, 46, 30
8, 131910, Note_off_c, 5, 61, 0
8, 131910, Note_off_c, 5, 58, 0
8, 131910, Note_off_c, 5, 53, 0
8, 131910, Note_off_c, 5, 46, 0
8, 131910, Note_on_c, 5, 61, 31
8, 131910, Note_on_c, 5, 58, 31
8, 131910, Note_on_c, 5, 53, 31
8, 131910, Note_on_c, 5, 46, 31
8, 131940, Note_off_c, 5, 61, 0
8, 131940, Note_off_c, 5, 58, 0
8, 131940, Note_off_c, 5, 53, 0
8, 131940, Note_off_c, 5, 46, 0
8, 131940, Note_on_c, 5, 61, 31
8, 131940, Note_on_c, 5, 58, 31
8, 131940, Note_on_c, 5, 53, 31
8, 131940, Note_on_c, 5, 46, 31
8, 131970, Note_off_c, 5, 61, 0
8, 131970, Note_off_c, 5, 58, 0
8, 131970, Note_off_c, 5, 53, 0
8, 131970, Note_off_c, 5, 46, 0
8, 131970, Note_on_c, 5, 61, 32
8, 131970, Note_on_c, 5, 58, 32
8, 131970, Note_on_c, 5, 53, 32
8, 131970, Note_on_c, 5, 46, 32
8, 132000, Note_off_c, 5, 61, 0
8, 132000, Note_off_c, 5, 58, 0
8, 132000, Note_off_c, 5, 53, 0
8, 132000, Note_off_c, 5, 46, 0
8, 132000, Note_on_c, 5, 54, 32
8, 132000, Note_on_c, 5, 49, 32
8, 132000, Note_on_c, 5, 42, 32
8, 132000, Note_on_c, 5, 58, 32
8, 132030, Note_off_c, 5, 54, 0
8, 132030, Note_off_c, 5, 49, 0
8, 132030, Note_off_c, 5, 42, 0
8, 132030, Note_off_c, 5, 58, 0
8, 132030, Note_on_c, 5, 54, 32
8, 132030, Note_on_c, 5, 49, 32
8, 132030, Note_on_c, 5, 42, 32
8, 132030, Note_on_c, 5, 58, 32
8, 132060, Note_off_c, 5, 54, 0
8, 132060, Note_off_c, 5, 49, 0
8, 132060, Note_off_c, 5, 42, 0
8, 132060, Note_off_c, 5, 58, 0
8, 132060, Note_on_c, 5, 54, 33
8, 132060, Note_on_c, 5, 49, 33
8, 132060, Note_on_c, 5, 42, 33
8, 132060, Note_on_c, 5, 58, 33
8, 132090, Note_off_c, 5, 54, 0
8, 132090, Note_off_c, 5, 49, 0
8, 132090, Note_off_c, 5, 42, 0
8, 132090, Note_off_c, 5, 58, 0
8, 132090, Note_on_c, 5, 54, 33
8, 132090, Note_on_c, 5, 49, 33
8, 132090, Note_on_c, 5, 42, 33
8, 132090, Note_on_c, 5, 58, 33
8, 132120, Note_off_c, 5, 54, 0
8, 132120, Note_off_c, 5, 49, 0
8, 132120, Note_off_c, 5, 42, 0
8, 132120, Note_off_c, 5, 58, 0
8, 132120, Note_on_c, 5, 54, 34
8, 132120, Note_on_c, 5, 49, 34
8, 132120, Note_on_c, 5, 42, 34
8, 132120, Note_on_c, 5, 58, 34
8, 132150, Note_off_c, 5, 54, 0
8, 132150, Note_off_c, 5, 49, 0
8, 132150, Note_off_c, 5, 42, 0
8, 132150, Note_off_c, 5, 58, 0
8, 132150, Note_on_c, 5, 54, 35
8, 132150, Note_on_c, 5, 49, 35
8, 132150, Note_on_c, 5, 42, 35
8, 132150, Note_on_c, 5, 58, 35
8, 132180, Note_off_c, 5, 54, 0
8, 132180, Note_off_c, 5, 49, 0
8, 132180, Note_off_c, 5, 42, 0
8, 132180, Note_off_c, 5, 58, 0
8, 132180, Note_on_c, 5, 54, 35
8, 132180, Note_on_c, 5, 49, 35
8, 132180, Note_on_c, 5, 42, 35
8, 132180, Note_on_c, 5, 58, 35
8, 132210, Note_off_c, 5, 54, 0
8, 132210, Note_off_c, 5, 49, 0
8, 132210, Note_off_c, 5, 42, 0
8, 132210, Note_off_c, 5, 58, 0
8, 132210, Note_on_c, 5, 54, 36
8, 132210, Note_on_c, 5, 49, 36
8, 132210, Note_on_c, 5, 42, 36
8, 132210, Note_on_c, 5, 58, 36
8, 132240, Note_off_c, 5, 54, 0
8, 132240, Note_off_c, 5, 49, 0
8, 132240, Note_off_c, 5, 42, 0
8, 132240, Note_off_c, 5, 58, 0
8, 132240, Note_on_c, 5, 54, 36
8, 132240, Note_on_c, 5, 49, 36
8, 132240, Note_on_c, 5, 42, 36
8, 132240, Note_on_c, 5, 58, 36
8, 132270, Note_off_c, 5, 54, 0
8, 132270, Note_off_c, 5, 49, 0
8, 132270, Note_off_c, 5, 42, 0
8, 132270, Note_off_c, 5, 58, 0
8, 132270, Note_on_c, 5, 54, 36
8, 132270, Note_on_c, 5, 49, 36
8, 132270, Note_on_c, 5, 42, 36
8, 132270, Note_on_c, 5, 58, 36
8, 132300, Note_off_c, 5, 54, 0
8, 132300, Note_off_c, 5, 49, 0
8, 132300, Note_off_c, 5, 42, 0
8, 132300, Note_off_c, 5, 58, 0
8, 132300, Note_on_c, 5, 54, 37
8, 132300, Note_on_c, 5, 49, 37
8, 132300, Note_on_c, 5, 42, 37
8, 132300, Note_on_c, 5, 58, 37
8, 132330, Note_off_c, 5, 54, 0
8, 132330, Note_off_c, 5, 49, 0
8, 132330, Note_off_c, 5, 42, 0
8, 132330, Note_off_c, 5, 58, 0
8, 132330, Note_on_c, 5, 54, 37
8, 132330, Note_on_c, 5, 49, 37
8, 132330, Note_on_c, 5, 42, 37
8, 132330, Note_on_c, 5, 58, 37
8, 132360, Note_off_c, 5, 54, 0
8, 132360, Note_off_c, 5, 49, 0
8, 132360, Note_off_c, 5, 42, 0
8, 132360, Note_off_c, 5, 58, 0
8, 132360, Note_on_c, 5, 54, 38
8, 132360, Note_on_c, 5, 49, 38
8, 132360, Note_on_c, 5, 42, 38
8, 132360, Note_on_c, 5, 58, 38
8, 132390, Note_off_c, 5, 54, 0
8, 132390, Note_off_c, 5, 49, 0
8, 132390, Note_off_c, 5, 42, 0
8, 132390, Note_off_c, 5, 58, 0
8, 132390, Note_on_c, 5, 54, 39
8, 132390, Note_on_c, 5, 49, 39
8, 132390, Note_on_c, 5, 42, 39
8, 132390, Note_on_c, 5, 58, 39
8, 132420, Note_off_c, 5, 54, 0
8, 132420, Note_off_c, 5, 49, 0
8, 132420, Note_off_c, 5, 42, 0
8, 132420, Note_off_c, 5, 58, 0
8, 132420, Note_on_c, 5, 54, 39
8, 132420, Note_on_c, 5, 49, 39
8, 132420, Note_on_c, 5, 42, 39
8, 132420, Note_on_c, 5, 58, 39
8, 132450, Note_off_c, 5, 54, 0
8, 132450, Note_off_c, 5, 49, 0
8, 132450, Note_off_c, 5, 42, 0
8, 132450, Note_off_c, 5, 58, 0
8, 132450, Note_on_c, 5, 54, 40
8, 132450, Note_on_c, 5, 49, 40
8, 132450, Note_on_c, 5, 42, 40
8, 132450, Note_on_c, 5, 58, 40
8, 132480, Note_off_c, 5, 54, 0
8, 132480, Note_off_c, 5, 49, 0
8, 132480, Note_off_c, 5, 42, 0
8, 132480, Note_off_c, 5, 58, 0
8, 132480, Note_on_c, 5, 54, 40
8, 132480, Note_on_c, 5, 49, 40
8, 132480, Note_on_c, 5, 42, 40
8, 132480, Note_on_c, 5, 58, 40
8, 132510, Note_off_c, 5, 54, 0
8, 132510, Note_off_c, 5, 49, 0
8, 132510, Note_off_c, 5, 42, 0
8, 132510, Note_off_c, 5, 58, 0
8, 132510, Note_on_c, 5, 54, 40
8, 132510, Note_on_c, 5, 49, 40
8, 132510, Note_on_c, 5, 42, 40
8, 132510, Note_on_c, 5, 58, 40
8, 132540, Note_off_c, 5, 54, 0
8, 132540, Note_off_c, 5, 49, 0
8, 132540, Note_off_c, 5, 42, 0
8, 132540, Note_off_c, 5, 58, 0
8, 132540, Note_on_c, 5, 54, 41
8, 132540, Note_on_c, 5, 49, 41
8, 132540, Note_on_c, 5, 42, 41
8, 132540, Note_on_c, 5, 58, 41
8, 132570, Note_off_c, 5, 54, 0
8, 132570, Note_off_c, 5, 49, 0
8, 132570, Note_off_c, 5, 42, 0
8, 132570, Note_off_c, 5, 58, 0
8, 132570, Note_on_c, 5, 54, 41
8, 132570, Note_on_c, 5, 49, 41
8, 132570, Note_on_c, 5, 42, 41
8, 132570, Note_on_c, 5, 58, 41
8, 132600, Note_off_c, 5, 54, 0
8, 132600, Note_off_c, 5, 49, 0
8, 132600, Note_off_c, 5, 42, 0
8, 132600, Note_off_c, 5, 58, 0
8, 132600, Note_on_c, 5, 54, 42
8, 132600, Note_on_c, 5, 49, 42
8, 132600, Note_on_c, 5, 42, 42
8, 132600, Note_on_c, 5, 58, 42
8, 132630, Note_off_c, 5, 54, 0
8, 132630, Note_off_c, 5, 49, 0
8, 132630, Note_off_c, 5, 42, 0
8, 132630, Note_off_c, 5, 58, 0
8, 132630, Note_on_c, 5, 54, 43
8, 132630, Note_on_c, 5, 49, 43
8, 132630, Note_on_c, 5, 42, 43
8, 132630, Note_on_c, 5, 58, 43
8, 132660, Note_off_c, 5, 54, 0
8, 132660, Note_off_c, 5, 49, 0
8, 132660, Note_off_c, 5, 42, 0
8, 132660, Note_off_c, 5, 58, 0
8, 132660, Note_on_c, 5, 54, 43
8, 132660, Note_on_c, 5, 49, 43
8, 132660, Note_on_c, 5, 42, 43
8, 132660, Note_on_c, 5, 58, 43
8, 132690, Note_off_c, 5, 54, 0
8, 132690, Note_off_c, 5, 49, 0
8, 132690, Note_off_c, 5, 42, 0
8, 132690, Note_off_c, 5, 58, 0
8, 132690, Note_on_c, 5, 54, 43
8, 132690, Note_on_c, 5, 49, 43
8, 132690, Note_on_c, 5, 42, 43
8, 132690, Note_on_c, 5, 58, 43
8, 132720, Note_off_c, 5, 54, 0
8, 132720, Note_off_c, 5, 49, 0
8, 132720, Note_off_c, 5, 42, 0
8, 132720, Note_off_c, 5, 58, 0
8, 132720, Note_on_c, 5, 54, 44
8, 132720, Note_on_c, 5, 49, 44
8, 132720, Note_on_c, 5, 42, 44
8, 132720, Note_on_c, 5, 58, 44
8, 132750, Note_off_c, 5, 54, 0
8, 132750, Note_off_c, 5, 49, 0
8, 132750, Note_off_c, 5, 42, 0
8, 132750, Note_off_c, 5, 58, 0
8, 132750, Note_on_c, 5, 54, 44
8, 132750, Note_on_c, 5, 49, 44
8, 132750, Note_on_c, 5, 42, 44
8, 132750, Note_on_c, 5, 58, 44
8, 132780, Note_off_c, 5, 54, 0
8, 132780, Note_off_c, 5, 49, 0
8, 132780, Note_off_c, 5, 42, 0
8, 132780, Note_off_c, 5, 58, 0
8, 132780, Note_on_c, 5, 54, 45
8, 132780, Note_on_c, 5, 49, 45
8, 132780, Note_on_c, 5, 42, 45
8, 132780, Note_on_c, 5, 58, 45
8, 132810, Note_off_c, 5, 54, 0
8, 132810, Note_off_c, 5, 49, 0
8, 132810, Note_off_c, 5, 42, 0
8, 132810, Note_off_c, 5, 58, 0
8, 132810, Note_on_c, 5, 54, 45
8, 132810, Note_on_c, 5, 49, 45
8, 132810, Note_on_c, 5, 42, 45
8, 132810, Note_on_c, 5, 58, 45
8, 132840, Note_off_c, 5, 54, 0
8, 132840, Note_off_c, 5, 49, 0
8, 132840, Note_off_c, 5, 42, 0
8, 132840, Note_off_c, 5, 58, 0
8, 132840, Note_on_c, 5, 54, 46
8, 132840, Note_on_c, 5, 49, 46
8, 132840, Note_on_c, 5, 42, 46
8, 132840, Note_on_c, 5, 58, 46
8, 132870, Note_off_c, 5, 54, 0
8, 132870, Note_off_c, 5, 49, 0
8, 132870, Note_off_c, 5, 42, 0
8, 132870, Note_off_c, 5, 58, 0
8, 132870, Note_on_c, 5, 54, 47
8, 132870, Note_on_c, 5, 49, 47
8, 132870, Note_on_c, 5, 42, 47
8, 132870, Note_on_c, 5, 58, 47
8, 132900, Note_off_c, 5, 54, 0
8, 132900, Note_off_c, 5, 49, 0
8, 132900, Note_off_c, 5, 42, 0
8, 132900, Note_off_c, 5, 58, 0
8, 132900, Note_on_c, 5, 54, 47
8, 132900, Note_on_c, 5, 49, 47
8, 132900, Note_on_c, 5, 42, 47
8, 132900, Note_on_c, 5, 58, 47
8, 132930, Note_off_c, 5, 54, 0
8, 132930, Note_off_c, 5, 49, 0
8, 132930, Note_off_c, 5, 42, 0
8, 132930, Note_off_c, 5, 58, 0
8, 132930, Note_on_c, 5, 54, 47
8, 132930, Note_on_c, 5, 49, 47
8, 132930, Note_on_c, 5, 42, 47
8, 132930, Note_on_c, 5, 58, 47
8, 132960, Note_off_c, 5, 54, 0
8, 132960, Note_off_c, 5, 49, 0
8, 132960, Note_off_c, 5, 42, 0
8, 132960, Note_off_c, 5, 58, 0
8, 132960, Note_on_c, 5, 54, 48
8, 132960, Note_on_c, 5, 49, 48
8, 132960, Note_on_c, 5, 42, 48
8, 132960, Note_on_c, 5, 58, 48
8, 132990, Note_off_c, 5, 54, 0
8, 132990, Note_off_c, 5, 49, 0
8, 132990, Note_off_c, 5, 42, 0
8, 132990, Note_off_c, 5, 58, 0
8, 132990, Note_on_c, 5, 54, 48
8, 132990, Note_on_c, 5, 49, 48
8, 132990, Note_on_c, 5, 42, 48
8, 132990, Note_on_c, 5, 58, 48
8, 133020, Note_off_c, 5, 54, 0
8, 133020, Note_off_c, 5, 49, 0
8, 133020, Note_off_c, 5, 42, 0
8, 133020, Note_off_c, 5, 58, 0
8, 133020, Note_on_c, 5, 54, 49
8, 133020, Note_on_c, 5, 49, 49
8, 133020, Note_on_c, 5, 42, 49
8, 133020, Note_on_c, 5, 58, 49
8, 133050, Note_off_c, 5, 54, 0
8, 133050, Note_off_c, 5, 49, 0
8, 133050, Note_off_c, 5, 42, 0
8, 133050, Note_off_c, 5, 58, 0
8, 133050, Note_on_c, 5, 54, 49
8, 133050, Note_on_c, 5, 49, 49
8, 133050, Note_on_c, 5, 42, 49
8, 133050, Note_on_c, 5, 58, 49
8, 133080, Note_off_c, 5, 54, 0
8, 133080, Note_off_c, 5, 49, 0
8, 133080, Note_off_c, 5, 42, 0
8, 133080, Note_off_c, 5, 58, 0
8, 133080, Note_on_c, 5, 54, 50
8, 133080, Note_on_c, 5, 49, 50
8, 133080, Note_on_c, 5, 42, 50
8, 133080, Note_on_c, 5, 58, 50
8, 133110, Note_off_c, 5, 54, 0
8, 133110, Note_off_c, 5, 49, 0
8, 133110, Note_off_c, 5, 42, 0
8, 133110, Note_off_c, 5, 58, 0
8, 133110, Note_on_c, 5, 54, 51
8, 133110, Note_on_c, 5, 49, 51
8, 133110, Note_on_c, 5, 42, 51
8, 133110, Note_on_c, 5, 58, 51
8, 133140, Note_off_c, 5, 54, 0
8, 133140, Note_off_c, 5, 49, 0
8, 133140, Note_off_c, 5, 42, 0
8, 133140, Note_off_c, 5, 58, 0
8, 133140, Note_on_c, 5, 54, 51
8, 133140, Note_on_c, 5, 49, 51
8, 133140, Note_on_c, 5, 42, 51
8, 133140, Note_on_c, 5, 58, 51
8, 133170, Note_off_c, 5, 54, 0
8, 133170, Note_off_c, 5, 49, 0
8, 133170, Note_off_c, 5, 42, 0
8, 133170, Note_off_c, 5, 58, 0
8, 133170, Note_on_c, 5, 54, 51
8, 133170, Note_on_c, 5, 49, 51
8, 133170, Note_on_c, 5, 42, 51
8, 133170, Note_on_c, 5, 58, 51
8, 133200, Note_off_c, 5, 54, 0
8, 133200, Note_off_c, 5, 49, 0
8, 133200, Note_off_c, 5, 42, 0
8, 133200, Note_off_c, 5, 58, 0
8, 133200, Note_on_c, 5, 54, 52
8, 133200, Note_on_c, 5, 49, 52
8, 133200, Note_on_c, 5, 42, 52
8, 133200, Note_on_c, 5, 58, 52
8, 133230, Note_off_c, 5, 54, 0
8, 133230, Note_off_c, 5, 49, 0
8, 133230, Note_off_c, 5, 42, 0
8, 133230, Note_off_c, 5, 58, 0
8, 133230, Note_on_c, 5, 54, 52
8, 133230, Note_on_c, 5, 49, 52
8, 133230, Note_on_c, 5, 42, 52
8, 133230, Note_on_c, 5, 58, 52
8, 133260, Note_off_c, 5, 54, 0
8, 133260, Note_off_c, 5, 49, 0
8, 133260, Note_off_c, 5, 42, 0
8, 133260, Note_off_c, 5, 58, 0
8, 133260, Note_on_c, 5, 54, 53
8, 133260, Note_on_c, 5, 49, 53
8, 133260, Note_on_c, 5, 42, 53
8, 133260, Note_on_c, 5, 58, 53
8, 133290, Note_off_c, 5, 54, 0
8, 133290, Note_off_c, 5, 49, 0
8, 133290, Note_off_c, 5, 42, 0
8, 133290, Note_off_c, 5, 58, 0
8, 133290, Note_on_c, 5, 54, 53
8, 133290, Note_on_c, 5, 49, 53
8, 133290, Note_on_c, 5, 42, 53
8, 133290, Note_on_c, 5, 58, 53
8, 133320, Note_off_c, 5, 54, 0
8, 133320, Note_off_c, 5, 49, 0
8, 133320, Note_off_c, 5, 42, 0
8, 133320, Note_off_c, 5, 58, 0
8, 133320, Note_on_c, 5, 54, 54
8, 133320, Note_on_c, 5, 49, 54
8, 133320, Note_on_c, 5, 42, 54
8, 133320, Note_on_c, 5, 58, 54
8, 133350, Note_off_c, 5, 54, 0
8, 133350, Note_off_c, 5, 49, 0
8, 133350, Note_off_c, 5, 42, 0
8, 133350, Note_off_c, 5, 58, 0
8, 133350, Note_on_c, 5, 54, 55
8, 133350, Note_on_c, 5, 49, 55
8, 133350, Note_on_c, 5, 42, 55
8, 133350, Note_on_c, 5, 58, 55
8, 133380, Note_off_c, 5, 54, 0
8, 133380, Note_off_c, 5, 49, 0
8, 133380, Note_off_c, 5, 42, 0
8, 133380, Note_off_c, 5, 58, 0
8, 133380, Note_on_c, 5, 54, 55
8, 133380, Note_on_c, 5, 49, 55
8, 133380, Note_on_c, 5, 42, 55
8, 133380, Note_on_c, 5, 58, 55
8, 133410, Note_off_c, 5, 54, 0
8, 133410, Note_off_c, 5, 49, 0
8, 133410, Note_off_c, 5, 42, 0
8, 133410, Note_off_c, 5, 58, 0
8, 133410, Note_on_c, 5, 54, 55
8, 133410, Note_on_c, 5, 49, 55
8, 133410, Note_on_c, 5, 42, 55
8, 133410, Note_on_c, 5, 58, 55
8, 133440, Note_off_c, 5, 54, 0
8, 133440, Note_off_c, 5, 49, 0
8, 133440, Note_off_c, 5, 42, 0
8, 133440, Note_off_c, 5, 58, 0
8, 133440, Note_on_c, 5, 54, 56
8, 133440, Note_on_c, 5, 49, 56
8, 133440, Note_on_c, 5, 42, 56
8, 133440, Note_on_c, 5, 58, 56
8, 133470, Note_off_c, 5, 54, 0
8, 133470, Note_off_c, 5, 49, 0
8, 133470, Note_off_c, 5, 42, 0
8, 133470, Note_off_c, 5, 58, 0
8, 133470, Note_on_c, 5, 54, 56
8, 133470, Note_on_c, 5, 49, 56
8, 133470, Note_on_c, 5, 42, 56
8, 133470, Note_on_c, 5, 58, 56
8, 133500, Note_off_c, 5, 54, 0
8, 133500, Note_off_c, 5, 49, 0
8, 133500, Note_off_c, 5, 42, 0
8, 133500, Note_off_c, 5, 58, 0
8, 133500, Note_on_c, 5, 54, 57
8, 133500, Note_on_c, 5, 49, 57
8, 133500, Note_on_c, 5, 42, 57
8, 133500, Note_on_c, 5, 58, 57
8, 133530, Note_off_c, 5, 54, 0
8, 133530, Note_off_c, 5, 49, 0
8, 133530, Note_off_c, 5, 42, 0
8, 133530, Note_off_c, 5, 58, 0
8, 133530, Note_on_c, 5, 54, 57
8, 133530, Note_on_c, 5, 49, 57
8, 133530, Note_on_c, 5, 42, 57
8, 133530, Note_on_c, 5, 58, 57
8, 133560, Note_off_c, 5, 54, 0
8, 133560, Note_off_c, 5, 49, 0
8, 133560, Note_off_c, 5, 42, 0
8, 133560, Note_off_c, 5, 58, 0
8, 133560, Note_on_c, 5, 54, 58
8, 133560, Note_on_c, 5, 49, 58
8, 133560, Note_on_c, 5, 42, 58
8, 133560, Note_on_c, 5, 58, 58
8, 133590, Note_off_c, 5, 54, 0
8, 133590, Note_off_c, 5, 49, 0
8, 133590, Note_off_c, 5, 42, 0
8, 133590, Note_off_c, 5, 58, 0
8, 133590, Note_on_c, 5, 54, 58
8, 133590, Note_on_c, 5, 49, 58
8, 133590, Note_on_c, 5, 42, 58
8, 133590, Note_on_c, 5, 58, 58
8, 133620, Note_off_c, 5, 54, 0
8, 133620, Note_off_c, 5, 49, 0
8, 133620, Note_off_c, 5, 42, 0
8, 133620, Note_off_c, 5, 58, 0
8, 133620, Note_on_c, 5, 54, 58
8, 133620, Note_on_c, 5, 49, 58
8, 133620, Note_on_c, 5, 42, 58
8, 133620, Note_on_c, 5, 58, 58
8, 133650, Note_off_c, 5, 54, 0
8, 133650, Note_off_c, 5, 49, 0
8, 133650, Note_off_c, 5, 42, 0
8, 133650, Note_off_c, 5, 58, 0
8, 133650, Note_on_c, 5, 54, 59
8, 133650, Note_on_c, 5, 49, 59
8, 133650, Note_on_c, 5, 42, 59
8, 133650, Note_on_c, 5, 58, 59
8, 133680, Note_off_c, 5, 54, 0
8, 133680, Note_off_c, 5, 49, 0
8, 133680, Note_off_c, 5, 42, 0
8, 133680, Note_off_c, 5, 58, 0
8, 133680, Note_on_c, 5, 54, 60
8, 133680, Note_on_c, 5, 49, 60
8, 133680, Note_on_c, 5, 42, 60
8, 133680, Note_on_c, 5, 58, 60
8, 133710, Note_off_c, 5, 54, 0
8, 133710, Note_off_c, 5, 49, 0
8, 133710, Note_off_c, 5, 42, 0
8, 133710, Note_off_c, 5, 58, 0
8, 133710, Note_on_c, 5, 54, 60
8, 133710, Note_on_c, 5, 49, 60
8, 133710, Note_on_c, 5, 42, 60
8, 133710, Note_on_c, 5, 58, 60
8, 133740, Note_off_c, 5, 54, 0
8, 133740, Note_off_c, 5, 49, 0
8, 133740, Note_off_c, 5, 42, 0
8, 133740, Note_off_c, 5, 58, 0
8, 133740, Note_on_c, 5, 54, 61
8, 133740, Note_on_c, 5, 49, 61
8, 133740, Note_on_c, 5, 42, 61
8, 133740, Note_on_c, 5, 58, 61
8, 133770, Note_off_c, 5, 54, 0
8, 133770, Note_off_c, 5, 49, 0
8, 133770, Note_off_c, 5, 42, 0
8, 133770, Note_off_c, 5, 58, 0
8, 133770, Note_on_c, 5, 54, 61
8, 133770, Note_on_c, 5, 49, 61
8, 133770, Note_on_c, 5, 42, 61
8, 133770, Note_on_c, 5, 58, 61
8, 133800, Note_off_c, 5, 54, 0
8, 133800, Note_off_c, 5, 49, 0
8, 133800, Note_off_c, 5, 42, 0
8, 133800, Note_off_c, 5, 58, 0
8, 133800, Note_on_c, 5, 54, 62
8, 133800, Note_on_c, 5, 49, 62
8, 133800, Note_on_c, 5, 42, 62
8, 133800, Note_on_c, 5, 58, 62
8, 133830, Note_off_c, 5, 54, 0
8, 133830, Note_off_c, 5, 49, 0
8, 133830, Note_off_c, 5, 42, 0
8, 133830, Note_off_c, 5, 58, 0
8, 133830, Note_on_c, 5, 54, 62
8, 133830, Note_on_c, 5, 49, 62
8, 133830, Note_on_c, 5, 42, 62
8, 133830, Note_on_c, 5, 58, 62
8, 133860, Note_off_c, 5, 54, 0
8, 133860, Note_off_c, 5, 49, 0
8, 133860, Note_off_c, 5, 42, 0
8, 133860, Note_off_c, 5, 58, 0
8, 133860, Note_on_c, 5, 54, 62
8, 133860, Note_on_c, 5, 49, 62
8, 133860, Note_on_c, 5, 42, 62
8, 133860, Note_on_c, 5, 58, 62
8, 133890, Note_off_c, 5, 54, 0
8, 133890, Note_off_c, 5, 49, 0
8, 133890, Note_off_c, 5, 42, 0
8, 133890, Note_off_c, 5, 58, 0
8, 133890, Note_on_c, 5, 54, 63
8, 133890, Note_on_c, 5, 49, 63
8, 133890, Note_on_c, 5, 42, 63
8, 133890, Note_on_c, 5, 58, 63
8, 133920, Note_off_c, 5, 54, 0
8, 133920, Note_off_c, 5, 49, 0
8, 133920, Note_off_c, 5, 42, 0
8, 133920, Note_off_c, 5, 58, 0
8, 133920, Note_on_c, 5, 56, 64
8, 133920, Note_on_c, 5, 51, 64
8, 133920, Note_on_c, 5, 44, 64
8, 133920, Note_on_c, 5, 60, 64
8, 133950, Note_off_c, 5, 56, 0
8, 133950, Note_off_c, 5, 51, 0
8, 133950, Note_off_c, 5, 44, 0
8, 133950, Note_off_c, 5, 60, 0
8, 133950, Note_on_c, 5, 56, 64
8, 133950, Note_on_c, 5, 51, 64
8, 133950, Note_on_c, 5, 44, 64
8, 133950, Note_on_c, 5, 60, 64
8, 133980, Note_off_c, 5, 56, 0
8, 133980, Note_off_c, 5, 51, 0
8, 133980, Note_off_c, 5, 44, 0
8, 133980, Note_off_c, 5, 60, 0
8, 133980, Note_on_c, 5, 56, 65
8, 133980, Note_on_c, 5, 51, 65
8, 133980, Note_on_c, 5, 44, 65
8, 133980, Note_on_c, 5, 60, 65
8, 134010, Note_off_c, 5, 56, 0
8, 134010, Note_off_c, 5, 51, 0
8, 134010, Note_off_c, 5, 44, 0
8, 134010, Note_off_c, 5, 60, 0
8, 134010, Note_on_c, 5, 56, 65
8, 134010, Note_on_c, 5, 51, 65
8, 134010, Note_on_c, 5, 44, 65
8, 134010, Note_on_c, 5, 60, 65
8, 134040, Note_off_c, 5, 56, 0
8, 134040, Note_off_c, 5, 51, 0
8, 134040, Note_off_c, 5, 44, 0
8, 134040, Note_off_c, 5, 60, 0
8, 134040, Note_on_c, 5, 56, 66
8, 134040, Note_on_c, 5, 51, 66
8, 134040, Note_on_c, 5, 44, 66
8, 134040, Note_on_c, 5, 60, 66
8, 134070, Note_off_c, 5, 56, 0
8, 134070, Note_off_c, 5, 51, 0
8, 134070, Note_off_c, 5, 44, 0
8, 134070, Note_off_c, 5, 60, 0
8, 134070, Note_on_c, 5, 56, 66
8, 134070, Note_on_c, 5, 51, 66
8, 134070, Note_on_c, 5, 44, 66
8, 134070, Note_on_c, 5, 60, 66
8, 134100, Note_off_c, 5, 56, 0
8, 134100, Note_off_c, 5, 51, 0
8, 134100, Note_off_c, 5, 44, 0
8, 134100, Note_off_c, 5, 60, 0
8, 134100, Note_on_c, 5, 56, 66
8, 134100, Note_on_c, 5, 51, 66
8, 134100, Note_on_c, 5, 44, 66
8, 134100, Note_on_c, 5, 60, 66
8, 134130, Note_off_c, 5, 56, 0
8, 134130, Note_off_c, 5, 51, 0
8, 134130, Note_off_c, 5, 44, 0
8, 134130, Note_off_c, 5, 60, 0
8, 134130, Note_on_c, 5, 56, 67
8, 134130, Note_on_c, 5, 51, 67
8, 134130, Note_on_c, 5, 44, 67
8, 134130, Note_on_c, 5, 60, 67
8, 134160, Note_off_c, 5, 56, 0
8, 134160, Note_off_c, 5, 51, 0
8, 134160, Note_off_c, 5, 44, 0
8, 134160, Note_off_c, 5, 60, 0
8, 134160, Note_on_c, 5, 56, 68
8, 134160, Note_on_c, 5, 51, 68
8, 134160, Note_on_c, 5, 44, 68
8, 134160, Note_on_c, 5, 60, 68
8, 134190, Note_off_c, 5, 56, 0
8, 134190, Note_off_c, 5, 51, 0
8, 134190, Note_off_c, 5, 44, 0
8, 134190, Note_off_c, 5, 60, 0
8, 134190, Note_on_c, 5, 56, 68
8, 134190, Note_on_c, 5, 51, 68
8, 134190, Note_on_c, 5, 44, 68
8, 134190, Note_on_c, 5, 60, 68
8, 134220, Note_off_c, 5, 56, 0
8, 134220, Note_off_c, 5, 51, 0
8, 134220, Note_off_c, 5, 44, 0
8, 134220, Note_off_c, 5, 60, 0
8, 134220, Note_on_c, 5, 56, 69
8, 134220, Note_on_c, 5, 51, 69
8, 134220, Note_on_c, 5, 44, 69
8, 134220, Note_on_c, 5, 60, 69
8, 134250, Note_off_c, 5, 56, 0
8, 134250, Note_off_c, 5, 51, 0
8, 134250, Note_off_c, 5, 44, 0
8, 134250, Note_off_c, 5, 60, 0
8, 134250, Note_on_c, 5, 56, 69
8, 134250, Note_on_c, 5, 51, 69
8, 134250, Note_on_c, 5, 44, 69
8, 134250, Note_on_c, 5, 60, 69
8, 134280, Note_off_c, 5, 56, 0
8, 134280, Note_off_c, 5, 51, 0
8, 134280, Note_off_c, 5, 44, 0
8, 134280, Note_off_c, 5, 60, 0
8, 134280, Note_on_c, 5, 56, 69
8, 134280, Note_on_c, 5, 51, 69
8, 134280, Note_on_c, 5, 44, 69
8, 134280, Note_on_c, 5, 60, 69
8, 134310, Note_off_c, 5, 56, 0
8, 134310, Note_off_c, 5, 51, 0
8, 134310, Note_off_c, 5, 44, 0
8, 134310, Note_off_c, 5, 60, 0
8, 134310, Note_on_c, 5, 56, 70
8, 134310, Note_on_c, 5, 51, 70
8, 134310, Note_on_c, 5, 44, 70
8, 134310, Note_on_c, 5, 60, 70
8, 134340, Note_off_c, 5, 56, 0
8, 134340, Note_off_c, 5, 51, 0
8, 134340, Note_off_c, 5, 44, 0
8, 134340, Note_off_c, 5, 60, 0
8, 134340, Note_on_c, 5, 56, 70
8, 134340, Note_on_c, 5, 51, 70
8, 134340, Note_on_c, 5, 44, 70
8, 134340, Note_on_c, 5, 60, 70
8, 134370, Note_off_c, 5, 56, 0
8, 134370, Note_off_c, 5, 51, 0
8, 134370, Note_off_c, 5, 44, 0
8, 134370, Note_off_c, 5, 60, 0
8, 134370, Note_on_c, 5, 56, 71
8, 134370, Note_on_c, 5, 51, 71
8, 134370, Note_on_c, 5, 44, 71
8, 134370, Note_on_c, 5, 60, 71
8, 134400, Note_off_c, 5, 56, 0
8, 134400, Note_off_c, 5, 51, 0
8, 134400, Note_off_c, 5, 44, 0
8, 134400, Note_off_c, 5, 60, 0
8, 134400, Note_on_c, 5, 56, 72
8, 134400, Note_on_c, 5, 51, 72
8, 134400, Note_on_c, 5, 44, 72
8, 134400, Note_on_c, 5, 60, 72
8, 134430, Note_off_c, 5, 56, 0
8, 134430, Note_off_c, 5, 51, 0
8, 134430, Note_off_c, 5, 44, 0
8, 134430, Note_off_c, 5, 60, 0
8, 134430, Note_on_c, 5, 56, 72
8, 134430, Note_on_c, 5, 51, 72
8, 134430, Note_on_c, 5, 44, 72
8, 134430, Note_on_c, 5, 60, 72
8, 134460, Note_off_c, 5, 56, 0
8, 134460, Note_off_c, 5, 51, 0
8, 134460, Note_off_c, 5, 44, 0
8, 134460, Note_off_c, 5, 60, 0
8, 134460, Note_on_c, 5, 56, 73
8, 134460, Note_on_c, 5, 51, 73
8, 134460, Note_on_c, 5, 44, 73
8, 134460, Note_on_c, 5, 60, 73
8, 134490, Note_off_c, 5, 56, 0
8, 134490, Note_off_c, 5, 51, 0
8, 134490, Note_off_c, 5, 44, 0
8, 134490, Note_off_c, 5, 60, 0
8, 134490, Note_on_c, 5, 56, 73
8, 134490, Note_on_c, 5, 51, 73
8, 134490, Note_on_c, 5, 44, 73
8, 134490, Note_on_c, 5, 60, 73
8, 134520, Note_off_c, 5, 56, 0
8, 134520, Note_off_c, 5, 51, 0
8, 134520, Note_off_c, 5, 44, 0
8, 134520, Note_off_c, 5, 60, 0
8, 134520, Note_on_c, 5, 56, 73
8, 134520, Note_on_c, 5, 51, 73
8, 134520, Note_on_c, 5, 44, 73
8, 134520, Note_on_c, 5, 60, 73
8, 134550, Note_off_c, 5, 56, 0
8, 134550, Note_off_c, 5, 51, 0
8, 134550, Note_off_c, 5, 44, 0
8, 134550, Note_off_c, 5, 60, 0
8, 134550, Note_on_c, 5, 56, 74
8, 134550, Note_on_c, 5, 51, 74
8, 134550, Note_on_c, 5, 44, 74
8, 134550, Note_on_c, 5, 60, 74
8, 134580, Note_off_c, 5, 56, 0
8, 134580, Note_off_c, 5, 51, 0
8, 134580, Note_off_c, 5, 44, 0
8, 134580, Note_off_c, 5, 60, 0
8, 134580, Note_on_c, 5, 56, 74
8, 134580, Note_on_c, 5, 51, 74
8, 134580, Note_on_c, 5, 44, 74
8, 134580, Note_on_c, 5, 60, 74
8, 134610, Note_off_c, 5, 56, 0
8, 134610, Note_off_c, 5, 51, 0
8, 134610, Note_off_c, 5, 44, 0
8, 134610, Note_off_c, 5, 60, 0
8, 134610, Note_on_c, 5, 56, 75
8, 134610, Note_on_c, 5, 51, 75
8, 134610, Note_on_c, 5, 44, 75
8, 134610, Note_on_c, 5, 60, 75
8, 134640, Note_off_c, 5, 56, 0
8, 134640, Note_off_c, 5, 51, 0
8, 134640, Note_off_c, 5, 44, 0
8, 134640, Note_off_c, 5, 60, 0
8, 134640, Note_on_c, 5, 56, 76
8, 134640, Note_on_c, 5, 51, 76
8, 134640, Note_on_c, 5, 44, 76
8, 134640, Note_on_c, 5, 60, 76
8, 134670, Note_off_c, 5, 56, 0
8, 134670, Note_off_c, 5, 51, 0
8, 134670, Note_off_c, 5, 44, 0
8, 134670, Note_off_c, 5, 60, 0
8, 134670, Note_on_c, 5, 56, 76
8, 134670, Note_on_c, 5, 51, 76
8, 134670, Note_on_c, 5, 44, 76
8, 134670, Note_on_c, 5, 60, 76
8, 134700, Note_off_c, 5, 56, 0
8, 134700, Note_off_c, 5, 51, 0
8, 134700, Note_off_c, 5, 44, 0
8, 134700, Note_off_c, 5, 60, 0
8, 134700, Note_on_c, 5, 56, 77
8, 134700, Note_on_c, 5, 51, 77
8, 134700, Note_on_c, 5, 44, 77
8, 134700, Note_on_c, 5, 60, 77
8, 134730, Note_off_c, 5, 56, 0
8, 134730, Note_off_c, 5, 51, 0
8, 134730, Note_off_c, 5, 44, 0
8, 134730, Note_off_c, 5, 60, 0
8, 134730, Note_on_c, 5, 56, 77
8, 134730, Note_on_c, 5, 51, 77
8, 134730, Note_on_c, 5, 44, 77
8, 134730, Note_on_c, 5, 60, 77
8, 134760, Note_off_c, 5, 56, 0
8, 134760, Note_off_c, 5, 51, 0
8, 134760, Note_off_c, 5, 44, 0
8, 134760, Note_off_c, 5, 60, 0
8, 134760, Note_on_c, 5, 56, 77
8, 134760, Note_on_c, 5, 51, 77
8, 134760, Note_on_c, 5, 44, 77
8, 134760, Note_on_c, 5, 60, 77
8, 134790, Note_off_c, 5, 56, 0
8, 134790, Note_off_c, 5, 51, 0
8, 134790, Note_off_c, 5, 44, 0
8, 134790, Note_off_c, 5, 60, 0
8, 134790, Note_on_c, 5, 56, 78
8, 134790, Note_on_c, 5, 51, 78
8, 134790, Note_on_c, 5, 44, 78
8, 134790, Note_on_c, 5, 60, 78
8, 134820, Note_off_c, 5, 56, 0
8, 134820, Note_off_c, 5, 51, 0
8, 134820, Note_off_c, 5, 44, 0
8, 134820, Note_off_c, 5, 60, 0
8, 134820, Note_on_c, 5, 56, 78
8, 134820, Note_on_c, 5, 51, 78
8, 134820, Note_on_c, 5, 44, 78
8, 134820, Note_on_c, 5, 60, 78
8, 134850, Note_off_c, 5, 56, 0
8, 134850, Note_off_c, 5, 51, 0
8, 134850, Note_off_c, 5, 44, 0
8, 134850, Note_off_c, 5, 60, 0
8, 134850, Note_on_c, 5, 56, 79
8, 134850, Note_on_c, 5, 51, 79
8, 134850, Note_on_c, 5, 44, 79
8, 134850, Note_on_c, 5, 60, 79
8, 134880, Note_off_c, 5, 56, 0
8, 134880, Note_off_c, 5, 51, 0
8, 134880, Note_off_c, 5, 44, 0
8, 134880, Note_off_c, 5, 60, 0
8, 134880, Note_on_c, 5, 54, 80
8, 134880, Note_on_c, 5, 49, 80
8, 134880, Note_on_c, 5, 42, 80
8, 134880, Note_on_c, 5, 58, 80
8, 134910, Note_off_c, 5, 54, 0
8, 134910, Note_off_c, 5, 49, 0
8, 134910, Note_off_c, 5, 42, 0
8, 134910, Note_off_c, 5, 58, 0
8, 134910, Note_on_c, 5, 54, 80
8, 134910, Note_on_c, 5, 49, 80
8, 134910, Note_on_c, 5, 42, 80
8, 134910, Note_on_c, 5, 58, 80
8, 134940, Note_off_c, 5, 54, 0
8, 134940, Note_off_c, 5, 49, 0
8, 134940, Note_off_c, 5, 42, 0
8, 134940, Note_off_c, 5, 58, 0
8, 134940, Note_on_c, 5, 54, 80
8, 134940, Note_on_c, 5, 49, 80
8, 134940, Note_on_c, 5, 42, 80
8, 134940, Note_on_c, 5, 58, 80
8, 134970, Note_off_c, 5, 54, 0
8, 134970, Note_off_c, 5, 49, 0
8, 134970, Note_off_c, 5, 42, 0
8, 134970, Note_off_c, 5, 58, 0
8, 134970, Note_on_c, 5, 54, 80
8, 134970, Note_on_c, 5, 49, 80
8, 134970, Note_on_c, 5, 42, 80
8, 134970, Note_on_c, 5, 58, 80
8, 135000, Note_off_c, 5, 54, 0
8, 135000, Note_off_c, 5, 49, 0
8, 135000, Note_off_c, 5, 42, 0
8, 135000, Note_off_c, 5, 58, 0
8, 135000, Note_on_c, 5, 54, 81
8, 135000, Note_on_c, 5, 49, 81
8, 135000, Note_on_c, 5, 42, 81
8, 135000, Note_on_c, 5, 58, 81
8, 135030, Note_off_c, 5, 54, 0
8, 135030, Note_off_c, 5, 49, 0
8, 135030, Note_off_c, 5, 42, 0
8, 135030, Note_off_c, 5, 58, 0
8, 135030, Note_on_c, 5, 54, 82
8, 135030, Note_on_c, 5, 49, 82
8, 135030, Note_on_c, 5, 42, 82
8, 135030, Note_on_c, 5, 58, 82
8, 135060, Note_off_c, 5, 54, 0
8, 135060, Note_off_c, 5, 49, 0
8, 135060, Note_off_c, 5, 42, 0
8, 135060, Note_off_c, 5, 58, 0
8, 135060, Note_on_c, 5, 54, 82
8, 135060, Note_on_c, 5, 49, 82
8, 135060, Note_on_c, 5, 42, 82
8, 135060, Note_on_c, 5, 58, 82
8, 135090, Note_off_c, 5, 54, 0
8, 135090, Note_off_c, 5, 49, 0
8, 135090, Note_off_c, 5, 42, 0
8, 135090, Note_off_c, 5, 58, 0
8, 135090, Note_on_c, 5, 54, 83
8, 135090, Note_on_c, 5, 49, 83
8, 135090, Note_on_c, 5, 42, 83
8, 135090, Note_on_c, 5, 58, 83
8, 135120, Note_off_c, 5, 54, 0
8, 135120, Note_off_c, 5, 49, 0
8, 135120, Note_off_c, 5, 42, 0
8, 135120, Note_off_c, 5, 58, 0
8, 135120, Note_on_c, 5, 54, 84
8, 135120, Note_on_c, 5, 49, 84
8, 135120, Note_on_c, 5, 42, 84
8, 135120, Note_on_c, 5, 58, 84
8, 135150, Note_off_c, 5, 54, 0
8, 135150, Note_off_c, 5, 49, 0
8, 135150, Note_off_c, 5, 42, 0
8, 135150, Note_off_c, 5, 58, 0
8, 135150, Note_on_c, 5, 54, 84
8, 135150, Note_on_c, 5, 49, 84
8, 135150, Note_on_c, 5, 42, 84
8, 135150, Note_on_c, 5, 58, 84
8, 135180, Note_off_c, 5, 54, 0
8, 135180, Note_off_c, 5, 49, 0
8, 135180, Note_off_c, 5, 42, 0
8, 135180, Note_off_c, 5, 58, 0
8, 135180, Note_on_c, 5, 54, 84
8, 135180, Note_on_c, 5, 49, 84
8, 135180, Note_on_c, 5, 42, 84
8, 135180, Note_on_c, 5, 58, 84
8, 135210, Note_off_c, 5, 54, 0
8, 135210, Note_off_c, 5, 49, 0
8, 135210, Note_off_c, 5, 42, 0
8, 135210, Note_off_c, 5, 58, 0
8, 135210, Note_on_c, 5, 54, 84
8, 135210, Note_on_c, 5, 49, 84
8, 135210, Note_on_c, 5, 42, 84
8, 135210, Note_on_c, 5, 58, 84
8, 135240, Note_off_c, 5, 54, 0
8, 135240, Note_off_c, 5, 49, 0
8, 135240, Note_off_c, 5, 42, 0
8, 135240, Note_off_c, 5, 58, 0
8, 135240, Note_on_c, 5, 54, 85
8, 135240, Note_on_c, 5, 49, 85
8, 135240, Note_on_c, 5, 42, 85
8, 135240, Note_on_c, 5, 58, 85
8, 135270, Note_off_c, 5, 54, 0
8, 135270, Note_off_c, 5, 49, 0
8, 135270, Note_off_c, 5, 42, 0
8, 135270, Note_off_c, 5, 58, 0
8, 135270, Note_on_c, 5, 54, 86
8, 135270, Note_on_c, 5, 49, 86
8, 135270, Note_on_c, 5, 42, 86
8, 135270, Note_on_c, 5, 58, 86
8, 135300, Note_off_c, 5, 54, 0
8, 135300, Note_off_c, 5, 49, 0
8, 135300, Note_off_c, 5, 42, 0
8, 135300, Note_off_c, 5, 58, 0
8, 135300, Note_on_c, 5, 54, 86
8, 135300, Note_on_c, 5, 49, 86
8, 135300, Note_on_c, 5, 42, 86
8, 135300, Note_on_c, 5, 58, 86
8, 135330, Note_off_c, 5, 54, 0
8, 135330, Note_off_c, 5, 49, 0
8, 135330, Note_off_c, 5, 42, 0
8, 135330, Note_off_c, 5, 58, 0
8, 135330, Note_on_c, 5, 54, 87
8, 135330, Note_on_c, 5, 49, 87
8, 135330, Note_on_c, 5, 42, 87
8, 135330, Note_on_c, 5, 58, 87
8, 135360, Note_off_c, 5, 54, 0
8, 135360, Note_off_c, 5, 49, 0
8, 135360, Note_off_c, 5, 42, 0
8, 135360, Note_off_c, 5, 58, 0
8, 135360, Note_on_c, 5, 54, 88
8, 135360, Note_on_c, 5, 49, 88
8, 135360, Note_on_c, 5, 42, 88
8, 135360, Note_on_c, 5, 58, 88
8, 135390, Note_off_c, 5, 54, 0
8, 135390, Note_off_c, 5, 49, 0
8, 135390, Note_off_c, 5, 42, 0
8, 135390, Note_off_c, 5, 58, 0
8, 135390, Note_on_c, 5, 54, 88
8, 135390, Note_on_c, 5, 49, 88
8, 135390, Note_on_c, 5, 42, 88
8, 135390, Note_on_c, 5, 58, 88
8, 135420, Note_off_c, 5, 54, 0
8, 135420, Note_off_c, 5, 49, 0
8, 135420, Note_off_c, 5, 42, 0
8, 135420, Note_off_c, 5, 58, 0
8, 135420, Note_on_c, 5, 54, 88
8, 135420, Note_on_c, 5, 49, 88
8, 135420, Note_on_c, 5, 42, 88
8, 135420, Note_on_c, 5, 58, 88
8, 135450, Note_off_c, 5, 54, 0
8, 135450, Note_off_c, 5, 49, 0
8, 135450, Note_off_c, 5, 42, 0
8, 135450, Note_off_c, 5, 58, 0
8, 135450, Note_on_c, 5, 54, 88
8, 135450, Note_on_c, 5, 49, 88
8, 135450, Note_on_c, 5, 42, 88
8, 135450, Note_on_c, 5, 58, 88
8, 135480, Note_off_c, 5, 54, 0
8, 135480, Note_off_c, 5, 49, 0
8, 135480, Note_off_c, 5, 42, 0
8, 135480, Note_off_c, 5, 58, 0
8, 135480, Note_on_c, 5, 54, 89
8, 135480, Note_on_c, 5, 49, 89
8, 135480, Note_on_c, 5, 42, 89
8, 135480, Note_on_c, 5, 58, 89
8, 135510, Note_off_c, 5, 54, 0
8, 135510, Note_off_c, 5, 49, 0
8, 135510, Note_off_c, 5, 42, 0
8, 135510, Note_off_c, 5, 58, 0
8, 135510, Note_on_c, 5, 54, 90
8, 135510, Note_on_c, 5, 49, 90
8, 135510, Note_on_c, 5, 42, 90
8, 135510, Note_on_c, 5, 58, 90
8, 135540, Note_off_c, 5, 54, 0
8, 135540, Note_off_c, 5, 49, 0
8, 135540, Note_off_c, 5, 42, 0
8, 135540, Note_off_c, 5, 58, 0
8, 135540, Note_on_c, 5, 54, 90
8, 135540, Note_on_c, 5, 49, 90
8, 135540, Note_on_c, 5, 42, 90
8, 135540, Note_on_c, 5, 58, 90
8, 135570, Note_off_c, 5, 54, 0
8, 135570, Note_off_c, 5, 49, 0
8, 135570, Note_off_c, 5, 42, 0
8, 135570, Note_off_c, 5, 58, 0
8, 135570, Note_on_c, 5, 54, 91
8, 135570, Note_on_c, 5, 49, 91
8, 135570, Note_on_c, 5, 42, 91
8, 135570, Note_on_c, 5, 58, 91
8, 135600, Note_off_c, 5, 54, 0
8, 135600, Note_off_c, 5, 49, 0
8, 135600, Note_off_c, 5, 42, 0
8, 135600, Note_off_c, 5, 58, 0
8, 135600, Note_on_c, 5, 54, 92
8, 135600, Note_on_c, 5, 49, 92
8, 135600, Note_on_c, 5, 42, 92
8, 135600, Note_on_c, 5, 58, 92
8, 135630, Note_off_c, 5, 54, 0
8, 135630, Note_off_c, 5, 49, 0
8, 135630, Note_off_c, 5, 42, 0
8, 135630, Note_off_c, 5, 58, 0
8, 135630, Note_on_c, 5, 54, 92
8, 135630, Note_on_c, 5, 49, 92
8, 135630, Note_on_c, 5, 42, 92
8, 135630, Note_on_c, 5, 58, 92
8, 135660, Note_off_c, 5, 54, 0
8, 135660, Note_off_c, 5, 49, 0
8, 135660, Note_off_c, 5, 42, 0
8, 135660, Note_off_c, 5, 58, 0
8, 135660, Note_on_c, 5, 54, 92
8, 135660, Note_on_c, 5, 49, 92
8, 135660, Note_on_c, 5, 42, 92
8, 135660, Note_on_c, 5, 58, 92
8, 135690, Note_off_c, 5, 54, 0
8, 135690, Note_off_c, 5, 49, 0
8, 135690, Note_off_c, 5, 42, 0
8, 135690, Note_off_c, 5, 58, 0
8, 135690, Note_on_c, 5, 54, 92
8, 135690, Note_on_c, 5, 49, 92
8, 135690, Note_on_c, 5, 42, 92
8, 135690, Note_on_c, 5, 58, 92
8, 135720, Note_off_c, 5, 54, 0
8, 135720, Note_off_c, 5, 49, 0
8, 135720, Note_off_c, 5, 42, 0
8, 135720, Note_off_c, 5, 58, 0
8, 135720, Note_on_c, 5, 54, 93
8, 135720, Note_on_c, 5, 49, 93
8, 135720, Note_on_c, 5, 42, 93
8, 135720, Note_on_c, 5, 58, 93
8, 135750, Note_off_c, 5, 54, 0
8, 135750, Note_off_c, 5, 49, 0
8, 135750, Note_off_c, 5, 42, 0
8, 135750, Note_off_c, 5, 58, 0
8, 135750, Note_on_c, 5, 54, 94
8, 135750, Note_on_c, 5, 49, 94
8, 135750, Note_on_c, 5, 42, 94
8, 135750, Note_on_c, 5, 58, 94
8, 135780, Note_off_c, 5, 54, 0
8, 135780, Note_off_c, 5, 49, 0
8, 135780, Note_off_c, 5, 42, 0
8, 135780, Note_off_c, 5, 58, 0
8, 135780, Note_on_c, 5, 54, 94
8, 135780, Note_on_c, 5, 49, 94
8, 135780, Note_on_c, 5, 42, 94
8, 135780, Note_on_c, 5, 58, 94
8, 135810, Note_off_c, 5, 54, 0
8, 135810, Note_off_c, 5, 49, 0
8, 135810, Note_off_c, 5, 42, 0
8, 135810, Note_off_c, 5, 58, 0
8, 135810, Note_on_c, 5, 54, 95
8, 135810, Note_on_c, 5, 49, 95
8, 135810, Note_on_c, 5, 42, 95
8, 135810, Note_on_c, 5, 58, 95
8, 135840, Note_off_c, 5, 54, 0
8, 135840, Note_off_c, 5, 49, 0
8, 135840, Note_off_c, 5, 42, 0
8, 135840, Note_off_c, 5, 58, 0
8, 135840, Note_on_c, 5, 53, 95
8, 135840, Note_on_c, 5, 48, 95
8, 135840, Note_on_c, 5, 41, 95
8, 135840, Note_on_c, 5, 57, 95
8, 135870, Note_off_c, 5, 53, 0
8, 135870, Note_off_c, 5, 48, 0
8, 135870, Note_off_c, 5, 41, 0
8, 135870, Note_off_c, 5, 57, 0
8, 135870, Note_on_c, 5, 53, 95
8, 135870, Note_on_c, 5, 48, 95
8, 135870, Note_on_c, 5, 41, 95
8, 135870, Note_on_c, 5, 57, 95
8, 135900, Note_off_c, 5, 53, 0
8, 135900, Note_off_c, 5, 48, 0
8, 135900, Note_off_c, 5, 41, 0
8, 135900, Note_off_c, 5, 57, 0
8, 135900, Note_on_c, 5, 53, 96
8, 135900, Note_on_c, 5, 48, 96
8, 135900, Note_on_c, 5, 41, 96
8, 135900, Note_on_c, 5, 57, 96
8, 135930, Note_off_c, 5, 53, 0
8, 135930, Note_off_c, 5, 48, 0
8, 135930, Note_off_c, 5, 41, 0
8, 135930, Note_off_c, 5, 57, 0
8, 135930, Note_on_c, 5, 53, 96
8, 135930, Note_on_c, 5, 48, 96
8, 135930, Note_on_c, 5, 41, 96
8, 135930, Note_on_c, 5, 57, 96
8, 135960, Note_off_c, 5, 53, 0
8, 135960, Note_off_c, 5, 48, 0
8, 135960, Note_off_c, 5, 41, 0
8, 135960, Note_off_c, 5, 57, 0
8, 135960, Note_on_c, 5, 53, 97
8, 135960, Note_on_c, 5, 48, 97
8, 135960, Note_on_c, 5, 41, 97
8, 135960, Note_on_c, 5, 57, 97
8, 135990, Note_off_c, 5, 53, 0
8, 135990, Note_off_c, 5, 48, 0
8, 135990, Note_off_c, 5, 41, 0
8, 135990, Note_off_c, 5, 57, 0
8, 135990, Note_on_c, 5, 53, 98
8, 135990, Note_on_c, 5, 48, 98
8, 135990, Note_on_c, 5, 41, 98
8, 135990, Note_on_c, 5, 57, 98
8, 136020, Note_off_c, 5, 53, 0
8, 136020, Note_off_c, 5, 48, 0
8, 136020, Note_off_c, 5, 41, 0
8, 136020, Note_off_c, 5, 57, 0
8, 136020, Note_on_c, 5, 53, 98
8, 136020, Note_on_c, 5, 48, 98
8, 136020, Note_on_c, 5, 41, 98
8, 136020, Note_on_c, 5, 57, 98
8, 136050, Note_off_c, 5, 53, 0
8, 136050, Note_off_c, 5, 48, 0
8, 136050, Note_off_c, 5, 41, 0
8, 136050, Note_off_c, 5, 57, 0
8, 136050, Note_on_c, 5, 53, 99
8, 136050, Note_on_c, 5, 48, 99
8, 136050, Note_on_c, 5, 41, 99
8, 136050, Note_on_c, 5, 57, 99
8, 136080, Note_off_c, 5, 53, 0
8, 136080, Note_off_c, 5, 48, 0
8, 136080, Note_off_c, 5, 41, 0
8, 136080, Note_off_c, 5, 57, 0
8, 136080, Note_on_c, 5, 53, 99
8, 136080, Note_on_c, 5, 48, 99
8, 136080, Note_on_c, 5, 41, 99
8, 136080, Note_on_c, 5, 57, 99
8, 136110, Note_off_c, 5, 53, 0
8, 136110, Note_off_c, 5, 48, 0
8, 136110, Note_off_c, 5, 41, 0
8, 136110, Note_off_c, 5, 57, 0
8, 136110, Note_on_c, 5, 53, 99
8, 136110, Note_on_c, 5, 48, 99
8, 136110, Note_on_c, 5, 41, 99
8, 136110, Note_on_c, 5, 57, 99
8, 136140, Note_off_c, 5, 53, 0
8, 136140, Note_off_c, 5, 48, 0
8, 136140, Note_off_c, 5, 41, 0
8, 136140, Note_off_c, 5, 57, 0
8, 136140, Note_on_c, 5, 53, 100
8, 136140, Note_on_c, 5, 48, 100
8, 136140, Note_on_c, 5, 41, 100
8, 136140, Note_on_c, 5, 57, 100
8, 136170, Note_off_c, 5, 53, 0
8, 136170, Note_off_c, 5, 48, 0
8, 136170, Note_off_c, 5, 41, 0
8, 136170, Note_off_c, 5, 57, 0
8, 136170, Note_on_c, 5, 53, 100
8, 136170, Note_on_c, 5, 48, 100
8, 136170, Note_on_c, 5, 41, 100
8, 136170, Note_on_c, 5, 57, 100
8, 136200, Note_off_c, 5, 53, 0
8, 136200, Note_off_c, 5, 48, 0
8, 136200, Note_off_c, 5, 41, 0
8, 136200, Note_off_c, 5, 57, 0
8, 136200, Note_on_c, 5, 53, 101
8, 136200, Note_on_c, 5, 48, 101
8, 136200, Note_on_c, 5, 41, 101
8, 136200, Note_on_c, 5, 57, 101
8, 136230, Note_off_c, 5, 53, 0
8, 136230, Note_off_c, 5, 48, 0
8, 136230, Note_off_c, 5, 41, 0
8, 136230, Note_off_c, 5, 57, 0
8, 136230, Note_on_c, 5, 53, 102
8, 136230, Note_on_c, 5, 48, 102
8, 136230, Note_on_c, 5, 41, 102
8, 136230, Note_on_c, 5, 57, 102
8, 136260, Note_off_c, 5, 53, 0
8, 136260, Note_off_c, 5, 48, 0
8, 136260, Note_off_c, 5, 41, 0
8, 136260, Note_off_c, 5, 57, 0
8, 136260, Note_on_c, 5, 53, 102
8, 136260, Note_on_c, 5, 48, 102
8, 136260, Note_on_c, 5, 41, 102
8, 136260, Note_on_c, 5, 57, 102
8, 136290, Note_off_c, 5, 53, 0
8, 136290, Note_off_c, 5, 48, 0
8, 136290, Note_off_c, 5, 41, 0
8, 136290, Note_off_c, 5, 57, 0
8, 136290, Note_on_c, 5, 53, 103
8, 136290, Note_on_c, 5, 48, 103
8, 136290, Note_on_c, 5, 41, 103
8, 136290, Note_on_c, 5, 57, 103
8, 136320, Note_off_c, 5, 53, 0
8, 136320, Note_off_c, 5, 48, 0
8, 136320, Note_off_c, 5, 41, 0
8, 136320, Note_off_c, 5, 57, 0
8, 136320, Note_on_c, 5, 53, 103
8, 136320, Note_on_c, 5, 48, 103
8, 136320, Note_on_c, 5, 41, 103
8, 136320, Note_on_c, 5, 57, 103
8, 136350, Note_off_c, 5, 53, 0
8, 136350, Note_off_c, 5, 48, 0
8, 136350, Note_off_c, 5, 41, 0
8, 136350, Note_off_c, 5, 57, 0
8, 136350, Note_on_c, 5, 53, 103
8, 136350, Note_on_c, 5, 48, 103
8, 136350, Note_on_c, 5, 41, 103
8, 136350, Note_on_c, 5, 57, 103
8, 136380, Note_off_c, 5, 53, 0
8, 136380, Note_off_c, 5, 48, 0
8, 136380, Note_off_c, 5, 41, 0
8, 136380, Note_off_c, 5, 57, 0
8, 136380, Note_on_c, 5, 53, 104
8, 136380, Note_on_c, 5, 48, 104
8, 136380, Note_on_c, 5, 41, 104
8, 136380, Note_on_c, 5, 57, 104
8, 136410, Note_off_c, 5, 53, 0
8, 136410, Note_off_c, 5, 48, 0
8, 136410, Note_off_c, 5, 41, 0
8, 136410, Note_off_c, 5, 57, 0
8, 136410, Note_on_c, 5, 53, 104
8, 136410, Note_on_c, 5, 48, 104
8, 136410, Note_on_c, 5, 41, 104
8, 136410, Note_on_c, 5, 57, 104
8, 136440, Note_off_c, 5, 53, 0
8, 136440, Note_off_c, 5, 48, 0
8, 136440, Note_off_c, 5, 41, 0
8, 136440, Note_off_c, 5, 57, 0
8, 136440, Note_on_c, 5, 53, 105
8, 136440, Note_on_c, 5, 48, 105
8, 136440, Note_on_c, 5, 41, 105
8, 136440, Note_on_c, 5, 57, 105
8, 136470, Note_off_c, 5, 53, 0
8, 136470, Note_off_c, 5, 48, 0
8, 136470, Note_off_c, 5, 41, 0
8, 136470, Note_off_c, 5, 57, 0
8, 136470, Note_on_c, 5, 53, 106
8, 136470, Note_on_c, 5, 48, 106
8, 136470, Note_on_c, 5, 41, 106
8, 136470, Note_on_c, 5, 57, 106
8, 136500, Note_off_c, 5, 53, 0
8, 136500, Note_off_c, 5, 48, 0
8, 136500, Note_off_c, 5, 41, 0
8, 136500, Note_off_c, 5, 57, 0
8, 136500, Note_on_c, 5, 53, 106
8, 136500, Note_on_c, 5, 48, 106
8, 136500, Note_on_c, 5, 41, 106
8, 136500, Note_on_c, 5, 57, 106
8, 136530, Note_off_c, 5, 53, 0
8, 136530, Note_off_c, 5, 48, 0
8, 136530, Note_off_c, 5, 41, 0
8, 136530, Note_off_c, 5, 57, 0
8, 136530, Note_on_c, 5, 53, 106
8, 136530, Note_on_c, 5, 48, 106
8, 136530, Note_on_c, 5, 41, 106
8, 136530, Note_on_c, 5, 57, 106
8, 136560, Note_off_c, 5, 53, 0
8, 136560, Note_off_c, 5, 48, 0
8, 136560, Note_off_c, 5, 41, 0
8, 136560, Note_off_c, 5, 57, 0
8, 136560, Note_on_c, 5, 53, 107
8, 136560, Note_on_c, 5, 48, 107
8, 136560, Note_on_c, 5, 41, 107
8, 136560, Note_on_c, 5, 57, 107
8, 136590, Note_off_c, 5, 53, 0
8, 136590, Note_off_c, 5, 48, 0
8, 136590, Note_off_c, 5, 41, 0
8, 136590, Note_off_c, 5, 57, 0
8, 136590, Note_on_c, 5, 53, 107
8, 136590, Note_on_c, 5, 48, 107
8, 136590, Note_on_c, 5, 41, 107
8, 136590, Note_on_c, 5, 57, 107
8, 136620, Note_off_c, 5, 53, 0
8, 136620, Note_off_c, 5, 48, 0
8, 136620, Note_off_c, 5, 41, 0
8, 136620, Note_off_c, 5, 57, 0
8, 136620, Note_on_c, 5, 53, 108
8, 136620, Note_on_c, 5, 48, 108
8, 136620, Note_on_c, 5, 41, 108
8, 136620, Note_on_c, 5, 57, 108
8, 136650, Note_off_c, 5, 53, 0
8, 136650, Note_off_c, 5, 48, 0
8, 136650, Note_off_c, 5, 41, 0
8, 136650, Note_off_c, 5, 57, 0
8, 136650, Note_on_c, 5, 53, 108
8, 136650, Note_on_c, 5, 48, 108
8, 136650, Note_on_c, 5, 41, 108
8, 136650, Note_on_c, 5, 57, 108
8, 136680, Note_off_c, 5, 53, 0
8, 136680, Note_off_c, 5, 48, 0
8, 136680, Note_off_c, 5, 41, 0
8, 136680, Note_off_c, 5, 57, 0
8, 136680, Note_on_c, 5, 53, 109
8, 136680, Note_on_c, 5, 48, 109
8, 136680, Note_on_c, 5, 41, 109
8, 136680, Note_on_c, 5, 57, 109
8, 136710, Note_off_c, 5, 53, 0
8, 136710, Note_off_c, 5, 48, 0
8, 136710, Note_off_c, 5, 41, 0
8, 136710, Note_off_c, 5, 57, 0
8, 136710, Note_on_c, 5, 53, 110
8, 136710, Note_on_c, 5, 48, 110
8, 136710, Note_on_c, 5, 41, 110
8, 136710, Note_on_c, 5, 57, 110
8, 136740, Note_off_c, 5, 53, 0
8, 136740, Note_off_c, 5, 48, 0
8, 136740, Note_off_c, 5, 41, 0
8, 136740, Note_off_c, 5, 57, 0
8, 136740, Note_on_c, 5, 53, 110
8, 136740, Note_on_c, 5, 48, 110
8, 136740, Note_on_c, 5, 41, 110
8, 136740, Note_on_c, 5, 57, 110
8, 136770, Note_off_c, 5, 53, 0
8, 136770, Note_off_c, 5, 48, 0
8, 136770, Note_off_c, 5, 41, 0
8, 136770, Note_off_c, 5, 57, 0
8, 136770, Note_on_c, 5, 53, 110
8, 136770, Note_on_c, 5, 48, 110
8, 136770, Note_on_c, 5, 41, 110
8, 136770, Note_on_c, 5, 57, 110
8, 136800, Note_off_c, 5, 53, 0
8, 136800, Note_off_c, 5, 48, 0
8, 136800, Note_off_c, 5, 41, 0
8, 136800, Note_off_c, 5, 57, 0
8, 136800, Note_on_c, 5, 53, 111
8, 136800, Note_on_c, 5, 48, 111
8, 136800, Note_on_c, 5, 41, 111
8, 136800, Note_on_c, 5, 57, 111
8, 136830, Note_off_c, 5, 53, 0
8, 136830, Note_off_c, 5, 48, 0
8, 136830, Note_off_c, 5, 41, 0
8, 136830, Note_off_c, 5, 57, 0
8, 136830, Note_on_c, 5, 53, 111
8, 136830, Note_on_c, 5, 48, 111
8, 136830, Note_on_c, 5, 41, 111
8, 136830, Note_on_c, 5, 57, 111
8, 136860, Note_off_c, 5, 53, 0
8, 136860, Note_off_c, 5, 48, 0
8, 136860, Note_off_c, 5, 41, 0
8, 136860, Note_off_c, 5, 57, 0
8, 136860, Note_on_c, 5, 53, 112
8, 136860, Note_on_c, 5, 48, 112
8, 136860, Note_on_c, 5, 41, 112
8, 136860, Note_on_c, 5, 57, 112
8, 136890, Note_off_c, 5, 53, 0
8, 136890, Note_off_c, 5, 48, 0
8, 136890, Note_off_c, 5, 41, 0
8, 136890, Note_off_c, 5, 57, 0
8, 136890, Note_on_c, 5, 53, 112
8, 136890, Note_on_c, 5, 48, 112
8, 136890, Note_on_c, 5, 41, 112
8, 136890, Note_on_c, 5, 57, 112
8, 136920, Note_off_c, 5, 53, 0
8, 136920, Note_off_c, 5, 48, 0
8, 136920, Note_off_c, 5, 41, 0
8, 136920, Note_off_c, 5, 57, 0
8, 136920, Note_on_c, 5, 53, 113
8, 136920, Note_on_c, 5, 48, 113
8, 136920, Note_on_c, 5, 41, 113
8, 136920, Note_on_c, 5, 57, 113
8, 136950, Note_off_c, 5, 53, 0
8, 136950, Note_off_c, 5, 48, 0
8, 136950, Note_off_c, 5, 41, 0
8, 136950, Note_off_c, 5, 57, 0
8, 136950, Note_on_c, 5, 53, 114
8, 136950, Note_on_c, 5, 48, 114
8, 136950, Note_on_c, 5, 41, 114
8, 136950, Note_on_c, 5, 57, 114
8, 136980, Note_off_c, 5, 53, 0
8, 136980, Note_off_c, 5, 48, 0
8, 136980, Note_off_c, 5, 41, 0
8, 136980, Note_off_c, 5, 57, 0
8, 136980, Note_on_c, 5, 53, 114
8, 136980, Note_on_c, 5, 48, 114
8, 136980, Note_on_c, 5, 41, 114
8, 136980, Note_on_c, 5, 57, 114
8, 137010, Note_off_c, 5, 53, 0
8, 137010, Note_off_c, 5, 48, 0
8, 137010, Note_off_c, 5, 41, 0
8, 137010, Note_off_c, 5, 57, 0
8, 137010, Note_on_c, 5, 53, 114
8, 137010, Note_on_c, 5, 48, 114
8, 137010, Note_on_c, 5, 41, 114
8, 137010, Note_on_c, 5, 57, 114
8, 137040, Note_off_c, 5, 53, 0
8, 137040, Note_off_c, 5, 48, 0
8, 137040, Note_off_c, 5, 41, 0
8, 137040, Note_off_c, 5, 57, 0
8, 137040, Note_on_c, 5, 53, 115
8, 137040, Note_on_c, 5, 48, 115
8, 137040, Note_on_c, 5, 41, 115
8, 137040, Note_on_c, 5, 57, 115
8, 137070, Note_off_c, 5, 53, 0
8, 137070, Note_off_c, 5, 48, 0
8, 137070, Note_off_c, 5, 41, 0
8, 137070, Note_off_c, 5, 57, 0
8, 137070, Note_on_c, 5, 53, 115
8, 137070, Note_on_c, 5, 48, 115
8, 137070, Note_on_c, 5, 41, 115
8, 137070, Note_on_c, 5, 57, 115
8, 137100, Note_off_c, 5, 53, 0
8, 137100, Note_off_c, 5, 48, 0
8, 137100, Note_off_c, 5, 41, 0
8, 137100, Note_off_c, 5, 57, 0
8, 137100, Note_on_c, 5, 53, 116
8, 137100, Note_on_c, 5, 48, 116
8, 137100, Note_on_c, 5, 41, 116
8, 137100, Note_on_c, 5, 57, 116
8, 137130, Note_off_c, 5, 53, 0
8, 137130, Note_off_c, 5, 48, 0
8, 137130, Note_off_c, 5, 41, 0
8, 137130, Note_off_c, 5, 57, 0
8, 137130, Note_on_c, 5, 53, 116
8, 137130, Note_on_c, 5, 48, 116
8, 137130, Note_on_c, 5, 41, 116
8, 137130, Note_on_c, 5, 57, 116
8, 137160, Note_off_c, 5, 53, 0
8, 137160, Note_off_c, 5, 48, 0
8, 137160, Note_off_c, 5, 41, 0
8, 137160, Note_off_c, 5, 57, 0
8, 137160, Note_on_c, 5, 53, 117
8, 137160, Note_on_c, 5, 48, 117
8, 137160, Note_on_c, 5, 41, 117
8, 137160, Note_on_c, 5, 57, 117
8, 137190, Note_off_c, 5, 53, 0
8, 137190, Note_off_c, 5, 48, 0
8, 137190, Note_off_c, 5, 41, 0
8, 137190, Note_off_c, 5, 57, 0
8, 137190, Note_on_c, 5, 53, 117
8, 137190, Note_on_c, 5, 48, 117
8, 137190, Note_on_c, 5, 41, 117
8, 137190, Note_on_c, 5, 57, 117
8, 137220, Note_off_c, 5, 53, 0
8, 137220, Note_off_c, 5, 48, 0
8, 137220, Note_off_c, 5, 41, 0
8, 137220, Note_off_c, 5, 57, 0
8, 137220, Note_on_c, 5, 53, 117
8, 137220, Note_on_c, 5, 48, 117
8, 137220, Note_on_c, 5, 41, 117
8, 137220, Note_on_c, 5, 57, 117
8, 137250, Note_off_c, 5, 53, 0
8, 137250, Note_off_c, 5, 48, 0
8, 137250, Note_off_c, 5, 41, 0
8, 137250, Note_off_c, 5, 57, 0
8, 137250, Note_on_c, 5, 53, 118
8, 137250, Note_on_c, 5, 48, 118
8, 137250, Note_on_c, 5, 41, 118
8, 137250, Note_on_c, 5, 57, 118
8, 137280, Note_off_c, 5, 53, 0
8, 137280, Note_off_c, 5, 48, 0
8, 137280, Note_off_c, 5, 41, 0
8, 137280, Note_off_c, 5, 57, 0
8, 137280, Note_on_c, 5, 53, 119
8, 137280, Note_on_c, 5, 48, 119
8, 137280, Note_on_c, 5, 41, 119
8, 137280, Note_on_c, 5, 57, 119
8, 137310, Note_off_c, 5, 53, 0
8, 137310, Note_off_c, 5, 48, 0
8, 137310, Note_off_c, 5, 41, 0
8, 137310, Note_off_c, 5, 57, 0
8, 137310, Note_on_c, 5, 53, 119
8, 137310, Note_on_c, 5, 48, 119
8, 137310, Note_on_c, 5, 41, 119
8, 137310, Note_on_c, 5, 57, 119
8, 137340, Note_off_c, 5, 53, 0
8, 137340, Note_off_c, 5, 48, 0
8, 137340, Note_off_c, 5, 41, 0
8, 137340, Note_off_c, 5, 57, 0
8, 137340, Note_on_c, 5, 53, 120
8, 137340, Note_on_c, 5, 48, 120
8, 137340, Note_on_c, 5, 41, 120
8, 137340, Note_on_c, 5, 57, 120
8, 137370, Note_off_c, 5, 53, 0
8, 137370, Note_off_c, 5, 48, 0
8, 137370, Note_off_c, 5, 41, 0
8, 137370, Note_off_c, 5, 57, 0
8, 137370, Note_on_c, 5, 53, 120
8, 137370, Note_on_c, 5, 48, 120
8, 137370, Note_on_c, 5, 41, 120
8, 137370, Note_on_c, 5, 57, 120
8, 137400, Note_off_c, 5, 53, 0
8, 137400, Note_off_c, 5, 48, 0
8, 137400, Note_off_c, 5, 41, 0
8, 137400, Note_off_c, 5, 57, 0
8, 137400, Note_on_c, 5, 53, 121
8, 137400, Note_on_c, 5, 48, 121
8, 137400, Note_on_c, 5, 41, 121
8, 137400, Note_on_c, 5, 57, 121
8, 137430, Note_off_c, 5, 53, 0
8, 137430, Note_off_c, 5, 48, 0
8, 137430, Note_off_c, 5, 41, 0
8, 137430, Note_off_c, 5, 57, 0
8, 137430, Note_on_c, 5, 53, 121
8, 137430, Note_on_c, 5, 48, 121
8, 137430, Note_on_c, 5, 41, 121
8, 137430, Note_on_c, 5, 57, 121
8, 137460, Note_off_c, 5, 53, 0
8, 137460, Note_off_c, 5, 48, 0
8, 137460, Note_off_c, 5, 41, 0
8, 137460, Note_off_c, 5, 57, 0
8, 137460, Note_on_c, 5, 53, 121
8, 137460, Note_on_c, 5, 48, 121
8, 137460, Note_on_c, 5, 41, 121
8, 137460, Note_on_c, 5, 57, 121
8, 137490, Note_off_c, 5, 53, 0
8, 137490, Note_off_c, 5, 48, 0
8, 137490, Note_off_c, 5, 41, 0
8, 137490, Note_off_c, 5, 57, 0
8, 137490, Note_on_c, 5, 53, 122
8, 137490, Note_on_c, 5, 48, 122
8, 137490, Note_on_c, 5, 41, 122
8, 137490, Note_on_c, 5, 57, 122
8, 137520, Note_off_c, 5, 53, 0
8, 137520, Note_off_c, 5, 48, 0
8, 137520, Note_off_c, 5, 41, 0
8, 137520, Note_off_c, 5, 57, 0
8, 137520, Note_on_c, 5, 53, 123
8, 137520, Note_on_c, 5, 48, 123
8, 137520, Note_on_c, 5, 41, 123
8, 137520, Note_on_c, 5, 57, 123
8, 137550, Note_off_c, 5, 53, 0
8, 137550, Note_off_c, 5, 48, 0
8, 137550, Note_off_c, 5, 41, 0
8, 137550, Note_off_c, 5, 57, 0
8, 137550, Note_on_c, 5, 53, 123
8, 137550, Note_on_c, 5, 48, 123
8, 137550, Note_on_c, 5, 41, 123
8, 137550, Note_on_c, 5, 57, 123
8, 137580, Note_off_c, 5, 53, 0
8, 137580, Note_off_c, 5, 48, 0
8, 137580, Note_off_c, 5, 41, 0
8, 137580, Note_off_c, 5, 57, 0
8, 137580, Note_on_c, 5, 53, 124
8, 137580, Note_on_c, 5, 48, 124
8, 137580, Note_on_c, 5, 41, 124
8, 137580, Note_on_c, 5, 57, 124
8, 137610, Note_off_c, 5, 53, 0
8, 137610, Note_off_c, 5, 48, 0
8, 137610, Note_off_c, 5, 41, 0
8, 137610, Note_off_c, 5, 57, 0
8, 137610, Note_on_c, 5, 53, 124
8, 137610, Note_on_c, 5, 48, 124
8, 137610, Note_on_c, 5, 41, 124
8, 137610, Note_on_c, 5, 57, 124
8, 137640, Note_off_c, 5, 53, 0
8, 137640, Note_off_c, 5, 48, 0
8, 137640, Note_off_c, 5, 41, 0
8, 137640, Note_off_c, 5, 57, 0
8, 137640, Note_on_c, 5, 53, 125
8, 137640, Note_on_c, 5, 48, 125
8, 137640, Note_on_c, 5, 41, 125
8, 137640, Note_on_c, 5, 57, 125
8, 137670, Note_off_c, 5, 53, 0
8, 137670, Note_off_c, 5, 48, 0
8, 137670, Note_off_c, 5, 41, 0
8, 137670, Note_off_c, 5, 57, 0
8, 137670, Note_on_c, 5, 53, 125
8, 137670, Note_on_c, 5, 48, 125
8, 137670, Note_on_c, 5, 41, 125
8, 137670, Note_on_c, 5, 57, 125
8, 137700, Note_off_c, 5, 53, 0
8, 137700, Note_off_c, 5, 48, 0
8, 137700, Note_off_c, 5, 41, 0
8, 137700, Note_off_c, 5, 57, 0
8, 137700, Note_on_c, 5, 53, 125
8, 137700, Note_on_c, 5, 48, 125
8, 137700, Note_on_c, 5, 41, 125
8, 137700, Note_on_c, 5, 57, 125
8, 137730, Note_off_c, 5, 53, 0
8, 137730, Note_off_c, 5, 48, 0
8, 137730, Note_off_c, 5, 41, 0
8, 137730, Note_off_c, 5, 57, 0
8, 137730, Note_on_c, 5, 53, 126
8, 137730, Note_on_c, 5, 48, 126
8, 137730, Note_on_c, 5, 41, 126
8, 137730, Note_on_c, 5, 57, 126
8, 137760, Note_off_c, 5, 53, 0
8, 137760, Note_off_c, 5, 48, 0
8, 137760, Note_off_c, 5, 41, 0
8, 137760, Note_off_c, 5, 57, 0
8, 137760, Note_on_c, 5, 53, 100
8, 137760, Note_on_c, 5, 58, 100
8, 137760, Note_on_c, 5, 41, 100
8, 137760, Note_on_c, 5, 46, 100
8, 137790, Note_off_c, 5, 53, 0
8, 137790, Note_off_c, 5, 58, 0
8, 137790, Note_off_c, 5, 41, 0
8, 137790, Note_off_c, 5, 46, 0
8, 137790, Note_on_c, 5, 53, 100
8, 137790, Note_on_c, 5, 58, 100
8, 137790, Note_on_c, 5, 41, 100
8, 137790, Note_on_c, 5, 46, 100
8, 137820, Note_off_c, 5, 53, 0
8, 137820, Note_off_c, 5, 58, 0
8, 137820, Note_off_c, 5, 41, 0
8, 137820, Note_off_c, 5, 46, 0
8, 137820, Note_on_c, 5, 53, 100
8, 137820, Note_on_c, 5, 58, 100
8, 137820, Note_on_c, 5, 41, 100
8, 137820, Note_on_c, 5, 46, 100
8, 137850, Note_off_c, 5, 53, 0
8, 137850, Note_off_c, 5, 58, 0
8, 137850, Note_off_c, 5, 41, 0
8, 137850, Note_off_c, 5, 46, 0
8, 137850, Note_on_c, 5, 53, 100
8, 137850, Note_on_c, 5, 58, 100
8, 137850, Note_on_c, 5, 41, 100
8, 137850, Note_on_c, 5, 46, 100
8, 137880, Note_off_c, 5, 53, 0
8, 137880, Note_off_c, 5, 58, 0
8, 137880, Note_off_c, 5, 41, 0
8, 137880, Note_off_c, 5, 46, 0
8, 137880, Note_on_c, 5, 53, 100
8, 137880, Note_on_c, 5, 58, 100
8, 137880, Note_on_c, 5, 41, 100
8, 137880, Note_on_c, 5, 46, 100
8, 137910, Note_off_c, 5, 53, 0
8, 137910, Note_off_c, 5, 58, 0
8, 137910, Note_off_c, 5, 41, 0
8, 137910, Note_off_c, 5, 46, 0
8, 137910, Note_on_c, 5, 53, 100
8, 137910, Note_on_c, 5, 58, 100
8, 137910, Note_on_c, 5, 41, 100
8, 137910, Note_on_c, 5, 46, 100
8, 137940, Note_off_c, 5, 53, 0
8, 137940, Note_off_c, 5, 58, 0
8, 137940, Note_off_c, 5, 41, 0
8, 137940, Note_off_c, 5, 46, 0
8, 137940, Note_on_c, 5, 53, 100
8, 137940, Note_on_c, 5, 58, 100
8, 137940, Note_on_c, 5, 41, 100
8, 137940, Note_on_c, 5, 46, 100
8, 137970, Note_off_c, 5, 53, 0
8, 137970, Note_off_c, 5, 58, 0
8, 137970, Note_off_c, 5, 41, 0
8, 137970, Note_off_c, 5, 46, 0
8, 137970, Note_on_c, 5, 53, 100
8, 137970, Note_on_c, 5, 58, 100
8, 137970, Note_on_c, 5, 41, 100
8, 137970, Note_on_c, 5, 46, 100
8, 138000, Note_off_c, 5, 53, 0
8, 138000, Note_off_c, 5, 58, 0
8, 138000, Note_off_c, 5, 41, 0
8, 138000, Note_off_c, 5, 46, 0
8, 138000, Note_on_c, 5, 53, 100
8, 138000, Note_on_c, 5, 58, 100
8, 138000, Note_on_c, 5, 41, 100
8, 138000, Note_on_c, 5, 46, 100
8, 138030, Note_off_c, 5, 53, 0
8, 138030, Note_off_c, 5, 58, 0
8, 138030, Note_off_c, 5, 41, 0
8, 138030, Note_off_c, 5, 46, 0
8, 138030, Note_on_c, 5, 53, 100
8, 138030, Note_on_c, 5, 58, 100
8, 138030, Note_on_c, 5, 41, 100
8, 138030, Note_on_c, 5, 46, 100
8, 138060, Note_off_c, 5, 53, 0
8, 138060, Note_off_c, 5, 58, 0
8, 138060, Note_off_c, 5, 41, 0
8, 138060, Note_off_c, 5, 46, 0
8, 138060, Note_on_c, 5, 53, 100
8, 138060, Note_on_c, 5, 58, 100
8, 138060, Note_on_c, 5, 41, 100
8, 138060, Note_on_c, 5, 46, 100
8, 138090, Note_off_c, 5, 53, 0
8, 138090, Note_off_c, 5, 58, 0
8, 138090, Note_off_c, 5, 41, 0
8, 138090, Note_off_c, 5, 46, 0
8, 138090, Note_on_c, 5, 53, 100
8, 138090, Note_on_c, 5, 58, 100
8, 138090, Note_on_c, 5, 41, 100
8, 138090, Note_on_c, 5, 46, 100
8, 138120, Note_off_c, 5, 53, 0
8, 138120, Note_off_c, 5, 58, 0
8, 138120, Note_off_c, 5, 41, 0
8, 138120, Note_off_c, 5, 46, 0
8, 138120, Note_on_c, 5, 53, 100
8, 138120, Note_on_c, 5, 58, 100
8, 138120, Note_on_c, 5, 41, 100
8, 138120, Note_on_c, 5, 46, 100
8, 138150, Note_off_c, 5, 53, 0
8, 138150, Note_off_c, 5, 58, 0
8, 138150, Note_off_c, 5, 41, 0
8, 138150, Note_off_c, 5, 46, 0
8, 138150, Note_on_c, 5, 53, 100
8, 138150, Note_on_c, 5, 58, 100
8, 138150, Note_on_c, 5, 41, 100
8, 138150, Note_on_c, 5, 46, 100
8, 138180, Note_off_c, 5, 53, 0
8, 138180, Note_off_c, 5, 58, 0
8, 138180, Note_off_c, 5, 41, 0
8, 138180, Note_off_c, 5, 46, 0
8, 138180, Note_on_c, 5, 53, 100
8, 138180, Note_on_c, 5, 58, 100
8, 138180, Note_on_c, 5, 41, 100
8, 138180, Note_on_c, 5, 46, 100
8, 138210, Note_off_c, 5, 53, 0
8, 138210, Note_off_c, 5, 58, 0
8, 138210, Note_off_c, 5, 41, 0
8, 138210, Note_off_c, 5, 46, 0
8, 138210, Note_on_c, 5, 53, 100
8, 138210, Note_on_c, 5, 58, 100
8, 138210, Note_on_c, 5, 41, 100
8, 138210, Note_on_c, 5, 46, 100
8, 138240, Note_off_c, 5, 53, 0
8, 138240, Note_off_c, 5, 58, 0
8, 138240, Note_off_c, 5, 41, 0
8, 138240, Note_off_c, 5, 46, 0
8, 138240, Note_on_c, 5, 53, 100
8, 138240, Note_on_c, 5, 58, 100
8, 138240, Note_on_c, 5, 41, 100
8, 138240, Note_on_c, 5, 46, 100
8, 138270, Note_off_c, 5, 53, 0
8, 138270, Note_off_c, 5, 58, 0
8, 138270, Note_off_c, 5, 41, 0
8, 138270, Note_off_c, 5, 46, 0
8, 138270, Note_on_c, 5, 53, 100
8, 138270, Note_on_c, 5, 58, 100
8, 138270, Note_on_c, 5, 41, 100
8, 138270, Note_on_c, 5, 46, 100
8, 138300, Note_off_c, 5, 53, 0
8, 138300, Note_off_c, 5, 58, 0
8, 138300, Note_off_c, 5, 41, 0
8, 138300, Note_off_c, 5, 46, 0
8, 138300, Note_on_c, 5, 53, 100
8, 138300, Note_on_c, 5, 58, 100
8, 138300, Note_on_c, 5, 41, 100
8, 138300, Note_on_c, 5, 46, 100
8, 138330, Note_off_c, 5, 53, 0
8, 138330, Note_off_c, 5, 58, 0
8, 138330, Note_off_c, 5, 41, 0
8, 138330, Note_off_c, 5, 46, 0
8, 138330, Note_on_c, 5, 53, 100
8, 138330, Note_on_c, 5, 58, 100
8, 138330, Note_on_c, 5, 41, 100
8, 138330, Note_on_c, 5, 46, 100
8, 138360, Note_off_c, 5, 53, 0
8, 138360, Note_off_c, 5, 58, 0
8, 138360, Note_off_c, 5, 41, 0
8, 138360, Note_off_c, 5, 46, 0
8, 138360, Note_on_c, 5, 53, 100
8, 138360, Note_on_c, 5, 58, 100
8, 138360, Note_on_c, 5, 41, 100
8, 138360, Note_on_c, 5, 46, 100
8, 138390, Note_off_c, 5, 53, 0
8, 138390, Note_off_c, 5, 58, 0
8, 138390, Note_off_c, 5, 41, 0
8, 138390, Note_off_c, 5, 46, 0
8, 138390, Note_on_c, 5, 53, 100
8, 138390, Note_on_c, 5, 58, 100
8, 138390, Note_on_c, 5, 41, 100
8, 138390, Note_on_c, 5, 46, 100
8, 138420, Note_off_c, 5, 53, 0
8, 138420, Note_off_c, 5, 58, 0
8, 138420, Note_off_c, 5, 41, 0
8, 138420, Note_off_c, 5, 46, 0
8, 138420, Note_on_c, 5, 53, 100
8, 138420, Note_on_c, 5, 58, 100
8, 138420, Note_on_c, 5, 41, 100
8, 138420, Note_on_c, 5, 46, 100
8, 138450, Note_off_c, 5, 53, 0
8, 138450, Note_off_c, 5, 58, 0
8, 138450, Note_off_c, 5, 41, 0
8, 138450, Note_off_c, 5, 46, 0
8, 138450, Note_on_c, 5, 53, 100
8, 138450, Note_on_c, 5, 58, 100
8, 138450, Note_on_c, 5, 41, 100
8, 138450, Note_on_c, 5, 46, 100
8, 138480, Note_off_c, 5, 53, 0
8, 138480, Note_off_c, 5, 58, 0
8, 138480, Note_off_c, 5, 41, 0
8, 138480, Note_off_c, 5, 46, 0
8, 138480, Note_on_c, 5, 53, 100
8, 138480, Note_on_c, 5, 58, 100
8, 138480, Note_on_c, 5, 41, 100
8, 138480, Note_on_c, 5, 46, 100
8, 138510, Note_off_c, 5, 53, 0
8, 138510, Note_off_c, 5, 58, 0
8, 138510, Note_off_c, 5, 41, 0
8, 138510, Note_off_c, 5, 46, 0
8, 138510, Note_on_c, 5, 53, 100
8, 138510, Note_on_c, 5, 58, 100
8, 138510, Note_on_c, 5, 41, 100
8, 138510, Note_on_c, 5, 46, 100
8, 138540, Note_off_c, 5, 53, 0
8, 138540, Note_off_c, 5, 58, 0
8, 138540, Note_off_c, 5, 41, 0
8, 138540, Note_off_c, 5, 46, 0
8, 138540, Note_on_c, 5, 53, 100
8, 138540, Note_on_c, 5, 58, 100
8, 138540, Note_on_c, 5, 41, 100
8, 138540, Note_on_c, 5, 46, 100
8, 138570, Note_off_c, 5, 53, 0
8, 138570, Note_off_c, 5, 58, 0
8, 138570, Note_off_c, 5, 41, 0
8, 138570, Note_off_c, 5, 46, 0
8, 138570, Note_on_c, 5, 53, 100
8, 138570, Note_on_c, 5, 58, 100
8, 138570, Note_on_c, 5, 41, 100
8, 138570, Note_on_c, 5, 46, 100
8, 138600, Note_off_c, 5, 53, 0
8, 138600, Note_off_c, 5, 58, 0
8, 138600, Note_off_c, 5, 41, 0
8, 138600, Note_off_c, 5, 46, 0
8, 138600, Note_on_c, 5, 53, 100
8, 138600, Note_on_c, 5, 58, 100
8, 138600, Note_on_c, 5, 41, 100
8, 138600, Note_on_c, 5, 46, 100
8, 138630, Note_off_c, 5, 53, 0
8, 138630, Note_off_c, 5, 58, 0
8, 138630, Note_off_c, 5, 41, 0
8, 138630, Note_off_c, 5, 46, 0
8, 138630, Note_on_c, 5, 53, 100
8, 138630, Note_on_c, 5, 58, 100
8, 138630, Note_on_c, 5, 41, 100
8, 138630, Note_on_c, 5, 46, 100
8, 138660, Note_off_c, 5, 53, 0
8, 138660, Note_off_c, 5, 58, 0
8, 138660, Note_off_c, 5, 41, 0
8, 138660, Note_off_c, 5, 46, 0
8, 138660, Note_on_c, 5, 53, 100
8, 138660, Note_on_c, 5, 58, 100
8, 138660, Note_on_c, 5, 41, 100
8, 138660, Note_on_c, 5, 46, 100
8, 138690, Note_off_c, 5, 53, 0
8, 138690, Note_off_c, 5, 58, 0
8, 138690, Note_off_c, 5, 41, 0
8, 138690, Note_off_c, 5, 46, 0
8, 138690, Note_on_c, 5, 53, 100
8, 138690, Note_on_c, 5, 58, 100
8, 138690, Note_on_c, 5, 41, 100
8, 138690, Note_on_c, 5, 46, 100
8, 138720, Note_off_c, 5, 53, 0
8, 138720, Note_off_c, 5, 58, 0
8, 138720, Note_off_c, 5, 41, 0
8, 138720, Note_off_c, 5, 46, 0
8, 138720, Note_on_c, 5, 53, 100
8, 138720, Note_on_c, 5, 58, 100
8, 138720, Note_on_c, 5, 41, 100
8, 138720, Note_on_c, 5, 46, 100
8, 138750, Note_off_c, 5, 53, 0
8, 138750, Note_off_c, 5, 58, 0
8, 138750, Note_off_c, 5, 41, 0
8, 138750, Note_off_c, 5, 46, 0
8, 138750, Note_on_c, 5, 53, 100
8, 138750, Note_on_c, 5, 58, 100
8, 138750, Note_on_c, 5, 41, 100
8, 138750, Note_on_c, 5, 46, 100
8, 138780, Note_off_c, 5, 53, 0
8, 138780, Note_off_c, 5, 58, 0
8, 138780, Note_off_c, 5, 41, 0
8, 138780, Note_off_c, 5, 46, 0
8, 138780, Note_on_c, 5, 53, 100
8, 138780, Note_on_c, 5, 58, 100
8, 138780, Note_on_c, 5, 41, 100
8, 138780, Note_on_c, 5, 46, 100
8, 138810, Note_off_c, 5, 53, 0
8, 138810, Note_off_c, 5, 58, 0
8, 138810, Note_off_c, 5, 41, 0
8, 138810, Note_off_c, 5, 46, 0
8, 138810, Note_on_c, 5, 53, 100
8, 138810, Note_on_c, 5, 58, 100
8, 138810, Note_on_c, 5, 41, 100
8, 138810, Note_on_c, 5, 46, 100
8, 138840, Note_off_c, 5, 53, 0
8, 138840, Note_off_c, 5, 58, 0
8, 138840, Note_off_c, 5, 41, 0
8, 138840, Note_off_c, 5, 46, 0
8, 138840, Note_on_c, 5, 53, 100
8, 138840, Note_on_c, 5, 58, 100
8, 138840, Note_on_c, 5, 41, 100
8, 138840, Note_on_c, 5, 46, 100
8, 138870, Note_off_c, 5, 53, 0
8, 138870, Note_off_c, 5, 58, 0
8, 138870, Note_off_c, 5, 41, 0
8, 138870, Note_off_c, 5, 46, 0
8, 138870, Note_on_c, 5, 53, 100
8, 138870, Note_on_c, 5, 58, 100
8, 138870, Note_on_c, 5, 41, 100
8, 138870, Note_on_c, 5, 46, 100
8, 138900, Note_off_c, 5, 53, 0
8, 138900, Note_off_c, 5, 58, 0
8, 138900, Note_off_c, 5, 41, 0
8, 138900, Note_off_c, 5, 46, 0
8, 138900, Note_on_c, 5, 53, 100
8, 138900, Note_on_c, 5, 58, 100
8, 138900, Note_on_c, 5, 41, 100
8, 138900, Note_on_c, 5, 46, 100
8, 138930, Note_off_c, 5, 53, 0
8, 138930, Note_off_c, 5, 58, 0
8, 138930, Note_off_c, 5, 41, 0
8, 138930, Note_off_c, 5, 46, 0
8, 138930, Note_on_c, 5, 53, 100
8, 138930, Note_on_c, 5, 58, 100
8, 138930, Note_on_c, 5, 41, 100
8, 138930, Note_on_c, 5, 46, 100
8, 138960, Note_off_c, 5, 53, 0
8, 138960, Note_off_c, 5, 58, 0
8, 138960, Note_off_c, 5, 41, 0
8, 138960, Note_off_c, 5, 46, 0
8, 138960, Note_on_c, 5, 53, 100
8, 138960, Note_on_c, 5, 58, 100
8, 138960, Note_on_c, 5, 41, 100
8, 138960, Note_on_c, 5, 46, 100
8, 138990, Note_off_c, 5, 53, 0
8, 138990, Note_off_c, 5, 58, 0
8, 138990, Note_off_c, 5, 41, 0
8, 138990, Note_off_c, 5, 46, 0
8, 138990, Note_on_c, 5, 53, 100
8, 138990, Note_on_c, 5, 58, 100
8, 138990, Note_on_c, 5, 41, 100
8, 138990, Note_on_c, 5, 46, 100
8, 139020, Note_off_c, 5, 53, 0
8, 139020, Note_off_c, 5, 58, 0
8, 139020, Note_off_c, 5, 41, 0
8, 139020, Note_off_c, 5, 46, 0
8, 139020, Note_on_c, 5, 53, 100
8, 139020, Note_on_c, 5, 58, 100
8, 139020, Note_on_c, 5, 41, 100
8, 139020, Note_on_c, 5, 46, 100
8, 139050, Note_off_c, 5, 53, 0
8, 139050, Note_off_c, 5, 58, 0
8, 139050, Note_off_c, 5, 41, 0
8, 139050, Note_off_c, 5, 46, 0
8, 139050, Note_on_c, 5, 53, 100
8, 139050, Note_on_c, 5, 58, 100
8, 139050, Note_on_c, 5, 41, 100
8, 139050, Note_on_c, 5, 46, 100
8, 139080, Note_off_c, 5, 53, 0
8, 139080, Note_off_c, 5, 58, 0
8, 139080, Note_off_c, 5, 41, 0
8, 139080, Note_off_c, 5, 46, 0
8, 139080, Note_on_c, 5, 53, 100
8, 139080, Note_on_c, 5, 58, 100
8, 139080, Note_on_c, 5, 41, 100
8, 139080, Note_on_c, 5, 46, 100
8, 139110, Note_off_c, 5, 53, 0
8, 139110, Note_off_c, 5, 58, 0
8, 139110, Note_off_c, 5, 41, 0
8, 139110, Note_off_c, 5, 46, 0
8, 139110, Note_on_c, 5, 53, 100
8, 139110, Note_on_c, 5, 58, 100
8, 139110, Note_on_c, 5, 41, 100
8, 139110, Note_on_c, 5, 46, 100
8, 139140, Note_off_c, 5, 53, 0
8, 139140, Note_off_c, 5, 58, 0
8, 139140, Note_off_c, 5, 41, 0
8, 139140, Note_off_c, 5, 46, 0
8, 139140, Note_on_c, 5, 53, 100
8, 139140, Note_on_c, 5, 58, 100
8, 139140, Note_on_c, 5, 41, 100
8, 139140, Note_on_c, 5, 46, 100
8, 139170, Note_off_c, 5, 53, 0
8, 139170, Note_off_c, 5, 58, 0
8, 139170, Note_off_c, 5, 41, 0
8, 139170, Note_off_c, 5, 46, 0
8, 139170, Note_on_c, 5, 53, 100
8, 139170, Note_on_c, 5, 58, 100
8, 139170, Note_on_c, 5, 41, 100
8, 139170, Note_on_c, 5, 46, 100
8, 139200, Note_off_c, 5, 53, 0
8, 139200, Note_off_c, 5, 58, 0
8, 139200, Note_off_c, 5, 41, 0
8, 139200, Note_off_c, 5, 46, 0
8, 139200, Note_on_c, 5, 53, 100
8, 139200, Note_on_c, 5, 58, 100
8, 139200, Note_on_c, 5, 41, 100
8, 139200, Note_on_c, 5, 46, 100
8, 139230, Note_off_c, 5, 53, 0
8, 139230, Note_off_c, 5, 58, 0
8, 139230, Note_off_c, 5, 41, 0
8, 139230, Note_off_c, 5, 46, 0
8, 139230, Note_on_c, 5, 53, 100
8, 139230, Note_on_c, 5, 58, 100
8, 139230, Note_on_c, 5, 41, 100
8, 139230, Note_on_c, 5, 46, 100
8, 139260, Note_off_c, 5, 53, 0
8, 139260, Note_off_c, 5, 58, 0
8, 139260, Note_off_c, 5, 41, 0
8, 139260, Note_off_c, 5, 46, 0
8, 139260, Note_on_c, 5, 53, 100
8, 139260, Note_on_c, 5, 58, 100
8, 139260, Note_on_c, 5, 41, 100
8, 139260, Note_on_c, 5, 46, 100
8, 139290, Note_off_c, 5, 53, 0
8, 139290, Note_off_c, 5, 58, 0
8, 139290, Note_off_c, 5, 41, 0
8, 139290, Note_off_c, 5, 46, 0
8, 139290, Note_on_c, 5, 53, 100
8, 139290, Note_on_c, 5, 58, 100
8, 139290, Note_on_c, 5, 41, 100
8, 139290, Note_on_c, 5, 46, 100
8, 139320, Note_off_c, 5, 53, 0
8, 139320, Note_off_c, 5, 58, 0
8, 139320, Note_off_c, 5, 41, 0
8, 139320, Note_off_c, 5, 46, 0
8, 139320, Note_on_c, 5, 53, 100
8, 139320, Note_on_c, 5, 58, 100
8, 139320, Note_on_c, 5, 41, 100
8, 139320, Note_on_c, 5, 46, 100
8, 139350, Note_off_c, 5, 53, 0
8, 139350, Note_off_c, 5, 58, 0
8, 139350, Note_off_c, 5, 41, 0
8, 139350, Note_off_c, 5, 46, 0
8, 139350, Note_on_c, 5, 53, 100
8, 139350, Note_on_c, 5, 58, 100
8, 139350, Note_on_c, 5, 41, 100
8, 139350, Note_on_c, 5, 46, 100
8, 139380, Note_off_c, 5, 53, 0
8, 139380, Note_off_c, 5, 58, 0
8, 139380, Note_off_c, 5, 41, 0
8, 139380, Note_off_c, 5, 46, 0
8, 139380, Note_on_c, 5, 53, 100
8, 139380, Note_on_c, 5, 58, 100
8, 139380, Note_on_c, 5, 41, 100
8, 139380, Note_on_c, 5, 46, 100
8, 139410, Note_off_c, 5, 53, 0
8, 139410, Note_off_c, 5, 58, 0
8, 139410, Note_off_c, 5, 41, 0
8, 139410, Note_off_c, 5, 46, 0
8, 139410, Note_on_c, 5, 53, 100
8, 139410, Note_on_c, 5, 58, 100
8, 139410, Note_on_c, 5, 41, 100
8, 139410, Note_on_c, 5, 46, 100
8, 139440, Note_off_c, 5, 53, 0
8, 139440, Note_off_c, 5, 58, 0
8, 139440, Note_off_c, 5, 41, 0
8, 139440, Note_off_c, 5, 46, 0
8, 139440, Note_on_c, 5, 53, 100
8, 139440, Note_on_c, 5, 58, 100
8, 139440, Note_on_c, 5, 41, 100
8, 139440, Note_on_c, 5, 46, 100
8, 139470, Note_off_c, 5, 53, 0
8, 139470, Note_off_c, 5, 58, 0
8, 139470, Note_off_c, 5, 41, 0
8, 139470, Note_off_c, 5, 46, 0
8, 139470, Note_on_c, 5, 53, 100
8, 139470, Note_on_c, 5, 58, 100
8, 139470, Note_on_c, 5, 41, 100
8, 139470, Note_on_c, 5, 46, 100
8, 139500, Note_off_c, 5, 53, 0
8, 139500, Note_off_c, 5, 58, 0
8, 139500, Note_off_c, 5, 41, 0
8, 139500, Note_off_c, 5, 46, 0
8, 139500, Note_on_c, 5, 53, 100
8, 139500, Note_on_c, 5, 58, 100
8, 139500, Note_on_c, 5, 41, 100
8, 139500, Note_on_c, 5, 46, 100
8, 139530, Note_off_c, 5, 53, 0
8, 139530, Note_off_c, 5, 58, 0
8, 139530, Note_off_c, 5, 41, 0
8, 139530, Note_off_c, 5, 46, 0
8, 139530, Note_on_c, 5, 53, 100
8, 139530, Note_on_c, 5, 58, 100
8, 139530, Note_on_c, 5, 41, 100
8, 139530, Note_on_c, 5, 46, 100
8, 139560, Note_off_c, 5, 53, 0
8, 139560, Note_off_c, 5, 58, 0
8, 139560, Note_off_c, 5, 41, 0
8, 139560, Note_off_c, 5, 46, 0
8, 139560, Note_on_c, 5, 53, 100
8, 139560, Note_on_c, 5, 58, 100
8, 139560, Note_on_c, 5, 41, 100
8, 139560, Note_on_c, 5, 46, 100
8, 139590, Note_off_c, 5, 53, 0
8, 139590, Note_off_c, 5, 58, 0
8, 139590, Note_off_c, 5, 41, 0
8, 139590, Note_off_c, 5, 46, 0
8, 139590, Note_on_c, 5, 53, 100
8, 139590, Note_on_c, 5, 58, 100
8, 139590, Note_on_c, 5, 41, 100
8, 139590, Note_on_c, 5, 46, 100
8, 139620, Note_off_c, 5, 53, 0
8, 139620, Note_off_c, 5, 58, 0
8, 139620, Note_off_c, 5, 41, 0
8, 139620, Note_off_c, 5, 46, 0
8, 139620, Note_on_c, 5, 53, 100
8, 139620, Note_on_c, 5, 58, 100
8, 139620, Note_on_c, 5, 41, 100
8, 139620, Note_on_c, 5, 46, 100
8, 139650, Note_off_c, 5, 53, 0
8, 139650, Note_off_c, 5, 58, 0
8, 139650, Note_off_c, 5, 41, 0
8, 139650, Note_off_c, 5, 46, 0
8, 139650, Note_on_c, 5, 53, 100
8, 139650, Note_on_c, 5, 58, 100
8, 139650, Note_on_c, 5, 41, 100
8, 139650, Note_on_c, 5, 46, 100
8, 139680, Note_off_c, 5, 53, 0
8, 139680, Note_off_c, 5, 58, 0
8, 139680, Note_off_c, 5, 41, 0
8, 139680, Note_off_c, 5, 46, 0
8, 139680, Note_on_c, 5, 54, 100
8, 139680, Note_on_c, 5, 58, 100
8, 139680, Note_on_c, 5, 42, 100
8, 139680, Note_on_c, 5, 46, 100
8, 139710, Note_off_c, 5, 54, 0
8, 139710, Note_off_c, 5, 58, 0
8, 139710, Note_off_c, 5, 42, 0
8, 139710, Note_off_c, 5, 46, 0
8, 139710, Note_on_c, 5, 54, 100
8, 139710, Note_on_c, 5, 58, 100
8, 139710, Note_on_c, 5, 42, 100
8, 139710, Note_on_c, 5, 46, 100
8, 139740, Note_off_c, 5, 54, 0
8, 139740, Note_off_c, 5, 58, 0
8, 139740, Note_off_c, 5, 42, 0
8, 139740, Note_off_c, 5, 46, 0
8, 139740, Note_on_c, 5, 54, 100
8, 139740, Note_on_c, 5, 58, 100
8, 139740, Note_on_c, 5, 42, 100
8, 139740, Note_on_c, 5, 46, 100
8, 139770, Note_off_c, 5, 54, 0
8, 139770, Note_off_c, 5, 58, 0
8, 139770, Note_off_c, 5, 42, 0
8, 139770, Note_off_c, 5, 46, 0
8, 139770, Note_on_c, 5, 54, 100
8, 139770, Note_on_c, 5, 58, 100
8, 139770, Note_on_c, 5, 42, 100
8, 139770, Note_on_c, 5, 46, 100
8, 139800, Note_off_c, 5, 54, 0
8, 139800, Note_off_c, 5, 58, 0
8, 139800, Note_off_c, 5, 42, 0
8, 139800, Note_off_c, 5, 46, 0
8, 139800, Note_on_c, 5, 54, 100
8, 139800, Note_on_c, 5, 58, 100
8, 139800, Note_on_c, 5, 42, 100
8, 139800, Note_on_c, 5, 46, 100
8, 139830, Note_off_c, 5, 54, 0
8, 139830, Note_off_c, 5, 58, 0
8, 139830, Note_off_c, 5, 42, 0
8, 139830, Note_off_c, 5, 46, 0
8, 139830, Note_on_c, 5, 54, 100
8, 139830, Note_on_c, 5, 58, 100
8, 139830, Note_on_c, 5, 42, 100
8, 139830, Note_on_c, 5, 46, 100
8, 139860, Note_off_c, 5, 54, 0
8, 139860, Note_off_c, 5, 58, 0
8, 139860, Note_off_c, 5, 42, 0
8, 139860, Note_off_c, 5, 46, 0
8, 139860, Note_on_c, 5, 54, 100
8, 139860, Note_on_c, 5, 58, 100
8, 139860, Note_on_c, 5, 42, 100
8, 139860, Note_on_c, 5, 46, 100
8, 139890, Note_off_c, 5, 54, 0
8, 139890, Note_off_c, 5, 58, 0
8, 139890, Note_off_c, 5, 42, 0
8, 139890, Note_off_c, 5, 46, 0
8, 139890, Note_on_c, 5, 54, 100
8, 139890, Note_on_c, 5, 58, 100
8, 139890, Note_on_c, 5, 42, 100
8, 139890, Note_on_c, 5, 46, 100
8, 139920, Note_off_c, 5, 54, 0
8, 139920, Note_off_c, 5, 58, 0
8, 139920, Note_off_c, 5, 42, 0
8, 139920, Note_off_c, 5, 46, 0
8, 139920, Note_on_c, 5, 54, 100
8, 139920, Note_on_c, 5, 58, 100
8, 139920, Note_on_c, 5, 42, 100
8, 139920, Note_on_c, 5, 46, 100
8, 139950, Note_off_c, 5, 54, 0
8, 139950, Note_off_c, 5, 58, 0
8, 139950, Note_off_c, 5, 42, 0
8, 139950, Note_off_c, 5, 46, 0
8, 139950, Note_on_c, 5, 54, 100
8, 139950, Note_on_c, 5, 58, 100
8, 139950, Note_on_c, 5, 42, 100
8, 139950, Note_on_c, 5, 46, 100
8, 139980, Note_off_c, 5, 54, 0
8, 139980, Note_off_c, 5, 58, 0
8, 139980, Note_off_c, 5, 42, 0
8, 139980, Note_off_c, 5, 46, 0
8, 139980, Note_on_c, 5, 54, 100
8, 139980, Note_on_c, 5, 58, 100
8, 139980, Note_on_c, 5, 42, 100
8, 139980, Note_on_c, 5, 46, 100
8, 140010, Note_off_c, 5, 54, 0
8, 140010, Note_off_c, 5, 58, 0
8, 140010, Note_off_c, 5, 42, 0
8, 140010, Note_off_c, 5, 46, 0
8, 140010, Note_on_c, 5, 54, 100
8, 140010, Note_on_c, 5, 58, 100
8, 140010, Note_on_c, 5, 42, 100
8, 140010, Note_on_c, 5, 46, 100
8, 140040, Note_off_c, 5, 54, 0
8, 140040, Note_off_c, 5, 58, 0
8, 140040, Note_off_c, 5, 42, 0
8, 140040, Note_off_c, 5, 46, 0
8, 140040, Note_on_c, 5, 54, 100
8, 140040, Note_on_c, 5, 58, 100
8, 140040, Note_on_c, 5, 42, 100
8, 140040, Note_on_c, 5, 46, 100
8, 140070, Note_off_c, 5, 54, 0
8, 140070, Note_off_c, 5, 58, 0
8, 140070, Note_off_c, 5, 42, 0
8, 140070, Note_off_c, 5, 46, 0
8, 140070, Note_on_c, 5, 54, 100
8, 140070, Note_on_c, 5, 58, 100
8, 140070, Note_on_c, 5, 42, 100
8, 140070, Note_on_c, 5, 46, 100
8, 140100, Note_off_c, 5, 54, 0
8, 140100, Note_off_c, 5, 58, 0
8, 140100, Note_off_c, 5, 42, 0
8, 140100, Note_off_c, 5, 46, 0
8, 140100, Note_on_c, 5, 54, 100
8, 140100, Note_on_c, 5, 58, 100
8, 140100, Note_on_c, 5, 42, 100
8, 140100, Note_on_c, 5, 46, 100
8, 140130, Note_off_c, 5, 54, 0
8, 140130, Note_off_c, 5, 58, 0
8, 140130, Note_off_c, 5, 42, 0
8, 140130, Note_off_c, 5, 46, 0
8, 140130, Note_on_c, 5, 54, 100
8, 140130, Note_on_c, 5, 58, 100
8, 140130, Note_on_c, 5, 42, 100
8, 140130, Note_on_c, 5, 46, 100
8, 140160, Note_off_c, 5, 54, 0
8, 140160, Note_off_c, 5, 58, 0
8, 140160, Note_off_c, 5, 42, 0
8, 140160, Note_off_c, 5, 46, 0
8, 140160, Note_on_c, 5, 54, 100
8, 140160, Note_on_c, 5, 58, 100
8, 140160, Note_on_c, 5, 42, 100
8, 140160, Note_on_c, 5, 46, 100
8, 140190, Note_off_c, 5, 54, 0
8, 140190, Note_off_c, 5, 58, 0
8, 140190, Note_off_c, 5, 42, 0
8, 140190, Note_off_c, 5, 46, 0
8, 140190, Note_on_c, 5, 54, 100
8, 140190, Note_on_c, 5, 58, 100
8, 140190, Note_on_c, 5, 42, 100
8, 140190, Note_on_c, 5, 46, 100
8, 140220, Note_off_c, 5, 54, 0
8, 140220, Note_off_c, 5, 58, 0
8, 140220, Note_off_c, 5, 42, 0
8, 140220, Note_off_c, 5, 46, 0
8, 140220, Note_on_c, 5, 54, 100
8, 140220, Note_on_c, 5, 58, 100
8, 140220, Note_on_c, 5, 42, 100
8, 140220, Note_on_c, 5, 46, 100
8, 140250, Note_off_c, 5, 54, 0
8, 140250, Note_off_c, 5, 58, 0
8, 140250, Note_off_c, 5, 42, 0
8, 140250, Note_off_c, 5, 46, 0
8, 140250, Note_on_c, 5, 54, 100
8, 140250, Note_on_c, 5, 58, 100
8, 140250, Note_on_c, 5, 42, 100
8, 140250, Note_on_c, 5, 46, 100
8, 140280, Note_off_c, 5, 54, 0
8, 140280, Note_off_c, 5, 58, 0
8, 140280, Note_off_c, 5, 42, 0
8, 140280, Note_off_c, 5, 46, 0
8, 140280, Note_on_c, 5, 54, 100
8, 140280, Note_on_c, 5, 58, 100
8, 140280, Note_on_c, 5, 42, 100
8, 140280, Note_on_c, 5, 46, 100
8, 140310, Note_off_c, 5, 54, 0
8, 140310, Note_off_c, 5, 58, 0
8, 140310, Note_off_c, 5, 42, 0
8, 140310, Note_off_c, 5, 46, 0
8, 140310, Note_on_c, 5, 54, 100
8, 140310, Note_on_c, 5, 58, 100
8, 140310, Note_on_c, 5, 42, 100
8, 140310, Note_on_c, 5, 46, 100
8, 140340, Note_off_c, 5, 54, 0
8, 140340, Note_off_c, 5, 58, 0
8, 140340, Note_off_c, 5, 42, 0
8, 140340, Note_off_c, 5, 46, 0
8, 140340, Note_on_c, 5, 54, 100
8, 140340, Note_on_c, 5, 58, 100
8, 140340, Note_on_c, 5, 42, 100
8, 140340, Note_on_c, 5, 46, 100
8, 140370, Note_off_c, 5, 54, 0
8, 140370, Note_off_c, 5, 58, 0
8, 140370, Note_off_c, 5, 42, 0
8, 140370, Note_off_c, 5, 46, 0
8, 140370, Note_on_c, 5, 54, 100
8, 140370, Note_on_c, 5, 58, 100
8, 140370, Note_on_c, 5, 42, 100
8, 140370, Note_on_c, 5, 46, 100
8, 140400, Note_off_c, 5, 54, 0
8, 140400, Note_off_c, 5, 58, 0
8, 140400, Note_off_c, 5, 42, 0
8, 140400, Note_off_c, 5, 46, 0
8, 140400, Note_on_c, 5, 54, 100
8, 140400, Note_on_c, 5, 58, 100
8, 140400, Note_on_c, 5, 42, 100
8, 140400, Note_on_c, 5, 46, 100
8, 140430, Note_off_c, 5, 54, 0
8, 140430, Note_off_c, 5, 58, 0
8, 140430, Note_off_c, 5, 42, 0
8, 140430, Note_off_c, 5, 46, 0
8, 140430, Note_on_c, 5, 54, 100
8, 140430, Note_on_c, 5, 58, 100
8, 140430, Note_on_c, 5, 42, 100
8, 140430, Note_on_c, 5, 46, 100
8, 140460, Note_off_c, 5, 54, 0
8, 140460, Note_off_c, 5, 58, 0
8, 140460, Note_off_c, 5, 42, 0
8, 140460, Note_off_c, 5, 46, 0
8, 140460, Note_on_c, 5, 54, 100
8, 140460, Note_on_c, 5, 58, 100
8, 140460, Note_on_c, 5, 42, 100
8, 140460, Note_on_c, 5, 46, 100
8, 140490, Note_off_c, 5, 54, 0
8, 140490, Note_off_c, 5, 58, 0
8, 140490, Note_off_c, 5, 42, 0
8, 140490, Note_off_c, 5, 46, 0
8, 140490, Note_on_c, 5, 54, 100
8, 140490, Note_on_c, 5, 58, 100
8, 140490, Note_on_c, 5, 42, 100
8, 140490, Note_on_c, 5, 46, 100
8, 140520, Note_off_c, 5, 54, 0
8, 140520, Note_off_c, 5, 58, 0
8, 140520, Note_off_c, 5, 42, 0
8, 140520, Note_off_c, 5, 46, 0
8, 140520, Note_on_c, 5, 54, 100
8, 140520, Note_on_c, 5, 58, 100
8, 140520, Note_on_c, 5, 42, 100
8, 140520, Note_on_c, 5, 46, 100
8, 140550, Note_off_c, 5, 54, 0
8, 140550, Note_off_c, 5, 58, 0
8, 140550, Note_off_c, 5, 42, 0
8, 140550, Note_off_c, 5, 46, 0
8, 140550, Note_on_c, 5, 54, 100
8, 140550, Note_on_c, 5, 58, 100
8, 140550, Note_on_c, 5, 42, 100
8, 140550, Note_on_c, 5, 46, 100
8, 140580, Note_off_c, 5, 54, 0
8, 140580, Note_off_c, 5, 58, 0
8, 140580, Note_off_c, 5, 42, 0
8, 140580, Note_off_c, 5, 46, 0
8, 140580, Note_on_c, 5, 54, 100
8, 140580, Note_on_c, 5, 58, 100
8, 140580, Note_on_c, 5, 42, 100
8, 140580, Note_on_c, 5, 46, 100
8, 140610, Note_off_c, 5, 54, 0
8, 140610, Note_off_c, 5, 58, 0
8, 140610, Note_off_c, 5, 42, 0
8, 140610, Note_off_c, 5, 46, 0
8, 140610, Note_on_c, 5, 54, 100
8, 140610, Note_on_c, 5, 58, 100
8, 140610, Note_on_c, 5, 42, 100
8, 140610, Note_on_c, 5, 46, 100
8, 140640, Note_off_c, 5, 54, 0
8, 140640, Note_off_c, 5, 58, 0
8, 140640, Note_off_c, 5, 42, 0
8, 140640, Note_off_c, 5, 46, 0
8, 140640, Note_on_c, 5, 54, 100
8, 140640, Note_on_c, 5, 58, 100
8, 140640, Note_on_c, 5, 42, 100
8, 140640, Note_on_c, 5, 46, 100
8, 140670, Note_off_c, 5, 54, 0
8, 140670, Note_off_c, 5, 58, 0
8, 140670, Note_off_c, 5, 42, 0
8, 140670, Note_off_c, 5, 46, 0
8, 140670, Note_on_c, 5, 54, 100
8, 140670, Note_on_c, 5, 58, 100
8, 140670, Note_on_c, 5, 42, 100
8, 140670, Note_on_c, 5, 46, 100
8, 140700, Note_off_c, 5, 54, 0
8, 140700, Note_off_c, 5, 58, 0
8, 140700, Note_off_c, 5, 42, 0
8, 140700, Note_off_c, 5, 46, 0
8, 140700, Note_on_c, 5, 54, 100
8, 140700, Note_on_c, 5, 58, 100
8, 140700, Note_on_c, 5, 42, 100
8, 140700, Note_on_c, 5, 46, 100
8, 140730, Note_off_c, 5, 54, 0
8, 140730, Note_off_c, 5, 58, 0
8, 140730, Note_off_c, 5, 42, 0
8, 140730, Note_off_c, 5, 46, 0
8, 140730, Note_on_c, 5, 54, 100
8, 140730, Note_on_c, 5, 58, 100
8, 140730, Note_on_c, 5, 42, 100
8, 140730, Note_on_c, 5, 46, 100
8, 140760, Note_off_c, 5, 54, 0
8, 140760, Note_off_c, 5, 58, 0
8, 140760, Note_off_c, 5, 42, 0
8, 140760, Note_off_c, 5, 46, 0
8, 140760, Note_on_c, 5, 54, 100
8, 140760, Note_on_c, 5, 58, 100
8, 140760, Note_on_c, 5, 42, 100
8, 140760, Note_on_c, 5, 46, 100
8, 140790, Note_off_c, 5, 54, 0
8, 140790, Note_off_c, 5, 58, 0
8, 140790, Note_off_c, 5, 42, 0
8, 140790, Note_off_c, 5, 46, 0
8, 140790, Note_on_c, 5, 54, 100
8, 140790, Note_on_c, 5, 58, 100
8, 140790, Note_on_c, 5, 42, 100
8, 140790, Note_on_c, 5, 46, 100
8, 140820, Note_off_c, 5, 54, 0
8, 140820, Note_off_c, 5, 58, 0
8, 140820, Note_off_c, 5, 42, 0
8, 140820, Note_off_c, 5, 46, 0
8, 140820, Note_on_c, 5, 54, 100
8, 140820, Note_on_c, 5, 58, 100
8, 140820, Note_on_c, 5, 42, 100
8, 140820, Note_on_c, 5, 46, 100
8, 140850, Note_off_c, 5, 54, 0
8, 140850, Note_off_c, 5, 58, 0
8, 140850, Note_off_c, 5, 42, 0
8, 140850, Note_off_c, 5, 46, 0
8, 140850, Note_on_c, 5, 54, 100
8, 140850, Note_on_c, 5, 58, 100
8, 140850, Note_on_c, 5, 42, 100
8, 140850, Note_on_c, 5, 46, 100
8, 140880, Note_off_c, 5, 54, 0
8, 140880, Note_off_c, 5, 58, 0
8, 140880, Note_off_c, 5, 42, 0
8, 140880, Note_off_c, 5, 46, 0
8, 140880, Note_on_c, 5, 54, 100
8, 140880, Note_on_c, 5, 58, 100
8, 140880, Note_on_c, 5, 42, 100
8, 140880, Note_on_c, 5, 46, 100
8, 140910, Note_off_c, 5, 54, 0
8, 140910, Note_off_c, 5, 58, 0
8, 140910, Note_off_c, 5, 42, 0
8, 140910, Note_off_c, 5, 46, 0
8, 140910, Note_on_c, 5, 54, 100
8, 140910, Note_on_c, 5, 58, 100
8, 140910, Note_on_c, 5, 42, 100
8, 140910, Note_on_c, 5, 46, 100
8, 140940, Note_off_c, 5, 54, 0
8, 140940, Note_off_c, 5, 58, 0
8, 140940, Note_off_c, 5, 42, 0
8, 140940, Note_off_c, 5, 46, 0
8, 140940, Note_on_c, 5, 54, 100
8, 140940, Note_on_c, 5, 58, 100
8, 140940, Note_on_c, 5, 42, 100
8, 140940, Note_on_c, 5, 46, 100
8, 140970, Note_off_c, 5, 54, 0
8, 140970, Note_off_c, 5, 58, 0
8, 140970, Note_off_c, 5, 42, 0
8, 140970, Note_off_c, 5, 46, 0
8, 140970, Note_on_c, 5, 54, 100
8, 140970, Note_on_c, 5, 58, 100
8, 140970, Note_on_c, 5, 42, 100
8, 140970, Note_on_c, 5, 46, 100
8, 141000, Note_off_c, 5, 54, 0
8, 141000, Note_off_c, 5, 58, 0
8, 141000, Note_off_c, 5, 42, 0
8, 141000, Note_off_c, 5, 46, 0
8, 141000, Note_on_c, 5, 54, 100
8, 141000, Note_on_c, 5, 58, 100
8, 141000, Note_on_c, 5, 42, 100
8, 141000, Note_on_c, 5, 46, 100
8, 141030, Note_off_c, 5, 54, 0
8, 141030, Note_off_c, 5, 58, 0
8, 141030, Note_off_c, 5, 42, 0
8, 141030, Note_off_c, 5, 46, 0
8, 141030, Note_on_c, 5, 54, 100
8, 141030, Note_on_c, 5, 58, 100
8, 141030, Note_on_c, 5, 42, 100
8, 141030, Note_on_c, 5, 46, 100
8, 141060, Note_off_c, 5, 54, 0
8, 141060, Note_off_c, 5, 58, 0
8, 141060, Note_off_c, 5, 42, 0
8, 141060, Note_off_c, 5, 46, 0
8, 141060, Note_on_c, 5, 54, 100
8, 141060, Note_on_c, 5, 58, 100
8, 141060, Note_on_c, 5, 42, 100
8, 141060, Note_on_c, 5, 46, 100
8, 141090, Note_off_c, 5, 54, 0
8, 141090, Note_off_c, 5, 58, 0
8, 141090, Note_off_c, 5, 42, 0
8, 141090, Note_off_c, 5, 46, 0
8, 141090, Note_on_c, 5, 54, 100
8, 141090, Note_on_c, 5, 58, 100
8, 141090, Note_on_c, 5, 42, 100
8, 141090, Note_on_c, 5, 46, 100
8, 141120, Note_off_c, 5, 54, 0
8, 141120, Note_off_c, 5, 58, 0
8, 141120, Note_off_c, 5, 42, 0
8, 141120, Note_off_c, 5, 46, 0
8, 141120, Note_on_c, 5, 54, 100
8, 141120, Note_on_c, 5, 58, 100
8, 141120, Note_on_c, 5, 42, 100
8, 141120, Note_on_c, 5, 46, 100
8, 141150, Note_off_c, 5, 54, 0
8, 141150, Note_off_c, 5, 58, 0
8, 141150, Note_off_c, 5, 42, 0
8, 141150, Note_off_c, 5, 46, 0
8, 141150, Note_on_c, 5, 54, 100
8, 141150, Note_on_c, 5, 58, 100
8, 141150, Note_on_c, 5, 42, 100
8, 141150, Note_on_c, 5, 46, 100
8, 141180, Note_off_c, 5, 54, 0
8, 141180, Note_off_c, 5, 58, 0
8, 141180, Note_off_c, 5, 42, 0
8, 141180, Note_off_c, 5, 46, 0
8, 141180, Note_on_c, 5, 54, 100
8, 141180, Note_on_c, 5, 58, 100
8, 141180, Note_on_c, 5, 42, 100
8, 141180, Note_on_c, 5, 46, 100
8, 141210, Note_off_c, 5, 54, 0
8, 141210, Note_off_c, 5, 58, 0
8, 141210, Note_off_c, 5, 42, 0
8, 141210, Note_off_c, 5, 46, 0
8, 141210, Note_on_c, 5, 54, 100
8, 141210, Note_on_c, 5, 58, 100
8, 141210, Note_on_c, 5, 42, 100
8, 141210, Note_on_c, 5, 46, 100
8, 141240, Note_off_c, 5, 54, 0
8, 141240, Note_off_c, 5, 58, 0
8, 141240, Note_off_c, 5, 42, 0
8, 141240, Note_off_c, 5, 46, 0
8, 141240, Note_on_c, 5, 54, 100
8, 141240, Note_on_c, 5, 58, 100
8, 141240, Note_on_c, 5, 42, 100
8, 141240, Note_on_c, 5, 46, 100
8, 141270, Note_off_c, 5, 54, 0
8, 141270, Note_off_c, 5, 58, 0
8, 141270, Note_off_c, 5, 42, 0
8, 141270, Note_off_c, 5, 46, 0
8, 141270, Note_on_c, 5, 54, 100
8, 141270, Note_on_c, 5, 58, 100
8, 141270, Note_on_c, 5, 42, 100
8, 141270, Note_on_c, 5, 46, 100
8, 141300, Note_off_c, 5, 54, 0
8, 141300, Note_off_c, 5, 58, 0
8, 141300, Note_off_c, 5, 42, 0
8, 141300, Note_off_c, 5, 46, 0
8, 141300, Note_on_c, 5, 54, 100
8, 141300, Note_on_c, 5, 58, 100
8, 141300, Note_on_c, 5, 42, 100
8, 141300, Note_on_c, 5, 46, 100
8, 141330, Note_off_c, 5, 54, 0
8, 141330, Note_off_c, 5, 58, 0
8, 141330, Note_off_c, 5, 42, 0
8, 141330, Note_off_c, 5, 46, 0
8, 141330, Note_on_c, 5, 54, 100
8, 141330, Note_on_c, 5, 58, 100
8, 141330, Note_on_c, 5, 42, 100
8, 141330, Note_on_c, 5, 46, 100
8, 141360, Note_off_c, 5, 54, 0
8, 141360, Note_off_c, 5, 58, 0
8, 141360, Note_off_c, 5, 42, 0
8, 141360, Note_off_c, 5, 46, 0
8, 141360, Note_on_c, 5, 54, 100
8, 141360, Note_on_c, 5, 58, 100
8, 141360, Note_on_c, 5, 42, 100
8, 141360, Note_on_c, 5, 46, 100
8, 141390, Note_off_c, 5, 54, 0
8, 141390, Note_off_c, 5, 58, 0
8, 141390, Note_off_c, 5, 42, 0
8, 141390, Note_off_c, 5, 46, 0
8, 141390, Note_on_c, 5, 54, 100
8, 141390, Note_on_c, 5, 58, 100
8, 141390, Note_on_c, 5, 42, 100
8, 141390, Note_on_c, 5, 46, 100
8, 141420, Note_off_c, 5, 54, 0
8, 141420, Note_off_c, 5, 58, 0
8, 141420, Note_off_c, 5, 42, 0
8, 141420, Note_off_c, 5, 46, 0
8, 141420, Note_on_c, 5, 54, 100
8, 141420, Note_on_c, 5, 58, 100
8, 141420, Note_on_c, 5, 42, 100
8, 141420, Note_on_c, 5, 46, 100
8, 141450, Note_off_c, 5, 54, 0
8, 141450, Note_off_c, 5, 58, 0
8, 141450, Note_off_c, 5, 42, 0
8, 141450, Note_off_c, 5, 46, 0
8, 141450, Note_on_c, 5, 54, 100
8, 141450, Note_on_c, 5, 58, 100
8, 141450, Note_on_c, 5, 42, 100
8, 141450, Note_on_c, 5, 46, 100
8, 141480, Note_off_c, 5, 54, 0
8, 141480, Note_off_c, 5, 58, 0
8, 141480, Note_off_c, 5, 42, 0
8, 141480, Note_off_c, 5, 46, 0
8, 141480, Note_on_c, 5, 54, 100
8, 141480, Note_on_c, 5, 58, 100
8, 141480, Note_on_c, 5, 42, 100
8, 141480, Note_on_c, 5, 46, 100
8, 141510, Note_off_c, 5, 54, 0
8, 141510, Note_off_c, 5, 58, 0
8, 141510, Note_off_c, 5, 42, 0
8, 141510, Note_off_c, 5, 46, 0
8, 141510, Note_on_c, 5, 54, 100
8, 141510, Note_on_c, 5, 58, 100
8, 141510, Note_on_c, 5, 42, 100
8, 141510, Note_on_c, 5, 46, 100
8, 141540, Note_off_c, 5, 54, 0
8, 141540, Note_off_c, 5, 58, 0
8, 141540, Note_off_c, 5, 42, 0
8, 141540, Note_off_c, 5, 46, 0
8, 141540, Note_on_c, 5, 54, 100
8, 141540, Note_on_c, 5, 58, 100
8, 141540, Note_on_c, 5, 42, 100
8, 141540, Note_on_c, 5, 46, 100
8, 141570, Note_off_c, 5, 54, 0
8, 141570, Note_off_c, 5, 58, 0
8, 141570, Note_off_c, 5, 42, 0
8, 141570, Note_off_c, 5, 46, 0
8, 141570, Note_on_c, 5, 54, 100
8, 141570, Note_on_c, 5, 58, 100
8, 141570, Note_on_c, 5, 42, 100
8, 141570, Note_on_c, 5, 46, 100
8, 141600, Note_off_c, 5, 54, 0
8, 141600, Note_off_c, 5, 58, 0
8, 141600, Note_off_c, 5, 42, 0
8, 141600, Note_off_c, 5, 46, 0
8, 141600, Note_on_c, 5, 56, 100
8, 141600, Note_on_c, 5, 60, 100
8, 141600, Note_on_c, 5, 44, 100
8, 141600, Note_on_c, 5, 48, 100
8, 141630, Note_off_c, 5, 56, 0
8, 141630, Note_off_c, 5, 60, 0
8, 141630, Note_off_c, 5, 44, 0
8, 141630, Note_off_c, 5, 48, 0
8, 141630, Note_on_c, 5, 56, 100
8, 141630, Note_on_c, 5, 60, 100
8, 141630, Note_on_c, 5, 44, 100
8, 141630, Note_on_c, 5, 48, 100
8, 141660, Note_off_c, 5, 56, 0
8, 141660, Note_off_c, 5, 60, 0
8, 141660, Note_off_c, 5, 44, 0
8, 141660, Note_off_c, 5, 48, 0
8, 141660, Note_on_c, 5, 56, 100
8, 141660, Note_on_c, 5, 60, 100
8, 141660, Note_on_c, 5, 44, 100
8, 141660, Note_on_c, 5, 48, 100
8, 141690, Note_off_c, 5, 56, 0
8, 141690, Note_off_c, 5, 60, 0
8, 141690, Note_off_c, 5, 44, 0
8, 141690, Note_off_c, 5, 48, 0
8, 141690, Note_on_c, 5, 56, 100
8, 141690, Note_on_c, 5, 60, 100
8, 141690, Note_on_c, 5, 44, 100
8, 141690, Note_on_c, 5, 48, 100
8, 141720, Note_off_c, 5, 56, 0
8, 141720, Note_off_c, 5, 60, 0
8, 141720, Note_off_c, 5, 44, 0
8, 141720, Note_off_c, 5, 48, 0
8, 141720, Note_on_c, 5, 56, 100
8, 141720, Note_on_c, 5, 60, 100
8, 141720, Note_on_c, 5, 44, 100
8, 141720, Note_on_c, 5, 48, 100
8, 141750, Note_off_c, 5, 56, 0
8, 141750, Note_off_c, 5, 60, 0
8, 141750, Note_off_c, 5, 44, 0
8, 141750, Note_off_c, 5, 48, 0
8, 141750, Note_on_c, 5, 56, 100
8, 141750, Note_on_c, 5, 60, 100
8, 141750, Note_on_c, 5, 44, 100
8, 141750, Note_on_c, 5, 48, 100
8, 141780, Note_off_c, 5, 56, 0
8, 141780, Note_off_c, 5, 60, 0
8, 141780, Note_off_c, 5, 44, 0
8, 141780, Note_off_c, 5, 48, 0
8, 141780, Note_on_c, 5, 56, 100
8, 141780, Note_on_c, 5, 60, 100
8, 141780, Note_on_c, 5, 44, 100
8, 141780, Note_on_c, 5, 48, 100
8, 141810, Note_off_c, 5, 56, 0
8, 141810, Note_off_c, 5, 60, 0
8, 141810, Note_off_c, 5, 44, 0
8, 141810, Note_off_c, 5, 48, 0
8, 141810, Note_on_c, 5, 56, 100
8, 141810, Note_on_c, 5, 60, 100
8, 141810, Note_on_c, 5, 44, 100
8, 141810, Note_on_c, 5, 48, 100
8, 141840, Note_off_c, 5, 56, 0
8, 141840, Note_off_c, 5, 60, 0
8, 141840, Note_off_c, 5, 44, 0
8, 141840, Note_off_c, 5, 48, 0
8, 141840, Note_on_c, 5, 56, 100
8, 141840, Note_on_c, 5, 60, 100
8, 141840, Note_on_c, 5, 44, 100
8, 141840, Note_on_c, 5, 48, 100
8, 141870, Note_off_c, 5, 56, 0
8, 141870, Note_off_c, 5, 60, 0
8, 141870, Note_off_c, 5, 44, 0
8, 141870, Note_off_c, 5, 48, 0
8, 141870, Note_on_c, 5, 56, 100
8, 141870, Note_on_c, 5, 60, 100
8, 141870, Note_on_c, 5, 44, 100
8, 141870, Note_on_c, 5, 48, 100
8, 141900, Note_off_c, 5, 56, 0
8, 141900, Note_off_c, 5, 60, 0
8, 141900, Note_off_c, 5, 44, 0
8, 141900, Note_off_c, 5, 48, 0
8, 141900, Note_on_c, 5, 56, 100
8, 141900, Note_on_c, 5, 60, 100
8, 141900, Note_on_c, 5, 44, 100
8, 141900, Note_on_c, 5, 48, 100
8, 141930, Note_off_c, 5, 56, 0
8, 141930, Note_off_c, 5, 60, 0
8, 141930, Note_off_c, 5, 44, 0
8, 141930, Note_off_c, 5, 48, 0
8, 141930, Note_on_c, 5, 56, 100
8, 141930, Note_on_c, 5, 60, 100
8, 141930, Note_on_c, 5, 44, 100
8, 141930, Note_on_c, 5, 48, 100
8, 141960, Note_off_c, 5, 56, 0
8, 141960, Note_off_c, 5, 60, 0
8, 141960, Note_off_c, 5, 44, 0
8, 141960, Note_off_c, 5, 48, 0
8, 141960, Note_on_c, 5, 56, 100
8, 141960, Note_on_c, 5, 60, 100
8, 141960, Note_on_c, 5, 44, 100
8, 141960, Note_on_c, 5, 48, 100
8, 141990, Note_off_c, 5, 56, 0
8, 141990, Note_off_c, 5, 60, 0
8, 141990, Note_off_c, 5, 44, 0
8, 141990, Note_off_c, 5, 48, 0
8, 141990, Note_on_c, 5, 56, 100
8, 141990, Note_on_c, 5, 60, 100
8, 141990, Note_on_c, 5, 44, 100
8, 141990, Note_on_c, 5, 48, 100
8, 142020, Note_off_c, 5, 56, 0
8, 142020, Note_off_c, 5, 60, 0
8, 142020, Note_off_c, 5, 44, 0
8, 142020, Note_off_c, 5, 48, 0
8, 142020, Note_on_c, 5, 56, 100
8, 142020, Note_on_c, 5, 60, 100
8, 142020, Note_on_c, 5, 44, 100
8, 142020, Note_on_c, 5, 48, 100
8, 142050, Note_off_c, 5, 56, 0
8, 142050, Note_off_c, 5, 60, 0
8, 142050, Note_off_c, 5, 44, 0
8, 142050, Note_off_c, 5, 48, 0
8, 142050, Note_on_c, 5, 56, 100
8, 142050, Note_on_c, 5, 60, 100
8, 142050, Note_on_c, 5, 44, 100
8, 142050, Note_on_c, 5, 48, 100
8, 142080, Note_off_c, 5, 56, 0
8, 142080, Note_off_c, 5, 60, 0
8, 142080, Note_off_c, 5, 44, 0
8, 142080, Note_off_c, 5, 48, 0
8, 142080, Note_on_c, 5, 56, 100
8, 142080, Note_on_c, 5, 60, 100
8, 142080, Note_on_c, 5, 44, 100
8, 142080, Note_on_c, 5, 48, 100
8, 142110, Note_off_c, 5, 56, 0
8, 142110, Note_off_c, 5, 60, 0
8, 142110, Note_off_c, 5, 44, 0
8, 142110, Note_off_c, 5, 48, 0
8, 142110, Note_on_c, 5, 56, 100
8, 142110, Note_on_c, 5, 60, 100
8, 142110, Note_on_c, 5, 44, 100
8, 142110, Note_on_c, 5, 48, 100
8, 142140, Note_off_c, 5, 56, 0
8, 142140, Note_off_c, 5, 60, 0
8, 142140, Note_off_c, 5, 44, 0
8, 142140, Note_off_c, 5, 48, 0
8, 142140, Note_on_c, 5, 56, 100
8, 142140, Note_on_c, 5, 60, 100
8, 142140, Note_on_c, 5, 44, 100
8, 142140, Note_on_c, 5, 48, 100
8, 142170, Note_off_c, 5, 56, 0
8, 142170, Note_off_c, 5, 60, 0
8, 142170, Note_off_c, 5, 44, 0
8, 142170, Note_off_c, 5, 48, 0
8, 142170, Note_on_c, 5, 56, 100
8, 142170, Note_on_c, 5, 60, 100
8, 142170, Note_on_c, 5, 44, 100
8, 142170, Note_on_c, 5, 48, 100
8, 142200, Note_off_c, 5, 56, 0
8, 142200, Note_off_c, 5, 60, 0
8, 142200, Note_off_c, 5, 44, 0
8, 142200, Note_off_c, 5, 48, 0
8, 142200, Note_on_c, 5, 56, 100
8, 142200, Note_on_c, 5, 60, 100
8, 142200, Note_on_c, 5, 44, 100
8, 142200, Note_on_c, 5, 48, 100
8, 142230, Note_off_c, 5, 56, 0
8, 142230, Note_off_c, 5, 60, 0
8, 142230, Note_off_c, 5, 44, 0
8, 142230, Note_off_c, 5, 48, 0
8, 142230, Note_on_c, 5, 56, 100
8, 142230, Note_on_c, 5, 60, 100
8, 142230, Note_on_c, 5, 44, 100
8, 142230, Note_on_c, 5, 48, 100
8, 142260, Note_off_c, 5, 56, 0
8, 142260, Note_off_c, 5, 60, 0
8, 142260, Note_off_c, 5, 44, 0
8, 142260, Note_off_c, 5, 48, 0
8, 142260, Note_on_c, 5, 56, 100
8, 142260, Note_on_c, 5, 60, 100
8, 142260, Note_on_c, 5, 44, 100
8, 142260, Note_on_c, 5, 48, 100
8, 142290, Note_off_c, 5, 56, 0
8, 142290, Note_off_c, 5, 60, 0
8, 142290, Note_off_c, 5, 44, 0
8, 142290, Note_off_c, 5, 48, 0
8, 142290, Note_on_c, 5, 56, 100
8, 142290, Note_on_c, 5, 60, 100
8, 142290, Note_on_c, 5, 44, 100
8, 142290, Note_on_c, 5, 48, 100
8, 142320, Note_off_c, 5, 56, 0
8, 142320, Note_off_c, 5, 60, 0
8, 142320, Note_off_c, 5, 44, 0
8, 142320, Note_off_c, 5, 48, 0
8, 142320, Note_on_c, 5, 56, 100
8, 142320, Note_on_c, 5, 60, 100
8, 142320, Note_on_c, 5, 44, 100
8, 142320, Note_on_c, 5, 48, 100
8, 142350, Note_off_c, 5, 56, 0
8, 142350, Note_off_c, 5, 60, 0
8, 142350, Note_off_c, 5, 44, 0
8, 142350, Note_off_c, 5, 48, 0
8, 142350, Note_on_c, 5, 56, 100
8, 142350, Note_on_c, 5, 60, 100
8, 142350, Note_on_c, 5, 44, 100
8, 142350, Note_on_c, 5, 48, 100
8, 142380, Note_off_c, 5, 56, 0
8, 142380, Note_off_c, 5, 60, 0
8, 142380, Note_off_c, 5, 44, 0
8, 142380, Note_off_c, 5, 48, 0
8, 142380, Note_on_c, 5, 56, 100
8, 142380, Note_on_c, 5, 60, 100
8, 142380, Note_on_c, 5, 44, 100
8, 142380, Note_on_c, 5, 48, 100
8, 142410, Note_off_c, 5, 56, 0
8, 142410, Note_off_c, 5, 60, 0
8, 142410, Note_off_c, 5, 44, 0
8, 142410, Note_off_c, 5, 48, 0
8, 142410, Note_on_c, 5, 56, 100
8, 142410, Note_on_c, 5, 60, 100
8, 142410, Note_on_c, 5, 44, 100
8, 142410, Note_on_c, 5, 48, 100
8, 142440, Note_off_c, 5, 56, 0
8, 142440, Note_off_c, 5, 60, 0
8, 142440, Note_off_c, 5, 44, 0
8, 142440, Note_off_c, 5, 48, 0
8, 142440, Note_on_c, 5, 56, 100
8, 142440, Note_on_c, 5, 60, 100
8, 142440, Note_on_c, 5, 44, 100
8, 142440, Note_on_c, 5, 48, 100
8, 142470, Note_off_c, 5, 56, 0
8, 142470, Note_off_c, 5, 60, 0
8, 142470, Note_off_c, 5, 44, 0
8, 142470, Note_off_c, 5, 48, 0
8, 142470, Note_on_c, 5, 56, 100
8, 142470, Note_on_c, 5, 60, 100
8, 142470, Note_on_c, 5, 44, 100
8, 142470, Note_on_c, 5, 48, 100
8, 142500, Note_off_c, 5, 56, 0
8, 142500, Note_off_c, 5, 60, 0
8, 142500, Note_off_c, 5, 44, 0
8, 142500, Note_off_c, 5, 48, 0
8, 142500, Note_on_c, 5, 56, 100
8, 142500, Note_on_c, 5, 60, 100
8, 142500, Note_on_c, 5, 44, 100
8, 142500, Note_on_c, 5, 48, 100
8, 142530, Note_off_c, 5, 56, 0
8, 142530, Note_off_c, 5, 60, 0
8, 142530, Note_off_c, 5, 44, 0
8, 142530, Note_off_c, 5, 48, 0
8, 142530, Note_on_c, 5, 56, 100
8, 142530, Note_on_c, 5, 60, 100
8, 142530, Note_on_c, 5, 44, 100
8, 142530, Note_on_c, 5, 48, 100
8, 142560, Note_off_c, 5, 56, 0
8, 142560, Note_off_c, 5, 60, 0
8, 142560, Note_off_c, 5, 44, 0
8, 142560, Note_off_c, 5, 48, 0
8, 142560, Note_on_c, 5, 54, 100
8, 142560, Note_on_c, 5, 58, 100
8, 142560, Note_on_c, 5, 42, 100
8, 142560, Note_on_c, 5, 46, 100
8, 142590, Note_off_c, 5, 54, 0
8, 142590, Note_off_c, 5, 58, 0
8, 142590, Note_off_c, 5, 42, 0
8, 142590, Note_off_c, 5, 46, 0
8, 142590, Note_on_c, 5, 54, 100
8, 142590, Note_on_c, 5, 58, 100
8, 142590, Note_on_c, 5, 42, 100
8, 142590, Note_on_c, 5, 46, 100
8, 142620, Note_off_c, 5, 54, 0
8, 142620, Note_off_c, 5, 58, 0
8, 142620, Note_off_c, 5, 42, 0
8, 142620, Note_off_c, 5, 46, 0
8, 142620, Note_on_c, 5, 54, 100
8, 142620, Note_on_c, 5, 58, 100
8, 142620, Note_on_c, 5, 42, 100
8, 142620, Note_on_c, 5, 46, 100
8, 142650, Note_off_c, 5, 54, 0
8, 142650, Note_off_c, 5, 58, 0
8, 142650, Note_off_c, 5, 42, 0
8, 142650, Note_off_c, 5, 46, 0
8, 142650, Note_on_c, 5, 54, 100
8, 142650, Note_on_c, 5, 58, 100
8, 142650, Note_on_c, 5, 42, 100
8, 142650, Note_on_c, 5, 46, 100
8, 142680, Note_off_c, 5, 54, 0
8, 142680, Note_off_c, 5, 58, 0
8, 142680, Note_off_c, 5, 42, 0
8, 142680, Note_off_c, 5, 46, 0
8, 142680, Note_on_c, 5, 54, 100
8, 142680, Note_on_c, 5, 58, 100
8, 142680, Note_on_c, 5, 42, 100
8, 142680, Note_on_c, 5, 46, 100
8, 142710, Note_off_c, 5, 54, 0
8, 142710, Note_off_c, 5, 58, 0
8, 142710, Note_off_c, 5, 42, 0
8, 142710, Note_off_c, 5, 46, 0
8, 142710, Note_on_c, 5, 54, 100
8, 142710, Note_on_c, 5, 58, 100
8, 142710, Note_on_c, 5, 42, 100
8, 142710, Note_on_c, 5, 46, 100
8, 142740, Note_off_c, 5, 54, 0
8, 142740, Note_off_c, 5, 58, 0
8, 142740, Note_off_c, 5, 42, 0
8, 142740, Note_off_c, 5, 46, 0
8, 142740, Note_on_c, 5, 54, 100
8, 142740, Note_on_c, 5, 58, 100
8, 142740, Note_on_c, 5, 42, 100
8, 142740, Note_on_c, 5, 46, 100
8, 142770, Note_off_c, 5, 54, 0
8, 142770, Note_off_c, 5, 58, 0
8, 142770, Note_off_c, 5, 42, 0
8, 142770, Note_off_c, 5, 46, 0
8, 142770, Note_on_c, 5, 54, 100
8, 142770, Note_on_c, 5, 58, 100
8, 142770, Note_on_c, 5, 42, 100
8, 142770, Note_on_c, 5, 46, 100
8, 142800, Note_off_c, 5, 54, 0
8, 142800, Note_off_c, 5, 58, 0
8, 142800, Note_off_c, 5, 42, 0
8, 142800, Note_off_c, 5, 46, 0
8, 142800, Note_on_c, 5, 54, 100
8, 142800, Note_on_c, 5, 58, 100
8, 142800, Note_on_c, 5, 42, 100
8, 142800, Note_on_c, 5, 46, 100
8, 142830, Note_off_c, 5, 54, 0
8, 142830, Note_off_c, 5, 58, 0
8, 142830, Note_off_c, 5, 42, 0
8, 142830, Note_off_c, 5, 46, 0
8, 142830, Note_on_c, 5, 54, 100
8, 142830, Note_on_c, 5, 58, 100
8, 142830, Note_on_c, 5, 42, 100
8, 142830, Note_on_c, 5, 46, 100
8, 142860, Note_off_c, 5, 54, 0
8, 142860, Note_off_c, 5, 58, 0
8, 142860, Note_off_c, 5, 42, 0
8, 142860, Note_off_c, 5, 46, 0
8, 142860, Note_on_c, 5, 54, 100
8, 142860, Note_on_c, 5, 58, 100
8, 142860, Note_on_c, 5, 42, 100
8, 142860, Note_on_c, 5, 46, 100
8, 142890, Note_off_c, 5, 54, 0
8, 142890, Note_off_c, 5, 58, 0
8, 142890, Note_off_c, 5, 42, 0
8, 142890, Note_off_c, 5, 46, 0
8, 142890, Note_on_c, 5, 54, 100
8, 142890, Note_on_c, 5, 58, 100
8, 142890, Note_on_c, 5, 42, 100
8, 142890, Note_on_c, 5, 46, 100
8, 142920, Note_off_c, 5, 54, 0
8, 142920, Note_off_c, 5, 58, 0
8, 142920, Note_off_c, 5, 42, 0
8, 142920, Note_off_c, 5, 46, 0
8, 142920, Note_on_c, 5, 54, 100
8, 142920, Note_on_c, 5, 58, 100
8, 142920, Note_on_c, 5, 42, 100
8, 142920, Note_on_c, 5, 46, 100
8, 142950, Note_off_c, 5, 54, 0
8, 142950, Note_off_c, 5, 58, 0
8, 142950, Note_off_c, 5, 42, 0
8, 142950, Note_off_c, 5, 46, 0
8, 142950, Note_on_c, 5, 54, 100
8, 142950, Note_on_c, 5, 58, 100
8, 142950, Note_on_c, 5, 42, 100
8, 142950, Note_on_c, 5, 46, 100
8, 142980, Note_off_c, 5, 54, 0
8, 142980, Note_off_c, 5, 58, 0
8, 142980, Note_off_c, 5, 42, 0
8, 142980, Note_off_c, 5, 46, 0
8, 142980, Note_on_c, 5, 54, 100
8, 142980, Note_on_c, 5, 58, 100
8, 142980, Note_on_c, 5, 42, 100
8, 142980, Note_on_c, 5, 46, 100
8, 143010, Note_off_c, 5, 54, 0
8, 143010, Note_off_c, 5, 58, 0
8, 143010, Note_off_c, 5, 42, 0
8, 143010, Note_off_c, 5, 46, 0
8, 143010, Note_on_c, 5, 54, 100
8, 143010, Note_on_c, 5, 58, 100
8, 143010, Note_on_c, 5, 42, 100
8, 143010, Note_on_c, 5, 46, 100
8, 143040, Note_off_c, 5, 54, 0
8, 143040, Note_off_c, 5, 58, 0
8, 143040, Note_off_c, 5, 42, 0
8, 143040, Note_off_c, 5, 46, 0
8, 143040, Note_on_c, 5, 54, 100
8, 143040, Note_on_c, 5, 58, 100
8, 143040, Note_on_c, 5, 42, 100
8, 143040, Note_on_c, 5, 46, 100
8, 143070, Note_off_c, 5, 54, 0
8, 143070, Note_off_c, 5, 58, 0
8, 143070, Note_off_c, 5, 42, 0
8, 143070, Note_off_c, 5, 46, 0
8, 143070, Note_on_c, 5, 54, 100
8, 143070, Note_on_c, 5, 58, 100
8, 143070, Note_on_c, 5, 42, 100
8, 143070, Note_on_c, 5, 46, 100
8, 143100, Note_off_c, 5, 54, 0
8, 143100, Note_off_c, 5, 58, 0
8, 143100, Note_off_c, 5, 42, 0
8, 143100, Note_off_c, 5, 46, 0
8, 143100, Note_on_c, 5, 54, 100
8, 143100, Note_on_c, 5, 58, 100
8, 143100, Note_on_c, 5, 42, 100
8, 143100, Note_on_c, 5, 46, 100
8, 143130, Note_off_c, 5, 54, 0
8, 143130, Note_off_c, 5, 58, 0
8, 143130, Note_off_c, 5, 42, 0
8, 143130, Note_off_c, 5, 46, 0
8, 143130, Note_on_c, 5, 54, 100
8, 143130, Note_on_c, 5, 58, 100
8, 143130, Note_on_c, 5, 42, 100
8, 143130, Note_on_c, 5, 46, 100
8, 143160, Note_off_c, 5, 54, 0
8, 143160, Note_off_c, 5, 58, 0
8, 143160, Note_off_c, 5, 42, 0
8, 143160, Note_off_c, 5, 46, 0
8, 143160, Note_on_c, 5, 54, 100
8, 143160, Note_on_c, 5, 58, 100
8, 143160, Note_on_c, 5, 42, 100
8, 143160, Note_on_c, 5, 46, 100
8, 143190, Note_off_c, 5, 54, 0
8, 143190, Note_off_c, 5, 58, 0
8, 143190, Note_off_c, 5, 42, 0
8, 143190, Note_off_c, 5, 46, 0
8, 143190, Note_on_c, 5, 54, 100
8, 143190, Note_on_c, 5, 58, 100
8, 143190, Note_on_c, 5, 42, 100
8, 143190, Note_on_c, 5, 46, 100
8, 143220, Note_off_c, 5, 54, 0
8, 143220, Note_off_c, 5, 58, 0
8, 143220, Note_off_c, 5, 42, 0
8, 143220, Note_off_c, 5, 46, 0
8, 143220, Note_on_c, 5, 54, 100
8, 143220, Note_on_c, 5, 58, 100
8, 143220, Note_on_c, 5, 42, 100
8, 143220, Note_on_c, 5, 46, 100
8, 143250, Note_off_c, 5, 54, 0
8, 143250, Note_off_c, 5, 58, 0
8, 143250, Note_off_c, 5, 42, 0
8, 143250, Note_off_c, 5, 46, 0
8, 143250, Note_on_c, 5, 54, 100
8, 143250, Note_on_c, 5, 58, 100
8, 143250, Note_on_c, 5, 42, 100
8, 143250, Note_on_c, 5, 46, 100
8, 143280, Note_off_c, 5, 54, 0
8, 143280, Note_off_c, 5, 58, 0
8, 143280, Note_off_c, 5, 42, 0
8, 143280, Note_off_c, 5, 46, 0
8, 143280, Note_on_c, 5, 54, 100
8, 143280, Note_on_c, 5, 58, 100
8, 143280, Note_on_c, 5, 42, 100
8, 143280, Note_on_c, 5, 46, 100
8, 143310, Note_off_c, 5, 54, 0
8, 143310, Note_off_c, 5, 58, 0
8, 143310, Note_off_c, 5, 42, 0
8, 143310, Note_off_c, 5, 46, 0
8, 143310, Note_on_c, 5, 54, 100
8, 143310, Note_on_c, 5, 58, 100
8, 143310, Note_on_c, 5, 42, 100
8, 143310, Note_on_c, 5, 46, 100
8, 143340, Note_off_c, 5, 54, 0
8, 143340, Note_off_c, 5, 58, 0
8, 143340, Note_off_c, 5, 42, 0
8, 143340, Note_off_c, 5, 46, 0
8, 143340, Note_on_c, 5, 54, 100
8, 143340, Note_on_c, 5, 58, 100
8, 143340, Note_on_c, 5, 42, 100
8, 143340, Note_on_c, 5, 46, 100
8, 143370, Note_off_c, 5, 54, 0
8, 143370, Note_off_c, 5, 58, 0
8, 143370, Note_off_c, 5, 42, 0
8, 143370, Note_off_c, 5, 46, 0
8, 143370, Note_on_c, 5, 54, 100
8, 143370, Note_on_c, 5, 58, 100
8, 143370, Note_on_c, 5, 42, 100
8, 143370, Note_on_c, 5, 46, 100
8, 143400, Note_off_c, 5, 54, 0
8, 143400, Note_off_c, 5, 58, 0
8, 143400, Note_off_c, 5, 42, 0
8, 143400, Note_off_c, 5, 46, 0
8, 143400, Note_on_c, 5, 54, 100
8, 143400, Note_on_c, 5, 58, 100
8, 143400, Note_on_c, 5, 42, 100
8, 143400, Note_on_c, 5, 46, 100
8, 143430, Note_off_c, 5, 54, 0
8, 143430, Note_off_c, 5, 58, 0
8, 143430, Note_off_c, 5, 42, 0
8, 143430, Note_off_c, 5, 46, 0
8, 143430, Note_on_c, 5, 54, 100
8, 143430, Note_on_c, 5, 58, 100
8, 143430, Note_on_c, 5, 42, 100
8, 143430, Note_on_c, 5, 46, 100
8, 143460, Note_off_c, 5, 54, 0
8, 143460, Note_off_c, 5, 58, 0
8, 143460, Note_off_c, 5, 42, 0
8, 143460, Note_off_c, 5, 46, 0
8, 143460, Note_on_c, 5, 54, 100
8, 143460, Note_on_c, 5, 58, 100
8, 143460, Note_on_c, 5, 42, 100
8, 143460, Note_on_c, 5, 46, 100
8, 143490, Note_off_c, 5, 54, 0
8, 143490, Note_off_c, 5, 58, 0
8, 143490, Note_off_c, 5, 42, 0
8, 143490, Note_off_c, 5, 46, 0
8, 143490, Note_on_c, 5, 54, 100
8, 143490, Note_on_c, 5, 58, 100
8, 143490, Note_on_c, 5, 42, 100
8, 143490, Note_on_c, 5, 46, 100
8, 143520, Note_off_c, 5, 54, 0
8, 143520, Note_off_c, 5, 58, 0
8, 143520, Note_off_c, 5, 42, 0
8, 143520, Note_off_c, 5, 46, 0
8, 143520, Note_on_c, 5, 53, 100
8, 143520, Note_on_c, 5, 57, 100
8, 143520, Note_on_c, 5, 41, 100
8, 143520, Note_on_c, 5, 45, 100
8, 143550, Note_off_c, 5, 53, 0
8, 143550, Note_off_c, 5, 57, 0
8, 143550, Note_off_c, 5, 41, 0
8, 143550, Note_off_c, 5, 45, 0
8, 143550, Note_on_c, 5, 53, 100
8, 143550, Note_on_c, 5, 57, 100
8, 143550, Note_on_c, 5, 41, 100
8, 143550, Note_on_c, 5, 45, 100
8, 143580, Note_off_c, 5, 53, 0
8, 143580, Note_off_c, 5, 57, 0
8, 143580, Note_off_c, 5, 41, 0
8, 143580, Note_off_c, 5, 45, 0
8, 143580, Note_on_c, 5, 53, 100
8, 143580, Note_on_c, 5, 57, 100
8, 143580, Note_on_c, 5, 41, 100
8, 143580, Note_on_c, 5, 45, 100
8, 143610, Note_off_c, 5, 53, 0
8, 143610, Note_off_c, 5, 57, 0
8, 143610, Note_off_c, 5, 41, 0
8, 143610, Note_off_c, 5, 45, 0
8, 143610, Note_on_c, 5, 53, 100
8, 143610, Note_on_c, 5, 57, 100
8, 143610, Note_on_c, 5, 41, 100
8, 143610, Note_on_c, 5, 45, 100
8, 143640, Note_off_c, 5, 53, 0
8, 143640, Note_off_c, 5, 57, 0
8, 143640, Note_off_c, 5, 41, 0
8, 143640, Note_off_c, 5, 45, 0
8, 143640, Note_on_c, 5, 53, 100
8, 143640, Note_on_c, 5, 57, 100
8, 143640, Note_on_c, 5, 41, 100
8, 143640, Note_on_c, 5, 45, 100
8, 143670, Note_off_c, 5, 53, 0
8, 143670, Note_off_c, 5, 57, 0
8, 143670, Note_off_c, 5, 41, 0
8, 143670, Note_off_c, 5, 45, 0
8, 143670, Note_on_c, 5, 53, 100
8, 143670, Note_on_c, 5, 57, 100
8, 143670, Note_on_c, 5, 41, 100
8, 143670, Note_on_c, 5, 45, 100
8, 143700, Note_off_c, 5, 53, 0
8, 143700, Note_off_c, 5, 57, 0
8, 143700, Note_off_c, 5, 41, 0
8, 143700, Note_off_c, 5, 45, 0
8, 143700, Note_on_c, 5, 53, 100
8, 143700, Note_on_c, 5, 57, 100
8, 143700, Note_on_c, 5, 41, 100
8, 143700, Note_on_c, 5, 45, 100
8, 143730, Note_off_c, 5, 53, 0
8, 143730, Note_off_c, 5, 57, 0
8, 143730, Note_off_c, 5, 41, 0
8, 143730, Note_off_c, 5, 45, 0
8, 143730, Note_on_c, 5, 53, 100
8, 143730, Note_on_c, 5, 57, 100
8, 143730, Note_on_c, 5, 41, 100
8, 143730, Note_on_c, 5, 45, 100
8, 143760, Note_off_c, 5, 53, 0
8, 143760, Note_off_c, 5, 57, 0
8, 143760, Note_off_c, 5, 41, 0
8, 143760, Note_off_c, 5, 45, 0
8, 143760, Note_on_c, 5, 53, 100
8, 143760, Note_on_c, 5, 57, 100
8, 143760, Note_on_c, 5, 41, 100
8, 143760, Note_on_c, 5, 45, 100
8, 143790, Note_off_c, 5, 53, 0
8, 143790, Note_off_c, 5, 57, 0
8, 143790, Note_off_c, 5, 41, 0
8, 143790, Note_off_c, 5, 45, 0
8, 143790, Note_on_c, 5, 53, 100
8, 143790, Note_on_c, 5, 57, 100
8, 143790, Note_on_c, 5, 41, 100
8, 143790, Note_on_c, 5, 45, 100
8, 143820, Note_off_c, 5, 53, 0
8, 143820, Note_off_c, 5, 57, 0
8, 143820, Note_off_c, 5, 41, 0
8, 143820, Note_off_c, 5, 45, 0
8, 143820, Note_on_c, 5, 53, 100
8, 143820, Note_on_c, 5, 57, 100
8, 143820, Note_on_c, 5, 41, 100
8, 143820, Note_on_c, 5, 45, 100
8, 143850, Note_off_c, 5, 53, 0
8, 143850, Note_off_c, 5, 57, 0
8, 143850, Note_off_c, 5, 41, 0
8, 143850, Note_off_c, 5, 45, 0
8, 143850, Note_on_c, 5, 53, 100
8, 143850, Note_on_c, 5, 57, 100
8, 143850, Note_on_c, 5, 41, 100
8, 143850, Note_on_c, 5, 45, 100
8, 143880, Note_off_c, 5, 53, 0
8, 143880, Note_off_c, 5, 57, 0
8, 143880, Note_off_c, 5, 41, 0
8, 143880, Note_off_c, 5, 45, 0
8, 143880, Note_on_c, 5, 53, 100
8, 143880, Note_on_c, 5, 57, 100
8, 143880, Note_on_c, 5, 41, 100
8, 143880, Note_on_c, 5, 45, 100
8, 143910, Note_off_c, 5, 53, 0
8, 143910, Note_off_c, 5, 57, 0
8, 143910, Note_off_c, 5, 41, 0
8, 143910, Note_off_c, 5, 45, 0
8, 143910, Note_on_c, 5, 53, 100
8, 143910, Note_on_c, 5, 57, 100
8, 143910, Note_on_c, 5, 41, 100
8, 143910, Note_on_c, 5, 45, 100
8, 143940, Note_off_c, 5, 53, 0
8, 143940, Note_off_c, 5, 57, 0
8, 143940, Note_off_c, 5, 41, 0
8, 143940, Note_off_c, 5, 45, 0
8, 143940, Note_on_c, 5, 53, 100
8, 143940, Note_on_c, 5, 57, 100
8, 143940, Note_on_c, 5, 41, 100
8, 143940, Note_on_c, 5, 45, 100
8, 143970, Note_off_c, 5, 53, 0
8, 143970, Note_off_c, 5, 57, 0
8, 143970, Note_off_c, 5, 41, 0
8, 143970, Note_off_c, 5, 45, 0
8, 143970, Note_on_c, 5, 53, 100
8, 143970, Note_on_c, 5, 57, 100
8, 143970, Note_on_c, 5, 41, 100
8, 143970, Note_on_c, 5, 45, 100
8, 144000, Note_off_c, 5, 53, 0
8, 144000, Note_off_c, 5, 57, 0
8, 144000, Note_off_c, 5, 41, 0
8, 144000, Note_off_c, 5, 45, 0
8, 144000, Note_on_c, 5, 53, 100
8, 144000, Note_on_c, 5, 57, 100
8, 144000, Note_on_c, 5, 41, 100
8, 144000, Note_on_c, 5, 45, 100
8, 144030, Note_off_c, 5, 53, 0
8, 144030, Note_off_c, 5, 57, 0
8, 144030, Note_off_c, 5, 41, 0
8, 144030, Note_off_c, 5, 45, 0
8, 144030, Note_on_c, 5, 53, 100
8, 144030, Note_on_c, 5, 57, 100
8, 144030, Note_on_c, 5, 41, 100
8, 144030, Note_on_c, 5, 45, 100
8, 144060, Note_off_c, 5, 53, 0
8, 144060, Note_off_c, 5, 57, 0
8, 144060, Note_off_c, 5, 41, 0
8, 144060, Note_off_c, 5, 45, 0
8, 144060, Note_on_c, 5, 53, 100
8, 144060, Note_on_c, 5, 57, 100
8, 144060, Note_on_c, 5, 41, 100
8, 144060, Note_on_c, 5, 45, 100
8, 144090, Note_off_c, 5, 53, 0
8, 144090, Note_off_c, 5, 57, 0
8, 144090, Note_off_c, 5, 41, 0
8, 144090, Note_off_c, 5, 45, 0
8, 144090, Note_on_c, 5, 53, 100
8, 144090, Note_on_c, 5, 57, 100
8, 144090, Note_on_c, 5, 41, 100
8, 144090, Note_on_c, 5, 45, 100
8, 144120, Note_off_c, 5, 53, 0
8, 144120, Note_off_c, 5, 57, 0
8, 144120, Note_off_c, 5, 41, 0
8, 144120, Note_off_c, 5, 45, 0
8, 144120, Note_on_c, 5, 53, 100
8, 144120, Note_on_c, 5, 57, 100
8, 144120, Note_on_c, 5, 41, 100
8, 144120, Note_on_c, 5, 45, 100
8, 144150, Note_off_c, 5, 53, 0
8, 144150, Note_off_c, 5, 57, 0
8, 144150, Note_off_c, 5, 41, 0
8, 144150, Note_off_c, 5, 45, 0
8, 144150, Note_on_c, 5, 53, 100
8, 144150, Note_on_c, 5, 57, 100
8, 144150, Note_on_c, 5, 41, 100
8, 144150, Note_on_c, 5, 45, 100
8, 144180, Note_off_c, 5, 53, 0
8, 144180, Note_off_c, 5, 57, 0
8, 144180, Note_off_c, 5, 41, 0
8, 144180, Note_off_c, 5, 45, 0
8, 144180, Note_on_c, 5, 53, 100
8, 144180, Note_on_c, 5, 57, 100
8, 144180, Note_on_c, 5, 41, 100
8, 144180, Note_on_c, 5, 45, 100
8, 144210, Note_off_c, 5, 53, 0
8, 144210, Note_off_c, 5, 57, 0
8, 144210, Note_off_c, 5, 41, 0
8, 144210, Note_off_c, 5, 45, 0
8, 144210, Note_on_c, 5, 53, 100
8, 144210, Note_on_c, 5, 57, 100
8, 144210, Note_on_c, 5, 41, 100
8, 144210, Note_on_c, 5, 45, 100
8, 144240, Note_off_c, 5, 53, 0
8, 144240, Note_off_c, 5, 57, 0
8, 144240, Note_off_c, 5, 41, 0
8, 144240, Note_off_c, 5, 45, 0
8, 144240, Note_on_c, 5, 53, 100
8, 144240, Note_on_c, 5, 57, 100
8, 144240, Note_on_c, 5, 41, 100
8, 144240, Note_on_c, 5, 45, 100
8, 144270, Note_off_c, 5, 53, 0
8, 144270, Note_off_c, 5, 57, 0
8, 144270, Note_off_c, 5, 41, 0
8, 144270, Note_off_c, 5, 45, 0
8, 144270, Note_on_c, 5, 53, 100
8, 144270, Note_on_c, 5, 57, 100
8, 144270, Note_on_c, 5, 41, 100
8, 144270, Note_on_c, 5, 45, 100
8, 144300, Note_off_c, 5, 53, 0
8, 144300, Note_off_c, 5, 57, 0
8, 144300, Note_off_c, 5, 41, 0
8, 144300, Note_off_c, 5, 45, 0
8, 144300, Note_on_c, 5, 53, 100
8, 144300, Note_on_c, 5, 57, 100
8, 144300, Note_on_c, 5, 41, 100
8, 144300, Note_on_c, 5, 45, 100
8, 144330, Note_off_c, 5, 53, 0
8, 144330, Note_off_c, 5, 57, 0
8, 144330, Note_off_c, 5, 41, 0
8, 144330, Note_off_c, 5, 45, 0
8, 144330, Note_on_c, 5, 53, 100
8, 144330, Note_on_c, 5, 57, 100
8, 144330, Note_on_c, 5, 41, 100
8, 144330, Note_on_c, 5, 45, 100
8, 144360, Note_off_c, 5, 53, 0
8, 144360, Note_off_c, 5, 57, 0
8, 144360, Note_off_c, 5, 41, 0
8, 144360, Note_off_c, 5, 45, 0
8, 144360, Note_on_c, 5, 53, 100
8, 144360, Note_on_c, 5, 57, 100
8, 144360, Note_on_c, 5, 41, 100
8, 144360, Note_on_c, 5, 45, 100
8, 144390, Note_off_c, 5, 53, 0
8, 144390, Note_off_c, 5, 57, 0
8, 144390, Note_off_c, 5, 41, 0
8, 144390, Note_off_c, 5, 45, 0
8, 144390, Note_on_c, 5, 53, 100
8, 144390, Note_on_c, 5, 57, 100
8, 144390, Note_on_c, 5, 41, 100
8, 144390, Note_on_c, 5, 45, 100
8, 144420, Note_off_c, 5, 53, 0
8, 144420, Note_off_c, 5, 57, 0
8, 144420, Note_off_c, 5, 41, 0
8, 144420, Note_off_c, 5, 45, 0
8, 144420, Note_on_c, 5, 53, 100
8, 144420, Note_on_c, 5, 57, 100
8, 144420, Note_on_c, 5, 41, 100
8, 144420, Note_on_c, 5, 45, 100
8, 144450, Note_off_c, 5, 53, 0
8, 144450, Note_off_c, 5, 57, 0
8, 144450, Note_off_c, 5, 41, 0
8, 144450, Note_off_c, 5, 45, 0
8, 144450, Note_on_c, 5, 53, 100
8, 144450, Note_on_c, 5, 57, 100
8, 144450, Note_on_c, 5, 41, 100
8, 144450, Note_on_c, 5, 45, 100
8, 144480, Note_off_c, 5, 53, 0
8, 144480, Note_off_c, 5, 57, 0
8, 144480, Note_off_c, 5, 41, 0
8, 144480, Note_off_c, 5, 45, 0
8, 144480, Note_on_c, 5, 53, 100
8, 144480, Note_on_c, 5, 57, 100
8, 144480, Note_on_c, 5, 41, 100
8, 144480, Note_on_c, 5, 45, 100
8, 144510, Note_off_c, 5, 53, 0
8, 144510, Note_off_c, 5, 57, 0
8, 144510, Note_off_c, 5, 41, 0
8, 144510, Note_off_c, 5, 45, 0
8, 144510, Note_on_c, 5, 53, 100
8, 144510, Note_on_c, 5, 57, 100
8, 144510, Note_on_c, 5, 41, 100
8, 144510, Note_on_c, 5, 45, 100
8, 144540, Note_off_c, 5, 53, 0
8, 144540, Note_off_c, 5, 57, 0
8, 144540, Note_off_c, 5, 41, 0
8, 144540, Note_off_c, 5, 45, 0
8, 144540, Note_on_c, 5, 53, 100
8, 144540, Note_on_c, 5, 57, 100
8, 144540, Note_on_c, 5, 41, 100
8, 144540, Note_on_c, 5, 45, 100
8, 144570, Note_off_c, 5, 53, 0
8, 144570, Note_off_c, 5, 57, 0
8, 144570, Note_off_c, 5, 41, 0
8, 144570, Note_off_c, 5, 45, 0
8, 144570, Note_on_c, 5, 53, 100
8, 144570, Note_on_c, 5, 57, 100
8, 144570, Note_on_c, 5, 41, 100
8, 144570, Note_on_c, 5, 45, 100
8, 144600, Note_off_c, 5, 53, 0
8, 144600, Note_off_c, 5, 57, 0
8, 144600, Note_off_c, 5, 41, 0
8, 144600, Note_off_c, 5, 45, 0
8, 144600, Note_on_c, 5, 53, 100
8, 144600, Note_on_c, 5, 57, 100
8, 144600, Note_on_c, 5, 41, 100
8, 144600, Note_on_c, 5, 45, 100
8, 144630, Note_off_c, 5, 53, 0
8, 144630, Note_off_c, 5, 57, 0
8, 144630, Note_off_c, 5, 41, 0
8, 144630, Note_off_c, 5, 45, 0
8, 144630, Note_on_c, 5, 53, 100
8, 144630, Note_on_c, 5, 57, 100
8, 144630, Note_on_c, 5, 41, 100
8, 144630, Note_on_c, 5, 45, 100
8, 144660, Note_off_c, 5, 53, 0
8, 144660, Note_off_c, 5, 57, 0
8, 144660, Note_off_c, 5, 41, 0
8, 144660, Note_off_c, 5, 45, 0
8, 144660, Note_on_c, 5, 53, 100
8, 144660, Note_on_c, 5, 57, 100
8, 144660, Note_on_c, 5, 41, 100
8, 144660, Note_on_c, 5, 45, 100
8, 144690, Note_off_c, 5, 53, 0
8, 144690, Note_off_c, 5, 57, 0
8, 144690, Note_off_c, 5, 41, 0
8, 144690, Note_off_c, 5, 45, 0
8, 144690, Note_on_c, 5, 53, 100
8, 144690, Note_on_c, 5, 57, 100
8, 144690, Note_on_c, 5, 41, 100
8, 144690, Note_on_c, 5, 45, 100
8, 144720, Note_off_c, 5, 53, 0
8, 144720, Note_off_c, 5, 57, 0
8, 144720, Note_off_c, 5, 41, 0
8, 144720, Note_off_c, 5, 45, 0
8, 144720, Note_on_c, 5, 53, 100
8, 144720, Note_on_c, 5, 57, 100
8, 144720, Note_on_c, 5, 41, 100
8, 144720, Note_on_c, 5, 45, 100
8, 144750, Note_off_c, 5, 53, 0
8, 144750, Note_off_c, 5, 57, 0
8, 144750, Note_off_c, 5, 41, 0
8, 144750, Note_off_c, 5, 45, 0
8, 144750, Note_on_c, 5, 53, 100
8, 144750, Note_on_c, 5, 57, 100
8, 144750, Note_on_c, 5, 41, 100
8, 144750, Note_on_c, 5, 45, 100
8, 144780, Note_off_c, 5, 53, 0
8, 144780, Note_off_c, 5, 57, 0
8, 144780, Note_off_c, 5, 41, 0
8, 144780, Note_off_c, 5, 45, 0
8, 144780, Note_on_c, 5, 53, 100
8, 144780, Note_on_c, 5, 57, 100
8, 144780, Note_on_c, 5, 41, 100
8, 144780, Note_on_c, 5, 45, 100
8, 144810, Note_off_c, 5, 53, 0
8, 144810, Note_off_c, 5, 57, 0
8, 144810, Note_off_c, 5, 41, 0
8, 144810, Note_off_c, 5, 45, 0
8, 144810, Note_on_c, 5, 53, 100
8, 144810, Note_on_c, 5, 57, 100
8, 144810, Note_on_c, 5, 41, 100
8, 144810, Note_on_c, 5, 45, 100
8, 144840, Note_off_c, 5, 53, 0
8, 144840, Note_off_c, 5, 57, 0
8, 144840, Note_off_c, 5, 41, 0
8, 144840, Note_off_c, 5, 45, 0
8, 144840, Note_on_c, 5, 53, 100
8, 144840, Note_on_c, 5, 57, 100
8, 144840, Note_on_c, 5, 41, 100
8, 144840, Note_on_c, 5, 45, 100
8, 144870, Note_off_c, 5, 53, 0
8, 144870, Note_off_c, 5, 57, 0
8, 144870, Note_off_c, 5, 41, 0
8, 144870, Note_off_c, 5, 45, 0
8, 144870, Note_on_c, 5, 53, 100
8, 144870, Note_on_c, 5, 57, 100
8, 144870, Note_on_c, 5, 41, 100
8, 144870, Note_on_c, 5, 45, 100
8, 144900, Note_off_c, 5, 53, 0
8, 144900, Note_off_c, 5, 57, 0
8, 144900, Note_off_c, 5, 41, 0
8, 144900, Note_off_c, 5, 45, 0
8, 144900, Note_on_c, 5, 53, 100
8, 144900, Note_on_c, 5, 57, 100
8, 144900, Note_on_c, 5, 41, 100
8, 144900, Note_on_c, 5, 45, 100
8, 144930, Note_off_c, 5, 53, 0
8, 144930, Note_off_c, 5, 57, 0
8, 144930, Note_off_c, 5, 41, 0
8, 144930, Note_off_c, 5, 45, 0
8, 144930, Note_on_c, 5, 53, 100
8, 144930, Note_on_c, 5, 57, 100
8, 144930, Note_on_c, 5, 41, 100
8, 144930, Note_on_c, 5, 45, 100
8, 144960, Note_off_c, 5, 53, 0
8, 144960, Note_off_c, 5, 57, 0
8, 144960, Note_off_c, 5, 41, 0
8, 144960, Note_off_c, 5, 45, 0
8, 144960, Note_on_c, 5, 53, 100
8, 144960, Note_on_c, 5, 57, 100
8, 144960, Note_on_c, 5, 41, 100
8, 144960, Note_on_c, 5, 45, 100
8, 144990, Note_off_c, 5, 53, 0
8, 144990, Note_off_c, 5, 57, 0
8, 144990, Note_off_c, 5, 41, 0
8, 144990, Note_off_c, 5, 45, 0
8, 144990, Note_on_c, 5, 53, 100
8, 144990, Note_on_c, 5, 57, 100
8, 144990, Note_on_c, 5, 41, 100
8, 144990, Note_on_c, 5, 45, 100
8, 145020, Note_off_c, 5, 53, 0
8, 145020, Note_off_c, 5, 57, 0
8, 145020, Note_off_c, 5, 41, 0
8, 145020, Note_off_c, 5, 45, 0
8, 145020, Note_on_c, 5, 53, 100
8, 145020, Note_on_c, 5, 57, 100
8, 145020, Note_on_c, 5, 41, 100
8, 145020, Note_on_c, 5, 45, 100
8, 145050, Note_off_c, 5, 53, 0
8, 145050, Note_off_c, 5, 57, 0
8, 145050, Note_off_c, 5, 41, 0
8, 145050, Note_off_c, 5, 45, 0
8, 145050, Note_on_c, 5, 53, 100
8, 145050, Note_on_c, 5, 57, 100
8, 145050, Note_on_c, 5, 41, 100
8, 145050, Note_on_c, 5, 45, 100
8, 145080, Note_off_c, 5, 53, 0
8, 145080, Note_off_c, 5, 57, 0
8, 145080, Note_off_c, 5, 41, 0
8, 145080, Note_off_c, 5, 45, 0
8, 145080, Note_on_c, 5, 53, 100
8, 145080, Note_on_c, 5, 57, 100
8, 145080, Note_on_c, 5, 41, 100
8, 145080, Note_on_c, 5, 45, 100
8, 145110, Note_off_c, 5, 53, 0
8, 145110, Note_off_c, 5, 57, 0
8, 145110, Note_off_c, 5, 41, 0
8, 145110, Note_off_c, 5, 45, 0
8, 145110, Note_on_c, 5, 53, 100
8, 145110, Note_on_c, 5, 57, 100
8, 145110, Note_on_c, 5, 41, 100
8, 145110, Note_on_c, 5, 45, 100
8, 145140, Note_off_c, 5, 53, 0
8, 145140, Note_off_c, 5, 57, 0
8, 145140, Note_off_c, 5, 41, 0
8, 145140, Note_off_c, 5, 45, 0
8, 145140, Note_on_c, 5, 53, 100
8, 145140, Note_on_c, 5, 57, 100
8, 145140, Note_on_c, 5, 41, 100
8, 145140, Note_on_c, 5, 45, 100
8, 145170, Note_off_c, 5, 53, 0
8, 145170, Note_off_c, 5, 57, 0
8, 145170, Note_off_c, 5, 41, 0
8, 145170, Note_off_c, 5, 45, 0
8, 145170, Note_on_c, 5, 53, 100
8, 145170, Note_on_c, 5, 57, 100
8, 145170, Note_on_c, 5, 41, 100
8, 145170, Note_on_c, 5, 45, 100
8, 145200, Note_off_c, 5, 53, 0
8, 145200, Note_off_c, 5, 57, 0
8, 145200, Note_off_c, 5, 41, 0
8, 145200, Note_off_c, 5, 45, 0
8, 145200, Note_on_c, 5, 53, 100
8, 145200, Note_on_c, 5, 57, 100
8, 145200, Note_on_c, 5, 41, 100
8, 145200, Note_on_c, 5, 45, 100
8, 145230, Note_off_c, 5, 53, 0
8, 145230, Note_off_c, 5, 57, 0
8, 145230, Note_off_c, 5, 41, 0
8, 145230, Note_off_c, 5, 45, 0
8, 145230, Note_on_c, 5, 53, 100
8, 145230, Note_on_c, 5, 57, 100
8, 145230, Note_on_c, 5, 41, 100
8, 145230, Note_on_c, 5, 45, 100
8, 145260, Note_off_c, 5, 53, 0
8, 145260, Note_off_c, 5, 57, 0
8, 145260, Note_off_c, 5, 41, 0
8, 145260, Note_off_c, 5, 45, 0
8, 145260, Note_on_c, 5, 53, 100
8, 145260, Note_on_c, 5, 57, 100
8, 145260, Note_on_c, 5, 41, 100
8, 145260, Note_on_c, 5, 45, 100
8, 145290, Note_off_c, 5, 53, 0
8, 145290, Note_off_c, 5, 57, 0
8, 145290, Note_off_c, 5, 41, 0
8, 145290, Note_off_c, 5, 45, 0
8, 145290, Note_on_c, 5, 53, 100
8, 145290, Note_on_c, 5, 57, 100
8, 145290, Note_on_c, 5, 41, 100
8, 145290, Note_on_c, 5, 45, 100
8, 145320, Note_off_c, 5, 53, 0
8, 145320, Note_off_c, 5, 57, 0
8, 145320, Note_off_c, 5, 41, 0
8, 145320, Note_off_c, 5, 45, 0
8, 145320, Note_on_c, 5, 53, 100
8, 145320, Note_on_c, 5, 57, 100
8, 145320, Note_on_c, 5, 41, 100
8, 145320, Note_on_c, 5, 45, 100
8, 145350, Note_off_c, 5, 53, 0
8, 145350, Note_off_c, 5, 57, 0
8, 145350, Note_off_c, 5, 41, 0
8, 145350, Note_off_c, 5, 45, 0
8, 145350, Note_on_c, 5, 53, 100
8, 145350, Note_on_c, 5, 57, 100
8, 145350, Note_on_c, 5, 41, 100
8, 145350, Note_on_c, 5, 45, 100
8, 145380, Note_off_c, 5, 53, 0
8, 145380, Note_off_c, 5, 57, 0
8, 145380, Note_off_c, 5, 41, 0
8, 145380, Note_off_c, 5, 45, 0
8, 145380, Note_on_c, 5, 53, 100
8, 145380, Note_on_c, 5, 57, 100
8, 145380, Note_on_c, 5, 41, 100
8, 145380, Note_on_c, 5, 45, 100
8, 145410, Note_off_c, 5, 53, 0
8, 145410, Note_off_c, 5, 57, 0
8, 145410, Note_off_c, 5, 41, 0
8, 145410, Note_off_c, 5, 45, 0
8, 145410, Note_on_c, 5, 53, 100
8, 145410, Note_on_c, 5, 57, 100
8, 145410, Note_on_c, 5, 41, 100
8, 145410, Note_on_c, 5, 45, 100
8, 145440, Note_off_c, 5, 53, 0
8, 145440, Note_off_c, 5, 57, 0
8, 145440, Note_off_c, 5, 41, 0
8, 145440, Note_off_c, 5, 45, 0
8, 145440, Note_on_c, 5, 53, 100
8, 145440, Note_on_c, 5, 58, 100
8, 145440, Note_on_c, 5, 41, 100
8, 145440, Note_on_c, 5, 46, 100
8, 145470, Note_off_c, 5, 53, 0
8, 145470, Note_off_c, 5, 58, 0
8, 145470, Note_off_c, 5, 41, 0
8, 145470, Note_off_c, 5, 46, 0
8, 145470, Note_on_c, 5, 53, 100
8, 145470, Note_on_c, 5, 58, 100
8, 145470, Note_on_c, 5, 41, 100
8, 145470, Note_on_c, 5, 46, 100
8, 145500, Note_off_c, 5, 53, 0
8, 145500, Note_off_c, 5, 58, 0
8, 145500, Note_off_c, 5, 41, 0
8, 145500, Note_off_c, 5, 46, 0
8, 145500, Note_on_c, 5, 53, 100
8, 145500, Note_on_c, 5, 58, 100
8, 145500, Note_on_c, 5, 41, 100
8, 145500, Note_on_c, 5, 46, 100
8, 145530, Note_off_c, 5, 53, 0
8, 145530, Note_off_c, 5, 58, 0
8, 145530, Note_off_c, 5, 41, 0
8, 145530, Note_off_c, 5, 46, 0
8, 145530, Note_on_c, 5, 53, 100
8, 145530, Note_on_c, 5, 58, 100
8, 145530, Note_on_c, 5, 41, 100
8, 145530, Note_on_c, 5, 46, 100
8, 145560, Note_off_c, 5, 53, 0
8, 145560, Note_off_c, 5, 58, 0
8, 145560, Note_off_c, 5, 41, 0
8, 145560, Note_off_c, 5, 46, 0
8, 145560, Note_on_c, 5, 53, 100
8, 145560, Note_on_c, 5, 58, 100
8, 145560, Note_on_c, 5, 41, 100
8, 145560, Note_on_c, 5, 46, 100
8, 145590, Note_off_c, 5, 53, 0
8, 145590, Note_off_c, 5, 58, 0
8, 145590, Note_off_c, 5, 41, 0
8, 145590, Note_off_c, 5, 46, 0
8, 145590, Note_on_c, 5, 53, 100
8, 145590, Note_on_c, 5, 58, 100
8, 145590, Note_on_c, 5, 41, 100
8, 145590, Note_on_c, 5, 46, 100
8, 145620, Note_off_c, 5, 53, 0
8, 145620, Note_off_c, 5, 58, 0
8, 145620, Note_off_c, 5, 41, 0
8, 145620, Note_off_c, 5, 46, 0
8, 145620, Note_on_c, 5, 53, 100
8, 145620, Note_on_c, 5, 58, 100
8, 145620, Note_on_c, 5, 41, 100
8, 145620, Note_on_c, 5, 46, 100
8, 145650, Note_off_c, 5, 53, 0
8, 145650, Note_off_c, 5, 58, 0
8, 145650, Note_off_c, 5, 41, 0
8, 145650, Note_off_c, 5, 46, 0
8, 145650, Note_on_c, 5, 53, 100
8, 145650, Note_on_c, 5, 58, 100
8, 145650, Note_on_c, 5, 41, 100
8, 145650, Note_on_c, 5, 46, 100
8, 145680, Note_off_c, 5, 53, 0
8, 145680, Note_off_c, 5, 58, 0
8, 145680, Note_off_c, 5, 41, 0
8, 145680, Note_off_c, 5, 46, 0
8, 145680, Note_on_c, 5, 53, 100
8, 145680, Note_on_c, 5, 58, 100
8, 145680, Note_on_c, 5, 41, 100
8, 145680, Note_on_c, 5, 46, 100
8, 145710, Note_off_c, 5, 53, 0
8, 145710, Note_off_c, 5, 58, 0
8, 145710, Note_off_c, 5, 41, 0
8, 145710, Note_off_c, 5, 46, 0
8, 145710, Note_on_c, 5, 53, 100
8, 145710, Note_on_c, 5, 58, 100
8, 145710, Note_on_c, 5, 41, 100
8, 145710, Note_on_c, 5, 46, 100
8, 145740, Note_off_c, 5, 53, 0
8, 145740, Note_off_c, 5, 58, 0
8, 145740, Note_off_c, 5, 41, 0
8, 145740, Note_off_c, 5, 46, 0
8, 145740, Note_on_c, 5, 53, 100
8, 145740, Note_on_c, 5, 58, 100
8, 145740, Note_on_c, 5, 41, 100
8, 145740, Note_on_c, 5, 46, 100
8, 145770, Note_off_c, 5, 53, 0
8, 145770, Note_off_c, 5, 58, 0
8, 145770, Note_off_c, 5, 41, 0
8, 145770, Note_off_c, 5, 46, 0
8, 145770, Note_on_c, 5, 53, 100
8, 145770, Note_on_c, 5, 58, 100
8, 145770, Note_on_c, 5, 41, 100
8, 145770, Note_on_c, 5, 46, 100
8, 145800, Note_off_c, 5, 53, 0
8, 145800, Note_off_c, 5, 58, 0
8, 145800, Note_off_c, 5, 41, 0
8, 145800, Note_off_c, 5, 46, 0
8, 145800, Note_on_c, 5, 53, 100
8, 145800, Note_on_c, 5, 58, 100
8, 145800, Note_on_c, 5, 41, 100
8, 145800, Note_on_c, 5, 46, 100
8, 145830, Note_off_c, 5, 53, 0
8, 145830, Note_off_c, 5, 58, 0
8, 145830, Note_off_c, 5, 41, 0
8, 145830, Note_off_c, 5, 46, 0
8, 145830, Note_on_c, 5, 53, 100
8, 145830, Note_on_c, 5, 58, 100
8, 145830, Note_on_c, 5, 41, 100
8, 145830, Note_on_c, 5, 46, 100
8, 145860, Note_off_c, 5, 53, 0
8, 145860, Note_off_c, 5, 58, 0
8, 145860, Note_off_c, 5, 41, 0
8, 145860, Note_off_c, 5, 46, 0
8, 145860, Note_on_c, 5, 53, 100
8, 145860, Note_on_c, 5, 58, 100
8, 145860, Note_on_c, 5, 41, 100
8, 145860, Note_on_c, 5, 46, 100
8, 145890, Note_off_c, 5, 53, 0
8, 145890, Note_off_c, 5, 58, 0
8, 145890, Note_off_c, 5, 41, 0
8, 145890, Note_off_c, 5, 46, 0
8, 145890, Note_on_c, 5, 53, 100
8, 145890, Note_on_c, 5, 58, 100
8, 145890, Note_on_c, 5, 41, 100
8, 145890, Note_on_c, 5, 46, 100
8, 145920, Note_off_c, 5, 53, 0
8, 145920, Note_off_c, 5, 58, 0
8, 145920, Note_off_c, 5, 41, 0
8, 145920, Note_off_c, 5, 46, 0
8, 145920, Note_on_c, 5, 53, 100
8, 145920, Note_on_c, 5, 58, 100
8, 145920, Note_on_c, 5, 41, 100
8, 145920, Note_on_c, 5, 46, 100
8, 145950, Note_off_c, 5, 53, 0
8, 145950, Note_off_c, 5, 58, 0
8, 145950, Note_off_c, 5, 41, 0
8, 145950, Note_off_c, 5, 46, 0
8, 145950, Note_on_c, 5, 53, 100
8, 145950, Note_on_c, 5, 58, 100
8, 145950, Note_on_c, 5, 41, 100
8, 145950, Note_on_c, 5, 46, 100
8, 145980, Note_off_c, 5, 53, 0
8, 145980, Note_off_c, 5, 58, 0
8, 145980, Note_off_c, 5, 41, 0
8, 145980, Note_off_c, 5, 46, 0
8, 145980, Note_on_c, 5, 53, 100
8, 145980, Note_on_c, 5, 58, 100
8, 145980, Note_on_c, 5, 41, 100
8, 145980, Note_on_c, 5, 46, 100
8, 146010, Note_off_c, 5, 53, 0
8, 146010, Note_off_c, 5, 58, 0
8, 146010, Note_off_c, 5, 41, 0
8, 146010, Note_off_c, 5, 46, 0
8, 146010, Note_on_c, 5, 53, 100
8, 146010, Note_on_c, 5, 58, 100
8, 146010, Note_on_c, 5, 41, 100
8, 146010, Note_on_c, 5, 46, 100
8, 146040, Note_off_c, 5, 53, 0
8, 146040, Note_off_c, 5, 58, 0
8, 146040, Note_off_c, 5, 41, 0
8, 146040, Note_off_c, 5, 46, 0
8, 146040, Note_on_c, 5, 53, 100
8, 146040, Note_on_c, 5, 58, 100
8, 146040, Note_on_c, 5, 41, 100
8, 146040, Note_on_c, 5, 46, 100
8, 146070, Note_off_c, 5, 53, 0
8, 146070, Note_off_c, 5, 58, 0
8, 146070, Note_off_c, 5, 41, 0
8, 146070, Note_off_c, 5, 46, 0
8, 146070, Note_on_c, 5, 53, 100
8, 146070, Note_on_c, 5, 58, 100
8, 146070, Note_on_c, 5, 41, 100
8, 146070, Note_on_c, 5, 46, 100
8, 146100, Note_off_c, 5, 53, 0
8, 146100, Note_off_c, 5, 58, 0
8, 146100, Note_off_c, 5, 41, 0
8, 146100, Note_off_c, 5, 46, 0
8, 146100, Note_on_c, 5, 53, 100
8, 146100, Note_on_c, 5, 58, 100
8, 146100, Note_on_c, 5, 41, 100
8, 146100, Note_on_c, 5, 46, 100
8, 146130, Note_off_c, 5, 53, 0
8, 146130, Note_off_c, 5, 58, 0
8, 146130, Note_off_c, 5, 41, 0
8, 146130, Note_off_c, 5, 46, 0
8, 146130, Note_on_c, 5, 53, 100
8, 146130, Note_on_c, 5, 58, 100
8, 146130, Note_on_c, 5, 41, 100
8, 146130, Note_on_c, 5, 46, 100
8, 146160, Note_off_c, 5, 53, 0
8, 146160, Note_off_c, 5, 58, 0
8, 146160, Note_off_c, 5, 41, 0
8, 146160, Note_off_c, 5, 46, 0
8, 146160, Note_on_c, 5, 53, 100
8, 146160, Note_on_c, 5, 58, 100
8, 146160, Note_on_c, 5, 41, 100
8, 146160, Note_on_c, 5, 46, 100
8, 146190, Note_off_c, 5, 53, 0
8, 146190, Note_off_c, 5, 58, 0
8, 146190, Note_off_c, 5, 41, 0
8, 146190, Note_off_c, 5, 46, 0
8, 146190, Note_on_c, 5, 53, 100
8, 146190, Note_on_c, 5, 58, 100
8, 146190, Note_on_c, 5, 41, 100
8, 146190, Note_on_c, 5, 46, 100
8, 146220, Note_off_c, 5, 53, 0
8, 146220, Note_off_c, 5, 58, 0
8, 146220, Note_off_c, 5, 41, 0
8, 146220, Note_off_c, 5, 46, 0
8, 146220, Note_on_c, 5, 53, 100
8, 146220, Note_on_c, 5, 58, 100
8, 146220, Note_on_c, 5, 41, 100
8, 146220, Note_on_c, 5, 46, 100
8, 146250, Note_off_c, 5, 53, 0
8, 146250, Note_off_c, 5, 58, 0
8, 146250, Note_off_c, 5, 41, 0
8, 146250, Note_off_c, 5, 46, 0
8, 146250, Note_on_c, 5, 53, 100
8, 146250, Note_on_c, 5, 58, 100
8, 146250, Note_on_c, 5, 41, 100
8, 146250, Note_on_c, 5, 46, 100
8, 146280, Note_off_c, 5, 53, 0
8, 146280, Note_off_c, 5, 58, 0
8, 146280, Note_off_c, 5, 41, 0
8, 146280, Note_off_c, 5, 46, 0
8, 146280, Note_on_c, 5, 53, 100
8, 146280, Note_on_c, 5, 58, 100
8, 146280, Note_on_c, 5, 41, 100
8, 146280, Note_on_c, 5, 46, 100
8, 146310, Note_off_c, 5, 53, 0
8, 146310, Note_off_c, 5, 58, 0
8, 146310, Note_off_c, 5, 41, 0
8, 146310, Note_off_c, 5, 46, 0
8, 146310, Note_on_c, 5, 53, 100
8, 146310, Note_on_c, 5, 58, 100
8, 146310, Note_on_c, 5, 41, 100
8, 146310, Note_on_c, 5, 46, 100
8, 146340, Note_off_c, 5, 53, 0
8, 146340, Note_off_c, 5, 58, 0
8, 146340, Note_off_c, 5, 41, 0
8, 146340, Note_off_c, 5, 46, 0
8, 146340, Note_on_c, 5, 53, 100
8, 146340, Note_on_c, 5, 58, 100
8, 146340, Note_on_c, 5, 41, 100
8, 146340, Note_on_c, 5, 46, 100
8, 146370, Note_off_c, 5, 53, 0
8, 146370, Note_off_c, 5, 58, 0
8, 146370, Note_off_c, 5, 41, 0
8, 146370, Note_off_c, 5, 46, 0
8, 146370, Note_on_c, 5, 53, 100
8, 146370, Note_on_c, 5, 58, 100
8, 146370, Note_on_c, 5, 41, 100
8, 146370, Note_on_c, 5, 46, 100
8, 146400, Note_off_c, 5, 53, 0
8, 146400, Note_off_c, 5, 58, 0
8, 146400, Note_off_c, 5, 41, 0
8, 146400, Note_off_c, 5, 46, 0
8, 146400, Note_on_c, 5, 53, 100
8, 146400, Note_on_c, 5, 58, 100
8, 146400, Note_on_c, 5, 41, 100
8, 146400, Note_on_c, 5, 46, 100
8, 146430, Note_off_c, 5, 53, 0
8, 146430, Note_off_c, 5, 58, 0
8, 146430, Note_off_c, 5, 41, 0
8, 146430, Note_off_c, 5, 46, 0
8, 146430, Note_on_c, 5, 53, 100
8, 146430, Note_on_c, 5, 58, 100
8, 146430, Note_on_c, 5, 41, 100
8, 146430, Note_on_c, 5, 46, 100
8, 146460, Note_off_c, 5, 53, 0
8, 146460, Note_off_c, 5, 58, 0
8, 146460, Note_off_c, 5, 41, 0
8, 146460, Note_off_c, 5, 46, 0
8, 146460, Note_on_c, 5, 53, 100
8, 146460, Note_on_c, 5, 58, 100
8, 146460, Note_on_c, 5, 41, 100
8, 146460, Note_on_c, 5, 46, 100
8, 146490, Note_off_c, 5, 53, 0
8, 146490, Note_off_c, 5, 58, 0
8, 146490, Note_off_c, 5, 41, 0
8, 146490, Note_off_c, 5, 46, 0
8, 146490, Note_on_c, 5, 53, 100
8, 146490, Note_on_c, 5, 58, 100
8, 146490, Note_on_c, 5, 41, 100
8, 146490, Note_on_c, 5, 46, 100
8, 146520, Note_off_c, 5, 53, 0
8, 146520, Note_off_c, 5, 58, 0
8, 146520, Note_off_c, 5, 41, 0
8, 146520, Note_off_c, 5, 46, 0
8, 146520, Note_on_c, 5, 53, 100
8, 146520, Note_on_c, 5, 58, 100
8, 146520, Note_on_c, 5, 41, 100
8, 146520, Note_on_c, 5, 46, 100
8, 146550, Note_off_c, 5, 53, 0
8, 146550, Note_off_c, 5, 58, 0
8, 146550, Note_off_c, 5, 41, 0
8, 146550, Note_off_c, 5, 46, 0
8, 146550, Note_on_c, 5, 53, 100
8, 146550, Note_on_c, 5, 58, 100
8, 146550, Note_on_c, 5, 41, 100
8, 146550, Note_on_c, 5, 46, 100
8, 146580, Note_off_c, 5, 53, 0
8, 146580, Note_off_c, 5, 58, 0
8, 146580, Note_off_c, 5, 41, 0
8, 146580, Note_off_c, 5, 46, 0
8, 146580, Note_on_c, 5, 53, 100
8, 146580, Note_on_c, 5, 58, 100
8, 146580, Note_on_c, 5, 41, 100
8, 146580, Note_on_c, 5, 46, 100
8, 146610, Note_off_c, 5, 53, 0
8, 146610, Note_off_c, 5, 58, 0
8, 146610, Note_off_c, 5, 41, 0
8, 146610, Note_off_c, 5, 46, 0
8, 146610, Note_on_c, 5, 53, 100
8, 146610, Note_on_c, 5, 58, 100
8, 146610, Note_on_c, 5, 41, 100
8, 146610, Note_on_c, 5, 46, 100
8, 146640, Note_off_c, 5, 53, 0
8, 146640, Note_off_c, 5, 58, 0
8, 146640, Note_off_c, 5, 41, 0
8, 146640, Note_off_c, 5, 46, 0
8, 146640, Note_on_c, 5, 53, 100
8, 146640, Note_on_c, 5, 58, 100
8, 146640, Note_on_c, 5, 41, 100
8, 146640, Note_on_c, 5, 46, 100
8, 146670, Note_off_c, 5, 53, 0
8, 146670, Note_off_c, 5, 58, 0
8, 146670, Note_off_c, 5, 41, 0
8, 146670, Note_off_c, 5, 46, 0
8, 146670, Note_on_c, 5, 53, 100
8, 146670, Note_on_c, 5, 58, 100
8, 146670, Note_on_c, 5, 41, 100
8, 146670, Note_on_c, 5, 46, 100
8, 146700, Note_off_c, 5, 53, 0
8, 146700, Note_off_c, 5, 58, 0
8, 146700, Note_off_c, 5, 41, 0
8, 146700, Note_off_c, 5, 46, 0
8, 146700, Note_on_c, 5, 53, 100
8, 146700, Note_on_c, 5, 58, 100
8, 146700, Note_on_c, 5, 41, 100
8, 146700, Note_on_c, 5, 46, 100
8, 146730, Note_off_c, 5, 53, 0
8, 146730, Note_off_c, 5, 58, 0
8, 146730, Note_off_c, 5, 41, 0
8, 146730, Note_off_c, 5, 46, 0
8, 146730, Note_on_c, 5, 53, 100
8, 146730, Note_on_c, 5, 58, 100
8, 146730, Note_on_c, 5, 41, 100
8, 146730, Note_on_c, 5, 46, 100
8, 146760, Note_off_c, 5, 53, 0
8, 146760, Note_off_c, 5, 58, 0
8, 146760, Note_off_c, 5, 41, 0
8, 146760, Note_off_c, 5, 46, 0
8, 146760, Note_on_c, 5, 53, 100
8, 146760, Note_on_c, 5, 58, 100
8, 146760, Note_on_c, 5, 41, 100
8, 146760, Note_on_c, 5, 46, 100
8, 146790, Note_off_c, 5, 53, 0
8, 146790, Note_off_c, 5, 58, 0
8, 146790, Note_off_c, 5, 41, 0
8, 146790, Note_off_c, 5, 46, 0
8, 146790, Note_on_c, 5, 53, 100
8, 146790, Note_on_c, 5, 58, 100
8, 146790, Note_on_c, 5, 41, 100
8, 146790, Note_on_c, 5, 46, 100
8, 146820, Note_off_c, 5, 53, 0
8, 146820, Note_off_c, 5, 58, 0
8, 146820, Note_off_c, 5, 41, 0
8, 146820, Note_off_c, 5, 46, 0
8, 146820, Note_on_c, 5, 53, 100
8, 146820, Note_on_c, 5, 58, 100
8, 146820, Note_on_c, 5, 41, 100
8, 146820, Note_on_c, 5, 46, 100
8, 146850, Note_off_c, 5, 53, 0
8, 146850, Note_off_c, 5, 58, 0
8, 146850, Note_off_c, 5, 41, 0
8, 146850, Note_off_c, 5, 46, 0
8, 146850, Note_on_c, 5, 53, 100
8, 146850, Note_on_c, 5, 58, 100
8, 146850, Note_on_c, 5, 41, 100
8, 146850, Note_on_c, 5, 46, 100
8, 146880, Note_off_c, 5, 53, 0
8, 146880, Note_off_c, 5, 58, 0
8, 146880, Note_off_c, 5, 41, 0
8, 146880, Note_off_c, 5, 46, 0
8, 146880, Note_on_c, 5, 53, 100
8, 146880, Note_on_c, 5, 58, 100
8, 146880, Note_on_c, 5, 41, 100
8, 146880, Note_on_c, 5, 46, 100
8, 146910, Note_off_c, 5, 53, 0
8, 146910, Note_off_c, 5, 58, 0
8, 146910, Note_off_c, 5, 41, 0
8, 146910, Note_off_c, 5, 46, 0
8, 146910, Note_on_c, 5, 53, 100
8, 146910, Note_on_c, 5, 58, 100
8, 146910, Note_on_c, 5, 41, 100
8, 146910, Note_on_c, 5, 46, 100
8, 146940, Note_off_c, 5, 53, 0
8, 146940, Note_off_c, 5, 58, 0
8, 146940, Note_off_c, 5, 41, 0
8, 146940, Note_off_c, 5, 46, 0
8, 146940, Note_on_c, 5, 53, 100
8, 146940, Note_on_c, 5, 58, 100
8, 146940, Note_on_c, 5, 41, 100
8, 146940, Note_on_c, 5, 46, 100
8, 146970, Note_off_c, 5, 53, 0
8, 146970, Note_off_c, 5, 58, 0
8, 146970, Note_off_c, 5, 41, 0
8, 146970, Note_off_c, 5, 46, 0
8, 146970, Note_on_c, 5, 53, 100
8, 146970, Note_on_c, 5, 58, 100
8, 146970, Note_on_c, 5, 41, 100
8, 146970, Note_on_c, 5, 46, 100
8, 147000, Note_off_c, 5, 53, 0
8, 147000, Note_off_c, 5, 58, 0
8, 147000, Note_off_c, 5, 41, 0
8, 147000, Note_off_c, 5, 46, 0
8, 147000, Note_on_c, 5, 53, 100
8, 147000, Note_on_c, 5, 58, 100
8, 147000, Note_on_c, 5, 41, 100
8, 147000, Note_on_c, 5, 46, 100
8, 147030, Note_off_c, 5, 53, 0
8, 147030, Note_off_c, 5, 58, 0
8, 147030, Note_off_c, 5, 41, 0
8, 147030, Note_off_c, 5, 46, 0
8, 147030, Note_on_c, 5, 53, 100
8, 147030, Note_on_c, 5, 58, 100
8, 147030, Note_on_c, 5, 41, 100
8, 147030, Note_on_c, 5, 46, 100
8, 147060, Note_off_c, 5, 53, 0
8, 147060, Note_off_c, 5, 58, 0
8, 147060, Note_off_c, 5, 41, 0
8, 147060, Note_off_c, 5, 46, 0
8, 147060, Note_on_c, 5, 53, 100
8, 147060, Note_on_c, 5, 58, 100
8, 147060, Note_on_c, 5, 41, 100
8, 147060, Note_on_c, 5, 46, 100
8, 147090, Note_off_c, 5, 53, 0
8, 147090, Note_off_c, 5, 58, 0
8, 147090, Note_off_c, 5, 41, 0
8, 147090, Note_off_c, 5, 46, 0
8, 147090, Note_on_c, 5, 53, 100
8, 147090, Note_on_c, 5, 58, 100
8, 147090, Note_on_c, 5, 41, 100
8, 147090, Note_on_c, 5, 46, 100
8, 147120, Note_off_c, 5, 53, 0
8, 147120, Note_off_c, 5, 58, 0
8, 147120, Note_off_c, 5, 41, 0
8, 147120, Note_off_c, 5, 46, 0
8, 147120, Note_on_c, 5, 53, 100
8, 147120, Note_on_c, 5, 58, 100
8, 147120, Note_on_c, 5, 41, 100
8, 147120, Note_on_c, 5, 46, 100
8, 147150, Note_off_c, 5, 53, 0
8, 147150, Note_off_c, 5, 58, 0
8, 147150, Note_off_c, 5, 41, 0
8, 147150, Note_off_c, 5, 46, 0
8, 147150, Note_on_c, 5, 53, 100
8, 147150, Note_on_c, 5, 58, 100
8, 147150, Note_on_c, 5, 41, 100
8, 147150, Note_on_c, 5, 46, 100
8, 147180, Note_off_c, 5, 53, 0
8, 147180, Note_off_c, 5, 58, 0
8, 147180, Note_off_c, 5, 41, 0
8, 147180, Note_off_c, 5, 46, 0
8, 147180, Note_on_c, 5, 53, 100
8, 147180, Note_on_c, 5, 58, 100
8, 147180, Note_on_c, 5, 41, 100
8, 147180, Note_on_c, 5, 46, 100
8, 147210, Note_off_c, 5, 53, 0
8, 147210, Note_off_c, 5, 58, 0
8, 147210, Note_off_c, 5, 41, 0
8, 147210, Note_off_c, 5, 46, 0
8, 147210, Note_on_c, 5, 53, 100
8, 147210, Note_on_c, 5, 58, 100
8, 147210, Note_on_c, 5, 41, 100
8, 147210, Note_on_c, 5, 46, 100
8, 147240, Note_off_c, 5, 53, 0
8, 147240, Note_off_c, 5, 58, 0
8, 147240, Note_off_c, 5, 41, 0
8, 147240, Note_off_c, 5, 46, 0
8, 147240, Note_on_c, 5, 53, 100
8, 147240, Note_on_c, 5, 58, 100
8, 147240, Note_on_c, 5, 41, 100
8, 147240, Note_on_c, 5, 46, 100
8, 147270, Note_off_c, 5, 53, 0
8, 147270, Note_off_c, 5, 58, 0
8, 147270, Note_off_c, 5, 41, 0
8, 147270, Note_off_c, 5, 46, 0
8, 147270, Note_on_c, 5, 53, 100
8, 147270, Note_on_c, 5, 58, 100
8, 147270, Note_on_c, 5, 41, 100
8, 147270, Note_on_c, 5, 46, 100
8, 147300, Note_off_c, 5, 53, 0
8, 147300, Note_off_c, 5, 58, 0
8, 147300, Note_off_c, 5, 41, 0
8, 147300, Note_off_c, 5, 46, 0
8, 147300, Note_on_c, 5, 53, 100
8, 147300, Note_on_c, 5, 58, 100
8, 147300, Note_on_c, 5, 41, 100
8, 147300, Note_on_c, 5, 46, 100
8, 147330, Note_off_c, 5, 53, 0
8, 147330, Note_off_c, 5, 58, 0
8, 147330, Note_off_c, 5, 41, 0
8, 147330, Note_off_c, 5, 46, 0
8, 147330, Note_on_c, 5, 53, 100
8, 147330, Note_on_c, 5, 58, 100
8, 147330, Note_on_c, 5, 41, 100
8, 147330, Note_on_c, 5, 46, 100
8, 147360, Note_off_c, 5, 53, 0
8, 147360, Note_off_c, 5, 58, 0
8, 147360, Note_off_c, 5, 41, 0
8, 147360, Note_off_c, 5, 46, 0
8, 147360, Note_on_c, 5, 54, 100
8, 147360, Note_on_c, 5, 58, 100
8, 147360, Note_on_c, 5, 42, 100
8, 147360, Note_on_c, 5, 46, 100
8, 147390, Note_off_c, 5, 54, 0
8, 147390, Note_off_c, 5, 58, 0
8, 147390, Note_off_c, 5, 42, 0
8, 147390, Note_off_c, 5, 46, 0
8, 147390, Note_on_c, 5, 54, 100
8, 147390, Note_on_c, 5, 58, 100
8, 147390, Note_on_c, 5, 42, 100
8, 147390, Note_on_c, 5, 46, 100
8, 147420, Note_off_c, 5, 54, 0
8, 147420, Note_off_c, 5, 58, 0
8, 147420, Note_off_c, 5, 42, 0
8, 147420, Note_off_c, 5, 46, 0
8, 147420, Note_on_c, 5, 54, 100
8, 147420, Note_on_c, 5, 58, 100
8, 147420, Note_on_c, 5, 42, 100
8, 147420, Note_on_c, 5, 46, 100
8, 147450, Note_off_c, 5, 54, 0
8, 147450, Note_off_c, 5, 58, 0
8, 147450, Note_off_c, 5, 42, 0
8, 147450, Note_off_c, 5, 46, 0
8, 147450, Note_on_c, 5, 54, 100
8, 147450, Note_on_c, 5, 58, 100
8, 147450, Note_on_c, 5, 42, 100
8, 147450, Note_on_c, 5, 46, 100
8, 147480, Note_off_c, 5, 54, 0
8, 147480, Note_off_c, 5, 58, 0
8, 147480, Note_off_c, 5, 42, 0
8, 147480, Note_off_c, 5, 46, 0
8, 147480, Note_on_c, 5, 54, 100
8, 147480, Note_on_c, 5, 58, 100
8, 147480, Note_on_c, 5, 42, 100
8, 147480, Note_on_c, 5, 46, 100
8, 147510, Note_off_c, 5, 54, 0
8, 147510, Note_off_c, 5, 58, 0
8, 147510, Note_off_c, 5, 42, 0
8, 147510, Note_off_c, 5, 46, 0
8, 147510, Note_on_c, 5, 54, 100
8, 147510, Note_on_c, 5, 58, 100
8, 147510, Note_on_c, 5, 42, 100
8, 147510, Note_on_c, 5, 46, 100
8, 147540, Note_off_c, 5, 54, 0
8, 147540, Note_off_c, 5, 58, 0
8, 147540, Note_off_c, 5, 42, 0
8, 147540, Note_off_c, 5, 46, 0
8, 147540, Note_on_c, 5, 54, 100
8, 147540, Note_on_c, 5, 58, 100
8, 147540, Note_on_c, 5, 42, 100
8, 147540, Note_on_c, 5, 46, 100
8, 147570, Note_off_c, 5, 54, 0
8, 147570, Note_off_c, 5, 58, 0
8, 147570, Note_off_c, 5, 42, 0
8, 147570, Note_off_c, 5, 46, 0
8, 147570, Note_on_c, 5, 54, 100
8, 147570, Note_on_c, 5, 58, 100
8, 147570, Note_on_c, 5, 42, 100
8, 147570, Note_on_c, 5, 46, 100
8, 147600, Note_off_c, 5, 54, 0
8, 147600, Note_off_c, 5, 58, 0
8, 147600, Note_off_c, 5, 42, 0
8, 147600, Note_off_c, 5, 46, 0
8, 147600, Note_on_c, 5, 54, 100
8, 147600, Note_on_c, 5, 58, 100
8, 147600, Note_on_c, 5, 42, 100
8, 147600, Note_on_c, 5, 46, 100
8, 147630, Note_off_c, 5, 54, 0
8, 147630, Note_off_c, 5, 58, 0
8, 147630, Note_off_c, 5, 42, 0
8, 147630, Note_off_c, 5, 46, 0
8, 147630, Note_on_c, 5, 54, 100
8, 147630, Note_on_c, 5, 58, 100
8, 147630, Note_on_c, 5, 42, 100
8, 147630, Note_on_c, 5, 46, 100
8, 147660, Note_off_c, 5, 54, 0
8, 147660, Note_off_c, 5, 58, 0
8, 147660, Note_off_c, 5, 42, 0
8, 147660, Note_off_c, 5, 46, 0
8, 147660, Note_on_c, 5, 54, 100
8, 147660, Note_on_c, 5, 58, 100
8, 147660, Note_on_c, 5, 42, 100
8, 147660, Note_on_c, 5, 46, 100
8, 147690, Note_off_c, 5, 54, 0
8, 147690, Note_off_c, 5, 58, 0
8, 147690, Note_off_c, 5, 42, 0
8, 147690, Note_off_c, 5, 46, 0
8, 147690, Note_on_c, 5, 54, 100
8, 147690, Note_on_c, 5, 58, 100
8, 147690, Note_on_c, 5, 42, 100
8, 147690, Note_on_c, 5, 46, 100
8, 147720, Note_off_c, 5, 54, 0
8, 147720, Note_off_c, 5, 58, 0
8, 147720, Note_off_c, 5, 42, 0
8, 147720, Note_off_c, 5, 46, 0
8, 147720, Note_on_c, 5, 54, 100
8, 147720, Note_on_c, 5, 58, 100
8, 147720, Note_on_c, 5, 42, 100
8, 147720, Note_on_c, 5, 46, 100
8, 147750, Note_off_c, 5, 54, 0
8, 147750, Note_off_c, 5, 58, 0
8, 147750, Note_off_c, 5, 42, 0
8, 147750, Note_off_c, 5, 46, 0
8, 147750, Note_on_c, 5, 54, 100
8, 147750, Note_on_c, 5, 58, 100
8, 147750, Note_on_c, 5, 42, 100
8, 147750, Note_on_c, 5, 46, 100
8, 147780, Note_off_c, 5, 54, 0
8, 147780, Note_off_c, 5, 58, 0
8, 147780, Note_off_c, 5, 42, 0
8, 147780, Note_off_c, 5, 46, 0
8, 147780, Note_on_c, 5, 54, 100
8, 147780, Note_on_c, 5, 58, 100
8, 147780, Note_on_c, 5, 42, 100
8, 147780, Note_on_c, 5, 46, 100
8, 147810, Note_off_c, 5, 54, 0
8, 147810, Note_off_c, 5, 58, 0
8, 147810, Note_off_c, 5, 42, 0
8, 147810, Note_off_c, 5, 46, 0
8, 147810, Note_on_c, 5, 54, 100
8, 147810, Note_on_c, 5, 58, 100
8, 147810, Note_on_c, 5, 42, 100
8, 147810, Note_on_c, 5, 46, 100
8, 147840, Note_off_c, 5, 54, 0
8, 147840, Note_off_c, 5, 58, 0
8, 147840, Note_off_c, 5, 42, 0
8, 147840, Note_off_c, 5, 46, 0
8, 147840, Note_on_c, 5, 54, 100
8, 147840, Note_on_c, 5, 58, 100
8, 147840, Note_on_c, 5, 42, 100
8, 147840, Note_on_c, 5, 46, 100
8, 147870, Note_off_c, 5, 54, 0
8, 147870, Note_off_c, 5, 58, 0
8, 147870, Note_off_c, 5, 42, 0
8, 147870, Note_off_c, 5, 46, 0
8, 147870, Note_on_c, 5, 54, 100
8, 147870, Note_on_c, 5, 58, 100
8, 147870, Note_on_c, 5, 42, 100
8, 147870, Note_on_c, 5, 46, 100
8, 147900, Note_off_c, 5, 54, 0
8, 147900, Note_off_c, 5, 58, 0
8, 147900, Note_off_c, 5, 42, 0
8, 147900, Note_off_c, 5, 46, 0
8, 147900, Note_on_c, 5, 54, 100
8, 147900, Note_on_c, 5, 58, 100
8, 147900, Note_on_c, 5, 42, 100
8, 147900, Note_on_c, 5, 46, 100
8, 147930, Note_off_c, 5, 54, 0
8, 147930, Note_off_c, 5, 58, 0
8, 147930, Note_off_c, 5, 42, 0
8, 147930, Note_off_c, 5, 46, 0
8, 147930, Note_on_c, 5, 54, 100
8, 147930, Note_on_c, 5, 58, 100
8, 147930, Note_on_c, 5, 42, 100
8, 147930, Note_on_c, 5, 46, 100
8, 147960, Note_off_c, 5, 54, 0
8, 147960, Note_off_c, 5, 58, 0
8, 147960, Note_off_c, 5, 42, 0
8, 147960, Note_off_c, 5, 46, 0
8, 147960, Note_on_c, 5, 54, 100
8, 147960, Note_on_c, 5, 58, 100
8, 147960, Note_on_c, 5, 42, 100
8, 147960, Note_on_c, 5, 46, 100
8, 147990, Note_off_c, 5, 54, 0
8, 147990, Note_off_c, 5, 58, 0
8, 147990, Note_off_c, 5, 42, 0
8, 147990, Note_off_c, 5, 46, 0
8, 147990, Note_on_c, 5, 54, 100
8, 147990, Note_on_c, 5, 58, 100
8, 147990, Note_on_c, 5, 42, 100
8, 147990, Note_on_c, 5, 46, 100
8, 148020, Note_off_c, 5, 54, 0
8, 148020, Note_off_c, 5, 58, 0
8, 148020, Note_off_c, 5, 42, 0
8, 148020, Note_off_c, 5, 46, 0
8, 148020, Note_on_c, 5, 54, 100
8, 148020, Note_on_c, 5, 58, 100
8, 148020, Note_on_c, 5, 42, 100
8, 148020, Note_on_c, 5, 46, 100
8, 148050, Note_off_c, 5, 54, 0
8, 148050, Note_off_c, 5, 58, 0
8, 148050, Note_off_c, 5, 42, 0
8, 148050, Note_off_c, 5, 46, 0
8, 148050, Note_on_c, 5, 54, 100
8, 148050, Note_on_c, 5, 58, 100
8, 148050, Note_on_c, 5, 42, 100
8, 148050, Note_on_c, 5, 46, 100
8, 148080, Note_off_c, 5, 54, 0
8, 148080, Note_off_c, 5, 58, 0
8, 148080, Note_off_c, 5, 42, 0
8, 148080, Note_off_c, 5, 46, 0
8, 148080, Note_on_c, 5, 54, 100
8, 148080, Note_on_c, 5, 58, 100
8, 148080, Note_on_c, 5, 42, 100
8, 148080, Note_on_c, 5, 46, 100
8, 148110, Note_off_c, 5, 54, 0
8, 148110, Note_off_c, 5, 58, 0
8, 148110, Note_off_c, 5, 42, 0
8, 148110, Note_off_c, 5, 46, 0
8, 148110, Note_on_c, 5, 54, 100
8, 148110, Note_on_c, 5, 58, 100
8, 148110, Note_on_c, 5, 42, 100
8, 148110, Note_on_c, 5, 46, 100
8, 148140, Note_off_c, 5, 54, 0
8, 148140, Note_off_c, 5, 58, 0
8, 148140, Note_off_c, 5, 42, 0
8, 148140, Note_off_c, 5, 46, 0
8, 148140, Note_on_c, 5, 54, 100
8, 148140, Note_on_c, 5, 58, 100
8, 148140, Note_on_c, 5, 42, 100
8, 148140, Note_on_c, 5, 46, 100
8, 148170, Note_off_c, 5, 54, 0
8, 148170, Note_off_c, 5, 58, 0
8, 148170, Note_off_c, 5, 42, 0
8, 148170, Note_off_c, 5, 46, 0
8, 148170, Note_on_c, 5, 54, 100
8, 148170, Note_on_c, 5, 58, 100
8, 148170, Note_on_c, 5, 42, 100
8, 148170, Note_on_c, 5, 46, 100
8, 148200, Note_off_c, 5, 54, 0
8, 148200, Note_off_c, 5, 58, 0
8, 148200, Note_off_c, 5, 42, 0
8, 148200, Note_off_c, 5, 46, 0
8, 148200, Note_on_c, 5, 54, 100
8, 148200, Note_on_c, 5, 58, 100
8, 148200, Note_on_c, 5, 42, 100
8, 148200, Note_on_c, 5, 46, 100
8, 148230, Note_off_c, 5, 54, 0
8, 148230, Note_off_c, 5, 58, 0
8, 148230, Note_off_c, 5, 42, 0
8, 148230, Note_off_c, 5, 46, 0
8, 148230, Note_on_c, 5, 54, 100
8, 148230, Note_on_c, 5, 58, 100
8, 148230, Note_on_c, 5, 42, 100
8, 148230, Note_on_c, 5, 46, 100
8, 148260, Note_off_c, 5, 54, 0
8, 148260, Note_off_c, 5, 58, 0
8, 148260, Note_off_c, 5, 42, 0
8, 148260, Note_off_c, 5, 46, 0
8, 148260, Note_on_c, 5, 54, 100
8, 148260, Note_on_c, 5, 58, 100
8, 148260, Note_on_c, 5, 42, 100
8, 148260, Note_on_c, 5, 46, 100
8, 148290, Note_off_c, 5, 54, 0
8, 148290, Note_off_c, 5, 58, 0
8, 148290, Note_off_c, 5, 42, 0
8, 148290, Note_off_c, 5, 46, 0
8, 148290, Note_on_c, 5, 54, 100
8, 148290, Note_on_c, 5, 58, 100
8, 148290, Note_on_c, 5, 42, 100
8, 148290, Note_on_c, 5, 46, 100
8, 148320, Note_off_c, 5, 54, 0
8, 148320, Note_off_c, 5, 58, 0
8, 148320, Note_off_c, 5, 42, 0
8, 148320, Note_off_c, 5, 46, 0
8, 148320, Note_on_c, 5, 54, 100
8, 148320, Note_on_c, 5, 58, 100
8, 148320, Note_on_c, 5, 42, 100
8, 148320, Note_on_c, 5, 46, 100
8, 148350, Note_off_c, 5, 54, 0
8, 148350, Note_off_c, 5, 58, 0
8, 148350, Note_off_c, 5, 42, 0
8, 148350, Note_off_c, 5, 46, 0
8, 148350, Note_on_c, 5, 54, 100
8, 148350, Note_on_c, 5, 58, 100
8, 148350, Note_on_c, 5, 42, 100
8, 148350, Note_on_c, 5, 46, 100
8, 148380, Note_off_c, 5, 54, 0
8, 148380, Note_off_c, 5, 58, 0
8, 148380, Note_off_c, 5, 42, 0
8, 148380, Note_off_c, 5, 46, 0
8, 148380, Note_on_c, 5, 54, 100
8, 148380, Note_on_c, 5, 58, 100
8, 148380, Note_on_c, 5, 42, 100
8, 148380, Note_on_c, 5, 46, 100
8, 148410, Note_off_c, 5, 54, 0
8, 148410, Note_off_c, 5, 58, 0
8, 148410, Note_off_c, 5, 42, 0
8, 148410, Note_off_c, 5, 46, 0
8, 148410, Note_on_c, 5, 54, 100
8, 148410, Note_on_c, 5, 58, 100
8, 148410, Note_on_c, 5, 42, 100
8, 148410, Note_on_c, 5, 46, 100
8, 148440, Note_off_c, 5, 54, 0
8, 148440, Note_off_c, 5, 58, 0
8, 148440, Note_off_c, 5, 42, 0
8, 148440, Note_off_c, 5, 46, 0
8, 148440, Note_on_c, 5, 54, 100
8, 148440, Note_on_c, 5, 58, 100
8, 148440, Note_on_c, 5, 42, 100
8, 148440, Note_on_c, 5, 46, 100
8, 148470, Note_off_c, 5, 54, 0
8, 148470, Note_off_c, 5, 58, 0
8, 148470, Note_off_c, 5, 42, 0
8, 148470, Note_off_c, 5, 46, 0
8, 148470, Note_on_c, 5, 54, 100
8, 148470, Note_on_c, 5, 58, 100
8, 148470, Note_on_c, 5, 42, 100
8, 148470, Note_on_c, 5, 46, 100
8, 148500, Note_off_c, 5, 54, 0
8, 148500, Note_off_c, 5, 58, 0
8, 148500, Note_off_c, 5, 42, 0
8, 148500, Note_off_c, 5, 46, 0
8, 148500, Note_on_c, 5, 54, 100
8, 148500, Note_on_c, 5, 58, 100
8, 148500, Note_on_c, 5, 42, 100
8, 148500, Note_on_c, 5, 46, 100
8, 148530, Note_off_c, 5, 54, 0
8, 148530, Note_off_c, 5, 58, 0
8, 148530, Note_off_c, 5, 42, 0
8, 148530, Note_off_c, 5, 46, 0
8, 148530, Note_on_c, 5, 54, 100
8, 148530, Note_on_c, 5, 58, 100
8, 148530, Note_on_c, 5, 42, 100
8, 148530, Note_on_c, 5, 46, 100
8, 148560, Note_off_c, 5, 54, 0
8, 148560, Note_off_c, 5, 58, 0
8, 148560, Note_off_c, 5, 42, 0
8, 148560, Note_off_c, 5, 46, 0
8, 148560, Note_on_c, 5, 54, 100
8, 148560, Note_on_c, 5, 58, 100
8, 148560, Note_on_c, 5, 42, 100
8, 148560, Note_on_c, 5, 46, 100
8, 148590, Note_off_c, 5, 54, 0
8, 148590, Note_off_c, 5, 58, 0
8, 148590, Note_off_c, 5, 42, 0
8, 148590, Note_off_c, 5, 46, 0
8, 148590, Note_on_c, 5, 54, 100
8, 148590, Note_on_c, 5, 58, 100
8, 148590, Note_on_c, 5, 42, 100
8, 148590, Note_on_c, 5, 46, 100
8, 148620, Note_off_c, 5, 54, 0
8, 148620, Note_off_c, 5, 58, 0
8, 148620, Note_off_c, 5, 42, 0
8, 148620, Note_off_c, 5, 46, 0
8, 148620, Note_on_c, 5, 54, 100
8, 148620, Note_on_c, 5, 58, 100
8, 148620, Note_on_c, 5, 42, 100
8, 148620, Note_on_c, 5, 46, 100
8, 148650, Note_off_c, 5, 54, 0
8, 148650, Note_off_c, 5, 58, 0
8, 148650, Note_off_c, 5, 42, 0
8, 148650, Note_off_c, 5, 46, 0
8, 148650, Note_on_c, 5, 54, 100
8, 148650, Note_on_c, 5, 58, 100
8, 148650, Note_on_c, 5, 42, 100
8, 148650, Note_on_c, 5, 46, 100
8, 148680, Note_off_c, 5, 54, 0
8, 148680, Note_off_c, 5, 58, 0
8, 148680, Note_off_c, 5, 42, 0
8, 148680, Note_off_c, 5, 46, 0
8, 148680, Note_on_c, 5, 54, 100
8, 148680, Note_on_c, 5, 58, 100
8, 148680, Note_on_c, 5, 42, 100
8, 148680, Note_on_c, 5, 46, 100
8, 148710, Note_off_c, 5, 54, 0
8, 148710, Note_off_c, 5, 58, 0
8, 148710, Note_off_c, 5, 42, 0
8, 148710, Note_off_c, 5, 46, 0
8, 148710, Note_on_c, 5, 54, 100
8, 148710, Note_on_c, 5, 58, 100
8, 148710, Note_on_c, 5, 42, 100
8, 148710, Note_on_c, 5, 46, 100
8, 148740, Note_off_c, 5, 54, 0
8, 148740, Note_off_c, 5, 58, 0
8, 148740, Note_off_c, 5, 42, 0
8, 148740, Note_off_c, 5, 46, 0
8, 148740, Note_on_c, 5, 54, 100
8, 148740, Note_on_c, 5, 58, 100
8, 148740, Note_on_c, 5, 42, 100
8, 148740, Note_on_c, 5, 46, 100
8, 148770, Note_off_c, 5, 54, 0
8, 148770, Note_off_c, 5, 58, 0
8, 148770, Note_off_c, 5, 42, 0
8, 148770, Note_off_c, 5, 46, 0
8, 148770, Note_on_c, 5, 54, 100
8, 148770, Note_on_c, 5, 58, 100
8, 148770, Note_on_c, 5, 42, 100
8, 148770, Note_on_c, 5, 46, 100
8, 148800, Note_off_c, 5, 54, 0
8, 148800, Note_off_c, 5, 58, 0
8, 148800, Note_off_c, 5, 42, 0
8, 148800, Note_off_c, 5, 46, 0
8, 148800, Note_on_c, 5, 54, 100
8, 148800, Note_on_c, 5, 58, 100
8, 148800, Note_on_c, 5, 42, 100
8, 148800, Note_on_c, 5, 46, 100
8, 148830, Note_off_c, 5, 54, 0
8, 148830, Note_off_c, 5, 58, 0
8, 148830, Note_off_c, 5, 42, 0
8, 148830, Note_off_c, 5, 46, 0
8, 148830, Note_on_c, 5, 54, 100
8, 148830, Note_on_c, 5, 58, 100
8, 148830, Note_on_c, 5, 42, 100
8, 148830, Note_on_c, 5, 46, 100
8, 148860, Note_off_c, 5, 54, 0
8, 148860, Note_off_c, 5, 58, 0
8, 148860, Note_off_c, 5, 42, 0
8, 148860, Note_off_c, 5, 46, 0
8, 148860, Note_on_c, 5, 54, 100
8, 148860, Note_on_c, 5, 58, 100
8, 148860, Note_on_c, 5, 42, 100
8, 148860, Note_on_c, 5, 46, 100
8, 148890, Note_off_c, 5, 54, 0
8, 148890, Note_off_c, 5, 58, 0
8, 148890, Note_off_c, 5, 42, 0
8, 148890, Note_off_c, 5, 46, 0
8, 148890, Note_on_c, 5, 54, 100
8, 148890, Note_on_c, 5, 58, 100
8, 148890, Note_on_c, 5, 42, 100
8, 148890, Note_on_c, 5, 46, 100
8, 148920, Note_off_c, 5, 54, 0
8, 148920, Note_off_c, 5, 58, 0
8, 148920, Note_off_c, 5, 42, 0
8, 148920, Note_off_c, 5, 46, 0
8, 148920, Note_on_c, 5, 54, 100
8, 148920, Note_on_c, 5, 58, 100
8, 148920, Note_on_c, 5, 42, 100
8, 148920, Note_on_c, 5, 46, 100
8, 148950, Note_off_c, 5, 54, 0
8, 148950, Note_off_c, 5, 58, 0
8, 148950, Note_off_c, 5, 42, 0
8, 148950, Note_off_c, 5, 46, 0
8, 148950, Note_on_c, 5, 54, 100
8, 148950, Note_on_c, 5, 58, 100
8, 148950, Note_on_c, 5, 42, 100
8, 148950, Note_on_c, 5, 46, 100
8, 148980, Note_off_c, 5, 54, 0
8, 148980, Note_off_c, 5, 58, 0
8, 148980, Note_off_c, 5, 42, 0
8, 148980, Note_off_c, 5, 46, 0
8, 148980, Note_on_c, 5, 54, 100
8, 148980, Note_on_c, 5, 58, 100
8, 148980, Note_on_c, 5, 42, 100
8, 148980, Note_on_c, 5, 46, 100
8, 149010, Note_off_c, 5, 54, 0
8, 149010, Note_off_c, 5, 58, 0
8, 149010, Note_off_c, 5, 42, 0
8, 149010, Note_off_c, 5, 46, 0
8, 149010, Note_on_c, 5, 54, 100
8, 149010, Note_on_c, 5, 58, 100
8, 149010, Note_on_c, 5, 42, 100
8, 149010, Note_on_c, 5, 46, 100
8, 149040, Note_off_c, 5, 54, 0
8, 149040, Note_off_c, 5, 58, 0
8, 149040, Note_off_c, 5, 42, 0
8, 149040, Note_off_c, 5, 46, 0
8, 149040, Note_on_c, 5, 54, 100
8, 149040, Note_on_c, 5, 58, 100
8, 149040, Note_on_c, 5, 42, 100
8, 149040, Note_on_c, 5, 46, 100
8, 149070, Note_off_c, 5, 54, 0
8, 149070, Note_off_c, 5, 58, 0
8, 149070, Note_off_c, 5, 42, 0
8, 149070, Note_off_c, 5, 46, 0
8, 149070, Note_on_c, 5, 54, 100
8, 149070, Note_on_c, 5, 58, 100
8, 149070, Note_on_c, 5, 42, 100
8, 149070, Note_on_c, 5, 46, 100
8, 149100, Note_off_c, 5, 54, 0
8, 149100, Note_off_c, 5, 58, 0
8, 149100, Note_off_c, 5, 42, 0
8, 149100, Note_off_c, 5, 46, 0
8, 149100, Note_on_c, 5, 54, 100
8, 149100, Note_on_c, 5, 58, 100
8, 149100, Note_on_c, 5, 42, 100
8, 149100, Note_on_c, 5, 46, 100
8, 149130, Note_off_c, 5, 54, 0
8, 149130, Note_off_c, 5, 58, 0
8, 149130, Note_off_c, 5, 42, 0
8, 149130, Note_off_c, 5, 46, 0
8, 149130, Note_on_c, 5, 54, 100
8, 149130, Note_on_c, 5, 58, 100
8, 149130, Note_on_c, 5, 42, 100
8, 149130, Note_on_c, 5, 46, 100
8, 149160, Note_off_c, 5, 54, 0
8, 149160, Note_off_c, 5, 58, 0
8, 149160, Note_off_c, 5, 42, 0
8, 149160, Note_off_c, 5, 46, 0
8, 149160, Note_on_c, 5, 54, 100
8, 149160, Note_on_c, 5, 58, 100
8, 149160, Note_on_c, 5, 42, 100
8, 149160, Note_on_c, 5, 46, 100
8, 149190, Note_off_c, 5, 54, 0
8, 149190, Note_off_c, 5, 58, 0
8, 149190, Note_off_c, 5, 42, 0
8, 149190, Note_off_c, 5, 46, 0
8, 149190, Note_on_c, 5, 54, 100
8, 149190, Note_on_c, 5, 58, 100
8, 149190, Note_on_c, 5, 42, 100
8, 149190, Note_on_c, 5, 46, 100
8, 149220, Note_off_c, 5, 54, 0
8, 149220, Note_off_c, 5, 58, 0
8, 149220, Note_off_c, 5, 42, 0
8, 149220, Note_off_c, 5, 46, 0
8, 149220, Note_on_c, 5, 54, 100
8, 149220, Note_on_c, 5, 58, 100
8, 149220, Note_on_c, 5, 42, 100
8, 149220, Note_on_c, 5, 46, 100
8, 149250, Note_off_c, 5, 54, 0
8, 149250, Note_off_c, 5, 58, 0
8, 149250, Note_off_c, 5, 42, 0
8, 149250, Note_off_c, 5, 46, 0
8, 149250, Note_on_c, 5, 54, 100
8, 149250, Note_on_c, 5, 58, 100
8, 149250, Note_on_c, 5, 42, 100
8, 149250, Note_on_c, 5, 46, 100
8, 149280, Note_off_c, 5, 54, 0
8, 149280, Note_off_c, 5, 58, 0
8, 149280, Note_off_c, 5, 42, 0
8, 149280, Note_off_c, 5, 46, 0
8, 149280, Note_on_c, 5, 56, 100
8, 149280, Note_on_c, 5, 60, 100
8, 149280, Note_on_c, 5, 44, 100
8, 149280, Note_on_c, 5, 48, 100
8, 149310, Note_off_c, 5, 56, 0
8, 149310, Note_off_c, 5, 60, 0
8, 149310, Note_off_c, 5, 44, 0
8, 149310, Note_off_c, 5, 48, 0
8, 149310, Note_on_c, 5, 56, 100
8, 149310, Note_on_c, 5, 60, 100
8, 149310, Note_on_c, 5, 44, 100
8, 149310, Note_on_c, 5, 48, 100
8, 149340, Note_off_c, 5, 56, 0
8, 149340, Note_off_c, 5, 60, 0
8, 149340, Note_off_c, 5, 44, 0
8, 149340, Note_off_c, 5, 48, 0
8, 149340, Note_on_c, 5, 56, 100
8, 149340, Note_on_c, 5, 60, 100
8, 149340, Note_on_c, 5, 44, 100
8, 149340, Note_on_c, 5, 48, 100
8, 149370, Note_off_c, 5, 56, 0
8, 149370, Note_off_c, 5, 60, 0
8, 149370, Note_off_c, 5, 44, 0
8, 149370, Note_off_c, 5, 48, 0
8, 149370, Note_on_c, 5, 56, 100
8, 149370, Note_on_c, 5, 60, 100
8, 149370, Note_on_c, 5, 44, 100
8, 149370, Note_on_c, 5, 48, 100
8, 149400, Note_off_c, 5, 56, 0
8, 149400, Note_off_c, 5, 60, 0
8, 149400, Note_off_c, 5, 44, 0
8, 149400, Note_off_c, 5, 48, 0
8, 149400, Note_on_c, 5, 56, 100
8, 149400, Note_on_c, 5, 60, 100
8, 149400, Note_on_c, 5, 44, 100
8, 149400, Note_on_c, 5, 48, 100
8, 149430, Note_off_c, 5, 56, 0
8, 149430, Note_off_c, 5, 60, 0
8, 149430, Note_off_c, 5, 44, 0
8, 149430, Note_off_c, 5, 48, 0
8, 149430, Note_on_c, 5, 56, 100
8, 149430, Note_on_c, 5, 60, 100
8, 149430, Note_on_c, 5, 44, 100
8, 149430, Note_on_c, 5, 48, 100
8, 149460, Note_off_c, 5, 56, 0
8, 149460, Note_off_c, 5, 60, 0
8, 149460, Note_off_c, 5, 44, 0
8, 149460, Note_off_c, 5, 48, 0
8, 149460, Note_on_c, 5, 56, 100
8, 149460, Note_on_c, 5, 60, 100
8, 149460, Note_on_c, 5, 44, 100
8, 149460, Note_on_c, 5, 48, 100
8, 149490, Note_off_c, 5, 56, 0
8, 149490, Note_off_c, 5, 60, 0
8, 149490, Note_off_c, 5, 44, 0
8, 149490, Note_off_c, 5, 48, 0
8, 149490, Note_on_c, 5, 56, 100
8, 149490, Note_on_c, 5, 60, 100
8, 149490, Note_on_c, 5, 44, 100
8, 149490, Note_on_c, 5, 48, 100
8, 149520, Note_off_c, 5, 56, 0
8, 149520, Note_off_c, 5, 60, 0
8, 149520, Note_off_c, 5, 44, 0
8, 149520, Note_off_c, 5, 48, 0
8, 149520, Note_on_c, 5, 56, 100
8, 149520, Note_on_c, 5, 60, 100
8, 149520, Note_on_c, 5, 44, 100
8, 149520, Note_on_c, 5, 48, 100
8, 149550, Note_off_c, 5, 56, 0
8, 149550, Note_off_c, 5, 60, 0
8, 149550, Note_off_c, 5, 44, 0
8, 149550, Note_off_c, 5, 48, 0
8, 149550, Note_on_c, 5, 56, 100
8, 149550, Note_on_c, 5, 60, 100
8, 149550, Note_on_c, 5, 44, 100
8, 149550, Note_on_c, 5, 48, 100
8, 149580, Note_off_c, 5, 56, 0
8, 149580, Note_off_c, 5, 60, 0
8, 149580, Note_off_c, 5, 44, 0
8, 149580, Note_off_c, 5, 48, 0
8, 149580, Note_on_c, 5, 56, 100
8, 149580, Note_on_c, 5, 60, 100
8, 149580, Note_on_c, 5, 44, 100
8, 149580, Note_on_c, 5, 48, 100
8, 149610, Note_off_c, 5, 56, 0
8, 149610, Note_off_c, 5, 60, 0
8, 149610, Note_off_c, 5, 44, 0
8, 149610, Note_off_c, 5, 48, 0
8, 149610, Note_on_c, 5, 56, 100
8, 149610, Note_on_c, 5, 60, 100
8, 149610, Note_on_c, 5, 44, 100
8, 149610, Note_on_c, 5, 48, 100
8, 149640, Note_off_c, 5, 56, 0
8, 149640, Note_off_c, 5, 60, 0
8, 149640, Note_off_c, 5, 44, 0
8, 149640, Note_off_c, 5, 48, 0
8, 149640, Note_on_c, 5, 56, 100
8, 149640, Note_on_c, 5, 60, 100
8, 149640, Note_on_c, 5, 44, 100
8, 149640, Note_on_c, 5, 48, 100
8, 149670, Note_off_c, 5, 56, 0
8, 149670, Note_off_c, 5, 60, 0
8, 149670, Note_off_c, 5, 44, 0
8, 149670, Note_off_c, 5, 48, 0
8, 149670, Note_on_c, 5, 56, 100
8, 149670, Note_on_c, 5, 60, 100
8, 149670, Note_on_c, 5, 44, 100
8, 149670, Note_on_c, 5, 48, 100
8, 149700, Note_off_c, 5, 56, 0
8, 149700, Note_off_c, 5, 60, 0
8, 149700, Note_off_c, 5, 44, 0
8, 149700, Note_off_c, 5, 48, 0
8, 149700, Note_on_c, 5, 56, 100
8, 149700, Note_on_c, 5, 60, 100
8, 149700, Note_on_c, 5, 44, 100
8, 149700, Note_on_c, 5, 48, 100
8, 149730, Note_off_c, 5, 56, 0
8, 149730, Note_off_c, 5, 60, 0
8, 149730, Note_off_c, 5, 44, 0
8, 149730, Note_off_c, 5, 48, 0
8, 149730, Note_on_c, 5, 56, 100
8, 149730, Note_on_c, 5, 60, 100
8, 149730, Note_on_c, 5, 44, 100
8, 149730, Note_on_c, 5, 48, 100
8, 149760, Note_off_c, 5, 56, 0
8, 149760, Note_off_c, 5, 60, 0
8, 149760, Note_off_c, 5, 44, 0
8, 149760, Note_off_c, 5, 48, 0
8, 149760, Note_on_c, 5, 56, 100
8, 149760, Note_on_c, 5, 60, 100
8, 149760, Note_on_c, 5, 44, 100
8, 149760, Note_on_c, 5, 48, 100
8, 149790, Note_off_c, 5, 56, 0
8, 149790, Note_off_c, 5, 60, 0
8, 149790, Note_off_c, 5, 44, 0
8, 149790, Note_off_c, 5, 48, 0
8, 149790, Note_on_c, 5, 56, 100
8, 149790, Note_on_c, 5, 60, 100
8, 149790, Note_on_c, 5, 44, 100
8, 149790, Note_on_c, 5, 48, 100
8, 149820, Note_off_c, 5, 56, 0
8, 149820, Note_off_c, 5, 60, 0
8, 149820, Note_off_c, 5, 44, 0
8, 149820, Note_off_c, 5, 48, 0
8, 149820, Note_on_c, 5, 56, 100
8, 149820, Note_on_c, 5, 60, 100
8, 149820, Note_on_c, 5, 44, 100
8, 149820, Note_on_c, 5, 48, 100
8, 149850, Note_off_c, 5, 56, 0
8, 149850, Note_off_c, 5, 60, 0
8, 149850, Note_off_c, 5, 44, 0
8, 149850, Note_off_c, 5, 48, 0
8, 149850, Note_on_c, 5, 56, 100
8, 149850, Note_on_c, 5, 60, 100
8, 149850, Note_on_c, 5, 44, 100
8, 149850, Note_on_c, 5, 48, 100
8, 149880, Note_off_c, 5, 56, 0
8, 149880, Note_off_c, 5, 60, 0
8, 149880, Note_off_c, 5, 44, 0
8, 149880, Note_off_c, 5, 48, 0
8, 149880, Note_on_c, 5, 56, 100
8, 149880, Note_on_c, 5, 60, 100
8, 149880, Note_on_c, 5, 44, 100
8, 149880, Note_on_c, 5, 48, 100
8, 149910, Note_off_c, 5, 56, 0
8, 149910, Note_off_c, 5, 60, 0
8, 149910, Note_off_c, 5, 44, 0
8, 149910, Note_off_c, 5, 48, 0
8, 149910, Note_on_c, 5, 56, 100
8, 149910, Note_on_c, 5, 60, 100
8, 149910, Note_on_c, 5, 44, 100
8, 149910, Note_on_c, 5, 48, 100
8, 149940, Note_off_c, 5, 56, 0
8, 149940, Note_off_c, 5, 60, 0
8, 149940, Note_off_c, 5, 44, 0
8, 149940, Note_off_c, 5, 48, 0
8, 149940, Note_on_c, 5, 56, 100
8, 149940, Note_on_c, 5, 60, 100
8, 149940, Note_on_c, 5, 44, 100
8, 149940, Note_on_c, 5, 48, 100
8, 149970, Note_off_c, 5, 56, 0
8, 149970, Note_off_c, 5, 60, 0
8, 149970, Note_off_c, 5, 44, 0
8, 149970, Note_off_c, 5, 48, 0
8, 149970, Note_on_c, 5, 56, 100
8, 149970, Note_on_c, 5, 60, 100
8, 149970, Note_on_c, 5, 44, 100
8, 149970, Note_on_c, 5, 48, 100
8, 150000, Note_off_c, 5, 56, 0
8, 150000, Note_off_c, 5, 60, 0
8, 150000, Note_off_c, 5, 44, 0
8, 150000, Note_off_c, 5, 48, 0
8, 150000, Note_on_c, 5, 56, 100
8, 150000, Note_on_c, 5, 60, 100
8, 150000, Note_on_c, 5, 44, 100
8, 150000, Note_on_c, 5, 48, 100
8, 150030, Note_off_c, 5, 56, 0
8, 150030, Note_off_c, 5, 60, 0
8, 150030, Note_off_c, 5, 44, 0
8, 150030, Note_off_c, 5, 48, 0
8, 150030, Note_on_c, 5, 56, 100
8, 150030, Note_on_c, 5, 60, 100
8, 150030, Note_on_c, 5, 44, 100
8, 150030, Note_on_c, 5, 48, 100
8, 150060, Note_off_c, 5, 56, 0
8, 150060, Note_off_c, 5, 60, 0
8, 150060, Note_off_c, 5, 44, 0
8, 150060, Note_off_c, 5, 48, 0
8, 150060, Note_on_c, 5, 56, 100
8, 150060, Note_on_c, 5, 60, 100
8, 150060, Note_on_c, 5, 44, 100
8, 150060, Note_on_c, 5, 48, 100
8, 150090, Note_off_c, 5, 56, 0
8, 150090, Note_off_c, 5, 60, 0
8, 150090, Note_off_c, 5, 44, 0
8, 150090, Note_off_c, 5, 48, 0
8, 150090, Note_on_c, 5, 56, 100
8, 150090, Note_on_c, 5, 60, 100
8, 150090, Note_on_c, 5, 44, 100
8, 150090, Note_on_c, 5, 48, 100
8, 150120, Note_off_c, 5, 56, 0
8, 150120, Note_off_c, 5, 60, 0
8, 150120, Note_off_c, 5, 44, 0
8, 150120, Note_off_c, 5, 48, 0
8, 150120, Note_on_c, 5, 56, 100
8, 150120, Note_on_c, 5, 60, 100
8, 150120, Note_on_c, 5, 44, 100
8, 150120, Note_on_c, 5, 48, 100
8, 150150, Note_off_c, 5, 56, 0
8, 150150, Note_off_c, 5, 60, 0
8, 150150, Note_off_c, 5, 44, 0
8, 150150, Note_off_c, 5, 48, 0
8, 150150, Note_on_c, 5, 56, 100
8, 150150, Note_on_c, 5, 60, 100
8, 150150, Note_on_c, 5, 44, 100
8, 150150, Note_on_c, 5, 48, 100
8, 150180, Note_off_c, 5, 56, 0
8, 150180, Note_off_c, 5, 60, 0
8, 150180, Note_off_c, 5, 44, 0
8, 150180, Note_off_c, 5, 48, 0
8, 150180, Note_on_c, 5, 56, 100
8, 150180, Note_on_c, 5, 60, 100
8, 150180, Note_on_c, 5, 44, 100
8, 150180, Note_on_c, 5, 48, 100
8, 150210, Note_off_c, 5, 56, 0
8, 150210, Note_off_c, 5, 60, 0
8, 150210, Note_off_c, 5, 44, 0
8, 150210, Note_off_c, 5, 48, 0
8, 150210, Note_on_c, 5, 56, 100
8, 150210, Note_on_c, 5, 60, 100
8, 150210, Note_on_c, 5, 44, 100
8, 150210, Note_on_c, 5, 48, 100
8, 150240, Note_off_c, 5, 56, 0
8, 150240, Note_off_c, 5, 60, 0
8, 150240, Note_off_c, 5, 44, 0
8, 150240, Note_off_c, 5, 48, 0
8, 150240, Note_on_c, 5, 54, 100
8, 150240, Note_on_c, 5, 58, 100
8, 150240, Note_on_c, 5, 42, 100
8, 150240, Note_on_c, 5, 46, 100
8, 150270, Note_off_c, 5, 54, 0
8, 150270, Note_off_c, 5, 58, 0
8, 150270, Note_off_c, 5, 42, 0
8, 150270, Note_off_c, 5, 46, 0
8, 150270, Note_on_c, 5, 54, 100
8, 150270, Note_on_c, 5, 58, 100
8, 150270, Note_on_c, 5, 42, 100
8, 150270, Note_on_c, 5, 46, 100
8, 150300, Note_off_c, 5, 54, 0
8, 150300, Note_off_c, 5, 58, 0
8, 150300, Note_off_c, 5, 42, 0
8, 150300, Note_off_c, 5, 46, 0
8, 150300, Note_on_c, 5, 54, 100
8, 150300, Note_on_c, 5, 58, 100
8, 150300, Note_on_c, 5, 42, 100
8, 150300, Note_on_c, 5, 46, 100
8, 150330, Note_off_c, 5, 54, 0
8, 150330, Note_off_c, 5, 58, 0
8, 150330, Note_off_c, 5, 42, 0
8, 150330, Note_off_c, 5, 46, 0
8, 150330, Note_on_c, 5, 54, 100
8, 150330, Note_on_c, 5, 58, 100
8, 150330, Note_on_c, 5, 42, 100
8, 150330, Note_on_c, 5, 46, 100
8, 150360, Note_off_c, 5, 54, 0
8, 150360, Note_off_c, 5, 58, 0
8, 150360, Note_off_c, 5, 42, 0
8, 150360, Note_off_c, 5, 46, 0
8, 150360, Note_on_c, 5, 54, 100
8, 150360, Note_on_c, 5, 58, 100
8, 150360, Note_on_c, 5, 42, 100
8, 150360, Note_on_c, 5, 46, 100
8, 150390, Note_off_c, 5, 54, 0
8, 150390, Note_off_c, 5, 58, 0
8, 150390, Note_off_c, 5, 42, 0
8, 150390, Note_off_c, 5, 46, 0
8, 150390, Note_on_c, 5, 54, 100
8, 150390, Note_on_c, 5, 58, 100
8, 150390, Note_on_c, 5, 42, 100
8, 150390, Note_on_c, 5, 46, 100
8, 150420, Note_off_c, 5, 54, 0
8, 150420, Note_off_c, 5, 58, 0
8, 150420, Note_off_c, 5, 42, 0
8, 150420, Note_off_c, 5, 46, 0
8, 150420, Note_on_c, 5, 54, 100
8, 150420, Note_on_c, 5, 58, 100
8, 150420, Note_on_c, 5, 42, 100
8, 150420, Note_on_c, 5, 46, 100
8, 150450, Note_off_c, 5, 54, 0
8, 150450, Note_off_c, 5, 58, 0
8, 150450, Note_off_c, 5, 42, 0
8, 150450, Note_off_c, 5, 46, 0
8, 150450, Note_on_c, 5, 54, 100
8, 150450, Note_on_c, 5, 58, 100
8, 150450, Note_on_c, 5, 42, 100
8, 150450, Note_on_c, 5, 46, 100
8, 150480, Note_off_c, 5, 54, 0
8, 150480, Note_off_c, 5, 58, 0
8, 150480, Note_off_c, 5, 42, 0
8, 150480, Note_off_c, 5, 46, 0
8, 150480, Note_on_c, 5, 54, 100
8, 150480, Note_on_c, 5, 58, 100
8, 150480, Note_on_c, 5, 42, 100
8, 150480, Note_on_c, 5, 46, 100
8, 150510, Note_off_c, 5, 54, 0
8, 150510, Note_off_c, 5, 58, 0
8, 150510, Note_off_c, 5, 42, 0
8, 150510, Note_off_c, 5, 46, 0
8, 150510, Note_on_c, 5, 54, 100
8, 150510, Note_on_c, 5, 58, 100
8, 150510, Note_on_c, 5, 42, 100
8, 150510, Note_on_c, 5, 46, 100
8, 150540, Note_off_c, 5, 54, 0
8, 150540, Note_off_c, 5, 58, 0
8, 150540, Note_off_c, 5, 42, 0
8, 150540, Note_off_c, 5, 46, 0
8, 150540, Note_on_c, 5, 54, 100
8, 150540, Note_on_c, 5, 58, 100
8, 150540, Note_on_c, 5, 42, 100
8, 150540, Note_on_c, 5, 46, 100
8, 150570, Note_off_c, 5, 54, 0
8, 150570, Note_off_c, 5, 58, 0
8, 150570, Note_off_c, 5, 42, 0
8, 150570, Note_off_c, 5, 46, 0
8, 150570, Note_on_c, 5, 54, 100
8, 150570, Note_on_c, 5, 58, 100
8, 150570, Note_on_c, 5, 42, 100
8, 150570, Note_on_c, 5, 46, 100
8, 150600, Note_off_c, 5, 54, 0
8, 150600, Note_off_c, 5, 58, 0
8, 150600, Note_off_c, 5, 42, 0
8, 150600, Note_off_c, 5, 46, 0
8, 150600, Note_on_c, 5, 54, 100
8, 150600, Note_on_c, 5, 58, 100
8, 150600, Note_on_c, 5, 42, 100
8, 150600, Note_on_c, 5, 46, 100
8, 150630, Note_off_c, 5, 54, 0
8, 150630, Note_off_c, 5, 58, 0
8, 150630, Note_off_c, 5, 42, 0
8, 150630, Note_off_c, 5, 46, 0
8, 150630, Note_on_c, 5, 54, 100
8, 150630, Note_on_c, 5, 58, 100
8, 150630, Note_on_c, 5, 42, 100
8, 150630, Note_on_c, 5, 46, 100
8, 150660, Note_off_c, 5, 54, 0
8, 150660, Note_off_c, 5, 58, 0
8, 150660, Note_off_c, 5, 42, 0
8, 150660, Note_off_c, 5, 46, 0
8, 150660, Note_on_c, 5, 54, 100
8, 150660, Note_on_c, 5, 58, 100
8, 150660, Note_on_c, 5, 42, 100
8, 150660, Note_on_c, 5, 46, 100
8, 150690, Note_off_c, 5, 54, 0
8, 150690, Note_off_c, 5, 58, 0
8, 150690, Note_off_c, 5, 42, 0
8, 150690, Note_off_c, 5, 46, 0
8, 150690, Note_on_c, 5, 54, 100
8, 150690, Note_on_c, 5, 58, 100
8, 150690, Note_on_c, 5, 42, 100
8, 150690, Note_on_c, 5, 46, 100
8, 150720, Note_off_c, 5, 54, 0
8, 150720, Note_off_c, 5, 58, 0
8, 150720, Note_off_c, 5, 42, 0
8, 150720, Note_off_c, 5, 46, 0
8, 150720, Note_on_c, 5, 54, 100
8, 150720, Note_on_c, 5, 58, 100
8, 150720, Note_on_c, 5, 42, 100
8, 150720, Note_on_c, 5, 46, 100
8, 150750, Note_off_c, 5, 54, 0
8, 150750, Note_off_c, 5, 58, 0
8, 150750, Note_off_c, 5, 42, 0
8, 150750, Note_off_c, 5, 46, 0
8, 150750, Note_on_c, 5, 54, 100
8, 150750, Note_on_c, 5, 58, 100
8, 150750, Note_on_c, 5, 42, 100
8, 150750, Note_on_c, 5, 46, 100
8, 150780, Note_off_c, 5, 54, 0
8, 150780, Note_off_c, 5, 58, 0
8, 150780, Note_off_c, 5, 42, 0
8, 150780, Note_off_c, 5, 46, 0
8, 150780, Note_on_c, 5, 54, 100
8, 150780, Note_on_c, 5, 58, 100
8, 150780, Note_on_c, 5, 42, 100
8, 150780, Note_on_c, 5, 46, 100
8, 150810, Note_off_c, 5, 54, 0
8, 150810, Note_off_c, 5, 58, 0
8, 150810, Note_off_c, 5, 42, 0
8, 150810, Note_off_c, 5, 46, 0
8, 150810, Note_on_c, 5, 54, 100
8, 150810, Note_on_c, 5, 58, 100
8, 150810, Note_on_c, 5, 42, 100
8, 150810, Note_on_c, 5, 46, 100
8, 150840, Note_off_c, 5, 54, 0
8, 150840, Note_off_c, 5, 58, 0
8, 150840, Note_off_c, 5, 42, 0
8, 150840, Note_off_c, 5, 46, 0
8, 150840, Note_on_c, 5, 54, 100
8, 150840, Note_on_c, 5, 58, 100
8, 150840, Note_on_c, 5, 42, 100
8, 150840, Note_on_c, 5, 46, 100
8, 150870, Note_off_c, 5, 54, 0
8, 150870, Note_off_c, 5, 58, 0
8, 150870, Note_off_c, 5, 42, 0
8, 150870, Note_off_c, 5, 46, 0
8, 150870, Note_on_c, 5, 54, 100
8, 150870, Note_on_c, 5, 58, 100
8, 150870, Note_on_c, 5, 42, 100
8, 150870, Note_on_c, 5, 46, 100
8, 150900, Note_off_c, 5, 54, 0
8, 150900, Note_off_c, 5, 58, 0
8, 150900, Note_off_c, 5, 42, 0
8, 150900, Note_off_c, 5, 46, 0
8, 150900, Note_on_c, 5, 54, 100
8, 150900, Note_on_c, 5, 58, 100
8, 150900, Note_on_c, 5, 42, 100
8, 150900, Note_on_c, 5, 46, 100
8, 150930, Note_off_c, 5, 54, 0
8, 150930, Note_off_c, 5, 58, 0
8, 150930, Note_off_c, 5, 42, 0
8, 150930, Note_off_c, 5, 46, 0
8, 150930, Note_on_c, 5, 54, 100
8, 150930, Note_on_c, 5, 58, 100
8, 150930, Note_on_c, 5, 42, 100
8, 150930, Note_on_c, 5, 46, 100
8, 150960, Note_off_c, 5, 54, 0
8, 150960, Note_off_c, 5, 58, 0
8, 150960, Note_off_c, 5, 42, 0
8, 150960, Note_off_c, 5, 46, 0
8, 150960, Note_on_c, 5, 54, 100
8, 150960, Note_on_c, 5, 58, 100
8, 150960, Note_on_c, 5, 42, 100
8, 150960, Note_on_c, 5, 46, 100
8, 150990, Note_off_c, 5, 54, 0
8, 150990, Note_off_c, 5, 58, 0
8, 150990, Note_off_c, 5, 42, 0
8, 150990, Note_off_c, 5, 46, 0
8, 150990, Note_on_c, 5, 54, 100
8, 150990, Note_on_c, 5, 58, 100
8, 150990, Note_on_c, 5, 42, 100
8, 150990, Note_on_c, 5, 46, 100
8, 151020, Note_off_c, 5, 54, 0
8, 151020, Note_off_c, 5, 58, 0
8, 151020, Note_off_c, 5, 42, 0
8, 151020, Note_off_c, 5, 46, 0
8, 151020, Note_on_c, 5, 54, 100
8, 151020, Note_on_c, 5, 58, 100
8, 151020, Note_on_c, 5, 42, 100
8, 151020, Note_on_c, 5, 46, 100
8, 151050, Note_off_c, 5, 54, 0
8, 151050, Note_off_c, 5, 58, 0
8, 151050, Note_off_c, 5, 42, 0
8, 151050, Note_off_c, 5, 46, 0
8, 151050, Note_on_c, 5, 54, 100
8, 151050, Note_on_c, 5, 58, 100
8, 151050, Note_on_c, 5, 42, 100
8, 151050, Note_on_c, 5, 46, 100
8, 151080, Note_off_c, 5, 54, 0
8, 151080, Note_off_c, 5, 58, 0
8, 151080, Note_off_c, 5, 42, 0
8, 151080, Note_off_c, 5, 46, 0
8, 151080, Note_on_c, 5, 54, 100
8, 151080, Note_on_c, 5, 58, 100
8, 151080, Note_on_c, 5, 42, 100
8, 151080, Note_on_c, 5, 46, 100
8, 151110, Note_off_c, 5, 54, 0
8, 151110, Note_off_c, 5, 58, 0
8, 151110, Note_off_c, 5, 42, 0
8, 151110, Note_off_c, 5, 46, 0
8, 151110, Note_on_c, 5, 54, 100
8, 151110, Note_on_c, 5, 58, 100
8, 151110, Note_on_c, 5, 42, 100
8, 151110, Note_on_c, 5, 46, 100
8, 151140, Note_off_c, 5, 54, 0
8, 151140, Note_off_c, 5, 58, 0
8, 151140, Note_off_c, 5, 42, 0
8, 151140, Note_off_c, 5, 46, 0
8, 151140, Note_on_c, 5, 54, 100
8, 151140, Note_on_c, 5, 58, 100
8, 151140, Note_on_c, 5, 42, 100
8, 151140, Note_on_c, 5, 46, 100
8, 151170, Note_off_c, 5, 54, 0
8, 151170, Note_off_c, 5, 58, 0
8, 151170, Note_off_c, 5, 42, 0
8, 151170, Note_off_c, 5, 46, 0
8, 151170, Note_on_c, 5, 54, 100
8, 151170, Note_on_c, 5, 58, 100
8, 151170, Note_on_c, 5, 42, 100
8, 151170, Note_on_c, 5, 46, 100
8, 151200, Note_off_c, 5, 54, 0
8, 151200, Note_off_c, 5, 58, 0
8, 151200, Note_off_c, 5, 42, 0
8, 151200, Note_off_c, 5, 46, 0
8, 151200, Note_on_c, 5, 53, 100
8, 151200, Note_on_c, 5, 57, 100
8, 151200, Note_on_c, 5, 41, 100
8, 151200, Note_on_c, 5, 45, 100
8, 151230, Note_off_c, 5, 53, 0
8, 151230, Note_off_c, 5, 57, 0
8, 151230, Note_off_c, 5, 41, 0
8, 151230, Note_off_c, 5, 45, 0
8, 151230, Note_on_c, 5, 53, 100
8, 151230, Note_on_c, 5, 57, 100
8, 151230, Note_on_c, 5, 41, 100
8, 151230, Note_on_c, 5, 45, 100
8, 151260, Note_off_c, 5, 53, 0
8, 151260, Note_off_c, 5, 57, 0
8, 151260, Note_off_c, 5, 41, 0
8, 151260, Note_off_c, 5, 45, 0
8, 151260, Note_on_c, 5, 53, 100
8, 151260, Note_on_c, 5, 57, 100
8, 151260, Note_on_c, 5, 41, 100
8, 151260, Note_on_c, 5, 45, 100
8, 151290, Note_off_c, 5, 53, 0
8, 151290, Note_off_c, 5, 57, 0
8, 151290, Note_off_c, 5, 41, 0
8, 151290, Note_off_c, 5, 45, 0
8, 151290, Note_on_c, 5, 53, 100
8, 151290, Note_on_c, 5, 57, 100
8, 151290, Note_on_c, 5, 41, 100
8, 151290, Note_on_c, 5, 45, 100
8, 151320, Note_off_c, 5, 53, 0
8, 151320, Note_off_c, 5, 57, 0
8, 151320, Note_off_c, 5, 41, 0
8, 151320, Note_off_c, 5, 45, 0
8, 151320, Note_on_c, 5, 53, 100
8, 151320, Note_on_c, 5, 57, 100
8, 151320, Note_on_c, 5, 41, 100
8, 151320, Note_on_c, 5, 45, 100
8, 151350, Note_off_c, 5, 53, 0
8, 151350, Note_off_c, 5, 57, 0
8, 151350, Note_off_c, 5, 41, 0
8, 151350, Note_off_c, 5, 45, 0
8, 151350, Note_on_c, 5, 53, 100
8, 151350, Note_on_c, 5, 57, 100
8, 151350, Note_on_c, 5, 41, 100
8, 151350, Note_on_c, 5, 45, 100
8, 151380, Note_off_c, 5, 53, 0
8, 151380, Note_off_c, 5, 57, 0
8, 151380, Note_off_c, 5, 41, 0
8, 151380, Note_off_c, 5, 45, 0
8, 151380, Note_on_c, 5, 53, 100
8, 151380, Note_on_c, 5, 57, 100
8, 151380, Note_on_c, 5, 41, 100
8, 151380, Note_on_c, 5, 45, 100
8, 151410, Note_off_c, 5, 53, 0
8, 151410, Note_off_c, 5, 57, 0
8, 151410, Note_off_c, 5, 41, 0
8, 151410, Note_off_c, 5, 45, 0
8, 151410, Note_on_c, 5, 53, 100
8, 151410, Note_on_c, 5, 57, 100
8, 151410, Note_on_c, 5, 41, 100
8, 151410, Note_on_c, 5, 45, 100
8, 151440, Note_off_c, 5, 53, 0
8, 151440, Note_off_c, 5, 57, 0
8, 151440, Note_off_c, 5, 41, 0
8, 151440, Note_off_c, 5, 45, 0
8, 151440, Note_on_c, 5, 53, 100
8, 151440, Note_on_c, 5, 57, 100
8, 151440, Note_on_c, 5, 41, 100
8, 151440, Note_on_c, 5, 45, 100
8, 151470, Note_off_c, 5, 53, 0
8, 151470, Note_off_c, 5, 57, 0
8, 151470, Note_off_c, 5, 41, 0
8, 151470, Note_off_c, 5, 45, 0
8, 151470, Note_on_c, 5, 53, 100
8, 151470, Note_on_c, 5, 57, 100
8, 151470, Note_on_c, 5, 41, 100
8, 151470, Note_on_c, 5, 45, 100
8, 151500, Note_off_c, 5, 53, 0
8, 151500, Note_off_c, 5, 57, 0
8, 151500, Note_off_c, 5, 41, 0
8, 151500, Note_off_c, 5, 45, 0
8, 151500, Note_on_c, 5, 53, 100
8, 151500, Note_on_c, 5, 57, 100
8, 151500, Note_on_c, 5, 41, 100
8, 151500, Note_on_c, 5, 45, 100
8, 151530, Note_off_c, 5, 53, 0
8, 151530, Note_off_c, 5, 57, 0
8, 151530, Note_off_c, 5, 41, 0
8, 151530, Note_off_c, 5, 45, 0
8, 151530, Note_on_c, 5, 53, 100
8, 151530, Note_on_c, 5, 57, 100
8, 151530, Note_on_c, 5, 41, 100
8, 151530, Note_on_c, 5, 45, 100
8, 151560, Note_off_c, 5, 53, 0
8, 151560, Note_off_c, 5, 57, 0
8, 151560, Note_off_c, 5, 41, 0
8, 151560, Note_off_c, 5, 45, 0
8, 151560, Note_on_c, 5, 53, 100
8, 151560, Note_on_c, 5, 57, 100
8, 151560, Note_on_c, 5, 41, 100
8, 151560, Note_on_c, 5, 45, 100
8, 151590, Note_off_c, 5, 53, 0
8, 151590, Note_off_c, 5, 57, 0
8, 151590, Note_off_c, 5, 41, 0
8, 151590, Note_off_c, 5, 45, 0
8, 151590, Note_on_c, 5, 53, 100
8, 151590, Note_on_c, 5, 57, 100
8, 151590, Note_on_c, 5, 41, 100
8, 151590, Note_on_c, 5, 45, 100
8, 151620, Note_off_c, 5, 53, 0
8, 151620, Note_off_c, 5, 57, 0
8, 151620, Note_off_c, 5, 41, 0
8, 151620, Note_off_c, 5, 45, 0
8, 151620, Note_on_c, 5, 53, 100
8, 151620, Note_on_c, 5, 57, 100
8, 151620, Note_on_c, 5, 41, 100
8, 151620, Note_on_c, 5, 45, 100
8, 151650, Note_off_c, 5, 53, 0
8, 151650, Note_off_c, 5, 57, 0
8, 151650, Note_off_c, 5, 41, 0
8, 151650, Note_off_c, 5, 45, 0
8, 151650, Note_on_c, 5, 53, 100
8, 151650, Note_on_c, 5, 57, 100
8, 151650, Note_on_c, 5, 41, 100
8, 151650, Note_on_c, 5, 45, 100
8, 151680, Note_off_c, 5, 53, 0
8, 151680, Note_off_c, 5, 57, 0
8, 151680, Note_off_c, 5, 41, 0
8, 151680, Note_off_c, 5, 45, 0
8, 151680, Note_on_c, 5, 53, 100
8, 151680, Note_on_c, 5, 57, 100
8, 151680, Note_on_c, 5, 41, 100
8, 151680, Note_on_c, 5, 45, 100
8, 151710, Note_off_c, 5, 53, 0
8, 151710, Note_off_c, 5, 57, 0
8, 151710, Note_off_c, 5, 41, 0
8, 151710, Note_off_c, 5, 45, 0
8, 151710, Note_on_c, 5, 53, 100
8, 151710, Note_on_c, 5, 57, 100
8, 151710, Note_on_c, 5, 41, 100
8, 151710, Note_on_c, 5, 45, 100
8, 151740, Note_off_c, 5, 53, 0
8, 151740, Note_off_c, 5, 57, 0
8, 151740, Note_off_c, 5, 41, 0
8, 151740, Note_off_c, 5, 45, 0
8, 151740, Note_on_c, 5, 53, 100
8, 151740, Note_on_c, 5, 57, 100
8, 151740, Note_on_c, 5, 41, 100
8, 151740, Note_on_c, 5, 45, 100
8, 151770, Note_off_c, 5, 53, 0
8, 151770, Note_off_c, 5, 57, 0
8, 151770, Note_off_c, 5, 41, 0
8, 151770, Note_off_c, 5, 45, 0
8, 151770, Note_on_c, 5, 53, 100
8, 151770, Note_on_c, 5, 57, 100
8, 151770, Note_on_c, 5, 41, 100
8, 151770, Note_on_c, 5, 45, 100
8, 151800, Note_off_c, 5, 53, 0
8, 151800, Note_off_c, 5, 57, 0
8, 151800, Note_off_c, 5, 41, 0
8, 151800, Note_off_c, 5, 45, 0
8, 151800, Note_on_c, 5, 53, 100
8, 151800, Note_on_c, 5, 57, 100
8, 151800, Note_on_c, 5, 41, 100
8, 151800, Note_on_c, 5, 45, 100
8, 151830, Note_off_c, 5, 53, 0
8, 151830, Note_off_c, 5, 57, 0
8, 151830, Note_off_c, 5, 41, 0
8, 151830, Note_off_c, 5, 45, 0
8, 151830, Note_on_c, 5, 53, 100
8, 151830, Note_on_c, 5, 57, 100
8, 151830, Note_on_c, 5, 41, 100
8, 151830, Note_on_c, 5, 45, 100
8, 151860, Note_off_c, 5, 53, 0
8, 151860, Note_off_c, 5, 57, 0
8, 151860, Note_off_c, 5, 41, 0
8, 151860, Note_off_c, 5, 45, 0
8, 151860, Note_on_c, 5, 53, 100
8, 151860, Note_on_c, 5, 57, 100
8, 151860, Note_on_c, 5, 41, 100
8, 151860, Note_on_c, 5, 45, 100
8, 151890, Note_off_c, 5, 53, 0
8, 151890, Note_off_c, 5, 57, 0
8, 151890, Note_off_c, 5, 41, 0
8, 151890, Note_off_c, 5, 45, 0
8, 151890, Note_on_c, 5, 53, 100
8, 151890, Note_on_c, 5, 57, 100
8, 151890, Note_on_c, 5, 41, 100
8, 151890, Note_on_c, 5, 45, 100
8, 151920, Note_off_c, 5, 53, 0
8, 151920, Note_off_c, 5, 57, 0
8, 151920, Note_off_c, 5, 41, 0
8, 151920, Note_off_c, 5, 45, 0
8, 151920, Note_on_c, 5, 53, 100
8, 151920, Note_on_c, 5, 57, 100
8, 151920, Note_on_c, 5, 41, 100
8, 151920, Note_on_c, 5, 45, 100
8, 151950, Note_off_c, 5, 53, 0
8, 151950, Note_off_c, 5, 57, 0
8, 151950, Note_off_c, 5, 41, 0
8, 151950, Note_off_c, 5, 45, 0
8, 151950, Note_on_c, 5, 53, 100
8, 151950, Note_on_c, 5, 57, 100
8, 151950, Note_on_c, 5, 41, 100
8, 151950, Note_on_c, 5, 45, 100
8, 151980, Note_off_c, 5, 53, 0
8, 151980, Note_off_c, 5, 57, 0
8, 151980, Note_off_c, 5, 41, 0
8, 151980, Note_off_c, 5, 45, 0
8, 151980, Note_on_c, 5, 53, 100
8, 151980, Note_on_c, 5, 57, 100
8, 151980, Note_on_c, 5, 41, 100
8, 151980, Note_on_c, 5, 45, 100
8, 152010, Note_off_c, 5, 53, 0
8, 152010, Note_off_c, 5, 57, 0
8, 152010, Note_off_c, 5, 41, 0
8, 152010, Note_off_c, 5, 45, 0
8, 152010, Note_on_c, 5, 53, 100
8, 152010, Note_on_c, 5, 57, 100
8, 152010, Note_on_c, 5, 41, 100
8, 152010, Note_on_c, 5, 45, 100
8, 152040, Note_off_c, 5, 53, 0
8, 152040, Note_off_c, 5, 57, 0
8, 152040, Note_off_c, 5, 41, 0
8, 152040, Note_off_c, 5, 45, 0
8, 152040, Note_on_c, 5, 53, 100
8, 152040, Note_on_c, 5, 57, 100
8, 152040, Note_on_c, 5, 41, 100
8, 152040, Note_on_c, 5, 45, 100
8, 152070, Note_off_c, 5, 53, 0
8, 152070, Note_off_c, 5, 57, 0
8, 152070, Note_off_c, 5, 41, 0
8, 152070, Note_off_c, 5, 45, 0
8, 152070, Note_on_c, 5, 53, 100
8, 152070, Note_on_c, 5, 57, 100
8, 152070, Note_on_c, 5, 41, 100
8, 152070, Note_on_c, 5, 45, 100
8, 152100, Note_off_c, 5, 53, 0
8, 152100, Note_off_c, 5, 57, 0
8, 152100, Note_off_c, 5, 41, 0
8, 152100, Note_off_c, 5, 45, 0
8, 152100, Note_on_c, 5, 53, 100
8, 152100, Note_on_c, 5, 57, 100
8, 152100, Note_on_c, 5, 41, 100
8, 152100, Note_on_c, 5, 45, 100
8, 152130, Note_off_c, 5, 53, 0
8, 152130, Note_off_c, 5, 57, 0
8, 152130, Note_off_c, 5, 41, 0
8, 152130, Note_off_c, 5, 45, 0
8, 152130, Note_on_c, 5, 53, 100
8, 152130, Note_on_c, 5, 57, 100
8, 152130, Note_on_c, 5, 41, 100
8, 152130, Note_on_c, 5, 45, 100
8, 152160, Note_off_c, 5, 53, 0
8, 152160, Note_off_c, 5, 57, 0
8, 152160, Note_off_c, 5, 41, 0
8, 152160, Note_off_c, 5, 45, 0
8, 152160, Note_on_c, 5, 53, 100
8, 152160, Note_on_c, 5, 57, 100
8, 152160, Note_on_c, 5, 41, 100
8, 152160, Note_on_c, 5, 45, 100
8, 152190, Note_off_c, 5, 53, 0
8, 152190, Note_off_c, 5, 57, 0
8, 152190, Note_off_c, 5, 41, 0
8, 152190, Note_off_c, 5, 45, 0
8, 152190, Note_on_c, 5, 53, 100
8, 152190, Note_on_c, 5, 57, 100
8, 152190, Note_on_c, 5, 41, 100
8, 152190, Note_on_c, 5, 45, 100
8, 152220, Note_off_c, 5, 53, 0
8, 152220, Note_off_c, 5, 57, 0
8, 152220, Note_off_c, 5, 41, 0
8, 152220, Note_off_c, 5, 45, 0
8, 152220, Note_on_c, 5, 53, 100
8, 152220, Note_on_c, 5, 57, 100
8, 152220, Note_on_c, 5, 41, 100
8, 152220, Note_on_c, 5, 45, 100
8, 152250, Note_off_c, 5, 53, 0
8, 152250, Note_off_c, 5, 57, 0
8, 152250, Note_off_c, 5, 41, 0
8, 152250, Note_off_c, 5, 45, 0
8, 152250, Note_on_c, 5, 53, 100
8, 152250, Note_on_c, 5, 57, 100
8, 152250, Note_on_c, 5, 41, 100
8, 152250, Note_on_c, 5, 45, 100
8, 152280, Note_off_c, 5, 53, 0
8, 152280, Note_off_c, 5, 57, 0
8, 152280, Note_off_c, 5, 41, 0
8, 152280, Note_off_c, 5, 45, 0
8, 152280, Note_on_c, 5, 53, 100
8, 152280, Note_on_c, 5, 57, 100
8, 152280, Note_on_c, 5, 41, 100
8, 152280, Note_on_c, 5, 45, 100
8, 152310, Note_off_c, 5, 53, 0
8, 152310, Note_off_c, 5, 57, 0
8, 152310, Note_off_c, 5, 41, 0
8, 152310, Note_off_c, 5, 45, 0
8, 152310, Note_on_c, 5, 53, 100
8, 152310, Note_on_c, 5, 57, 100
8, 152310, Note_on_c, 5, 41, 100
8, 152310, Note_on_c, 5, 45, 100
8, 152340, Note_off_c, 5, 53, 0
8, 152340, Note_off_c, 5, 57, 0
8, 152340, Note_off_c, 5, 41, 0
8, 152340, Note_off_c, 5, 45, 0
8, 152340, Note_on_c, 5, 53, 100
8, 152340, Note_on_c, 5, 57, 100
8, 152340, Note_on_c, 5, 41, 100
8, 152340, Note_on_c, 5, 45, 100
8, 152370, Note_off_c, 5, 53, 0
8, 152370, Note_off_c, 5, 57, 0
8, 152370, Note_off_c, 5, 41, 0
8, 152370, Note_off_c, 5, 45, 0
8, 152370, Note_on_c, 5, 53, 100
8, 152370, Note_on_c, 5, 57, 100
8, 152370, Note_on_c, 5, 41, 100
8, 152370, Note_on_c, 5, 45, 100
8, 152400, Note_off_c, 5, 53, 0
8, 152400, Note_off_c, 5, 57, 0
8, 152400, Note_off_c, 5, 41, 0
8, 152400, Note_off_c, 5, 45, 0
8, 152400, Note_on_c, 5, 53, 100
8, 152400, Note_on_c, 5, 57, 100
8, 152400, Note_on_c, 5, 41, 100
8, 152400, Note_on_c, 5, 45, 100
8, 152430, Note_off_c, 5, 53, 0
8, 152430, Note_off_c, 5, 57, 0
8, 152430, Note_off_c, 5, 41, 0
8, 152430, Note_off_c, 5, 45, 0
8, 152430, Note_on_c, 5, 53, 100
8, 152430, Note_on_c, 5, 57, 100
8, 152430, Note_on_c, 5, 41, 100
8, 152430, Note_on_c, 5, 45, 100
8, 152460, Note_off_c, 5, 53, 0
8, 152460, Note_off_c, 5, 57, 0
8, 152460, Note_off_c, 5, 41, 0
8, 152460, Note_off_c, 5, 45, 0
8, 152460, Note_on_c, 5, 53, 100
8, 152460, Note_on_c, 5, 57, 100
8, 152460, Note_on_c, 5, 41, 100
8, 152460, Note_on_c, 5, 45, 100
8, 152490, Note_off_c, 5, 53, 0
8, 152490, Note_off_c, 5, 57, 0
8, 152490, Note_off_c, 5, 41, 0
8, 152490, Note_off_c, 5, 45, 0
8, 152490, Note_on_c, 5, 53, 100
8, 152490, Note_on_c, 5, 57, 100
8, 152490, Note_on_c, 5, 41, 100
8, 152490, Note_on_c, 5, 45, 100
8, 152520, Note_off_c, 5, 53, 0
8, 152520, Note_off_c, 5, 57, 0
8, 152520, Note_off_c, 5, 41, 0
8, 152520, Note_off_c, 5, 45, 0
8, 152520, Note_on_c, 5, 53, 100
8, 152520, Note_on_c, 5, 57, 100
8, 152520, Note_on_c, 5, 41, 100
8, 152520, Note_on_c, 5, 45, 100
8, 152550, Note_off_c, 5, 53, 0
8, 152550, Note_off_c, 5, 57, 0
8, 152550, Note_off_c, 5, 41, 0
8, 152550, Note_off_c, 5, 45, 0
8, 152550, Note_on_c, 5, 53, 100
8, 152550, Note_on_c, 5, 57, 100
8, 152550, Note_on_c, 5, 41, 100
8, 152550, Note_on_c, 5, 45, 100
8, 152580, Note_off_c, 5, 53, 0
8, 152580, Note_off_c, 5, 57, 0
8, 152580, Note_off_c, 5, 41, 0
8, 152580, Note_off_c, 5, 45, 0
8, 152580, Note_on_c, 5, 53, 100
8, 152580, Note_on_c, 5, 57, 100
8, 152580, Note_on_c, 5, 41, 100
8, 152580, Note_on_c, 5, 45, 100
8, 152610, Note_off_c, 5, 53, 0
8, 152610, Note_off_c, 5, 57, 0
8, 152610, Note_off_c, 5, 41, 0
8, 152610, Note_off_c, 5, 45, 0
8, 152610, Note_on_c, 5, 53, 100
8, 152610, Note_on_c, 5, 57, 100
8, 152610, Note_on_c, 5, 41, 100
8, 152610, Note_on_c, 5, 45, 100
8, 152640, Note_off_c, 5, 53, 0
8, 152640, Note_off_c, 5, 57, 0
8, 152640, Note_off_c, 5, 41, 0
8, 152640, Note_off_c, 5, 45, 0
8, 152640, Note_on_c, 5, 53, 100
8, 152640, Note_on_c, 5, 57, 100
8, 152640, Note_on_c, 5, 41, 100
8, 152640, Note_on_c, 5, 45, 100
8, 152670, Note_off_c, 5, 53, 0
8, 152670, Note_off_c, 5, 57, 0
8, 152670, Note_off_c, 5, 41, 0
8, 152670, Note_off_c, 5, 45, 0
8, 152670, Note_on_c, 5, 53, 100
8, 152670, Note_on_c, 5, 57, 100
8, 152670, Note_on_c, 5, 41, 100
8, 152670, Note_on_c, 5, 45, 100
8, 152700, Note_off_c, 5, 53, 0
8, 152700, Note_off_c, 5, 57, 0
8, 152700, Note_off_c, 5, 41, 0
8, 152700, Note_off_c, 5, 45, 0
8, 152700, Note_on_c, 5, 53, 100
8, 152700, Note_on_c, 5, 57, 100
8, 152700, Note_on_c, 5, 41, 100
8, 152700, Note_on_c, 5, 45, 100
8, 152730, Note_off_c, 5, 53, 0
8, 152730, Note_off_c, 5, 57, 0
8, 152730, Note_off_c, 5, 41, 0
8, 152730, Note_off_c, 5, 45, 0
8, 152730, Note_on_c, 5, 53, 100
8, 152730, Note_on_c, 5, 57, 100
8, 152730, Note_on_c, 5, 41, 100
8, 152730, Note_on_c, 5, 45, 100
8, 152760, Note_off_c, 5, 53, 0
8, 152760, Note_off_c, 5, 57, 0
8, 152760, Note_off_c, 5, 41, 0
8, 152760, Note_off_c, 5, 45, 0
8, 152760, Note_on_c, 5, 53, 100
8, 152760, Note_on_c, 5, 57, 100
8, 152760, Note_on_c, 5, 41, 100
8, 152760, Note_on_c, 5, 45, 100
8, 152790, Note_off_c, 5, 53, 0
8, 152790, Note_off_c, 5, 57, 0
8, 152790, Note_off_c, 5, 41, 0
8, 152790, Note_off_c, 5, 45, 0
8, 152790, Note_on_c, 5, 53, 100
8, 152790, Note_on_c, 5, 57, 100
8, 152790, Note_on_c, 5, 41, 100
8, 152790, Note_on_c, 5, 45, 100
8, 152820, Note_off_c, 5, 53, 0
8, 152820, Note_off_c, 5, 57, 0
8, 152820, Note_off_c, 5, 41, 0
8, 152820, Note_off_c, 5, 45, 0
8, 152820, Note_on_c, 5, 53, 100
8, 152820, Note_on_c, 5, 57, 100
8, 152820, Note_on_c, 5, 41, 100
8, 152820, Note_on_c, 5, 45, 100
8, 152850, Note_off_c, 5, 53, 0
8, 152850, Note_off_c, 5, 57, 0
8, 152850, Note_off_c, 5, 41, 0
8, 152850, Note_off_c, 5, 45, 0
8, 152850, Note_on_c, 5, 53, 100
8, 152850, Note_on_c, 5, 57, 100
8, 152850, Note_on_c, 5, 41, 100
8, 152850, Note_on_c, 5, 45, 100
8, 152880, Note_off_c, 5, 53, 0
8, 152880, Note_off_c, 5, 57, 0
8, 152880, Note_off_c, 5, 41, 0
8, 152880, Note_off_c, 5, 45, 0
8, 152880, Note_on_c, 5, 53, 100
8, 152880, Note_on_c, 5, 57, 100
8, 152880, Note_on_c, 5, 41, 100
8, 152880, Note_on_c, 5, 45, 100
8, 152910, Note_off_c, 5, 53, 0
8, 152910, Note_off_c, 5, 57, 0
8, 152910, Note_off_c, 5, 41, 0
8, 152910, Note_off_c, 5, 45, 0
8, 152910, Note_on_c, 5, 53, 100
8, 152910, Note_on_c, 5, 57, 100
8, 152910, Note_on_c, 5, 41, 100
8, 152910, Note_on_c, 5, 45, 100
8, 152940, Note_off_c, 5, 53, 0
8, 152940, Note_off_c, 5, 57, 0
8, 152940, Note_off_c, 5, 41, 0
8, 152940, Note_off_c, 5, 45, 0
8, 152940, Note_on_c, 5, 53, 100
8, 152940, Note_on_c, 5, 57, 100
8, 152940, Note_on_c, 5, 41, 100
8, 152940, Note_on_c, 5, 45, 100
8, 152970, Note_off_c, 5, 53, 0
8, 152970, Note_off_c, 5, 57, 0
8, 152970, Note_off_c, 5, 41, 0
8, 152970, Note_off_c, 5, 45, 0
8, 152970, Note_on_c, 5, 53, 100
8, 152970, Note_on_c, 5, 57, 100
8, 152970, Note_on_c, 5, 41, 100
8, 152970, Note_on_c, 5, 45, 100
8, 153000, Note_off_c, 5, 53, 0
8, 153000, Note_off_c, 5, 57, 0
8, 153000, Note_off_c, 5, 41, 0
8, 153000, Note_off_c, 5, 45, 0
8, 153000, Note_on_c, 5, 53, 100
8, 153000, Note_on_c, 5, 57, 100
8, 153000, Note_on_c, 5, 41, 100
8, 153000, Note_on_c, 5, 45, 100
8, 153030, Note_off_c, 5, 53, 0
8, 153030, Note_off_c, 5, 57, 0
8, 153030, Note_off_c, 5, 41, 0
8, 153030, Note_off_c, 5, 45, 0
8, 153030, Note_on_c, 5, 53, 100
8, 153030, Note_on_c, 5, 57, 100
8, 153030, Note_on_c, 5, 41, 100
8, 153030, Note_on_c, 5, 45, 100
8, 153060, Note_off_c, 5, 53, 0
8, 153060, Note_off_c, 5, 57, 0
8, 153060, Note_off_c, 5, 41, 0
8, 153060, Note_off_c, 5, 45, 0
8, 153060, Note_on_c, 5, 53, 100
8, 153060, Note_on_c, 5, 57, 100
8, 153060, Note_on_c, 5, 41, 100
8, 153060, Note_on_c, 5, 45, 100
8, 153090, Note_off_c, 5, 53, 0
8, 153090, Note_off_c, 5, 57, 0
8, 153090, Note_off_c, 5, 41, 0
8, 153090, Note_off_c, 5, 45, 0
8, 153090, Note_on_c, 5, 53, 100
8, 153090, Note_on_c, 5, 57, 100
8, 153090, Note_on_c, 5, 41, 100
8, 153090, Note_on_c, 5, 45, 100
8, 153120, Note_off_c, 5, 53, 0
8, 153120, Note_off_c, 5, 57, 0
8, 153120, Note_off_c, 5, 41, 0
8, 153120, Note_off_c, 5, 45, 0
8, 153120, End_track
9, 0, Start_track
9, 0, Title_t, ""
9, 0, MIDI_port, 0
9, 135840, Note_on_c, 6, 89, 1
9, 135840, Note_on_c, 6, 84, 1
9, 135840, Note_on_c, 6, 77, 1
9, 135840, Note_on_c, 6, 93, 1
9, 135840, Note_on_c, 6, 101, 1
9, 135840, Note_on_c, 6, 96, 1
9, 135840, Note_on_c, 6, 105, 1
9, 135855, Note_off_c, 6, 89, 0
9, 135855, Note_off_c, 6, 84, 0
9, 135855, Note_off_c, 6, 77, 0
9, 135855, Note_off_c, 6, 93, 0
9, 135855, Note_off_c, 6, 101, 0
9, 135855, Note_off_c, 6, 96, 0
9, 135855, Note_off_c, 6, 105, 0
9, 135855, Note_on_c, 6, 89, 1
9, 135855, Note_on_c, 6, 84, 1
9, 135855, Note_on_c, 6, 77, 1
9, 135855, Note_on_c, 6, 93, 1
9, 135855, Note_on_c, 6, 101, 1
9, 135855, Note_on_c, 6, 96, 1
9, 135855, Note_on_c, 6, 105, 1
9, 135870, Note_off_c, 6, 89, 0
9, 135870, Note_off_c, 6, 84, 0
9, 135870, Note_off_c, 6, 77, 0
9, 135870, Note_off_c, 6, 93, 0
9, 135870, Note_off_c, 6, 101, 0
9, 135870, Note_off_c, 6, 96, 0
9, 135870, Note_off_c, 6, 105, 0
9, 135870, Note_on_c, 6, 89, 1
9, 135870, Note_on_c, 6, 84, 1
9, 135870, Note_on_c, 6, 77, 1
9, 135870, Note_on_c, 6, 93, 1
9, 135870, Note_on_c, 6, 101, 1
9, 135870, Note_on_c, 6, 96, 1
9, 135870, Note_on_c, 6, 105, 1
9, 135885, Note_off_c, 6, 89, 0
9, 135885, Note_off_c, 6, 84, 0
9, 135885, Note_off_c, 6, 77, 0
9, 135885, Note_off_c, 6, 93, 0
9, 135885, Note_off_c, 6, 101, 0
9, 135885, Note_off_c, 6, 96, 0
9, 135885, Note_off_c, 6, 105, 0
9, 135885, Note_on_c, 6, 89, 1
9, 135885, Note_on_c, 6, 84, 1
9, 135885, Note_on_c, 6, 77, 1
9, 135885, Note_on_c, 6, 93, 1
9, 135885, Note_on_c, 6, 101, 1
9, 135885, Note_on_c, 6, 96, 1
9, 135885, Note_on_c, 6, 105, 1
9, 135900, Note_off_c, 6, 89, 0
9, 135900, Note_off_c, 6, 84, 0
9, 135900, Note_off_c, 6, 77, 0
9, 135900, Note_off_c, 6, 93, 0
9, 135900, Note_off_c, 6, 101, 0
9, 135900, Note_off_c, 6, 96, 0
9, 135900, Note_off_c, 6, 105, 0
9, 135900, Note_on_c, 6, 89, 4
9, 135900, Note_on_c, 6, 84, 4
9, 135900, Note_on_c, 6, 77, 4
9, 135900, Note_on_c, 6, 93, 4
9, 135900, Note_on_c, 6, 101, 4
9, 135900, Note_on_c, 6, 96, 4
9, 135900, Note_on_c, 6, 105, 4
9, 135915, Note_off_c, 6, 89, 0
9, 135915, Note_off_c, 6, 84, 0
9, 135915, Note_off_c, 6, 77, 0
9, 135915, Note_off_c, 6, 93, 0
9, 135915, Note_off_c, 6, 101, 0
9, 135915, Note_off_c, 6, 96, 0
9, 135915, Note_off_c, 6, 105, 0
9, 135915, Note_on_c, 6, 89, 4
9, 135915, Note_on_c, 6, 84, 4
9, 135915, Note_on_c, 6, 77, 4
9, 135915, Note_on_c, 6, 93, 4
9, 135915, Note_on_c, 6, 101, 4
9, 135915, Note_on_c, 6, 96, 4
9, 135915, Note_on_c, 6, 105, 4
9, 135930, Note_off_c, 6, 89, 0
9, 135930, Note_off_c, 6, 84, 0
9, 135930, Note_off_c, 6, 77, 0
9, 135930, Note_off_c, 6, 93, 0
9, 135930, Note_off_c, 6, 101, 0
9, 135930, Note_off_c, 6, 96, 0
9, 135930, Note_off_c, 6, 105, 0
9, 135930, Note_on_c, 6, 89, 4
9, 135930, Note_on_c, 6, 84, 4
9, 135930, Note_on_c, 6, 77, 4
9, 135930, Note_on_c, 6, 93, 4
9, 135930, Note_on_c, 6, 101, 4
9, 135930, Note_on_c, 6, 96, 4
9, 135930, Note_on_c, 6, 105, 4
9, 135945, Note_off_c, 6, 89, 0
9, 135945, Note_off_c, 6, 84, 0
9, 135945, Note_off_c, 6, 77, 0
9, 135945, Note_off_c, 6, 93, 0
9, 135945, Note_off_c, 6, 101, 0
9, 135945, Note_off_c, 6, 96, 0
9, 135945, Note_off_c, 6, 105, 0
9, 135945, Note_on_c, 6, 89, 7
9, 135945, Note_on_c, 6, 84, 7
9, 135945, Note_on_c, 6, 77, 7
9, 135945, Note_on_c, 6, 93, 7
9, 135945, Note_on_c, 6, 101, 7
9, 135945, Note_on_c, 6, 96, 7
9, 135945, Note_on_c, 6, 105, 7
9, 135960, Note_off_c, 6, 89, 0
9, 135960, Note_off_c, 6, 84, 0
9, 135960, Note_off_c, 6, 77, 0
9, 135960, Note_off_c, 6, 93, 0
9, 135960, Note_off_c, 6, 101, 0
9, 135960, Note_off_c, 6, 96, 0
9, 135960, Note_off_c, 6, 105, 0
9, 135960, Note_on_c, 6, 89, 7
9, 135960, Note_on_c, 6, 84, 7
9, 135960, Note_on_c, 6, 77, 7
9, 135960, Note_on_c, 6, 93, 7
9, 135960, Note_on_c, 6, 101, 7
9, 135960, Note_on_c, 6, 96, 7
9, 135960, Note_on_c, 6, 105, 7
9, 135975, Note_off_c, 6, 89, 0
9, 135975, Note_off_c, 6, 84, 0
9, 135975, Note_off_c, 6, 77, 0
9, 135975, Note_off_c, 6, 93, 0
9, 135975, Note_off_c, 6, 101, 0
9, 135975, Note_off_c, 6, 96, 0
9, 135975, Note_off_c, 6, 105, 0
9, 135975, Note_on_c, 6, 89, 7
9, 135975, Note_on_c, 6, 84, 7
9, 135975, Note_on_c, 6, 77, 7
9, 135975, Note_on_c, 6, 93, 7
9, 135975, Note_on_c, 6, 101, 7
9, 135975, Note_on_c, 6, 96, 7
9, 135975, Note_on_c, 6, 105, 7
9, 135990, Note_off_c, 6, 89, 0
9, 135990, Note_off_c, 6, 84, 0
9, 135990, Note_off_c, 6, 77, 0
9, 135990, Note_off_c, 6, 93, 0
9, 135990, Note_off_c, 6, 101, 0
9, 135990, Note_off_c, 6, 96, 0
9, 135990, Note_off_c, 6, 105, 0
9, 135990, Note_on_c, 6, 89, 10
9, 135990, Note_on_c, 6, 84, 10
9, 135990, Note_on_c, 6, 77, 10
9, 135990, Note_on_c, 6, 93, 10
9, 135990, Note_on_c, 6, 101, 10
9, 135990, Note_on_c, 6, 96, 10
9, 135990, Note_on_c, 6, 105, 10
9, 136005, Note_off_c, 6, 89, 0
9, 136005, Note_off_c, 6, 84, 0
9, 136005, Note_off_c, 6, 77, 0
9, 136005, Note_off_c, 6, 93, 0
9, 136005, Note_off_c, 6, 101, 0
9, 136005, Note_off_c, 6, 96, 0
9, 136005, Note_off_c, 6, 105, 0
9, 136005, Note_on_c, 6, 89, 10
9, 136005, Note_on_c, 6, 84, 10
9, 136005, Note_on_c, 6, 77, 10
9, 136005, Note_on_c, 6, 93, 10
9, 136005, Note_on_c, 6, 101, 10
9, 136005, Note_on_c, 6, 96, 10
9, 136005, Note_on_c, 6, 105, 10
9, 136020, Note_off_c, 6, 89, 0
9, 136020, Note_off_c, 6, 84, 0
9, 136020, Note_off_c, 6, 77, 0
9, 136020, Note_off_c, 6, 93, 0
9, 136020, Note_off_c, 6, 101, 0
9, 136020, Note_off_c, 6, 96, 0
9, 136020, Note_off_c, 6, 105, 0
9, 136020, Note_on_c, 6, 89, 10
9, 136020, Note_on_c, 6, 84, 10
9, 136020, Note_on_c, 6, 77, 10
9, 136020, Note_on_c, 6, 93, 10
9, 136020, Note_on_c, 6, 101, 10
9, 136020, Note_on_c, 6, 96, 10
9, 136020, Note_on_c, 6, 105, 10
9, 136035, Note_off_c, 6, 89, 0
9, 136035, Note_off_c, 6, 84, 0
9, 136035, Note_off_c, 6, 77, 0
9, 136035, Note_off_c, 6, 93, 0
9, 136035, Note_off_c, 6, 101, 0
9, 136035, Note_off_c, 6, 96, 0
9, 136035, Note_off_c, 6, 105, 0
9, 136035, Note_on_c, 6, 89, 14
9, 136035, Note_on_c, 6, 84, 14
9, 136035, Note_on_c, 6, 77, 14
9, 136035, Note_on_c, 6, 93, 14
9, 136035, Note_on_c, 6, 101, 14
9, 136035, Note_on_c, 6, 96, 14
9, 136035, Note_on_c, 6, 105, 14
9, 136050, Note_off_c, 6, 89, 0
9, 136050, Note_off_c, 6, 84, 0
9, 136050, Note_off_c, 6, 77, 0
9, 136050, Note_off_c, 6, 93, 0
9, 136050, Note_off_c, 6, 101, 0
9, 136050, Note_off_c, 6, 96, 0
9, 136050, Note_off_c, 6, 105, 0
9, 136050, Note_on_c, 6, 89, 14
9, 136050, Note_on_c, 6, 84, 14
9, 136050, Note_on_c, 6, 77, 14
9, 136050, Note_on_c, 6, 93, 14
9, 136050, Note_on_c, 6, 101, 14
9, 136050, Note_on_c, 6, 96, 14
9, 136050, Note_on_c, 6, 105, 14
9, 136065, Note_off_c, 6, 89, 0
9, 136065, Note_off_c, 6, 84, 0
9, 136065, Note_off_c, 6, 77, 0
9, 136065, Note_off_c, 6, 93, 0
9, 136065, Note_off_c, 6, 101, 0
9, 136065, Note_off_c, 6, 96, 0
9, 136065, Note_off_c, 6, 105, 0
9, 136065, Note_on_c, 6, 89, 14
9, 136065, Note_on_c, 6, 84, 14
9, 136065, Note_on_c, 6, 77, 14
9, 136065, Note_on_c, 6, 93, 14
9, 136065, Note_on_c, 6, 101, 14
9, 136065, Note_on_c, 6, 96, 14
9, 136065, Note_on_c, 6, 105, 14
9, 136080, Note_off_c, 6, 89, 0
9, 136080, Note_off_c, 6, 84, 0
9, 136080, Note_off_c, 6, 77, 0
9, 136080, Note_off_c, 6, 93, 0
9, 136080, Note_off_c, 6, 101, 0
9, 136080, Note_off_c, 6, 96, 0
9, 136080, Note_off_c, 6, 105, 0
9, 136080, Note_on_c, 6, 89, 17
9, 136080, Note_on_c, 6, 84, 17
9, 136080, Note_on_c, 6, 77, 17
9, 136080, Note_on_c, 6, 93, 17
9, 136080, Note_on_c, 6, 101, 17
9, 136080, Note_on_c, 6, 96, 17
9, 136080, Note_on_c, 6, 105, 17
9, 136095, Note_off_c, 6, 89, 0
9, 136095, Note_off_c, 6, 84, 0
9, 136095, Note_off_c, 6, 77, 0
9, 136095, Note_off_c, 6, 93, 0
9, 136095, Note_off_c, 6, 101, 0
9, 136095, Note_off_c, 6, 96, 0
9, 136095, Note_off_c, 6, 105, 0
9, 136095, Note_on_c, 6, 89, 17
9, 136095, Note_on_c, 6, 84, 17
9, 136095, Note_on_c, 6, 77, 17
9, 136095, Note_on_c, 6, 93, 17
9, 136095, Note_on_c, 6, 101, 17
9, 136095, Note_on_c, 6, 96, 17
9, 136095, Note_on_c, 6, 105, 17
9, 136110, Note_off_c, 6, 89, 0
9, 136110, Note_off_c, 6, 84, 0
9, 136110, Note_off_c, 6, 77, 0
9, 136110, Note_off_c, 6, 93, 0
9, 136110, Note_off_c, 6, 101, 0
9, 136110, Note_off_c, 6, 96, 0
9, 136110, Note_off_c, 6, 105, 0
9, 136110, Note_on_c, 6, 89, 17
9, 136110, Note_on_c, 6, 84, 17
9, 136110, Note_on_c, 6, 77, 17
9, 136110, Note_on_c, 6, 93, 17
9, 136110, Note_on_c, 6, 101, 17
9, 136110, Note_on_c, 6, 96, 17
9, 136110, Note_on_c, 6, 105, 17
9, 136125, Note_off_c, 6, 89, 0
9, 136125, Note_off_c, 6, 84, 0
9, 136125, Note_off_c, 6, 77, 0
9, 136125, Note_off_c, 6, 93, 0
9, 136125, Note_off_c, 6, 101, 0
9, 136125, Note_off_c, 6, 96, 0
9, 136125, Note_off_c, 6, 105, 0
9, 136125, Note_on_c, 6, 89, 17
9, 136125, Note_on_c, 6, 84, 17
9, 136125, Note_on_c, 6, 77, 17
9, 136125, Note_on_c, 6, 93, 17
9, 136125, Note_on_c, 6, 101, 17
9, 136125, Note_on_c, 6, 96, 17
9, 136125, Note_on_c, 6, 105, 17
9, 136140, Note_off_c, 6, 89, 0
9, 136140, Note_off_c, 6, 84, 0
9, 136140, Note_off_c, 6, 77, 0
9, 136140, Note_off_c, 6, 93, 0
9, 136140, Note_off_c, 6, 101, 0
9, 136140, Note_off_c, 6, 96, 0
9, 136140, Note_off_c, 6, 105, 0
9, 136140, Note_on_c, 6, 89, 20
9, 136140, Note_on_c, 6, 84, 20
9, 136140, Note_on_c, 6, 77, 20
9, 136140, Note_on_c, 6, 93, 20
9, 136140, Note_on_c, 6, 101, 20
9, 136140, Note_on_c, 6, 96, 20
9, 136140, Note_on_c, 6, 105, 20
9, 136155, Note_off_c, 6, 89, 0
9, 136155, Note_off_c, 6, 84, 0
9, 136155, Note_off_c, 6, 77, 0
9, 136155, Note_off_c, 6, 93, 0
9, 136155, Note_off_c, 6, 101, 0
9, 136155, Note_off_c, 6, 96, 0
9, 136155, Note_off_c, 6, 105, 0
9, 136155, Note_on_c, 6, 89, 20
9, 136155, Note_on_c, 6, 84, 20
9, 136155, Note_on_c, 6, 77, 20
9, 136155, Note_on_c, 6, 93, 20
9, 136155, Note_on_c, 6, 101, 20
9, 136155, Note_on_c, 6, 96, 20
9, 136155, Note_on_c, 6, 105, 20
9, 136170, Note_off_c, 6, 89, 0
9, 136170, Note_off_c, 6, 84, 0
9, 136170, Note_off_c, 6, 77, 0
9, 136170, Note_off_c, 6, 93, 0
9, 136170, Note_off_c, 6, 101, 0
9, 136170, Note_off_c, 6, 96, 0
9, 136170, Note_off_c, 6, 105, 0
9, 136170, Note_on_c, 6, 89, 20
9, 136170, Note_on_c, 6, 84, 20
9, 136170, Note_on_c, 6, 77, 20
9, 136170, Note_on_c, 6, 93, 20
9, 136170, Note_on_c, 6, 101, 20
9, 136170, Note_on_c, 6, 96, 20
9, 136170, Note_on_c, 6, 105, 20
9, 136185, Note_off_c, 6, 89, 0
9, 136185, Note_off_c, 6, 84, 0
9, 136185, Note_off_c, 6, 77, 0
9, 136185, Note_off_c, 6, 93, 0
9, 136185, Note_off_c, 6, 101, 0
9, 136185, Note_off_c, 6, 96, 0
9, 136185, Note_off_c, 6, 105, 0
9, 136185, Note_on_c, 6, 89, 23
9, 136185, Note_on_c, 6, 84, 23
9, 136185, Note_on_c, 6, 77, 23
9, 136185, Note_on_c, 6, 93, 23
9, 136185, Note_on_c, 6, 101, 23
9, 136185, Note_on_c, 6, 96, 23
9, 136185, Note_on_c, 6, 105, 23
9, 136200, Note_off_c, 6, 89, 0
9, 136200, Note_off_c, 6, 84, 0
9, 136200, Note_off_c, 6, 77, 0
9, 136200, Note_off_c, 6, 93, 0
9, 136200, Note_off_c, 6, 101, 0
9, 136200, Note_off_c, 6, 96, 0
9, 136200, Note_off_c, 6, 105, 0
9, 136200, Note_on_c, 6, 89, 23
9, 136200, Note_on_c, 6, 84, 23
9, 136200, Note_on_c, 6, 77, 23
9, 136200, Note_on_c, 6, 93, 23
9, 136200, Note_on_c, 6, 101, 23
9, 136200, Note_on_c, 6, 96, 23
9, 136200, Note_on_c, 6, 105, 23
9, 136215, Note_off_c, 6, 89, 0
9, 136215, Note_off_c, 6, 84, 0
9, 136215, Note_off_c, 6, 77, 0
9, 136215, Note_off_c, 6, 93, 0
9, 136215, Note_off_c, 6, 101, 0
9, 136215, Note_off_c, 6, 96, 0
9, 136215, Note_off_c, 6, 105, 0
9, 136215, Note_on_c, 6, 89, 23
9, 136215, Note_on_c, 6, 84, 23
9, 136215, Note_on_c, 6, 77, 23
9, 136215, Note_on_c, 6, 93, 23
9, 136215, Note_on_c, 6, 101, 23
9, 136215, Note_on_c, 6, 96, 23
9, 136215, Note_on_c, 6, 105, 23
9, 136230, Note_off_c, 6, 89, 0
9, 136230, Note_off_c, 6, 84, 0
9, 136230, Note_off_c, 6, 77, 0
9, 136230, Note_off_c, 6, 93, 0
9, 136230, Note_off_c, 6, 101, 0
9, 136230, Note_off_c, 6, 96, 0
9, 136230, Note_off_c, 6, 105, 0
9, 136230, Note_on_c, 6, 89, 26
9, 136230, Note_on_c, 6, 84, 26
9, 136230, Note_on_c, 6, 77, 26
9, 136230, Note_on_c, 6, 93, 26
9, 136230, Note_on_c, 6, 101, 26
9, 136230, Note_on_c, 6, 96, 26
9, 136230, Note_on_c, 6, 105, 26
9, 136245, Note_off_c, 6, 89, 0
9, 136245, Note_off_c, 6, 84, 0
9, 136245, Note_off_c, 6, 77, 0
9, 136245, Note_off_c, 6, 93, 0
9, 136245, Note_off_c, 6, 101, 0
9, 136245, Note_off_c, 6, 96, 0
9, 136245, Note_off_c, 6, 105, 0
9, 136245, Note_on_c, 6, 89, 26
9, 136245, Note_on_c, 6, 84, 26
9, 136245, Note_on_c, 6, 77, 26
9, 136245, Note_on_c, 6, 93, 26
9, 136245, Note_on_c, 6, 101, 26
9, 136245, Note_on_c, 6, 96, 26
9, 136245, Note_on_c, 6, 105, 26
9, 136260, Note_off_c, 6, 89, 0
9, 136260, Note_off_c, 6, 84, 0
9, 136260, Note_off_c, 6, 77, 0
9, 136260, Note_off_c, 6, 93, 0
9, 136260, Note_off_c, 6, 101, 0
9, 136260, Note_off_c, 6, 96, 0
9, 136260, Note_off_c, 6, 105, 0
9, 136260, Note_on_c, 6, 89, 26
9, 136260, Note_on_c, 6, 84, 26
9, 136260, Note_on_c, 6, 77, 26
9, 136260, Note_on_c, 6, 93, 26
9, 136260, Note_on_c, 6, 101, 26
9, 136260, Note_on_c, 6, 96, 26
9, 136260, Note_on_c, 6, 105, 26
9, 136275, Note_off_c, 6, 89, 0
9, 136275, Note_off_c, 6, 84, 0
9, 136275, Note_off_c, 6, 77, 0
9, 136275, Note_off_c, 6, 93, 0
9, 136275, Note_off_c, 6, 101, 0
9, 136275, Note_off_c, 6, 96, 0
9, 136275, Note_off_c, 6, 105, 0
9, 136275, Note_on_c, 6, 89, 29
9, 136275, Note_on_c, 6, 84, 29
9, 136275, Note_on_c, 6, 77, 29
9, 136275, Note_on_c, 6, 93, 29
9, 136275, Note_on_c, 6, 101, 29
9, 136275, Note_on_c, 6, 96, 29
9, 136275, Note_on_c, 6, 105, 29
9, 136290, Note_off_c, 6, 89, 0
9, 136290, Note_off_c, 6, 84, 0
9, 136290, Note_off_c, 6, 77, 0
9, 136290, Note_off_c, 6, 93, 0
9, 136290, Note_off_c, 6, 101, 0
9, 136290, Note_off_c, 6, 96, 0
9, 136290, Note_off_c, 6, 105, 0
9, 136290, Note_on_c, 6, 89, 29
9, 136290, Note_on_c, 6, 84, 29
9, 136290, Note_on_c, 6, 77, 29
9, 136290, Note_on_c, 6, 93, 29
9, 136290, Note_on_c, 6, 101, 29
9, 136290, Note_on_c, 6, 96, 29
9, 136290, Note_on_c, 6, 105, 29
9, 136305, Note_off_c, 6, 89, 0
9, 136305, Note_off_c, 6, 84, 0
9, 136305, Note_off_c, 6, 77, 0
9, 136305, Note_off_c, 6, 93, 0
9, 136305, Note_off_c, 6, 101, 0
9, 136305, Note_off_c, 6, 96, 0
9, 136305, Note_off_c, 6, 105, 0
9, 136305, Note_on_c, 6, 89, 29
9, 136305, Note_on_c, 6, 84, 29
9, 136305, Note_on_c, 6, 77, 29
9, 136305, Note_on_c, 6, 93, 29
9, 136305, Note_on_c, 6, 101, 29
9, 136305, Note_on_c, 6, 96, 29
9, 136305, Note_on_c, 6, 105, 29
9, 136320, Note_off_c, 6, 89, 0
9, 136320, Note_off_c, 6, 84, 0
9, 136320, Note_off_c, 6, 77, 0
9, 136320, Note_off_c, 6, 93, 0
9, 136320, Note_off_c, 6, 101, 0
9, 136320, Note_off_c, 6, 96, 0
9, 136320, Note_off_c, 6, 105, 0
9, 136320, Note_on_c, 6, 89, 33
9, 136320, Note_on_c, 6, 84, 33
9, 136320, Note_on_c, 6, 77, 33
9, 136320, Note_on_c, 6, 93, 33
9, 136320, Note_on_c, 6, 101, 33
9, 136320, Note_on_c, 6, 96, 33
9, 136320, Note_on_c, 6, 105, 33
9, 136335, Note_off_c, 6, 89, 0
9, 136335, Note_off_c, 6, 84, 0
9, 136335, Note_off_c, 6, 77, 0
9, 136335, Note_off_c, 6, 93, 0
9, 136335, Note_off_c, 6, 101, 0
9, 136335, Note_off_c, 6, 96, 0
9, 136335, Note_off_c, 6, 105, 0
9, 136335, Note_on_c, 6, 89, 33
9, 136335, Note_on_c, 6, 84, 33
9, 136335, Note_on_c, 6, 77, 33
9, 136335, Note_on_c, 6, 93, 33
9, 136335, Note_on_c, 6, 101, 33
9, 136335, Note_on_c, 6, 96, 33
9, 136335, Note_on_c, 6, 105, 33
9, 136350, Note_off_c, 6, 89, 0
9, 136350, Note_off_c, 6, 84, 0
9, 136350, Note_off_c, 6, 77, 0
9, 136350, Note_off_c, 6, 93, 0
9, 136350, Note_off_c, 6, 101, 0
9, 136350, Note_off_c, 6, 96, 0
9, 136350, Note_off_c, 6, 105, 0
9, 136350, Note_on_c, 6, 89, 33
9, 136350, Note_on_c, 6, 84, 33
9, 136350, Note_on_c, 6, 77, 33
9, 136350, Note_on_c, 6, 93, 33
9, 136350, Note_on_c, 6, 101, 33
9, 136350, Note_on_c, 6, 96, 33
9, 136350, Note_on_c, 6, 105, 33
9, 136365, Note_off_c, 6, 89, 0
9, 136365, Note_off_c, 6, 84, 0
9, 136365, Note_off_c, 6, 77, 0
9, 136365, Note_off_c, 6, 93, 0
9, 136365, Note_off_c, 6, 101, 0
9, 136365, Note_off_c, 6, 96, 0
9, 136365, Note_off_c, 6, 105, 0
9, 136365, Note_on_c, 6, 89, 33
9, 136365, Note_on_c, 6, 84, 33
9, 136365, Note_on_c, 6, 77, 33
9, 136365, Note_on_c, 6, 93, 33
9, 136365, Note_on_c, 6, 101, 33
9, 136365, Note_on_c, 6, 96, 33
9, 136365, Note_on_c, 6, 105, 33
9, 136380, Note_off_c, 6, 89, 0
9, 136380, Note_off_c, 6, 84, 0
9, 136380, Note_off_c, 6, 77, 0
9, 136380, Note_off_c, 6, 93, 0
9, 136380, Note_off_c, 6, 101, 0
9, 136380, Note_off_c, 6, 96, 0
9, 136380, Note_off_c, 6, 105, 0
9, 136380, Note_on_c, 6, 89, 36
9, 136380, Note_on_c, 6, 84, 36
9, 136380, Note_on_c, 6, 77, 36
9, 136380, Note_on_c, 6, 93, 36
9, 136380, Note_on_c, 6, 101, 36
9, 136380, Note_on_c, 6, 96, 36
9, 136380, Note_on_c, 6, 105, 36
9, 136395, Note_off_c, 6, 89, 0
9, 136395, Note_off_c, 6, 84, 0
9, 136395, Note_off_c, 6, 77, 0
9, 136395, Note_off_c, 6, 93, 0
9, 136395, Note_off_c, 6, 101, 0
9, 136395, Note_off_c, 6, 96, 0
9, 136395, Note_off_c, 6, 105, 0
9, 136395, Note_on_c, 6, 89, 36
9, 136395, Note_on_c, 6, 84, 36
9, 136395, Note_on_c, 6, 77, 36
9, 136395, Note_on_c, 6, 93, 36
9, 136395, Note_on_c, 6, 101, 36
9, 136395, Note_on_c, 6, 96, 36
9, 136395, Note_on_c, 6, 105, 36
9, 136410, Note_off_c, 6, 89, 0
9, 136410, Note_off_c, 6, 84, 0
9, 136410, Note_off_c, 6, 77, 0
9, 136410, Note_off_c, 6, 93, 0
9, 136410, Note_off_c, 6, 101, 0
9, 136410, Note_off_c, 6, 96, 0
9, 136410, Note_off_c, 6, 105, 0
9, 136410, Note_on_c, 6, 89, 36
9, 136410, Note_on_c, 6, 84, 36
9, 136410, Note_on_c, 6, 77, 36
9, 136410, Note_on_c, 6, 93, 36
9, 136410, Note_on_c, 6, 101, 36
9, 136410, Note_on_c, 6, 96, 36
9, 136410, Note_on_c, 6, 105, 36
9, 136425, Note_off_c, 6, 89, 0
9, 136425, Note_off_c, 6, 84, 0
9, 136425, Note_off_c, 6, 77, 0
9, 136425, Note_off_c, 6, 93, 0
9, 136425, Note_off_c, 6, 101, 0
9, 136425, Note_off_c, 6, 96, 0
9, 136425, Note_off_c, 6, 105, 0
9, 136425, Note_on_c, 6, 89, 39
9, 136425, Note_on_c, 6, 84, 39
9, 136425, Note_on_c, 6, 77, 39
9, 136425, Note_on_c, 6, 93, 39
9, 136425, Note_on_c, 6, 101, 39
9, 136425, Note_on_c, 6, 96, 39
9, 136425, Note_on_c, 6, 105, 39
9, 136440, Note_off_c, 6, 89, 0
9, 136440, Note_off_c, 6, 84, 0
9, 136440, Note_off_c, 6, 77, 0
9, 136440, Note_off_c, 6, 93, 0
9, 136440, Note_off_c, 6, 101, 0
9, 136440, Note_off_c, 6, 96, 0
9, 136440, Note_off_c, 6, 105, 0
9, 136440, Note_on_c, 6, 89, 39
9, 136440, Note_on_c, 6, 84, 39
9, 136440, Note_on_c, 6, 77, 39
9, 136440, Note_on_c, 6, 93, 39
9, 136440, Note_on_c, 6, 101, 39
9, 136440, Note_on_c, 6, 96, 39
9, 136440, Note_on_c, 6, 105, 39
9, 136455, Note_off_c, 6, 89, 0
9, 136455, Note_off_c, 6, 84, 0
9, 136455, Note_off_c, 6, 77, 0
9, 136455, Note_off_c, 6, 93, 0
9, 136455, Note_off_c, 6, 101, 0
9, 136455, Note_off_c, 6, 96, 0
9, 136455, Note_off_c, 6, 105, 0
9, 136455, Note_on_c, 6, 89, 39
9, 136455, Note_on_c, 6, 84, 39
9, 136455, Note_on_c, 6, 77, 39
9, 136455, Note_on_c, 6, 93, 39
9, 136455, Note_on_c, 6, 101, 39
9, 136455, Note_on_c, 6, 96, 39
9, 136455, Note_on_c, 6, 105, 39
9, 136470, Note_off_c, 6, 89, 0
9, 136470, Note_off_c, 6, 84, 0
9, 136470, Note_off_c, 6, 77, 0
9, 136470, Note_off_c, 6, 93, 0
9, 136470, Note_off_c, 6, 101, 0
9, 136470, Note_off_c, 6, 96, 0
9, 136470, Note_off_c, 6, 105, 0
9, 136470, Note_on_c, 6, 89, 42
9, 136470, Note_on_c, 6, 84, 42
9, 136470, Note_on_c, 6, 77, 42
9, 136470, Note_on_c, 6, 93, 42
9, 136470, Note_on_c, 6, 101, 42
9, 136470, Note_on_c, 6, 96, 42
9, 136470, Note_on_c, 6, 105, 42
9, 136485, Note_off_c, 6, 89, 0
9, 136485, Note_off_c, 6, 84, 0
9, 136485, Note_off_c, 6, 77, 0
9, 136485, Note_off_c, 6, 93, 0
9, 136485, Note_off_c, 6, 101, 0
9, 136485, Note_off_c, 6, 96, 0
9, 136485, Note_off_c, 6, 105, 0
9, 136485, Note_on_c, 6, 89, 42
9, 136485, Note_on_c, 6, 84, 42
9, 136485, Note_on_c, 6, 77, 42
9, 136485, Note_on_c, 6, 93, 42
9, 136485, Note_on_c, 6, 101, 42
9, 136485, Note_on_c, 6, 96, 42
9, 136485, Note_on_c, 6, 105, 42
9, 136500, Note_off_c, 6, 89, 0
9, 136500, Note_off_c, 6, 84, 0
9, 136500, Note_off_c, 6, 77, 0
9, 136500, Note_off_c, 6, 93, 0
9, 136500, Note_off_c, 6, 101, 0
9, 136500, Note_off_c, 6, 96, 0
9, 136500, Note_off_c, 6, 105, 0
9, 136500, Note_on_c, 6, 89, 42
9, 136500, Note_on_c, 6, 84, 42
9, 136500, Note_on_c, 6, 77, 42
9, 136500, Note_on_c, 6, 93, 42
9, 136500, Note_on_c, 6, 101, 42
9, 136500, Note_on_c, 6, 96, 42
9, 136500, Note_on_c, 6, 105, 42
9, 136515, Note_off_c, 6, 89, 0
9, 136515, Note_off_c, 6, 84, 0
9, 136515, Note_off_c, 6, 77, 0
9, 136515, Note_off_c, 6, 93, 0
9, 136515, Note_off_c, 6, 101, 0
9, 136515, Note_off_c, 6, 96, 0
9, 136515, Note_off_c, 6, 105, 0
9, 136515, Note_on_c, 6, 89, 45
9, 136515, Note_on_c, 6, 84, 45
9, 136515, Note_on_c, 6, 77, 45
9, 136515, Note_on_c, 6, 93, 45
9, 136515, Note_on_c, 6, 101, 45
9, 136515, Note_on_c, 6, 96, 45
9, 136515, Note_on_c, 6, 105, 45
9, 136530, Note_off_c, 6, 89, 0
9, 136530, Note_off_c, 6, 84, 0
9, 136530, Note_off_c, 6, 77, 0
9, 136530, Note_off_c, 6, 93, 0
9, 136530, Note_off_c, 6, 101, 0
9, 136530, Note_off_c, 6, 96, 0
9, 136530, Note_off_c, 6, 105, 0
9, 136530, Note_on_c, 6, 89, 45
9, 136530, Note_on_c, 6, 84, 45
9, 136530, Note_on_c, 6, 77, 45
9, 136530, Note_on_c, 6, 93, 45
9, 136530, Note_on_c, 6, 101, 45
9, 136530, Note_on_c, 6, 96, 45
9, 136530, Note_on_c, 6, 105, 45
9, 136545, Note_off_c, 6, 89, 0
9, 136545, Note_off_c, 6, 84, 0
9, 136545, Note_off_c, 6, 77, 0
9, 136545, Note_off_c, 6, 93, 0
9, 136545, Note_off_c, 6, 101, 0
9, 136545, Note_off_c, 6, 96, 0
9, 136545, Note_off_c, 6, 105, 0
9, 136545, Note_on_c, 6, 89, 45
9, 136545, Note_on_c, 6, 84, 45
9, 136545, Note_on_c, 6, 77, 45
9, 136545, Note_on_c, 6, 93, 45
9, 136545, Note_on_c, 6, 101, 45
9, 136545, Note_on_c, 6, 96, 45
9, 136545, Note_on_c, 6, 105, 45
9, 136560, Note_off_c, 6, 89, 0
9, 136560, Note_off_c, 6, 84, 0
9, 136560, Note_off_c, 6, 77, 0
9, 136560, Note_off_c, 6, 93, 0
9, 136560, Note_off_c, 6, 101, 0
9, 136560, Note_off_c, 6, 96, 0
9, 136560, Note_off_c, 6, 105, 0
9, 136560, Note_on_c, 6, 89, 48
9, 136560, Note_on_c, 6, 84, 48
9, 136560, Note_on_c, 6, 77, 48
9, 136560, Note_on_c, 6, 93, 48
9, 136560, Note_on_c, 6, 101, 48
9, 136560, Note_on_c, 6, 96, 48
9, 136560, Note_on_c, 6, 105, 48
9, 136575, Note_off_c, 6, 89, 0
9, 136575, Note_off_c, 6, 84, 0
9, 136575, Note_off_c, 6, 77, 0
9, 136575, Note_off_c, 6, 93, 0
9, 136575, Note_off_c, 6, 101, 0
9, 136575, Note_off_c, 6, 96, 0
9, 136575, Note_off_c, 6, 105, 0
9, 136575, Note_on_c, 6, 89, 48
9, 136575, Note_on_c, 6, 84, 48
9, 136575, Note_on_c, 6, 77, 48
9, 136575, Note_on_c, 6, 93, 48
9, 136575, Note_on_c, 6, 101, 48
9, 136575, Note_on_c, 6, 96, 48
9, 136575, Note_on_c, 6, 105, 48
9, 136590, Note_off_c, 6, 89, 0
9, 136590, Note_off_c, 6, 84, 0
9, 136590, Note_off_c, 6, 77, 0
9, 136590, Note_off_c, 6, 93, 0
9, 136590, Note_off_c, 6, 101, 0
9, 136590, Note_off_c, 6, 96, 0
9, 136590, Note_off_c, 6, 105, 0
9, 136590, Note_on_c, 6, 89, 48
9, 136590, Note_on_c, 6, 84, 48
9, 136590, Note_on_c, 6, 77, 48
9, 136590, Note_on_c, 6, 93, 48
9, 136590, Note_on_c, 6, 101, 48
9, 136590, Note_on_c, 6, 96, 48
9, 136590, Note_on_c, 6, 105, 48
9, 136605, Note_off_c, 6, 89, 0
9, 136605, Note_off_c, 6, 84, 0
9, 136605, Note_off_c, 6, 77, 0
9, 136605, Note_off_c, 6, 93, 0
9, 136605, Note_off_c, 6, 101, 0
9, 136605, Note_off_c, 6, 96, 0
9, 136605, Note_off_c, 6, 105, 0
9, 136605, Note_on_c, 6, 89, 48
9, 136605, Note_on_c, 6, 84, 48
9, 136605, Note_on_c, 6, 77, 48
9, 136605, Note_on_c, 6, 93, 48
9, 136605, Note_on_c, 6, 101, 48
9, 136605, Note_on_c, 6, 96, 48
9, 136605, Note_on_c, 6, 105, 48
9, 136620, Note_off_c, 6, 89, 0
9, 136620, Note_off_c, 6, 84, 0
9, 136620, Note_off_c, 6, 77, 0
9, 136620, Note_off_c, 6, 93, 0
9, 136620, Note_off_c, 6, 101, 0
9, 136620, Note_off_c, 6, 96, 0
9, 136620, Note_off_c, 6, 105, 0
9, 136620, Note_on_c, 6, 89, 52
9, 136620, Note_on_c, 6, 84, 52
9, 136620, Note_on_c, 6, 77, 52
9, 136620, Note_on_c, 6, 93, 52
9, 136620, Note_on_c, 6, 101, 52
9, 136620, Note_on_c, 6, 96, 52
9, 136620, Note_on_c, 6, 105, 52
9, 136635, Note_off_c, 6, 89, 0
9, 136635, Note_off_c, 6, 84, 0
9, 136635, Note_off_c, 6, 77, 0
9, 136635, Note_off_c, 6, 93, 0
9, 136635, Note_off_c, 6, 101, 0
9, 136635, Note_off_c, 6, 96, 0
9, 136635, Note_off_c, 6, 105, 0
9, 136635, Note_on_c, 6, 89, 52
9, 136635, Note_on_c, 6, 84, 52
9, 136635, Note_on_c, 6, 77, 52
9, 136635, Note_on_c, 6, 93, 52
9, 136635, Note_on_c, 6, 101, 52
9, 136635, Note_on_c, 6, 96, 52
9, 136635, Note_on_c, 6, 105, 52
9, 136650, Note_off_c, 6, 89, 0
9, 136650, Note_off_c, 6, 84, 0
9, 136650, Note_off_c, 6, 77, 0
9, 136650, Note_off_c, 6, 93, 0
9, 136650, Note_off_c, 6, 101, 0
9, 136650, Note_off_c, 6, 96, 0
9, 136650, Note_off_c, 6, 105, 0
9, 136650, Note_on_c, 6, 89, 52
9, 136650, Note_on_c, 6, 84, 52
9, 136650, Note_on_c, 6, 77, 52
9, 136650, Note_on_c, 6, 93, 52
9, 136650, Note_on_c, 6, 101, 52
9, 136650, Note_on_c, 6, 96, 52
9, 136650, Note_on_c, 6, 105, 52
9, 136665, Note_off_c, 6, 89, 0
9, 136665, Note_off_c, 6, 84, 0
9, 136665, Note_off_c, 6, 77, 0
9, 136665, Note_off_c, 6, 93, 0
9, 136665, Note_off_c, 6, 101, 0
9, 136665, Note_off_c, 6, 96, 0
9, 136665, Note_off_c, 6, 105, 0
9, 136665, Note_on_c, 6, 89, 55
9, 136665, Note_on_c, 6, 84, 55
9, 136665, Note_on_c, 6, 77, 55
9, 136665, Note_on_c, 6, 93, 55
9, 136665, Note_on_c, 6, 101, 55
9, 136665, Note_on_c, 6, 96, 55
9, 136665, Note_on_c, 6, 105, 55
9, 136680, Note_off_c, 6, 89, 0
9, 136680, Note_off_c, 6, 84, 0
9, 136680, Note_off_c, 6, 77, 0
9, 136680, Note_off_c, 6, 93, 0
9, 136680, Note_off_c, 6, 101, 0
9, 136680, Note_off_c, 6, 96, 0
9, 136680, Note_off_c, 6, 105, 0
9, 136680, Note_on_c, 6, 89, 55
9, 136680, Note_on_c, 6, 84, 55
9, 136680, Note_on_c, 6, 77, 55
9, 136680, Note_on_c, 6, 93, 55
9, 136680, Note_on_c, 6, 101, 55
9, 136680, Note_on_c, 6, 96, 55
9, 136680, Note_on_c, 6, 105, 55
9, 136695, Note_off_c, 6, 89, 0
9, 136695, Note_off_c, 6, 84, 0
9, 136695, Note_off_c, 6, 77, 0
9, 136695, Note_off_c, 6, 93, 0
9, 136695, Note_off_c, 6, 101, 0
9, 136695, Note_off_c, 6, 96, 0
9, 136695, Note_off_c, 6, 105, 0
9, 136695, Note_on_c, 6, 89, 55
9, 136695, Note_on_c, 6, 84, 55
9, 136695, Note_on_c, 6, 77, 55
9, 136695, Note_on_c, 6, 93, 55
9, 136695, Note_on_c, 6, 101, 55
9, 136695, Note_on_c, 6, 96, 55
9, 136695, Note_on_c, 6, 105, 55
9, 136710, Note_off_c, 6, 89, 0
9, 136710, Note_off_c, 6, 84, 0
9, 136710, Note_off_c, 6, 77, 0
9, 136710, Note_off_c, 6, 93, 0
9, 136710, Note_off_c, 6, 101, 0
9, 136710, Note_off_c, 6, 96, 0
9, 136710, Note_off_c, 6, 105, 0
9, 136710, Note_on_c, 6, 89, 58
9, 136710, Note_on_c, 6, 84, 58
9, 136710, Note_on_c, 6, 77, 58
9, 136710, Note_on_c, 6, 93, 58
9, 136710, Note_on_c, 6, 101, 58
9, 136710, Note_on_c, 6, 96, 58
9, 136710, Note_on_c, 6, 105, 58
9, 136725, Note_off_c, 6, 89, 0
9, 136725, Note_off_c, 6, 84, 0
9, 136725, Note_off_c, 6, 77, 0
9, 136725, Note_off_c, 6, 93, 0
9, 136725, Note_off_c, 6, 101, 0
9, 136725, Note_off_c, 6, 96, 0
9, 136725, Note_off_c, 6, 105, 0
9, 136725, Note_on_c, 6, 89, 58
9, 136725, Note_on_c, 6, 84, 58
9, 136725, Note_on_c, 6, 77, 58
9, 136725, Note_on_c, 6, 93, 58
9, 136725, Note_on_c, 6, 101, 58
9, 136725, Note_on_c, 6, 96, 58
9, 136725, Note_on_c, 6, 105, 58
9, 136740, Note_off_c, 6, 89, 0
9, 136740, Note_off_c, 6, 84, 0
9, 136740, Note_off_c, 6, 77, 0
9, 136740, Note_off_c, 6, 93, 0
9, 136740, Note_off_c, 6, 101, 0
9, 136740, Note_off_c, 6, 96, 0
9, 136740, Note_off_c, 6, 105, 0
9, 136740, Note_on_c, 6, 89, 58
9, 136740, Note_on_c, 6, 84, 58
9, 136740, Note_on_c, 6, 77, 58
9, 136740, Note_on_c, 6, 93, 58
9, 136740, Note_on_c, 6, 101, 58
9, 136740, Note_on_c, 6, 96, 58
9, 136740, Note_on_c, 6, 105, 58
9, 136755, Note_off_c, 6, 89, 0
9, 136755, Note_off_c, 6, 84, 0
9, 136755, Note_off_c, 6, 77, 0
9, 136755, Note_off_c, 6, 93, 0
9, 136755, Note_off_c, 6, 101, 0
9, 136755, Note_off_c, 6, 96, 0
9, 136755, Note_off_c, 6, 105, 0
9, 136755, Note_on_c, 6, 89, 61
9, 136755, Note_on_c, 6, 84, 61
9, 136755, Note_on_c, 6, 77, 61
9, 136755, Note_on_c, 6, 93, 61
9, 136755, Note_on_c, 6, 101, 61
9, 136755, Note_on_c, 6, 96, 61
9, 136755, Note_on_c, 6, 105, 61
9, 136770, Note_off_c, 6, 89, 0
9, 136770, Note_off_c, 6, 84, 0
9, 136770, Note_off_c, 6, 77, 0
9, 136770, Note_off_c, 6, 93, 0
9, 136770, Note_off_c, 6, 101, 0
9, 136770, Note_off_c, 6, 96, 0
9, 136770, Note_off_c, 6, 105, 0
9, 136770, Note_on_c, 6, 89, 61
9, 136770, Note_on_c, 6, 84, 61
9, 136770, Note_on_c, 6, 77, 61
9, 136770, Note_on_c, 6, 93, 61
9, 136770, Note_on_c, 6, 101, 61
9, 136770, Note_on_c, 6, 96, 61
9, 136770, Note_on_c, 6, 105, 61
9, 136785, Note_off_c, 6, 89, 0
9, 136785, Note_off_c, 6, 84, 0
9, 136785, Note_off_c, 6, 77, 0
9, 136785, Note_off_c, 6, 93, 0
9, 136785, Note_off_c, 6, 101, 0
9, 136785, Note_off_c, 6, 96, 0
9, 136785, Note_off_c, 6, 105, 0
9, 136785, Note_on_c, 6, 89, 61
9, 136785, Note_on_c, 6, 84, 61
9, 136785, Note_on_c, 6, 77, 61
9, 136785, Note_on_c, 6, 93, 61
9, 136785, Note_on_c, 6, 101, 61
9, 136785, Note_on_c, 6, 96, 61
9, 136785, Note_on_c, 6, 105, 61
9, 136800, Note_off_c, 6, 89, 0
9, 136800, Note_off_c, 6, 84, 0
9, 136800, Note_off_c, 6, 77, 0
9, 136800, Note_off_c, 6, 93, 0
9, 136800, Note_off_c, 6, 101, 0
9, 136800, Note_off_c, 6, 96, 0
9, 136800, Note_off_c, 6, 105, 0
9, 136800, Note_on_c, 6, 89, 64
9, 136800, Note_on_c, 6, 84, 64
9, 136800, Note_on_c, 6, 77, 64
9, 136800, Note_on_c, 6, 93, 64
9, 136800, Note_on_c, 6, 101, 64
9, 136800, Note_on_c, 6, 96, 64
9, 136800, Note_on_c, 6, 105, 64
9, 136815, Note_off_c, 6, 89, 0
9, 136815, Note_off_c, 6, 84, 0
9, 136815, Note_off_c, 6, 77, 0
9, 136815, Note_off_c, 6, 93, 0
9, 136815, Note_off_c, 6, 101, 0
9, 136815, Note_off_c, 6, 96, 0
9, 136815, Note_off_c, 6, 105, 0
9, 136815, Note_on_c, 6, 89, 64
9, 136815, Note_on_c, 6, 84, 64
9, 136815, Note_on_c, 6, 77, 64
9, 136815, Note_on_c, 6, 93, 64
9, 136815, Note_on_c, 6, 101, 64
9, 136815, Note_on_c, 6, 96, 64
9, 136815, Note_on_c, 6, 105, 64
9, 136830, Note_off_c, 6, 89, 0
9, 136830, Note_off_c, 6, 84, 0
9, 136830, Note_off_c, 6, 77, 0
9, 136830, Note_off_c, 6, 93, 0
9, 136830, Note_off_c, 6, 101, 0
9, 136830, Note_off_c, 6, 96, 0
9, 136830, Note_off_c, 6, 105, 0
9, 136830, Note_on_c, 6, 89, 64
9, 136830, Note_on_c, 6, 84, 64
9, 136830, Note_on_c, 6, 77, 64
9, 136830, Note_on_c, 6, 93, 64
9, 136830, Note_on_c, 6, 101, 64
9, 136830, Note_on_c, 6, 96, 64
9, 136830, Note_on_c, 6, 105, 64
9, 136845, Note_off_c, 6, 89, 0
9, 136845, Note_off_c, 6, 84, 0
9, 136845, Note_off_c, 6, 77, 0
9, 136845, Note_off_c, 6, 93, 0
9, 136845, Note_off_c, 6, 101, 0
9, 136845, Note_off_c, 6, 96, 0
9, 136845, Note_off_c, 6, 105, 0
9, 136845, Note_on_c, 6, 89, 64
9, 136845, Note_on_c, 6, 84, 64
9, 136845, Note_on_c, 6, 77, 64
9, 136845, Note_on_c, 6, 93, 64
9, 136845, Note_on_c, 6, 101, 64
9, 136845, Note_on_c, 6, 96, 64
9, 136845, Note_on_c, 6, 105, 64
9, 136860, Note_off_c, 6, 89, 0
9, 136860, Note_off_c, 6, 84, 0
9, 136860, Note_off_c, 6, 77, 0
9, 136860, Note_off_c, 6, 93, 0
9, 136860, Note_off_c, 6, 101, 0
9, 136860, Note_off_c, 6, 96, 0
9, 136860, Note_off_c, 6, 105, 0
9, 136860, Note_on_c, 6, 89, 67
9, 136860, Note_on_c, 6, 84, 67
9, 136860, Note_on_c, 6, 77, 67
9, 136860, Note_on_c, 6, 93, 67
9, 136860, Note_on_c, 6, 101, 67
9, 136860, Note_on_c, 6, 96, 67
9, 136860, Note_on_c, 6, 105, 67
9, 136875, Note_off_c, 6, 89, 0
9, 136875, Note_off_c, 6, 84, 0
9, 136875, Note_off_c, 6, 77, 0
9, 136875, Note_off_c, 6, 93, 0
9, 136875, Note_off_c, 6, 101, 0
9, 136875, Note_off_c, 6, 96, 0
9, 136875, Note_off_c, 6, 105, 0
9, 136875, Note_on_c, 6, 89, 67
9, 136875, Note_on_c, 6, 84, 67
9, 136875, Note_on_c, 6, 77, 67
9, 136875, Note_on_c, 6, 93, 67
9, 136875, Note_on_c, 6, 101, 67
9, 136875, Note_on_c, 6, 96, 67
9, 136875, Note_on_c, 6, 105, 67
9, 136890, Note_off_c, 6, 89, 0
9, 136890, Note_off_c, 6, 84, 0
9, 136890, Note_off_c, 6, 77, 0
9, 136890, Note_off_c, 6, 93, 0
9, 136890, Note_off_c, 6, 101, 0
9, 136890, Note_off_c, 6, 96, 0
9, 136890, Note_off_c, 6, 105, 0
9, 136890, Note_on_c, 6, 89, 67
9, 136890, Note_on_c, 6, 84, 67
9, 136890, Note_on_c, 6, 77, 67
9, 136890, Note_on_c, 6, 93, 67
9, 136890, Note_on_c, 6, 101, 67
9, 136890, Note_on_c, 6, 96, 67
9, 136890, Note_on_c, 6, 105, 67
9, 136905, Note_off_c, 6, 89, 0
9, 136905, Note_off_c, 6, 84, 0
9, 136905, Note_off_c, 6, 77, 0
9, 136905, Note_off_c, 6, 93, 0
9, 136905, Note_off_c, 6, 101, 0
9, 136905, Note_off_c, 6, 96, 0
9, 136905, Note_off_c, 6, 105, 0
9, 136905, Note_on_c, 6, 89, 70
9, 136905, Note_on_c, 6, 84, 70
9, 136905, Note_on_c, 6, 77, 70
9, 136905, Note_on_c, 6, 93, 70
9, 136905, Note_on_c, 6, 101, 70
9, 136905, Note_on_c, 6, 96, 70
9, 136905, Note_on_c, 6, 105, 70
9, 136920, Note_off_c, 6, 89, 0
9, 136920, Note_off_c, 6, 84, 0
9, 136920, Note_off_c, 6, 77, 0
9, 136920, Note_off_c, 6, 93, 0
9, 136920, Note_off_c, 6, 101, 0
9, 136920, Note_off_c, 6, 96, 0
9, 136920, Note_off_c, 6, 105, 0
9, 136920, Note_on_c, 6, 89, 70
9, 136920, Note_on_c, 6, 84, 70
9, 136920, Note_on_c, 6, 77, 70
9, 136920, Note_on_c, 6, 93, 70
9, 136920, Note_on_c, 6, 101, 70
9, 136920, Note_on_c, 6, 96, 70
9, 136920, Note_on_c, 6, 105, 70
9, 136935, Note_off_c, 6, 89, 0
9, 136935, Note_off_c, 6, 84, 0
9, 136935, Note_off_c, 6, 77, 0
9, 136935, Note_off_c, 6, 93, 0
9, 136935, Note_off_c, 6, 101, 0
9, 136935, Note_off_c, 6, 96, 0
9, 136935, Note_off_c, 6, 105, 0
9, 136935, Note_on_c, 6, 89, 70
9, 136935, Note_on_c, 6, 84, 70
9, 136935, Note_on_c, 6, 77, 70
9, 136935, Note_on_c, 6, 93, 70
9, 136935, Note_on_c, 6, 101, 70
9, 136935, Note_on_c, 6, 96, 70
9, 136935, Note_on_c, 6, 105, 70
9, 136950, Note_off_c, 6, 89, 0
9, 136950, Note_off_c, 6, 84, 0
9, 136950, Note_off_c, 6, 77, 0
9, 136950, Note_off_c, 6, 93, 0
9, 136950, Note_off_c, 6, 101, 0
9, 136950, Note_off_c, 6, 96, 0
9, 136950, Note_off_c, 6, 105, 0
9, 136950, Note_on_c, 6, 89, 74
9, 136950, Note_on_c, 6, 84, 74
9, 136950, Note_on_c, 6, 77, 74
9, 136950, Note_on_c, 6, 93, 74
9, 136950, Note_on_c, 6, 101, 74
9, 136950, Note_on_c, 6, 96, 74
9, 136950, Note_on_c, 6, 105, 74
9, 136965, Note_off_c, 6, 89, 0
9, 136965, Note_off_c, 6, 84, 0
9, 136965, Note_off_c, 6, 77, 0
9, 136965, Note_off_c, 6, 93, 0
9, 136965, Note_off_c, 6, 101, 0
9, 136965, Note_off_c, 6, 96, 0
9, 136965, Note_off_c, 6, 105, 0
9, 136965, Note_on_c, 6, 89, 74
9, 136965, Note_on_c, 6, 84, 74
9, 136965, Note_on_c, 6, 77, 74
9, 136965, Note_on_c, 6, 93, 74
9, 136965, Note_on_c, 6, 101, 74
9, 136965, Note_on_c, 6, 96, 74
9, 136965, Note_on_c, 6, 105, 74
9, 136980, Note_off_c, 6, 89, 0
9, 136980, Note_off_c, 6, 84, 0
9, 136980, Note_off_c, 6, 77, 0
9, 136980, Note_off_c, 6, 93, 0
9, 136980, Note_off_c, 6, 101, 0
9, 136980, Note_off_c, 6, 96, 0
9, 136980, Note_off_c, 6, 105, 0
9, 136980, Note_on_c, 6, 89, 74
9, 136980, Note_on_c, 6, 84, 74
9, 136980, Note_on_c, 6, 77, 74
9, 136980, Note_on_c, 6, 93, 74
9, 136980, Note_on_c, 6, 101, 74
9, 136980, Note_on_c, 6, 96, 74
9, 136980, Note_on_c, 6, 105, 74
9, 136995, Note_off_c, 6, 89, 0
9, 136995, Note_off_c, 6, 84, 0
9, 136995, Note_off_c, 6, 77, 0
9, 136995, Note_off_c, 6, 93, 0
9, 136995, Note_off_c, 6, 101, 0
9, 136995, Note_off_c, 6, 96, 0
9, 136995, Note_off_c, 6, 105, 0
9, 136995, Note_on_c, 6, 89, 77
9, 136995, Note_on_c, 6, 84, 77
9, 136995, Note_on_c, 6, 77, 77
9, 136995, Note_on_c, 6, 93, 77
9, 136995, Note_on_c, 6, 101, 77
9, 136995, Note_on_c, 6, 96, 77
9, 136995, Note_on_c, 6, 105, 77
9, 137010, Note_off_c, 6, 89, 0
9, 137010, Note_off_c, 6, 84, 0
9, 137010, Note_off_c, 6, 77, 0
9, 137010, Note_off_c, 6, 93, 0
9, 137010, Note_off_c, 6, 101, 0
9, 137010, Note_off_c, 6, 96, 0
9, 137010, Note_off_c, 6, 105, 0
9, 137010, Note_on_c, 6, 89, 77
9, 137010, Note_on_c, 6, 84, 77
9, 137010, Note_on_c, 6, 77, 77
9, 137010, Note_on_c, 6, 93, 77
9, 137010, Note_on_c, 6, 101, 77
9, 137010, Note_on_c, 6, 96, 77
9, 137010, Note_on_c, 6, 105, 77
9, 137025, Note_off_c, 6, 89, 0
9, 137025, Note_off_c, 6, 84, 0
9, 137025, Note_off_c, 6, 77, 0
9, 137025, Note_off_c, 6, 93, 0
9, 137025, Note_off_c, 6, 101, 0
9, 137025, Note_off_c, 6, 96, 0
9, 137025, Note_off_c, 6, 105, 0
9, 137025, Note_on_c, 6, 89, 77
9, 137025, Note_on_c, 6, 84, 77
9, 137025, Note_on_c, 6, 77, 77
9, 137025, Note_on_c, 6, 93, 77
9, 137025, Note_on_c, 6, 101, 77
9, 137025, Note_on_c, 6, 96, 77
9, 137025, Note_on_c, 6, 105, 77
9, 137040, Note_off_c, 6, 89, 0
9, 137040, Note_off_c, 6, 84, 0
9, 137040, Note_off_c, 6, 77, 0
9, 137040, Note_off_c, 6, 93, 0
9, 137040, Note_off_c, 6, 101, 0
9, 137040, Note_off_c, 6, 96, 0
9, 137040, Note_off_c, 6, 105, 0
9, 137040, Note_on_c, 6, 89, 80
9, 137040, Note_on_c, 6, 84, 80
9, 137040, Note_on_c, 6, 77, 80
9, 137040, Note_on_c, 6, 93, 80
9, 137040, Note_on_c, 6, 101, 80
9, 137040, Note_on_c, 6, 96, 80
9, 137040, Note_on_c, 6, 105, 80
9, 137055, Note_off_c, 6, 89, 0
9, 137055, Note_off_c, 6, 84, 0
9, 137055, Note_off_c, 6, 77, 0
9, 137055, Note_off_c, 6, 93, 0
9, 137055, Note_off_c, 6, 101, 0
9, 137055, Note_off_c, 6, 96, 0
9, 137055, Note_off_c, 6, 105, 0
9, 137055, Note_on_c, 6, 89, 80
9, 137055, Note_on_c, 6, 84, 80
9, 137055, Note_on_c, 6, 77, 80
9, 137055, Note_on_c, 6, 93, 80
9, 137055, Note_on_c, 6, 101, 80
9, 137055, Note_on_c, 6, 96, 80
9, 137055, Note_on_c, 6, 105, 80
9, 137070, Note_off_c, 6, 89, 0
9, 137070, Note_off_c, 6, 84, 0
9, 137070, Note_off_c, 6, 77, 0
9, 137070, Note_off_c, 6, 93, 0
9, 137070, Note_off_c, 6, 101, 0
9, 137070, Note_off_c, 6, 96, 0
9, 137070, Note_off_c, 6, 105, 0
9, 137070, Note_on_c, 6, 89, 80
9, 137070, Note_on_c, 6, 84, 80
9, 137070, Note_on_c, 6, 77, 80
9, 137070, Note_on_c, 6, 93, 80
9, 137070, Note_on_c, 6, 101, 80
9, 137070, Note_on_c, 6, 96, 80
9, 137070, Note_on_c, 6, 105, 80
9, 137085, Note_off_c, 6, 89, 0
9, 137085, Note_off_c, 6, 84, 0
9, 137085, Note_off_c, 6, 77, 0
9, 137085, Note_off_c, 6, 93, 0
9, 137085, Note_off_c, 6, 101, 0
9, 137085, Note_off_c, 6, 96, 0
9, 137085, Note_off_c, 6, 105, 0
9, 137085, Note_on_c, 6, 89, 80
9, 137085, Note_on_c, 6, 84, 80
9, 137085, Note_on_c, 6, 77, 80
9, 137085, Note_on_c, 6, 93, 80
9, 137085, Note_on_c, 6, 101, 80
9, 137085, Note_on_c, 6, 96, 80
9, 137085, Note_on_c, 6, 105, 80
9, 137100, Note_off_c, 6, 89, 0
9, 137100, Note_off_c, 6, 84, 0
9, 137100, Note_off_c, 6, 77, 0
9, 137100, Note_off_c, 6, 93, 0
9, 137100, Note_off_c, 6, 101, 0
9, 137100, Note_off_c, 6, 96, 0
9, 137100, Note_off_c, 6, 105, 0
9, 137100, Note_on_c, 6, 89, 83
9, 137100, Note_on_c, 6, 84, 83
9, 137100, Note_on_c, 6, 77, 83
9, 137100, Note_on_c, 6, 93, 83
9, 137100, Note_on_c, 6, 101, 83
9, 137100, Note_on_c, 6, 96, 83
9, 137100, Note_on_c, 6, 105, 83
9, 137115, Note_off_c, 6, 89, 0
9, 137115, Note_off_c, 6, 84, 0
9, 137115, Note_off_c, 6, 77, 0
9, 137115, Note_off_c, 6, 93, 0
9, 137115, Note_off_c, 6, 101, 0
9, 137115, Note_off_c, 6, 96, 0
9, 137115, Note_off_c, 6, 105, 0
9, 137115, Note_on_c, 6, 89, 83
9, 137115, Note_on_c, 6, 84, 83
9, 137115, Note_on_c, 6, 77, 83
9, 137115, Note_on_c, 6, 93, 83
9, 137115, Note_on_c, 6, 101, 83
9, 137115, Note_on_c, 6, 96, 83
9, 137115, Note_on_c, 6, 105, 83
9, 137130, Note_off_c, 6, 89, 0
9, 137130, Note_off_c, 6, 84, 0
9, 137130, Note_off_c, 6, 77, 0
9, 137130, Note_off_c, 6, 93, 0
9, 137130, Note_off_c, 6, 101, 0
9, 137130, Note_off_c, 6, 96, 0
9, 137130, Note_off_c, 6, 105, 0
9, 137130, Note_on_c, 6, 89, 83
9, 137130, Note_on_c, 6, 84, 83
9, 137130, Note_on_c, 6, 77, 83
9, 137130, Note_on_c, 6, 93, 83
9, 137130, Note_on_c, 6, 101, 83
9, 137130, Note_on_c, 6, 96, 83
9, 137130, Note_on_c, 6, 105, 83
9, 137145, Note_off_c, 6, 89, 0
9, 137145, Note_off_c, 6, 84, 0
9, 137145, Note_off_c, 6, 77, 0
9, 137145, Note_off_c, 6, 93, 0
9, 137145, Note_off_c, 6, 101, 0
9, 137145, Note_off_c, 6, 96, 0
9, 137145, Note_off_c, 6, 105, 0
9, 137145, Note_on_c, 6, 89, 86
9, 137145, Note_on_c, 6, 84, 86
9, 137145, Note_on_c, 6, 77, 86
9, 137145, Note_on_c, 6, 93, 86
9, 137145, Note_on_c, 6, 101, 86
9, 137145, Note_on_c, 6, 96, 86
9, 137145, Note_on_c, 6, 105, 86
9, 137160, Note_off_c, 6, 89, 0
9, 137160, Note_off_c, 6, 84, 0
9, 137160, Note_off_c, 6, 77, 0
9, 137160, Note_off_c, 6, 93, 0
9, 137160, Note_off_c, 6, 101, 0
9, 137160, Note_off_c, 6, 96, 0
9, 137160, Note_off_c, 6, 105, 0
9, 137160, Note_on_c, 6, 89, 86
9, 137160, Note_on_c, 6, 84, 86
9, 137160, Note_on_c, 6, 77, 86
9, 137160, Note_on_c, 6, 93, 86
9, 137160, Note_on_c, 6, 101, 86
9, 137160, Note_on_c, 6, 96, 86
9, 137160, Note_on_c, 6, 105, 86
9, 137175, Note_off_c, 6, 89, 0
9, 137175, Note_off_c, 6, 84, 0
9, 137175, Note_off_c, 6, 77, 0
9, 137175, Note_off_c, 6, 93, 0
9, 137175, Note_off_c, 6, 101, 0
9, 137175, Note_off_c, 6, 96, 0
9, 137175, Note_off_c, 6, 105, 0
9, 137175, Note_on_c, 6, 89, 86
9, 137175, Note_on_c, 6, 84, 86
9, 137175, Note_on_c, 6, 77, 86
9, 137175, Note_on_c, 6, 93, 86
9, 137175, Note_on_c, 6, 101, 86
9, 137175, Note_on_c, 6, 96, 86
9, 137175, Note_on_c, 6, 105, 86
9, 137190, Note_off_c, 6, 89, 0
9, 137190, Note_off_c, 6, 84, 0
9, 137190, Note_off_c, 6, 77, 0
9, 137190, Note_off_c, 6, 93, 0
9, 137190, Note_off_c, 6, 101, 0
9, 137190, Note_off_c, 6, 96, 0
9, 137190, Note_off_c, 6, 105, 0
9, 137190, Note_on_c, 6, 89, 89
9, 137190, Note_on_c, 6, 84, 89
9, 137190, Note_on_c, 6, 77, 89
9, 137190, Note_on_c, 6, 93, 89
9, 137190, Note_on_c, 6, 101, 89
9, 137190, Note_on_c, 6, 96, 89
9, 137190, Note_on_c, 6, 105, 89
9, 137205, Note_off_c, 6, 89, 0
9, 137205, Note_off_c, 6, 84, 0
9, 137205, Note_off_c, 6, 77, 0
9, 137205, Note_off_c, 6, 93, 0
9, 137205, Note_off_c, 6, 101, 0
9, 137205, Note_off_c, 6, 96, 0
9, 137205, Note_off_c, 6, 105, 0
9, 137205, Note_on_c, 6, 89, 89
9, 137205, Note_on_c, 6, 84, 89
9, 137205, Note_on_c, 6, 77, 89
9, 137205, Note_on_c, 6, 93, 89
9, 137205, Note_on_c, 6, 101, 89
9, 137205, Note_on_c, 6, 96, 89
9, 137205, Note_on_c, 6, 105, 89
9, 137220, Note_off_c, 6, 89, 0
9, 137220, Note_off_c, 6, 84, 0
9, 137220, Note_off_c, 6, 77, 0
9, 137220, Note_off_c, 6, 93, 0
9, 137220, Note_off_c, 6, 101, 0
9, 137220, Note_off_c, 6, 96, 0
9, 137220, Note_off_c, 6, 105, 0
9, 137220, Note_on_c, 6, 89, 89
9, 137220, Note_on_c, 6, 84, 89
9, 137220, Note_on_c, 6, 77, 89
9, 137220, Note_on_c, 6, 93, 89
9, 137220, Note_on_c, 6, 101, 89
9, 137220, Note_on_c, 6, 96, 89
9, 137220, Note_on_c, 6, 105, 89
9, 137235, Note_off_c, 6, 89, 0
9, 137235, Note_off_c, 6, 84, 0
9, 137235, Note_off_c, 6, 77, 0
9, 137235, Note_off_c, 6, 93, 0
9, 137235, Note_off_c, 6, 101, 0
9, 137235, Note_off_c, 6, 96, 0
9, 137235, Note_off_c, 6, 105, 0
9, 137235, Note_on_c, 6, 89, 93
9, 137235, Note_on_c, 6, 84, 93
9, 137235, Note_on_c, 6, 77, 93
9, 137235, Note_on_c, 6, 93, 93
9, 137235, Note_on_c, 6, 101, 93
9, 137235, Note_on_c, 6, 96, 93
9, 137235, Note_on_c, 6, 105, 93
9, 137250, Note_off_c, 6, 89, 0
9, 137250, Note_off_c, 6, 84, 0
9, 137250, Note_off_c, 6, 77, 0
9, 137250, Note_off_c, 6, 93, 0
9, 137250, Note_off_c, 6, 101, 0
9, 137250, Note_off_c, 6, 96, 0
9, 137250, Note_off_c, 6, 105, 0
9, 137250, Note_on_c, 6, 89, 93
9, 137250, Note_on_c, 6, 84, 93
9, 137250, Note_on_c, 6, 77, 93
9, 137250, Note_on_c, 6, 93, 93
9, 137250, Note_on_c, 6, 101, 93
9, 137250, Note_on_c, 6, 96, 93
9, 137250, Note_on_c, 6, 105, 93
9, 137265, Note_off_c, 6, 89, 0
9, 137265, Note_off_c, 6, 84, 0
9, 137265, Note_off_c, 6, 77, 0
9, 137265, Note_off_c, 6, 93, 0
9, 137265, Note_off_c, 6, 101, 0
9, 137265, Note_off_c, 6, 96, 0
9, 137265, Note_off_c, 6, 105, 0
9, 137265, Note_on_c, 6, 89, 93
9, 137265, Note_on_c, 6, 84, 93
9, 137265, Note_on_c, 6, 77, 93
9, 137265, Note_on_c, 6, 93, 93
9, 137265, Note_on_c, 6, 101, 93
9, 137265, Note_on_c, 6, 96, 93
9, 137265, Note_on_c, 6, 105, 93
9, 137280, Note_off_c, 6, 89, 0
9, 137280, Note_off_c, 6, 84, 0
9, 137280, Note_off_c, 6, 77, 0
9, 137280, Note_off_c, 6, 93, 0
9, 137280, Note_off_c, 6, 101, 0
9, 137280, Note_off_c, 6, 96, 0
9, 137280, Note_off_c, 6, 105, 0
9, 137280, Note_on_c, 6, 89, 96
9, 137280, Note_on_c, 6, 84, 96
9, 137280, Note_on_c, 6, 77, 96
9, 137280, Note_on_c, 6, 93, 96
9, 137280, Note_on_c, 6, 101, 96
9, 137280, Note_on_c, 6, 96, 96
9, 137280, Note_on_c, 6, 105, 96
9, 137295, Note_off_c, 6, 89, 0
9, 137295, Note_off_c, 6, 84, 0
9, 137295, Note_off_c, 6, 77, 0
9, 137295, Note_off_c, 6, 93, 0
9, 137295, Note_off_c, 6, 101, 0
9, 137295, Note_off_c, 6, 96, 0
9, 137295, Note_off_c, 6, 105, 0
9, 137295, Note_on_c, 6, 89, 96
9, 137295, Note_on_c, 6, 84, 96
9, 137295, Note_on_c, 6, 77, 96
9, 137295, Note_on_c, 6, 93, 96
9, 137295, Note_on_c, 6, 101, 96
9, 137295, Note_on_c, 6, 96, 96
9, 137295, Note_on_c, 6, 105, 96
9, 137310, Note_off_c, 6, 89, 0
9, 137310, Note_off_c, 6, 84, 0
9, 137310, Note_off_c, 6, 77, 0
9, 137310, Note_off_c, 6, 93, 0
9, 137310, Note_off_c, 6, 101, 0
9, 137310, Note_off_c, 6, 96, 0
9, 137310, Note_off_c, 6, 105, 0
9, 137310, Note_on_c, 6, 89, 96
9, 137310, Note_on_c, 6, 84, 96
9, 137310, Note_on_c, 6, 77, 96
9, 137310, Note_on_c, 6, 93, 96
9, 137310, Note_on_c, 6, 101, 96
9, 137310, Note_on_c, 6, 96, 96
9, 137310, Note_on_c, 6, 105, 96
9, 137325, Note_off_c, 6, 89, 0
9, 137325, Note_off_c, 6, 84, 0
9, 137325, Note_off_c, 6, 77, 0
9, 137325, Note_off_c, 6, 93, 0
9, 137325, Note_off_c, 6, 101, 0
9, 137325, Note_off_c, 6, 96, 0
9, 137325, Note_off_c, 6, 105, 0
9, 137325, Note_on_c, 6, 89, 96
9, 137325, Note_on_c, 6, 84, 96
9, 137325, Note_on_c, 6, 77, 96
9, 137325, Note_on_c, 6, 93, 96
9, 137325, Note_on_c, 6, 101, 96
9, 137325, Note_on_c, 6, 96, 96
9, 137325, Note_on_c, 6, 105, 96
9, 137340, Note_off_c, 6, 89, 0
9, 137340, Note_off_c, 6, 84, 0
9, 137340, Note_off_c, 6, 77, 0
9, 137340, Note_off_c, 6, 93, 0
9, 137340, Note_off_c, 6, 101, 0
9, 137340, Note_off_c, 6, 96, 0
9, 137340, Note_off_c, 6, 105, 0
9, 137340, Note_on_c, 6, 89, 99
9, 137340, Note_on_c, 6, 84, 99
9, 137340, Note_on_c, 6, 77, 99
9, 137340, Note_on_c, 6, 93, 99
9, 137340, Note_on_c, 6, 101, 99
9, 137340, Note_on_c, 6, 96, 99
9, 137340, Note_on_c, 6, 105, 99
9, 137355, Note_off_c, 6, 89, 0
9, 137355, Note_off_c, 6, 84, 0
9, 137355, Note_off_c, 6, 77, 0
9, 137355, Note_off_c, 6, 93, 0
9, 137355, Note_off_c, 6, 101, 0
9, 137355, Note_off_c, 6, 96, 0
9, 137355, Note_off_c, 6, 105, 0
9, 137355, Note_on_c, 6, 89, 99
9, 137355, Note_on_c, 6, 84, 99
9, 137355, Note_on_c, 6, 77, 99
9, 137355, Note_on_c, 6, 93, 99
9, 137355, Note_on_c, 6, 101, 99
9, 137355, Note_on_c, 6, 96, 99
9, 137355, Note_on_c, 6, 105, 99
9, 137370, Note_off_c, 6, 89, 0
9, 137370, Note_off_c, 6, 84, 0
9, 137370, Note_off_c, 6, 77, 0
9, 137370, Note_off_c, 6, 93, 0
9, 137370, Note_off_c, 6, 101, 0
9, 137370, Note_off_c, 6, 96, 0
9, 137370, Note_off_c, 6, 105, 0
9, 137370, Note_on_c, 6, 89, 99
9, 137370, Note_on_c, 6, 84, 99
9, 137370, Note_on_c, 6, 77, 99
9, 137370, Note_on_c, 6, 93, 99
9, 137370, Note_on_c, 6, 101, 99
9, 137370, Note_on_c, 6, 96, 99
9, 137370, Note_on_c, 6, 105, 99
9, 137385, Note_off_c, 6, 89, 0
9, 137385, Note_off_c, 6, 84, 0
9, 137385, Note_off_c, 6, 77, 0
9, 137385, Note_off_c, 6, 93, 0
9, 137385, Note_off_c, 6, 101, 0
9, 137385, Note_off_c, 6, 96, 0
9, 137385, Note_off_c, 6, 105, 0
9, 137385, Note_on_c, 6, 89, 102
9, 137385, Note_on_c, 6, 84, 102
9, 137385, Note_on_c, 6, 77, 102
9, 137385, Note_on_c, 6, 93, 102
9, 137385, Note_on_c, 6, 101, 102
9, 137385, Note_on_c, 6, 96, 102
9, 137385, Note_on_c, 6, 105, 102
9, 137400, Note_off_c, 6, 89, 0
9, 137400, Note_off_c, 6, 84, 0
9, 137400, Note_off_c, 6, 77, 0
9, 137400, Note_off_c, 6, 93, 0
9, 137400, Note_off_c, 6, 101, 0
9, 137400, Note_off_c, 6, 96, 0
9, 137400, Note_off_c, 6, 105, 0
9, 137400, Note_on_c, 6, 89, 102
9, 137400, Note_on_c, 6, 84, 102
9, 137400, Note_on_c, 6, 77, 102
9, 137400, Note_on_c, 6, 93, 102
9, 137400, Note_on_c, 6, 101, 102
9, 137400, Note_on_c, 6, 96, 102
9, 137400, Note_on_c, 6, 105, 102
9, 137415, Note_off_c, 6, 89, 0
9, 137415, Note_off_c, 6, 84, 0
9, 137415, Note_off_c, 6, 77, 0
9, 137415, Note_off_c, 6, 93, 0
9, 137415, Note_off_c, 6, 101, 0
9, 137415, Note_off_c, 6, 96, 0
9, 137415, Note_off_c, 6, 105, 0
9, 137415, Note_on_c, 6, 89, 102
9, 137415, Note_on_c, 6, 84, 102
9, 137415, Note_on_c, 6, 77, 102
9, 137415, Note_on_c, 6, 93, 102
9, 137415, Note_on_c, 6, 101, 102
9, 137415, Note_on_c, 6, 96, 102
9, 137415, Note_on_c, 6, 105, 102
9, 137430, Note_off_c, 6, 89, 0
9, 137430, Note_off_c, 6, 84, 0
9, 137430, Note_off_c, 6, 77, 0
9, 137430, Note_off_c, 6, 93, 0
9, 137430, Note_off_c, 6, 101, 0
9, 137430, Note_off_c, 6, 96, 0
9, 137430, Note_off_c, 6, 105, 0
9, 137430, Note_on_c, 6, 89, 105
9, 137430, Note_on_c, 6, 84, 105
9, 137430, Note_on_c, 6, 77, 105
9, 137430, Note_on_c, 6, 93, 105
9, 137430, Note_on_c, 6, 101, 105
9, 137430, Note_on_c, 6, 96, 105
9, 137430, Note_on_c, 6, 105, 105
9, 137445, Note_off_c, 6, 89, 0
9, 137445, Note_off_c, 6, 84, 0
9, 137445, Note_off_c, 6, 77, 0
9, 137445, Note_off_c, 6, 93, 0
9, 137445, Note_off_c, 6, 101, 0
9, 137445, Note_off_c, 6, 96, 0
9, 137445, Note_off_c, 6, 105, 0
9, 137445, Note_on_c, 6, 89, 105
9, 137445, Note_on_c, 6, 84, 105
9, 137445, Note_on_c, 6, 77, 105
9, 137445, Note_on_c, 6, 93, 105
9, 137445, Note_on_c, 6, 101, 105
9, 137445, Note_on_c, 6, 96, 105
9, 137445, Note_on_c, 6, 105, 105
9, 137460, Note_off_c, 6, 89, 0
9, 137460, Note_off_c, 6, 84, 0
9, 137460, Note_off_c, 6, 77, 0
9, 137460, Note_off_c, 6, 93, 0
9, 137460, Note_off_c, 6, 101, 0
9, 137460, Note_off_c, 6, 96, 0
9, 137460, Note_off_c, 6, 105, 0
9, 137460, Note_on_c, 6, 89, 105
9, 137460, Note_on_c, 6, 84, 105
9, 137460, Note_on_c, 6, 77, 105
9, 137460, Note_on_c, 6, 93, 105
9, 137460, Note_on_c, 6, 101, 105
9, 137460, Note_on_c, 6, 96, 105
9, 137460, Note_on_c, 6, 105, 105
9, 137475, Note_off_c, 6, 89, 0
9, 137475, Note_off_c, 6, 84, 0
9, 137475, Note_off_c, 6, 77, 0
9, 137475, Note_off_c, 6, 93, 0
9, 137475, Note_off_c, 6, 101, 0
9, 137475, Note_off_c, 6, 96, 0
9, 137475, Note_off_c, 6, 105, 0
9, 137475, Note_on_c, 6, 89, 108
9, 137475, Note_on_c, 6, 84, 108
9, 137475, Note_on_c, 6, 77, 108
9, 137475, Note_on_c, 6, 93, 108
9, 137475, Note_on_c, 6, 101, 108
9, 137475, Note_on_c, 6, 96, 108
9, 137475, Note_on_c, 6, 105, 108
9, 137490, Note_off_c, 6, 89, 0
9, 137490, Note_off_c, 6, 84, 0
9, 137490, Note_off_c, 6, 77, 0
9, 137490, Note_off_c, 6, 93, 0
9, 137490, Note_off_c, 6, 101, 0
9, 137490, Note_off_c, 6, 96, 0
9, 137490, Note_off_c, 6, 105, 0
9, 137490, Note_on_c, 6, 89, 108
9, 137490, Note_on_c, 6, 84, 108
9, 137490, Note_on_c, 6, 77, 108
9, 137490, Note_on_c, 6, 93, 108
9, 137490, Note_on_c, 6, 101, 108
9, 137490, Note_on_c, 6, 96, 108
9, 137490, Note_on_c, 6, 105, 108
9, 137505, Note_off_c, 6, 89, 0
9, 137505, Note_off_c, 6, 84, 0
9, 137505, Note_off_c, 6, 77, 0
9, 137505, Note_off_c, 6, 93, 0
9, 137505, Note_off_c, 6, 101, 0
9, 137505, Note_off_c, 6, 96, 0
9, 137505, Note_off_c, 6, 105, 0
9, 137505, Note_on_c, 6, 89, 108
9, 137505, Note_on_c, 6, 84, 108
9, 137505, Note_on_c, 6, 77, 108
9, 137505, Note_on_c, 6, 93, 108
9, 137505, Note_on_c, 6, 101, 108
9, 137505, Note_on_c, 6, 96, 108
9, 137505, Note_on_c, 6, 105, 108
9, 137520, Note_off_c, 6, 89, 0
9, 137520, Note_off_c, 6, 84, 0
9, 137520, Note_off_c, 6, 77, 0
9, 137520, Note_off_c, 6, 93, 0
9, 137520, Note_off_c, 6, 101, 0
9, 137520, Note_off_c, 6, 96, 0
9, 137520, Note_off_c, 6, 105, 0
9, 137520, Note_on_c, 6, 89, 112
9, 137520, Note_on_c, 6, 84, 112
9, 137520, Note_on_c, 6, 77, 112
9, 137520, Note_on_c, 6, 93, 112
9, 137520, Note_on_c, 6, 101, 112
9, 137520, Note_on_c, 6, 96, 112
9, 137520, Note_on_c, 6, 105, 112
9, 137535, Note_off_c, 6, 89, 0
9, 137535, Note_off_c, 6, 84, 0
9, 137535, Note_off_c, 6, 77, 0
9, 137535, Note_off_c, 6, 93, 0
9, 137535, Note_off_c, 6, 101, 0
9, 137535, Note_off_c, 6, 96, 0
9, 137535, Note_off_c, 6, 105, 0
9, 137535, Note_on_c, 6, 89, 112
9, 137535, Note_on_c, 6, 84, 112
9, 137535, Note_on_c, 6, 77, 112
9, 137535, Note_on_c, 6, 93, 112
9, 137535, Note_on_c, 6, 101, 112
9, 137535, Note_on_c, 6, 96, 112
9, 137535, Note_on_c, 6, 105, 112
9, 137550, Note_off_c, 6, 89, 0
9, 137550, Note_off_c, 6, 84, 0
9, 137550, Note_off_c, 6, 77, 0
9, 137550, Note_off_c, 6, 93, 0
9, 137550, Note_off_c, 6, 101, 0
9, 137550, Note_off_c, 6, 96, 0
9, 137550, Note_off_c, 6, 105, 0
9, 137550, Note_on_c, 6, 89, 112
9, 137550, Note_on_c, 6, 84, 112
9, 137550, Note_on_c, 6, 77, 112
9, 137550, Note_on_c, 6, 93, 112
9, 137550, Note_on_c, 6, 101, 112
9, 137550, Note_on_c, 6, 96, 112
9, 137550, Note_on_c, 6, 105, 112
9, 137565, Note_off_c, 6, 89, 0
9, 137565, Note_off_c, 6, 84, 0
9, 137565, Note_off_c, 6, 77, 0
9, 137565, Note_off_c, 6, 93, 0
9, 137565, Note_off_c, 6, 101, 0
9, 137565, Note_off_c, 6, 96, 0
9, 137565, Note_off_c, 6, 105, 0
9, 137565, Note_on_c, 6, 89, 112
9, 137565, Note_on_c, 6, 84, 112
9, 137565, Note_on_c, 6, 77, 112
9, 137565, Note_on_c, 6, 93, 112
9, 137565, Note_on_c, 6, 101, 112
9, 137565, Note_on_c, 6, 96, 112
9, 137565, Note_on_c, 6, 105, 112
9, 137580, Note_off_c, 6, 89, 0
9, 137580, Note_off_c, 6, 84, 0
9, 137580, Note_off_c, 6, 77, 0
9, 137580, Note_off_c, 6, 93, 0
9, 137580, Note_off_c, 6, 101, 0
9, 137580, Note_off_c, 6, 96, 0
9, 137580, Note_off_c, 6, 105, 0
9, 137580, Note_on_c, 6, 89, 115
9, 137580, Note_on_c, 6, 84, 115
9, 137580, Note_on_c, 6, 77, 115
9, 137580, Note_on_c, 6, 93, 115
9, 137580, Note_on_c, 6, 101, 115
9, 137580, Note_on_c, 6, 96, 115
9, 137580, Note_on_c, 6, 105, 115
9, 137595, Note_off_c, 6, 89, 0
9, 137595, Note_off_c, 6, 84, 0
9, 137595, Note_off_c, 6, 77, 0
9, 137595, Note_off_c, 6, 93, 0
9, 137595, Note_off_c, 6, 101, 0
9, 137595, Note_off_c, 6, 96, 0
9, 137595, Note_off_c, 6, 105, 0
9, 137595, Note_on_c, 6, 89, 115
9, 137595, Note_on_c, 6, 84, 115
9, 137595, Note_on_c, 6, 77, 115
9, 137595, Note_on_c, 6, 93, 115
9, 137595, Note_on_c, 6, 101, 115
9, 137595, Note_on_c, 6, 96, 115
9, 137595, Note_on_c, 6, 105, 115
9, 137610, Note_off_c, 6, 89, 0
9, 137610, Note_off_c, 6, 84, 0
9, 137610, Note_off_c, 6, 77, 0
9, 137610, Note_off_c, 6, 93, 0
9, 137610, Note_off_c, 6, 101, 0
9, 137610, Note_off_c, 6, 96, 0
9, 137610, Note_off_c, 6, 105, 0
9, 137610, Note_on_c, 6, 89, 115
9, 137610, Note_on_c, 6, 84, 115
9, 137610, Note_on_c, 6, 77, 115
9, 137610, Note_on_c, 6, 93, 115
9, 137610, Note_on_c, 6, 101, 115
9, 137610, Note_on_c, 6, 96, 115
9, 137610, Note_on_c, 6, 105, 115
9, 137625, Note_off_c, 6, 89, 0
9, 137625, Note_off_c, 6, 84, 0
9, 137625, Note_off_c, 6, 77, 0
9, 137625, Note_off_c, 6, 93, 0
9, 137625, Note_off_c, 6, 101, 0
9, 137625, Note_off_c, 6, 96, 0
9, 137625, Note_off_c, 6, 105, 0
9, 137625, Note_on_c, 6, 89, 118
9, 137625, Note_on_c, 6, 84, 118
9, 137625, Note_on_c, 6, 77, 118
9, 137625, Note_on_c, 6, 93, 118
9, 137625, Note_on_c, 6, 101, 118
9, 137625, Note_on_c, 6, 96, 118
9, 137625, Note_on_c, 6, 105, 118
9, 137640, Note_off_c, 6, 89, 0
9, 137640, Note_off_c, 6, 84, 0
9, 137640, Note_off_c, 6, 77, 0
9, 137640, Note_off_c, 6, 93, 0
9, 137640, Note_off_c, 6, 101, 0
9, 137640, Note_off_c, 6, 96, 0
9, 137640, Note_off_c, 6, 105, 0
9, 137640, Note_on_c, 6, 89, 118
9, 137640, Note_on_c, 6, 84, 118
9, 137640, Note_on_c, 6, 77, 118
9, 137640, Note_on_c, 6, 93, 118
9, 137640, Note_on_c, 6, 101, 118
9, 137640, Note_on_c, 6, 96, 118
9, 137640, Note_on_c, 6, 105, 118
9, 137655, Note_off_c, 6, 89, 0
9, 137655, Note_off_c, 6, 84, 0
9, 137655, Note_off_c, 6, 77, 0
9, 137655, Note_off_c, 6, 93, 0
9, 137655, Note_off_c, 6, 101, 0
9, 137655, Note_off_c, 6, 96, 0
9, 137655, Note_off_c, 6, 105, 0
9, 137655, Note_on_c, 6, 89, 118
9, 137655, Note_on_c, 6, 84, 118
9, 137655, Note_on_c, 6, 77, 118
9, 137655, Note_on_c, 6, 93, 118
9, 137655, Note_on_c, 6, 101, 118
9, 137655, Note_on_c, 6, 96, 118
9, 137655, Note_on_c, 6, 105, 118
9, 137670, Note_off_c, 6, 89, 0
9, 137670, Note_off_c, 6, 84, 0
9, 137670, Note_off_c, 6, 77, 0
9, 137670, Note_off_c, 6, 93, 0
9, 137670, Note_off_c, 6, 101, 0
9, 137670, Note_off_c, 6, 96, 0
9, 137670, Note_off_c, 6, 105, 0
9, 137670, Note_on_c, 6, 89, 121
9, 137670, Note_on_c, 6, 84, 121
9, 137670, Note_on_c, 6, 77, 121
9, 137670, Note_on_c, 6, 93, 121
9, 137670, Note_on_c, 6, 101, 121
9, 137670, Note_on_c, 6, 96, 121
9, 137670, Note_on_c, 6, 105, 121
9, 137685, Note_off_c, 6, 89, 0
9, 137685, Note_off_c, 6, 84, 0
9, 137685, Note_off_c, 6, 77, 0
9, 137685, Note_off_c, 6, 93, 0
9, 137685, Note_off_c, 6, 101, 0
9, 137685, Note_off_c, 6, 96, 0
9, 137685, Note_off_c, 6, 105, 0
9, 137685, Note_on_c, 6, 89, 121
9, 137685, Note_on_c, 6, 84, 121
9, 137685, Note_on_c, 6, 77, 121
9, 137685, Note_on_c, 6, 93, 121
9, 137685, Note_on_c, 6, 101, 121
9, 137685, Note_on_c, 6, 96, 121
9, 137685, Note_on_c, 6, 105, 121
9, 137700, Note_off_c, 6, 89, 0
9, 137700, Note_off_c, 6, 84, 0
9, 137700, Note_off_c, 6, 77, 0
9, 137700, Note_off_c, 6, 93, 0
9, 137700, Note_off_c, 6, 101, 0
9, 137700, Note_off_c, 6, 96, 0
9, 137700, Note_off_c, 6, 105, 0
9, 137700, Note_on_c, 6, 89, 121
9, 137700, Note_on_c, 6, 84, 121
9, 137700, Note_on_c, 6, 77, 121
9, 137700, Note_on_c, 6, 93, 121
9, 137700, Note_on_c, 6, 101, 121
9, 137700, Note_on_c, 6, 96, 121
9, 137700, Note_on_c, 6, 105, 121
9, 137715, Note_off_c, 6, 89, 0
9, 137715, Note_off_c, 6, 84, 0
9, 137715, Note_off_c, 6, 77, 0
9, 137715, Note_off_c, 6, 93, 0
9, 137715, Note_off_c, 6, 101, 0
9, 137715, Note_off_c, 6, 96, 0
9, 137715, Note_off_c, 6, 105, 0
9, 137715, Note_on_c, 6, 89, 124
9, 137715, Note_on_c, 6, 84, 124
9, 137715, Note_on_c, 6, 77, 124
9, 137715, Note_on_c, 6, 93, 124
9, 137715, Note_on_c, 6, 101, 124
9, 137715, Note_on_c, 6, 96, 124
9, 137715, Note_on_c, 6, 105, 124
9, 137730, Note_off_c, 6, 89, 0
9, 137730, Note_off_c, 6, 84, 0
9, 137730, Note_off_c, 6, 77, 0
9, 137730, Note_off_c, 6, 93, 0
9, 137730, Note_off_c, 6, 101, 0
9, 137730, Note_off_c, 6, 96, 0
9, 137730, Note_off_c, 6, 105, 0
9, 137730, Note_on_c, 6, 89, 124
9, 137730, Note_on_c, 6, 84, 124
9, 137730, Note_on_c, 6, 77, 124
9, 137730, Note_on_c, 6, 93, 124
9, 137730, Note_on_c, 6, 101, 124
9, 137730, Note_on_c, 6, 96, 124
9, 137730, Note_on_c, 6, 105, 124
9, 137745, Note_off_c, 6, 89, 0
9, 137745, Note_off_c, 6, 84, 0
9, 137745, Note_off_c, 6, 77, 0
9, 137745, Note_off_c, 6, 93, 0
9, 137745, Note_off_c, 6, 101, 0
9, 137745, Note_off_c, 6, 96, 0
9, 137745, Note_off_c, 6, 105, 0
9, 137745, Note_on_c, 6, 89, 124
9, 137745, Note_on_c, 6, 84, 124
9, 137745, Note_on_c, 6, 77, 124
9, 137745, Note_on_c, 6, 93, 124
9, 137745, Note_on_c, 6, 101, 124
9, 137745, Note_on_c, 6, 96, 124
9, 137745, Note_on_c, 6, 105, 124
9, 137760, Note_off_c, 6, 89, 0
9, 137760, Note_off_c, 6, 84, 0
9, 137760, Note_off_c, 6, 77, 0
9, 137760, Note_off_c, 6, 93, 0
9, 137760, Note_off_c, 6, 101, 0
9, 137760, Note_off_c, 6, 96, 0
9, 137760, Note_off_c, 6, 105, 0
9, 137760, Note_on_c, 6, 29, 100
9, 137760, Note_on_c, 6, 34, 100
9, 137760, Note_on_c, 6, 17, 100
9, 137760, Note_on_c, 6, 22, 100
9, 137790, Note_off_c, 6, 29, 0
9, 137790, Note_off_c, 6, 34, 0
9, 137790, Note_off_c, 6, 17, 0
9, 137790, Note_off_c, 6, 22, 0
9, 137790, Note_on_c, 6, 29, 100
9, 137790, Note_on_c, 6, 34, 100
9, 137790, Note_on_c, 6, 17, 100
9, 137790, Note_on_c, 6, 22, 100
9, 137820, Note_off_c, 6, 29, 0
9, 137820, Note_off_c, 6, 34, 0
9, 137820, Note_off_c, 6, 17, 0
9, 137820, Note_off_c, 6, 22, 0
9, 137820, Note_on_c, 6, 29, 100
9, 137820, Note_on_c, 6, 34, 100
9, 137820, Note_on_c, 6, 17, 100
9, 137820, Note_on_c, 6, 22, 100
9, 137850, Note_off_c, 6, 29, 0
9, 137850, Note_off_c, 6, 34, 0
9, 137850, Note_off_c, 6, 17, 0
9, 137850, Note_off_c, 6, 22, 0
9, 137850, Note_on_c, 6, 29, 100
9, 137850, Note_on_c, 6, 34, 100
9, 137850, Note_on_c, 6, 17, 100
9, 137850, Note_on_c, 6, 22, 100
9, 137880, Note_off_c, 6, 29, 0
9, 137880, Note_off_c, 6, 34, 0
9, 137880, Note_off_c, 6, 17, 0
9, 137880, Note_off_c, 6, 22, 0
9, 137880, Note_on_c, 6, 29, 100
9, 137880, Note_on_c, 6, 34, 100
9, 137880, Note_on_c, 6, 17, 100
9, 137880, Note_on_c, 6, 22, 100
9, 137910, Note_off_c, 6, 29, 0
9, 137910, Note_off_c, 6, 34, 0
9, 137910, Note_off_c, 6, 17, 0
9, 137910, Note_off_c, 6, 22, 0
9, 137910, Note_on_c, 6, 29, 100
9, 137910, Note_on_c, 6, 34, 100
9, 137910, Note_on_c, 6, 17, 100
9, 137910, Note_on_c, 6, 22, 100
9, 137940, Note_off_c, 6, 29, 0
9, 137940, Note_off_c, 6, 34, 0
9, 137940, Note_off_c, 6, 17, 0
9, 137940, Note_off_c, 6, 22, 0
9, 137940, Note_on_c, 6, 29, 100
9, 137940, Note_on_c, 6, 34, 100
9, 137940, Note_on_c, 6, 17, 100
9, 137940, Note_on_c, 6, 22, 100
9, 137970, Note_off_c, 6, 29, 0
9, 137970, Note_off_c, 6, 34, 0
9, 137970, Note_off_c, 6, 17, 0
9, 137970, Note_off_c, 6, 22, 0
9, 137970, Note_on_c, 6, 29, 100
9, 137970, Note_on_c, 6, 34, 100
9, 137970, Note_on_c, 6, 17, 100
9, 137970, Note_on_c, 6, 22, 100
9, 138000, Note_off_c, 6, 29, 0
9, 138000, Note_off_c, 6, 34, 0
9, 138000, Note_off_c, 6, 17, 0
9, 138000, Note_off_c, 6, 22, 0
9, 138000, Note_on_c, 6, 29, 100
9, 138000, Note_on_c, 6, 34, 100
9, 138000, Note_on_c, 6, 17, 100
9, 138000, Note_on_c, 6, 22, 100
9, 138030, Note_off_c, 6, 29, 0
9, 138030, Note_off_c, 6, 34, 0
9, 138030, Note_off_c, 6, 17, 0
9, 138030, Note_off_c, 6, 22, 0
9, 138030, Note_on_c, 6, 29, 100
9, 138030, Note_on_c, 6, 34, 100
9, 138030, Note_on_c, 6, 17, 100
9, 138030, Note_on_c, 6, 22, 100
9, 138060, Note_off_c, 6, 29, 0
9, 138060, Note_off_c, 6, 34, 0
9, 138060, Note_off_c, 6, 17, 0
9, 138060, Note_off_c, 6, 22, 0
9, 138060, Note_on_c, 6, 29, 100
9, 138060, Note_on_c, 6, 34, 100
9, 138060, Note_on_c, 6, 17, 100
9, 138060, Note_on_c, 6, 22, 100
9, 138090, Note_off_c, 6, 29, 0
9, 138090, Note_off_c, 6, 34, 0
9, 138090, Note_off_c, 6, 17, 0
9, 138090, Note_off_c, 6, 22, 0
9, 138090, Note_on_c, 6, 29, 100
9, 138090, Note_on_c, 6, 34, 100
9, 138090, Note_on_c, 6, 17, 100
9, 138090, Note_on_c, 6, 22, 100
9, 138120, Note_off_c, 6, 29, 0
9, 138120, Note_off_c, 6, 34, 0
9, 138120, Note_off_c, 6, 17, 0
9, 138120, Note_off_c, 6, 22, 0
9, 138120, Note_on_c, 6, 29, 100
9, 138120, Note_on_c, 6, 34, 100
9, 138120, Note_on_c, 6, 17, 100
9, 138120, Note_on_c, 6, 22, 100
9, 138150, Note_off_c, 6, 29, 0
9, 138150, Note_off_c, 6, 34, 0
9, 138150, Note_off_c, 6, 17, 0
9, 138150, Note_off_c, 6, 22, 0
9, 138150, Note_on_c, 6, 29, 100
9, 138150, Note_on_c, 6, 34, 100
9, 138150, Note_on_c, 6, 17, 100
9, 138150, Note_on_c, 6, 22, 100
9, 138180, Note_off_c, 6, 29, 0
9, 138180, Note_off_c, 6, 34, 0
9, 138180, Note_off_c, 6, 17, 0
9, 138180, Note_off_c, 6, 22, 0
9, 138180, Note_on_c, 6, 29, 100
9, 138180, Note_on_c, 6, 34, 100
9, 138180, Note_on_c, 6, 17, 100
9, 138180, Note_on_c, 6, 22, 100
9, 138210, Note_off_c, 6, 29, 0
9, 138210, Note_off_c, 6, 34, 0
9, 138210, Note_off_c, 6, 17, 0
9, 138210, Note_off_c, 6, 22, 0
9, 138210, Note_on_c, 6, 29, 100
9, 138210, Note_on_c, 6, 34, 100
9, 138210, Note_on_c, 6, 17, 100
9, 138210, Note_on_c, 6, 22, 100
9, 138240, Note_off_c, 6, 29, 0
9, 138240, Note_off_c, 6, 34, 0
9, 138240, Note_off_c, 6, 17, 0
9, 138240, Note_off_c, 6, 22, 0
9, 138240, Note_on_c, 6, 29, 100
9, 138240, Note_on_c, 6, 34, 100
9, 138240, Note_on_c, 6, 17, 100
9, 138240, Note_on_c, 6, 22, 100
9, 138270, Note_off_c, 6, 29, 0
9, 138270, Note_off_c, 6, 34, 0
9, 138270, Note_off_c, 6, 17, 0
9, 138270, Note_off_c, 6, 22, 0
9, 138270, Note_on_c, 6, 29, 100
9, 138270, Note_on_c, 6, 34, 100
9, 138270, Note_on_c, 6, 17, 100
9, 138270, Note_on_c, 6, 22, 100
9, 138300, Note_off_c, 6, 29, 0
9, 138300, Note_off_c, 6, 34, 0
9, 138300, Note_off_c, 6, 17, 0
9, 138300, Note_off_c, 6, 22, 0
9, 138300, Note_on_c, 6, 29, 100
9, 138300, Note_on_c, 6, 34, 100
9, 138300, Note_on_c, 6, 17, 100
9, 138300, Note_on_c, 6, 22, 100
9, 138330, Note_off_c, 6, 29, 0
9, 138330, Note_off_c, 6, 34, 0
9, 138330, Note_off_c, 6, 17, 0
9, 138330, Note_off_c, 6, 22, 0
9, 138330, Note_on_c, 6, 29, 100
9, 138330, Note_on_c, 6, 34, 100
9, 138330, Note_on_c, 6, 17, 100
9, 138330, Note_on_c, 6, 22, 100
9, 138360, Note_off_c, 6, 29, 0
9, 138360, Note_off_c, 6, 34, 0
9, 138360, Note_off_c, 6, 17, 0
9, 138360, Note_off_c, 6, 22, 0
9, 138360, Note_on_c, 6, 29, 100
9, 138360, Note_on_c, 6, 34, 100
9, 138360, Note_on_c, 6, 17, 100
9, 138360, Note_on_c, 6, 22, 100
9, 138390, Note_off_c, 6, 29, 0
9, 138390, Note_off_c, 6, 34, 0
9, 138390, Note_off_c, 6, 17, 0
9, 138390, Note_off_c, 6, 22, 0
9, 138390, Note_on_c, 6, 29, 100
9, 138390, Note_on_c, 6, 34, 100
9, 138390, Note_on_c, 6, 17, 100
9, 138390, Note_on_c, 6, 22, 100
9, 138420, Note_off_c, 6, 29, 0
9, 138420, Note_off_c, 6, 34, 0
9, 138420, Note_off_c, 6, 17, 0
9, 138420, Note_off_c, 6, 22, 0
9, 138420, Note_on_c, 6, 29, 100
9, 138420, Note_on_c, 6, 34, 100
9, 138420, Note_on_c, 6, 17, 100
9, 138420, Note_on_c, 6, 22, 100
9, 138450, Note_off_c, 6, 29, 0
9, 138450, Note_off_c, 6, 34, 0
9, 138450, Note_off_c, 6, 17, 0
9, 138450, Note_off_c, 6, 22, 0
9, 138450, Note_on_c, 6, 29, 100
9, 138450, Note_on_c, 6, 34, 100
9, 138450, Note_on_c, 6, 17, 100
9, 138450, Note_on_c, 6, 22, 100
9, 138480, Note_off_c, 6, 29, 0
9, 138480, Note_off_c, 6, 34, 0
9, 138480, Note_off_c, 6, 17, 0
9, 138480, Note_off_c, 6, 22, 0
9, 138480, Note_on_c, 6, 29, 100
9, 138480, Note_on_c, 6, 34, 100
9, 138480, Note_on_c, 6, 17, 100
9, 138480, Note_on_c, 6, 22, 100
9, 138510, Note_off_c, 6, 29, 0
9, 138510, Note_off_c, 6, 34, 0
9, 138510, Note_off_c, 6, 17, 0
9, 138510, Note_off_c, 6, 22, 0
9, 138510, Note_on_c, 6, 29, 100
9, 138510, Note_on_c, 6, 34, 100
9, 138510, Note_on_c, 6, 17, 100
9, 138510, Note_on_c, 6, 22, 100
9, 138540, Note_off_c, 6, 29, 0
9, 138540, Note_off_c, 6, 34, 0
9, 138540, Note_off_c, 6, 17, 0
9, 138540, Note_off_c, 6, 22, 0
9, 138540, Note_on_c, 6, 29, 100
9, 138540, Note_on_c, 6, 34, 100
9, 138540, Note_on_c, 6, 17, 100
9, 138540, Note_on_c, 6, 22, 100
9, 138570, Note_off_c, 6, 29, 0
9, 138570, Note_off_c, 6, 34, 0
9, 138570, Note_off_c, 6, 17, 0
9, 138570, Note_off_c, 6, 22, 0
9, 138570, Note_on_c, 6, 29, 100
9, 138570, Note_on_c, 6, 34, 100
9, 138570, Note_on_c, 6, 17, 100
9, 138570, Note_on_c, 6, 22, 100
9, 138600, Note_off_c, 6, 29, 0
9, 138600, Note_off_c, 6, 34, 0
9, 138600, Note_off_c, 6, 17, 0
9, 138600, Note_off_c, 6, 22, 0
9, 138600, Note_on_c, 6, 29, 100
9, 138600, Note_on_c, 6, 34, 100
9, 138600, Note_on_c, 6, 17, 100
9, 138600, Note_on_c, 6, 22, 100
9, 138630, Note_off_c, 6, 29, 0
9, 138630, Note_off_c, 6, 34, 0
9, 138630, Note_off_c, 6, 17, 0
9, 138630, Note_off_c, 6, 22, 0
9, 138630, Note_on_c, 6, 29, 100
9, 138630, Note_on_c, 6, 34, 100
9, 138630, Note_on_c, 6, 17, 100
9, 138630, Note_on_c, 6, 22, 100
9, 138660, Note_off_c, 6, 29, 0
9, 138660, Note_off_c, 6, 34, 0
9, 138660, Note_off_c, 6, 17, 0
9, 138660, Note_off_c, 6, 22, 0
9, 138660, Note_on_c, 6, 29, 100
9, 138660, Note_on_c, 6, 34, 100
9, 138660, Note_on_c, 6, 17, 100
9, 138660, Note_on_c, 6, 22, 100
9, 138690, Note_off_c, 6, 29, 0
9, 138690, Note_off_c, 6, 34, 0
9, 138690, Note_off_c, 6, 17, 0
9, 138690, Note_off_c, 6, 22, 0
9, 138690, Note_on_c, 6, 29, 100
9, 138690, Note_on_c, 6, 34, 100
9, 138690, Note_on_c, 6, 17, 100
9, 138690, Note_on_c, 6, 22, 100
9, 138720, Note_off_c, 6, 29, 0
9, 138720, Note_off_c, 6, 34, 0
9, 138720, Note_off_c, 6, 17, 0
9, 138720, Note_off_c, 6, 22, 0
9, 138720, Note_on_c, 6, 29, 100
9, 138720, Note_on_c, 6, 34, 100
9, 138720, Note_on_c, 6, 17, 100
9, 138720, Note_on_c, 6, 22, 100
9, 138750, Note_off_c, 6, 29, 0
9, 138750, Note_off_c, 6, 34, 0
9, 138750, Note_off_c, 6, 17, 0
9, 138750, Note_off_c, 6, 22, 0
9, 138750, Note_on_c, 6, 29, 100
9, 138750, Note_on_c, 6, 34, 100
9, 138750, Note_on_c, 6, 17, 100
9, 138750, Note_on_c, 6, 22, 100
9, 138780, Note_off_c, 6, 29, 0
9, 138780, Note_off_c, 6, 34, 0
9, 138780, Note_off_c, 6, 17, 0
9, 138780, Note_off_c, 6, 22, 0
9, 138780, Note_on_c, 6, 29, 100
9, 138780, Note_on_c, 6, 34, 100
9, 138780, Note_on_c, 6, 17, 100
9, 138780, Note_on_c, 6, 22, 100
9, 138810, Note_off_c, 6, 29, 0
9, 138810, Note_off_c, 6, 34, 0
9, 138810, Note_off_c, 6, 17, 0
9, 138810, Note_off_c, 6, 22, 0
9, 138810, Note_on_c, 6, 29, 100
9, 138810, Note_on_c, 6, 34, 100
9, 138810, Note_on_c, 6, 17, 100
9, 138810, Note_on_c, 6, 22, 100
9, 138840, Note_off_c, 6, 29, 0
9, 138840, Note_off_c, 6, 34, 0
9, 138840, Note_off_c, 6, 17, 0
9, 138840, Note_off_c, 6, 22, 0
9, 138840, Note_on_c, 6, 29, 100
9, 138840, Note_on_c, 6, 34, 100
9, 138840, Note_on_c, 6, 17, 100
9, 138840, Note_on_c, 6, 22, 100
9, 138870, Note_off_c, 6, 29, 0
9, 138870, Note_off_c, 6, 34, 0
9, 138870, Note_off_c, 6, 17, 0
9, 138870, Note_off_c, 6, 22, 0
9, 138870, Note_on_c, 6, 29, 100
9, 138870, Note_on_c, 6, 34, 100
9, 138870, Note_on_c, 6, 17, 100
9, 138870, Note_on_c, 6, 22, 100
9, 138900, Note_off_c, 6, 29, 0
9, 138900, Note_off_c, 6, 34, 0
9, 138900, Note_off_c, 6, 17, 0
9, 138900, Note_off_c, 6, 22, 0
9, 138900, Note_on_c, 6, 29, 100
9, 138900, Note_on_c, 6, 34, 100
9, 138900, Note_on_c, 6, 17, 100
9, 138900, Note_on_c, 6, 22, 100
9, 138930, Note_off_c, 6, 29, 0
9, 138930, Note_off_c, 6, 34, 0
9, 138930, Note_off_c, 6, 17, 0
9, 138930, Note_off_c, 6, 22, 0
9, 138930, Note_on_c, 6, 29, 100
9, 138930, Note_on_c, 6, 34, 100
9, 138930, Note_on_c, 6, 17, 100
9, 138930, Note_on_c, 6, 22, 100
9, 138960, Note_off_c, 6, 29, 0
9, 138960, Note_off_c, 6, 34, 0
9, 138960, Note_off_c, 6, 17, 0
9, 138960, Note_off_c, 6, 22, 0
9, 138960, Note_on_c, 6, 29, 100
9, 138960, Note_on_c, 6, 34, 100
9, 138960, Note_on_c, 6, 17, 100
9, 138960, Note_on_c, 6, 22, 100
9, 138990, Note_off_c, 6, 29, 0
9, 138990, Note_off_c, 6, 34, 0
9, 138990, Note_off_c, 6, 17, 0
9, 138990, Note_off_c, 6, 22, 0
9, 138990, Note_on_c, 6, 29, 100
9, 138990, Note_on_c, 6, 34, 100
9, 138990, Note_on_c, 6, 17, 100
9, 138990, Note_on_c, 6, 22, 100
9, 139020, Note_off_c, 6, 29, 0
9, 139020, Note_off_c, 6, 34, 0
9, 139020, Note_off_c, 6, 17, 0
9, 139020, Note_off_c, 6, 22, 0
9, 139020, Note_on_c, 6, 29, 100
9, 139020, Note_on_c, 6, 34, 100
9, 139020, Note_on_c, 6, 17, 100
9, 139020, Note_on_c, 6, 22, 100
9, 139050, Note_off_c, 6, 29, 0
9, 139050, Note_off_c, 6, 34, 0
9, 139050, Note_off_c, 6, 17, 0
9, 139050, Note_off_c, 6, 22, 0
9, 139050, Note_on_c, 6, 29, 100
9, 139050, Note_on_c, 6, 34, 100
9, 139050, Note_on_c, 6, 17, 100
9, 139050, Note_on_c, 6, 22, 100
9, 139080, Note_off_c, 6, 29, 0
9, 139080, Note_off_c, 6, 34, 0
9, 139080, Note_off_c, 6, 17, 0
9, 139080, Note_off_c, 6, 22, 0
9, 139080, Note_on_c, 6, 29, 100
9, 139080, Note_on_c, 6, 34, 100
9, 139080, Note_on_c, 6, 17, 100
9, 139080, Note_on_c, 6, 22, 100
9, 139110, Note_off_c, 6, 29, 0
9, 139110, Note_off_c, 6, 34, 0
9, 139110, Note_off_c, 6, 17, 0
9, 139110, Note_off_c, 6, 22, 0
9, 139110, Note_on_c, 6, 29, 100
9, 139110, Note_on_c, 6, 34, 100
9, 139110, Note_on_c, 6, 17, 100
9, 139110, Note_on_c, 6, 22, 100
9, 139140, Note_off_c, 6, 29, 0
9, 139140, Note_off_c, 6, 34, 0
9, 139140, Note_off_c, 6, 17, 0
9, 139140, Note_off_c, 6, 22, 0
9, 139140, Note_on_c, 6, 29, 100
9, 139140, Note_on_c, 6, 34, 100
9, 139140, Note_on_c, 6, 17, 100
9, 139140, Note_on_c, 6, 22, 100
9, 139170, Note_off_c, 6, 29, 0
9, 139170, Note_off_c, 6, 34, 0
9, 139170, Note_off_c, 6, 17, 0
9, 139170, Note_off_c, 6, 22, 0
9, 139170, Note_on_c, 6, 29, 100
9, 139170, Note_on_c, 6, 34, 100
9, 139170, Note_on_c, 6, 17, 100
9, 139170, Note_on_c, 6, 22, 100
9, 139200, Note_off_c, 6, 29, 0
9, 139200, Note_off_c, 6, 34, 0
9, 139200, Note_off_c, 6, 17, 0
9, 139200, Note_off_c, 6, 22, 0
9, 139200, Note_on_c, 6, 29, 100
9, 139200, Note_on_c, 6, 34, 100
9, 139200, Note_on_c, 6, 17, 100
9, 139200, Note_on_c, 6, 22, 100
9, 139230, Note_off_c, 6, 29, 0
9, 139230, Note_off_c, 6, 34, 0
9, 139230, Note_off_c, 6, 17, 0
9, 139230, Note_off_c, 6, 22, 0
9, 139230, Note_on_c, 6, 29, 100
9, 139230, Note_on_c, 6, 34, 100
9, 139230, Note_on_c, 6, 17, 100
9, 139230, Note_on_c, 6, 22, 100
9, 139260, Note_off_c, 6, 29, 0
9, 139260, Note_off_c, 6, 34, 0
9, 139260, Note_off_c, 6, 17, 0
9, 139260, Note_off_c, 6, 22, 0
9, 139260, Note_on_c, 6, 29, 100
9, 139260, Note_on_c, 6, 34, 100
9, 139260, Note_on_c, 6, 17, 100
9, 139260, Note_on_c, 6, 22, 100
9, 139290, Note_off_c, 6, 29, 0
9, 139290, Note_off_c, 6, 34, 0
9, 139290, Note_off_c, 6, 17, 0
9, 139290, Note_off_c, 6, 22, 0
9, 139290, Note_on_c, 6, 29, 100
9, 139290, Note_on_c, 6, 34, 100
9, 139290, Note_on_c, 6, 17, 100
9, 139290, Note_on_c, 6, 22, 100
9, 139320, Note_off_c, 6, 29, 0
9, 139320, Note_off_c, 6, 34, 0
9, 139320, Note_off_c, 6, 17, 0
9, 139320, Note_off_c, 6, 22, 0
9, 139320, Note_on_c, 6, 29, 100
9, 139320, Note_on_c, 6, 34, 100
9, 139320, Note_on_c, 6, 17, 100
9, 139320, Note_on_c, 6, 22, 100
9, 139350, Note_off_c, 6, 29, 0
9, 139350, Note_off_c, 6, 34, 0
9, 139350, Note_off_c, 6, 17, 0
9, 139350, Note_off_c, 6, 22, 0
9, 139350, Note_on_c, 6, 29, 100
9, 139350, Note_on_c, 6, 34, 100
9, 139350, Note_on_c, 6, 17, 100
9, 139350, Note_on_c, 6, 22, 100
9, 139380, Note_off_c, 6, 29, 0
9, 139380, Note_off_c, 6, 34, 0
9, 139380, Note_off_c, 6, 17, 0
9, 139380, Note_off_c, 6, 22, 0
9, 139380, Note_on_c, 6, 29, 100
9, 139380, Note_on_c, 6, 34, 100
9, 139380, Note_on_c, 6, 17, 100
9, 139380, Note_on_c, 6, 22, 100
9, 139410, Note_off_c, 6, 29, 0
9, 139410, Note_off_c, 6, 34, 0
9, 139410, Note_off_c, 6, 17, 0
9, 139410, Note_off_c, 6, 22, 0
9, 139410, Note_on_c, 6, 29, 100
9, 139410, Note_on_c, 6, 34, 100
9, 139410, Note_on_c, 6, 17, 100
9, 139410, Note_on_c, 6, 22, 100
9, 139440, Note_off_c, 6, 29, 0
9, 139440, Note_off_c, 6, 34, 0
9, 139440, Note_off_c, 6, 17, 0
9, 139440, Note_off_c, 6, 22, 0
9, 139440, Note_on_c, 6, 29, 100
9, 139440, Note_on_c, 6, 34, 100
9, 139440, Note_on_c, 6, 17, 100
9, 139440, Note_on_c, 6, 22, 100
9, 139470, Note_off_c, 6, 29, 0
9, 139470, Note_off_c, 6, 34, 0
9, 139470, Note_off_c, 6, 17, 0
9, 139470, Note_off_c, 6, 22, 0
9, 139470, Note_on_c, 6, 29, 100
9, 139470, Note_on_c, 6, 34, 100
9, 139470, Note_on_c, 6, 17, 100
9, 139470, Note_on_c, 6, 22, 100
9, 139500, Note_off_c, 6, 29, 0
9, 139500, Note_off_c, 6, 34, 0
9, 139500, Note_off_c, 6, 17, 0
9, 139500, Note_off_c, 6, 22, 0
9, 139500, Note_on_c, 6, 29, 100
9, 139500, Note_on_c, 6, 34, 100
9, 139500, Note_on_c, 6, 17, 100
9, 139500, Note_on_c, 6, 22, 100
9, 139530, Note_off_c, 6, 29, 0
9, 139530, Note_off_c, 6, 34, 0
9, 139530, Note_off_c, 6, 17, 0
9, 139530, Note_off_c, 6, 22, 0
9, 139530, Note_on_c, 6, 29, 100
9, 139530, Note_on_c, 6, 34, 100
9, 139530, Note_on_c, 6, 17, 100
9, 139530, Note_on_c, 6, 22, 100
9, 139560, Note_off_c, 6, 29, 0
9, 139560, Note_off_c, 6, 34, 0
9, 139560, Note_off_c, 6, 17, 0
9, 139560, Note_off_c, 6, 22, 0
9, 139560, Note_on_c, 6, 29, 100
9, 139560, Note_on_c, 6, 34, 100
9, 139560, Note_on_c, 6, 17, 100
9, 139560, Note_on_c, 6, 22, 100
9, 139590, Note_off_c, 6, 29, 0
9, 139590, Note_off_c, 6, 34, 0
9, 139590, Note_off_c, 6, 17, 0
9, 139590, Note_off_c, 6, 22, 0
9, 139590, Note_on_c, 6, 29, 100
9, 139590, Note_on_c, 6, 34, 100
9, 139590, Note_on_c, 6, 17, 100
9, 139590, Note_on_c, 6, 22, 100
9, 139620, Note_off_c, 6, 29, 0
9, 139620, Note_off_c, 6, 34, 0
9, 139620, Note_off_c, 6, 17, 0
9, 139620, Note_off_c, 6, 22, 0
9, 139620, Note_on_c, 6, 29, 100
9, 139620, Note_on_c, 6, 34, 100
9, 139620, Note_on_c, 6, 17, 100
9, 139620, Note_on_c, 6, 22, 100
9, 139650, Note_off_c, 6, 29, 0
9, 139650, Note_off_c, 6, 34, 0
9, 139650, Note_off_c, 6, 17, 0
9, 139650, Note_off_c, 6, 22, 0
9, 139650, Note_on_c, 6, 29, 100
9, 139650, Note_on_c, 6, 34, 100
9, 139650, Note_on_c, 6, 17, 100
9, 139650, Note_on_c, 6, 22, 100
9, 139680, Note_off_c, 6, 29, 0
9, 139680, Note_off_c, 6, 34, 0
9, 139680, Note_off_c, 6, 17, 0
9, 139680, Note_off_c, 6, 22, 0
9, 139680, Note_on_c, 6, 30, 100
9, 139680, Note_on_c, 6, 34, 100
9, 139680, Note_on_c, 6, 18, 100
9, 139680, Note_on_c, 6, 22, 100
9, 139710, Note_off_c, 6, 30, 0
9, 139710, Note_off_c, 6, 34, 0
9, 139710, Note_off_c, 6, 18, 0
9, 139710, Note_off_c, 6, 22, 0
9, 139710, Note_on_c, 6, 30, 100
9, 139710, Note_on_c, 6, 34, 100
9, 139710, Note_on_c, 6, 18, 100
9, 139710, Note_on_c, 6, 22, 100
9, 139740, Note_off_c, 6, 30, 0
9, 139740, Note_off_c, 6, 34, 0
9, 139740, Note_off_c, 6, 18, 0
9, 139740, Note_off_c, 6, 22, 0
9, 139740, Note_on_c, 6, 30, 100
9, 139740, Note_on_c, 6, 34, 100
9, 139740, Note_on_c, 6, 18, 100
9, 139740, Note_on_c, 6, 22, 100
9, 139770, Note_off_c, 6, 30, 0
9, 139770, Note_off_c, 6, 34, 0
9, 139770, Note_off_c, 6, 18, 0
9, 139770, Note_off_c, 6, 22, 0
9, 139770, Note_on_c, 6, 30, 100
9, 139770, Note_on_c, 6, 34, 100
9, 139770, Note_on_c, 6, 18, 100
9, 139770, Note_on_c, 6, 22, 100
9, 139800, Note_off_c, 6, 30, 0
9, 139800, Note_off_c, 6, 34, 0
9, 139800, Note_off_c, 6, 18, 0
9, 139800, Note_off_c, 6, 22, 0
9, 139800, Note_on_c, 6, 30, 100
9, 139800, Note_on_c, 6, 34, 100
9, 139800, Note_on_c, 6, 18, 100
9, 139800, Note_on_c, 6, 22, 100
9, 139830, Note_off_c, 6, 30, 0
9, 139830, Note_off_c, 6, 34, 0
9, 139830, Note_off_c, 6, 18, 0
9, 139830, Note_off_c, 6, 22, 0
9, 139830, Note_on_c, 6, 30, 100
9, 139830, Note_on_c, 6, 34, 100
9, 139830, Note_on_c, 6, 18, 100
9, 139830, Note_on_c, 6, 22, 100
9, 139860, Note_off_c, 6, 30, 0
9, 139860, Note_off_c, 6, 34, 0
9, 139860, Note_off_c, 6, 18, 0
9, 139860, Note_off_c, 6, 22, 0
9, 139860, Note_on_c, 6, 30, 100
9, 139860, Note_on_c, 6, 34, 100
9, 139860, Note_on_c, 6, 18, 100
9, 139860, Note_on_c, 6, 22, 100
9, 139890, Note_off_c, 6, 30, 0
9, 139890, Note_off_c, 6, 34, 0
9, 139890, Note_off_c, 6, 18, 0
9, 139890, Note_off_c, 6, 22, 0
9, 139890, Note_on_c, 6, 30, 100
9, 139890, Note_on_c, 6, 34, 100
9, 139890, Note_on_c, 6, 18, 100
9, 139890, Note_on_c, 6, 22, 100
9, 139920, Note_off_c, 6, 30, 0
9, 139920, Note_off_c, 6, 34, 0
9, 139920, Note_off_c, 6, 18, 0
9, 139920, Note_off_c, 6, 22, 0
9, 139920, Note_on_c, 6, 30, 100
9, 139920, Note_on_c, 6, 34, 100
9, 139920, Note_on_c, 6, 18, 100
9, 139920, Note_on_c, 6, 22, 100
9, 139950, Note_off_c, 6, 30, 0
9, 139950, Note_off_c, 6, 34, 0
9, 139950, Note_off_c, 6, 18, 0
9, 139950, Note_off_c, 6, 22, 0
9, 139950, Note_on_c, 6, 30, 100
9, 139950, Note_on_c, 6, 34, 100
9, 139950, Note_on_c, 6, 18, 100
9, 139950, Note_on_c, 6, 22, 100
9, 139980, Note_off_c, 6, 30, 0
9, 139980, Note_off_c, 6, 34, 0
9, 139980, Note_off_c, 6, 18, 0
9, 139980, Note_off_c, 6, 22, 0
9, 139980, Note_on_c, 6, 30, 100
9, 139980, Note_on_c, 6, 34, 100
9, 139980, Note_on_c, 6, 18, 100
9, 139980, Note_on_c, 6, 22, 100
9, 140010, Note_off_c, 6, 30, 0
9, 140010, Note_off_c, 6, 34, 0
9, 140010, Note_off_c, 6, 18, 0
9, 140010, Note_off_c, 6, 22, 0
9, 140010, Note_on_c, 6, 30, 100
9, 140010, Note_on_c, 6, 34, 100
9, 140010, Note_on_c, 6, 18, 100
9, 140010, Note_on_c, 6, 22, 100
9, 140040, Note_off_c, 6, 30, 0
9, 140040, Note_off_c, 6, 34, 0
9, 140040, Note_off_c, 6, 18, 0
9, 140040, Note_off_c, 6, 22, 0
9, 140040, Note_on_c, 6, 30, 100
9, 140040, Note_on_c, 6, 34, 100
9, 140040, Note_on_c, 6, 18, 100
9, 140040, Note_on_c, 6, 22, 100
9, 140070, Note_off_c, 6, 30, 0
9, 140070, Note_off_c, 6, 34, 0
9, 140070, Note_off_c, 6, 18, 0
9, 140070, Note_off_c, 6, 22, 0
9, 140070, Note_on_c, 6, 30, 100
9, 140070, Note_on_c, 6, 34, 100
9, 140070, Note_on_c, 6, 18, 100
9, 140070, Note_on_c, 6, 22, 100
9, 140100, Note_off_c, 6, 30, 0
9, 140100, Note_off_c, 6, 34, 0
9, 140100, Note_off_c, 6, 18, 0
9, 140100, Note_off_c, 6, 22, 0
9, 140100, Note_on_c, 6, 30, 100
9, 140100, Note_on_c, 6, 34, 100
9, 140100, Note_on_c, 6, 18, 100
9, 140100, Note_on_c, 6, 22, 100
9, 140130, Note_off_c, 6, 30, 0
9, 140130, Note_off_c, 6, 34, 0
9, 140130, Note_off_c, 6, 18, 0
9, 140130, Note_off_c, 6, 22, 0
9, 140130, Note_on_c, 6, 30, 100
9, 140130, Note_on_c, 6, 34, 100
9, 140130, Note_on_c, 6, 18, 100
9, 140130, Note_on_c, 6, 22, 100
9, 140160, Note_off_c, 6, 30, 0
9, 140160, Note_off_c, 6, 34, 0
9, 140160, Note_off_c, 6, 18, 0
9, 140160, Note_off_c, 6, 22, 0
9, 140160, Note_on_c, 6, 30, 100
9, 140160, Note_on_c, 6, 34, 100
9, 140160, Note_on_c, 6, 18, 100
9, 140160, Note_on_c, 6, 22, 100
9, 140190, Note_off_c, 6, 30, 0
9, 140190, Note_off_c, 6, 34, 0
9, 140190, Note_off_c, 6, 18, 0
9, 140190, Note_off_c, 6, 22, 0
9, 140190, Note_on_c, 6, 30, 100
9, 140190, Note_on_c, 6, 34, 100
9, 140190, Note_on_c, 6, 18, 100
9, 140190, Note_on_c, 6, 22, 100
9, 140220, Note_off_c, 6, 30, 0
9, 140220, Note_off_c, 6, 34, 0
9, 140220, Note_off_c, 6, 18, 0
9, 140220, Note_off_c, 6, 22, 0
9, 140220, Note_on_c, 6, 30, 100
9, 140220, Note_on_c, 6, 34, 100
9, 140220, Note_on_c, 6, 18, 100
9, 140220, Note_on_c, 6, 22, 100
9, 140250, Note_off_c, 6, 30, 0
9, 140250, Note_off_c, 6, 34, 0
9, 140250, Note_off_c, 6, 18, 0
9, 140250, Note_off_c, 6, 22, 0
9, 140250, Note_on_c, 6, 30, 100
9, 140250, Note_on_c, 6, 34, 100
9, 140250, Note_on_c, 6, 18, 100
9, 140250, Note_on_c, 6, 22, 100
9, 140280, Note_off_c, 6, 30, 0
9, 140280, Note_off_c, 6, 34, 0
9, 140280, Note_off_c, 6, 18, 0
9, 140280, Note_off_c, 6, 22, 0
9, 140280, Note_on_c, 6, 30, 100
9, 140280, Note_on_c, 6, 34, 100
9, 140280, Note_on_c, 6, 18, 100
9, 140280, Note_on_c, 6, 22, 100
9, 140310, Note_off_c, 6, 30, 0
9, 140310, Note_off_c, 6, 34, 0
9, 140310, Note_off_c, 6, 18, 0
9, 140310, Note_off_c, 6, 22, 0
9, 140310, Note_on_c, 6, 30, 100
9, 140310, Note_on_c, 6, 34, 100
9, 140310, Note_on_c, 6, 18, 100
9, 140310, Note_on_c, 6, 22, 100
9, 140340, Note_off_c, 6, 30, 0
9, 140340, Note_off_c, 6, 34, 0
9, 140340, Note_off_c, 6, 18, 0
9, 140340, Note_off_c, 6, 22, 0
9, 140340, Note_on_c, 6, 30, 100
9, 140340, Note_on_c, 6, 34, 100
9, 140340, Note_on_c, 6, 18, 100
9, 140340, Note_on_c, 6, 22, 100
9, 140370, Note_off_c, 6, 30, 0
9, 140370, Note_off_c, 6, 34, 0
9, 140370, Note_off_c, 6, 18, 0
9, 140370, Note_off_c, 6, 22, 0
9, 140370, Note_on_c, 6, 30, 100
9, 140370, Note_on_c, 6, 34, 100
9, 140370, Note_on_c, 6, 18, 100
9, 140370, Note_on_c, 6, 22, 100
9, 140400, Note_off_c, 6, 30, 0
9, 140400, Note_off_c, 6, 34, 0
9, 140400, Note_off_c, 6, 18, 0
9, 140400, Note_off_c, 6, 22, 0
9, 140400, Note_on_c, 6, 30, 100
9, 140400, Note_on_c, 6, 34, 100
9, 140400, Note_on_c, 6, 18, 100
9, 140400, Note_on_c, 6, 22, 100
9, 140430, Note_off_c, 6, 30, 0
9, 140430, Note_off_c, 6, 34, 0
9, 140430, Note_off_c, 6, 18, 0
9, 140430, Note_off_c, 6, 22, 0
9, 140430, Note_on_c, 6, 30, 100
9, 140430, Note_on_c, 6, 34, 100
9, 140430, Note_on_c, 6, 18, 100
9, 140430, Note_on_c, 6, 22, 100
9, 140460, Note_off_c, 6, 30, 0
9, 140460, Note_off_c, 6, 34, 0
9, 140460, Note_off_c, 6, 18, 0
9, 140460, Note_off_c, 6, 22, 0
9, 140460, Note_on_c, 6, 30, 100
9, 140460, Note_on_c, 6, 34, 100
9, 140460, Note_on_c, 6, 18, 100
9, 140460, Note_on_c, 6, 22, 100
9, 140490, Note_off_c, 6, 30, 0
9, 140490, Note_off_c, 6, 34, 0
9, 140490, Note_off_c, 6, 18, 0
9, 140490, Note_off_c, 6, 22, 0
9, 140490, Note_on_c, 6, 30, 100
9, 140490, Note_on_c, 6, 34, 100
9, 140490, Note_on_c, 6, 18, 100
9, 140490, Note_on_c, 6, 22, 100
9, 140520, Note_off_c, 6, 30, 0
9, 140520, Note_off_c, 6, 34, 0
9, 140520, Note_off_c, 6, 18, 0
9, 140520, Note_off_c, 6, 22, 0
9, 140520, Note_on_c, 6, 30, 100
9, 140520, Note_on_c, 6, 34, 100
9, 140520, Note_on_c, 6, 18, 100
9, 140520, Note_on_c, 6, 22, 100
9, 140550, Note_off_c, 6, 30, 0
9, 140550, Note_off_c, 6, 34, 0
9, 140550, Note_off_c, 6, 18, 0
9, 140550, Note_off_c, 6, 22, 0
9, 140550, Note_on_c, 6, 30, 100
9, 140550, Note_on_c, 6, 34, 100
9, 140550, Note_on_c, 6, 18, 100
9, 140550, Note_on_c, 6, 22, 100
9, 140580, Note_off_c, 6, 30, 0
9, 140580, Note_off_c, 6, 34, 0
9, 140580, Note_off_c, 6, 18, 0
9, 140580, Note_off_c, 6, 22, 0
9, 140580, Note_on_c, 6, 30, 100
9, 140580, Note_on_c, 6, 34, 100
9, 140580, Note_on_c, 6, 18, 100
9, 140580, Note_on_c, 6, 22, 100
9, 140610, Note_off_c, 6, 30, 0
9, 140610, Note_off_c, 6, 34, 0
9, 140610, Note_off_c, 6, 18, 0
9, 140610, Note_off_c, 6, 22, 0
9, 140610, Note_on_c, 6, 30, 100
9, 140610, Note_on_c, 6, 34, 100
9, 140610, Note_on_c, 6, 18, 100
9, 140610, Note_on_c, 6, 22, 100
9, 140640, Note_off_c, 6, 30, 0
9, 140640, Note_off_c, 6, 34, 0
9, 140640, Note_off_c, 6, 18, 0
9, 140640, Note_off_c, 6, 22, 0
9, 140640, Note_on_c, 6, 30, 100
9, 140640, Note_on_c, 6, 34, 100
9, 140640, Note_on_c, 6, 18, 100
9, 140640, Note_on_c, 6, 22, 100
9, 140670, Note_off_c, 6, 30, 0
9, 140670, Note_off_c, 6, 34, 0
9, 140670, Note_off_c, 6, 18, 0
9, 140670, Note_off_c, 6, 22, 0
9, 140670, Note_on_c, 6, 30, 100
9, 140670, Note_on_c, 6, 34, 100
9, 140670, Note_on_c, 6, 18, 100
9, 140670, Note_on_c, 6, 22, 100
9, 140700, Note_off_c, 6, 30, 0
9, 140700, Note_off_c, 6, 34, 0
9, 140700, Note_off_c, 6, 18, 0
9, 140700, Note_off_c, 6, 22, 0
9, 140700, Note_on_c, 6, 30, 100
9, 140700, Note_on_c, 6, 34, 100
9, 140700, Note_on_c, 6, 18, 100
9, 140700, Note_on_c, 6, 22, 100
9, 140730, Note_off_c, 6, 30, 0
9, 140730, Note_off_c, 6, 34, 0
9, 140730, Note_off_c, 6, 18, 0
9, 140730, Note_off_c, 6, 22, 0
9, 140730, Note_on_c, 6, 30, 100
9, 140730, Note_on_c, 6, 34, 100
9, 140730, Note_on_c, 6, 18, 100
9, 140730, Note_on_c, 6, 22, 100
9, 140760, Note_off_c, 6, 30, 0
9, 140760, Note_off_c, 6, 34, 0
9, 140760, Note_off_c, 6, 18, 0
9, 140760, Note_off_c, 6, 22, 0
9, 140760, Note_on_c, 6, 30, 100
9, 140760, Note_on_c, 6, 34, 100
9, 140760, Note_on_c, 6, 18, 100
9, 140760, Note_on_c, 6, 22, 100
9, 140790, Note_off_c, 6, 30, 0
9, 140790, Note_off_c, 6, 34, 0
9, 140790, Note_off_c, 6, 18, 0
9, 140790, Note_off_c, 6, 22, 0
9, 140790, Note_on_c, 6, 30, 100
9, 140790, Note_on_c, 6, 34, 100
9, 140790, Note_on_c, 6, 18, 100
9, 140790, Note_on_c, 6, 22, 100
9, 140820, Note_off_c, 6, 30, 0
9, 140820, Note_off_c, 6, 34, 0
9, 140820, Note_off_c, 6, 18, 0
9, 140820, Note_off_c, 6, 22, 0
9, 140820, Note_on_c, 6, 30, 100
9, 140820, Note_on_c, 6, 34, 100
9, 140820, Note_on_c, 6, 18, 100
9, 140820, Note_on_c, 6, 22, 100
9, 140850, Note_off_c, 6, 30, 0
9, 140850, Note_off_c, 6, 34, 0
9, 140850, Note_off_c, 6, 18, 0
9, 140850, Note_off_c, 6, 22, 0
9, 140850, Note_on_c, 6, 30, 100
9, 140850, Note_on_c, 6, 34, 100
9, 140850, Note_on_c, 6, 18, 100
9, 140850, Note_on_c, 6, 22, 100
9, 140880, Note_off_c, 6, 30, 0
9, 140880, Note_off_c, 6, 34, 0
9, 140880, Note_off_c, 6, 18, 0
9, 140880, Note_off_c, 6, 22, 0
9, 140880, Note_on_c, 6, 30, 100
9, 140880, Note_on_c, 6, 34, 100
9, 140880, Note_on_c, 6, 18, 100
9, 140880, Note_on_c, 6, 22, 100
9, 140910, Note_off_c, 6, 30, 0
9, 140910, Note_off_c, 6, 34, 0
9, 140910, Note_off_c, 6, 18, 0
9, 140910, Note_off_c, 6, 22, 0
9, 140910, Note_on_c, 6, 30, 100
9, 140910, Note_on_c, 6, 34, 100
9, 140910, Note_on_c, 6, 18, 100
9, 140910, Note_on_c, 6, 22, 100
9, 140940, Note_off_c, 6, 30, 0
9, 140940, Note_off_c, 6, 34, 0
9, 140940, Note_off_c, 6, 18, 0
9, 140940, Note_off_c, 6, 22, 0
9, 140940, Note_on_c, 6, 30, 100
9, 140940, Note_on_c, 6, 34, 100
9, 140940, Note_on_c, 6, 18, 100
9, 140940, Note_on_c, 6, 22, 100
9, 140970, Note_off_c, 6, 30, 0
9, 140970, Note_off_c, 6, 34, 0
9, 140970, Note_off_c, 6, 18, 0
9, 140970, Note_off_c, 6, 22, 0
9, 140970, Note_on_c, 6, 30, 100
9, 140970, Note_on_c, 6, 34, 100
9, 140970, Note_on_c, 6, 18, 100
9, 140970, Note_on_c, 6, 22, 100
9, 141000, Note_off_c, 6, 30, 0
9, 141000, Note_off_c, 6, 34, 0
9, 141000, Note_off_c, 6, 18, 0
9, 141000, Note_off_c, 6, 22, 0
9, 141000, Note_on_c, 6, 30, 100
9, 141000, Note_on_c, 6, 34, 100
9, 141000, Note_on_c, 6, 18, 100
9, 141000, Note_on_c, 6, 22, 100
9, 141030, Note_off_c, 6, 30, 0
9, 141030, Note_off_c, 6, 34, 0
9, 141030, Note_off_c, 6, 18, 0
9, 141030, Note_off_c, 6, 22, 0
9, 141030, Note_on_c, 6, 30, 100
9, 141030, Note_on_c, 6, 34, 100
9, 141030, Note_on_c, 6, 18, 100
9, 141030, Note_on_c, 6, 22, 100
9, 141060, Note_off_c, 6, 30, 0
9, 141060, Note_off_c, 6, 34, 0
9, 141060, Note_off_c, 6, 18, 0
9, 141060, Note_off_c, 6, 22, 0
9, 141060, Note_on_c, 6, 30, 100
9, 141060, Note_on_c, 6, 34, 100
9, 141060, Note_on_c, 6, 18, 100
9, 141060, Note_on_c, 6, 22, 100
9, 141090, Note_off_c, 6, 30, 0
9, 141090, Note_off_c, 6, 34, 0
9, 141090, Note_off_c, 6, 18, 0
9, 141090, Note_off_c, 6, 22, 0
9, 141090, Note_on_c, 6, 30, 100
9, 141090, Note_on_c, 6, 34, 100
9, 141090, Note_on_c, 6, 18, 100
9, 141090, Note_on_c, 6, 22, 100
9, 141120, Note_off_c, 6, 30, 0
9, 141120, Note_off_c, 6, 34, 0
9, 141120, Note_off_c, 6, 18, 0
9, 141120, Note_off_c, 6, 22, 0
9, 141120, Note_on_c, 6, 30, 100
9, 141120, Note_on_c, 6, 34, 100
9, 141120, Note_on_c, 6, 18, 100
9, 141120, Note_on_c, 6, 22, 100
9, 141150, Note_off_c, 6, 30, 0
9, 141150, Note_off_c, 6, 34, 0
9, 141150, Note_off_c, 6, 18, 0
9, 141150, Note_off_c, 6, 22, 0
9, 141150, Note_on_c, 6, 30, 100
9, 141150, Note_on_c, 6, 34, 100
9, 141150, Note_on_c, 6, 18, 100
9, 141150, Note_on_c, 6, 22, 100
9, 141180, Note_off_c, 6, 30, 0
9, 141180, Note_off_c, 6, 34, 0
9, 141180, Note_off_c, 6, 18, 0
9, 141180, Note_off_c, 6, 22, 0
9, 141180, Note_on_c, 6, 30, 100
9, 141180, Note_on_c, 6, 34, 100
9, 141180, Note_on_c, 6, 18, 100
9, 141180, Note_on_c, 6, 22, 100
9, 141210, Note_off_c, 6, 30, 0
9, 141210, Note_off_c, 6, 34, 0
9, 141210, Note_off_c, 6, 18, 0
9, 141210, Note_off_c, 6, 22, 0
9, 141210, Note_on_c, 6, 30, 100
9, 141210, Note_on_c, 6, 34, 100
9, 141210, Note_on_c, 6, 18, 100
9, 141210, Note_on_c, 6, 22, 100
9, 141240, Note_off_c, 6, 30, 0
9, 141240, Note_off_c, 6, 34, 0
9, 141240, Note_off_c, 6, 18, 0
9, 141240, Note_off_c, 6, 22, 0
9, 141240, Note_on_c, 6, 30, 100
9, 141240, Note_on_c, 6, 34, 100
9, 141240, Note_on_c, 6, 18, 100
9, 141240, Note_on_c, 6, 22, 100
9, 141270, Note_off_c, 6, 30, 0
9, 141270, Note_off_c, 6, 34, 0
9, 141270, Note_off_c, 6, 18, 0
9, 141270, Note_off_c, 6, 22, 0
9, 141270, Note_on_c, 6, 30, 100
9, 141270, Note_on_c, 6, 34, 100
9, 141270, Note_on_c, 6, 18, 100
9, 141270, Note_on_c, 6, 22, 100
9, 141300, Note_off_c, 6, 30, 0
9, 141300, Note_off_c, 6, 34, 0
9, 141300, Note_off_c, 6, 18, 0
9, 141300, Note_off_c, 6, 22, 0
9, 141300, Note_on_c, 6, 30, 100
9, 141300, Note_on_c, 6, 34, 100
9, 141300, Note_on_c, 6, 18, 100
9, 141300, Note_on_c, 6, 22, 100
9, 141330, Note_off_c, 6, 30, 0
9, 141330, Note_off_c, 6, 34, 0
9, 141330, Note_off_c, 6, 18, 0
9, 141330, Note_off_c, 6, 22, 0
9, 141330, Note_on_c, 6, 30, 100
9, 141330, Note_on_c, 6, 34, 100
9, 141330, Note_on_c, 6, 18, 100
9, 141330, Note_on_c, 6, 22, 100
9, 141360, Note_off_c, 6, 30, 0
9, 141360, Note_off_c, 6, 34, 0
9, 141360, Note_off_c, 6, 18, 0
9, 141360, Note_off_c, 6, 22, 0
9, 141360, Note_on_c, 6, 30, 100
9, 141360, Note_on_c, 6, 34, 100
9, 141360, Note_on_c, 6, 18, 100
9, 141360, Note_on_c, 6, 22, 100
9, 141390, Note_off_c, 6, 30, 0
9, 141390, Note_off_c, 6, 34, 0
9, 141390, Note_off_c, 6, 18, 0
9, 141390, Note_off_c, 6, 22, 0
9, 141390, Note_on_c, 6, 30, 100
9, 141390, Note_on_c, 6, 34, 100
9, 141390, Note_on_c, 6, 18, 100
9, 141390, Note_on_c, 6, 22, 100
9, 141420, Note_off_c, 6, 30, 0
9, 141420, Note_off_c, 6, 34, 0
9, 141420, Note_off_c, 6, 18, 0
9, 141420, Note_off_c, 6, 22, 0
9, 141420, Note_on_c, 6, 30, 100
9, 141420, Note_on_c, 6, 34, 100
9, 141420, Note_on_c, 6, 18, 100
9, 141420, Note_on_c, 6, 22, 100
9, 141450, Note_off_c, 6, 30, 0
9, 141450, Note_off_c, 6, 34, 0
9, 141450, Note_off_c, 6, 18, 0
9, 141450, Note_off_c, 6, 22, 0
9, 141450, Note_on_c, 6, 30, 100
9, 141450, Note_on_c, 6, 34, 100
9, 141450, Note_on_c, 6, 18, 100
9, 141450, Note_on_c, 6, 22, 100
9, 141480, Note_off_c, 6, 30, 0
9, 141480, Note_off_c, 6, 34, 0
9, 141480, Note_off_c, 6, 18, 0
9, 141480, Note_off_c, 6, 22, 0
9, 141480, Note_on_c, 6, 30, 100
9, 141480, Note_on_c, 6, 34, 100
9, 141480, Note_on_c, 6, 18, 100
9, 141480, Note_on_c, 6, 22, 100
9, 141510, Note_off_c, 6, 30, 0
9, 141510, Note_off_c, 6, 34, 0
9, 141510, Note_off_c, 6, 18, 0
9, 141510, Note_off_c, 6, 22, 0
9, 141510, Note_on_c, 6, 30, 100
9, 141510, Note_on_c, 6, 34, 100
9, 141510, Note_on_c, 6, 18, 100
9, 141510, Note_on_c, 6, 22, 100
9, 141540, Note_off_c, 6, 30, 0
9, 141540, Note_off_c, 6, 34, 0
9, 141540, Note_off_c, 6, 18, 0
9, 141540, Note_off_c, 6, 22, 0
9, 141540, Note_on_c, 6, 30, 100
9, 141540, Note_on_c, 6, 34, 100
9, 141540, Note_on_c, 6, 18, 100
9, 141540, Note_on_c, 6, 22, 100
9, 141570, Note_off_c, 6, 30, 0
9, 141570, Note_off_c, 6, 34, 0
9, 141570, Note_off_c, 6, 18, 0
9, 141570, Note_off_c, 6, 22, 0
9, 141570, Note_on_c, 6, 30, 100
9, 141570, Note_on_c, 6, 34, 100
9, 141570, Note_on_c, 6, 18, 100
9, 141570, Note_on_c, 6, 22, 100
9, 141600, Note_off_c, 6, 30, 0
9, 141600, Note_off_c, 6, 34, 0
9, 141600, Note_off_c, 6, 18, 0
9, 141600, Note_off_c, 6, 22, 0
9, 141600, Note_on_c, 6, 32, 100
9, 141600, Note_on_c, 6, 36, 100
9, 141600, Note_on_c, 6, 20, 100
9, 141600, Note_on_c, 6, 24, 100
9, 141630, Note_off_c, 6, 32, 0
9, 141630, Note_off_c, 6, 36, 0
9, 141630, Note_off_c, 6, 20, 0
9, 141630, Note_off_c, 6, 24, 0
9, 141630, Note_on_c, 6, 32, 100
9, 141630, Note_on_c, 6, 36, 100
9, 141630, Note_on_c, 6, 20, 100
9, 141630, Note_on_c, 6, 24, 100
9, 141660, Note_off_c, 6, 32, 0
9, 141660, Note_off_c, 6, 36, 0
9, 141660, Note_off_c, 6, 20, 0
9, 141660, Note_off_c, 6, 24, 0
9, 141660, Note_on_c, 6, 32, 100
9, 141660, Note_on_c, 6, 36, 100
9, 141660, Note_on_c, 6, 20, 100
9, 141660, Note_on_c, 6, 24, 100
9, 141690, Note_off_c, 6, 32, 0
9, 141690, Note_off_c, 6, 36, 0
9, 141690, Note_off_c, 6, 20, 0
9, 141690, Note_off_c, 6, 24, 0
9, 141690, Note_on_c, 6, 32, 100
9, 141690, Note_on_c, 6, 36, 100
9, 141690, Note_on_c, 6, 20, 100
9, 141690, Note_on_c, 6, 24, 100
9, 141720, Note_off_c, 6, 32, 0
9, 141720, Note_off_c, 6, 36, 0
9, 141720, Note_off_c, 6, 20, 0
9, 141720, Note_off_c, 6, 24, 0
9, 141720, Note_on_c, 6, 32, 100
9, 141720, Note_on_c, 6, 36, 100
9, 141720, Note_on_c, 6, 20, 100
9, 141720, Note_on_c, 6, 24, 100
9, 141750, Note_off_c, 6, 32, 0
9, 141750, Note_off_c, 6, 36, 0
9, 141750, Note_off_c, 6, 20, 0
9, 141750, Note_off_c, 6, 24, 0
9, 141750, Note_on_c, 6, 32, 100
9, 141750, Note_on_c, 6, 36, 100
9, 141750, Note_on_c, 6, 20, 100
9, 141750, Note_on_c, 6, 24, 100
9, 141780, Note_off_c, 6, 32, 0
9, 141780, Note_off_c, 6, 36, 0
9, 141780, Note_off_c, 6, 20, 0
9, 141780, Note_off_c, 6, 24, 0
9, 141780, Note_on_c, 6, 32, 100
9, 141780, Note_on_c, 6, 36, 100
9, 141780, Note_on_c, 6, 20, 100
9, 141780, Note_on_c, 6, 24, 100
9, 141810, Note_off_c, 6, 32, 0
9, 141810, Note_off_c, 6, 36, 0
9, 141810, Note_off_c, 6, 20, 0
9, 141810, Note_off_c, 6, 24, 0
9, 141810, Note_on_c, 6, 32, 100
9, 141810, Note_on_c, 6, 36, 100
9, 141810, Note_on_c, 6, 20, 100
9, 141810, Note_on_c, 6, 24, 100
9, 141840, Note_off_c, 6, 32, 0
9, 141840, Note_off_c, 6, 36, 0
9, 141840, Note_off_c, 6, 20, 0
9, 141840, Note_off_c, 6, 24, 0
9, 141840, Note_on_c, 6, 32, 100
9, 141840, Note_on_c, 6, 36, 100
9, 141840, Note_on_c, 6, 20, 100
9, 141840, Note_on_c, 6, 24, 100
9, 141870, Note_off_c, 6, 32, 0
9, 141870, Note_off_c, 6, 36, 0
9, 141870, Note_off_c, 6, 20, 0
9, 141870, Note_off_c, 6, 24, 0
9, 141870, Note_on_c, 6, 32, 100
9, 141870, Note_on_c, 6, 36, 100
9, 141870, Note_on_c, 6, 20, 100
9, 141870, Note_on_c, 6, 24, 100
9, 141900, Note_off_c, 6, 32, 0
9, 141900, Note_off_c, 6, 36, 0
9, 141900, Note_off_c, 6, 20, 0
9, 141900, Note_off_c, 6, 24, 0
9, 141900, Note_on_c, 6, 32, 100
9, 141900, Note_on_c, 6, 36, 100
9, 141900, Note_on_c, 6, 20, 100
9, 141900, Note_on_c, 6, 24, 100
9, 141930, Note_off_c, 6, 32, 0
9, 141930, Note_off_c, 6, 36, 0
9, 141930, Note_off_c, 6, 20, 0
9, 141930, Note_off_c, 6, 24, 0
9, 141930, Note_on_c, 6, 32, 100
9, 141930, Note_on_c, 6, 36, 100
9, 141930, Note_on_c, 6, 20, 100
9, 141930, Note_on_c, 6, 24, 100
9, 141960, Note_off_c, 6, 32, 0
9, 141960, Note_off_c, 6, 36, 0
9, 141960, Note_off_c, 6, 20, 0
9, 141960, Note_off_c, 6, 24, 0
9, 141960, Note_on_c, 6, 32, 100
9, 141960, Note_on_c, 6, 36, 100
9, 141960, Note_on_c, 6, 20, 100
9, 141960, Note_on_c, 6, 24, 100
9, 141990, Note_off_c, 6, 32, 0
9, 141990, Note_off_c, 6, 36, 0
9, 141990, Note_off_c, 6, 20, 0
9, 141990, Note_off_c, 6, 24, 0
9, 141990, Note_on_c, 6, 32, 100
9, 141990, Note_on_c, 6, 36, 100
9, 141990, Note_on_c, 6, 20, 100
9, 141990, Note_on_c, 6, 24, 100
9, 142020, Note_off_c, 6, 32, 0
9, 142020, Note_off_c, 6, 36, 0
9, 142020, Note_off_c, 6, 20, 0
9, 142020, Note_off_c, 6, 24, 0
9, 142020, Note_on_c, 6, 32, 100
9, 142020, Note_on_c, 6, 36, 100
9, 142020, Note_on_c, 6, 20, 100
9, 142020, Note_on_c, 6, 24, 100
9, 142050, Note_off_c, 6, 32, 0
9, 142050, Note_off_c, 6, 36, 0
9, 142050, Note_off_c, 6, 20, 0
9, 142050, Note_off_c, 6, 24, 0
9, 142050, Note_on_c, 6, 32, 100
9, 142050, Note_on_c, 6, 36, 100
9, 142050, Note_on_c, 6, 20, 100
9, 142050, Note_on_c, 6, 24, 100
9, 142080, Note_off_c, 6, 32, 0
9, 142080, Note_off_c, 6, 36, 0
9, 142080, Note_off_c, 6, 20, 0
9, 142080, Note_off_c, 6, 24, 0
9, 142080, Note_on_c, 6, 32, 100
9, 142080, Note_on_c, 6, 36, 100
9, 142080, Note_on_c, 6, 20, 100
9, 142080, Note_on_c, 6, 24, 100
9, 142110, Note_off_c, 6, 32, 0
9, 142110, Note_off_c, 6, 36, 0
9, 142110, Note_off_c, 6, 20, 0
9, 142110, Note_off_c, 6, 24, 0
9, 142110, Note_on_c, 6, 32, 100
9, 142110, Note_on_c, 6, 36, 100
9, 142110, Note_on_c, 6, 20, 100
9, 142110, Note_on_c, 6, 24, 100
9, 142140, Note_off_c, 6, 32, 0
9, 142140, Note_off_c, 6, 36, 0
9, 142140, Note_off_c, 6, 20, 0
9, 142140, Note_off_c, 6, 24, 0
9, 142140, Note_on_c, 6, 32, 100
9, 142140, Note_on_c, 6, 36, 100
9, 142140, Note_on_c, 6, 20, 100
9, 142140, Note_on_c, 6, 24, 100
9, 142170, Note_off_c, 6, 32, 0
9, 142170, Note_off_c, 6, 36, 0
9, 142170, Note_off_c, 6, 20, 0
9, 142170, Note_off_c, 6, 24, 0
9, 142170, Note_on_c, 6, 32, 100
9, 142170, Note_on_c, 6, 36, 100
9, 142170, Note_on_c, 6, 20, 100
9, 142170, Note_on_c, 6, 24, 100
9, 142200, Note_off_c, 6, 32, 0
9, 142200, Note_off_c, 6, 36, 0
9, 142200, Note_off_c, 6, 20, 0
9, 142200, Note_off_c, 6, 24, 0
9, 142200, Note_on_c, 6, 32, 100
9, 142200, Note_on_c, 6, 36, 100
9, 142200, Note_on_c, 6, 20, 100
9, 142200, Note_on_c, 6, 24, 100
9, 142230, Note_off_c, 6, 32, 0
9, 142230, Note_off_c, 6, 36, 0
9, 142230, Note_off_c, 6, 20, 0
9, 142230, Note_off_c, 6, 24, 0
9, 142230, Note_on_c, 6, 32, 100
9, 142230, Note_on_c, 6, 36, 100
9, 142230, Note_on_c, 6, 20, 100
9, 142230, Note_on_c, 6, 24, 100
9, 142260, Note_off_c, 6, 32, 0
9, 142260, Note_off_c, 6, 36, 0
9, 142260, Note_off_c, 6, 20, 0
9, 142260, Note_off_c, 6, 24, 0
9, 142260, Note_on_c, 6, 32, 100
9, 142260, Note_on_c, 6, 36, 100
9, 142260, Note_on_c, 6, 20, 100
9, 142260, Note_on_c, 6, 24, 100
9, 142290, Note_off_c, 6, 32, 0
9, 142290, Note_off_c, 6, 36, 0
9, 142290, Note_off_c, 6, 20, 0
9, 142290, Note_off_c, 6, 24, 0
9, 142290, Note_on_c, 6, 32, 100
9, 142290, Note_on_c, 6, 36, 100
9, 142290, Note_on_c, 6, 20, 100
9, 142290, Note_on_c, 6, 24, 100
9, 142320, Note_off_c, 6, 32, 0
9, 142320, Note_off_c, 6, 36, 0
9, 142320, Note_off_c, 6, 20, 0
9, 142320, Note_off_c, 6, 24, 0
9, 142320, Note_on_c, 6, 32, 100
9, 142320, Note_on_c, 6, 36, 100
9, 142320, Note_on_c, 6, 20, 100
9, 142320, Note_on_c, 6, 24, 100
9, 142350, Note_off_c, 6, 32, 0
9, 142350, Note_off_c, 6, 36, 0
9, 142350, Note_off_c, 6, 20, 0
9, 142350, Note_off_c, 6, 24, 0
9, 142350, Note_on_c, 6, 32, 100
9, 142350, Note_on_c, 6, 36, 100
9, 142350, Note_on_c, 6, 20, 100
9, 142350, Note_on_c, 6, 24, 100
9, 142380, Note_off_c, 6, 32, 0
9, 142380, Note_off_c, 6, 36, 0
9, 142380, Note_off_c, 6, 20, 0
9, 142380, Note_off_c, 6, 24, 0
9, 142380, Note_on_c, 6, 32, 100
9, 142380, Note_on_c, 6, 36, 100
9, 142380, Note_on_c, 6, 20, 100
9, 142380, Note_on_c, 6, 24, 100
9, 142410, Note_off_c, 6, 32, 0
9, 142410, Note_off_c, 6, 36, 0
9, 142410, Note_off_c, 6, 20, 0
9, 142410, Note_off_c, 6, 24, 0
9, 142410, Note_on_c, 6, 32, 100
9, 142410, Note_on_c, 6, 36, 100
9, 142410, Note_on_c, 6, 20, 100
9, 142410, Note_on_c, 6, 24, 100
9, 142440, Note_off_c, 6, 32, 0
9, 142440, Note_off_c, 6, 36, 0
9, 142440, Note_off_c, 6, 20, 0
9, 142440, Note_off_c, 6, 24, 0
9, 142440, Note_on_c, 6, 32, 100
9, 142440, Note_on_c, 6, 36, 100
9, 142440, Note_on_c, 6, 20, 100
9, 142440, Note_on_c, 6, 24, 100
9, 142470, Note_off_c, 6, 32, 0
9, 142470, Note_off_c, 6, 36, 0
9, 142470, Note_off_c, 6, 20, 0
9, 142470, Note_off_c, 6, 24, 0
9, 142470, Note_on_c, 6, 32, 100
9, 142470, Note_on_c, 6, 36, 100
9, 142470, Note_on_c, 6, 20, 100
9, 142470, Note_on_c, 6, 24, 100
9, 142500, Note_off_c, 6, 32, 0
9, 142500, Note_off_c, 6, 36, 0
9, 142500, Note_off_c, 6, 20, 0
9, 142500, Note_off_c, 6, 24, 0
9, 142500, Note_on_c, 6, 32, 100
9, 142500, Note_on_c, 6, 36, 100
9, 142500, Note_on_c, 6, 20, 100
9, 142500, Note_on_c, 6, 24, 100
9, 142530, Note_off_c, 6, 32, 0
9, 142530, Note_off_c, 6, 36, 0
9, 142530, Note_off_c, 6, 20, 0
9, 142530, Note_off_c, 6, 24, 0
9, 142530, Note_on_c, 6, 32, 100
9, 142530, Note_on_c, 6, 36, 100
9, 142530, Note_on_c, 6, 20, 100
9, 142530, Note_on_c, 6, 24, 100
9, 142560, Note_off_c, 6, 32, 0
9, 142560, Note_off_c, 6, 36, 0
9, 142560, Note_off_c, 6, 20, 0
9, 142560, Note_off_c, 6, 24, 0
9, 142560, Note_on_c, 6, 30, 100
9, 142560, Note_on_c, 6, 34, 100
9, 142560, Note_on_c, 6, 18, 100
9, 142560, Note_on_c, 6, 22, 100
9, 142590, Note_off_c, 6, 30, 0
9, 142590, Note_off_c, 6, 34, 0
9, 142590, Note_off_c, 6, 18, 0
9, 142590, Note_off_c, 6, 22, 0
9, 142590, Note_on_c, 6, 30, 100
9, 142590, Note_on_c, 6, 34, 100
9, 142590, Note_on_c, 6, 18, 100
9, 142590, Note_on_c, 6, 22, 100
9, 142620, Note_off_c, 6, 30, 0
9, 142620, Note_off_c, 6, 34, 0
9, 142620, Note_off_c, 6, 18, 0
9, 142620, Note_off_c, 6, 22, 0
9, 142620, Note_on_c, 6, 30, 100
9, 142620, Note_on_c, 6, 34, 100
9, 142620, Note_on_c, 6, 18, 100
9, 142620, Note_on_c, 6, 22, 100
9, 142650, Note_off_c, 6, 30, 0
9, 142650, Note_off_c, 6, 34, 0
9, 142650, Note_off_c, 6, 18, 0
9, 142650, Note_off_c, 6, 22, 0
9, 142650, Note_on_c, 6, 30, 100
9, 142650, Note_on_c, 6, 34, 100
9, 142650, Note_on_c, 6, 18, 100
9, 142650, Note_on_c, 6, 22, 100
9, 142680, Note_off_c, 6, 30, 0
9, 142680, Note_off_c, 6, 34, 0
9, 142680, Note_off_c, 6, 18, 0
9, 142680, Note_off_c, 6, 22, 0
9, 142680, Note_on_c, 6, 30, 100
9, 142680, Note_on_c, 6, 34, 100
9, 142680, Note_on_c, 6, 18, 100
9, 142680, Note_on_c, 6, 22, 100
9, 142710, Note_off_c, 6, 30, 0
9, 142710, Note_off_c, 6, 34, 0
9, 142710, Note_off_c, 6, 18, 0
9, 142710, Note_off_c, 6, 22, 0
9, 142710, Note_on_c, 6, 30, 100
9, 142710, Note_on_c, 6, 34, 100
9, 142710, Note_on_c, 6, 18, 100
9, 142710, Note_on_c, 6, 22, 100
9, 142740, Note_off_c, 6, 30, 0
9, 142740, Note_off_c, 6, 34, 0
9, 142740, Note_off_c, 6, 18, 0
9, 142740, Note_off_c, 6, 22, 0
9, 142740, Note_on_c, 6, 30, 100
9, 142740, Note_on_c, 6, 34, 100
9, 142740, Note_on_c, 6, 18, 100
9, 142740, Note_on_c, 6, 22, 100
9, 142770, Note_off_c, 6, 30, 0
9, 142770, Note_off_c, 6, 34, 0
9, 142770, Note_off_c, 6, 18, 0
9, 142770, Note_off_c, 6, 22, 0
9, 142770, Note_on_c, 6, 30, 100
9, 142770, Note_on_c, 6, 34, 100
9, 142770, Note_on_c, 6, 18, 100
9, 142770, Note_on_c, 6, 22, 100
9, 142800, Note_off_c, 6, 30, 0
9, 142800, Note_off_c, 6, 34, 0
9, 142800, Note_off_c, 6, 18, 0
9, 142800, Note_off_c, 6, 22, 0
9, 142800, Note_on_c, 6, 30, 100
9, 142800, Note_on_c, 6, 34, 100
9, 142800, Note_on_c, 6, 18, 100
9, 142800, Note_on_c, 6, 22, 100
9, 142830, Note_off_c, 6, 30, 0
9, 142830, Note_off_c, 6, 34, 0
9, 142830, Note_off_c, 6, 18, 0
9, 142830, Note_off_c, 6, 22, 0
9, 142830, Note_on_c, 6, 30, 100
9, 142830, Note_on_c, 6, 34, 100
9, 142830, Note_on_c, 6, 18, 100
9, 142830, Note_on_c, 6, 22, 100
9, 142860, Note_off_c, 6, 30, 0
9, 142860, Note_off_c, 6, 34, 0
9, 142860, Note_off_c, 6, 18, 0
9, 142860, Note_off_c, 6, 22, 0
9, 142860, Note_on_c, 6, 30, 100
9, 142860, Note_on_c, 6, 34, 100
9, 142860, Note_on_c, 6, 18, 100
9, 142860, Note_on_c, 6, 22, 100
9, 142890, Note_off_c, 6, 30, 0
9, 142890, Note_off_c, 6, 34, 0
9, 142890, Note_off_c, 6, 18, 0
9, 142890, Note_off_c, 6, 22, 0
9, 142890, Note_on_c, 6, 30, 100
9, 142890, Note_on_c, 6, 34, 100
9, 142890, Note_on_c, 6, 18, 100
9, 142890, Note_on_c, 6, 22, 100
9, 142920, Note_off_c, 6, 30, 0
9, 142920, Note_off_c, 6, 34, 0
9, 142920, Note_off_c, 6, 18, 0
9, 142920, Note_off_c, 6, 22, 0
9, 142920, Note_on_c, 6, 30, 100
9, 142920, Note_on_c, 6, 34, 100
9, 142920, Note_on_c, 6, 18, 100
9, 142920, Note_on_c, 6, 22, 100
9, 142950, Note_off_c, 6, 30, 0
9, 142950, Note_off_c, 6, 34, 0
9, 142950, Note_off_c, 6, 18, 0
9, 142950, Note_off_c, 6, 22, 0
9, 142950, Note_on_c, 6, 30, 100
9, 142950, Note_on_c, 6, 34, 100
9, 142950, Note_on_c, 6, 18, 100
9, 142950, Note_on_c, 6, 22, 100
9, 142980, Note_off_c, 6, 30, 0
9, 142980, Note_off_c, 6, 34, 0
9, 142980, Note_off_c, 6, 18, 0
9, 142980, Note_off_c, 6, 22, 0
9, 142980, Note_on_c, 6, 30, 100
9, 142980, Note_on_c, 6, 34, 100
9, 142980, Note_on_c, 6, 18, 100
9, 142980, Note_on_c, 6, 22, 100
9, 143010, Note_off_c, 6, 30, 0
9, 143010, Note_off_c, 6, 34, 0
9, 143010, Note_off_c, 6, 18, 0
9, 143010, Note_off_c, 6, 22, 0
9, 143010, Note_on_c, 6, 30, 100
9, 143010, Note_on_c, 6, 34, 100
9, 143010, Note_on_c, 6, 18, 100
9, 143010, Note_on_c, 6, 22, 100
9, 143040, Note_off_c, 6, 30, 0
9, 143040, Note_off_c, 6, 34, 0
9, 143040, Note_off_c, 6, 18, 0
9, 143040, Note_off_c, 6, 22, 0
9, 143040, Note_on_c, 6, 30, 100
9, 143040, Note_on_c, 6, 34, 100
9, 143040, Note_on_c, 6, 18, 100
9, 143040, Note_on_c, 6, 22, 100
9, 143070, Note_off_c, 6, 30, 0
9, 143070, Note_off_c, 6, 34, 0
9, 143070, Note_off_c, 6, 18, 0
9, 143070, Note_off_c, 6, 22, 0
9, 143070, Note_on_c, 6, 30, 100
9, 143070, Note_on_c, 6, 34, 100
9, 143070, Note_on_c, 6, 18, 100
9, 143070, Note_on_c, 6, 22, 100
9, 143100, Note_off_c, 6, 30, 0
9, 143100, Note_off_c, 6, 34, 0
9, 143100, Note_off_c, 6, 18, 0
9, 143100, Note_off_c, 6, 22, 0
9, 143100, Note_on_c, 6, 30, 100
9, 143100, Note_on_c, 6, 34, 100
9, 143100, Note_on_c, 6, 18, 100
9, 143100, Note_on_c, 6, 22, 100
9, 143130, Note_off_c, 6, 30, 0
9, 143130, Note_off_c, 6, 34, 0
9, 143130, Note_off_c, 6, 18, 0
9, 143130, Note_off_c, 6, 22, 0
9, 143130, Note_on_c, 6, 30, 100
9, 143130, Note_on_c, 6, 34, 100
9, 143130, Note_on_c, 6, 18, 100
9, 143130, Note_on_c, 6, 22, 100
9, 143160, Note_off_c, 6, 30, 0
9, 143160, Note_off_c, 6, 34, 0
9, 143160, Note_off_c, 6, 18, 0
9, 143160, Note_off_c, 6, 22, 0
9, 143160, Note_on_c, 6, 30, 100
9, 143160, Note_on_c, 6, 34, 100
9, 143160, Note_on_c, 6, 18, 100
9, 143160, Note_on_c, 6, 22, 100
9, 143190, Note_off_c, 6, 30, 0
9, 143190, Note_off_c, 6, 34, 0
9, 143190, Note_off_c, 6, 18, 0
9, 143190, Note_off_c, 6, 22, 0
9, 143190, Note_on_c, 6, 30, 100
9, 143190, Note_on_c, 6, 34, 100
9, 143190, Note_on_c, 6, 18, 100
9, 143190, Note_on_c, 6, 22, 100
9, 143220, Note_off_c, 6, 30, 0
9, 143220, Note_off_c, 6, 34, 0
9, 143220, Note_off_c, 6, 18, 0
9, 143220, Note_off_c, 6, 22, 0
9, 143220, Note_on_c, 6, 30, 100
9, 143220, Note_on_c, 6, 34, 100
9, 143220, Note_on_c, 6, 18, 100
9, 143220, Note_on_c, 6, 22, 100
9, 143250, Note_off_c, 6, 30, 0
9, 143250, Note_off_c, 6, 34, 0
9, 143250, Note_off_c, 6, 18, 0
9, 143250, Note_off_c, 6, 22, 0
9, 143250, Note_on_c, 6, 30, 100
9, 143250, Note_on_c, 6, 34, 100
9, 143250, Note_on_c, 6, 18, 100
9, 143250, Note_on_c, 6, 22, 100
9, 143280, Note_off_c, 6, 30, 0
9, 143280, Note_off_c, 6, 34, 0
9, 143280, Note_off_c, 6, 18, 0
9, 143280, Note_off_c, 6, 22, 0
9, 143280, Note_on_c, 6, 30, 100
9, 143280, Note_on_c, 6, 34, 100
9, 143280, Note_on_c, 6, 18, 100
9, 143280, Note_on_c, 6, 22, 100
9, 143310, Note_off_c, 6, 30, 0
9, 143310, Note_off_c, 6, 34, 0
9, 143310, Note_off_c, 6, 18, 0
9, 143310, Note_off_c, 6, 22, 0
9, 143310, Note_on_c, 6, 30, 100
9, 143310, Note_on_c, 6, 34, 100
9, 143310, Note_on_c, 6, 18, 100
9, 143310, Note_on_c, 6, 22, 100
9, 143340, Note_off_c, 6, 30, 0
9, 143340, Note_off_c, 6, 34, 0
9, 143340, Note_off_c, 6, 18, 0
9, 143340, Note_off_c, 6, 22, 0
9, 143340, Note_on_c, 6, 30, 100
9, 143340, Note_on_c, 6, 34, 100
9, 143340, Note_on_c, 6, 18, 100
9, 143340, Note_on_c, 6, 22, 100
9, 143370, Note_off_c, 6, 30, 0
9, 143370, Note_off_c, 6, 34, 0
9, 143370, Note_off_c, 6, 18, 0
9, 143370, Note_off_c, 6, 22, 0
9, 143370, Note_on_c, 6, 30, 100
9, 143370, Note_on_c, 6, 34, 100
9, 143370, Note_on_c, 6, 18, 100
9, 143370, Note_on_c, 6, 22, 100
9, 143400, Note_off_c, 6, 30, 0
9, 143400, Note_off_c, 6, 34, 0
9, 143400, Note_off_c, 6, 18, 0
9, 143400, Note_off_c, 6, 22, 0
9, 143400, Note_on_c, 6, 30, 100
9, 143400, Note_on_c, 6, 34, 100
9, 143400, Note_on_c, 6, 18, 100
9, 143400, Note_on_c, 6, 22, 100
9, 143430, Note_off_c, 6, 30, 0
9, 143430, Note_off_c, 6, 34, 0
9, 143430, Note_off_c, 6, 18, 0
9, 143430, Note_off_c, 6, 22, 0
9, 143430, Note_on_c, 6, 30, 100
9, 143430, Note_on_c, 6, 34, 100
9, 143430, Note_on_c, 6, 18, 100
9, 143430, Note_on_c, 6, 22, 100
9, 143460, Note_off_c, 6, 30, 0
9, 143460, Note_off_c, 6, 34, 0
9, 143460, Note_off_c, 6, 18, 0
9, 143460, Note_off_c, 6, 22, 0
9, 143460, Note_on_c, 6, 30, 100
9, 143460, Note_on_c, 6, 34, 100
9, 143460, Note_on_c, 6, 18, 100
9, 143460, Note_on_c, 6, 22, 100
9, 143490, Note_off_c, 6, 30, 0
9, 143490, Note_off_c, 6, 34, 0
9, 143490, Note_off_c, 6, 18, 0
9, 143490, Note_off_c, 6, 22, 0
9, 143490, Note_on_c, 6, 30, 100
9, 143490, Note_on_c, 6, 34, 100
9, 143490, Note_on_c, 6, 18, 100
9, 143490, Note_on_c, 6, 22, 100
9, 143520, Note_off_c, 6, 30, 0
9, 143520, Note_off_c, 6, 34, 0
9, 143520, Note_off_c, 6, 18, 0
9, 143520, Note_off_c, 6, 22, 0
9, 143520, Note_on_c, 6, 29, 100
9, 143520, Note_on_c, 6, 33, 100
9, 143520, Note_on_c, 6, 17, 100
9, 143520, Note_on_c, 6, 21, 100
9, 143550, Note_off_c, 6, 29, 0
9, 143550, Note_off_c, 6, 33, 0
9, 143550, Note_off_c, 6, 17, 0
9, 143550, Note_off_c, 6, 21, 0
9, 143550, Note_on_c, 6, 29, 100
9, 143550, Note_on_c, 6, 33, 100
9, 143550, Note_on_c, 6, 17, 100
9, 143550, Note_on_c, 6, 21, 100
9, 143580, Note_off_c, 6, 29, 0
9, 143580, Note_off_c, 6, 33, 0
9, 143580, Note_off_c, 6, 17, 0
9, 143580, Note_off_c, 6, 21, 0
9, 143580, Note_on_c, 6, 29, 100
9, 143580, Note_on_c, 6, 33, 100
9, 143580, Note_on_c, 6, 17, 100
9, 143580, Note_on_c, 6, 21, 100
9, 143610, Note_off_c, 6, 29, 0
9, 143610, Note_off_c, 6, 33, 0
9, 143610, Note_off_c, 6, 17, 0
9, 143610, Note_off_c, 6, 21, 0
9, 143610, Note_on_c, 6, 29, 100
9, 143610, Note_on_c, 6, 33, 100
9, 143610, Note_on_c, 6, 17, 100
9, 143610, Note_on_c, 6, 21, 100
9, 143640, Note_off_c, 6, 29, 0
9, 143640, Note_off_c, 6, 33, 0
9, 143640, Note_off_c, 6, 17, 0
9, 143640, Note_off_c, 6, 21, 0
9, 143640, Note_on_c, 6, 29, 100
9, 143640, Note_on_c, 6, 33, 100
9, 143640, Note_on_c, 6, 17, 100
9, 143640, Note_on_c, 6, 21, 100
9, 143670, Note_off_c, 6, 29, 0
9, 143670, Note_off_c, 6, 33, 0
9, 143670, Note_off_c, 6, 17, 0
9, 143670, Note_off_c, 6, 21, 0
9, 143670, Note_on_c, 6, 29, 100
9, 143670, Note_on_c, 6, 33, 100
9, 143670, Note_on_c, 6, 17, 100
9, 143670, Note_on_c, 6, 21, 100
9, 143700, Note_off_c, 6, 29, 0
9, 143700, Note_off_c, 6, 33, 0
9, 143700, Note_off_c, 6, 17, 0
9, 143700, Note_off_c, 6, 21, 0
9, 143700, Note_on_c, 6, 29, 100
9, 143700, Note_on_c, 6, 33, 100
9, 143700, Note_on_c, 6, 17, 100
9, 143700, Note_on_c, 6, 21, 100
9, 143730, Note_off_c, 6, 29, 0
9, 143730, Note_off_c, 6, 33, 0
9, 143730, Note_off_c, 6, 17, 0
9, 143730, Note_off_c, 6, 21, 0
9, 143730, Note_on_c, 6, 29, 100
9, 143730, Note_on_c, 6, 33, 100
9, 143730, Note_on_c, 6, 17, 100
9, 143730, Note_on_c, 6, 21, 100
9, 143760, Note_off_c, 6, 29, 0
9, 143760, Note_off_c, 6, 33, 0
9, 143760, Note_off_c, 6, 17, 0
9, 143760, Note_off_c, 6, 21, 0
9, 143760, Note_on_c, 6, 29, 100
9, 143760, Note_on_c, 6, 33, 100
9, 143760, Note_on_c, 6, 17, 100
9, 143760, Note_on_c, 6, 21, 100
9, 143790, Note_off_c, 6, 29, 0
9, 143790, Note_off_c, 6, 33, 0
9, 143790, Note_off_c, 6, 17, 0
9, 143790, Note_off_c, 6, 21, 0
9, 143790, Note_on_c, 6, 29, 100
9, 143790, Note_on_c, 6, 33, 100
9, 143790, Note_on_c, 6, 17, 100
9, 143790, Note_on_c, 6, 21, 100
9, 143820, Note_off_c, 6, 29, 0
9, 143820, Note_off_c, 6, 33, 0
9, 143820, Note_off_c, 6, 17, 0
9, 143820, Note_off_c, 6, 21, 0
9, 143820, Note_on_c, 6, 29, 100
9, 143820, Note_on_c, 6, 33, 100
9, 143820, Note_on_c, 6, 17, 100
9, 143820, Note_on_c, 6, 21, 100
9, 143850, Note_off_c, 6, 29, 0
9, 143850, Note_off_c, 6, 33, 0
9, 143850, Note_off_c, 6, 17, 0
9, 143850, Note_off_c, 6, 21, 0
9, 143850, Note_on_c, 6, 29, 100
9, 143850, Note_on_c, 6, 33, 100
9, 143850, Note_on_c, 6, 17, 100
9, 143850, Note_on_c, 6, 21, 100
9, 143880, Note_off_c, 6, 29, 0
9, 143880, Note_off_c, 6, 33, 0
9, 143880, Note_off_c, 6, 17, 0
9, 143880, Note_off_c, 6, 21, 0
9, 143880, Note_on_c, 6, 29, 100
9, 143880, Note_on_c, 6, 33, 100
9, 143880, Note_on_c, 6, 17, 100
9, 143880, Note_on_c, 6, 21, 100
9, 143910, Note_off_c, 6, 29, 0
9, 143910, Note_off_c, 6, 33, 0
9, 143910, Note_off_c, 6, 17, 0
9, 143910, Note_off_c, 6, 21, 0
9, 143910, Note_on_c, 6, 29, 100
9, 143910, Note_on_c, 6, 33, 100
9, 143910, Note_on_c, 6, 17, 100
9, 143910, Note_on_c, 6, 21, 100
9, 143940, Note_off_c, 6, 29, 0
9, 143940, Note_off_c, 6, 33, 0
9, 143940, Note_off_c, 6, 17, 0
9, 143940, Note_off_c, 6, 21, 0
9, 143940, Note_on_c, 6, 29, 100
9, 143940, Note_on_c, 6, 33, 100
9, 143940, Note_on_c, 6, 17, 100
9, 143940, Note_on_c, 6, 21, 100
9, 143970, Note_off_c, 6, 29, 0
9, 143970, Note_off_c, 6, 33, 0
9, 143970, Note_off_c, 6, 17, 0
9, 143970, Note_off_c, 6, 21, 0
9, 143970, Note_on_c, 6, 29, 100
9, 143970, Note_on_c, 6, 33, 100
9, 143970, Note_on_c, 6, 17, 100
9, 143970, Note_on_c, 6, 21, 100
9, 144000, Note_off_c, 6, 29, 0
9, 144000, Note_off_c, 6, 33, 0
9, 144000, Note_off_c, 6, 17, 0
9, 144000, Note_off_c, 6, 21, 0
9, 144000, Note_on_c, 6, 29, 100
9, 144000, Note_on_c, 6, 33, 100
9, 144000, Note_on_c, 6, 17, 100
9, 144000, Note_on_c, 6, 21, 100
9, 144030, Note_off_c, 6, 29, 0
9, 144030, Note_off_c, 6, 33, 0
9, 144030, Note_off_c, 6, 17, 0
9, 144030, Note_off_c, 6, 21, 0
9, 144030, Note_on_c, 6, 29, 100
9, 144030, Note_on_c, 6, 33, 100
9, 144030, Note_on_c, 6, 17, 100
9, 144030, Note_on_c, 6, 21, 100
9, 144060, Note_off_c, 6, 29, 0
9, 144060, Note_off_c, 6, 33, 0
9, 144060, Note_off_c, 6, 17, 0
9, 144060, Note_off_c, 6, 21, 0
9, 144060, Note_on_c, 6, 29, 100
9, 144060, Note_on_c, 6, 33, 100
9, 144060, Note_on_c, 6, 17, 100
9, 144060, Note_on_c, 6, 21, 100
9, 144090, Note_off_c, 6, 29, 0
9, 144090, Note_off_c, 6, 33, 0
9, 144090, Note_off_c, 6, 17, 0
9, 144090, Note_off_c, 6, 21, 0
9, 144090, Note_on_c, 6, 29, 100
9, 144090, Note_on_c, 6, 33, 100
9, 144090, Note_on_c, 6, 17, 100
9, 144090, Note_on_c, 6, 21, 100
9, 144120, Note_off_c, 6, 29, 0
9, 144120, Note_off_c, 6, 33, 0
9, 144120, Note_off_c, 6, 17, 0
9, 144120, Note_off_c, 6, 21, 0
9, 144120, Note_on_c, 6, 29, 100
9, 144120, Note_on_c, 6, 33, 100
9, 144120, Note_on_c, 6, 17, 100
9, 144120, Note_on_c, 6, 21, 100
9, 144150, Note_off_c, 6, 29, 0
9, 144150, Note_off_c, 6, 33, 0
9, 144150, Note_off_c, 6, 17, 0
9, 144150, Note_off_c, 6, 21, 0
9, 144150, Note_on_c, 6, 29, 100
9, 144150, Note_on_c, 6, 33, 100
9, 144150, Note_on_c, 6, 17, 100
9, 144150, Note_on_c, 6, 21, 100
9, 144180, Note_off_c, 6, 29, 0
9, 144180, Note_off_c, 6, 33, 0
9, 144180, Note_off_c, 6, 17, 0
9, 144180, Note_off_c, 6, 21, 0
9, 144180, Note_on_c, 6, 29, 100
9, 144180, Note_on_c, 6, 33, 100
9, 144180, Note_on_c, 6, 17, 100
9, 144180, Note_on_c, 6, 21, 100
9, 144210, Note_off_c, 6, 29, 0
9, 144210, Note_off_c, 6, 33, 0
9, 144210, Note_off_c, 6, 17, 0
9, 144210, Note_off_c, 6, 21, 0
9, 144210, Note_on_c, 6, 29, 100
9, 144210, Note_on_c, 6, 33, 100
9, 144210, Note_on_c, 6, 17, 100
9, 144210, Note_on_c, 6, 21, 100
9, 144240, Note_off_c, 6, 29, 0
9, 144240, Note_off_c, 6, 33, 0
9, 144240, Note_off_c, 6, 17, 0
9, 144240, Note_off_c, 6, 21, 0
9, 144240, Note_on_c, 6, 29, 100
9, 144240, Note_on_c, 6, 33, 100
9, 144240, Note_on_c, 6, 17, 100
9, 144240, Note_on_c, 6, 21, 100
9, 144270, Note_off_c, 6, 29, 0
9, 144270, Note_off_c, 6, 33, 0
9, 144270, Note_off_c, 6, 17, 0
9, 144270, Note_off_c, 6, 21, 0
9, 144270, Note_on_c, 6, 29, 100
9, 144270, Note_on_c, 6, 33, 100
9, 144270, Note_on_c, 6, 17, 100
9, 144270, Note_on_c, 6, 21, 100
9, 144300, Note_off_c, 6, 29, 0
9, 144300, Note_off_c, 6, 33, 0
9, 144300, Note_off_c, 6, 17, 0
9, 144300, Note_off_c, 6, 21, 0
9, 144300, Note_on_c, 6, 29, 100
9, 144300, Note_on_c, 6, 33, 100
9, 144300, Note_on_c, 6, 17, 100
9, 144300, Note_on_c, 6, 21, 100
9, 144330, Note_off_c, 6, 29, 0
9, 144330, Note_off_c, 6, 33, 0
9, 144330, Note_off_c, 6, 17, 0
9, 144330, Note_off_c, 6, 21, 0
9, 144330, Note_on_c, 6, 29, 100
9, 144330, Note_on_c, 6, 33, 100
9, 144330, Note_on_c, 6, 17, 100
9, 144330, Note_on_c, 6, 21, 100
9, 144360, Note_off_c, 6, 29, 0
9, 144360, Note_off_c, 6, 33, 0
9, 144360, Note_off_c, 6, 17, 0
9, 144360, Note_off_c, 6, 21, 0
9, 144360, Note_on_c, 6, 29, 100
9, 144360, Note_on_c, 6, 33, 100
9, 144360, Note_on_c, 6, 17, 100
9, 144360, Note_on_c, 6, 21, 100
9, 144390, Note_off_c, 6, 29, 0
9, 144390, Note_off_c, 6, 33, 0
9, 144390, Note_off_c, 6, 17, 0
9, 144390, Note_off_c, 6, 21, 0
9, 144390, Note_on_c, 6, 29, 100
9, 144390, Note_on_c, 6, 33, 100
9, 144390, Note_on_c, 6, 17, 100
9, 144390, Note_on_c, 6, 21, 100
9, 144420, Note_off_c, 6, 29, 0
9, 144420, Note_off_c, 6, 33, 0
9, 144420, Note_off_c, 6, 17, 0
9, 144420, Note_off_c, 6, 21, 0
9, 144420, Note_on_c, 6, 29, 100
9, 144420, Note_on_c, 6, 33, 100
9, 144420, Note_on_c, 6, 17, 100
9, 144420, Note_on_c, 6, 21, 100
9, 144450, Note_off_c, 6, 29, 0
9, 144450, Note_off_c, 6, 33, 0
9, 144450, Note_off_c, 6, 17, 0
9, 144450, Note_off_c, 6, 21, 0
9, 144450, Note_on_c, 6, 29, 100
9, 144450, Note_on_c, 6, 33, 100
9, 144450, Note_on_c, 6, 17, 100
9, 144450, Note_on_c, 6, 21, 100
9, 144480, Note_off_c, 6, 29, 0
9, 144480, Note_off_c, 6, 33, 0
9, 144480, Note_off_c, 6, 17, 0
9, 144480, Note_off_c, 6, 21, 0
9, 144480, Note_on_c, 6, 29, 100
9, 144480, Note_on_c, 6, 33, 100
9, 144480, Note_on_c, 6, 17, 100
9, 144480, Note_on_c, 6, 21, 100
9, 144510, Note_off_c, 6, 29, 0
9, 144510, Note_off_c, 6, 33, 0
9, 144510, Note_off_c, 6, 17, 0
9, 144510, Note_off_c, 6, 21, 0
9, 144510, Note_on_c, 6, 29, 100
9, 144510, Note_on_c, 6, 33, 100
9, 144510, Note_on_c, 6, 17, 100
9, 144510, Note_on_c, 6, 21, 100
9, 144540, Note_off_c, 6, 29, 0
9, 144540, Note_off_c, 6, 33, 0
9, 144540, Note_off_c, 6, 17, 0
9, 144540, Note_off_c, 6, 21, 0
9, 144540, Note_on_c, 6, 29, 100
9, 144540, Note_on_c, 6, 33, 100
9, 144540, Note_on_c, 6, 17, 100
9, 144540, Note_on_c, 6, 21, 100
9, 144570, Note_off_c, 6, 29, 0
9, 144570, Note_off_c, 6, 33, 0
9, 144570, Note_off_c, 6, 17, 0
9, 144570, Note_off_c, 6, 21, 0
9, 144570, Note_on_c, 6, 29, 100
9, 144570, Note_on_c, 6, 33, 100
9, 144570, Note_on_c, 6, 17, 100
9, 144570, Note_on_c, 6, 21, 100
9, 144600, Note_off_c, 6, 29, 0
9, 144600, Note_off_c, 6, 33, 0
9, 144600, Note_off_c, 6, 17, 0
9, 144600, Note_off_c, 6, 21, 0
9, 144600, Note_on_c, 6, 29, 100
9, 144600, Note_on_c, 6, 33, 100
9, 144600, Note_on_c, 6, 17, 100
9, 144600, Note_on_c, 6, 21, 100
9, 144630, Note_off_c, 6, 29, 0
9, 144630, Note_off_c, 6, 33, 0
9, 144630, Note_off_c, 6, 17, 0
9, 144630, Note_off_c, 6, 21, 0
9, 144630, Note_on_c, 6, 29, 100
9, 144630, Note_on_c, 6, 33, 100
9, 144630, Note_on_c, 6, 17, 100
9, 144630, Note_on_c, 6, 21, 100
9, 144660, Note_off_c, 6, 29, 0
9, 144660, Note_off_c, 6, 33, 0
9, 144660, Note_off_c, 6, 17, 0
9, 144660, Note_off_c, 6, 21, 0
9, 144660, Note_on_c, 6, 29, 100
9, 144660, Note_on_c, 6, 33, 100
9, 144660, Note_on_c, 6, 17, 100
9, 144660, Note_on_c, 6, 21, 100
9, 144690, Note_off_c, 6, 29, 0
9, 144690, Note_off_c, 6, 33, 0
9, 144690, Note_off_c, 6, 17, 0
9, 144690, Note_off_c, 6, 21, 0
9, 144690, Note_on_c, 6, 29, 100
9, 144690, Note_on_c, 6, 33, 100
9, 144690, Note_on_c, 6, 17, 100
9, 144690, Note_on_c, 6, 21, 100
9, 144720, Note_off_c, 6, 29, 0
9, 144720, Note_off_c, 6, 33, 0
9, 144720, Note_off_c, 6, 17, 0
9, 144720, Note_off_c, 6, 21, 0
9, 144720, Note_on_c, 6, 29, 100
9, 144720, Note_on_c, 6, 33, 100
9, 144720, Note_on_c, 6, 17, 100
9, 144720, Note_on_c, 6, 21, 100
9, 144750, Note_off_c, 6, 29, 0
9, 144750, Note_off_c, 6, 33, 0
9, 144750, Note_off_c, 6, 17, 0
9, 144750, Note_off_c, 6, 21, 0
9, 144750, Note_on_c, 6, 29, 100
9, 144750, Note_on_c, 6, 33, 100
9, 144750, Note_on_c, 6, 17, 100
9, 144750, Note_on_c, 6, 21, 100
9, 144780, Note_off_c, 6, 29, 0
9, 144780, Note_off_c, 6, 33, 0
9, 144780, Note_off_c, 6, 17, 0
9, 144780, Note_off_c, 6, 21, 0
9, 144780, Note_on_c, 6, 29, 100
9, 144780, Note_on_c, 6, 33, 100
9, 144780, Note_on_c, 6, 17, 100
9, 144780, Note_on_c, 6, 21, 100
9, 144810, Note_off_c, 6, 29, 0
9, 144810, Note_off_c, 6, 33, 0
9, 144810, Note_off_c, 6, 17, 0
9, 144810, Note_off_c, 6, 21, 0
9, 144810, Note_on_c, 6, 29, 100
9, 144810, Note_on_c, 6, 33, 100
9, 144810, Note_on_c, 6, 17, 100
9, 144810, Note_on_c, 6, 21, 100
9, 144840, Note_off_c, 6, 29, 0
9, 144840, Note_off_c, 6, 33, 0
9, 144840, Note_off_c, 6, 17, 0
9, 144840, Note_off_c, 6, 21, 0
9, 144840, Note_on_c, 6, 29, 100
9, 144840, Note_on_c, 6, 33, 100
9, 144840, Note_on_c, 6, 17, 100
9, 144840, Note_on_c, 6, 21, 100
9, 144870, Note_off_c, 6, 29, 0
9, 144870, Note_off_c, 6, 33, 0
9, 144870, Note_off_c, 6, 17, 0
9, 144870, Note_off_c, 6, 21, 0
9, 144870, Note_on_c, 6, 29, 100
9, 144870, Note_on_c, 6, 33, 100
9, 144870, Note_on_c, 6, 17, 100
9, 144870, Note_on_c, 6, 21, 100
9, 144900, Note_off_c, 6, 29, 0
9, 144900, Note_off_c, 6, 33, 0
9, 144900, Note_off_c, 6, 17, 0
9, 144900, Note_off_c, 6, 21, 0
9, 144900, Note_on_c, 6, 29, 100
9, 144900, Note_on_c, 6, 33, 100
9, 144900, Note_on_c, 6, 17, 100
9, 144900, Note_on_c, 6, 21, 100
9, 144930, Note_off_c, 6, 29, 0
9, 144930, Note_off_c, 6, 33, 0
9, 144930, Note_off_c, 6, 17, 0
9, 144930, Note_off_c, 6, 21, 0
9, 144930, Note_on_c, 6, 29, 100
9, 144930, Note_on_c, 6, 33, 100
9, 144930, Note_on_c, 6, 17, 100
9, 144930, Note_on_c, 6, 21, 100
9, 144960, Note_off_c, 6, 29, 0
9, 144960, Note_off_c, 6, 33, 0
9, 144960, Note_off_c, 6, 17, 0
9, 144960, Note_off_c, 6, 21, 0
9, 144960, Note_on_c, 6, 29, 100
9, 144960, Note_on_c, 6, 33, 100
9, 144960, Note_on_c, 6, 17, 100
9, 144960, Note_on_c, 6, 21, 100
9, 144990, Note_off_c, 6, 29, 0
9, 144990, Note_off_c, 6, 33, 0
9, 144990, Note_off_c, 6, 17, 0
9, 144990, Note_off_c, 6, 21, 0
9, 144990, Note_on_c, 6, 29, 100
9, 144990, Note_on_c, 6, 33, 100
9, 144990, Note_on_c, 6, 17, 100
9, 144990, Note_on_c, 6, 21, 100
9, 145020, Note_off_c, 6, 29, 0
9, 145020, Note_off_c, 6, 33, 0
9, 145020, Note_off_c, 6, 17, 0
9, 145020, Note_off_c, 6, 21, 0
9, 145020, Note_on_c, 6, 29, 100
9, 145020, Note_on_c, 6, 33, 100
9, 145020, Note_on_c, 6, 17, 100
9, 145020, Note_on_c, 6, 21, 100
9, 145050, Note_off_c, 6, 29, 0
9, 145050, Note_off_c, 6, 33, 0
9, 145050, Note_off_c, 6, 17, 0
9, 145050, Note_off_c, 6, 21, 0
9, 145050, Note_on_c, 6, 29, 100
9, 145050, Note_on_c, 6, 33, 100
9, 145050, Note_on_c, 6, 17, 100
9, 145050, Note_on_c, 6, 21, 100
9, 145080, Note_off_c, 6, 29, 0
9, 145080, Note_off_c, 6, 33, 0
9, 145080, Note_off_c, 6, 17, 0
9, 145080, Note_off_c, 6, 21, 0
9, 145080, Note_on_c, 6, 29, 100
9, 145080, Note_on_c, 6, 33, 100
9, 145080, Note_on_c, 6, 17, 100
9, 145080, Note_on_c, 6, 21, 100
9, 145110, Note_off_c, 6, 29, 0
9, 145110, Note_off_c, 6, 33, 0
9, 145110, Note_off_c, 6, 17, 0
9, 145110, Note_off_c, 6, 21, 0
9, 145110, Note_on_c, 6, 29, 100
9, 145110, Note_on_c, 6, 33, 100
9, 145110, Note_on_c, 6, 17, 100
9, 145110, Note_on_c, 6, 21, 100
9, 145140, Note_off_c, 6, 29, 0
9, 145140, Note_off_c, 6, 33, 0
9, 145140, Note_off_c, 6, 17, 0
9, 145140, Note_off_c, 6, 21, 0
9, 145140, Note_on_c, 6, 29, 100
9, 145140, Note_on_c, 6, 33, 100
9, 145140, Note_on_c, 6, 17, 100
9, 145140, Note_on_c, 6, 21, 100
9, 145170, Note_off_c, 6, 29, 0
9, 145170, Note_off_c, 6, 33, 0
9, 145170, Note_off_c, 6, 17, 0
9, 145170, Note_off_c, 6, 21, 0
9, 145170, Note_on_c, 6, 29, 100
9, 145170, Note_on_c, 6, 33, 100
9, 145170, Note_on_c, 6, 17, 100
9, 145170, Note_on_c, 6, 21, 100
9, 145200, Note_off_c, 6, 29, 0
9, 145200, Note_off_c, 6, 33, 0
9, 145200, Note_off_c, 6, 17, 0
9, 145200, Note_off_c, 6, 21, 0
9, 145200, Note_on_c, 6, 29, 100
9, 145200, Note_on_c, 6, 33, 100
9, 145200, Note_on_c, 6, 17, 100
9, 145200, Note_on_c, 6, 21, 100
9, 145230, Note_off_c, 6, 29, 0
9, 145230, Note_off_c, 6, 33, 0
9, 145230, Note_off_c, 6, 17, 0
9, 145230, Note_off_c, 6, 21, 0
9, 145230, Note_on_c, 6, 29, 100
9, 145230, Note_on_c, 6, 33, 100
9, 145230, Note_on_c, 6, 17, 100
9, 145230, Note_on_c, 6, 21, 100
9, 145260, Note_off_c, 6, 29, 0
9, 145260, Note_off_c, 6, 33, 0
9, 145260, Note_off_c, 6, 17, 0
9, 145260, Note_off_c, 6, 21, 0
9, 145260, Note_on_c, 6, 29, 100
9, 145260, Note_on_c, 6, 33, 100
9, 145260, Note_on_c, 6, 17, 100
9, 145260, Note_on_c, 6, 21, 100
9, 145290, Note_off_c, 6, 29, 0
9, 145290, Note_off_c, 6, 33, 0
9, 145290, Note_off_c, 6, 17, 0
9, 145290, Note_off_c, 6, 21, 0
9, 145290, Note_on_c, 6, 29, 100
9, 145290, Note_on_c, 6, 33, 100
9, 145290, Note_on_c, 6, 17, 100
9, 145290, Note_on_c, 6, 21, 100
9, 145320, Note_off_c, 6, 29, 0
9, 145320, Note_off_c, 6, 33, 0
9, 145320, Note_off_c, 6, 17, 0
9, 145320, Note_off_c, 6, 21, 0
9, 145320, Note_on_c, 6, 29, 100
9, 145320, Note_on_c, 6, 33, 100
9, 145320, Note_on_c, 6, 17, 100
9, 145320, Note_on_c, 6, 21, 100
9, 145350, Note_off_c, 6, 29, 0
9, 145350, Note_off_c, 6, 33, 0
9, 145350, Note_off_c, 6, 17, 0
9, 145350, Note_off_c, 6, 21, 0
9, 145350, Note_on_c, 6, 29, 100
9, 145350, Note_on_c, 6, 33, 100
9, 145350, Note_on_c, 6, 17, 100
9, 145350, Note_on_c, 6, 21, 100
9, 145380, Note_off_c, 6, 29, 0
9, 145380, Note_off_c, 6, 33, 0
9, 145380, Note_off_c, 6, 17, 0
9, 145380, Note_off_c, 6, 21, 0
9, 145380, Note_on_c, 6, 29, 100
9, 145380, Note_on_c, 6, 33, 100
9, 145380, Note_on_c, 6, 17, 100
9, 145380, Note_on_c, 6, 21, 100
9, 145410, Note_off_c, 6, 29, 0
9, 145410, Note_off_c, 6, 33, 0
9, 145410, Note_off_c, 6, 17, 0
9, 145410, Note_off_c, 6, 21, 0
9, 145410, Note_on_c, 6, 29, 100
9, 145410, Note_on_c, 6, 33, 100
9, 145410, Note_on_c, 6, 17, 100
9, 145410, Note_on_c, 6, 21, 100
9, 145440, Note_off_c, 6, 29, 0
9, 145440, Note_off_c, 6, 33, 0
9, 145440, Note_off_c, 6, 17, 0
9, 145440, Note_off_c, 6, 21, 0
9, 145440, Note_on_c, 6, 29, 100
9, 145440, Note_on_c, 6, 34, 100
9, 145440, Note_on_c, 6, 17, 100
9, 145440, Note_on_c, 6, 22, 100
9, 145470, Note_off_c, 6, 29, 0
9, 145470, Note_off_c, 6, 34, 0
9, 145470, Note_off_c, 6, 17, 0
9, 145470, Note_off_c, 6, 22, 0
9, 145470, Note_on_c, 6, 29, 100
9, 145470, Note_on_c, 6, 34, 100
9, 145470, Note_on_c, 6, 17, 100
9, 145470, Note_on_c, 6, 22, 100
9, 145500, Note_off_c, 6, 29, 0
9, 145500, Note_off_c, 6, 34, 0
9, 145500, Note_off_c, 6, 17, 0
9, 145500, Note_off_c, 6, 22, 0
9, 145500, Note_on_c, 6, 29, 100
9, 145500, Note_on_c, 6, 34, 100
9, 145500, Note_on_c, 6, 17, 100
9, 145500, Note_on_c, 6, 22, 100
9, 145530, Note_off_c, 6, 29, 0
9, 145530, Note_off_c, 6, 34, 0
9, 145530, Note_off_c, 6, 17, 0
9, 145530, Note_off_c, 6, 22, 0
9, 145530, Note_on_c, 6, 29, 100
9, 145530, Note_on_c, 6, 34, 100
9, 145530, Note_on_c, 6, 17, 100
9, 145530, Note_on_c, 6, 22, 100
9, 145560, Note_off_c, 6, 29, 0
9, 145560, Note_off_c, 6, 34, 0
9, 145560, Note_off_c, 6, 17, 0
9, 145560, Note_off_c, 6, 22, 0
9, 145560, Note_on_c, 6, 29, 100
9, 145560, Note_on_c, 6, 34, 100
9, 145560, Note_on_c, 6, 17, 100
9, 145560, Note_on_c, 6, 22, 100
9, 145590, Note_off_c, 6, 29, 0
9, 145590, Note_off_c, 6, 34, 0
9, 145590, Note_off_c, 6, 17, 0
9, 145590, Note_off_c, 6, 22, 0
9, 145590, Note_on_c, 6, 29, 100
9, 145590, Note_on_c, 6, 34, 100
9, 145590, Note_on_c, 6, 17, 100
9, 145590, Note_on_c, 6, 22, 100
9, 145620, Note_off_c, 6, 29, 0
9, 145620, Note_off_c, 6, 34, 0
9, 145620, Note_off_c, 6, 17, 0
9, 145620, Note_off_c, 6, 22, 0
9, 145620, Note_on_c, 6, 29, 100
9, 145620, Note_on_c, 6, 34, 100
9, 145620, Note_on_c, 6, 17, 100
9, 145620, Note_on_c, 6, 22, 100
9, 145650, Note_off_c, 6, 29, 0
9, 145650, Note_off_c, 6, 34, 0
9, 145650, Note_off_c, 6, 17, 0
9, 145650, Note_off_c, 6, 22, 0
9, 145650, Note_on_c, 6, 29, 100
9, 145650, Note_on_c, 6, 34, 100
9, 145650, Note_on_c, 6, 17, 100
9, 145650, Note_on_c, 6, 22, 100
9, 145680, Note_off_c, 6, 29, 0
9, 145680, Note_off_c, 6, 34, 0
9, 145680, Note_off_c, 6, 17, 0
9, 145680, Note_off_c, 6, 22, 0
9, 145680, Note_on_c, 6, 29, 100
9, 145680, Note_on_c, 6, 34, 100
9, 145680, Note_on_c, 6, 17, 100
9, 145680, Note_on_c, 6, 22, 100
9, 145710, Note_off_c, 6, 29, 0
9, 145710, Note_off_c, 6, 34, 0
9, 145710, Note_off_c, 6, 17, 0
9, 145710, Note_off_c, 6, 22, 0
9, 145710, Note_on_c, 6, 29, 100
9, 145710, Note_on_c, 6, 34, 100
9, 145710, Note_on_c, 6, 17, 100
9, 145710, Note_on_c, 6, 22, 100
9, 145740, Note_off_c, 6, 29, 0
9, 145740, Note_off_c, 6, 34, 0
9, 145740, Note_off_c, 6, 17, 0
9, 145740, Note_off_c, 6, 22, 0
9, 145740, Note_on_c, 6, 29, 100
9, 145740, Note_on_c, 6, 34, 100
9, 145740, Note_on_c, 6, 17, 100
9, 145740, Note_on_c, 6, 22, 100
9, 145770, Note_off_c, 6, 29, 0
9, 145770, Note_off_c, 6, 34, 0
9, 145770, Note_off_c, 6, 17, 0
9, 145770, Note_off_c, 6, 22, 0
9, 145770, Note_on_c, 6, 29, 100
9, 145770, Note_on_c, 6, 34, 100
9, 145770, Note_on_c, 6, 17, 100
9, 145770, Note_on_c, 6, 22, 100
9, 145800, Note_off_c, 6, 29, 0
9, 145800, Note_off_c, 6, 34, 0
9, 145800, Note_off_c, 6, 17, 0
9, 145800, Note_off_c, 6, 22, 0
9, 145800, Note_on_c, 6, 29, 100
9, 145800, Note_on_c, 6, 34, 100
9, 145800, Note_on_c, 6, 17, 100
9, 145800, Note_on_c, 6, 22, 100
9, 145830, Note_off_c, 6, 29, 0
9, 145830, Note_off_c, 6, 34, 0
9, 145830, Note_off_c, 6, 17, 0
9, 145830, Note_off_c, 6, 22, 0
9, 145830, Note_on_c, 6, 29, 100
9, 145830, Note_on_c, 6, 34, 100
9, 145830, Note_on_c, 6, 17, 100
9, 145830, Note_on_c, 6, 22, 100
9, 145860, Note_off_c, 6, 29, 0
9, 145860, Note_off_c, 6, 34, 0
9, 145860, Note_off_c, 6, 17, 0
9, 145860, Note_off_c, 6, 22, 0
9, 145860, Note_on_c, 6, 29, 100
9, 145860, Note_on_c, 6, 34, 100
9, 145860, Note_on_c, 6, 17, 100
9, 145860, Note_on_c, 6, 22, 100
9, 145890, Note_off_c, 6, 29, 0
9, 145890, Note_off_c, 6, 34, 0
9, 145890, Note_off_c, 6, 17, 0
9, 145890, Note_off_c, 6, 22, 0
9, 145890, Note_on_c, 6, 29, 100
9, 145890, Note_on_c, 6, 34, 100
9, 145890, Note_on_c, 6, 17, 100
9, 145890, Note_on_c, 6, 22, 100
9, 145920, Note_off_c, 6, 29, 0
9, 145920, Note_off_c, 6, 34, 0
9, 145920, Note_off_c, 6, 17, 0
9, 145920, Note_off_c, 6, 22, 0
9, 145920, Note_on_c, 6, 29, 100
9, 145920, Note_on_c, 6, 34, 100
9, 145920, Note_on_c, 6, 17, 100
9, 145920, Note_on_c, 6, 22, 100
9, 145950, Note_off_c, 6, 29, 0
9, 145950, Note_off_c, 6, 34, 0
9, 145950, Note_off_c, 6, 17, 0
9, 145950, Note_off_c, 6, 22, 0
9, 145950, Note_on_c, 6, 29, 100
9, 145950, Note_on_c, 6, 34, 100
9, 145950, Note_on_c, 6, 17, 100
9, 145950, Note_on_c, 6, 22, 100
9, 145980, Note_off_c, 6, 29, 0
9, 145980, Note_off_c, 6, 34, 0
9, 145980, Note_off_c, 6, 17, 0
9, 145980, Note_off_c, 6, 22, 0
9, 145980, Note_on_c, 6, 29, 100
9, 145980, Note_on_c, 6, 34, 100
9, 145980, Note_on_c, 6, 17, 100
9, 145980, Note_on_c, 6, 22, 100
9, 146010, Note_off_c, 6, 29, 0
9, 146010, Note_off_c, 6, 34, 0
9, 146010, Note_off_c, 6, 17, 0
9, 146010, Note_off_c, 6, 22, 0
9, 146010, Note_on_c, 6, 29, 100
9, 146010, Note_on_c, 6, 34, 100
9, 146010, Note_on_c, 6, 17, 100
9, 146010, Note_on_c, 6, 22, 100
9, 146040, Note_off_c, 6, 29, 0
9, 146040, Note_off_c, 6, 34, 0
9, 146040, Note_off_c, 6, 17, 0
9, 146040, Note_off_c, 6, 22, 0
9, 146040, Note_on_c, 6, 29, 100
9, 146040, Note_on_c, 6, 34, 100
9, 146040, Note_on_c, 6, 17, 100
9, 146040, Note_on_c, 6, 22, 100
9, 146070, Note_off_c, 6, 29, 0
9, 146070, Note_off_c, 6, 34, 0
9, 146070, Note_off_c, 6, 17, 0
9, 146070, Note_off_c, 6, 22, 0
9, 146070, Note_on_c, 6, 29, 100
9, 146070, Note_on_c, 6, 34, 100
9, 146070, Note_on_c, 6, 17, 100
9, 146070, Note_on_c, 6, 22, 100
9, 146100, Note_off_c, 6, 29, 0
9, 146100, Note_off_c, 6, 34, 0
9, 146100, Note_off_c, 6, 17, 0
9, 146100, Note_off_c, 6, 22, 0
9, 146100, Note_on_c, 6, 29, 100
9, 146100, Note_on_c, 6, 34, 100
9, 146100, Note_on_c, 6, 17, 100
9, 146100, Note_on_c, 6, 22, 100
9, 146130, Note_off_c, 6, 29, 0
9, 146130, Note_off_c, 6, 34, 0
9, 146130, Note_off_c, 6, 17, 0
9, 146130, Note_off_c, 6, 22, 0
9, 146130, Note_on_c, 6, 29, 100
9, 146130, Note_on_c, 6, 34, 100
9, 146130, Note_on_c, 6, 17, 100
9, 146130, Note_on_c, 6, 22, 100
9, 146160, Note_off_c, 6, 29, 0
9, 146160, Note_off_c, 6, 34, 0
9, 146160, Note_off_c, 6, 17, 0
9, 146160, Note_off_c, 6, 22, 0
9, 146160, Note_on_c, 6, 29, 100
9, 146160, Note_on_c, 6, 34, 100
9, 146160, Note_on_c, 6, 17, 100
9, 146160, Note_on_c, 6, 22, 100
9, 146190, Note_off_c, 6, 29, 0
9, 146190, Note_off_c, 6, 34, 0
9, 146190, Note_off_c, 6, 17, 0
9, 146190, Note_off_c, 6, 22, 0
9, 146190, Note_on_c, 6, 29, 100
9, 146190, Note_on_c, 6, 34, 100
9, 146190, Note_on_c, 6, 17, 100
9, 146190, Note_on_c, 6, 22, 100
9, 146220, Note_off_c, 6, 29, 0
9, 146220, Note_off_c, 6, 34, 0
9, 146220, Note_off_c, 6, 17, 0
9, 146220, Note_off_c, 6, 22, 0
9, 146220, Note_on_c, 6, 29, 100
9, 146220, Note_on_c, 6, 34, 100
9, 146220, Note_on_c, 6, 17, 100
9, 146220, Note_on_c, 6, 22, 100
9, 146250, Note_off_c, 6, 29, 0
9, 146250, Note_off_c, 6, 34, 0
9, 146250, Note_off_c, 6, 17, 0
9, 146250, Note_off_c, 6, 22, 0
9, 146250, Note_on_c, 6, 29, 100
9, 146250, Note_on_c, 6, 34, 100
9, 146250, Note_on_c, 6, 17, 100
9, 146250, Note_on_c, 6, 22, 100
9, 146280, Note_off_c, 6, 29, 0
9, 146280, Note_off_c, 6, 34, 0
9, 146280, Note_off_c, 6, 17, 0
9, 146280, Note_off_c, 6, 22, 0
9, 146280, Note_on_c, 6, 29, 100
9, 146280, Note_on_c, 6, 34, 100
9, 146280, Note_on_c, 6, 17, 100
9, 146280, Note_on_c, 6, 22, 100
9, 146310, Note_off_c, 6, 29, 0
9, 146310, Note_off_c, 6, 34, 0
9, 146310, Note_off_c, 6, 17, 0
9, 146310, Note_off_c, 6, 22, 0
9, 146310, Note_on_c, 6, 29, 100
9, 146310, Note_on_c, 6, 34, 100
9, 146310, Note_on_c, 6, 17, 100
9, 146310, Note_on_c, 6, 22, 100
9, 146340, Note_off_c, 6, 29, 0
9, 146340, Note_off_c, 6, 34, 0
9, 146340, Note_off_c, 6, 17, 0
9, 146340, Note_off_c, 6, 22, 0
9, 146340, Note_on_c, 6, 29, 100
9, 146340, Note_on_c, 6, 34, 100
9, 146340, Note_on_c, 6, 17, 100
9, 146340, Note_on_c, 6, 22, 100
9, 146370, Note_off_c, 6, 29, 0
9, 146370, Note_off_c, 6, 34, 0
9, 146370, Note_off_c, 6, 17, 0
9, 146370, Note_off_c, 6, 22, 0
9, 146370, Note_on_c, 6, 29, 100
9, 146370, Note_on_c, 6, 34, 100
9, 146370, Note_on_c, 6, 17, 100
9, 146370, Note_on_c, 6, 22, 100
9, 146400, Note_off_c, 6, 29, 0
9, 146400, Note_off_c, 6, 34, 0
9, 146400, Note_off_c, 6, 17, 0
9, 146400, Note_off_c, 6, 22, 0
9, 146400, Note_on_c, 6, 29, 100
9, 146400, Note_on_c, 6, 34, 100
9, 146400, Note_on_c, 6, 17, 100
9, 146400, Note_on_c, 6, 22, 100
9, 146430, Note_off_c, 6, 29, 0
9, 146430, Note_off_c, 6, 34, 0
9, 146430, Note_off_c, 6, 17, 0
9, 146430, Note_off_c, 6, 22, 0
9, 146430, Note_on_c, 6, 29, 100
9, 146430, Note_on_c, 6, 34, 100
9, 146430, Note_on_c, 6, 17, 100
9, 146430, Note_on_c, 6, 22, 100
9, 146460, Note_off_c, 6, 29, 0
9, 146460, Note_off_c, 6, 34, 0
9, 146460, Note_off_c, 6, 17, 0
9, 146460, Note_off_c, 6, 22, 0
9, 146460, Note_on_c, 6, 29, 100
9, 146460, Note_on_c, 6, 34, 100
9, 146460, Note_on_c, 6, 17, 100
9, 146460, Note_on_c, 6, 22, 100
9, 146490, Note_off_c, 6, 29, 0
9, 146490, Note_off_c, 6, 34, 0
9, 146490, Note_off_c, 6, 17, 0
9, 146490, Note_off_c, 6, 22, 0
9, 146490, Note_on_c, 6, 29, 100
9, 146490, Note_on_c, 6, 34, 100
9, 146490, Note_on_c, 6, 17, 100
9, 146490, Note_on_c, 6, 22, 100
9, 146520, Note_off_c, 6, 29, 0
9, 146520, Note_off_c, 6, 34, 0
9, 146520, Note_off_c, 6, 17, 0
9, 146520, Note_off_c, 6, 22, 0
9, 146520, Note_on_c, 6, 29, 100
9, 146520, Note_on_c, 6, 34, 100
9, 146520, Note_on_c, 6, 17, 100
9, 146520, Note_on_c, 6, 22, 100
9, 146550, Note_off_c, 6, 29, 0
9, 146550, Note_off_c, 6, 34, 0
9, 146550, Note_off_c, 6, 17, 0
9, 146550, Note_off_c, 6, 22, 0
9, 146550, Note_on_c, 6, 29, 100
9, 146550, Note_on_c, 6, 34, 100
9, 146550, Note_on_c, 6, 17, 100
9, 146550, Note_on_c, 6, 22, 100
9, 146580, Note_off_c, 6, 29, 0
9, 146580, Note_off_c, 6, 34, 0
9, 146580, Note_off_c, 6, 17, 0
9, 146580, Note_off_c, 6, 22, 0
9, 146580, Note_on_c, 6, 29, 100
9, 146580, Note_on_c, 6, 34, 100
9, 146580, Note_on_c, 6, 17, 100
9, 146580, Note_on_c, 6, 22, 100
9, 146610, Note_off_c, 6, 29, 0
9, 146610, Note_off_c, 6, 34, 0
9, 146610, Note_off_c, 6, 17, 0
9, 146610, Note_off_c, 6, 22, 0
9, 146610, Note_on_c, 6, 29, 100
9, 146610, Note_on_c, 6, 34, 100
9, 146610, Note_on_c, 6, 17, 100
9, 146610, Note_on_c, 6, 22, 100
9, 146640, Note_off_c, 6, 29, 0
9, 146640, Note_off_c, 6, 34, 0
9, 146640, Note_off_c, 6, 17, 0
9, 146640, Note_off_c, 6, 22, 0
9, 146640, Note_on_c, 6, 29, 100
9, 146640, Note_on_c, 6, 34, 100
9, 146640, Note_on_c, 6, 17, 100
9, 146640, Note_on_c, 6, 22, 100
9, 146670, Note_off_c, 6, 29, 0
9, 146670, Note_off_c, 6, 34, 0
9, 146670, Note_off_c, 6, 17, 0
9, 146670, Note_off_c, 6, 22, 0
9, 146670, Note_on_c, 6, 29, 100
9, 146670, Note_on_c, 6, 34, 100
9, 146670, Note_on_c, 6, 17, 100
9, 146670, Note_on_c, 6, 22, 100
9, 146700, Note_off_c, 6, 29, 0
9, 146700, Note_off_c, 6, 34, 0
9, 146700, Note_off_c, 6, 17, 0
9, 146700, Note_off_c, 6, 22, 0
9, 146700, Note_on_c, 6, 29, 100
9, 146700, Note_on_c, 6, 34, 100
9, 146700, Note_on_c, 6, 17, 100
9, 146700, Note_on_c, 6, 22, 100
9, 146730, Note_off_c, 6, 29, 0
9, 146730, Note_off_c, 6, 34, 0
9, 146730, Note_off_c, 6, 17, 0
9, 146730, Note_off_c, 6, 22, 0
9, 146730, Note_on_c, 6, 29, 100
9, 146730, Note_on_c, 6, 34, 100
9, 146730, Note_on_c, 6, 17, 100
9, 146730, Note_on_c, 6, 22, 100
9, 146760, Note_off_c, 6, 29, 0
9, 146760, Note_off_c, 6, 34, 0
9, 146760, Note_off_c, 6, 17, 0
9, 146760, Note_off_c, 6, 22, 0
9, 146760, Note_on_c, 6, 29, 100
9, 146760, Note_on_c, 6, 34, 100
9, 146760, Note_on_c, 6, 17, 100
9, 146760, Note_on_c, 6, 22, 100
9, 146790, Note_off_c, 6, 29, 0
9, 146790, Note_off_c, 6, 34, 0
9, 146790, Note_off_c, 6, 17, 0
9, 146790, Note_off_c, 6, 22, 0
9, 146790, Note_on_c, 6, 29, 100
9, 146790, Note_on_c, 6, 34, 100
9, 146790, Note_on_c, 6, 17, 100
9, 146790, Note_on_c, 6, 22, 100
9, 146820, Note_off_c, 6, 29, 0
9, 146820, Note_off_c, 6, 34, 0
9, 146820, Note_off_c, 6, 17, 0
9, 146820, Note_off_c, 6, 22, 0
9, 146820, Note_on_c, 6, 29, 100
9, 146820, Note_on_c, 6, 34, 100
9, 146820, Note_on_c, 6, 17, 100
9, 146820, Note_on_c, 6, 22, 100
9, 146850, Note_off_c, 6, 29, 0
9, 146850, Note_off_c, 6, 34, 0
9, 146850, Note_off_c, 6, 17, 0
9, 146850, Note_off_c, 6, 22, 0
9, 146850, Note_on_c, 6, 29, 100
9, 146850, Note_on_c, 6, 34, 100
9, 146850, Note_on_c, 6, 17, 100
9, 146850, Note_on_c, 6, 22, 100
9, 146880, Note_off_c, 6, 29, 0
9, 146880, Note_off_c, 6, 34, 0
9, 146880, Note_off_c, 6, 17, 0
9, 146880, Note_off_c, 6, 22, 0
9, 146880, Note_on_c, 6, 29, 100
9, 146880, Note_on_c, 6, 34, 100
9, 146880, Note_on_c, 6, 17, 100
9, 146880, Note_on_c, 6, 22, 100
9, 146910, Note_off_c, 6, 29, 0
9, 146910, Note_off_c, 6, 34, 0
9, 146910, Note_off_c, 6, 17, 0
9, 146910, Note_off_c, 6, 22, 0
9, 146910, Note_on_c, 6, 29, 100
9, 146910, Note_on_c, 6, 34, 100
9, 146910, Note_on_c, 6, 17, 100
9, 146910, Note_on_c, 6, 22, 100
9, 146940, Note_off_c, 6, 29, 0
9, 146940, Note_off_c, 6, 34, 0
9, 146940, Note_off_c, 6, 17, 0
9, 146940, Note_off_c, 6, 22, 0
9, 146940, Note_on_c, 6, 29, 100
9, 146940, Note_on_c, 6, 34, 100
9, 146940, Note_on_c, 6, 17, 100
9, 146940, Note_on_c, 6, 22, 100
9, 146970, Note_off_c, 6, 29, 0
9, 146970, Note_off_c, 6, 34, 0
9, 146970, Note_off_c, 6, 17, 0
9, 146970, Note_off_c, 6, 22, 0
9, 146970, Note_on_c, 6, 29, 100
9, 146970, Note_on_c, 6, 34, 100
9, 146970, Note_on_c, 6, 17, 100
9, 146970, Note_on_c, 6, 22, 100
9, 147000, Note_off_c, 6, 29, 0
9, 147000, Note_off_c, 6, 34, 0
9, 147000, Note_off_c, 6, 17, 0
9, 147000, Note_off_c, 6, 22, 0
9, 147000, Note_on_c, 6, 29, 100
9, 147000, Note_on_c, 6, 34, 100
9, 147000, Note_on_c, 6, 17, 100
9, 147000, Note_on_c, 6, 22, 100
9, 147030, Note_off_c, 6, 29, 0
9, 147030, Note_off_c, 6, 34, 0
9, 147030, Note_off_c, 6, 17, 0
9, 147030, Note_off_c, 6, 22, 0
9, 147030, Note_on_c, 6, 29, 100
9, 147030, Note_on_c, 6, 34, 100
9, 147030, Note_on_c, 6, 17, 100
9, 147030, Note_on_c, 6, 22, 100
9, 147060, Note_off_c, 6, 29, 0
9, 147060, Note_off_c, 6, 34, 0
9, 147060, Note_off_c, 6, 17, 0
9, 147060, Note_off_c, 6, 22, 0
9, 147060, Note_on_c, 6, 29, 100
9, 147060, Note_on_c, 6, 34, 100
9, 147060, Note_on_c, 6, 17, 100
9, 147060, Note_on_c, 6, 22, 100
9, 147090, Note_off_c, 6, 29, 0
9, 147090, Note_off_c, 6, 34, 0
9, 147090, Note_off_c, 6, 17, 0
9, 147090, Note_off_c, 6, 22, 0
9, 147090, Note_on_c, 6, 29, 100
9, 147090, Note_on_c, 6, 34, 100
9, 147090, Note_on_c, 6, 17, 100
9, 147090, Note_on_c, 6, 22, 100
9, 147120, Note_off_c, 6, 29, 0
9, 147120, Note_off_c, 6, 34, 0
9, 147120, Note_off_c, 6, 17, 0
9, 147120, Note_off_c, 6, 22, 0
9, 147120, Note_on_c, 6, 29, 100
9, 147120, Note_on_c, 6, 34, 100
9, 147120, Note_on_c, 6, 17, 100
9, 147120, Note_on_c, 6, 22, 100
9, 147150, Note_off_c, 6, 29, 0
9, 147150, Note_off_c, 6, 34, 0
9, 147150, Note_off_c, 6, 17, 0
9, 147150, Note_off_c, 6, 22, 0
9, 147150, Note_on_c, 6, 29, 100
9, 147150, Note_on_c, 6, 34, 100
9, 147150, Note_on_c, 6, 17, 100
9, 147150, Note_on_c, 6, 22, 100
9, 147180, Note_off_c, 6, 29, 0
9, 147180, Note_off_c, 6, 34, 0
9, 147180, Note_off_c, 6, 17, 0
9, 147180, Note_off_c, 6, 22, 0
9, 147180, Note_on_c, 6, 29, 100
9, 147180, Note_on_c, 6, 34, 100
9, 147180, Note_on_c, 6, 17, 100
9, 147180, Note_on_c, 6, 22, 100
9, 147210, Note_off_c, 6, 29, 0
9, 147210, Note_off_c, 6, 34, 0
9, 147210, Note_off_c, 6, 17, 0
9, 147210, Note_off_c, 6, 22, 0
9, 147210, Note_on_c, 6, 29, 100
9, 147210, Note_on_c, 6, 34, 100
9, 147210, Note_on_c, 6, 17, 100
9, 147210, Note_on_c, 6, 22, 100
9, 147240, Note_off_c, 6, 29, 0
9, 147240, Note_off_c, 6, 34, 0
9, 147240, Note_off_c, 6, 17, 0
9, 147240, Note_off_c, 6, 22, 0
9, 147240, Note_on_c, 6, 29, 100
9, 147240, Note_on_c, 6, 34, 100
9, 147240, Note_on_c, 6, 17, 100
9, 147240, Note_on_c, 6, 22, 100
9, 147270, Note_off_c, 6, 29, 0
9, 147270, Note_off_c, 6, 34, 0
9, 147270, Note_off_c, 6, 17, 0
9, 147270, Note_off_c, 6, 22, 0
9, 147270, Note_on_c, 6, 29, 100
9, 147270, Note_on_c, 6, 34, 100
9, 147270, Note_on_c, 6, 17, 100
9, 147270, Note_on_c, 6, 22, 100
9, 147300, Note_off_c, 6, 29, 0
9, 147300, Note_off_c, 6, 34, 0
9, 147300, Note_off_c, 6, 17, 0
9, 147300, Note_off_c, 6, 22, 0
9, 147300, Note_on_c, 6, 29, 100
9, 147300, Note_on_c, 6, 34, 100
9, 147300, Note_on_c, 6, 17, 100
9, 147300, Note_on_c, 6, 22, 100
9, 147330, Note_off_c, 6, 29, 0
9, 147330, Note_off_c, 6, 34, 0
9, 147330, Note_off_c, 6, 17, 0
9, 147330, Note_off_c, 6, 22, 0
9, 147330, Note_on_c, 6, 29, 100
9, 147330, Note_on_c, 6, 34, 100
9, 147330, Note_on_c, 6, 17, 100
9, 147330, Note_on_c, 6, 22, 100
9, 147360, Note_off_c, 6, 29, 0
9, 147360, Note_off_c, 6, 34, 0
9, 147360, Note_off_c, 6, 17, 0
9, 147360, Note_off_c, 6, 22, 0
9, 147360, Note_on_c, 6, 30, 100
9, 147360, Note_on_c, 6, 34, 100
9, 147360, Note_on_c, 6, 18, 100
9, 147360, Note_on_c, 6, 22, 100
9, 147390, Note_off_c, 6, 30, 0
9, 147390, Note_off_c, 6, 34, 0
9, 147390, Note_off_c, 6, 18, 0
9, 147390, Note_off_c, 6, 22, 0
9, 147390, Note_on_c, 6, 30, 100
9, 147390, Note_on_c, 6, 34, 100
9, 147390, Note_on_c, 6, 18, 100
9, 147390, Note_on_c, 6, 22, 100
9, 147420, Note_off_c, 6, 30, 0
9, 147420, Note_off_c, 6, 34, 0
9, 147420, Note_off_c, 6, 18, 0
9, 147420, Note_off_c, 6, 22, 0
9, 147420, Note_on_c, 6, 30, 100
9, 147420, Note_on_c, 6, 34, 100
9, 147420, Note_on_c, 6, 18, 100
9, 147420, Note_on_c, 6, 22, 100
9, 147450, Note_off_c, 6, 30, 0
9, 147450, Note_off_c, 6, 34, 0
9, 147450, Note_off_c, 6, 18, 0
9, 147450, Note_off_c, 6, 22, 0
9, 147450, Note_on_c, 6, 30, 100
9, 147450, Note_on_c, 6, 34, 100
9, 147450, Note_on_c, 6, 18, 100
9, 147450, Note_on_c, 6, 22, 100
9, 147480, Note_off_c, 6, 30, 0
9, 147480, Note_off_c, 6, 34, 0
9, 147480, Note_off_c, 6, 18, 0
9, 147480, Note_off_c, 6, 22, 0
9, 147480, Note_on_c, 6, 30, 100
9, 147480, Note_on_c, 6, 34, 100
9, 147480, Note_on_c, 6, 18, 100
9, 147480, Note_on_c, 6, 22, 100
9, 147510, Note_off_c, 6, 30, 0
9, 147510, Note_off_c, 6, 34, 0
9, 147510, Note_off_c, 6, 18, 0
9, 147510, Note_off_c, 6, 22, 0
9, 147510, Note_on_c, 6, 30, 100
9, 147510, Note_on_c, 6, 34, 100
9, 147510, Note_on_c, 6, 18, 100
9, 147510, Note_on_c, 6, 22, 100
9, 147540, Note_off_c, 6, 30, 0
9, 147540, Note_off_c, 6, 34, 0
9, 147540, Note_off_c, 6, 18, 0
9, 147540, Note_off_c, 6, 22, 0
9, 147540, Note_on_c, 6, 30, 100
9, 147540, Note_on_c, 6, 34, 100
9, 147540, Note_on_c, 6, 18, 100
9, 147540, Note_on_c, 6, 22, 100
9, 147570, Note_off_c, 6, 30, 0
9, 147570, Note_off_c, 6, 34, 0
9, 147570, Note_off_c, 6, 18, 0
9, 147570, Note_off_c, 6, 22, 0
9, 147570, Note_on_c, 6, 30, 100
9, 147570, Note_on_c, 6, 34, 100
9, 147570, Note_on_c, 6, 18, 100
9, 147570, Note_on_c, 6, 22, 100
9, 147600, Note_off_c, 6, 30, 0
9, 147600, Note_off_c, 6, 34, 0
9, 147600, Note_off_c, 6, 18, 0
9, 147600, Note_off_c, 6, 22, 0
9, 147600, Note_on_c, 6, 30, 100
9, 147600, Note_on_c, 6, 34, 100
9, 147600, Note_on_c, 6, 18, 100
9, 147600, Note_on_c, 6, 22, 100
9, 147630, Note_off_c, 6, 30, 0
9, 147630, Note_off_c, 6, 34, 0
9, 147630, Note_off_c, 6, 18, 0
9, 147630, Note_off_c, 6, 22, 0
9, 147630, Note_on_c, 6, 30, 100
9, 147630, Note_on_c, 6, 34, 100
9, 147630, Note_on_c, 6, 18, 100
9, 147630, Note_on_c, 6, 22, 100
9, 147660, Note_off_c, 6, 30, 0
9, 147660, Note_off_c, 6, 34, 0
9, 147660, Note_off_c, 6, 18, 0
9, 147660, Note_off_c, 6, 22, 0
9, 147660, Note_on_c, 6, 30, 100
9, 147660, Note_on_c, 6, 34, 100
9, 147660, Note_on_c, 6, 18, 100
9, 147660, Note_on_c, 6, 22, 100
9, 147690, Note_off_c, 6, 30, 0
9, 147690, Note_off_c, 6, 34, 0
9, 147690, Note_off_c, 6, 18, 0
9, 147690, Note_off_c, 6, 22, 0
9, 147690, Note_on_c, 6, 30, 100
9, 147690, Note_on_c, 6, 34, 100
9, 147690, Note_on_c, 6, 18, 100
9, 147690, Note_on_c, 6, 22, 100
9, 147720, Note_off_c, 6, 30, 0
9, 147720, Note_off_c, 6, 34, 0
9, 147720, Note_off_c, 6, 18, 0
9, 147720, Note_off_c, 6, 22, 0
9, 147720, Note_on_c, 6, 30, 100
9, 147720, Note_on_c, 6, 34, 100
9, 147720, Note_on_c, 6, 18, 100
9, 147720, Note_on_c, 6, 22, 100
9, 147750, Note_off_c, 6, 30, 0
9, 147750, Note_off_c, 6, 34, 0
9, 147750, Note_off_c, 6, 18, 0
9, 147750, Note_off_c, 6, 22, 0
9, 147750, Note_on_c, 6, 30, 100
9, 147750, Note_on_c, 6, 34, 100
9, 147750, Note_on_c, 6, 18, 100
9, 147750, Note_on_c, 6, 22, 100
9, 147780, Note_off_c, 6, 30, 0
9, 147780, Note_off_c, 6, 34, 0
9, 147780, Note_off_c, 6, 18, 0
9, 147780, Note_off_c, 6, 22, 0
9, 147780, Note_on_c, 6, 30, 100
9, 147780, Note_on_c, 6, 34, 100
9, 147780, Note_on_c, 6, 18, 100
9, 147780, Note_on_c, 6, 22, 100
9, 147810, Note_off_c, 6, 30, 0
9, 147810, Note_off_c, 6, 34, 0
9, 147810, Note_off_c, 6, 18, 0
9, 147810, Note_off_c, 6, 22, 0
9, 147810, Note_on_c, 6, 30, 100
9, 147810, Note_on_c, 6, 34, 100
9, 147810, Note_on_c, 6, 18, 100
9, 147810, Note_on_c, 6, 22, 100
9, 147840, Note_off_c, 6, 30, 0
9, 147840, Note_off_c, 6, 34, 0
9, 147840, Note_off_c, 6, 18, 0
9, 147840, Note_off_c, 6, 22, 0
9, 147840, Note_on_c, 6, 30, 100
9, 147840, Note_on_c, 6, 34, 100
9, 147840, Note_on_c, 6, 18, 100
9, 147840, Note_on_c, 6, 22, 100
9, 147870, Note_off_c, 6, 30, 0
9, 147870, Note_off_c, 6, 34, 0
9, 147870, Note_off_c, 6, 18, 0
9, 147870, Note_off_c, 6, 22, 0
9, 147870, Note_on_c, 6, 30, 100
9, 147870, Note_on_c, 6, 34, 100
9, 147870, Note_on_c, 6, 18, 100
9, 147870, Note_on_c, 6, 22, 100
9, 147900, Note_off_c, 6, 30, 0
9, 147900, Note_off_c, 6, 34, 0
9, 147900, Note_off_c, 6, 18, 0
9, 147900, Note_off_c, 6, 22, 0
9, 147900, Note_on_c, 6, 30, 100
9, 147900, Note_on_c, 6, 34, 100
9, 147900, Note_on_c, 6, 18, 100
9, 147900, Note_on_c, 6, 22, 100
9, 147930, Note_off_c, 6, 30, 0
9, 147930, Note_off_c, 6, 34, 0
9, 147930, Note_off_c, 6, 18, 0
9, 147930, Note_off_c, 6, 22, 0
9, 147930, Note_on_c, 6, 30, 100
9, 147930, Note_on_c, 6, 34, 100
9, 147930, Note_on_c, 6, 18, 100
9, 147930, Note_on_c, 6, 22, 100
9, 147960, Note_off_c, 6, 30, 0
9, 147960, Note_off_c, 6, 34, 0
9, 147960, Note_off_c, 6, 18, 0
9, 147960, Note_off_c, 6, 22, 0
9, 147960, Note_on_c, 6, 30, 100
9, 147960, Note_on_c, 6, 34, 100
9, 147960, Note_on_c, 6, 18, 100
9, 147960, Note_on_c, 6, 22, 100
9, 147990, Note_off_c, 6, 30, 0
9, 147990, Note_off_c, 6, 34, 0
9, 147990, Note_off_c, 6, 18, 0
9, 147990, Note_off_c, 6, 22, 0
9, 147990, Note_on_c, 6, 30, 100
9, 147990, Note_on_c, 6, 34, 100
9, 147990, Note_on_c, 6, 18, 100
9, 147990, Note_on_c, 6, 22, 100
9, 148020, Note_off_c, 6, 30, 0
9, 148020, Note_off_c, 6, 34, 0
9, 148020, Note_off_c, 6, 18, 0
9, 148020, Note_off_c, 6, 22, 0
9, 148020, Note_on_c, 6, 30, 100
9, 148020, Note_on_c, 6, 34, 100
9, 148020, Note_on_c, 6, 18, 100
9, 148020, Note_on_c, 6, 22, 100
9, 148050, Note_off_c, 6, 30, 0
9, 148050, Note_off_c, 6, 34, 0
9, 148050, Note_off_c, 6, 18, 0
9, 148050, Note_off_c, 6, 22, 0
9, 148050, Note_on_c, 6, 30, 100
9, 148050, Note_on_c, 6, 34, 100
9, 148050, Note_on_c, 6, 18, 100
9, 148050, Note_on_c, 6, 22, 100
9, 148080, Note_off_c, 6, 30, 0
9, 148080, Note_off_c, 6, 34, 0
9, 148080, Note_off_c, 6, 18, 0
9, 148080, Note_off_c, 6, 22, 0
9, 148080, Note_on_c, 6, 30, 100
9, 148080, Note_on_c, 6, 34, 100
9, 148080, Note_on_c, 6, 18, 100
9, 148080, Note_on_c, 6, 22, 100
9, 148110, Note_off_c, 6, 30, 0
9, 148110, Note_off_c, 6, 34, 0
9, 148110, Note_off_c, 6, 18, 0
9, 148110, Note_off_c, 6, 22, 0
9, 148110, Note_on_c, 6, 30, 100
9, 148110, Note_on_c, 6, 34, 100
9, 148110, Note_on_c, 6, 18, 100
9, 148110, Note_on_c, 6, 22, 100
9, 148140, Note_off_c, 6, 30, 0
9, 148140, Note_off_c, 6, 34, 0
9, 148140, Note_off_c, 6, 18, 0
9, 148140, Note_off_c, 6, 22, 0
9, 148140, Note_on_c, 6, 30, 100
9, 148140, Note_on_c, 6, 34, 100
9, 148140, Note_on_c, 6, 18, 100
9, 148140, Note_on_c, 6, 22, 100
9, 148170, Note_off_c, 6, 30, 0
9, 148170, Note_off_c, 6, 34, 0
9, 148170, Note_off_c, 6, 18, 0
9, 148170, Note_off_c, 6, 22, 0
9, 148170, Note_on_c, 6, 30, 100
9, 148170, Note_on_c, 6, 34, 100
9, 148170, Note_on_c, 6, 18, 100
9, 148170, Note_on_c, 6, 22, 100
9, 148200, Note_off_c, 6, 30, 0
9, 148200, Note_off_c, 6, 34, 0
9, 148200, Note_off_c, 6, 18, 0
9, 148200, Note_off_c, 6, 22, 0
9, 148200, Note_on_c, 6, 30, 100
9, 148200, Note_on_c, 6, 34, 100
9, 148200, Note_on_c, 6, 18, 100
9, 148200, Note_on_c, 6, 22, 100
9, 148230, Note_off_c, 6, 30, 0
9, 148230, Note_off_c, 6, 34, 0
9, 148230, Note_off_c, 6, 18, 0
9, 148230, Note_off_c, 6, 22, 0
9, 148230, Note_on_c, 6, 30, 100
9, 148230, Note_on_c, 6, 34, 100
9, 148230, Note_on_c, 6, 18, 100
9, 148230, Note_on_c, 6, 22, 100
9, 148260, Note_off_c, 6, 30, 0
9, 148260, Note_off_c, 6, 34, 0
9, 148260, Note_off_c, 6, 18, 0
9, 148260, Note_off_c, 6, 22, 0
9, 148260, Note_on_c, 6, 30, 100
9, 148260, Note_on_c, 6, 34, 100
9, 148260, Note_on_c, 6, 18, 100
9, 148260, Note_on_c, 6, 22, 100
9, 148290, Note_off_c, 6, 30, 0
9, 148290, Note_off_c, 6, 34, 0
9, 148290, Note_off_c, 6, 18, 0
9, 148290, Note_off_c, 6, 22, 0
9, 148290, Note_on_c, 6, 30, 100
9, 148290, Note_on_c, 6, 34, 100
9, 148290, Note_on_c, 6, 18, 100
9, 148290, Note_on_c, 6, 22, 100
9, 148320, Note_off_c, 6, 30, 0
9, 148320, Note_off_c, 6, 34, 0
9, 148320, Note_off_c, 6, 18, 0
9, 148320, Note_off_c, 6, 22, 0
9, 148320, Note_on_c, 6, 30, 100
9, 148320, Note_on_c, 6, 34, 100
9, 148320, Note_on_c, 6, 18, 100
9, 148320, Note_on_c, 6, 22, 100
9, 148350, Note_off_c, 6, 30, 0
9, 148350, Note_off_c, 6, 34, 0
9, 148350, Note_off_c, 6, 18, 0
9, 148350, Note_off_c, 6, 22, 0
9, 148350, Note_on_c, 6, 30, 100
9, 148350, Note_on_c, 6, 34, 100
9, 148350, Note_on_c, 6, 18, 100
9, 148350, Note_on_c, 6, 22, 100
9, 148380, Note_off_c, 6, 30, 0
9, 148380, Note_off_c, 6, 34, 0
9, 148380, Note_off_c, 6, 18, 0
9, 148380, Note_off_c, 6, 22, 0
9, 148380, Note_on_c, 6, 30, 100
9, 148380, Note_on_c, 6, 34, 100
9, 148380, Note_on_c, 6, 18, 100
9, 148380, Note_on_c, 6, 22, 100
9, 148410, Note_off_c, 6, 30, 0
9, 148410, Note_off_c, 6, 34, 0
9, 148410, Note_off_c, 6, 18, 0
9, 148410, Note_off_c, 6, 22, 0
9, 148410, Note_on_c, 6, 30, 100
9, 148410, Note_on_c, 6, 34, 100
9, 148410, Note_on_c, 6, 18, 100
9, 148410, Note_on_c, 6, 22, 100
9, 148440, Note_off_c, 6, 30, 0
9, 148440, Note_off_c, 6, 34, 0
9, 148440, Note_off_c, 6, 18, 0
9, 148440, Note_off_c, 6, 22, 0
9, 148440, Note_on_c, 6, 30, 100
9, 148440, Note_on_c, 6, 34, 100
9, 148440, Note_on_c, 6, 18, 100
9, 148440, Note_on_c, 6, 22, 100
9, 148470, Note_off_c, 6, 30, 0
9, 148470, Note_off_c, 6, 34, 0
9, 148470, Note_off_c, 6, 18, 0
9, 148470, Note_off_c, 6, 22, 0
9, 148470, Note_on_c, 6, 30, 100
9, 148470, Note_on_c, 6, 34, 100
9, 148470, Note_on_c, 6, 18, 100
9, 148470, Note_on_c, 6, 22, 100
9, 148500, Note_off_c, 6, 30, 0
9, 148500, Note_off_c, 6, 34, 0
9, 148500, Note_off_c, 6, 18, 0
9, 148500, Note_off_c, 6, 22, 0
9, 148500, Note_on_c, 6, 30, 100
9, 148500, Note_on_c, 6, 34, 100
9, 148500, Note_on_c, 6, 18, 100
9, 148500, Note_on_c, 6, 22, 100
9, 148530, Note_off_c, 6, 30, 0
9, 148530, Note_off_c, 6, 34, 0
9, 148530, Note_off_c, 6, 18, 0
9, 148530, Note_off_c, 6, 22, 0
9, 148530, Note_on_c, 6, 30, 100
9, 148530, Note_on_c, 6, 34, 100
9, 148530, Note_on_c, 6, 18, 100
9, 148530, Note_on_c, 6, 22, 100
9, 148560, Note_off_c, 6, 30, 0
9, 148560, Note_off_c, 6, 34, 0
9, 148560, Note_off_c, 6, 18, 0
9, 148560, Note_off_c, 6, 22, 0
9, 148560, Note_on_c, 6, 30, 100
9, 148560, Note_on_c, 6, 34, 100
9, 148560, Note_on_c, 6, 18, 100
9, 148560, Note_on_c, 6, 22, 100
9, 148590, Note_off_c, 6, 30, 0
9, 148590, Note_off_c, 6, 34, 0
9, 148590, Note_off_c, 6, 18, 0
9, 148590, Note_off_c, 6, 22, 0
9, 148590, Note_on_c, 6, 30, 100
9, 148590, Note_on_c, 6, 34, 100
9, 148590, Note_on_c, 6, 18, 100
9, 148590, Note_on_c, 6, 22, 100
9, 148620, Note_off_c, 6, 30, 0
9, 148620, Note_off_c, 6, 34, 0
9, 148620, Note_off_c, 6, 18, 0
9, 148620, Note_off_c, 6, 22, 0
9, 148620, Note_on_c, 6, 30, 100
9, 148620, Note_on_c, 6, 34, 100
9, 148620, Note_on_c, 6, 18, 100
9, 148620, Note_on_c, 6, 22, 100
9, 148650, Note_off_c, 6, 30, 0
9, 148650, Note_off_c, 6, 34, 0
9, 148650, Note_off_c, 6, 18, 0
9, 148650, Note_off_c, 6, 22, 0
9, 148650, Note_on_c, 6, 30, 100
9, 148650, Note_on_c, 6, 34, 100
9, 148650, Note_on_c, 6, 18, 100
9, 148650, Note_on_c, 6, 22, 100
9, 148680, Note_off_c, 6, 30, 0
9, 148680, Note_off_c, 6, 34, 0
9, 148680, Note_off_c, 6, 18, 0
9, 148680, Note_off_c, 6, 22, 0
9, 148680, Note_on_c, 6, 30, 100
9, 148680, Note_on_c, 6, 34, 100
9, 148680, Note_on_c, 6, 18, 100
9, 148680, Note_on_c, 6, 22, 100
9, 148710, Note_off_c, 6, 30, 0
9, 148710, Note_off_c, 6, 34, 0
9, 148710, Note_off_c, 6, 18, 0
9, 148710, Note_off_c, 6, 22, 0
9, 148710, Note_on_c, 6, 30, 100
9, 148710, Note_on_c, 6, 34, 100
9, 148710, Note_on_c, 6, 18, 100
9, 148710, Note_on_c, 6, 22, 100
9, 148740, Note_off_c, 6, 30, 0
9, 148740, Note_off_c, 6, 34, 0
9, 148740, Note_off_c, 6, 18, 0
9, 148740, Note_off_c, 6, 22, 0
9, 148740, Note_on_c, 6, 30, 100
9, 148740, Note_on_c, 6, 34, 100
9, 148740, Note_on_c, 6, 18, 100
9, 148740, Note_on_c, 6, 22, 100
9, 148770, Note_off_c, 6, 30, 0
9, 148770, Note_off_c, 6, 34, 0
9, 148770, Note_off_c, 6, 18, 0
9, 148770, Note_off_c, 6, 22, 0
9, 148770, Note_on_c, 6, 30, 100
9, 148770, Note_on_c, 6, 34, 100
9, 148770, Note_on_c, 6, 18, 100
9, 148770, Note_on_c, 6, 22, 100
9, 148800, Note_off_c, 6, 30, 0
9, 148800, Note_off_c, 6, 34, 0
9, 148800, Note_off_c, 6, 18, 0
9, 148800, Note_off_c, 6, 22, 0
9, 148800, Note_on_c, 6, 30, 100
9, 148800, Note_on_c, 6, 34, 100
9, 148800, Note_on_c, 6, 18, 100
9, 148800, Note_on_c, 6, 22, 100
9, 148830, Note_off_c, 6, 30, 0
9, 148830, Note_off_c, 6, 34, 0
9, 148830, Note_off_c, 6, 18, 0
9, 148830, Note_off_c, 6, 22, 0
9, 148830, Note_on_c, 6, 30, 100
9, 148830, Note_on_c, 6, 34, 100
9, 148830, Note_on_c, 6, 18, 100
9, 148830, Note_on_c, 6, 22, 100
9, 148860, Note_off_c, 6, 30, 0
9, 148860, Note_off_c, 6, 34, 0
9, 148860, Note_off_c, 6, 18, 0
9, 148860, Note_off_c, 6, 22, 0
9, 148860, Note_on_c, 6, 30, 100
9, 148860, Note_on_c, 6, 34, 100
9, 148860, Note_on_c, 6, 18, 100
9, 148860, Note_on_c, 6, 22, 100
9, 148890, Note_off_c, 6, 30, 0
9, 148890, Note_off_c, 6, 34, 0
9, 148890, Note_off_c, 6, 18, 0
9, 148890, Note_off_c, 6, 22, 0
9, 148890, Note_on_c, 6, 30, 100
9, 148890, Note_on_c, 6, 34, 100
9, 148890, Note_on_c, 6, 18, 100
9, 148890, Note_on_c, 6, 22, 100
9, 148920, Note_off_c, 6, 30, 0
9, 148920, Note_off_c, 6, 34, 0
9, 148920, Note_off_c, 6, 18, 0
9, 148920, Note_off_c, 6, 22, 0
9, 148920, Note_on_c, 6, 30, 100
9, 148920, Note_on_c, 6, 34, 100
9, 148920, Note_on_c, 6, 18, 100
9, 148920, Note_on_c, 6, 22, 100
9, 148950, Note_off_c, 6, 30, 0
9, 148950, Note_off_c, 6, 34, 0
9, 148950, Note_off_c, 6, 18, 0
9, 148950, Note_off_c, 6, 22, 0
9, 148950, Note_on_c, 6, 30, 100
9, 148950, Note_on_c, 6, 34, 100
9, 148950, Note_on_c, 6, 18, 100
9, 148950, Note_on_c, 6, 22, 100
9, 148980, Note_off_c, 6, 30, 0
9, 148980, Note_off_c, 6, 34, 0
9, 148980, Note_off_c, 6, 18, 0
9, 148980, Note_off_c, 6, 22, 0
9, 148980, Note_on_c, 6, 30, 100
9, 148980, Note_on_c, 6, 34, 100
9, 148980, Note_on_c, 6, 18, 100
9, 148980, Note_on_c, 6, 22, 100
9, 149010, Note_off_c, 6, 30, 0
9, 149010, Note_off_c, 6, 34, 0
9, 149010, Note_off_c, 6, 18, 0
9, 149010, Note_off_c, 6, 22, 0
9, 149010, Note_on_c, 6, 30, 100
9, 149010, Note_on_c, 6, 34, 100
9, 149010, Note_on_c, 6, 18, 100
9, 149010, Note_on_c, 6, 22, 100
9, 149040, Note_off_c, 6, 30, 0
9, 149040, Note_off_c, 6, 34, 0
9, 149040, Note_off_c, 6, 18, 0
9, 149040, Note_off_c, 6, 22, 0
9, 149040, Note_on_c, 6, 30, 100
9, 149040, Note_on_c, 6, 34, 100
9, 149040, Note_on_c, 6, 18, 100
9, 149040, Note_on_c, 6, 22, 100
9, 149070, Note_off_c, 6, 30, 0
9, 149070, Note_off_c, 6, 34, 0
9, 149070, Note_off_c, 6, 18, 0
9, 149070, Note_off_c, 6, 22, 0
9, 149070, Note_on_c, 6, 30, 100
9, 149070, Note_on_c, 6, 34, 100
9, 149070, Note_on_c, 6, 18, 100
9, 149070, Note_on_c, 6, 22, 100
9, 149100, Note_off_c, 6, 30, 0
9, 149100, Note_off_c, 6, 34, 0
9, 149100, Note_off_c, 6, 18, 0
9, 149100, Note_off_c, 6, 22, 0
9, 149100, Note_on_c, 6, 30, 100
9, 149100, Note_on_c, 6, 34, 100
9, 149100, Note_on_c, 6, 18, 100
9, 149100, Note_on_c, 6, 22, 100
9, 149130, Note_off_c, 6, 30, 0
9, 149130, Note_off_c, 6, 34, 0
9, 149130, Note_off_c, 6, 18, 0
9, 149130, Note_off_c, 6, 22, 0
9, 149130, Note_on_c, 6, 30, 100
9, 149130, Note_on_c, 6, 34, 100
9, 149130, Note_on_c, 6, 18, 100
9, 149130, Note_on_c, 6, 22, 100
9, 149160, Note_off_c, 6, 30, 0
9, 149160, Note_off_c, 6, 34, 0
9, 149160, Note_off_c, 6, 18, 0
9, 149160, Note_off_c, 6, 22, 0
9, 149160, Note_on_c, 6, 30, 100
9, 149160, Note_on_c, 6, 34, 100
9, 149160, Note_on_c, 6, 18, 100
9, 149160, Note_on_c, 6, 22, 100
9, 149190, Note_off_c, 6, 30, 0
9, 149190, Note_off_c, 6, 34, 0
9, 149190, Note_off_c, 6, 18, 0
9, 149190, Note_off_c, 6, 22, 0
9, 149190, Note_on_c, 6, 30, 100
9, 149190, Note_on_c, 6, 34, 100
9, 149190, Note_on_c, 6, 18, 100
9, 149190, Note_on_c, 6, 22, 100
9, 149220, Note_off_c, 6, 30, 0
9, 149220, Note_off_c, 6, 34, 0
9, 149220, Note_off_c, 6, 18, 0
9, 149220, Note_off_c, 6, 22, 0
9, 149220, Note_on_c, 6, 30, 100
9, 149220, Note_on_c, 6, 34, 100
9, 149220, Note_on_c, 6, 18, 100
9, 149220, Note_on_c, 6, 22, 100
9, 149250, Note_off_c, 6, 30, 0
9, 149250, Note_off_c, 6, 34, 0
9, 149250, Note_off_c, 6, 18, 0
9, 149250, Note_off_c, 6, 22, 0
9, 149250, Note_on_c, 6, 30, 100
9, 149250, Note_on_c, 6, 34, 100
9, 149250, Note_on_c, 6, 18, 100
9, 149250, Note_on_c, 6, 22, 100
9, 149280, Note_off_c, 6, 30, 0
9, 149280, Note_off_c, 6, 34, 0
9, 149280, Note_off_c, 6, 18, 0
9, 149280, Note_off_c, 6, 22, 0
9, 149280, Note_on_c, 6, 32, 100
9, 149280, Note_on_c, 6, 36, 100
9, 149280, Note_on_c, 6, 20, 100
9, 149280, Note_on_c, 6, 24, 100
9, 149310, Note_off_c, 6, 32, 0
9, 149310, Note_off_c, 6, 36, 0
9, 149310, Note_off_c, 6, 20, 0
9, 149310, Note_off_c, 6, 24, 0
9, 149310, Note_on_c, 6, 32, 100
9, 149310, Note_on_c, 6, 36, 100
9, 149310, Note_on_c, 6, 20, 100
9, 149310, Note_on_c, 6, 24, 100
9, 149340, Note_off_c, 6, 32, 0
9, 149340, Note_off_c, 6, 36, 0
9, 149340, Note_off_c, 6, 20, 0
9, 149340, Note_off_c, 6, 24, 0
9, 149340, Note_on_c, 6, 32, 100
9, 149340, Note_on_c, 6, 36, 100
9, 149340, Note_on_c, 6, 20, 100
9, 149340, Note_on_c, 6, 24, 100
9, 149370, Note_off_c, 6, 32, 0
9, 149370, Note_off_c, 6, 36, 0
9, 149370, Note_off_c, 6, 20, 0
9, 149370, Note_off_c, 6, 24, 0
9, 149370, Note_on_c, 6, 32, 100
9, 149370, Note_on_c, 6, 36, 100
9, 149370, Note_on_c, 6, 20, 100
9, 149370, Note_on_c, 6, 24, 100
9, 149400, Note_off_c, 6, 32, 0
9, 149400, Note_off_c, 6, 36, 0
9, 149400, Note_off_c, 6, 20, 0
9, 149400, Note_off_c, 6, 24, 0
9, 149400, Note_on_c, 6, 32, 100
9, 149400, Note_on_c, 6, 36, 100
9, 149400, Note_on_c, 6, 20, 100
9, 149400, Note_on_c, 6, 24, 100
9, 149430, Note_off_c, 6, 32, 0
9, 149430, Note_off_c, 6, 36, 0
9, 149430, Note_off_c, 6, 20, 0
9, 149430, Note_off_c, 6, 24, 0
9, 149430, Note_on_c, 6, 32, 100
9, 149430, Note_on_c, 6, 36, 100
9, 149430, Note_on_c, 6, 20, 100
9, 149430, Note_on_c, 6, 24, 100
9, 149460, Note_off_c, 6, 32, 0
9, 149460, Note_off_c, 6, 36, 0
9, 149460, Note_off_c, 6, 20, 0
9, 149460, Note_off_c, 6, 24, 0
9, 149460, Note_on_c, 6, 32, 100
9, 149460, Note_on_c, 6, 36, 100
9, 149460, Note_on_c, 6, 20, 100
9, 149460, Note_on_c, 6, 24, 100
9, 149490, Note_off_c, 6, 32, 0
9, 149490, Note_off_c, 6, 36, 0
9, 149490, Note_off_c, 6, 20, 0
9, 149490, Note_off_c, 6, 24, 0
9, 149490, Note_on_c, 6, 32, 100
9, 149490, Note_on_c, 6, 36, 100
9, 149490, Note_on_c, 6, 20, 100
9, 149490, Note_on_c, 6, 24, 100
9, 149520, Note_off_c, 6, 32, 0
9, 149520, Note_off_c, 6, 36, 0
9, 149520, Note_off_c, 6, 20, 0
9, 149520, Note_off_c, 6, 24, 0
9, 149520, Note_on_c, 6, 32, 100
9, 149520, Note_on_c, 6, 36, 100
9, 149520, Note_on_c, 6, 20, 100
9, 149520, Note_on_c, 6, 24, 100
9, 149550, Note_off_c, 6, 32, 0
9, 149550, Note_off_c, 6, 36, 0
9, 149550, Note_off_c, 6, 20, 0
9, 149550, Note_off_c, 6, 24, 0
9, 149550, Note_on_c, 6, 32, 100
9, 149550, Note_on_c, 6, 36, 100
9, 149550, Note_on_c, 6, 20, 100
9, 149550, Note_on_c, 6, 24, 100
9, 149580, Note_off_c, 6, 32, 0
9, 149580, Note_off_c, 6, 36, 0
9, 149580, Note_off_c, 6, 20, 0
9, 149580, Note_off_c, 6, 24, 0
9, 149580, Note_on_c, 6, 32, 100
9, 149580, Note_on_c, 6, 36, 100
9, 149580, Note_on_c, 6, 20, 100
9, 149580, Note_on_c, 6, 24, 100
9, 149610, Note_off_c, 6, 32, 0
9, 149610, Note_off_c, 6, 36, 0
9, 149610, Note_off_c, 6, 20, 0
9, 149610, Note_off_c, 6, 24, 0
9, 149610, Note_on_c, 6, 32, 100
9, 149610, Note_on_c, 6, 36, 100
9, 149610, Note_on_c, 6, 20, 100
9, 149610, Note_on_c, 6, 24, 100
9, 149640, Note_off_c, 6, 32, 0
9, 149640, Note_off_c, 6, 36, 0
9, 149640, Note_off_c, 6, 20, 0
9, 149640, Note_off_c, 6, 24, 0
9, 149640, Note_on_c, 6, 32, 100
9, 149640, Note_on_c, 6, 36, 100
9, 149640, Note_on_c, 6, 20, 100
9, 149640, Note_on_c, 6, 24, 100
9, 149670, Note_off_c, 6, 32, 0
9, 149670, Note_off_c, 6, 36, 0
9, 149670, Note_off_c, 6, 20, 0
9, 149670, Note_off_c, 6, 24, 0
9, 149670, Note_on_c, 6, 32, 100
9, 149670, Note_on_c, 6, 36, 100
9, 149670, Note_on_c, 6, 20, 100
9, 149670, Note_on_c, 6, 24, 100
9, 149700, Note_off_c, 6, 32, 0
9, 149700, Note_off_c, 6, 36, 0
9, 149700, Note_off_c, 6, 20, 0
9, 149700, Note_off_c, 6, 24, 0
9, 149700, Note_on_c, 6, 32, 100
9, 149700, Note_on_c, 6, 36, 100
9, 149700, Note_on_c, 6, 20, 100
9, 149700, Note_on_c, 6, 24, 100
9, 149730, Note_off_c, 6, 32, 0
9, 149730, Note_off_c, 6, 36, 0
9, 149730, Note_off_c, 6, 20, 0
9, 149730, Note_off_c, 6, 24, 0
9, 149730, Note_on_c, 6, 32, 100
9, 149730, Note_on_c, 6, 36, 100
9, 149730, Note_on_c, 6, 20, 100
9, 149730, Note_on_c, 6, 24, 100
9, 149760, Note_off_c, 6, 32, 0
9, 149760, Note_off_c, 6, 36, 0
9, 149760, Note_off_c, 6, 20, 0
9, 149760, Note_off_c, 6, 24, 0
9, 149760, Note_on_c, 6, 32, 100
9, 149760, Note_on_c, 6, 36, 100
9, 149760, Note_on_c, 6, 20, 100
9, 149760, Note_on_c, 6, 24, 100
9, 149790, Note_off_c, 6, 32, 0
9, 149790, Note_off_c, 6, 36, 0
9, 149790, Note_off_c, 6, 20, 0
9, 149790, Note_off_c, 6, 24, 0
9, 149790, Note_on_c, 6, 32, 100
9, 149790, Note_on_c, 6, 36, 100
9, 149790, Note_on_c, 6, 20, 100
9, 149790, Note_on_c, 6, 24, 100
9, 149820, Note_off_c, 6, 32, 0
9, 149820, Note_off_c, 6, 36, 0
9, 149820, Note_off_c, 6, 20, 0
9, 149820, Note_off_c, 6, 24, 0
9, 149820, Note_on_c, 6, 32, 100
9, 149820, Note_on_c, 6, 36, 100
9, 149820, Note_on_c, 6, 20, 100
9, 149820, Note_on_c, 6, 24, 100
9, 149850, Note_off_c, 6, 32, 0
9, 149850, Note_off_c, 6, 36, 0
9, 149850, Note_off_c, 6, 20, 0
9, 149850, Note_off_c, 6, 24, 0
9, 149850, Note_on_c, 6, 32, 100
9, 149850, Note_on_c, 6, 36, 100
9, 149850, Note_on_c, 6, 20, 100
9, 149850, Note_on_c, 6, 24, 100
9, 149880, Note_off_c, 6, 32, 0
9, 149880, Note_off_c, 6, 36, 0
9, 149880, Note_off_c, 6, 20, 0
9, 149880, Note_off_c, 6, 24, 0
9, 149880, Note_on_c, 6, 32, 100
9, 149880, Note_on_c, 6, 36, 100
9, 149880, Note_on_c, 6, 20, 100
9, 149880, Note_on_c, 6, 24, 100
9, 149910, Note_off_c, 6, 32, 0
9, 149910, Note_off_c, 6, 36, 0
9, 149910, Note_off_c, 6, 20, 0
9, 149910, Note_off_c, 6, 24, 0
9, 149910, Note_on_c, 6, 32, 100
9, 149910, Note_on_c, 6, 36, 100
9, 149910, Note_on_c, 6, 20, 100
9, 149910, Note_on_c, 6, 24, 100
9, 149940, Note_off_c, 6, 32, 0
9, 149940, Note_off_c, 6, 36, 0
9, 149940, Note_off_c, 6, 20, 0
9, 149940, Note_off_c, 6, 24, 0
9, 149940, Note_on_c, 6, 32, 100
9, 149940, Note_on_c, 6, 36, 100
9, 149940, Note_on_c, 6, 20, 100
9, 149940, Note_on_c, 6, 24, 100
9, 149970, Note_off_c, 6, 32, 0
9, 149970, Note_off_c, 6, 36, 0
9, 149970, Note_off_c, 6, 20, 0
9, 149970, Note_off_c, 6, 24, 0
9, 149970, Note_on_c, 6, 32, 100
9, 149970, Note_on_c, 6, 36, 100
9, 149970, Note_on_c, 6, 20, 100
9, 149970, Note_on_c, 6, 24, 100
9, 150000, Note_off_c, 6, 32, 0
9, 150000, Note_off_c, 6, 36, 0
9, 150000, Note_off_c, 6, 20, 0
9, 150000, Note_off_c, 6, 24, 0
9, 150000, Note_on_c, 6, 32, 100
9, 150000, Note_on_c, 6, 36, 100
9, 150000, Note_on_c, 6, 20, 100
9, 150000, Note_on_c, 6, 24, 100
9, 150030, Note_off_c, 6, 32, 0
9, 150030, Note_off_c, 6, 36, 0
9, 150030, Note_off_c, 6, 20, 0
9, 150030, Note_off_c, 6, 24, 0
9, 150030, Note_on_c, 6, 32, 100
9, 150030, Note_on_c, 6, 36, 100
9, 150030, Note_on_c, 6, 20, 100
9, 150030, Note_on_c, 6, 24, 100
9, 150060, Note_off_c, 6, 32, 0
9, 150060, Note_off_c, 6, 36, 0
9, 150060, Note_off_c, 6, 20, 0
9, 150060, Note_off_c, 6, 24, 0
9, 150060, Note_on_c, 6, 32, 100
9, 150060, Note_on_c, 6, 36, 100
9, 150060, Note_on_c, 6, 20, 100
9, 150060, Note_on_c, 6, 24, 100
9, 150090, Note_off_c, 6, 32, 0
9, 150090, Note_off_c, 6, 36, 0
9, 150090, Note_off_c, 6, 20, 0
9, 150090, Note_off_c, 6, 24, 0
9, 150090, Note_on_c, 6, 32, 100
9, 150090, Note_on_c, 6, 36, 100
9, 150090, Note_on_c, 6, 20, 100
9, 150090, Note_on_c, 6, 24, 100
9, 150120, Note_off_c, 6, 32, 0
9, 150120, Note_off_c, 6, 36, 0
9, 150120, Note_off_c, 6, 20, 0
9, 150120, Note_off_c, 6, 24, 0
9, 150120, Note_on_c, 6, 32, 100
9, 150120, Note_on_c, 6, 36, 100
9, 150120, Note_on_c, 6, 20, 100
9, 150120, Note_on_c, 6, 24, 100
9, 150150, Note_off_c, 6, 32, 0
9, 150150, Note_off_c, 6, 36, 0
9, 150150, Note_off_c, 6, 20, 0
9, 150150, Note_off_c, 6, 24, 0
9, 150150, Note_on_c, 6, 32, 100
9, 150150, Note_on_c, 6, 36, 100
9, 150150, Note_on_c, 6, 20, 100
9, 150150, Note_on_c, 6, 24, 100
9, 150180, Note_off_c, 6, 32, 0
9, 150180, Note_off_c, 6, 36, 0
9, 150180, Note_off_c, 6, 20, 0
9, 150180, Note_off_c, 6, 24, 0
9, 150180, Note_on_c, 6, 32, 100
9, 150180, Note_on_c, 6, 36, 100
9, 150180, Note_on_c, 6, 20, 100
9, 150180, Note_on_c, 6, 24, 100
9, 150210, Note_off_c, 6, 32, 0
9, 150210, Note_off_c, 6, 36, 0
9, 150210, Note_off_c, 6, 20, 0
9, 150210, Note_off_c, 6, 24, 0
9, 150210, Note_on_c, 6, 32, 100
9, 150210, Note_on_c, 6, 36, 100
9, 150210, Note_on_c, 6, 20, 100
9, 150210, Note_on_c, 6, 24, 100
9, 150240, Note_off_c, 6, 32, 0
9, 150240, Note_off_c, 6, 36, 0
9, 150240, Note_off_c, 6, 20, 0
9, 150240, Note_off_c, 6, 24, 0
9, 150240, Note_on_c, 6, 30, 100
9, 150240, Note_on_c, 6, 34, 100
9, 150240, Note_on_c, 6, 18, 100
9, 150240, Note_on_c, 6, 22, 100
9, 150270, Note_off_c, 6, 30, 0
9, 150270, Note_off_c, 6, 34, 0
9, 150270, Note_off_c, 6, 18, 0
9, 150270, Note_off_c, 6, 22, 0
9, 150270, Note_on_c, 6, 30, 100
9, 150270, Note_on_c, 6, 34, 100
9, 150270, Note_on_c, 6, 18, 100
9, 150270, Note_on_c, 6, 22, 100
9, 150300, Note_off_c, 6, 30, 0
9, 150300, Note_off_c, 6, 34, 0
9, 150300, Note_off_c, 6, 18, 0
9, 150300, Note_off_c, 6, 22, 0
9, 150300, Note_on_c, 6, 30, 100
9, 150300, Note_on_c, 6, 34, 100
9, 150300, Note_on_c, 6, 18, 100
9, 150300, Note_on_c, 6, 22, 100
9, 150330, Note_off_c, 6, 30, 0
9, 150330, Note_off_c, 6, 34, 0
9, 150330, Note_off_c, 6, 18, 0
9, 150330, Note_off_c, 6, 22, 0
9, 150330, Note_on_c, 6, 30, 100
9, 150330, Note_on_c, 6, 34, 100
9, 150330, Note_on_c, 6, 18, 100
9, 150330, Note_on_c, 6, 22, 100
9, 150360, Note_off_c, 6, 30, 0
9, 150360, Note_off_c, 6, 34, 0
9, 150360, Note_off_c, 6, 18, 0
9, 150360, Note_off_c, 6, 22, 0
9, 150360, Note_on_c, 6, 30, 100
9, 150360, Note_on_c, 6, 34, 100
9, 150360, Note_on_c, 6, 18, 100
9, 150360, Note_on_c, 6, 22, 100
9, 150390, Note_off_c, 6, 30, 0
9, 150390, Note_off_c, 6, 34, 0
9, 150390, Note_off_c, 6, 18, 0
9, 150390, Note_off_c, 6, 22, 0
9, 150390, Note_on_c, 6, 30, 100
9, 150390, Note_on_c, 6, 34, 100
9, 150390, Note_on_c, 6, 18, 100
9, 150390, Note_on_c, 6, 22, 100
9, 150420, Note_off_c, 6, 30, 0
9, 150420, Note_off_c, 6, 34, 0
9, 150420, Note_off_c, 6, 18, 0
9, 150420, Note_off_c, 6, 22, 0
9, 150420, Note_on_c, 6, 30, 100
9, 150420, Note_on_c, 6, 34, 100
9, 150420, Note_on_c, 6, 18, 100
9, 150420, Note_on_c, 6, 22, 100
9, 150450, Note_off_c, 6, 30, 0
9, 150450, Note_off_c, 6, 34, 0
9, 150450, Note_off_c, 6, 18, 0
9, 150450, Note_off_c, 6, 22, 0
9, 150450, Note_on_c, 6, 30, 100
9, 150450, Note_on_c, 6, 34, 100
9, 150450, Note_on_c, 6, 18, 100
9, 150450, Note_on_c, 6, 22, 100
9, 150480, Note_off_c, 6, 30, 0
9, 150480, Note_off_c, 6, 34, 0
9, 150480, Note_off_c, 6, 18, 0
9, 150480, Note_off_c, 6, 22, 0
9, 150480, Note_on_c, 6, 30, 100
9, 150480, Note_on_c, 6, 34, 100
9, 150480, Note_on_c, 6, 18, 100
9, 150480, Note_on_c, 6, 22, 100
9, 150510, Note_off_c, 6, 30, 0
9, 150510, Note_off_c, 6, 34, 0
9, 150510, Note_off_c, 6, 18, 0
9, 150510, Note_off_c, 6, 22, 0
9, 150510, Note_on_c, 6, 30, 100
9, 150510, Note_on_c, 6, 34, 100
9, 150510, Note_on_c, 6, 18, 100
9, 150510, Note_on_c, 6, 22, 100
9, 150540, Note_off_c, 6, 30, 0
9, 150540, Note_off_c, 6, 34, 0
9, 150540, Note_off_c, 6, 18, 0
9, 150540, Note_off_c, 6, 22, 0
9, 150540, Note_on_c, 6, 30, 100
9, 150540, Note_on_c, 6, 34, 100
9, 150540, Note_on_c, 6, 18, 100
9, 150540, Note_on_c, 6, 22, 100
9, 150570, Note_off_c, 6, 30, 0
9, 150570, Note_off_c, 6, 34, 0
9, 150570, Note_off_c, 6, 18, 0
9, 150570, Note_off_c, 6, 22, 0
9, 150570, Note_on_c, 6, 30, 100
9, 150570, Note_on_c, 6, 34, 100
9, 150570, Note_on_c, 6, 18, 100
9, 150570, Note_on_c, 6, 22, 100
9, 150600, Note_off_c, 6, 30, 0
9, 150600, Note_off_c, 6, 34, 0
9, 150600, Note_off_c, 6, 18, 0
9, 150600, Note_off_c, 6, 22, 0
9, 150600, Note_on_c, 6, 30, 100
9, 150600, Note_on_c, 6, 34, 100
9, 150600, Note_on_c, 6, 18, 100
9, 150600, Note_on_c, 6, 22, 100
9, 150630, Note_off_c, 6, 30, 0
9, 150630, Note_off_c, 6, 34, 0
9, 150630, Note_off_c, 6, 18, 0
9, 150630, Note_off_c, 6, 22, 0
9, 150630, Note_on_c, 6, 30, 100
9, 150630, Note_on_c, 6, 34, 100
9, 150630, Note_on_c, 6, 18, 100
9, 150630, Note_on_c, 6, 22, 100
9, 150660, Note_off_c, 6, 30, 0
9, 150660, Note_off_c, 6, 34, 0
9, 150660, Note_off_c, 6, 18, 0
9, 150660, Note_off_c, 6, 22, 0
9, 150660, Note_on_c, 6, 30, 100
9, 150660, Note_on_c, 6, 34, 100
9, 150660, Note_on_c, 6, 18, 100
9, 150660, Note_on_c, 6, 22, 100
9, 150690, Note_off_c, 6, 30, 0
9, 150690, Note_off_c, 6, 34, 0
9, 150690, Note_off_c, 6, 18, 0
9, 150690, Note_off_c, 6, 22, 0
9, 150690, Note_on_c, 6, 30, 100
9, 150690, Note_on_c, 6, 34, 100
9, 150690, Note_on_c, 6, 18, 100
9, 150690, Note_on_c, 6, 22, 100
9, 150720, Note_off_c, 6, 30, 0
9, 150720, Note_off_c, 6, 34, 0
9, 150720, Note_off_c, 6, 18, 0
9, 150720, Note_off_c, 6, 22, 0
9, 150720, Note_on_c, 6, 30, 100
9, 150720, Note_on_c, 6, 34, 100
9, 150720, Note_on_c, 6, 18, 100
9, 150720, Note_on_c, 6, 22, 100
9, 150750, Note_off_c, 6, 30, 0
9, 150750, Note_off_c, 6, 34, 0
9, 150750, Note_off_c, 6, 18, 0
9, 150750, Note_off_c, 6, 22, 0
9, 150750, Note_on_c, 6, 30, 100
9, 150750, Note_on_c, 6, 34, 100
9, 150750, Note_on_c, 6, 18, 100
9, 150750, Note_on_c, 6, 22, 100
9, 150780, Note_off_c, 6, 30, 0
9, 150780, Note_off_c, 6, 34, 0
9, 150780, Note_off_c, 6, 18, 0
9, 150780, Note_off_c, 6, 22, 0
9, 150780, Note_on_c, 6, 30, 100
9, 150780, Note_on_c, 6, 34, 100
9, 150780, Note_on_c, 6, 18, 100
9, 150780, Note_on_c, 6, 22, 100
9, 150810, Note_off_c, 6, 30, 0
9, 150810, Note_off_c, 6, 34, 0
9, 150810, Note_off_c, 6, 18, 0
9, 150810, Note_off_c, 6, 22, 0
9, 150810, Note_on_c, 6, 30, 100
9, 150810, Note_on_c, 6, 34, 100
9, 150810, Note_on_c, 6, 18, 100
9, 150810, Note_on_c, 6, 22, 100
9, 150840, Note_off_c, 6, 30, 0
9, 150840, Note_off_c, 6, 34, 0
9, 150840, Note_off_c, 6, 18, 0
9, 150840, Note_off_c, 6, 22, 0
9, 150840, Note_on_c, 6, 30, 100
9, 150840, Note_on_c, 6, 34, 100
9, 150840, Note_on_c, 6, 18, 100
9, 150840, Note_on_c, 6, 22, 100
9, 150870, Note_off_c, 6, 30, 0
9, 150870, Note_off_c, 6, 34, 0
9, 150870, Note_off_c, 6, 18, 0
9, 150870, Note_off_c, 6, 22, 0
9, 150870, Note_on_c, 6, 30, 100
9, 150870, Note_on_c, 6, 34, 100
9, 150870, Note_on_c, 6, 18, 100
9, 150870, Note_on_c, 6, 22, 100
9, 150900, Note_off_c, 6, 30, 0
9, 150900, Note_off_c, 6, 34, 0
9, 150900, Note_off_c, 6, 18, 0
9, 150900, Note_off_c, 6, 22, 0
9, 150900, Note_on_c, 6, 30, 100
9, 150900, Note_on_c, 6, 34, 100
9, 150900, Note_on_c, 6, 18, 100
9, 150900, Note_on_c, 6, 22, 100
9, 150930, Note_off_c, 6, 30, 0
9, 150930, Note_off_c, 6, 34, 0
9, 150930, Note_off_c, 6, 18, 0
9, 150930, Note_off_c, 6, 22, 0
9, 150930, Note_on_c, 6, 30, 100
9, 150930, Note_on_c, 6, 34, 100
9, 150930, Note_on_c, 6, 18, 100
9, 150930, Note_on_c, 6, 22, 100
9, 150960, Note_off_c, 6, 30, 0
9, 150960, Note_off_c, 6, 34, 0
9, 150960, Note_off_c, 6, 18, 0
9, 150960, Note_off_c, 6, 22, 0
9, 150960, Note_on_c, 6, 30, 100
9, 150960, Note_on_c, 6, 34, 100
9, 150960, Note_on_c, 6, 18, 100
9, 150960, Note_on_c, 6, 22, 100
9, 150990, Note_off_c, 6, 30, 0
9, 150990, Note_off_c, 6, 34, 0
9, 150990, Note_off_c, 6, 18, 0
9, 150990, Note_off_c, 6, 22, 0
9, 150990, Note_on_c, 6, 30, 100
9, 150990, Note_on_c, 6, 34, 100
9, 150990, Note_on_c, 6, 18, 100
9, 150990, Note_on_c, 6, 22, 100
9, 151020, Note_off_c, 6, 30, 0
9, 151020, Note_off_c, 6, 34, 0
9, 151020, Note_off_c, 6, 18, 0
9, 151020, Note_off_c, 6, 22, 0
9, 151020, Note_on_c, 6, 30, 100
9, 151020, Note_on_c, 6, 34, 100
9, 151020, Note_on_c, 6, 18, 100
9, 151020, Note_on_c, 6, 22, 100
9, 151050, Note_off_c, 6, 30, 0
9, 151050, Note_off_c, 6, 34, 0
9, 151050, Note_off_c, 6, 18, 0
9, 151050, Note_off_c, 6, 22, 0
9, 151050, Note_on_c, 6, 30, 100
9, 151050, Note_on_c, 6, 34, 100
9, 151050, Note_on_c, 6, 18, 100
9, 151050, Note_on_c, 6, 22, 100
9, 151080, Note_off_c, 6, 30, 0
9, 151080, Note_off_c, 6, 34, 0
9, 151080, Note_off_c, 6, 18, 0
9, 151080, Note_off_c, 6, 22, 0
9, 151080, Note_on_c, 6, 30, 100
9, 151080, Note_on_c, 6, 34, 100
9, 151080, Note_on_c, 6, 18, 100
9, 151080, Note_on_c, 6, 22, 100
9, 151110, Note_off_c, 6, 30, 0
9, 151110, Note_off_c, 6, 34, 0
9, 151110, Note_off_c, 6, 18, 0
9, 151110, Note_off_c, 6, 22, 0
9, 151110, Note_on_c, 6, 30, 100
9, 151110, Note_on_c, 6, 34, 100
9, 151110, Note_on_c, 6, 18, 100
9, 151110, Note_on_c, 6, 22, 100
9, 151140, Note_off_c, 6, 30, 0
9, 151140, Note_off_c, 6, 34, 0
9, 151140, Note_off_c, 6, 18, 0
9, 151140, Note_off_c, 6, 22, 0
9, 151140, Note_on_c, 6, 30, 100
9, 151140, Note_on_c, 6, 34, 100
9, 151140, Note_on_c, 6, 18, 100
9, 151140, Note_on_c, 6, 22, 100
9, 151170, Note_off_c, 6, 30, 0
9, 151170, Note_off_c, 6, 34, 0
9, 151170, Note_off_c, 6, 18, 0
9, 151170, Note_off_c, 6, 22, 0
9, 151170, Note_on_c, 6, 30, 100
9, 151170, Note_on_c, 6, 34, 100
9, 151170, Note_on_c, 6, 18, 100
9, 151170, Note_on_c, 6, 22, 100
9, 151200, Note_off_c, 6, 30, 0
9, 151200, Note_off_c, 6, 34, 0
9, 151200, Note_off_c, 6, 18, 0
9, 151200, Note_off_c, 6, 22, 0
9, 151200, Note_on_c, 6, 29, 100
9, 151200, Note_on_c, 6, 33, 100
9, 151200, Note_on_c, 6, 17, 100
9, 151200, Note_on_c, 6, 21, 100
9, 151230, Note_off_c, 6, 29, 0
9, 151230, Note_off_c, 6, 33, 0
9, 151230, Note_off_c, 6, 17, 0
9, 151230, Note_off_c, 6, 21, 0
9, 151230, Note_on_c, 6, 29, 100
9, 151230, Note_on_c, 6, 33, 100
9, 151230, Note_on_c, 6, 17, 100
9, 151230, Note_on_c, 6, 21, 100
9, 151260, Note_off_c, 6, 29, 0
9, 151260, Note_off_c, 6, 33, 0
9, 151260, Note_off_c, 6, 17, 0
9, 151260, Note_off_c, 6, 21, 0
9, 151260, Note_on_c, 6, 29, 100
9, 151260, Note_on_c, 6, 33, 100
9, 151260, Note_on_c, 6, 17, 100
9, 151260, Note_on_c, 6, 21, 100
9, 151290, Note_off_c, 6, 29, 0
9, 151290, Note_off_c, 6, 33, 0
9, 151290, Note_off_c, 6, 17, 0
9, 151290, Note_off_c, 6, 21, 0
9, 151290, Note_on_c, 6, 29, 100
9, 151290, Note_on_c, 6, 33, 100
9, 151290, Note_on_c, 6, 17, 100
9, 151290, Note_on_c, 6, 21, 100
9, 151320, Note_off_c, 6, 29, 0
9, 151320, Note_off_c, 6, 33, 0
9, 151320, Note_off_c, 6, 17, 0
9, 151320, Note_off_c, 6, 21, 0
9, 151320, Note_on_c, 6, 29, 100
9, 151320, Note_on_c, 6, 33, 100
9, 151320, Note_on_c, 6, 17, 100
9, 151320, Note_on_c, 6, 21, 100
9, 151350, Note_off_c, 6, 29, 0
9, 151350, Note_off_c, 6, 33, 0
9, 151350, Note_off_c, 6, 17, 0
9, 151350, Note_off_c, 6, 21, 0
9, 151350, Note_on_c, 6, 29, 100
9, 151350, Note_on_c, 6, 33, 100
9, 151350, Note_on_c, 6, 17, 100
9, 151350, Note_on_c, 6, 21, 100
9, 151380, Note_off_c, 6, 29, 0
9, 151380, Note_off_c, 6, 33, 0
9, 151380, Note_off_c, 6, 17, 0
9, 151380, Note_off_c, 6, 21, 0
9, 151380, Note_on_c, 6, 29, 100
9, 151380, Note_on_c, 6, 33, 100
9, 151380, Note_on_c, 6, 17, 100
9, 151380, Note_on_c, 6, 21, 100
9, 151410, Note_off_c, 6, 29, 0
9, 151410, Note_off_c, 6, 33, 0
9, 151410, Note_off_c, 6, 17, 0
9, 151410, Note_off_c, 6, 21, 0
9, 151410, Note_on_c, 6, 29, 100
9, 151410, Note_on_c, 6, 33, 100
9, 151410, Note_on_c, 6, 17, 100
9, 151410, Note_on_c, 6, 21, 100
9, 151440, Note_off_c, 6, 29, 0
9, 151440, Note_off_c, 6, 33, 0
9, 151440, Note_off_c, 6, 17, 0
9, 151440, Note_off_c, 6, 21, 0
9, 151440, Note_on_c, 6, 29, 100
9, 151440, Note_on_c, 6, 33, 100
9, 151440, Note_on_c, 6, 17, 100
9, 151440, Note_on_c, 6, 21, 100
9, 151470, Note_off_c, 6, 29, 0
9, 151470, Note_off_c, 6, 33, 0
9, 151470, Note_off_c, 6, 17, 0
9, 151470, Note_off_c, 6, 21, 0
9, 151470, Note_on_c, 6, 29, 100
9, 151470, Note_on_c, 6, 33, 100
9, 151470, Note_on_c, 6, 17, 100
9, 151470, Note_on_c, 6, 21, 100
9, 151500, Note_off_c, 6, 29, 0
9, 151500, Note_off_c, 6, 33, 0
9, 151500, Note_off_c, 6, 17, 0
9, 151500, Note_off_c, 6, 21, 0
9, 151500, Note_on_c, 6, 29, 100
9, 151500, Note_on_c, 6, 33, 100
9, 151500, Note_on_c, 6, 17, 100
9, 151500, Note_on_c, 6, 21, 100
9, 151530, Note_off_c, 6, 29, 0
9, 151530, Note_off_c, 6, 33, 0
9, 151530, Note_off_c, 6, 17, 0
9, 151530, Note_off_c, 6, 21, 0
9, 151530, Note_on_c, 6, 29, 100
9, 151530, Note_on_c, 6, 33, 100
9, 151530, Note_on_c, 6, 17, 100
9, 151530, Note_on_c, 6, 21, 100
9, 151560, Note_off_c, 6, 29, 0
9, 151560, Note_off_c, 6, 33, 0
9, 151560, Note_off_c, 6, 17, 0
9, 151560, Note_off_c, 6, 21, 0
9, 151560, Note_on_c, 6, 29, 100
9, 151560, Note_on_c, 6, 33, 100
9, 151560, Note_on_c, 6, 17, 100
9, 151560, Note_on_c, 6, 21, 100
9, 151590, Note_off_c, 6, 29, 0
9, 151590, Note_off_c, 6, 33, 0
9, 151590, Note_off_c, 6, 17, 0
9, 151590, Note_off_c, 6, 21, 0
9, 151590, Note_on_c, 6, 29, 100
9, 151590, Note_on_c, 6, 33, 100
9, 151590, Note_on_c, 6, 17, 100
9, 151590, Note_on_c, 6, 21, 100
9, 151620, Note_off_c, 6, 29, 0
9, 151620, Note_off_c, 6, 33, 0
9, 151620, Note_off_c, 6, 17, 0
9, 151620, Note_off_c, 6, 21, 0
9, 151620, Note_on_c, 6, 29, 100
9, 151620, Note_on_c, 6, 33, 100
9, 151620, Note_on_c, 6, 17, 100
9, 151620, Note_on_c, 6, 21, 100
9, 151650, Note_off_c, 6, 29, 0
9, 151650, Note_off_c, 6, 33, 0
9, 151650, Note_off_c, 6, 17, 0
9, 151650, Note_off_c, 6, 21, 0
9, 151650, Note_on_c, 6, 29, 100
9, 151650, Note_on_c, 6, 33, 100
9, 151650, Note_on_c, 6, 17, 100
9, 151650, Note_on_c, 6, 21, 100
9, 151680, Note_off_c, 6, 29, 0
9, 151680, Note_off_c, 6, 33, 0
9, 151680, Note_off_c, 6, 17, 0
9, 151680, Note_off_c, 6, 21, 0
9, 151680, Note_on_c, 6, 29, 100
9, 151680, Note_on_c, 6, 33, 100
9, 151680, Note_on_c, 6, 17, 100
9, 151680, Note_on_c, 6, 21, 100
9, 151710, Note_off_c, 6, 29, 0
9, 151710, Note_off_c, 6, 33, 0
9, 151710, Note_off_c, 6, 17, 0
9, 151710, Note_off_c, 6, 21, 0
9, 151710, Note_on_c, 6, 29, 100
9, 151710, Note_on_c, 6, 33, 100
9, 151710, Note_on_c, 6, 17, 100
9, 151710, Note_on_c, 6, 21, 100
9, 151740, Note_off_c, 6, 29, 0
9, 151740, Note_off_c, 6, 33, 0
9, 151740, Note_off_c, 6, 17, 0
9, 151740, Note_off_c, 6, 21, 0
9, 151740, Note_on_c, 6, 29, 100
9, 151740, Note_on_c, 6, 33, 100
9, 151740, Note_on_c, 6, 17, 100
9, 151740, Note_on_c, 6, 21, 100
9, 151770, Note_off_c, 6, 29, 0
9, 151770, Note_off_c, 6, 33, 0
9, 151770, Note_off_c, 6, 17, 0
9, 151770, Note_off_c, 6, 21, 0
9, 151770, Note_on_c, 6, 29, 100
9, 151770, Note_on_c, 6, 33, 100
9, 151770, Note_on_c, 6, 17, 100
9, 151770, Note_on_c, 6, 21, 100
9, 151800, Note_off_c, 6, 29, 0
9, 151800, Note_off_c, 6, 33, 0
9, 151800, Note_off_c, 6, 17, 0
9, 151800, Note_off_c, 6, 21, 0
9, 151800, Note_on_c, 6, 29, 100
9, 151800, Note_on_c, 6, 33, 100
9, 151800, Note_on_c, 6, 17, 100
9, 151800, Note_on_c, 6, 21, 100
9, 151830, Note_off_c, 6, 29, 0
9, 151830, Note_off_c, 6, 33, 0
9, 151830, Note_off_c, 6, 17, 0
9, 151830, Note_off_c, 6, 21, 0
9, 151830, Note_on_c, 6, 29, 100
9, 151830, Note_on_c, 6, 33, 100
9, 151830, Note_on_c, 6, 17, 100
9, 151830, Note_on_c, 6, 21, 100
9, 151860, Note_off_c, 6, 29, 0
9, 151860, Note_off_c, 6, 33, 0
9, 151860, Note_off_c, 6, 17, 0
9, 151860, Note_off_c, 6, 21, 0
9, 151860, Note_on_c, 6, 29, 100
9, 151860, Note_on_c, 6, 33, 100
9, 151860, Note_on_c, 6, 17, 100
9, 151860, Note_on_c, 6, 21, 100
9, 151890, Note_off_c, 6, 29, 0
9, 151890, Note_off_c, 6, 33, 0
9, 151890, Note_off_c, 6, 17, 0
9, 151890, Note_off_c, 6, 21, 0
9, 151890, Note_on_c, 6, 29, 100
9, 151890, Note_on_c, 6, 33, 100
9, 151890, Note_on_c, 6, 17, 100
9, 151890, Note_on_c, 6, 21, 100
9, 151920, Note_off_c, 6, 29, 0
9, 151920, Note_off_c, 6, 33, 0
9, 151920, Note_off_c, 6, 17, 0
9, 151920, Note_off_c, 6, 21, 0
9, 151920, Note_on_c, 6, 29, 100
9, 151920, Note_on_c, 6, 33, 100
9, 151920, Note_on_c, 6, 17, 100
9, 151920, Note_on_c, 6, 21, 100
9, 151950, Note_off_c, 6, 29, 0
9, 151950, Note_off_c, 6, 33, 0
9, 151950, Note_off_c, 6, 17, 0
9, 151950, Note_off_c, 6, 21, 0
9, 151950, Note_on_c, 6, 29, 100
9, 151950, Note_on_c, 6, 33, 100
9, 151950, Note_on_c, 6, 17, 100
9, 151950, Note_on_c, 6, 21, 100
9, 151980, Note_off_c, 6, 29, 0
9, 151980, Note_off_c, 6, 33, 0
9, 151980, Note_off_c, 6, 17, 0
9, 151980, Note_off_c, 6, 21, 0
9, 151980, Note_on_c, 6, 29, 100
9, 151980, Note_on_c, 6, 33, 100
9, 151980, Note_on_c, 6, 17, 100
9, 151980, Note_on_c, 6, 21, 100
9, 152010, Note_off_c, 6, 29, 0
9, 152010, Note_off_c, 6, 33, 0
9, 152010, Note_off_c, 6, 17, 0
9, 152010, Note_off_c, 6, 21, 0
9, 152010, Note_on_c, 6, 29, 100
9, 152010, Note_on_c, 6, 33, 100
9, 152010, Note_on_c, 6, 17, 100
9, 152010, Note_on_c, 6, 21, 100
9, 152040, Note_off_c, 6, 29, 0
9, 152040, Note_off_c, 6, 33, 0
9, 152040, Note_off_c, 6, 17, 0
9, 152040, Note_off_c, 6, 21, 0
9, 152040, Note_on_c, 6, 29, 100
9, 152040, Note_on_c, 6, 33, 100
9, 152040, Note_on_c, 6, 17, 100
9, 152040, Note_on_c, 6, 21, 100
9, 152070, Note_off_c, 6, 29, 0
9, 152070, Note_off_c, 6, 33, 0
9, 152070, Note_off_c, 6, 17, 0
9, 152070, Note_off_c, 6, 21, 0
9, 152070, Note_on_c, 6, 29, 100
9, 152070, Note_on_c, 6, 33, 100
9, 152070, Note_on_c, 6, 17, 100
9, 152070, Note_on_c, 6, 21, 100
9, 152100, Note_off_c, 6, 29, 0
9, 152100, Note_off_c, 6, 33, 0
9, 152100, Note_off_c, 6, 17, 0
9, 152100, Note_off_c, 6, 21, 0
9, 152100, Note_on_c, 6, 29, 100
9, 152100, Note_on_c, 6, 33, 100
9, 152100, Note_on_c, 6, 17, 100
9, 152100, Note_on_c, 6, 21, 100
9, 152130, Note_off_c, 6, 29, 0
9, 152130, Note_off_c, 6, 33, 0
9, 152130, Note_off_c, 6, 17, 0
9, 152130, Note_off_c, 6, 21, 0
9, 152130, Note_on_c, 6, 29, 100
9, 152130, Note_on_c, 6, 33, 100
9, 152130, Note_on_c, 6, 17, 100
9, 152130, Note_on_c, 6, 21, 100
9, 152160, Note_off_c, 6, 29, 0
9, 152160, Note_off_c, 6, 33, 0
9, 152160, Note_off_c, 6, 17, 0
9, 152160, Note_off_c, 6, 21, 0
9, 152160, Note_on_c, 6, 29, 100
9, 152160, Note_on_c, 6, 33, 100
9, 152160, Note_on_c, 6, 17, 100
9, 152160, Note_on_c, 6, 21, 100
9, 152190, Note_off_c, 6, 29, 0
9, 152190, Note_off_c, 6, 33, 0
9, 152190, Note_off_c, 6, 17, 0
9, 152190, Note_off_c, 6, 21, 0
9, 152190, Note_on_c, 6, 29, 100
9, 152190, Note_on_c, 6, 33, 100
9, 152190, Note_on_c, 6, 17, 100
9, 152190, Note_on_c, 6, 21, 100
9, 152220, Note_off_c, 6, 29, 0
9, 152220, Note_off_c, 6, 33, 0
9, 152220, Note_off_c, 6, 17, 0
9, 152220, Note_off_c, 6, 21, 0
9, 152220, Note_on_c, 6, 29, 100
9, 152220, Note_on_c, 6, 33, 100
9, 152220, Note_on_c, 6, 17, 100
9, 152220, Note_on_c, 6, 21, 100
9, 152250, Note_off_c, 6, 29, 0
9, 152250, Note_off_c, 6, 33, 0
9, 152250, Note_off_c, 6, 17, 0
9, 152250, Note_off_c, 6, 21, 0
9, 152250, Note_on_c, 6, 29, 100
9, 152250, Note_on_c, 6, 33, 100
9, 152250, Note_on_c, 6, 17, 100
9, 152250, Note_on_c, 6, 21, 100
9, 152280, Note_off_c, 6, 29, 0
9, 152280, Note_off_c, 6, 33, 0
9, 152280, Note_off_c, 6, 17, 0
9, 152280, Note_off_c, 6, 21, 0
9, 152280, Note_on_c, 6, 29, 100
9, 152280, Note_on_c, 6, 33, 100
9, 152280, Note_on_c, 6, 17, 100
9, 152280, Note_on_c, 6, 21, 100
9, 152310, Note_off_c, 6, 29, 0
9, 152310, Note_off_c, 6, 33, 0
9, 152310, Note_off_c, 6, 17, 0
9, 152310, Note_off_c, 6, 21, 0
9, 152310, Note_on_c, 6, 29, 100
9, 152310, Note_on_c, 6, 33, 100
9, 152310, Note_on_c, 6, 17, 100
9, 152310, Note_on_c, 6, 21, 100
9, 152340, Note_off_c, 6, 29, 0
9, 152340, Note_off_c, 6, 33, 0
9, 152340, Note_off_c, 6, 17, 0
9, 152340, Note_off_c, 6, 21, 0
9, 152340, Note_on_c, 6, 29, 100
9, 152340, Note_on_c, 6, 33, 100
9, 152340, Note_on_c, 6, 17, 100
9, 152340, Note_on_c, 6, 21, 100
9, 152370, Note_off_c, 6, 29, 0
9, 152370, Note_off_c, 6, 33, 0
9, 152370, Note_off_c, 6, 17, 0
9, 152370, Note_off_c, 6, 21, 0
9, 152370, Note_on_c, 6, 29, 100
9, 152370, Note_on_c, 6, 33, 100
9, 152370, Note_on_c, 6, 17, 100
9, 152370, Note_on_c, 6, 21, 100
9, 152400, Note_off_c, 6, 29, 0
9, 152400, Note_off_c, 6, 33, 0
9, 152400, Note_off_c, 6, 17, 0
9, 152400, Note_off_c, 6, 21, 0
9, 152400, Note_on_c, 6, 29, 100
9, 152400, Note_on_c, 6, 33, 100
9, 152400, Note_on_c, 6, 17, 100
9, 152400, Note_on_c, 6, 21, 100
9, 152430, Note_off_c, 6, 29, 0
9, 152430, Note_off_c, 6, 33, 0
9, 152430, Note_off_c, 6, 17, 0
9, 152430, Note_off_c, 6, 21, 0
9, 152430, Note_on_c, 6, 29, 100
9, 152430, Note_on_c, 6, 33, 100
9, 152430, Note_on_c, 6, 17, 100
9, 152430, Note_on_c, 6, 21, 100
9, 152460, Note_off_c, 6, 29, 0
9, 152460, Note_off_c, 6, 33, 0
9, 152460, Note_off_c, 6, 17, 0
9, 152460, Note_off_c, 6, 21, 0
9, 152460, Note_on_c, 6, 29, 100
9, 152460, Note_on_c, 6, 33, 100
9, 152460, Note_on_c, 6, 17, 100
9, 152460, Note_on_c, 6, 21, 100
9, 152490, Note_off_c, 6, 29, 0
9, 152490, Note_off_c, 6, 33, 0
9, 152490, Note_off_c, 6, 17, 0
9, 152490, Note_off_c, 6, 21, 0
9, 152490, Note_on_c, 6, 29, 100
9, 152490, Note_on_c, 6, 33, 100
9, 152490, Note_on_c, 6, 17, 100
9, 152490, Note_on_c, 6, 21, 100
9, 152520, Note_off_c, 6, 29, 0
9, 152520, Note_off_c, 6, 33, 0
9, 152520, Note_off_c, 6, 17, 0
9, 152520, Note_off_c, 6, 21, 0
9, 152520, Note_on_c, 6, 29, 100
9, 152520, Note_on_c, 6, 33, 100
9, 152520, Note_on_c, 6, 17, 100
9, 152520, Note_on_c, 6, 21, 100
9, 152550, Note_off_c, 6, 29, 0
9, 152550, Note_off_c, 6, 33, 0
9, 152550, Note_off_c, 6, 17, 0
9, 152550, Note_off_c, 6, 21, 0
9, 152550, Note_on_c, 6, 29, 100
9, 152550, Note_on_c, 6, 33, 100
9, 152550, Note_on_c, 6, 17, 100
9, 152550, Note_on_c, 6, 21, 100
9, 152580, Note_off_c, 6, 29, 0
9, 152580, Note_off_c, 6, 33, 0
9, 152580, Note_off_c, 6, 17, 0
9, 152580, Note_off_c, 6, 21, 0
9, 152580, Note_on_c, 6, 29, 100
9, 152580, Note_on_c, 6, 33, 100
9, 152580, Note_on_c, 6, 17, 100
9, 152580, Note_on_c, 6, 21, 100
9, 152610, Note_off_c, 6, 29, 0
9, 152610, Note_off_c, 6, 33, 0
9, 152610, Note_off_c, 6, 17, 0
9, 152610, Note_off_c, 6, 21, 0
9, 152610, Note_on_c, 6, 29, 100
9, 152610, Note_on_c, 6, 33, 100
9, 152610, Note_on_c, 6, 17, 100
9, 152610, Note_on_c, 6, 21, 100
9, 152640, Note_off_c, 6, 29, 0
9, 152640, Note_off_c, 6, 33, 0
9, 152640, Note_off_c, 6, 17, 0
9, 152640, Note_off_c, 6, 21, 0
9, 152640, Note_on_c, 6, 29, 100
9, 152640, Note_on_c, 6, 33, 100
9, 152640, Note_on_c, 6, 17, 100
9, 152640, Note_on_c, 6, 21, 100
9, 152670, Note_off_c, 6, 29, 0
9, 152670, Note_off_c, 6, 33, 0
9, 152670, Note_off_c, 6, 17, 0
9, 152670, Note_off_c, 6, 21, 0
9, 152670, Note_on_c, 6, 29, 100
9, 152670, Note_on_c, 6, 33, 100
9, 152670, Note_on_c, 6, 17, 100
9, 152670, Note_on_c, 6, 21, 100
9, 152700, Note_off_c, 6, 29, 0
9, 152700, Note_off_c, 6, 33, 0
9, 152700, Note_off_c, 6, 17, 0
9, 152700, Note_off_c, 6, 21, 0
9, 152700, Note_on_c, 6, 29, 100
9, 152700, Note_on_c, 6, 33, 100
9, 152700, Note_on_c, 6, 17, 100
9, 152700, Note_on_c, 6, 21, 100
9, 152730, Note_off_c, 6, 29, 0
9, 152730, Note_off_c, 6, 33, 0
9, 152730, Note_off_c, 6, 17, 0
9, 152730, Note_off_c, 6, 21, 0
9, 152730, Note_on_c, 6, 29, 100
9, 152730, Note_on_c, 6, 33, 100
9, 152730, Note_on_c, 6, 17, 100
9, 152730, Note_on_c, 6, 21, 100
9, 152760, Note_off_c, 6, 29, 0
9, 152760, Note_off_c, 6, 33, 0
9, 152760, Note_off_c, 6, 17, 0
9, 152760, Note_off_c, 6, 21, 0
9, 152760, Note_on_c, 6, 29, 100
9, 152760, Note_on_c, 6, 33, 100
9, 152760, Note_on_c, 6, 17, 100
9, 152760, Note_on_c, 6, 21, 100
9, 152790, Note_off_c, 6, 29, 0
9, 152790, Note_off_c, 6, 33, 0
9, 152790, Note_off_c, 6, 17, 0
9, 152790, Note_off_c, 6, 21, 0
9, 152790, Note_on_c, 6, 29, 100
9, 152790, Note_on_c, 6, 33, 100
9, 152790, Note_on_c, 6, 17, 100
9, 152790, Note_on_c, 6, 21, 100
9, 152820, Note_off_c, 6, 29, 0
9, 152820, Note_off_c, 6, 33, 0
9, 152820, Note_off_c, 6, 17, 0
9, 152820, Note_off_c, 6, 21, 0
9, 152820, Note_on_c, 6, 29, 100
9, 152820, Note_on_c, 6, 33, 100
9, 152820, Note_on_c, 6, 17, 100
9, 152820, Note_on_c, 6, 21, 100
9, 152850, Note_off_c, 6, 29, 0
9, 152850, Note_off_c, 6, 33, 0
9, 152850, Note_off_c, 6, 17, 0
9, 152850, Note_off_c, 6, 21, 0
9, 152850, Note_on_c, 6, 29, 100
9, 152850, Note_on_c, 6, 33, 100
9, 152850, Note_on_c, 6, 17, 100
9, 152850, Note_on_c, 6, 21, 100
9, 152880, Note_off_c, 6, 29, 0
9, 152880, Note_off_c, 6, 33, 0
9, 152880, Note_off_c, 6, 17, 0
9, 152880, Note_off_c, 6, 21, 0
9, 152880, Note_on_c, 6, 29, 100
9, 152880, Note_on_c, 6, 33, 100
9, 152880, Note_on_c, 6, 17, 100
9, 152880, Note_on_c, 6, 21, 100
9, 152910, Note_off_c, 6, 29, 0
9, 152910, Note_off_c, 6, 33, 0
9, 152910, Note_off_c, 6, 17, 0
9, 152910, Note_off_c, 6, 21, 0
9, 152910, Note_on_c, 6, 29, 100
9, 152910, Note_on_c, 6, 33, 100
9, 152910, Note_on_c, 6, 17, 100
9, 152910, Note_on_c, 6, 21, 100
9, 152940, Note_off_c, 6, 29, 0
9, 152940, Note_off_c, 6, 33, 0
9, 152940, Note_off_c, 6, 17, 0
9, 152940, Note_off_c, 6, 21, 0
9, 152940, Note_on_c, 6, 29, 100
9, 152940, Note_on_c, 6, 33, 100
9, 152940, Note_on_c, 6, 17, 100
9, 152940, Note_on_c, 6, 21, 100
9, 152970, Note_off_c, 6, 29, 0
9, 152970, Note_off_c, 6, 33, 0
9, 152970, Note_off_c, 6, 17, 0
9, 152970, Note_off_c, 6, 21, 0
9, 152970, Note_on_c, 6, 29, 100
9, 152970, Note_on_c, 6, 33, 100
9, 152970, Note_on_c, 6, 17, 100
9, 152970, Note_on_c, 6, 21, 100
9, 153000, Note_off_c, 6, 29, 0
9, 153000, Note_off_c, 6, 33, 0
9, 153000, Note_off_c, 6, 17, 0
9, 153000, Note_off_c, 6, 21, 0
9, 153000, Note_on_c, 6, 29, 100
9, 153000, Note_on_c, 6, 33, 100
9, 153000, Note_on_c, 6, 17, 100
9, 153000, Note_on_c, 6, 21, 100
9, 153030, Note_off_c, 6, 29, 0
9, 153030, Note_off_c, 6, 33, 0
9, 153030, Note_off_c, 6, 17, 0
9, 153030, Note_off_c, 6, 21, 0
9, 153030, Note_on_c, 6, 29, 100
9, 153030, Note_on_c, 6, 33, 100
9, 153030, Note_on_c, 6, 17, 100
9, 153030, Note_on_c, 6, 21, 100
9, 153060, Note_off_c, 6, 29, 0
9, 153060, Note_off_c, 6, 33, 0
9, 153060, Note_off_c, 6, 17, 0
9, 153060, Note_off_c, 6, 21, 0
9, 153060, Note_on_c, 6, 29, 100
9, 153060, Note_on_c, 6, 33, 100
9, 153060, Note_on_c, 6, 17, 100
9, 153060, Note_on_c, 6, 21, 100
9, 153090, Note_off_c, 6, 29, 0
9, 153090, Note_off_c, 6, 33, 0
9, 153090, Note_off_c, 6, 17, 0
9, 153090, Note_off_c, 6, 21, 0
9, 153090, Note_on_c, 6, 29, 100
9, 153090, Note_on_c, 6, 33, 100
9, 153090, Note_on_c, 6, 17, 100
9, 153090, Note_on_c, 6, 21, 100
9, 153120, Note_off_c, 6, 29, 0
9, 153120, Note_off_c, 6, 33, 0
9, 153120, Note_off_c, 6, 17, 0
9, 153120, Note_off_c, 6, 21, 0
9, 153210, End_track
0, 0, End_of_file
